<?xml version="1.0" encoding="UTF-8"?><svg id="Vrstva_1" xmlns="http://www.w3.org/2000/svg" viewBox="0 0 330 200"><defs><style>.cls-1{fill:#b700ff;}</style></defs><circle class="cls-1" cx="107.8631" cy="124.4784" r="10.0215"/><g><path d="m76.5166,91.0319c-1.9458-1.2808-3.3809-2.9429-4.3052-4.9858-.9238-2.0435-1.3862-4.2153-1.3862-6.5186v-.8271c0-2.335.4697-4.5239,1.4106-6.5669.9404-2.043,2.3594-3.6968,4.2563-4.9619,1.8975-1.2646,4.2241-1.897,6.9805-1.897,2.6592,0,4.9209.5835,6.7861,1.751,1.8643,1.1675,3.2593,2.7085,4.1836,4.6216.9243,1.9136,1.3862,3.9888,1.3862,6.2266v2.043h-23.0576v-3.3564h19.7983l-1.0215,1.7998c0-1.8486-.3003-3.4614-.8999-4.8403-.6006-1.3779-1.5161-2.4395-2.7485-3.186-1.2329-.7456-2.708-1.1187-4.4268-1.1187-1.8481,0-3.3975.4214-4.6455,1.2646-1.2485.8438-2.1812,2.0029-2.7969,3.478-.6167,1.4761-.9243,3.186-.9243,5.1318s.3164,3.6567.9487,5.1323c.6323,1.4761,1.5884,2.6436,2.8701,3.5024,1.2803.8594,2.894,1.2891,4.8398,1.2891,2.0103,0,3.6729-.4458,4.9863-1.3379,1.3135-.8916,2.1157-1.9858,2.4077-3.2837h4.2319c-.5518,2.6597-1.8564,4.7515-3.9155,6.2754-2.0601,1.5239-4.6299,2.2861-7.7104,2.2861-2.8867,0-5.3022-.6406-7.248-1.9214Z"/><path d="m106.8706,78.4088l-.146.9727-8.7559-13.2314h4.9614l6.3726,9.8262h.6812l6.0317-9.8262h4.6216l-8.2695,12.8911.1455-.876,9.7778,13.9126h-4.9619l-7.394-10.6045h-.6807l-7.1025,10.6045h-4.6211l9.3398-13.6689Z"/><path d="m124.5283,66.15h8.4644v3.5513h-8.4644v-3.5513Zm2.9917-5.0591c-.5029-.5181-.7539-1.1992-.7539-2.043,0-.8755.251-1.5728.7539-2.0918.5024-.5181,1.2402-.7783,2.2134-.7783.9727,0,1.7183.2603,2.2378.7783.5181.519.7783,1.2002.7783,2.043,0,.876-.2603,1.5737-.7783,2.0918-.5195.519-1.2651.7783-2.2378.7783-.9731,0-1.7109-.2593-2.2134-.7783Zm.9971,5.0591h4.4756v25.9277h-4.4756v-25.9277Z"/><path d="m141.5298,90.6915c-1.8652-1.4429-2.8296-3.4297-2.894-5.959h4.2319c.0317,1.2002.5752,2.2134,1.6294,3.04,1.0537.8271,2.6675,1.2407,4.8403,1.2407,2.0752,0,3.6802-.4053,4.8159-1.2163,1.1348-.8101,1.7026-1.8643,1.7026-3.1621,0-1.1021-.4136-1.9614-1.2407-2.5781-.8267-.6152-2.1484-1.0215-3.9644-1.2158l-2.8701-.292c-2.562-.292-4.5811-1.0532-6.0562-2.2861-1.4761-1.2324-2.2134-2.9023-2.2134-5.0107,0-1.6211.4209-3.0234,1.2646-4.2075.8428-1.1836,2.002-2.0918,3.478-2.7241,1.4756-.6323,3.1694-.9487,5.0835-.9487,2.9834,0,5.3584.665,7.1265,1.9946,1.7671,1.3301,2.6831,3.2271,2.7485,5.6914h-4.2324c-.0649-1.1348-.5757-2.0591-1.5322-2.7729-.9565-.7129-2.3271-1.0698-4.1104-1.0698-1.751,0-3.1216.373-4.1104,1.1187-.9897.7466-1.4839,1.7192-1.4839,2.9185,0,1.0059.3481,1.8086,1.0459,2.4082.6973.6006,1.7915.981,3.2837,1.1431l2.8213.292c2.8862.2915,5.1396,1.0698,6.7617,2.335,1.6211,1.2646,2.4321,3,2.4321,5.2046,0,1.5566-.4546,2.9678-1.3618,4.2324-.9087,1.2646-2.1816,2.2461-3.8188,2.9429-1.6377.6968-3.4946,1.0459-5.5698,1.0459-3.3403,0-5.9429-.7222-7.8076-2.1646Z"/><path d="m162.9087,66.15h17.8037v3.3564h-17.8037v-3.3564Zm8.7803,25.3442c-1.3789-.584-2.4321-1.5327-3.1621-2.8462-.7295-1.313-1.0942-3.0718-1.0942-5.2778v-25.1494h4.2808v25.6846c0,1.4272.3892,2.522,1.1675,3.2837.7783.7622,1.8643,1.1431,3.2593,1.1431h4.5723v4.0376h-3.9888c-1.9785,0-3.6567-.292-5.0347-.8755Z"/><path d="m188.106,89.84c-1.6538-2.0103-2.4805-4.8965-2.4805-8.6587v-15.0796h4.4751v16.0039c0,2.0757.5596,3.6968,1.6782,4.8643s2.6343,1.7515,4.5483,1.7515c2.0103,0,3.6318-.6401,4.8643-1.9214,1.2324-1.2808,1.8486-3.0078,1.8486-5.1807v-15.5176h4.5239v25.9761h-3.5508v-11.0908h.5835c0,3.8594-.7783,6.8022-2.335,8.8286-1.5566,2.0273-3.8594,3.0405-6.9077,3.0405h-.1943c-3.0488,0-5.3994-1.0049-7.0537-3.0161Z"/><path d="m210.2881,97.964h2.7725c1.2324,0,2.1807-.333,2.8457-.9976.6646-.665.9976-1.6294.9976-2.894v-27.9224h4.2808v27.2412c0,2.1401-.292,3.8345-.876,5.0835-.5835,1.248-1.5161,2.1479-2.7969,2.6997-1.2817.5508-2.9917.8267-5.1318.8267h-2.0918v-4.0371Zm2.481-31.814h8.4155v3.5513h-8.4155v-3.5513Zm2.9429-5.4482c-.5034-.5181-.7539-1.1992-.7539-2.043,0-.8755.2505-1.5728.7539-2.0918.5024-.5181,1.2402-.7783,2.2134-.7783.9727,0,1.71.2515,2.2134.7539.5024.5034.7539,1.1919.7539,2.0674,0,.8438-.2515,1.5327-.7539,2.0674-.5034.5352-1.2407.8027-2.2134.8027-.9731,0-1.7109-.2593-2.2134-.7783Z"/><path d="m232.8584,91.0319c-1.9458-1.2808-3.3809-2.9429-4.3052-4.9858-.9238-2.0435-1.3862-4.2153-1.3862-6.5186v-.8271c0-2.335.4697-4.5239,1.4106-6.5669.9404-2.043,2.3594-3.6968,4.2563-4.9619,1.8975-1.2646,4.2241-1.897,6.9805-1.897,2.6592,0,4.9209.5835,6.7861,1.751,1.8643,1.1675,3.2593,2.7085,4.1836,4.6216.9243,1.9136,1.3862,3.9888,1.3862,6.2266v2.043h-23.0576v-3.3564h19.7983l-1.0215,1.7998c0-1.8486-.3003-3.4614-.8999-4.8403-.6006-1.3779-1.5161-2.4395-2.7485-3.186-1.2329-.7456-2.708-1.1187-4.4268-1.1187-1.8481,0-3.3975.4214-4.6455,1.2646-1.2485.8438-2.1812,2.0029-2.7969,3.478-.6167,1.4761-.9243,3.186-.9243,5.1318s.3164,3.6567.9487,5.1323c.6323,1.4761,1.5884,2.6436,2.8701,3.5024,1.2803.8594,2.894,1.2891,4.8398,1.2891,2.0103,0,3.6729-.4458,4.9863-1.3379,1.3135-.8916,2.1157-1.9858,2.4077-3.2837h4.2319c-.5518,2.6597-1.8564,4.7515-3.9155,6.2754-2.0601,1.5239-4.6299,2.2861-7.7104,2.2861-2.8867,0-5.3022-.6406-7.248-1.9214Z"/><path d="m255.9644,91.2506c-.519-.5508-.7783-1.2319-.7783-2.043,0-.8101.2593-1.4912.7783-2.043.5186-.5513,1.1675-.8271,1.9458-.8271s1.4268.2759,1.9458.8271c.5186.5518.7783,1.2329.7783,2.043,0,.811-.2598,1.4922-.7783,2.043-.519.5518-1.1675.8271-1.9458.8271s-1.4272-.2754-1.9458-.8271Z"/><path d="m77.1978,136.4044c-2.1084-1.2808-3.6973-2.9507-4.7671-5.0103-1.0703-2.0591-1.6055-4.2236-1.6055-6.4941v-.8271c0-2.2695.5513-4.4341,1.6538-6.4941,1.1021-2.0586,2.7075-3.7285,4.8159-5.0103,2.1079-1.2808,4.5562-1.9214,7.3452-1.9214h23.2524c2.7886,0,5.2368.6406,7.3452,1.9214,2.1079,1.2817,3.7129,2.9517,4.8159,5.0103,1.1021,2.0601,1.6538,4.2246,1.6538,6.4941v.8271c0,2.2705-.5352,4.4351-1.605,6.4941-1.0703,2.0596-2.6597,3.7295-4.7676,5.0103-2.1084,1.2808-4.5894,1.9214-7.4424,1.9214h-23.2524c-2.854,0-5.335-.6406-7.4424-1.9214Zm35.7051-3.4053c1.4268-.8589,2.5054-2.0347,3.2349-3.5264.73-1.4912,1.0947-3.1621,1.0947-5.0107s-.3818-3.5181-1.1431-5.0103c-.7627-1.4912-1.8569-2.6587-3.2837-3.5024-1.4272-.8428-3.0645-1.2646-4.9131-1.2646-1.8813,0-3.5269.4219-4.9375,1.2646-1.4106.8438-2.5054,2.0112-3.2837,3.5024-.7783,1.4922-1.1675,3.1621-1.1675,5.0103s.3726,3.5195,1.1191,5.0107c.7456,1.4917,1.8315,2.6675,3.2593,3.5264,1.4263.8599,3.0962,1.2891,5.0103,1.2891,1.9131,0,3.583-.4292,5.0103-1.2891Z"/><path d="m127.4961,111.5226h3.5513v11.0913h-.584c0-3.8589.8027-6.8022,2.4082-8.8291,1.605-2.0264,4.0132-3.0405,7.2236-3.0405h.1943c3.2104,0,5.6187,1.0142,7.2236,3.0405,1.6055,2.0269,2.4082,4.9702,2.4082,8.8291v14.8364h-4.4756v-15.8096c0-2.0752-.5835-3.7212-1.751-4.9375-1.1675-1.2158-2.7407-1.8242-4.7188-1.8242-2.1084,0-3.8022.6494-5.083,1.9458-1.2817,1.2974-1.9214,3-1.9214,5.1079v15.5176h-4.4756v-25.9277Z"/><path d="m153.7637,101.9396h8.1235v3.5513h-8.1235v-3.5513Zm3.6484,0h4.4751v35.5107h-4.4751v-35.5107Z"/><path d="m167.3355,111.5226h8.4644v3.5513h-8.4644v-3.5513Zm2.9917-5.0591c-.5029-.5181-.7539-1.1992-.7539-2.043,0-.8755.251-1.5728.7539-2.0918.5024-.5181,1.2402-.7783,2.2134-.7783.9727,0,1.7183.2603,2.2378.7783.5181.519.7783,1.2002.7783,2.043,0,.876-.2603,1.5737-.7783,2.0918-.5195.519-1.2651.7783-2.2378.7783-.9731,0-1.7109-.2593-2.2134-.7783Zm.9971,5.0591h4.4756v25.9277h-4.4756v-25.9277Z"/><path d="m183.6314,111.5226h3.5513v11.0913h-.584c0-3.8589.8027-6.8022,2.4082-8.8291,1.605-2.0264,4.0132-3.0405,7.2236-3.0405h.1943c3.2104,0,5.6187,1.0142,7.2236,3.0405,1.6055,2.0269,2.4082,4.9702,2.4082,8.8291v14.8364h-4.4756v-15.8096c0-2.0752-.5835-3.7212-1.751-4.9375-1.1675-1.2158-2.7407-1.8242-4.7188-1.8242-2.1084,0-3.8022.6494-5.083,1.9458-1.2817,1.2974-1.9214,3-1.9214,5.1079v15.5176h-4.4756v-25.9277Z"/><path d="m217.3418,136.4044c-1.9458-1.2808-3.3809-2.9429-4.3052-4.9858-.9238-2.0435-1.3862-4.2153-1.3862-6.5186v-.8271c0-2.335.4697-4.5239,1.4106-6.5669.9404-2.043,2.3594-3.6968,4.2563-4.9619,1.8975-1.2646,4.2241-1.897,6.9805-1.897,2.6592,0,4.9209.5835,6.7861,1.751,1.8643,1.1675,3.2593,2.7085,4.1836,4.6216.9243,1.9136,1.3862,3.9888,1.3862,6.2266v2.043h-23.0576v-3.3564h19.7983l-1.0215,1.7998c0-1.8486-.3003-3.4614-.8999-4.8403-.6006-1.3779-1.5161-2.4395-2.7485-3.186-1.2329-.7456-2.708-1.1187-4.4268-1.1187-1.8481,0-3.3975.4214-4.6455,1.2646-1.2485.8438-2.1812,2.0029-2.7969,3.478-.6167,1.4761-.9243,3.186-.9243,5.1318s.3164,3.6567.9487,5.1323c.6323,1.4761,1.5884,2.6436,2.8701,3.5024,1.2803.8594,2.894,1.2891,4.8398,1.2891,2.0103,0,3.6729-.4458,4.9863-1.3379,1.3135-.8916,2.1157-1.9858,2.4077-3.2837h4.2319c-.5518,2.6597-1.8564,4.7515-3.9155,6.2754-2.0601,1.5239-4.6299,2.2861-7.7104,2.2861-2.8867,0-5.3022-.6406-7.248-1.9214Z"/></g></svg>