<?xml version="1.0" encoding="UTF-8"?><svg id="Vrstva_1" xmlns="http://www.w3.org/2000/svg" viewBox="0 0 330 200"><defs><style>.cls-1{fill:#b700ff;}</style></defs><path d="m62.4642,92.3875c-1.1963-.749-2.647-1.1225-4.3524-1.1225-1.7681,0-3.2603.4049-4.477,1.2159-1.2169.812-2.1271,1.8726-2.7299,3.1828-.6037,1.3103-.9049,2.714-.9049,4.212v.5298c0,1.4777.2964,2.8702.8891,4.1815.593,1.3103,1.5133,2.3759,2.7612,3.197,1.2482.8221,2.7973,1.2332,4.6488,1.2332,1.9759,0,3.6239-.4892,4.9451-1.4666,1.3207-.9773,2.1576-2.3191,2.5115-4.0252h-2.7142c-.1873.8323-.7021,1.5346-1.5446,2.106-.8421.5724-1.9084.8586-3.1979.8586-1.2479,0-2.2829-.2761-3.1042-.8272-.8221-.5511-1.4351-1.2991-1.8409-2.246-.3472-.8103-.5445-1.7315-.5946-2.7617h13.2772v-1.3103c0-1.4351-.2964-2.7657-.8891-3.9928-.593-1.2271-1.4875-2.2156-2.6833-2.9646Zm-7.3318,2.2156c.8003-.5409,1.794-.8109,2.9794-.8109,1.1022,0,2.0484.2385,2.8393.7176.7902.478,1.3776,1.159,1.7627,2.043.2538.5836.4223,1.2346.5087,1.9497h-10.35c.0981-.5999.252-1.1571.4659-1.6686.3948-.9469.9929-1.6899,1.7939-2.2308Z"/><polygon points="81.948 91.8262 78.9841 91.8262 75.1154 98.128 74.6787 98.128 70.5914 91.8262 67.409 91.8262 72.8612 100.0646 67.1281 108.4549 70.0923 108.4549 74.6474 101.6539 75.0841 101.6539 79.8265 108.4549 83.0089 108.4549 76.877 99.7308 81.948 91.8262"/><polygon points="84.444 91.8262 84.444 94.1038 87.0024 94.1038 87.0024 108.4549 89.8728 108.4549 89.8728 94.1038 89.8728 91.8262 87.0024 91.8262 84.444 91.8262"/><path d="m87.7825,89.0808c.6237,0,1.102-.1664,1.4351-.4994.3324-.3329.4991-.7805.4991-1.3417,0-.54-.1667-.9774-.4991-1.3103-.3332-.3319-.8115-.4993-1.4351-.4993-.6242,0-1.0974.1674-1.4197.4993-.3227.3329-.4836.7805-.4836,1.3418,0,.5409.1609.9774.4836,1.3102.3223.3329.7955.4994,1.4197.4994Z"/><path d="m105.6908,100.3436c-1.0403-.811-2.4856-1.3103-4.3369-1.498l-1.8094-.1868c-.9568-.1035-1.659-.3481-2.106-.7328-.4473-.3846-.6706-.9002-.6706-1.5447,0-.7693.3167-1.3935.9516-1.8716.6343-.4791,1.5132-.7176,2.6363-.7176,1.1436,0,2.0226.2283,2.6364.6861.6133.4578.9408,1.0505.9827,1.7782h2.7146c-.0419-1.5803-.6295-2.7972-1.7627-3.6507-1.134-.8526-2.6574-1.2788-4.5709-1.2788-1.2275,0-2.314.203-3.2602.609-.9467.405-1.6901.9875-2.2309,1.7467-.5412.7591-.8112,1.6584-.8112,2.6987,0,1.3519.473,2.4237,1.4197,3.2133.9462.7906,2.241,1.2788,3.8842,1.4666l1.8409.1867c1.1647.1249,2.0124.3857,2.5428.7805.5303.3948.7954.9469.7954,1.6533,0,.8323-.3641,1.5082-1.0918,2.0278-.7285.5207-1.7579.7805-3.0888.7805-1.3938,0-2.4287-.2659-3.1042-.7957-.6762-.5308-1.0249-1.1804-1.0454-1.9497h-2.7142c.0413,1.6219.6599,2.8966,1.8563,3.8213,1.1959.9256,2.865,1.3884,5.0075,1.3884,1.3309,0,2.5217-.2233,3.5724-.6709,1.05-.4465,1.8666-1.0758,2.4491-1.8878.5821-.811.8737-1.7153.8737-2.7139,0-1.4138-.5202-2.5272-1.56-3.3381Z"/><path d="m114.7072,86.7404h-2.7455v5.0858h-2.9018v2.1527h2.9018v8.8919c0,1.4148.2339,2.5424.7019,3.3848.4679.8424,1.1436,1.4503,2.0279,1.8249.884.3745,1.9604.5622,3.229.5622h2.5585v-2.5901h-2.9327c-.8944,0-1.5912-.2436-2.0903-.7328-.4991-.4881-.7488-1.1905-.7488-2.106v-9.2349h5.7718v-2.1527h-5.7718v-5.0858Z"/><path d="m134.7992,101.7472c0,1.3935-.3953,2.5018-1.1854,3.3229-.7907.8221-1.8305,1.2321-3.12,1.2321-1.2276,0-2.1996-.3745-2.9172-1.1225-.7175-.749-1.0763-1.7893-1.0763-3.1199v-10.2651h-2.8704v9.6723c0,2.4125.5303,4.2637,1.5912,5.5527,1.0606,1.29,2.5686,1.9344,4.5239,1.9344h.1246c1.9551,0,3.4321-.6495,4.4305-1.9497.4991-.6499.8735-1.4465,1.123-2.3899v3.8402h2.2776v-16.6602h-2.9015v9.9525Z"/><path d="m144.3464,88.8312c.6239,0,1.0966-.1716,1.4194-.5146.3222-.343.4836-.7856.4836-1.3265,0-.5613-.1614-1.0027-.4836-1.3255-.3228-.3228-.7955-.4842-1.4194-.4842s-1.0974.1675-1.4197.4994c-.3228.3329-.4837.7805-.4837,1.3417,0,.541.1609.9774.4837,1.3103.3222.3329.7955.4994,1.4197.4994Z"/><path d="m141.0392,91.8262v2.2775h2.6518v15.631c0,.811-.2133,1.4291-.6394,1.8564-.4265.4252-1.035.6394-1.8251.6394h-1.7785v2.5891h1.3415c1.3728,0,2.4696-.1766,3.2915-.5298.8216-.3542,1.4197-.9317,1.794-1.7315.3745-.8018.5617-1.8878.5617-3.261v-17.4711h-5.3975Z"/><path d="m162.7379,92.3875c-1.1961-.749-2.647-1.1225-4.3521-1.1225-1.7684,0-3.2606.4049-4.4773,1.2159-1.2167.812-2.1271,1.8726-2.7299,3.1828-.6034,1.3103-.9049,2.714-.9049,4.212v.5298c0,1.4777.2964,2.8702.8891,4.1815.593,1.3103,1.5133,2.3759,2.7612,3.197,1.2482.8221,2.7973,1.2332,4.6488,1.2332,1.9759,0,3.6241-.4892,4.9451-1.4666,1.3207-.9773,2.1578-2.3191,2.5115-4.0252h-2.7142c-.1873.8323-.7021,1.5346-1.5446,2.106-.8421.5724-1.9084.8586-3.1979.8586-1.2479,0-2.2829-.2761-3.1042-.8272-.8219-.5511-1.4351-1.2991-1.8409-2.246-.347-.8103-.5444-1.7315-.5946-2.7617h13.2772v-1.3103c0-1.4351-.2964-2.7657-.8891-3.9928-.593-1.2271-1.4875-2.2156-2.6833-2.9646Zm-7.3318,2.2156c.8006-.5409,1.794-.8109,2.9797-.8109,1.1022,0,2.0481.2385,2.839.7176.7902.478,1.3776,1.159,1.7627,2.043.254.5836.4224,1.2346.5088,1.9497h-10.35c.0981-.5999.252-1.1571.4659-1.6686.3948-.9469.9929-1.6899,1.7939-2.2308Z"/><path d="m169.9918,104.7737c-.4994,0-.9155.1766-1.2482.5308-.3329.3532-.4991.7906-.4991,1.3103s.1661.9561.4991,1.3103c.3326.3532.7487.5298,1.2482.5298.4991,0,.9149-.1766,1.2479-.5298.3324-.3542.4991-.7906.4991-1.3103s-.1667-.9571-.4991-1.3103c-.3329-.3542-.7488-.5308-1.2479-.5308Z"/><path d="m202.1268,92.4971c-1.3524-.8211-2.9226-1.2321-4.7112-1.2321h-14.9135c-1.7888,0-3.3592.411-4.7109,1.2321-1.3524.8221-2.3821,1.8929-3.0887,3.2133-.7075,1.3214-1.0609,2.7099-1.0609,4.1653v.5298c0,1.4564.3433,2.8448,1.0297,4.1653.6863,1.3215,1.7051,2.3922,3.0576,3.2133,1.3516.8221,2.9428,1.2332,4.7733,1.2332h14.9135c1.8302,0,3.4212-.4111,4.7736-1.2332,1.3519-.8211,2.3712-1.8918,3.0576-3.2133.6864-1.3204,1.0297-2.7088,1.0297-4.1653v-.5298c0-1.4554-.354-2.8439-1.0609-4.1653-.7074-1.3204-1.7368-2.3912-3.0887-3.2133Zm.5772,10.8416c-.4681.9571-1.1598,1.7112-2.0748,2.2623-.9155.5511-1.9865.8262-3.2136.8262s-2.2986-.2751-3.2136-.8262c-.9155-.5511-1.612-1.3052-2.0903-2.2623-.4788-.9561-.7176-2.0279-.7176-3.2133s.2497-2.2572.7488-3.2133c.4991-.9571,1.2012-1.7061,2.1061-2.247.9046-.54,1.9601-.811,3.1666-.811,1.1857,0,2.2357.271,3.1512.811.915.541,1.6171,1.29,2.106,2.247.4884.9561.733,2.0279.733,3.2133s-.2339,2.2572-.7018,3.2133Z"/><path class="cls-1" d="m202.7041,103.3387c-.4681.9571-1.1598,1.7112-2.0748,2.2623-.9155.5511-1.9865.8262-3.2136.8262s-2.2986-.2751-3.2136-.8262c-.9155-.5511-1.612-1.3052-2.0903-2.2623-.4788-.9561-.7176-2.0279-.7176-3.2133s.2497-2.2572.7488-3.2133c.4991-.9571,1.2012-1.7061,2.1061-2.247.9046-.54,1.9601-.811,3.1666-.811,1.1857,0,2.2357.271,3.1512.811.915.541,1.6171,1.29,2.106,2.247.4884.9561.733,2.0279.733,3.2133s-.2339,2.2572-.7018,3.2133Z"/><path d="m218.1943,91.3269h-.1246c-2.0593,0-3.6036.6506-4.6333,1.9497-.5238.6614-.9127,1.4765-1.17,2.442v-3.8923h-2.2776v16.6287h2.8703v-9.9525c0-1.3519.4105-2.444,1.2324-3.2752.8216-.8322,1.9081-1.2484,3.2603-1.2484,1.2685,0,2.2778.3897,3.0263,1.1702.749.7795,1.1233,1.836,1.1233,3.1666v10.1392h2.8703v-9.515c0-2.4754-.5149-4.3632-1.5443-5.6634-1.0297-1.2991-2.5742-1.9497-4.6333-1.9497Z"/><polygon points="226.8364 85.6798 226.8364 87.9573 229.1764 87.9573 229.1764 108.4549 232.0467 108.4549 232.0467 87.9573 232.0467 85.6798 229.1764 85.6798 226.8364 85.6798"/><path d="m238.8793,89.0808c.624,0,1.1023-.1664,1.4351-.4994.3324-.3329.4991-.7805.4991-1.3417,0-.54-.1667-.9774-.4991-1.3103-.3329-.3319-.8112-.4993-1.4351-.4993s-1.0974.1674-1.4197.4993c-.3225.3329-.4836.7805-.4836,1.3418,0,.5409.1611.9774.4836,1.3102.3222.3329.7957.4994,1.4197.4994Z"/><polygon points="235.5409 91.8262 235.5409 94.1038 238.0994 94.1038 238.0994 108.4549 240.9696 108.4549 240.9696 94.1038 240.9696 91.8262 238.0994 91.8262 235.5409 91.8262"/><path d="m254.1983,91.3269h-.1249c-2.0591,0-3.6036.6506-4.633,1.9497-.5237.6612-.9127,1.4763-1.17,2.4415v-3.8919h-2.2775v16.6287h2.8703v-9.9525c0-1.3519.4105-2.444,1.2324-3.2752.8214-.8322,1.9081-1.2484,3.2603-1.2484,1.2684,0,2.2775.3897,3.0263,1.1702.7488.7795,1.1233,1.836,1.1233,3.1666v10.1392h2.8703v-9.515c0-2.4754-.5149-4.3632-1.5445-5.6634-1.0294-1.2991-2.574-1.9497-4.633-1.9497Z"/><path d="m280,99.3449c0-1.4351-.2964-2.7657-.8891-3.9928-.593-1.2271-1.4874-2.2156-2.6833-2.9646-1.1961-.749-2.647-1.1225-4.3521-1.1225-1.7683,0-3.2606.4049-4.4772,1.2159-1.2167.812-2.1271,1.8726-2.73,3.1828-.6034,1.3103-.9049,2.714-.9049,4.212v.5298c0,1.4777.2964,2.8702.8891,4.1815.593,1.3103,1.5133,2.3759,2.7612,3.197,1.2481.8221,2.7972,1.2332,4.6487,1.2332,1.9759,0,3.6241-.4892,4.9451-1.4666,1.3207-.9773,2.1578-2.3191,2.5115-4.0252h-2.7142c-.1873.8323-.7021,1.5346-1.5446,2.106-.8421.5724-1.9083.8586-3.1979.8586-1.2479,0-2.2829-.2761-3.1042-.8272-.8219-.5511-1.4351-1.2991-1.8409-2.246-.347-.8103-.5444-1.7315-.5945-2.7617h13.2771v-1.3103Zm-10.9042-4.7418c.8006-.5409,1.794-.8109,2.9797-.8109,1.1022,0,2.0482.2385,2.8391.7176.7901.478,1.3775,1.159,1.7627,2.043.2539.5836.4223,1.2346.5087,1.9497h-10.35c.0981-.5999.252-1.1571.4659-1.6686.3948-.9469.9929-1.6899,1.7939-2.2308Z"/></svg>