<?xml version="1.0" encoding="UTF-8"?><svg id="Vrstva_1" xmlns="http://www.w3.org/2000/svg" viewBox="0 0 330 200"><defs><style>.cls-1{fill:#b700ff;}</style></defs><path d="m143.3793,98.5399c.4715.3104,1.057.4657,1.7566.4657.7466,0,1.3694-.1848,1.8686-.5541.499-.3693.8153-.8762.949-1.5206h-1.0256c-.0708.3144-.2653.5796-.5836.7957-.3183.2163-.7211.3242-1.2083.3242-.4715,0-.8626-.1041-1.1731-.3123-.3105-.2082-.5423-.491-.6955-.8488-.1308-.3053-.2024-.6548-.2215-1.0432h5.0138v-.495c0-.5422-.112-1.0451-.336-1.5087-.224-.4636-.5619-.8371-1.0138-1.1199-.4521-.283-1.0002-.4243-1.6446-.4243-.6681,0-1.2319.1532-1.6918.4596-.4597.3066-.8036.7073-1.0314,1.2023-.2281.495-.3419,1.0255-.3419,1.5913v.2004c0,.5581.112,1.0844.336,1.5796.224.495.5718.8979,1.0433,1.2081Zm-.1179-4.1373c.1493-.3576.3753-.6385.6779-.8428.3024-.2042.6779-.3064,1.1258-.3064.4165,0,.774.0903,1.0728.2711.2987.1808.5206.4381.6662.7721.0957.22.1568.4672.1895.7366h-3.9069c.0371-.2263.0941-.4375.1747-.6306Z"/><polygon points="154.0718 92.5107 152.9519 92.5107 151.49 94.8917 151.325 94.8917 149.7806 92.5107 148.5781 92.5107 150.6383 95.6234 148.4721 98.7934 149.592 98.7934 151.3132 96.2236 151.4782 96.2236 153.2702 98.7934 154.4727 98.7934 152.1557 95.4971 154.0718 92.5107"/><path d="m156.2763,91.4734c.2359,0,.4165-.0627.5423-.1887.1257-.1256.1887-.2947.1887-.5067,0-.2042-.063-.3693-.1887-.495-.1258-.1256-.3064-.1887-.5423-.1887s-.4146.0631-.5363.1887c-.122.1258-.1827.2947-.1827.5067,0,.2046.0608.3695.1827.495.1218.126.3006.1887.5363.1887Z"/><polygon points="155.9816 98.7934 157.0663 98.7934 157.0663 93.3711 157.0663 92.5107 155.9816 92.5107 155.015 92.5107 155.015 93.3711 155.9816 93.3711 155.9816 98.7934"/><path d="m162.1944,97.7561c-.2752.1965-.6642.2947-1.1671.2947-.5267,0-.9177-.1003-1.1731-.3006-.2554-.2004-.3872-.446-.3949-.7366h-1.0256c.0156.613.2494,1.0944.7014,1.4439.4519.3495,1.0826.5246,1.8921.5246.5029,0,.9529-.0846,1.3499-.2535.3967-.1689.7053-.4067.9254-.7132.2199-.3064.3301-.6482.3301-1.0254,0-.5343-.1965-.9548-.5895-1.2614-.3931-.3064-.9393-.495-1.6386-.5658l-.6838-.0707c-.3616-.0391-.6268-.1313-.7958-.2769-.1691-.1453-.2535-.3399-.2535-.5836,0-.2905.1198-.5263.3596-.7071.2396-.1808.5717-.2711.9962-.2711.4321,0,.7642.0865.9962.2592.2317.1729.3555.3969.3713.6718h1.0257c-.0159-.597-.2379-1.0568-.6662-1.3791-.4284-.3221-1.004-.4832-1.727-.4832-.4639,0-.8744.0765-1.2319.2299-.3577.1532-.6386.3733-.843.6599-.2044.287-.3065.6268-.3065,1.0196,0,.511.1787.9157.5364,1.2142.3575.2987.8468.4832,1.4677.5539l.6956.0707c.4401.0472.7604.1455.9608.2947.2004.1494.3007.3578.3007.6248,0,.3142-.1377.5698-.4127.7661Z"/><path d="m166.4501,90.5894h-1.0375v1.9213h-1.0964v.8133h1.0964v3.3594c0,.5345.0884.9607.2653,1.279.1768.3183.4321.548.7663.6895.3339.1415.7407.2122,1.2202.2122h.9666v-.9784h-1.1081c-.338,0-.6012-.0922-.7898-.277-.1887-.1844-.2829-.4498-.2829-.7957v-3.489h2.1809v-.8133h-2.1809v-1.9213Z"/><path d="m174.0421,96.2591c0,.5265-.1494.945-.4479,1.2552-.2988.3106-.6918.4657-1.1789.4657-.4639,0-.8312-.1415-1.1023-.4243-.2711-.283-.4067-.6758-.4067-1.1787v-3.8781h-1.0846v3.6541c0,.9117.2004,1.6109.6012,2.0981.4009.4874.9707.7309,1.7095.7309h.0472c.7386,0,1.2967-.2456,1.674-.7368.1886-.2455.33-.5465.4244-.903v1.4511h.8606v-6.2944h-1.0964v3.7601Z"/><path d="m177.5493,100.9977c.3104-.1338.5364-.3518.6779-.6542.1414-.3027.2122-.7132.2122-1.2318v-6.601h-2.0395v.8605h1.002v5.9056c0,.3064-.0806.5401-.2416.7013-.1613.1609-.3911.2416-.6897.2416h-.6719v.9784h.5069c.5187,0,.9332-.0669,1.2437-.2004Z"/><path d="m177.6495,91.3791c.2359,0,.4145-.0648.5364-.1944.1218-.1296.1827-.2966.1827-.501,0-.2122-.061-.379-.1827-.501-.122-.1217-.3006-.1827-.5364-.1827s-.4146.0631-.5363.1887c-.122.1258-.1827.2947-.1827.5067,0,.2046.0608.3695.1827.4952.1218.1258.3006.1885.5363.1885Z"/><path d="m184.5989,92.7229c-.4521-.283-1.0002-.4243-1.6446-.4243-.6681,0-1.2319.1532-1.6917.4596-.4598.3066-.8036.7073-1.0315,1.2023-.2281.495-.3419,1.0255-.3419,1.5913v.2004c0,.5581.112,1.0844.336,1.5796.224.495.5717.8979,1.0432,1.2081.4716.3104,1.057.4657,1.7566.4657.7466,0,1.3694-.1848,1.8686-.5541.499-.3693.8153-.8762.9491-1.5206h-1.0257c-.0708.3144-.2652.5796-.5835.7957-.3183.2163-.7212.3242-1.2084.3242-.4715,0-.8626-.1041-1.173-.3123-.3106-.2082-.5423-.491-.6956-.8488-.1308-.3053-.2023-.6548-.2214-1.0432h5.0137v-.495c0-.5422-.112-1.0451-.336-1.5087s-.562-.8371-1.0139-1.1199Zm-3.623,2.3103c.0371-.2263.0941-.4375.1747-.6306.1492-.3576.3752-.6385.6779-.8428.3024-.2042.6779-.3064,1.1258-.3064.4165,0,.7741.0903,1.0729.2711.2986.1808.5205.4381.6661.7721.0957.22.1568.4672.1895.7366h-3.9069Z"/><path d="m187.8114,97.6029c-.1258-.1336-.2829-.2005-.4716-.2005-.1886,0-.3459.0669-.4715.2005-.1258.1336-.1886.2987-.1886.495,0,.1965.0628.3614.1886.495.1256.1336.2829.2004.4715.2004.1887,0,.3458-.0667.4716-.2004.1256-.1336.1886-.2985.1886-.495,0-.1963-.063-.3614-.1886-.495Z"/><path d="m152.7634,103.7585c-.511-.3102-1.1043-.4655-1.7802-.4655h-5.6352c-.676,0-1.2693.1553-1.7801.4655-.511.3106-.9001.7151-1.1672,1.2142-.2672.4991-.4008,1.0236-.4008,1.5735v.2004c0,.5503.1296,1.0746.3891,1.5737.2593.4991.6443.9038,1.1553,1.214.5107.3104,1.112.4657,1.8036.4657h5.6352c.6915,0,1.2927-.1553,1.8037-.4657.5107-.3102.8959-.7149,1.1553-1.214.2593-.4991.389-1.0234.389-1.5737v-.2004c0-.5499-.1337-1.0744-.4008-1.5735-.2673-.4991-.6564-.9036-1.1671-1.2142Zm.218,4.0961c-.1768.3616-.4382.6465-.7839.8547-.3459.2082-.7507.3123-1.2143.3123-.4639,0-.8686-.1041-1.2143-.3123-.3459-.2082-.6092-.4931-.7898-.8547-.1809-.3612-.2711-.7661-.2711-1.214s.0942-.8526.2829-1.214c.1886-.3614.4538-.6444.7957-.8488.3419-.2042.7407-.3064,1.1966-.3064.4479,0,.8448.1022,1.1907.3064.3457.2044.6109.4874.7958.8488.1845.3614.277.7661.277,1.214s-.0884.8528-.2653,1.214Z"/><path class="cls-1" d="m152.9814,107.8546c-.1768.3616-.4382.6465-.7839.8547-.3459.2082-.7507.3123-1.2143.3123-.4639,0-.8686-.1041-1.2143-.3123-.3459-.2082-.6092-.4931-.7898-.8547-.1809-.3612-.2711-.7661-.2711-1.214s.0942-.8526.2829-1.214c.1886-.3614.4538-.6444.7957-.8488.3419-.2042.7407-.3064,1.1966-.3064.4479,0,.8448.1022,1.1907.3064.3457.2044.6109.4874.7958.8488.1845.3614.277.7661.277,1.214s-.0884.8528-.2653,1.214Z"/><path d="m158.8346,103.3166h-.0472c-.778,0-1.3616.2456-1.7506.7366-.1979.2498-.3449.5577-.4421.9224v-1.4705h-.8606v6.2827h1.0846v-3.7601c0-.5108.1551-.9234.4657-1.2376.3104-.3142.721-.4716,1.2319-.4716.4793,0,.8606.1474,1.1435.4421s.4244.6937.4244,1.1964v3.8309h1.0846v-3.5951c0-.9351-.1945-1.6483-.5836-2.1395-.389-.491-.9726-.7366-1.7506-.7366Z"/><polygon points="162.1001 101.1831 162.1001 102.0435 162.9843 102.0435 162.9843 109.7878 164.0688 109.7878 164.0688 102.0435 164.0688 101.1831 162.9843 101.1831 162.1001 101.1831"/><path d="m167.1929,102.2792c.1256-.1256.1886-.2947.1886-.5067,0-.2042-.063-.3693-.1886-.495-.1258-.1256-.3065-.1887-.5423-.1887s-.4147.0631-.5364.1887c-.122.1258-.1827.2947-.1827.5067,0,.2046.0608.3695.1827.495.1218.126.3006.1887.5364.1887s.4165-.0627.5423-.1887Z"/><polygon points="165.3892 103.5051 165.3892 104.3655 166.3559 104.3655 166.3559 109.7878 167.4405 109.7878 167.4405 104.3655 167.4405 103.5051 166.3559 103.5051 165.3892 103.5051"/><path d="m172.439,103.3166h-.0472c-.778,0-1.3616.2456-1.7506.7366-.1979.2499-.345.558-.4422.9228v-1.471h-.8606v6.2827h1.0847v-3.7601c0-.5108.155-.9234.4657-1.2376.3104-.3142.7209-.4716,1.2319-.4716.4793,0,.8606.1474,1.1435.4421s.4244.6937.4244,1.1964v3.8309h1.0847v-3.5951c0-.9351-.1945-1.6483-.5836-2.1395-.3891-.491-.9726-.7366-1.7506-.7366Z"/><path d="m180.8385,103.7173c-.4521-.283-1.0002-.4243-1.6446-.4243-.6681,0-1.2319.1532-1.6918.4596-.4597.3066-.8036.7073-1.0314,1.2023-.2281.495-.3419,1.0255-.3419,1.5913v.2004c0,.5581.112,1.0844.336,1.5796.224.495.5718.8979,1.0433,1.2081.4715.3104,1.057.4657,1.7566.4657.7466,0,1.3694-.1848,1.8686-.5541.499-.3693.8153-.8762.949-1.5206h-1.0256c-.0708.3144-.2653.5796-.5836.7957-.3183.2163-.7211.3242-1.2083.3242-.4715,0-.8626-.1041-1.1731-.3123-.3105-.2082-.5423-.491-.6955-.8488-.1308-.3053-.2024-.6548-.2215-1.0432h5.0138v-.495c0-.5422-.112-1.0451-.336-1.5087-.224-.4636-.5619-.8371-1.0138-1.1199Zm-3.6231,2.3103c.0371-.2263.0941-.4375.1747-.6306.1493-.3576.3753-.6385.6779-.8428.3024-.2042.6779-.3064,1.1258-.3064.4165,0,.774.0903,1.0728.2711.2987.1808.5206.4381.6662.7721.0957.22.1568.4672.1895.7366h-3.9069Z"/></svg>