<?xml version="1.0" encoding="UTF-8"?><svg id="Vrstva_1" xmlns="http://www.w3.org/2000/svg" viewBox="0 0 330 200"><defs><style>.cls-1{fill:#fff;}.cls-2{fill:#b700ff;}.cls-3{opacity:.2;}.cls-4{opacity:.5;}</style></defs><g><rect class="cls-1" x="50" y="56.7405" width="112.6617" height="25.7218"/><g><path d="m61.8389,66.2983c-.5191-.325-1.1486-.4871-1.8886-.4871-.7672,0-1.4147.1757-1.9426.5276-.528.3523-.923.8125-1.1845,1.3811-.262.5686-.3926,1.1776-.3926,1.8277v.2299c0,.6412.1286,1.2454.3858,1.8144.2573.5686.6566,1.031,1.1981,1.3872.5416.3567,1.2138.5351,2.0172.5351.8574,0,1.5724-.2123,2.1458-.6364.5731-.4241.9362-1.0063,1.0898-1.7466h-1.1777c-.0813.3611-.3047.6659-.6702.9138-.3654.2484-.8281.3726-1.3876.3726-.5415,0-.9906-.1198-1.347-.3589-.3567-.2391-.6227-.5637-.7988-.9746-.1507-.3516-.2363-.7513-.258-1.1983h5.7612v-.5686c0-.6227-.1286-1.2001-.3858-1.7325-.2573-.5324-.6454-.9614-1.1643-1.2864Zm-3.1814.9614c.3473-.2347.7784-.3519,1.2928-.3519.4783,0,.8888.1035,1.232.3114.3429.2074.5978.5029.7649.8865.1101.2532.1832.5357.2207.846h-4.491c.0426-.2603.1094-.5021.2022-.724.1713-.4109.4308-.7333.7784-.968Z"/><polygon points="70.2932 66.0547 69.0071 66.0547 67.3284 68.7892 67.1389 68.7892 65.3654 66.0547 63.9845 66.0547 66.3503 69.6295 63.8626 73.2702 65.1489 73.2702 67.1254 70.3191 67.3149 70.3191 69.3727 73.2702 70.7536 73.2702 68.0928 69.4847 70.2932 66.0547"/><polygon points="71.3763 66.0547 71.3763 67.043 72.4864 67.043 72.4864 73.2702 73.7319 73.2702 73.7319 67.043 73.7319 66.0547 72.4864 66.0547 71.3763 66.0547"/><path d="m72.8249,64.8635c.2706,0,.4782-.0722.6227-.2167.1442-.1444.2166-.3387.2166-.5822,0-.2343-.0723-.4241-.2166-.5686-.1446-.144-.3521-.2167-.6227-.2167-.2708,0-.4762.0727-.616.2167-.14.1444-.2098.3387-.2098.5822,0,.2347.0698.4241.2098.5685.1398.1445.3452.2167.616.2167Z"/><path d="m80.5956,69.7505c-.4514-.3519-1.0785-.5686-1.8819-.65l-.7851-.081c-.4152-.0449-.7198-.1511-.9138-.318-.1941-.1669-.291-.3906-.291-.6703,0-.3338.1374-.6047.4129-.8121.2752-.2079.6566-.3114,1.1439-.3114.4962,0,.8776.0991,1.144.2977.2661.1986.4082.4558.4264.7716h1.1779c-.0182-.6857-.2732-1.2137-.7649-1.5841-.492-.3699-1.1531-.5549-1.9834-.5549-.5326,0-1.0041.0881-1.4147.2642-.4108.1757-.7334.4285-.968.7579-.2348.3294-.352.7196-.352,1.171,0,.5866.2052,1.0517.616,1.3943.4106.3431.9724.5549,1.6854.6364l.7988.081c.5054.0542.8732.1674,1.1034.3387.2301.1713.3451.4109.3451.7174,0,.3611-.158.6544-.4737.8799-.3161.2259-.7628.3387-1.3403.3387-.6048,0-1.0539-.1154-1.347-.3453-.2934-.2303-.4447-.5122-.4536-.846h-1.1777c.0179.7038.2864,1.2569.8055,1.6581.5189.4016,1.2432.6024,2.1729.6024.5775,0,1.0942-.0969,1.5501-.2911.4556-.1938.8099-.4668,1.0627-.8191.2526-.3519.3791-.7443.3791-1.1776,0-.6135-.2257-1.0966-.6769-1.4485Z"/><path d="m84.508,63.8479h-1.1913v2.2068h-1.2591v.9341h1.2591v3.8583c0,.6139.1015,1.1032.3046,1.4687.203.3655.4962.6293.8799.7918.3836.1625.8507.244,1.4011.244h1.1102v-1.1239h-1.2726c-.3881,0-.6905-.1057-.907-.318-.2166-.2118-.3249-.5166-.3249-.9138v-4.0072h2.5045v-.9341h-2.5045v-2.2068Z"/><path d="m93.2262,70.3596c0,.6047-.1715,1.0856-.5144,1.4419-.3431.3567-.7943.5346-1.3538.5346-.5327,0-.9545-.1625-1.2658-.4871-.3113-.325-.467-.7764-.467-1.3538v-4.4542h-1.2455v4.197c0,1.0468.2301,1.8501.6905,2.4094.4602.5597,1.1146.8394,1.963.8394h.0541c.8483,0,1.4892-.2818,1.9225-.846.2166-.282.379-.6277.4873-1.037v1.6663h.9883v-7.2291h-1.259v4.3185Z"/><path d="m97.3689,64.7551c.2707,0,.4758-.0744.6159-.2233.1398-.1488.2098-.3409.2098-.5756,0-.2435-.07-.4351-.2098-.5751-.1401-.1401-.3452-.2101-.6159-.2101s-.4762.0727-.616.2167c-.1401.1444-.2099.3387-.2099.5822,0,.2347.0698.4241.2099.5686.1398.1444.3452.2167.616.2167Z"/><path d="m95.9339,66.0547v.9883h1.1506v6.7825c0,.3519-.0926.6201-.2774.8055-.1851.1845-.4491.2774-.7919.2774h-.7717v1.1234h.5821c.5957,0,1.0716-.0766,1.4282-.2299.3565-.1537.616-.4043.7784-.7513.1625-.3479.2437-.8191.2437-1.415v-7.581h-2.3421Z"/><path d="m105.3493,66.2983c-.519-.325-1.1486-.4871-1.8884-.4871-.7673,0-1.4148.1757-1.9428.5276-.5279.3523-.923.8125-1.1845,1.3811-.2618.5686-.3926,1.1776-.3926,1.8277v.2299c0,.6412.1286,1.2454.3858,1.8144.2573.5686.6566,1.031,1.1981,1.3872.5416.3567,1.2138.5351,2.0172.5351.8574,0,1.5726-.2123,2.1458-.6364.5731-.4241.9363-1.0063,1.0898-1.7466h-1.1777c-.0813.3611-.3047.6659-.6702.9138-.3654.2484-.8281.3726-1.3876.3726-.5415,0-.9906-.1198-1.347-.3589-.3566-.2391-.6227-.5637-.7988-.9746-.1506-.3516-.2362-.7513-.258-1.1983h5.7612v-.5686c0-.6227-.1286-1.2001-.3858-1.7325-.2573-.5324-.6454-.9614-1.1643-1.2864Zm-3.1814.9614c.3474-.2347.7784-.3519,1.2929-.3519.4783,0,.8887.1035,1.2319.3114.3429.2074.5978.5029.7649.8865.1102.2532.1833.5357.2208.846h-4.4911c.0426-.2603.1094-.5021.2022-.724.1713-.4109.4308-.7333.7784-.968Z"/><path d="m108.4969,71.6729c-.2167,0-.3973.0766-.5416.2303-.1445.1533-.2166.3431-.2166.5686s.0721.4149.2166.5686c.1443.1533.3249.2299.5416.2299.2166,0,.397-.0766.5415-.2299.1442-.1537.2166-.3431.2166-.5686s-.0723-.4153-.2166-.5686c-.1445-.1537-.3249-.2303-.5415-.2303Z"/><path d="m122.4408,66.3458c-.5868-.3563-1.2682-.5346-2.0443-.5346h-6.4712c-.7762,0-1.4576.1784-2.0442.5346-.5868.3567-1.0336.8213-1.3403,1.3943-.307.5734-.4603,1.1759-.4603,1.8074v.2299c0,.632.149,1.2344.4468,1.8074.2978.5734.7399,1.038,1.3267,1.3943.5865.3567,1.2769.5351,2.0712.5351h6.4712c.7942,0,1.4845-.1784,2.0713-.5351.5866-.3563,1.0289-.8209,1.3267-1.3943.2978-.5729.4468-1.1754.4468-1.8074v-.2299c0-.6315-.1536-1.234-.4603-1.8074-.307-.5729-.7536-1.0376-1.3403-1.3943Zm.2505,4.7043c-.2031.4153-.5033.7425-.9003.9816-.3972.2391-.862.3585-1.3944.3585s-.9974-.1194-1.3944-.3585c-.3973-.2391-.6995-.5664-.907-.9816-.2078-.4149-.3114-.8799-.3114-1.3943s.1084-.9794.3249-1.3943c.2166-.4153.5212-.7403.9139-.975.3925-.2343.8505-.3519,1.3741-.3519.5145,0,.9701.1176,1.3674.3519.397.2347.7017.5597.9138.975.2119.4149.3181.8799.3181,1.3943s-.1015.9794-.3045,1.3943Z"/><path class="cls-1" d="m122.6912,71.0502c-.2031.4153-.5033.7425-.9003.9816-.3972.2391-.862.3585-1.3944.3585s-.9974-.1194-1.3944-.3585c-.3973-.2391-.6995-.5664-.907-.9816-.2078-.4149-.3114-.8799-.3114-1.3943s.1084-.9794.3249-1.3943c.2166-.4153.5212-.7403.9139-.975.3925-.2343.8505-.3519,1.3741-.3519.5145,0,.9701.1176,1.3674.3519.397.2347.7017.5597.9138.975.2119.4149.3181.8799.3181,1.3943s-.1015.9794-.3045,1.3943Z"/><path d="m129.4127,65.8381h-.0541c-.8936,0-1.5637.2823-2.0104.846-.2273.287-.396.6407-.5077,1.0596v-1.689h-.9883v7.2155h1.2455v-4.3185c0-.5866.1781-1.0605.5348-1.4212.3565-.3611.828-.5417,1.4147-.5417.5504,0,.9884.1691,1.3132.5078.325.3382.4874.7967.4874,1.374v4.3996h1.2455v-4.1287c0-1.0741-.2234-1.8933-.6701-2.4574-.4468-.5637-1.117-.846-2.0105-.846Z"/><polygon points="133.1626 63.3877 133.1626 64.3759 134.178 64.3759 134.178 73.2702 135.4235 73.2702 135.4235 64.3759 135.4235 63.3877 134.178 63.3877 133.1626 63.3877"/><path d="m138.3883,64.8635c.2708,0,.4783-.0722.6227-.2167.1442-.1444.2166-.3387.2166-.5822,0-.2343-.0723-.4241-.2166-.5686-.1444-.144-.352-.2167-.6227-.2167s-.4762.0727-.616.2167c-.1399.1444-.2099.3387-.2099.5822,0,.2347.0699.4241.2099.5685.1398.1445.3453.2167.616.2167Z"/><polygon points="136.9397 66.0547 136.9397 67.043 138.0498 67.043 138.0498 73.2702 139.2953 73.2702 139.2953 67.043 139.2953 66.0547 138.0498 66.0547 136.9397 66.0547"/><path d="m145.0354,65.8381h-.0542c-.8935,0-1.5637.2823-2.0103.846-.2272.2869-.396.6406-.5077,1.0594v-1.6887h-.9883v7.2155h1.2455v-4.3185c0-.5866.1781-1.0605.5348-1.4212.3564-.3611.828-.5417,1.4147-.5417.5504,0,.9883.1691,1.3132.5078.3249.3382.4874.7967.4874,1.374v4.3996h1.2455v-4.1287c0-1.0741-.2234-1.8933-.6702-2.4574-.4467-.5637-1.1169-.846-2.0104-.846Z"/><path d="m156.2312,69.3172c0-.6227-.1286-1.2001-.3858-1.7325-.2573-.5324-.6454-.9614-1.1643-1.2864-.519-.325-1.1486-.4871-1.8884-.4871-.7673,0-1.4148.1757-1.9427.5276-.5279.3523-.923.8125-1.1846,1.3811-.2618.5686-.3926,1.1776-.3926,1.8277v.2299c0,.6412.1286,1.2454.3858,1.8144.2573.5686.6566,1.031,1.1981,1.3872.5416.3567,1.2138.5351,2.0172.5351.8574,0,1.5726-.2123,2.1458-.6364.5731-.4241.9363-1.0063,1.0898-1.7466h-1.1777c-.0813.3611-.3047.6659-.6702.9138-.3654.2484-.8281.3726-1.3876.3726-.5415,0-.9906-.1198-1.347-.3589-.3566-.2391-.6227-.5637-.7988-.9746-.1506-.3516-.2362-.7513-.258-1.1983h5.7612v-.5686Zm-4.7315-2.0575c.3474-.2347.7784-.3519,1.2929-.3519.4783,0,.8887.1035,1.2319.3114.3428.2074.5977.5029.7649.8865.1102.2532.1833.5357.2207.846h-4.4911c.0426-.2603.1094-.5021.2022-.724.1713-.4109.4308-.7333.7784-.968Z"/></g><rect x="167.3383" y="56.7405" width="112.6617" height="25.7218"/><g><path class="cls-1" d="m179.1772,66.2983c-.5191-.325-1.1486-.4871-1.8886-.4871-.7672,0-1.4147.1757-1.9426.5276-.528.3523-.923.8125-1.1845,1.3811-.262.5686-.3926,1.1776-.3926,1.8277v.2299c0,.6412.1286,1.2454.3858,1.8144.2573.5686.6566,1.031,1.1981,1.3872.5416.3567,1.2138.5351,2.0172.5351.8574,0,1.5724-.2123,2.1458-.6364.5731-.4241.9362-1.0063,1.0898-1.7466h-1.1777c-.0813.3611-.3047.6659-.6702.9138-.3654.2484-.8281.3726-1.3876.3726-.5415,0-.9906-.1198-1.347-.3589-.3567-.2391-.6227-.5637-.7988-.9746-.1507-.3516-.2363-.7513-.258-1.1983h5.7612v-.5686c0-.6227-.1286-1.2001-.3858-1.7325-.2573-.5324-.6454-.9614-1.1643-1.2864Zm-3.1814.9614c.3473-.2347.7784-.3519,1.2928-.3519.4783,0,.8888.1035,1.232.3114.3429.2074.5978.5029.7649.8865.1101.2532.1832.5357.2207.846h-4.491c.0426-.2603.1094-.5021.2022-.724.1713-.4109.4308-.7333.7784-.968Z"/><polygon class="cls-1" points="187.6316 66.0547 186.3455 66.0547 184.6668 68.7892 184.4773 68.7892 182.7038 66.0547 181.3229 66.0547 183.6887 69.6295 181.201 73.2702 182.4872 73.2702 184.4637 70.3191 184.6532 70.3191 186.711 73.2702 188.0919 73.2702 185.4312 69.4847 187.6316 66.0547"/><polygon class="cls-1" points="188.7146 66.0547 188.7146 67.043 189.8248 67.043 189.8248 73.2702 191.0703 73.2702 191.0703 67.043 191.0703 66.0547 189.8248 66.0547 188.7146 66.0547"/><path class="cls-1" d="m190.1632,64.8635c.2706,0,.4782-.0722.6227-.2167.1442-.1444.2166-.3387.2166-.5822,0-.2343-.0723-.4241-.2166-.5686-.1446-.144-.3521-.2167-.6227-.2167-.2708,0-.4762.0727-.616.2167-.14.1444-.2098.3387-.2098.5822,0,.2347.0698.4241.2098.5685.1398.1445.3452.2167.616.2167Z"/><path class="cls-1" d="m197.934,69.7505c-.4514-.3519-1.0785-.5686-1.8819-.65l-.7851-.081c-.4152-.0449-.7198-.1511-.9138-.318-.1941-.1669-.291-.3906-.291-.6703,0-.3338.1374-.6047.4129-.8121.2752-.2079.6566-.3114,1.1439-.3114.4962,0,.8776.0991,1.144.2977.2661.1986.4082.4558.4264.7716h1.1779c-.0182-.6857-.2732-1.2137-.7649-1.5841-.492-.3699-1.1531-.5549-1.9834-.5549-.5326,0-1.0041.0881-1.4147.2642-.4108.1757-.7334.4285-.968.7579-.2348.3294-.352.7196-.352,1.171,0,.5866.2052,1.0517.616,1.3943.4106.3431.9724.5549,1.6854.6364l.7988.081c.5054.0542.8732.1674,1.1034.3387.2301.1713.3451.4109.3451.7174,0,.3611-.158.6544-.4737.8799-.3161.2259-.7628.3387-1.3403.3387-.6048,0-1.0539-.1154-1.347-.3453-.2934-.2303-.4447-.5122-.4536-.846h-1.1777c.0179.7038.2864,1.2569.8055,1.6581.5189.4016,1.2432.6024,2.1729.6024.5775,0,1.0942-.0969,1.5501-.2911.4556-.1938.8099-.4668,1.0627-.8191.2526-.3519.3791-.7443.3791-1.1776,0-.6135-.2257-1.0966-.6769-1.4485Z"/><path class="cls-1" d="m201.8463,63.8479h-1.1913v2.2068h-1.2591v.9341h1.2591v3.8583c0,.6139.1015,1.1032.3046,1.4687.203.3655.4962.6293.8799.7918.3836.1625.8507.244,1.4011.244h1.1102v-1.1239h-1.2726c-.3881,0-.6905-.1057-.907-.318-.2166-.2118-.3249-.5166-.3249-.9138v-4.0072h2.5045v-.9341h-2.5045v-2.2068Z"/><path class="cls-1" d="m210.5646,70.3596c0,.6047-.1715,1.0856-.5144,1.4419-.3431.3567-.7943.5346-1.3538.5346-.5327,0-.9545-.1625-1.2658-.4871-.3113-.325-.467-.7764-.467-1.3538v-4.4542h-1.2455v4.197c0,1.0468.2301,1.8501.6905,2.4094.4602.5597,1.1146.8394,1.963.8394h.0541c.8483,0,1.4892-.2818,1.9225-.846.2166-.282.379-.6277.4873-1.037v1.6663h.9883v-7.2291h-1.259v4.3185Z"/><path class="cls-1" d="m214.7073,64.7551c.2707,0,.4758-.0744.6159-.2233.1398-.1488.2098-.3409.2098-.5756,0-.2435-.07-.4351-.2098-.5751-.1401-.1401-.3452-.2101-.6159-.2101s-.4762.0727-.616.2167c-.1401.1444-.2099.3387-.2099.5822,0,.2347.0698.4241.2099.5686.1398.1444.3452.2167.616.2167Z"/><path class="cls-1" d="m213.2722,66.0547v.9883h1.1506v6.7825c0,.3519-.0926.6201-.2774.8055-.1851.1845-.4491.2774-.7919.2774h-.7717v1.1234h.5821c.5957,0,1.0716-.0766,1.4282-.2299.3565-.1537.616-.4043.7784-.7513.1625-.3479.2437-.8191.2437-1.415v-7.581h-2.3421Z"/><path class="cls-1" d="m222.6876,66.2983c-.519-.325-1.1486-.4871-1.8884-.4871-.7673,0-1.4148.1757-1.9428.5276-.5279.3523-.923.8125-1.1845,1.3811-.2618.5686-.3926,1.1776-.3926,1.8277v.2299c0,.6412.1286,1.2454.3858,1.8144.2573.5686.6566,1.031,1.1981,1.3872.5416.3567,1.2138.5351,2.0172.5351.8574,0,1.5726-.2123,2.1458-.6364.5731-.4241.9363-1.0063,1.0898-1.7466h-1.1777c-.0813.3611-.3047.6659-.6702.9138-.3654.2484-.8281.3726-1.3876.3726-.5415,0-.9906-.1198-1.347-.3589-.3566-.2391-.6227-.5637-.7988-.9746-.1506-.3516-.2362-.7513-.258-1.1983h5.7612v-.5686c0-.6227-.1286-1.2001-.3858-1.7325-.2573-.5324-.6454-.9614-1.1643-1.2864Zm-3.1814.9614c.3474-.2347.7784-.3519,1.2929-.3519.4783,0,.8887.1035,1.2319.3114.3429.2074.5978.5029.7649.8865.1102.2532.1833.5357.2208.846h-4.4911c.0426-.2603.1094-.5021.2022-.724.1713-.4109.4308-.7333.7784-.968Z"/><path class="cls-1" d="m225.8352,71.6729c-.2167,0-.3973.0766-.5416.2303-.1445.1533-.2166.3431-.2166.5686s.0721.4149.2166.5686c.1443.1533.3249.2299.5416.2299.2166,0,.397-.0766.5415-.2299.1442-.1537.2166-.3431.2166-.5686s-.0723-.4153-.2166-.5686c-.1445-.1537-.3249-.2303-.5415-.2303Z"/><path class="cls-1" d="m239.7791,66.3458c-.5868-.3563-1.2682-.5346-2.0443-.5346h-6.4712c-.7762,0-1.4576.1784-2.0442.5346-.5868.3567-1.0336.8213-1.3403,1.3943-.307.5734-.4603,1.1759-.4603,1.8074v.2299c0,.632.149,1.2344.4468,1.8074.2978.5734.7399,1.038,1.3267,1.3943.5865.3567,1.2769.5351,2.0712.5351h6.4712c.7942,0,1.4845-.1784,2.0713-.5351.5866-.3563,1.0289-.8209,1.3267-1.3943.2978-.5729.4468-1.1754.4468-1.8074v-.2299c0-.6315-.1536-1.234-.4603-1.8074-.307-.5729-.7536-1.0376-1.3403-1.3943Zm.2505,4.7043c-.2031.4153-.5033.7425-.9003.9816-.3972.2391-.862.3585-1.3944.3585s-.9974-.1194-1.3944-.3585c-.3973-.2391-.6995-.5664-.907-.9816-.2078-.4149-.3114-.8799-.3114-1.3943s.1084-.9794.3249-1.3943c.2166-.4153.5212-.7403.9139-.975.3925-.2343.8505-.3519,1.3741-.3519.5145,0,.9701.1176,1.3674.3519.397.2347.7017.5597.9138.975.2119.4149.3181.8799.3181,1.3943s-.1015.9794-.3045,1.3943Z"/><path d="m240.0296,71.0502c-.2031.4153-.5033.7425-.9003.9816-.3972.2391-.862.3585-1.3944.3585s-.9974-.1194-1.3944-.3585c-.3973-.2391-.6995-.5664-.907-.9816-.2078-.4149-.3114-.8799-.3114-1.3943s.1084-.9794.3249-1.3943c.2166-.4153.5212-.7403.9139-.975.3925-.2343.8505-.3519,1.3741-.3519.5145,0,.9701.1176,1.3674.3519.397.2347.7017.5597.9138.975.2119.4149.3181.8799.3181,1.3943s-.1015.9794-.3045,1.3943Z"/><path class="cls-1" d="m246.751,65.8381h-.0541c-.8936,0-1.5637.2823-2.0104.846-.2273.287-.396.6407-.5077,1.0596v-1.689h-.9883v7.2155h1.2455v-4.3185c0-.5866.1781-1.0605.5348-1.4212.3565-.3611.828-.5417,1.4147-.5417.5504,0,.9884.1691,1.3132.5078.325.3382.4874.7967.4874,1.374v4.3996h1.2455v-4.1287c0-1.0741-.2234-1.8933-.6701-2.4574-.4468-.5637-1.117-.846-2.0105-.846Z"/><polygon class="cls-1" points="250.501 63.3877 250.501 64.3759 251.5163 64.3759 251.5163 73.2702 252.7618 73.2702 252.7618 64.3759 252.7618 63.3877 251.5163 63.3877 250.501 63.3877"/><path class="cls-1" d="m255.7266,64.8635c.2708,0,.4783-.0722.6227-.2167.1442-.1444.2166-.3387.2166-.5822,0-.2343-.0723-.4241-.2166-.5686-.1444-.144-.352-.2167-.6227-.2167s-.4762.0727-.616.2167c-.1399.1444-.2099.3387-.2099.5822,0,.2347.0699.4241.2099.5685.1398.1445.3453.2167.616.2167Z"/><polygon class="cls-1" points="254.278 66.0547 254.278 67.043 255.3882 67.043 255.3882 73.2702 256.6336 73.2702 256.6336 67.043 256.6336 66.0547 255.3882 66.0547 254.278 66.0547"/><path class="cls-1" d="m262.3738,65.8381h-.0542c-.8935,0-1.5637.2823-2.0103.846-.2272.2869-.396.6406-.5077,1.0594v-1.6887h-.9883v7.2155h1.2455v-4.3185c0-.5866.1781-1.0605.5348-1.4212.3564-.3611.828-.5417,1.4147-.5417.5504,0,.9883.1691,1.3132.5078.3249.3382.4874.7967.4874,1.374v4.3996h1.2455v-4.1287c0-1.0741-.2234-1.8933-.6702-2.4574-.4467-.5637-1.1169-.846-2.0104-.846Z"/><path class="cls-1" d="m273.5695,69.3172c0-.6227-.1286-1.2001-.3858-1.7325-.2573-.5324-.6454-.9614-1.1643-1.2864-.519-.325-1.1486-.4871-1.8884-.4871-.7673,0-1.4148.1757-1.9427.5276-.5279.3523-.923.8125-1.1846,1.3811-.2618.5686-.3926,1.1776-.3926,1.8277v.2299c0,.6412.1286,1.2454.3858,1.8144.2573.5686.6566,1.031,1.1981,1.3872.5416.3567,1.2138.5351,2.0172.5351.8574,0,1.5726-.2123,2.1458-.6364.5731-.4241.9363-1.0063,1.0898-1.7466h-1.1777c-.0813.3611-.3047.6659-.6702.9138-.3654.2484-.8281.3726-1.3876.3726-.5415,0-.9906-.1198-1.347-.3589-.3566-.2391-.6227-.5637-.7988-.9746-.1506-.3516-.2362-.7513-.258-1.1983h5.7612v-.5686Zm-4.7315-2.0575c.3474-.2347.7784-.3519,1.2929-.3519.4783,0,.8887.1035,1.2319.3114.3428.2074.5977.5029.7649.8865.1102.2532.1833.5357.2207.846h-4.4911c.0426-.2603.1094-.5021.2022-.724.1713-.4109.4308-.7333.7784-.968Z"/></g><rect class="cls-1" x="50" y="87.1391" width="112.6617" height="25.7218"/><g><path d="m61.8389,96.6968c-.5191-.325-1.1486-.4871-1.8886-.4871-.7672,0-1.4147.1757-1.9426.5276-.528.3523-.923.8125-1.1845,1.3811-.262.5686-.3926,1.1776-.3926,1.8277v.2299c0,.6412.1286,1.2454.3858,1.8144.2573.5686.6566,1.031,1.1981,1.3872.5416.3567,1.2138.5351,2.0172.5351.8574,0,1.5724-.2123,2.1458-.6364.5731-.4241.9362-1.0063,1.0898-1.7466h-1.1777c-.0813.3611-.3047.6659-.6702.9138-.3654.2484-.8281.3726-1.3876.3726-.5415,0-.9906-.1198-1.347-.3589-.3567-.2391-.6227-.5637-.7988-.9746-.1507-.3516-.2363-.7513-.258-1.1983h5.7612v-.5686c0-.6227-.1286-1.2001-.3858-1.7325-.2573-.5324-.6454-.9614-1.1643-1.2864Zm-3.1814.9614c.3473-.2347.7784-.3519,1.2928-.3519.4783,0,.8888.1035,1.232.3114.3429.2074.5978.5029.7649.8865.1101.2532.1832.5357.2207.846h-4.491c.0426-.2603.1094-.5021.2022-.724.1713-.4109.4308-.7333.7784-.968Z"/><polygon points="70.2932 96.4533 69.0071 96.4533 67.3284 99.1877 67.1389 99.1877 65.3654 96.4533 63.9845 96.4533 66.3503 100.028 63.8626 103.6687 65.1489 103.6687 67.1254 100.7176 67.3149 100.7176 69.3727 103.6687 70.7536 103.6687 68.0928 99.8832 70.2932 96.4533"/><polygon points="71.3763 96.4533 71.3763 97.4415 72.4864 97.4415 72.4864 103.6687 73.7319 103.6687 73.7319 97.4415 73.7319 96.4533 72.4864 96.4533 71.3763 96.4533"/><path d="m72.8249,95.262c.2706,0,.4782-.0722.6227-.2167.1442-.1444.2166-.3387.2166-.5822,0-.2343-.0723-.4241-.2166-.5686-.1446-.144-.3521-.2167-.6227-.2167-.2708,0-.4762.0727-.616.2167-.14.1444-.2098.3387-.2098.5822,0,.2347.0698.4241.2098.5685.1398.1445.3452.2167.616.2167Z"/><path d="m80.5956,100.1491c-.4514-.3519-1.0785-.5686-1.8819-.65l-.7851-.081c-.4152-.0449-.7198-.1511-.9138-.318-.1941-.1669-.291-.3906-.291-.6703,0-.3338.1374-.6047.4129-.8121.2752-.2079.6566-.3114,1.1439-.3114.4962,0,.8776.0991,1.144.2977.2661.1986.4082.4558.4264.7716h1.1779c-.0182-.6857-.2732-1.2137-.7649-1.5841-.492-.3699-1.1531-.5549-1.9834-.5549-.5326,0-1.0041.0881-1.4147.2642-.4108.1757-.7334.4285-.968.7579-.2348.3294-.352.7196-.352,1.171,0,.5866.2052,1.0517.616,1.3943.4106.3431.9724.5549,1.6854.6364l.7988.081c.5054.0542.8732.1674,1.1034.3387.2301.1713.3451.4109.3451.7174,0,.3611-.158.6544-.4737.8799-.3161.2259-.7628.3387-1.3403.3387-.6048,0-1.0539-.1154-1.347-.3453-.2934-.2303-.4447-.5122-.4536-.846h-1.1777c.0179.7038.2864,1.2569.8055,1.6581.5189.4016,1.2432.6024,2.1729.6024.5775,0,1.0942-.0969,1.5501-.2911.4556-.1938.8099-.4668,1.0627-.8191.2526-.3519.3791-.7443.3791-1.1776,0-.6135-.2257-1.0966-.6769-1.4485Z"/><path d="m84.508,94.2464h-1.1913v2.2068h-1.2591v.9341h1.2591v3.8583c0,.6139.1015,1.1032.3046,1.4687.203.3655.4962.6293.8799.7918.3836.1625.8507.244,1.4011.244h1.1102v-1.1239h-1.2726c-.3881,0-.6905-.1057-.907-.318-.2166-.2118-.3249-.5166-.3249-.9138v-4.0072h2.5045v-.9341h-2.5045v-2.2068Z"/><path d="m93.2262,100.7582c0,.6047-.1715,1.0856-.5144,1.4419-.3431.3567-.7943.5346-1.3538.5346-.5327,0-.9545-.1625-1.2658-.4871-.3113-.325-.467-.7764-.467-1.3538v-4.4542h-1.2455v4.197c0,1.0468.2301,1.8501.6905,2.4094.4602.5597,1.1146.8394,1.963.8394h.0541c.8483,0,1.4892-.2818,1.9225-.846.2166-.282.379-.6277.4873-1.037v1.6663h.9883v-7.2291h-1.259v4.3185Z"/><path d="m97.3689,95.1537c.2707,0,.4758-.0744.6159-.2233.1398-.1488.2098-.3409.2098-.5756,0-.2435-.07-.4351-.2098-.5751-.1401-.1401-.3452-.2101-.6159-.2101s-.4762.0727-.616.2167c-.1401.1444-.2099.3387-.2099.5822,0,.2347.0698.4241.2099.5686.1398.1444.3452.2167.616.2167Z"/><path d="m95.9339,96.4533v.9883h1.1506v6.7825c0,.3519-.0926.6201-.2774.8055-.1851.1845-.4491.2774-.7919.2774h-.7717v1.1234h.5821c.5957,0,1.0716-.0766,1.4282-.2299.3565-.1537.616-.4043.7784-.7513.1625-.3479.2437-.8191.2437-1.415v-7.581h-2.3421Z"/><path d="m105.3493,96.6968c-.519-.325-1.1486-.4871-1.8884-.4871-.7673,0-1.4148.1757-1.9428.5276-.5279.3523-.923.8125-1.1845,1.3811-.2618.5686-.3926,1.1776-.3926,1.8277v.2299c0,.6412.1286,1.2454.3858,1.8144.2573.5686.6566,1.031,1.1981,1.3872.5416.3567,1.2138.5351,2.0172.5351.8574,0,1.5726-.2123,2.1458-.6364.5731-.4241.9363-1.0063,1.0898-1.7466h-1.1777c-.0813.3611-.3047.6659-.6702.9138-.3654.2484-.8281.3726-1.3876.3726-.5415,0-.9906-.1198-1.347-.3589-.3566-.2391-.6227-.5637-.7988-.9746-.1506-.3516-.2362-.7513-.258-1.1983h5.7612v-.5686c0-.6227-.1286-1.2001-.3858-1.7325-.2573-.5324-.6454-.9614-1.1643-1.2864Zm-3.1814.9614c.3474-.2347.7784-.3519,1.2929-.3519.4783,0,.8887.1035,1.2319.3114.3429.2074.5978.5029.7649.8865.1102.2532.1833.5357.2208.846h-4.4911c.0426-.2603.1094-.5021.2022-.724.1713-.4109.4308-.7333.7784-.968Z"/><path d="m108.4969,102.0714c-.2167,0-.3973.0766-.5416.2303-.1445.1533-.2166.3431-.2166.5686s.0721.4149.2166.5686c.1443.1533.3249.2299.5416.2299.2166,0,.397-.0766.5415-.2299.1442-.1537.2166-.3431.2166-.5686s-.0723-.4153-.2166-.5686c-.1445-.1537-.3249-.2303-.5415-.2303Z"/><path d="m122.4408,96.7444c-.5868-.3563-1.2682-.5346-2.0443-.5346h-6.4712c-.7762,0-1.4576.1784-2.0442.5346-.5868.3567-1.0336.8213-1.3403,1.3943-.307.5734-.4603,1.1759-.4603,1.8074v.2299c0,.632.149,1.2344.4468,1.8074.2978.5734.7399,1.038,1.3267,1.3943.5865.3567,1.2769.5351,2.0712.5351h6.4712c.7942,0,1.4845-.1784,2.0713-.5351.5866-.3563,1.0289-.8209,1.3267-1.3943.2978-.5729.4468-1.1754.4468-1.8074v-.2299c0-.6315-.1536-1.234-.4603-1.8074-.307-.5729-.7536-1.0376-1.3403-1.3943Zm.2505,4.7043c-.2031.4153-.5033.7425-.9003.9816-.3972.2391-.862.3585-1.3944.3585s-.9974-.1194-1.3944-.3585c-.3973-.2391-.6995-.5664-.907-.9816-.2078-.4149-.3114-.8799-.3114-1.3943s.1084-.9794.3249-1.3943c.2166-.4153.5212-.7403.9139-.975.3925-.2343.8505-.3519,1.3741-.3519.5145,0,.9701.1176,1.3674.3519.397.2347.7017.5597.9138.975.2119.4149.3181.8799.3181,1.3943s-.1015.9794-.3045,1.3943Z"/><path class="cls-2" d="m122.6912,101.4487c-.2031.4153-.5033.7425-.9003.9816-.3972.2391-.862.3585-1.3944.3585s-.9974-.1194-1.3944-.3585c-.3973-.2391-.6995-.5664-.907-.9816-.2078-.4149-.3114-.8799-.3114-1.3943s.1084-.9794.3249-1.3943c.2166-.4153.5212-.7403.9139-.975.3925-.2343.8505-.3519,1.3741-.3519.5145,0,.9701.1176,1.3674.3519.397.2347.7017.5597.9138.975.2119.4149.3181.8799.3181,1.3943s-.1015.9794-.3045,1.3943Z"/><path d="m129.4127,96.2366h-.0541c-.8936,0-1.5637.2823-2.0104.846-.2273.287-.396.6407-.5077,1.0596v-1.689h-.9883v7.2155h1.2455v-4.3185c0-.5866.1781-1.0605.5348-1.4212.3565-.3611.828-.5417,1.4147-.5417.5504,0,.9884.1691,1.3132.5078.325.3382.4874.7967.4874,1.374v4.3996h1.2455v-4.1287c0-1.0741-.2234-1.8933-.6701-2.4574-.4468-.5637-1.117-.846-2.0105-.846Z"/><polygon points="133.1626 93.7862 133.1626 94.7745 134.178 94.7745 134.178 103.6687 135.4235 103.6687 135.4235 94.7745 135.4235 93.7862 134.178 93.7862 133.1626 93.7862"/><path d="m138.3883,95.262c.2708,0,.4783-.0722.6227-.2167.1442-.1444.2166-.3387.2166-.5822,0-.2343-.0723-.4241-.2166-.5686-.1444-.144-.352-.2167-.6227-.2167s-.4762.0727-.616.2167c-.1399.1444-.2099.3387-.2099.5822,0,.2347.0699.4241.2099.5685.1398.1445.3453.2167.616.2167Z"/><polygon points="136.9397 96.4533 136.9397 97.4415 138.0498 97.4415 138.0498 103.6687 139.2953 103.6687 139.2953 97.4415 139.2953 96.4533 138.0498 96.4533 136.9397 96.4533"/><path d="m145.0354,96.2366h-.0542c-.8935,0-1.5637.2823-2.0103.846-.2272.2869-.396.6406-.5077,1.0594v-1.6887h-.9883v7.2155h1.2455v-4.3185c0-.5866.1781-1.0605.5348-1.4212.3564-.3611.828-.5417,1.4147-.5417.5504,0,.9883.1691,1.3132.5078.3249.3382.4874.7967.4874,1.374v4.3996h1.2455v-4.1287c0-1.0741-.2234-1.8933-.6702-2.4574-.4467-.5637-1.1169-.846-2.0104-.846Z"/><path d="m156.2312,99.7157c0-.6227-.1286-1.2001-.3858-1.7325-.2573-.5324-.6454-.9614-1.1643-1.2864-.519-.325-1.1486-.4871-1.8884-.4871-.7673,0-1.4148.1757-1.9427.5276-.5279.3523-.923.8125-1.1846,1.3811-.2618.5686-.3926,1.1776-.3926,1.8277v.2299c0,.6412.1286,1.2454.3858,1.8144.2573.5686.6566,1.031,1.1981,1.3872.5416.3567,1.2138.5351,2.0172.5351.8574,0,1.5726-.2123,2.1458-.6364.5731-.4241.9363-1.0063,1.0898-1.7466h-1.1777c-.0813.3611-.3047.6659-.6702.9138-.3654.2484-.8281.3726-1.3876.3726-.5415,0-.9906-.1198-1.347-.3589-.3566-.2391-.6227-.5637-.7988-.9746-.1506-.3516-.2362-.7513-.258-1.1983h5.7612v-.5686Zm-4.7315-2.0575c.3474-.2347.7784-.3519,1.2929-.3519.4783,0,.8887.1035,1.2319.3114.3428.2074.5977.5029.7649.8865.1102.2532.1833.5357.2207.846h-4.4911c.0426-.2603.1094-.5021.2022-.724.1713-.4109.4308-.7333.7784-.968Z"/></g><rect x="167.3383" y="87.1391" width="112.6617" height="25.7218"/><g><path class="cls-1" d="m179.1772,96.6968c-.5191-.325-1.1486-.4871-1.8886-.4871-.7672,0-1.4147.1757-1.9426.5276-.528.3523-.923.8125-1.1845,1.3811-.262.5686-.3926,1.1776-.3926,1.8277v.2299c0,.6412.1286,1.2454.3858,1.8144.2573.5686.6566,1.031,1.1981,1.3872.5416.3567,1.2138.5351,2.0172.5351.8574,0,1.5724-.2123,2.1458-.6364.5731-.4241.9362-1.0063,1.0898-1.7466h-1.1777c-.0813.3611-.3047.6659-.6702.9138-.3654.2484-.8281.3726-1.3876.3726-.5415,0-.9906-.1198-1.347-.3589-.3567-.2391-.6227-.5637-.7988-.9746-.1507-.3516-.2363-.7513-.258-1.1983h5.7612v-.5686c0-.6227-.1286-1.2001-.3858-1.7325-.2573-.5324-.6454-.9614-1.1643-1.2864Zm-3.1814.9614c.3473-.2347.7784-.3519,1.2928-.3519.4783,0,.8888.1035,1.232.3114.3429.2074.5978.5029.7649.8865.1101.2532.1832.5357.2207.846h-4.491c.0426-.2603.1094-.5021.2022-.724.1713-.4109.4308-.7333.7784-.968Z"/><polygon class="cls-1" points="187.6316 96.4533 186.3455 96.4533 184.6668 99.1877 184.4773 99.1877 182.7038 96.4533 181.3229 96.4533 183.6887 100.028 181.201 103.6687 182.4872 103.6687 184.4637 100.7176 184.6532 100.7176 186.711 103.6687 188.0919 103.6687 185.4312 99.8832 187.6316 96.4533"/><polygon class="cls-1" points="188.7146 96.4533 188.7146 97.4415 189.8248 97.4415 189.8248 103.6687 191.0703 103.6687 191.0703 97.4415 191.0703 96.4533 189.8248 96.4533 188.7146 96.4533"/><path class="cls-1" d="m190.1632,95.262c.2706,0,.4782-.0722.6227-.2167.1442-.1444.2166-.3387.2166-.5822,0-.2343-.0723-.4241-.2166-.5686-.1446-.144-.3521-.2167-.6227-.2167-.2708,0-.4762.0727-.616.2167-.14.1444-.2098.3387-.2098.5822,0,.2347.0698.4241.2098.5685.1398.1445.3452.2167.616.2167Z"/><path class="cls-1" d="m197.934,100.1491c-.4514-.3519-1.0785-.5686-1.8819-.65l-.7851-.081c-.4152-.0449-.7198-.1511-.9138-.318-.1941-.1669-.291-.3906-.291-.6703,0-.3338.1374-.6047.4129-.8121.2752-.2079.6566-.3114,1.1439-.3114.4962,0,.8776.0991,1.144.2977.2661.1986.4082.4558.4264.7716h1.1779c-.0182-.6857-.2732-1.2137-.7649-1.5841-.492-.3699-1.1531-.5549-1.9834-.5549-.5326,0-1.0041.0881-1.4147.2642-.4108.1757-.7334.4285-.968.7579-.2348.3294-.352.7196-.352,1.171,0,.5866.2052,1.0517.616,1.3943.4106.3431.9724.5549,1.6854.6364l.7988.081c.5054.0542.8732.1674,1.1034.3387.2301.1713.3451.4109.3451.7174,0,.3611-.158.6544-.4737.8799-.3161.2259-.7628.3387-1.3403.3387-.6048,0-1.0539-.1154-1.347-.3453-.2934-.2303-.4447-.5122-.4536-.846h-1.1777c.0179.7038.2864,1.2569.8055,1.6581.5189.4016,1.2432.6024,2.1729.6024.5775,0,1.0942-.0969,1.5501-.2911.4556-.1938.8099-.4668,1.0627-.8191.2526-.3519.3791-.7443.3791-1.1776,0-.6135-.2257-1.0966-.6769-1.4485Z"/><path class="cls-1" d="m201.8463,94.2464h-1.1913v2.2068h-1.2591v.9341h1.2591v3.8583c0,.6139.1015,1.1032.3046,1.4687.203.3655.4962.6293.8799.7918.3836.1625.8507.244,1.4011.244h1.1102v-1.1239h-1.2726c-.3881,0-.6905-.1057-.907-.318-.2166-.2118-.3249-.5166-.3249-.9138v-4.0072h2.5045v-.9341h-2.5045v-2.2068Z"/><path class="cls-1" d="m210.5646,100.7582c0,.6047-.1715,1.0856-.5144,1.4419-.3431.3567-.7943.5346-1.3538.5346-.5327,0-.9545-.1625-1.2658-.4871-.3113-.325-.467-.7764-.467-1.3538v-4.4542h-1.2455v4.197c0,1.0468.2301,1.8501.6905,2.4094.4602.5597,1.1146.8394,1.963.8394h.0541c.8483,0,1.4892-.2818,1.9225-.846.2166-.282.379-.6277.4873-1.037v1.6663h.9883v-7.2291h-1.259v4.3185Z"/><path class="cls-1" d="m214.7073,95.1537c.2707,0,.4758-.0744.6159-.2233.1398-.1488.2098-.3409.2098-.5756,0-.2435-.07-.4351-.2098-.5751-.1401-.1401-.3452-.2101-.6159-.2101s-.4762.0727-.616.2167c-.1401.1444-.2099.3387-.2099.5822,0,.2347.0698.4241.2099.5686.1398.1444.3452.2167.616.2167Z"/><path class="cls-1" d="m213.2722,96.4533v.9883h1.1506v6.7825c0,.3519-.0926.6201-.2774.8055-.1851.1845-.4491.2774-.7919.2774h-.7717v1.1234h.5821c.5957,0,1.0716-.0766,1.4282-.2299.3565-.1537.616-.4043.7784-.7513.1625-.3479.2437-.8191.2437-1.415v-7.581h-2.3421Z"/><path class="cls-1" d="m222.6876,96.6968c-.519-.325-1.1486-.4871-1.8884-.4871-.7673,0-1.4148.1757-1.9428.5276-.5279.3523-.923.8125-1.1845,1.3811-.2618.5686-.3926,1.1776-.3926,1.8277v.2299c0,.6412.1286,1.2454.3858,1.8144.2573.5686.6566,1.031,1.1981,1.3872.5416.3567,1.2138.5351,2.0172.5351.8574,0,1.5726-.2123,2.1458-.6364.5731-.4241.9363-1.0063,1.0898-1.7466h-1.1777c-.0813.3611-.3047.6659-.6702.9138-.3654.2484-.8281.3726-1.3876.3726-.5415,0-.9906-.1198-1.347-.3589-.3566-.2391-.6227-.5637-.7988-.9746-.1506-.3516-.2362-.7513-.258-1.1983h5.7612v-.5686c0-.6227-.1286-1.2001-.3858-1.7325-.2573-.5324-.6454-.9614-1.1643-1.2864Zm-3.1814.9614c.3474-.2347.7784-.3519,1.2929-.3519.4783,0,.8887.1035,1.2319.3114.3429.2074.5978.5029.7649.8865.1102.2532.1833.5357.2208.846h-4.4911c.0426-.2603.1094-.5021.2022-.724.1713-.4109.4308-.7333.7784-.968Z"/><path class="cls-1" d="m225.8352,102.0714c-.2167,0-.3973.0766-.5416.2303-.1445.1533-.2166.3431-.2166.5686s.0721.4149.2166.5686c.1443.1533.3249.2299.5416.2299.2166,0,.397-.0766.5415-.2299.1442-.1537.2166-.3431.2166-.5686s-.0723-.4153-.2166-.5686c-.1445-.1537-.3249-.2303-.5415-.2303Z"/><path class="cls-1" d="m239.7791,96.7444c-.5868-.3563-1.2682-.5346-2.0443-.5346h-6.4712c-.7762,0-1.4576.1784-2.0442.5346-.5868.3567-1.0336.8213-1.3403,1.3943-.307.5734-.4603,1.1759-.4603,1.8074v.2299c0,.632.149,1.2344.4468,1.8074.2978.5734.7399,1.038,1.3267,1.3943.5865.3567,1.2769.5351,2.0712.5351h6.4712c.7942,0,1.4845-.1784,2.0713-.5351.5866-.3563,1.0289-.8209,1.3267-1.3943.2978-.5729.4468-1.1754.4468-1.8074v-.2299c0-.6315-.1536-1.234-.4603-1.8074-.307-.5729-.7536-1.0376-1.3403-1.3943Zm.2505,4.7043c-.2031.4153-.5033.7425-.9003.9816-.3972.2391-.862.3585-1.3944.3585s-.9974-.1194-1.3944-.3585c-.3973-.2391-.6995-.5664-.907-.9816-.2078-.4149-.3114-.8799-.3114-1.3943s.1084-.9794.3249-1.3943c.2166-.4153.5212-.7403.9139-.975.3925-.2343.8505-.3519,1.3741-.3519.5145,0,.9701.1176,1.3674.3519.397.2347.7017.5597.9138.975.2119.4149.3181.8799.3181,1.3943s-.1015.9794-.3045,1.3943Z"/><path class="cls-2" d="m240.0296,101.4487c-.2031.4153-.5033.7425-.9003.9816-.3972.2391-.862.3585-1.3944.3585s-.9974-.1194-1.3944-.3585c-.3973-.2391-.6995-.5664-.907-.9816-.2078-.4149-.3114-.8799-.3114-1.3943s.1084-.9794.3249-1.3943c.2166-.4153.5212-.7403.9139-.975.3925-.2343.8505-.3519,1.3741-.3519.5145,0,.9701.1176,1.3674.3519.397.2347.7017.5597.9138.975.2119.4149.3181.8799.3181,1.3943s-.1015.9794-.3045,1.3943Z"/><path class="cls-1" d="m246.751,96.2366h-.0541c-.8936,0-1.5637.2823-2.0104.846-.2273.287-.396.6407-.5077,1.0596v-1.689h-.9883v7.2155h1.2455v-4.3185c0-.5866.1781-1.0605.5348-1.4212.3565-.3611.828-.5417,1.4147-.5417.5504,0,.9884.1691,1.3132.5078.325.3382.4874.7967.4874,1.374v4.3996h1.2455v-4.1287c0-1.0741-.2234-1.8933-.6701-2.4574-.4468-.5637-1.117-.846-2.0105-.846Z"/><polygon class="cls-1" points="250.501 93.7862 250.501 94.7745 251.5163 94.7745 251.5163 103.6687 252.7618 103.6687 252.7618 94.7745 252.7618 93.7862 251.5163 93.7862 250.501 93.7862"/><path class="cls-1" d="m255.7266,95.262c.2708,0,.4783-.0722.6227-.2167.1442-.1444.2166-.3387.2166-.5822,0-.2343-.0723-.4241-.2166-.5686-.1444-.144-.352-.2167-.6227-.2167s-.4762.0727-.616.2167c-.1399.1444-.2099.3387-.2099.5822,0,.2347.0699.4241.2099.5685.1398.1445.3453.2167.616.2167Z"/><polygon class="cls-1" points="254.278 96.4533 254.278 97.4415 255.3882 97.4415 255.3882 103.6687 256.6336 103.6687 256.6336 97.4415 256.6336 96.4533 255.3882 96.4533 254.278 96.4533"/><path class="cls-1" d="m262.3738,96.2366h-.0542c-.8935,0-1.5637.2823-2.0103.846-.2272.2869-.396.6406-.5077,1.0594v-1.6887h-.9883v7.2155h1.2455v-4.3185c0-.5866.1781-1.0605.5348-1.4212.3564-.3611.828-.5417,1.4147-.5417.5504,0,.9883.1691,1.3132.5078.3249.3382.4874.7967.4874,1.374v4.3996h1.2455v-4.1287c0-1.0741-.2234-1.8933-.6702-2.4574-.4467-.5637-1.1169-.846-2.0104-.846Z"/><path class="cls-1" d="m273.5695,99.7157c0-.6227-.1286-1.2001-.3858-1.7325-.2573-.5324-.6454-.9614-1.1643-1.2864-.519-.325-1.1486-.4871-1.8884-.4871-.7673,0-1.4148.1757-1.9427.5276-.5279.3523-.923.8125-1.1846,1.3811-.2618.5686-.3926,1.1776-.3926,1.8277v.2299c0,.6412.1286,1.2454.3858,1.8144.2573.5686.6566,1.031,1.1981,1.3872.5416.3567,1.2138.5351,2.0172.5351.8574,0,1.5726-.2123,2.1458-.6364.5731-.4241.9363-1.0063,1.0898-1.7466h-1.1777c-.0813.3611-.3047.6659-.6702.9138-.3654.2484-.8281.3726-1.3876.3726-.5415,0-.9906-.1198-1.347-.3589-.3566-.2391-.6227-.5637-.7988-.9746-.1506-.3516-.2362-.7513-.258-1.1983h5.7612v-.5686Zm-4.7315-2.0575c.3474-.2347.7784-.3519,1.2929-.3519.4783,0,.8887.1035,1.2319.3114.3428.2074.5977.5029.7649.8865.1102.2532.1833.5357.2207.846h-4.4911c.0426-.2603.1094-.5021.2022-.724.1713-.4109.4308-.7333.7784-.968Z"/></g></g><g><rect class="cls-3" x="50" y="117.5376" width="112.6617" height="25.7218"/><g><path class="cls-1" d="m61.8389,127.0953c-.5191-.325-1.1486-.4871-1.8886-.4871-.7672,0-1.4147.1757-1.9426.5276-.528.3523-.923.8125-1.1845,1.3811-.262.5686-.3926,1.1776-.3926,1.8277v.2299c0,.6412.1286,1.2454.3858,1.8144.2573.5686.6566,1.031,1.1981,1.3872.5416.3567,1.2138.5351,2.0172.5351.8574,0,1.5724-.2123,2.1458-.6364.5731-.4241.9362-1.0063,1.0898-1.7466h-1.1777c-.0813.3611-.3047.6659-.6702.9138-.3654.2484-.8281.3726-1.3876.3726-.5415,0-.9906-.1198-1.347-.3589-.3567-.2391-.6227-.5637-.7988-.9746-.1507-.3516-.2363-.7513-.258-1.1983h5.7612v-.5686c0-.6227-.1286-1.2001-.3858-1.7325-.2573-.5324-.6454-.9614-1.1643-1.2864Zm-3.1814.9614c.3473-.2347.7784-.3519,1.2928-.3519.4783,0,.8888.1035,1.232.3114.3429.2074.5978.5029.7649.8865.1101.2532.1832.5357.2207.846h-4.491c.0426-.2603.1094-.5021.2022-.724.1713-.4109.4308-.7333.7784-.968Z"/><polygon class="cls-1" points="70.2932 126.8518 69.0071 126.8518 67.3284 129.5862 67.1389 129.5862 65.3654 126.8518 63.9845 126.8518 66.3503 130.4266 63.8626 134.0673 65.1489 134.0673 67.1254 131.1162 67.3149 131.1162 69.3727 134.0673 70.7536 134.0673 68.0928 130.2817 70.2932 126.8518"/><polygon class="cls-1" points="71.3763 126.8518 71.3763 127.8401 72.4864 127.8401 72.4864 134.0673 73.7319 134.0673 73.7319 127.8401 73.7319 126.8518 72.4864 126.8518 71.3763 126.8518"/><path class="cls-1" d="m72.8249,125.6605c.2706,0,.4782-.0722.6227-.2167.1442-.1444.2166-.3387.2166-.5822,0-.2343-.0723-.4241-.2166-.5686-.1446-.144-.3521-.2167-.6227-.2167-.2708,0-.4762.0727-.616.2167-.14.1444-.2098.3387-.2098.5822,0,.2347.0698.4241.2098.5685.1398.1445.3452.2167.616.2167Z"/><path class="cls-1" d="m80.5956,130.5476c-.4514-.3519-1.0785-.5686-1.8819-.65l-.7851-.081c-.4152-.0449-.7198-.1511-.9138-.318-.1941-.1669-.291-.3906-.291-.6703,0-.3338.1374-.6047.4129-.8121.2752-.2079.6566-.3114,1.1439-.3114.4962,0,.8776.0991,1.144.2977.2661.1986.4082.4558.4264.7716h1.1779c-.0182-.6857-.2732-1.2137-.7649-1.5841-.492-.3699-1.1531-.5549-1.9834-.5549-.5326,0-1.0041.0881-1.4147.2642-.4108.1757-.7334.4285-.968.7579-.2348.3294-.352.7196-.352,1.171,0,.5866.2052,1.0517.616,1.3943.4106.3431.9724.5549,1.6854.6364l.7988.081c.5054.0542.8732.1674,1.1034.3387.2301.1713.3451.4109.3451.7174,0,.3611-.158.6544-.4737.8799-.3161.2259-.7628.3387-1.3403.3387-.6048,0-1.0539-.1154-1.347-.3453-.2934-.2303-.4447-.5122-.4536-.846h-1.1777c.0179.7038.2864,1.2569.8055,1.6581.5189.4016,1.2432.6024,2.1729.6024.5775,0,1.0942-.0969,1.5501-.2911.4556-.1938.8099-.4668,1.0627-.8191.2526-.3519.3791-.7443.3791-1.1776,0-.6135-.2257-1.0966-.6769-1.4485Z"/><path class="cls-1" d="m84.508,124.645h-1.1913v2.2068h-1.2591v.9341h1.2591v3.8583c0,.6139.1015,1.1032.3046,1.4687.203.3655.4962.6293.8799.7918.3836.1625.8507.244,1.4011.244h1.1102v-1.1239h-1.2726c-.3881,0-.6905-.1057-.907-.318-.2166-.2118-.3249-.5166-.3249-.9138v-4.0072h2.5045v-.9341h-2.5045v-2.2068Z"/><path class="cls-1" d="m93.2262,131.1567c0,.6047-.1715,1.0856-.5144,1.4419-.3431.3567-.7943.5346-1.3538.5346-.5327,0-.9545-.1625-1.2658-.4871-.3113-.325-.467-.7764-.467-1.3538v-4.4542h-1.2455v4.197c0,1.0468.2301,1.8501.6905,2.4094.4602.5597,1.1146.8394,1.963.8394h.0541c.8483,0,1.4892-.2818,1.9225-.846.2166-.282.379-.6277.4873-1.037v1.6663h.9883v-7.2291h-1.259v4.3185Z"/><path class="cls-1" d="m97.3689,125.5522c.2707,0,.4758-.0744.6159-.2233.1398-.1488.2098-.3409.2098-.5756,0-.2435-.07-.4351-.2098-.5751-.1401-.1401-.3452-.2101-.6159-.2101s-.4762.0727-.616.2167c-.1401.1444-.2099.3387-.2099.5822,0,.2347.0698.4241.2099.5686.1398.1444.3452.2167.616.2167Z"/><path class="cls-1" d="m95.9339,126.8518v.9883h1.1506v6.7825c0,.3519-.0926.6201-.2774.8055-.1851.1845-.4491.2774-.7919.2774h-.7717v1.1234h.5821c.5957,0,1.0716-.0766,1.4282-.2299.3565-.1537.616-.4043.7784-.7513.1625-.3479.2437-.8191.2437-1.415v-7.581h-2.3421Z"/><path class="cls-1" d="m105.3493,127.0953c-.519-.325-1.1486-.4871-1.8884-.4871-.7673,0-1.4148.1757-1.9428.5276-.5279.3523-.923.8125-1.1845,1.3811-.2618.5686-.3926,1.1776-.3926,1.8277v.2299c0,.6412.1286,1.2454.3858,1.8144.2573.5686.6566,1.031,1.1981,1.3872.5416.3567,1.2138.5351,2.0172.5351.8574,0,1.5726-.2123,2.1458-.6364.5731-.4241.9363-1.0063,1.0898-1.7466h-1.1777c-.0813.3611-.3047.6659-.6702.9138-.3654.2484-.8281.3726-1.3876.3726-.5415,0-.9906-.1198-1.347-.3589-.3566-.2391-.6227-.5637-.7988-.9746-.1506-.3516-.2362-.7513-.258-1.1983h5.7612v-.5686c0-.6227-.1286-1.2001-.3858-1.7325-.2573-.5324-.6454-.9614-1.1643-1.2864Zm-3.1814.9614c.3474-.2347.7784-.3519,1.2929-.3519.4783,0,.8887.1035,1.2319.3114.3429.2074.5978.5029.7649.8865.1102.2532.1833.5357.2208.846h-4.4911c.0426-.2603.1094-.5021.2022-.724.1713-.4109.4308-.7333.7784-.968Z"/><path class="cls-1" d="m108.4969,132.4699c-.2167,0-.3973.0766-.5416.2303-.1445.1533-.2166.3431-.2166.5686s.0721.4149.2166.5686c.1443.1533.3249.2299.5416.2299.2166,0,.397-.0766.5415-.2299.1442-.1537.2166-.3431.2166-.5686s-.0723-.4153-.2166-.5686c-.1445-.1537-.3249-.2303-.5415-.2303Z"/><path class="cls-1" d="m122.4408,127.1429c-.5868-.3563-1.2682-.5346-2.0443-.5346h-6.4712c-.7762,0-1.4576.1784-2.0442.5346-.5868.3567-1.0336.8213-1.3403,1.3943-.307.5734-.4603,1.1759-.4603,1.8074v.2299c0,.632.149,1.2344.4468,1.8074.2978.5734.7399,1.038,1.3267,1.3943.5865.3567,1.2769.5351,2.0712.5351h6.4712c.7942,0,1.4845-.1784,2.0713-.5351.5866-.3563,1.0289-.8209,1.3267-1.3943.2978-.5729.4468-1.1754.4468-1.8074v-.2299c0-.6315-.1536-1.234-.4603-1.8074-.307-.5729-.7536-1.0376-1.3403-1.3943Zm.2505,4.7043c-.2031.4153-.5033.7425-.9003.9816-.3972.2391-.862.3585-1.3944.3585s-.9974-.1194-1.3944-.3585c-.3973-.2391-.6995-.5664-.907-.9816-.2078-.4149-.3114-.8799-.3114-1.3943s.1084-.9794.3249-1.3943c.2166-.4153.5212-.7403.9139-.975.3925-.2343.8505-.3519,1.3741-.3519.5145,0,.9701.1176,1.3674.3519.397.2347.7017.5597.9138.975.2119.4149.3181.8799.3181,1.3943s-.1015.9794-.3045,1.3943Z"/><path class="cls-2" d="m122.6912,131.8472c-.2031.4153-.5033.7425-.9003.9816-.3972.2391-.862.3585-1.3944.3585s-.9974-.1194-1.3944-.3585c-.3973-.2391-.6995-.5664-.907-.9816-.2078-.4149-.3114-.8799-.3114-1.3943s.1084-.9794.3249-1.3943c.2166-.4153.5212-.7403.9139-.975.3925-.2343.8505-.3519,1.3741-.3519.5145,0,.9701.1176,1.3674.3519.397.2347.7017.5597.9138.975.2119.4149.3181.8799.3181,1.3943s-.1015.9794-.3045,1.3943Z"/><path class="cls-1" d="m129.4127,126.6351h-.0541c-.8936,0-1.5637.2823-2.0104.846-.2273.287-.396.6407-.5077,1.0596v-1.689h-.9883v7.2155h1.2455v-4.3185c0-.5866.1781-1.0605.5348-1.4212.3565-.3611.828-.5417,1.4147-.5417.5504,0,.9884.1691,1.3132.5078.325.3382.4874.7967.4874,1.374v4.3996h1.2455v-4.1287c0-1.0741-.2234-1.8933-.6701-2.4574-.4468-.5637-1.117-.846-2.0105-.846Z"/><polygon class="cls-1" points="133.1626 124.1848 133.1626 125.173 134.178 125.173 134.178 134.0673 135.4235 134.0673 135.4235 125.173 135.4235 124.1848 134.178 124.1848 133.1626 124.1848"/><path class="cls-1" d="m138.3883,125.6605c.2708,0,.4783-.0722.6227-.2167.1442-.1444.2166-.3387.2166-.5822,0-.2343-.0723-.4241-.2166-.5686-.1444-.144-.352-.2167-.6227-.2167s-.4762.0727-.616.2167c-.1399.1444-.2099.3387-.2099.5822,0,.2347.0699.4241.2099.5685.1398.1445.3453.2167.616.2167Z"/><polygon class="cls-1" points="136.9397 126.8518 136.9397 127.8401 138.0498 127.8401 138.0498 134.0673 139.2953 134.0673 139.2953 127.8401 139.2953 126.8518 138.0498 126.8518 136.9397 126.8518"/><path class="cls-1" d="m145.0354,126.6351h-.0542c-.8935,0-1.5637.2823-2.0103.846-.2272.2869-.396.6406-.5077,1.0594v-1.6887h-.9883v7.2155h1.2455v-4.3185c0-.5866.1781-1.0605.5348-1.4212.3564-.3611.828-.5417,1.4147-.5417.5504,0,.9883.1691,1.3132.5078.3249.3382.4874.7967.4874,1.374v4.3996h1.2455v-4.1287c0-1.0741-.2234-1.8933-.6702-2.4574-.4467-.5637-1.1169-.846-2.0104-.846Z"/><path class="cls-1" d="m156.2312,130.1143c0-.6227-.1286-1.2001-.3858-1.7325-.2573-.5324-.6454-.9614-1.1643-1.2864-.519-.325-1.1486-.4871-1.8884-.4871-.7673,0-1.4148.1757-1.9427.5276-.5279.3523-.923.8125-1.1846,1.3811-.2618.5686-.3926,1.1776-.3926,1.8277v.2299c0,.6412.1286,1.2454.3858,1.8144.2573.5686.6566,1.031,1.1981,1.3872.5416.3567,1.2138.5351,2.0172.5351.8574,0,1.5726-.2123,2.1458-.6364.5731-.4241.9363-1.0063,1.0898-1.7466h-1.1777c-.0813.3611-.3047.6659-.6702.9138-.3654.2484-.8281.3726-1.3876.3726-.5415,0-.9906-.1198-1.347-.3589-.3566-.2391-.6227-.5637-.7988-.9746-.1506-.3516-.2362-.7513-.258-1.1983h5.7612v-.5686Zm-4.7315-2.0575c.3474-.2347.7784-.3519,1.2929-.3519.4783,0,.8887.1035,1.2319.3114.3428.2074.5977.5029.7649.8865.1102.2532.1833.5357.2207.846h-4.4911c.0426-.2603.1094-.5021.2022-.724.1713-.4109.4308-.7333.7784-.968Z"/></g><rect class="cls-4" x="167.3383" y="117.4903" width="112.6617" height="25.7218"/><g><path class="cls-1" d="m179.1772,127.048c-.5191-.325-1.1486-.4871-1.8886-.4871-.7672,0-1.4147.1757-1.9426.5276-.528.3523-.923.8125-1.1845,1.3811-.262.5686-.3926,1.1776-.3926,1.8277v.2299c0,.6412.1286,1.2454.3858,1.8144.2573.5686.6566,1.031,1.1981,1.3872.5416.3567,1.2138.5351,2.0172.5351.8574,0,1.5724-.2123,2.1458-.6364.5731-.4241.9362-1.0063,1.0898-1.7466h-1.1777c-.0813.3611-.3047.6659-.6702.9138-.3654.2484-.8281.3726-1.3876.3726-.5415,0-.9906-.1198-1.347-.3589-.3567-.2391-.6227-.5637-.7988-.9746-.1507-.3516-.2363-.7513-.258-1.1983h5.7612v-.5686c0-.6227-.1286-1.2001-.3858-1.7325-.2573-.5324-.6454-.9614-1.1643-1.2864Zm-3.1814.9614c.3473-.2347.7784-.3519,1.2928-.3519.4783,0,.8888.1035,1.232.3114.3429.2074.5978.5029.7649.8865.1101.2532.1832.5357.2207.846h-4.491c.0426-.2603.1094-.5021.2022-.724.1713-.4109.4308-.7333.7784-.968Z"/><polygon class="cls-1" points="187.6316 126.8045 186.3455 126.8045 184.6668 129.5389 184.4773 129.5389 182.7038 126.8045 181.3229 126.8045 183.6887 130.3792 181.201 134.0199 182.4872 134.0199 184.4637 131.0688 184.6532 131.0688 186.711 134.0199 188.0919 134.0199 185.4312 130.2344 187.6316 126.8045"/><polygon class="cls-1" points="188.7146 126.8045 188.7146 127.7927 189.8248 127.7927 189.8248 134.0199 191.0703 134.0199 191.0703 127.7927 191.0703 126.8045 189.8248 126.8045 188.7146 126.8045"/><path class="cls-1" d="m190.1632,125.6132c.2706,0,.4782-.0722.6227-.2167.1442-.1444.2166-.3387.2166-.5822,0-.2343-.0723-.4241-.2166-.5686-.1446-.144-.3521-.2167-.6227-.2167-.2708,0-.4762.0727-.616.2167-.14.1444-.2098.3387-.2098.5822,0,.2347.0698.4241.2098.5685.1398.1445.3452.2167.616.2167Z"/><path class="cls-1" d="m197.934,130.5003c-.4514-.3519-1.0785-.5686-1.8819-.65l-.7851-.081c-.4152-.0449-.7198-.1511-.9138-.318-.1941-.1669-.291-.3906-.291-.6703,0-.3338.1374-.6047.4129-.8121.2752-.2079.6566-.3114,1.1439-.3114.4962,0,.8776.0991,1.144.2977.2661.1986.4082.4558.4264.7716h1.1779c-.0182-.6857-.2732-1.2137-.7649-1.5841-.492-.3699-1.1531-.5549-1.9834-.5549-.5326,0-1.0041.0881-1.4147.2642-.4108.1757-.7334.4285-.968.7579-.2348.3294-.352.7196-.352,1.171,0,.5866.2052,1.0517.616,1.3943.4106.3431.9724.5549,1.6854.6364l.7988.081c.5054.0542.8732.1674,1.1034.3387.2301.1713.3451.4109.3451.7174,0,.3611-.158.6544-.4737.8799-.3161.2259-.7628.3387-1.3403.3387-.6048,0-1.0539-.1154-1.347-.3453-.2934-.2303-.4447-.5122-.4536-.846h-1.1777c.0179.7038.2864,1.2569.8055,1.6581.5189.4016,1.2432.6024,2.1729.6024.5775,0,1.0942-.0969,1.5501-.2911.4556-.1938.8099-.4668,1.0627-.8191.2526-.3519.3791-.7443.3791-1.1776,0-.6135-.2257-1.0966-.6769-1.4485Z"/><path class="cls-1" d="m201.8463,124.5976h-1.1913v2.2068h-1.2591v.9341h1.2591v3.8583c0,.6139.1015,1.1032.3046,1.4687.203.3655.4962.6293.8799.7918.3836.1625.8507.244,1.4011.244h1.1102v-1.1239h-1.2726c-.3881,0-.6905-.1057-.907-.318-.2166-.2118-.3249-.5166-.3249-.9138v-4.0072h2.5045v-.9341h-2.5045v-2.2068Z"/><path class="cls-1" d="m210.5646,131.1094c0,.6047-.1715,1.0856-.5144,1.4419-.3431.3567-.7943.5346-1.3538.5346-.5327,0-.9545-.1625-1.2658-.4871-.3113-.325-.467-.7764-.467-1.3538v-4.4542h-1.2455v4.197c0,1.0468.2301,1.8501.6905,2.4094.4602.5597,1.1146.8394,1.963.8394h.0541c.8483,0,1.4892-.2818,1.9225-.846.2166-.282.379-.6277.4873-1.037v1.6663h.9883v-7.2291h-1.259v4.3185Z"/><path class="cls-1" d="m214.7073,125.5049c.2707,0,.4758-.0744.6159-.2233.1398-.1488.2098-.3409.2098-.5756,0-.2435-.07-.4351-.2098-.5751-.1401-.1401-.3452-.2101-.6159-.2101s-.4762.0727-.616.2167c-.1401.1444-.2099.3387-.2099.5822,0,.2347.0698.4241.2099.5686.1398.1444.3452.2167.616.2167Z"/><path class="cls-1" d="m213.2722,126.8045v.9883h1.1506v6.7825c0,.3519-.0926.6201-.2774.8055-.1851.1845-.4491.2774-.7919.2774h-.7717v1.1234h.5821c.5957,0,1.0716-.0766,1.4282-.2299.3565-.1537.616-.4043.7784-.7513.1625-.3479.2437-.8191.2437-1.415v-7.581h-2.3421Z"/><path class="cls-1" d="m222.6876,127.048c-.519-.325-1.1486-.4871-1.8884-.4871-.7673,0-1.4148.1757-1.9428.5276-.5279.3523-.923.8125-1.1845,1.3811-.2618.5686-.3926,1.1776-.3926,1.8277v.2299c0,.6412.1286,1.2454.3858,1.8144.2573.5686.6566,1.031,1.1981,1.3872.5416.3567,1.2138.5351,2.0172.5351.8574,0,1.5726-.2123,2.1458-.6364.5731-.4241.9363-1.0063,1.0898-1.7466h-1.1777c-.0813.3611-.3047.6659-.6702.9138-.3654.2484-.8281.3726-1.3876.3726-.5415,0-.9906-.1198-1.347-.3589-.3566-.2391-.6227-.5637-.7988-.9746-.1506-.3516-.2362-.7513-.258-1.1983h5.7612v-.5686c0-.6227-.1286-1.2001-.3858-1.7325-.2573-.5324-.6454-.9614-1.1643-1.2864Zm-3.1814.9614c.3474-.2347.7784-.3519,1.2929-.3519.4783,0,.8887.1035,1.2319.3114.3429.2074.5978.5029.7649.8865.1102.2532.1833.5357.2208.846h-4.4911c.0426-.2603.1094-.5021.2022-.724.1713-.4109.4308-.7333.7784-.968Z"/><path class="cls-1" d="m225.8352,132.4226c-.2167,0-.3973.0766-.5416.2303-.1445.1533-.2166.3431-.2166.5686s.0721.4149.2166.5686c.1443.1533.3249.2299.5416.2299.2166,0,.397-.0766.5415-.2299.1442-.1537.2166-.3431.2166-.5686s-.0723-.4153-.2166-.5686c-.1445-.1537-.3249-.2303-.5415-.2303Z"/><path class="cls-1" d="m239.7791,127.0956c-.5868-.3563-1.2682-.5346-2.0443-.5346h-6.4712c-.7762,0-1.4576.1784-2.0442.5346-.5868.3567-1.0336.8213-1.3403,1.3943-.307.5734-.4603,1.1759-.4603,1.8074v.2299c0,.632.149,1.2344.4468,1.8074.2978.5734.7399,1.038,1.3267,1.3943.5865.3567,1.2769.5351,2.0712.5351h6.4712c.7942,0,1.4845-.1784,2.0713-.5351.5866-.3563,1.0289-.8209,1.3267-1.3943.2978-.5729.4468-1.1754.4468-1.8074v-.2299c0-.6315-.1536-1.234-.4603-1.8074-.307-.5729-.7536-1.0376-1.3403-1.3943Zm.2505,4.7043c-.2031.4153-.5033.7425-.9003.9816-.3972.2391-.862.3585-1.3944.3585s-.9974-.1194-1.3944-.3585c-.3973-.2391-.6995-.5664-.907-.9816-.2078-.4149-.3114-.8799-.3114-1.3943s.1084-.9794.3249-1.3943c.2166-.4153.5212-.7403.9139-.975.3925-.2343.8505-.3519,1.3741-.3519.5145,0,.9701.1176,1.3674.3519.397.2347.7017.5597.9138.975.2119.4149.3181.8799.3181,1.3943s-.1015.9794-.3045,1.3943Z"/><path class="cls-2" d="m240.0296,131.7999c-.2031.4153-.5033.7425-.9003.9816-.3972.2391-.862.3585-1.3944.3585s-.9974-.1194-1.3944-.3585c-.3973-.2391-.6995-.5664-.907-.9816-.2078-.4149-.3114-.8799-.3114-1.3943s.1084-.9794.3249-1.3943c.2166-.4153.5212-.7403.9139-.975.3925-.2343.8505-.3519,1.3741-.3519.5145,0,.9701.1176,1.3674.3519.397.2347.7017.5597.9138.975.2119.4149.3181.8799.3181,1.3943s-.1015.9794-.3045,1.3943Z"/><path class="cls-1" d="m246.751,126.5878h-.0541c-.8936,0-1.5637.2823-2.0104.846-.2273.287-.396.6407-.5077,1.0596v-1.689h-.9883v7.2155h1.2455v-4.3185c0-.5866.1781-1.0605.5348-1.4212.3565-.3611.828-.5417,1.4147-.5417.5504,0,.9884.1691,1.3132.5078.325.3382.4874.7967.4874,1.374v4.3996h1.2455v-4.1287c0-1.0741-.2234-1.8933-.6701-2.4574-.4468-.5637-1.117-.846-2.0105-.846Z"/><polygon class="cls-1" points="250.501 124.1374 250.501 125.1257 251.5163 125.1257 251.5163 134.0199 252.7618 134.0199 252.7618 125.1257 252.7618 124.1374 251.5163 124.1374 250.501 124.1374"/><path class="cls-1" d="m255.7266,125.6132c.2708,0,.4783-.0722.6227-.2167.1442-.1444.2166-.3387.2166-.5822,0-.2343-.0723-.4241-.2166-.5686-.1444-.144-.352-.2167-.6227-.2167s-.4762.0727-.616.2167c-.1399.1444-.2099.3387-.2099.5822,0,.2347.0699.4241.2099.5685.1398.1445.3453.2167.616.2167Z"/><polygon class="cls-1" points="254.278 126.8045 254.278 127.7927 255.3882 127.7927 255.3882 134.0199 256.6336 134.0199 256.6336 127.7927 256.6336 126.8045 255.3882 126.8045 254.278 126.8045"/><path class="cls-1" d="m262.3738,126.5878h-.0542c-.8935,0-1.5637.2823-2.0103.846-.2272.2869-.396.6406-.5077,1.0594v-1.6887h-.9883v7.2155h1.2455v-4.3185c0-.5866.1781-1.0605.5348-1.4212.3564-.3611.828-.5417,1.4147-.5417.5504,0,.9883.1691,1.3132.5078.3249.3382.4874.7967.4874,1.374v4.3996h1.2455v-4.1287c0-1.0741-.2234-1.8933-.6702-2.4574-.4467-.5637-1.1169-.846-2.0104-.846Z"/><path class="cls-1" d="m273.5695,130.0669c0-.6227-.1286-1.2001-.3858-1.7325-.2573-.5324-.6454-.9614-1.1643-1.2864-.519-.325-1.1486-.4871-1.8884-.4871-.7673,0-1.4148.1757-1.9427.5276-.5279.3523-.923.8125-1.1846,1.3811-.2618.5686-.3926,1.1776-.3926,1.8277v.2299c0,.6412.1286,1.2454.3858,1.8144.2573.5686.6566,1.031,1.1981,1.3872.5416.3567,1.2138.5351,2.0172.5351.8574,0,1.5726-.2123,2.1458-.6364.5731-.4241.9363-1.0063,1.0898-1.7466h-1.1777c-.0813.3611-.3047.6659-.6702.9138-.3654.2484-.8281.3726-1.3876.3726-.5415,0-.9906-.1198-1.347-.3589-.3566-.2391-.6227-.5637-.7988-.9746-.1506-.3516-.2362-.7513-.258-1.1983h5.7612v-.5686Zm-4.7315-2.0575c.3474-.2347.7784-.3519,1.2929-.3519.4783,0,.8887.1035,1.2319.3114.3428.2074.5977.5029.7649.8865.1102.2532.1833.5357.2207.846h-4.4911c.0426-.2603.1094-.5021.2022-.724.1713-.4109.4308-.7333.7784-.968Z"/></g></g></svg>