<?xml version="1.0" encoding="UTF-8"?><svg id="Vrstva_1" xmlns="http://www.w3.org/2000/svg" viewBox="0 0 330 200"><defs><style>.cls-1{fill:#b700ff;}</style></defs><path d="m95.9338,95.3358c1.5063.9916,3.3764,1.4877,5.6113,1.4877,2.385,0,4.3745-.5904,5.969-1.77,1.5942-1.1796,2.6046-2.799,3.0315-4.8574h-3.2762c-.226,1.0044-.8475,1.8515-1.8643,2.5417-1.0168.6909-2.3035,1.0357-3.86,1.0357-1.5063,0-2.7556-.3326-3.7473-.9977-.992-.6651-1.7323-1.5685-2.2217-2.7114-.4179-.9754-.6465-2.0917-.7076-3.3324h16.0162v-1.5814c0-1.732-.3577-3.3385-1.0735-4.8195-.7155-1.4809-1.7951-2.674-3.2386-3.5774-1.4441-.904-3.1951-1.3554-5.2535-1.3554-2.1341,0-3.9353.4894-5.4042,1.4681-1.4686.9793-2.5672,2.2594-3.2949,3.8407-.7286,1.5814-1.0922,3.2761-1.0922,5.0834v.64c0,1.7829.3577,3.4641,1.0732,5.0461.7155,1.5814,1.8266,2.8682,3.3329,3.8591Zm-.3767-13.2163c.4769-1.1422,1.1988-2.0395,2.1657-2.6924.966-.6523,2.1654-.9787,3.5963-.9787,1.3305,0,2.4726.2885,3.4269.866.954.5776,1.6631,1.3995,2.128,2.4664.3058.7028.5009,1.4925.6052,2.3531h-12.4802c.1185-.723.3005-1.3975.5582-2.0144Z"/><polygon points="130.0905 76.0757 126.5129 76.0757 121.8431 83.6819 121.316 83.6819 116.3825 76.0757 112.5412 76.0757 119.1223 86.0192 112.2025 96.1455 115.7801 96.1455 121.2783 87.9366 121.8054 87.9366 127.5297 96.1455 131.371 96.1455 123.9696 85.6158 130.0905 76.0757"/><path d="m137.1326,72.7623c.7534,0,1.3305-.2003,1.7323-.6027.4015-.4012.6027-.9414.6027-1.6187,0-.6523-.2012-1.1796-.6027-1.5814-.4018-.4012-.9789-.6027-1.7323-.6027s-1.3243.2015-1.7133.6027c-.3896.4018-.5838.9414-.5838,1.6187,0,.6535.1942,1.1802.5838,1.5814.389.4024.9602.6027,1.7133.6027Z"/><polygon points="136.1912 96.1455 139.656 96.1455 139.656 78.8244 139.656 76.0757 136.1912 76.0757 133.1033 76.0757 133.1033 78.8244 136.1912 78.8244 136.1912 96.1455"/><path d="m156.0378,92.8321c-.879.6278-2.1219.9414-3.7283.9414-1.6824,0-2.9317-.3203-3.7473-.9603-.8159-.64-1.2367-1.4246-1.2615-2.3531h-3.2762c.0499,1.958.7966,3.4959,2.2407,4.6125,1.4435,1.1165,3.4582,1.6757,6.0443,1.6757,1.6064,0,3.0441-.2701,4.312-.8097,1.2674-.5396,2.253-1.299,2.9562-2.2784.7026-.9787,1.0545-2.0707,1.0545-3.2754,0-1.7069-.6279-3.0501-1.883-4.0294-1.2557-.9787-3.0006-1.5814-5.2345-1.8074l-2.1844-.226c-1.1553-.1249-2.0024-.4195-2.5421-.8844-.5403-.4642-.8098-1.0859-.8098-1.8643,0-.9279.3828-1.6812,1.1488-2.2588.7654-.5776,1.8263-.866,3.1822-.866,1.3804,0,2.4413.2762,3.1822.828.7403.5524,1.1357,1.2678,1.1862,2.1461h3.2765c-.0508-1.9072-.7599-3.3759-2.128-4.4054-1.3684-1.0289-3.2073-1.5434-5.5169-1.5434-1.4818,0-2.7932.2444-3.9353.7343-1.1427.4894-2.0401,1.1925-2.6928,2.1081-.653.9169-.9792,2.0021-.9792,3.2571,0,1.6322.5709,2.9251,1.7136,3.8787,1.1421.9542,2.705,1.5434,4.6885,1.7694l2.222.226c1.4058.1507,2.4291.4649,3.0692.9414.6401.4771.9605,1.1429.9605,1.996,0,1.0038-.4398,1.8202-1.3182,2.4474Z"/><path d="m169.6324,69.9382h-3.3142v6.1375h-3.5023v2.5981h3.5023v10.7316c0,1.7075.2824,3.069.8475,4.0857.5648,1.0167,1.3804,1.7504,2.4478,2.2024,1.0668.452,2.3663.678,3.898.678h3.0879v-3.1254h-3.5399c-1.0796,0-1.9207-.2946-2.5231-.885-.6027-.5892-.9038-1.4368-.9038-2.5417v-11.1456h6.9668v-2.5981h-6.9668v-6.1375Z"/><path d="m193.8845,88.0499c0,1.6818-.4772,3.0188-1.4309,4.0098-.9547.9922-2.2098,1.4877-3.766,1.4877-1.4818,0-2.6551-.452-3.5212-1.3554-.8661-.904-1.2992-2.1589-1.2992-3.7654v-12.3883h-3.4646v11.6729c0,2.9123.6401,5.1459,1.9203,6.7022,1.2805,1.5569,3.1007,2.3347,5.4609,2.3347h.1507c2.3595,0,4.1424-.7846,5.3476-2.3537.6024-.7842,1.0542-1.7457,1.3556-2.8845v4.6356h2.7491v-20.1071h-3.5023v12.0116Z"/><path d="m205.088,103.1869c.9914-.4275,1.7136-1.1239,2.1657-2.0897.4518-.9671.6778-2.2784.6778-3.9351v-21.0865h-6.5151v2.7487h3.2009v18.8651c0,.9787-.2576,1.7253-.7718,2.2404-.5152.5139-1.2493.7717-2.2033.7717h-2.1464v3.1254h1.6193c1.6569,0,2.981-.2137,3.973-.64Z"/><path d="m205.4081,72.461c.7534,0,1.324-.207,1.7136-.621.389-.414.5838-.9475.5838-1.6004,0-.678-.1948-1.2108-.5838-1.6004-.3896-.3889-.9602-.5837-1.7136-.5837s-1.3243.2015-1.7133.6027c-.3896.4018-.5838.9414-.5838,1.6187,0,.6535.1942,1.1802.5838,1.582.389.4018.9602.6021,1.7133.6021Z"/><path d="m227.6078,76.7537c-1.4441-.904-3.1951-1.3554-5.2535-1.3554-2.1341,0-3.9353.4894-5.4039,1.4681-1.4689.9793-2.5672,2.2594-3.2952,3.8407-.7286,1.5814-1.0922,3.2761-1.0922,5.0834v.64c0,1.7829.3577,3.4641,1.0735,5.0461.7155,1.5814,1.8263,2.8682,3.3326,3.8591,1.5066.9916,3.3767,1.4877,5.6113,1.4877,2.385,0,4.3745-.5904,5.969-1.77,1.5942-1.1796,2.6046-2.799,3.0318-4.8574h-3.2765c-.226,1.0044-.8472,1.8515-1.864,2.5417-1.0168.6909-2.3038,1.0357-3.8603,1.0357-1.5063,0-2.7556-.3326-3.747-.9977-.9923-.6651-1.7323-1.5685-2.222-2.7114-.4179-.9754-.6462-2.0917-.7073-3.3324h16.0159v-1.5814c0-1.732-.3577-3.3385-1.0732-4.8195-.7155-1.4809-1.7954-2.674-3.2389-3.5774Zm-11.5734,7.3802c.1185-.723.3005-1.3975.5582-2.0144.4766-1.1422,1.1985-2.0395,2.1654-2.6924.966-.6523,2.1654-.9787,3.5963-.9787,1.3305,0,2.4729.2885,3.4272.866.9537.5776,1.6628,1.3995,2.1277,2.4664.3058.7028.501,1.4925.6055,2.3531h-12.4802Z"/><path d="m237.8699,92.3427c-.4018-.4269-.9038-.6406-1.5066-.6406-.6024,0-1.105.2137-1.5063.6406-.4018.4269-.6024.9542-.6024,1.5814,0,.6278.2006,1.1545.6024,1.5814.4012.4269.9038.64,1.5063.64.6027,0,1.1047-.2131,1.5066-.64.4012-.4269.6024-.9536.6024-1.5814,0-.6272-.2012-1.1545-.6024-1.5814Z"/><path d="m125.9107,112.0064c-1.6324-.991-3.5277-1.4871-5.6866-1.4871h-18.0013c-2.1595,0-4.0548.4961-5.6863,1.4871-1.6324.9922-2.8753,2.2845-3.7286,3.8787-.8536,1.5942-1.2802,3.2699-1.2802,5.0265v.64c0,1.7578.4141,3.4328,1.2429,5.0271.8282,1.5942,2.0582,2.8871,3.6906,3.8781,1.6315.9916,3.5522,1.4877,5.7616,1.4877h18.0013c2.2089,0,4.1295-.4961,5.762-1.4877,1.6315-.991,2.8618-2.2839,3.6906-3.8781.8285-1.5942,1.2426-3.2693,1.2426-5.0271v-.64c0-1.7565-.4273-3.4322-1.2802-5.0265-.8539-1.5942-2.0968-2.8865-3.7283-3.8787Zm.6965,13.0846c-.5648,1.1551-1.3997,2.0652-2.5041,2.7304-1.105.6651-2.3981.9977-3.879.9977-1.4818,0-2.7745-.3326-3.879-.9977-1.105-.6651-1.9461-1.5753-2.5231-2.7304-.5779-1.1539-.8661-2.4474-.8661-3.8781s.3011-2.7236.9038-3.8781c.6024-1.1545,1.4496-2.0585,2.5418-2.7114,1.0922-.6523,2.3663-.9787,3.8226-.9787,1.4309,0,2.6986.3264,3.8036.9787,1.1044.6529,1.9516,1.5569,2.5421,2.7114.5893,1.1545.8848,2.4474.8848,3.8781s-.2824,2.7242-.8475,3.8781Z"/><path class="cls-1" d="m126.6072,125.091c-.5648,1.1551-1.3997,2.0652-2.5041,2.7304-1.105.6651-2.3981.9977-3.879.9977-1.4818,0-2.7745-.3326-3.879-.9977-1.105-.6651-1.9461-1.5753-2.5231-2.7304-.5779-1.1539-.8661-2.4474-.8661-3.8781s.3011-2.7236.9038-3.8781c.6024-1.1545,1.4496-2.0585,2.5418-2.7114,1.0922-.6523,2.3663-.9787,3.8226-.9787,1.4309,0,2.6986.3264,3.8036.9787,1.1044.6529,1.9516,1.5569,2.5421,2.7114.5893,1.1545.8848,2.4474.8848,3.8781s-.2824,2.7242-.8475,3.8781Z"/><path d="m145.305,110.5947h-.1507c-2.4854,0-4.3497.7846-5.5923,2.3531-.6322.798-1.1017,1.7817-1.4122,2.9465v-4.6975h-2.7491v20.0698h3.4646v-12.0116c0-1.6316.4956-2.9496,1.4876-3.9534.9914-1.0038,2.3032-1.5067,3.9353-1.5067,1.5311,0,2.7491.471,3.6529,1.4123s1.3559,2.2159,1.3559,3.8218v12.2376h3.4646v-11.4843c0-2.987-.6214-5.2653-1.8643-6.8345-1.2426-1.5685-3.1069-2.3531-5.5923-2.3531Z"/><polygon points="155.7364 103.7792 155.7364 106.5279 158.5609 106.5279 158.5609 131.2665 162.0255 131.2665 162.0255 106.5279 162.0255 103.7792 158.5609 103.7792 155.7364 103.7792"/><path d="m172.0051,107.2806c.4012-.4012.6024-.9414.6024-1.6187,0-.6523-.2012-1.1796-.6024-1.5814-.4018-.4012-.9792-.6027-1.7323-.6027s-1.3246.2015-1.7136.6027c-.3896.4018-.5838.9414-.5838,1.6187,0,.6535.1942,1.1802.5838,1.5814.389.4024.9602.6027,1.7136.6027s1.3305-.2003,1.7323-.6027Z"/><polygon points="166.2432 111.1967 166.2432 113.9455 169.3313 113.9455 169.3313 131.2665 172.7959 131.2665 172.7959 113.9455 172.7959 111.1967 169.3313 111.1967 166.2432 111.1967"/><path d="m188.7636,110.5947h-.1507c-2.4854,0-4.3497.7846-5.5923,2.3531-.6323.7983-1.102,1.7824-1.4125,2.9479v-4.6989h-2.7491v20.0698h3.4649v-12.0116c0-1.6316.4952-2.9496,1.4876-3.9534.9914-1.0038,2.3029-1.5067,3.9353-1.5067,1.5311,0,2.7491.471,3.6529,1.4123s1.3556,2.2159,1.3556,3.8218v12.2376h3.4649v-11.4843c0-2.987-.6214-5.2653-1.8643-6.8345-1.2429-1.5685-3.1069-2.3531-5.5923-2.3531Z"/><path d="m215.5954,111.8747c-1.4441-.904-3.1951-1.3554-5.2535-1.3554-2.1341,0-3.9353.4894-5.4042,1.4681-1.4686.9793-2.5672,2.2594-3.2949,3.8407-.7286,1.5814-1.0922,3.2761-1.0922,5.0834v.64c0,1.7829.3577,3.4641,1.0732,5.0461.7155,1.5814,1.8266,2.8682,3.3329,3.8591,1.5063.9916,3.3764,1.4877,5.6113,1.4877,2.385,0,4.3745-.5904,5.969-1.77,1.5942-1.1796,2.6046-2.799,3.0315-4.8574h-3.2762c-.226,1.0044-.8475,1.8515-1.8643,2.5417-1.0168.6909-2.3035,1.0357-3.86,1.0357-1.5063,0-2.7556-.3326-3.7473-.9977-.992-.6651-1.7323-1.5685-2.2217-2.7114-.4179-.9754-.6465-2.0917-.7076-3.3324h16.0162v-1.5814c0-1.732-.3577-3.3385-1.0735-4.8195-.7155-1.4809-1.7951-2.674-3.2386-3.5774Zm-11.5737,7.3802c.1185-.723.3005-1.3975.5582-2.0144.4769-1.1422,1.1988-2.0395,2.1657-2.6924.966-.6523,2.1654-.9787,3.5963-.9787,1.3305,0,2.4726.2885,3.4269.866.954.5776,1.6631,1.3995,2.128,2.4664.3058.7028.5009,1.4925.6053,2.3531h-12.4803Z"/></svg>