<?xml version="1.0" encoding="UTF-8"?><svg id="Vrstva_1" xmlns="http://www.w3.org/2000/svg" viewBox="0 0 330 200"><defs><style>.cls-1{fill:#b700ff;}</style></defs><path class="cls-1" d="m63.2403,126.3017h-13.2403v-52.6035h13.2403v52.6035Zm-13.1211-.1193h13.0018v-52.3649h-13.0018v52.3649Z"/><path class="cls-1" d="m280,126.3017H50v-13.2403h230v13.2403Zm-229.8807-.1193h229.7614v-13.0018H50.1193v13.0018Z"/><path class="cls-1" d="m280,126.3017h-13.2403v-52.6035h13.2403v52.6035Zm-13.1211-.1193h13.0018v-52.3649h-13.0018v52.3649Z"/><path class="cls-1" d="m280,86.9386H50v-13.2403h230v13.2403Zm-229.8807-.1193h229.7614v-13.0018H50.1193v13.0018Z"/><g><path d="m74.2162,93.26c-1.0592-.6632-2.3436-.9938-3.8535-.9938-1.5654,0-2.8866.3585-3.9639,1.0765-1.0774.7189-1.8833,1.6579-2.417,2.818-.5345,1.1601-.8012,2.4029-.8012,3.7292v.4691c0,1.3084.2624,2.5412.7872,3.7022.525,1.1601,1.3398,2.1036,2.4447,2.8306,1.1051.7279,2.4767,1.0918,4.116,1.0918,1.7494,0,3.2085-.4332,4.3783-1.2985,1.1694-.8653,1.9103-2.0533,2.2237-3.5639h-2.4031c-.1658.7369-.6216,1.3587-1.3675,1.8646-.7456.5068-1.6897.7602-2.8313.7602-1.1048,0-2.0212-.2444-2.7484-.7324-.7279-.4879-1.2707-1.1502-1.6299-1.9886-.3074-.7174-.4821-1.533-.5264-2.4451h11.7554v-1.1601c0-1.2706-.2624-2.4487-.7872-3.5351-.525-1.0864-1.317-1.9617-2.3758-2.6249Zm-6.4915,1.9617c.7086-.4789,1.5884-.718,2.6379-.718.9759,0,1.8136.2112,2.5139.6353.6996.4232,1.2197,1.0262,1.5607,1.8089.2247.5167.3739,1.0931.4504,1.7262h-9.1637c.0869-.5311.2231-1.0245.4125-1.4773.3496-.8384.8791-1.4962,1.5883-1.9751Z"/><polygon points="91.4669 92.763 88.8427 92.763 85.4174 98.3425 85.0307 98.3425 81.4119 92.763 78.5943 92.763 83.4216 100.0572 78.3456 107.4859 80.9701 107.4859 85.0031 101.4643 85.3897 101.4643 89.5886 107.4859 92.4062 107.4859 86.9771 99.7617 91.4669 92.763"/><polygon points="93.6769 92.763 93.6769 94.7795 95.942 94.7795 95.942 107.4859 98.4834 107.4859 98.4834 94.7795 98.4834 92.763 95.942 92.763 93.6769 92.763"/><path d="m96.6327,90.3323c.5522,0,.9757-.1474,1.2707-.4421.2943-.2947.4419-.691.4419-1.1879,0-.4781-.1476-.8654-.4419-1.1601-.295-.2938-.7185-.4421-1.2707-.4421-.5526,0-.9716.1483-1.257.4421-.2857.2947-.4282.691-.4282,1.188,0,.4789.1424.8654.4282,1.1601.2854.2948.7044.4421,1.257.4421Z"/><path d="m112.4885,100.3042c-.9211-.718-2.2007-1.1601-3.8398-1.3263l-1.602-.1654c-.8472-.0917-1.4688-.3082-1.8646-.6488-.3961-.3406-.5938-.7971-.5938-1.3677,0-.6812.2804-1.2338.8425-1.657.5616-.4242,1.3398-.6353,2.3341-.6353,1.0125,0,1.7908.2022,2.3342.6075.543.4053.833.9301.87,1.5744h2.4034c-.0371-1.3991-.5574-2.4766-1.5607-3.2323-1.004-.7548-2.3528-1.1322-4.047-1.1322-1.0868,0-2.0488.1797-2.8866.5392-.8382.3586-1.4964.8743-1.9752,1.5465-.4792.6721-.7182,1.4683-.7182,2.3894,0,1.1969.4187,2.1459,1.2569,2.845.8377.7,1.9842,1.1322,3.439,1.2985l1.6299.1653c1.0312.1105,1.7818.3415,2.2513.691.4695.3496.7042.8384.7042,1.4638,0,.7369-.3224,1.3353-.9667,1.7954-.645.461-1.5565.691-2.7348.691-1.234,0-2.1504-.2354-2.7484-.7045-.5987-.47-.9074-1.0451-.9256-1.7262h-2.4031c.0366,1.436.5843,2.5646,1.6435,3.3833,1.0588.8195,2.5366,1.2293,4.4336,1.2293,1.1783,0,2.2327-.1977,3.163-.594.9297-.3954,1.6526-.9525,2.1684-1.6714.5154-.718.7736-1.5187.7736-2.4029,0-1.2518-.4606-2.2375-1.3812-2.9555Z"/><path d="m120.4714,88.2601h-2.4308v4.5029h-2.5692v1.9059h2.5692v7.8728c0,1.2527.2071,2.251.6215,2.9968.4143.7459,1.0125,1.2841,1.7954,1.6157.7827.3316,1.7357.4978,2.859.4978h2.2652v-2.2932h-2.5966c-.7919,0-1.4088-.2157-1.8507-.6488-.4419-.4322-.663-1.054-.663-1.8646v-8.1765h5.1103v-1.9059h-5.1103v-4.5029Z"/><path d="m138.2606,101.547c0,1.2338-.35,2.2151-1.0496,2.942-.7001.7279-1.6207,1.0909-2.7624,1.0909-1.0869,0-1.9475-.3316-2.5829-.9938-.6353-.6632-.9529-1.5843-.9529-2.7623v-9.0885h-2.5414v8.5638c0,2.136.4696,3.7751,1.4088,4.9163.939,1.1421,2.2742,1.7127,4.0054,1.7127h.1103c1.731,0,3.0387-.5751,3.9227-1.7262.4419-.5755.7734-1.2807.9943-2.116v3.4001h2.0165v-14.7507h-2.569v8.8118Z"/><path d="m146.7136,90.1113c.5524,0,.9709-.1519,1.2568-.4556.2853-.3037.4282-.6955.4282-1.1745,0-.4969-.1429-.8878-.4282-1.1736-.2858-.2858-.7044-.4287-1.2568-.4287s-.9716.1483-1.2569.4421c-.2858.2947-.4282.691-.4282,1.1879,0,.479.1424.8654.4282,1.1601.2853.2947.7043.4421,1.2569.4421Z"/><path d="m143.7854,92.763v2.0165h2.3478v13.8395c0,.718-.1889,1.2653-.5661,1.6436-.3776.3765-.9164.5661-1.6159.5661h-1.5747v2.2923h1.1877c1.2154,0,2.1866-.1563,2.9142-.469.7274-.3136,1.2569-.8249,1.5884-1.533.3315-.7099.4974-1.6714.4974-2.8872v-15.4687h-4.7789Z"/><path d="m162.9971,93.26c-1.059-.6632-2.3436-.9938-3.8533-.9938-1.5657,0-2.8869.3585-3.9641,1.0765-1.0772.7189-1.8833,1.6579-2.417,2.818-.5343,1.1601-.8012,2.4029-.8012,3.7292v.4691c0,1.3084.2624,2.5412.7872,3.7022.525,1.1601,1.3398,2.1036,2.4447,2.8306,1.1051.7279,2.4767,1.0918,4.116,1.0918,1.7494,0,3.2088-.4332,4.3783-1.2985,1.1694-.8653,1.9105-2.0533,2.2237-3.5639h-2.4031c-.1658.7369-.6216,1.3587-1.3675,1.8646-.7456.5068-1.6897.7602-2.8313.7602-1.1048,0-2.0212-.2444-2.7484-.7324-.7277-.4879-1.2707-1.1502-1.6299-1.9886-.3072-.7174-.482-1.533-.5264-2.4451h11.7554v-1.1601c0-1.2706-.2624-2.4487-.7872-3.5351-.525-1.0864-1.317-1.9617-2.3758-2.6249Zm-6.4915,1.9617c.7088-.4789,1.5884-.718,2.6382-.718.9759,0,1.8134.2112,2.5136.6353.6996.4232,1.2197,1.0262,1.5607,1.8089.2249.5167.374,1.0931.4505,1.7262h-9.1638c.0869-.5311.2231-1.0245.4125-1.4773.3496-.8384.8791-1.4962,1.5883-1.9751Z"/><path d="m169.4197,104.2266c-.4422,0-.8106.1564-1.1051.47-.2948.3127-.4419.7-.4419,1.1601s.1471.8465.4419,1.1601c.2945.3127.6629.4691,1.1051.4691.4419,0,.8101-.1564,1.1048-.4691.2943-.3136.4419-.7.4419-1.1601s-.1476-.8474-.4419-1.1601c-.2948-.3136-.663-.47-1.1048-.47Z"/><path d="m197.8715,93.357c-1.1974-.727-2.5876-1.0909-4.1712-1.0909h-13.2042c-1.5838,0-2.9742.3639-4.171,1.0909-1.1974.7279-2.1091,1.6759-2.7347,2.845-.6264,1.17-.9393,2.3993-.9393,3.6879v.4691c0,1.2895.3039,2.5188.9117,3.6879.6077,1.17,1.5097,2.118,2.7071,2.845,1.1967.7279,2.6055,1.0918,4.2262,1.0918h13.2042c1.6204,0,3.0291-.364,4.2264-1.0918,1.197-.727,2.0994-1.675,2.7071-2.845.6077-1.1691.9117-2.3984.9117-3.6879v-.4691c0-1.2886-.3134-2.5179-.9393-3.6879-.6263-1.1691-1.5378-2.1171-2.7347-2.845Zm.5111,9.599c-.4145.8474-1.0269,1.515-1.837,2.003-.8106.4879-1.7588.7315-2.8453.7315s-2.0351-.2436-2.8453-.7315c-.8106-.4879-1.4272-1.1556-1.8507-2.003-.4239-.8465-.6354-1.7954-.6354-2.845s.2211-1.9985.663-2.845c.4419-.8474,1.0635-1.5105,1.8647-1.9895.8009-.4781,1.7355-.718,2.8037-.718,1.0498,0,1.9795.2399,2.79.718.8101.479,1.4318,1.1421,1.8647,1.9895.4325.8465.649,1.7954.649,2.845s-.2071,1.9985-.6214,2.845Z"/><path class="cls-1" d="m198.3826,102.956c-.4145.8474-1.0269,1.515-1.837,2.003-.8106.4879-1.7588.7315-2.8453.7315s-2.0351-.2436-2.8453-.7315c-.8106-.4879-1.4272-1.1556-1.8507-2.003-.4239-.8465-.6354-1.7954-.6354-2.845s.2211-1.9985.663-2.845c.4419-.8474,1.0635-1.5105,1.8647-1.9895.8009-.4781,1.7355-.718,2.8037-.718,1.0498,0,1.9795.2399,2.79.718.8101.479,1.4318,1.1421,1.8647,1.9895.4325.8465.649,1.7954.649,2.845s-.2071,1.9985-.6214,2.845Z"/><path d="m212.0974,92.3209h-.1103c-1.8233,0-3.1906.576-4.1022,1.7262-.4637.5856-.8081,1.3073-1.0359,2.1621v-3.4462h-2.0165v14.7228h2.5413v-8.8118c0-1.1969.3635-2.1639,1.0912-2.8998.7274-.7368,1.6894-1.1053,2.8866-1.1053,1.1231,0,2.0168.3451,2.6795,1.0361.6632.6901.9946,1.6256.9946,2.8037v8.9771h2.5413v-8.4245c0-2.1917-.4558-3.8631-1.3673-5.0143-.9117-1.1502-2.2791-1.7262-4.1023-1.7262Z"/><polygon points="219.749 87.3211 219.749 89.3375 221.8208 89.3375 221.8208 107.4859 224.3621 107.4859 224.3621 89.3375 224.3621 87.3211 221.8208 87.3211 219.749 87.3211"/><path d="m230.4117,90.3323c.5525,0,.9759-.1474,1.2707-.4421.2943-.2947.4419-.691.4419-1.1879,0-.4781-.1476-.8654-.4419-1.1601-.2947-.2938-.7182-.4421-1.2707-.4421s-.9716.1483-1.2569.4421c-.2855.2947-.4282.691-.4282,1.188,0,.4789.1426.8654.4282,1.1601.2853.2948.7045.4421,1.2569.4421Z"/><polygon points="227.4559 92.763 227.4559 94.7795 229.7211 94.7795 229.7211 107.4859 232.2624 107.4859 232.2624 94.7795 232.2624 92.763 229.7211 92.763 227.4559 92.763"/><path d="m243.9749,92.3209h-.1105c-1.8231,0-3.1906.576-4.102,1.7262-.4637.5855-.8081,1.3071-1.0359,2.1617v-3.4458h-2.0165v14.7228h2.5413v-8.8118c0-1.1969.3635-2.1639,1.0911-2.8998.7272-.7368,1.6894-1.1053,2.8866-1.1053,1.123,0,2.0165.3451,2.6795,1.0361.6629.6901.9946,1.6256.9946,2.8037v8.9771h2.5413v-8.4245c0-2.1917-.4558-3.8631-1.3675-5.0143-.9115-1.1502-2.2789-1.7262-4.102-1.7262Z"/><path d="m266.8193,99.42c0-1.2706-.2624-2.4487-.7872-3.5351-.525-1.0864-1.3169-1.9617-2.3758-2.6249-1.059-.6632-2.3436-.9938-3.8533-.9938-1.5656,0-2.8869.3585-3.9641,1.0765-1.0772.7189-1.8833,1.6579-2.4171,2.818-.5343,1.1601-.8012,2.4029-.8012,3.7292v.4691c0,1.3084.2624,2.5412.7872,3.7022.525,1.1601,1.3398,2.1036,2.4447,2.8306,1.1051.7279,2.4766,1.0918,4.1159,1.0918,1.7494,0,3.2088-.4332,4.3783-1.2985,1.1693-.8653,1.9105-2.0533,2.2236-3.5639h-2.4031c-.1658.7369-.6216,1.3587-1.3675,1.8646-.7456.5068-1.6896.7602-2.8313.7602-1.1048,0-2.0212-.2444-2.7484-.7324-.7277-.4879-1.2707-1.1502-1.6299-1.9886-.3072-.7174-.482-1.533-.5264-2.4451h11.7554v-1.1601Zm-9.6544-4.1983c.7088-.4789,1.5884-.718,2.6382-.718.9759,0,1.8134.2112,2.5137.6353.6996.4232,1.2197,1.0262,1.5607,1.8089.2248.5167.3739,1.0931.4504,1.7262h-9.1638c.0869-.5311.2231-1.0245.4125-1.4773.3496-.8384.8791-1.4962,1.5883-1.9751Z"/></g></svg>