<?xml version="1.0" encoding="UTF-8"?><svg id="Vrstva_1" xmlns="http://www.w3.org/2000/svg" viewBox="0 0 330 200"><defs><style>.cls-1{fill:#fff;}.cls-2{fill:#b700ff;}.cls-3{opacity:.2;}.cls-4{opacity:.5;}</style></defs><g><g><rect class="cls-1" x="64.5958" y="38.5704" width="44.9102" height="74.1018" transform="translate(162.6722 -11.4296) rotate(90)"/><g><path d="m62.7761,73.9819c.5294.3485,1.1867.5229,1.9722.5229.8382,0,1.5375-.2075,2.0979-.6221.5603-.4146.9154-.9837,1.0655-1.7072h-1.1515c-.0794.353-.2979.6507-.6552.8933-.3574.2428-.8096.364-1.3567.364-.5294,0-.9685-.1169-1.3171-.3507-.3487-.2338-.6088-.5513-.7809-.953-.1469-.3428-.2272-.7352-.2487-1.1712h5.6292v-.5558c0-.6088-.1257-1.1734-.3773-1.6939-.2515-.5205-.6309-.9398-1.1383-1.2573-.5076-.3177-1.123-.4764-1.8465-.4764-.7501,0-1.3832.172-1.8994.516-.5162.3442-.9023.7941-1.1581,1.3499-.2561.5558-.3839,1.1514-.3839,1.7867v.2249c0,.6266.1257,1.2175.3772,1.7735.2515.5558.642,1.0081,1.1714,1.3564Zm-.1324-4.6451c.1676-.4015.4213-.7168.7612-.9463.3395-.2293.7611-.344,1.264-.344.4676,0,.869.1014,1.2045.3044.3353.203.5845.4919.7479.8669.1075.247.1761.5246.2127.827h-4.3864c.0417-.2541.1056-.4912.1962-.708Z"/><polygon points="74.7812 67.2126 73.5238 67.2126 71.8825 69.8859 71.6973 69.8859 69.9633 67.2126 68.6132 67.2126 70.9262 70.7074 68.4941 74.2665 69.7515 74.2665 71.684 71.3813 71.8693 71.3813 73.8812 74.2665 75.2313 74.2665 72.6299 70.5656 74.7812 67.2126"/><path d="m77.2563,66.048c.2648,0,.4676-.0704.6088-.2118.1411-.141.2118-.3309.2118-.5689,0-.2293-.0707-.4146-.2118-.5558-.1412-.141-.344-.2118-.6088-.2118s-.4655.0708-.6022.2118c-.1369.1412-.2052.3309-.2052.5689,0,.2297.0682.4148.2052.5558.1367.1414.3375.2118.6022.2118Z"/><polygon points="76.9254 74.2665 78.1432 74.2665 78.1432 68.1787 78.1432 67.2126 76.9254 67.2126 75.8401 67.2126 75.8401 68.1787 76.9254 68.1787 76.9254 74.2665"/><path d="m83.9009,73.1019c-.3089.2206-.7458.3309-1.3104.3309-.5913,0-1.0304-.1126-1.3171-.3375-.2868-.2249-.4347-.5007-.4434-.827h-1.1515c.0175.6882.28,1.2287.7875,1.6211.5073.3924,1.2154.589,2.1244.589.5646,0,1.0699-.0949,1.5156-.2846.4454-.1896.7918-.4566,1.039-.8008.2469-.344.3706-.7278.3706-1.1512,0-.5999-.2207-1.072-.6618-1.4162-.4414-.344-1.0546-.5558-1.8398-.6352l-.7677-.0794c-.406-.0439-.7038-.1475-.8935-.3108-.1899-.1632-.2846-.3817-.2846-.6553,0-.3261.1346-.5909.4038-.7939.269-.203.6419-.3044,1.1184-.3044.4852,0,.8581.0971,1.1184.291.2602.1942.3992.4456.4169.7543h1.1516c-.0179-.6703-.2671-1.1865-.7479-1.5484-.481-.3616-1.1273-.5425-1.939-.5425-.5208,0-.9817.0859-1.3832.2581-.4016.172-.717.4191-.9464.7409-.2295.3222-.3441.7037-.3441,1.1448,0,.5737.2007,1.0281.6023,1.3633.4014.3354.9507.5425,1.6479.6219l.781.0794c.4941.053.8537.1634,1.0787.3309.225.1677.3376.4017.3376.7015,0,.3528-.1546.6398-.4633.8602Z"/><path d="m88.6791,65.0554h-1.1648v2.1571h-1.2309v.9131h1.2309v3.7718c0,.6002.0993,1.0787.2979,1.436.1985.3573.4852.6152.8603.7741.3749.1589.8317.2383,1.37.2383h1.0853v-1.0985h-1.2442c-.3795,0-.6751-.1035-.8868-.3111-.2118-.2071-.3177-.505-.3177-.8933v-3.9173h2.4486v-.9131h-2.4486v-2.1571Z"/><path d="m97.2029,71.4212c0,.5911-.1677,1.061-.5029,1.4093-.3355.3487-.7767.5229-1.3236.5229-.5208,0-.9332-.1589-1.2376-.4764-.3044-.3177-.4566-.7588-.4566-1.3234v-4.3541h-1.2177v4.1027c0,1.0236.225,1.8086.6749,2.3556.4501.5472,1.0898.8206,1.9193.8206h.053c.8293,0,1.4559-.2758,1.8795-.8273.2117-.2756.3705-.6136.4764-1.0138v1.6293h.9662v-7.0671h-1.2309v4.2217Z"/><path d="m101.1407,76.7414c.3485-.1503.6023-.395.7612-.7345.1588-.3399.2382-.8008.2382-1.3831v-7.4113h-2.2899v.9661h1.125v6.6305c0,.344-.0905.6064-.2713.7874-.1811.1806-.4391.2712-.7744.2712h-.7544v1.0985h.5691c.5824,0,1.0477-.0751,1.3964-.2249Z"/><path d="m101.2532,65.9421c.2648,0,.4654-.0728.6023-.2183.1367-.1455.2052-.333.2052-.5625,0-.2383-.0685-.4256-.2052-.5625-.1369-.1367-.3375-.2051-.6023-.2051s-.4655.0708-.6022.2118c-.1369.1412-.2052.3309-.2052.5689,0,.2297.0682.4148.2052.556.1367.1412.3375.2116.6022.2116Z"/><path d="m109.0557,67.4509c-.5076-.3177-1.123-.4764-1.8465-.4764-.7501,0-1.3832.172-1.8993.516-.5163.3442-.9023.7941-1.1582,1.3499-.2561.5558-.3839,1.1514-.3839,1.7867v.2249c0,.6266.1257,1.2175.3773,1.7735.2515.5558.6419,1.0081,1.1713,1.3564.5295.3485,1.1868.5229,1.9722.5229.8382,0,1.5375-.2075,2.0979-.6221.5603-.4146.9154-.9837,1.0656-1.7072h-1.1516c-.0794.353-.2978.6507-.6551.8933-.3574.2428-.8097.364-1.3568.364-.5294,0-.9685-.1169-1.3169-.3507-.3488-.2338-.6088-.5513-.781-.953-.1469-.3428-.2271-.7352-.2486-1.1712h5.6291v-.5558c0-.6088-.1257-1.1734-.3772-1.6939s-.631-.9398-1.1384-1.2573Zm-4.0677,2.5939c.0417-.2541.1056-.4912.1962-.708.1675-.4015.4212-.7168.7611-.9463.3395-.2293.7611-.344,1.264-.344.4676,0,.8691.1014,1.2046.3044.3352.203.5844.4919.7478.8669.1075.247.1761.5246.2128.827h-4.3864Z"/><path d="m112.6625,72.9299c-.1412-.15-.3177-.2252-.5295-.2252-.2117,0-.3884.0751-.5294.2252-.1412.15-.2117.3354-.2117.5558,0,.2206.0705.4058.2117.5558.141.15.3177.2249.5294.2249.2118,0,.3883-.0749.5295-.2249.141-.15.2117-.3352.2117-.5558,0-.2204-.0707-.4058-.2117-.5558Z"/><path d="m73.3122,79.8412c-.5738-.3483-1.2399-.5227-1.9987-.5227h-6.3269c-.759,0-1.4251.1744-1.9986.5227-.5738.3487-1.0106.8029-1.3105,1.3633-.3.5603-.45,1.1493-.45,1.7667v.2249c0,.6178.1455,1.2065.4368,1.7669.2911.5603.7234,1.0147,1.2971,1.363.5734.3485,1.2485.5229,2.025.5229h6.3269c.7763,0,1.4514-.1744,2.0252-.5229.5734-.3483,1.0059-.8027,1.2971-1.363.2912-.5603.4367-1.1491.4367-1.7669v-.2249c0-.6174-.1502-1.2063-.45-1.7667-.3001-.5603-.7369-1.0145-1.3104-1.3633Zm.2448,4.5989c-.1985.406-.4919.7259-.8801.9596-.3884.2338-.8429.3507-1.3633.3507-.5208,0-.9752-.1169-1.3633-.3507-.3884-.2338-.684-.5537-.8868-.9596-.2031-.4056-.3044-.8602-.3044-1.363s.1058-.9573.3177-1.363c.2117-.4058.5095-.7235.8934-.953.3839-.2293.8317-.344,1.3435-.344.5029,0,.9485.1147,1.3369.344.3882.2295.6859.5472.8935.953.2071.4058.311.8602.311,1.363s-.0993.9575-.2979,1.363Z"/><path class="cls-1" d="m73.557,84.44c-.1985.406-.4919.7259-.8801.9596-.3884.2338-.8429.3507-1.3633.3507-.5208,0-.9752-.1169-1.3633-.3507-.3884-.2338-.684-.5537-.8868-.9596-.2031-.4056-.3044-.8602-.3044-1.363s.1058-.9573.3177-1.363c.2117-.4058.5095-.7235.8934-.953.3839-.2293.8317-.344,1.3435-.344.5029,0,.9485.1147,1.3369.344.3882.2295.6859.5472.8935.953.2071.4058.311.8602.311,1.363s-.0993.9575-.2979,1.363Z"/><path d="m80.1287,79.345h-.053c-.8736,0-1.5288.2758-1.9655.827-.2222.2805-.3872.6262-.4964,1.0356v-1.651h-.9662v7.0539h1.2177v-4.2217c0-.5735.1742-1.0367.5228-1.3895.3485-.3528.8095-.5295,1.3832-.5295.5381,0,.9662.1655,1.2839.4964s.4766.7788.4766,1.3432v4.3012h1.2177v-4.0364c0-1.0498-.2184-1.8506-.6552-2.4021-.4367-.5513-1.092-.827-1.9655-.827Z"/><polygon points="83.795 76.9495 83.795 77.9156 84.7877 77.9156 84.7877 86.6105 86.0054 86.6105 86.0054 77.9156 86.0054 76.9495 84.7877 76.9495 83.795 76.9495"/><path d="m89.513,78.1802c.141-.141.2117-.3309.2117-.5689,0-.2293-.0707-.4146-.2117-.5558-.1412-.141-.3441-.2118-.6088-.2118s-.4656.0708-.6023.2118c-.1369.1412-.2052.3309-.2052.5689,0,.2297.0682.4148.2052.5558.1367.1414.3375.2118.6023.2118s.4676-.0704.6088-.2118Z"/><polygon points="87.4878 79.5566 87.4878 80.5227 88.5732 80.5227 88.5732 86.6105 89.7909 86.6105 89.7909 80.5227 89.7909 79.5566 88.5732 79.5566 87.4878 79.5566"/><path d="m95.4031,79.345h-.053c-.8736,0-1.5288.2758-1.9655.827-.2222.2806-.3873.6265-.4965,1.0361v-1.6515h-.9662v7.0539h1.2178v-4.2217c0-.5735.1741-1.0367.5228-1.3895.3485-.3528.8094-.5295,1.3832-.5295.5381,0,.9662.1655,1.2839.4964s.4764.7788.4764,1.3432v4.3012h1.2178v-4.0364c0-1.0498-.2184-1.8506-.6552-2.4021-.4368-.5513-1.092-.827-1.9655-.827Z"/><path d="m104.8337,79.7949c-.5076-.3177-1.123-.4764-1.8465-.4764-.7501,0-1.3832.172-1.8994.516-.5162.3442-.9023.7941-1.1581,1.3499-.2561.5558-.3839,1.1514-.3839,1.7867v.2249c0,.6266.1257,1.2175.3772,1.7735.2515.5558.642,1.0081,1.1714,1.3564.5294.3485,1.1867.5229,1.9722.5229.8382,0,1.5375-.2075,2.0979-.6221.5603-.4146.9154-.9837,1.0655-1.7072h-1.1515c-.0794.353-.2979.6507-.6552.8933-.3574.2428-.8096.364-1.3567.364-.5294,0-.9685-.1169-1.3171-.3507-.3487-.2338-.6088-.5513-.7809-.953-.1469-.3428-.2272-.7352-.2487-1.1712h5.6292v-.5558c0-.6088-.1257-1.1734-.3773-1.6939-.2515-.5205-.6309-.9398-1.1383-1.2573Zm-4.0678,2.5939c.0417-.2541.1056-.4912.1962-.708.1676-.4015.4213-.7168.7612-.9463.3395-.2293.7611-.344,1.264-.344.4676,0,.869.1014,1.2045.3044.3353.203.5845.4919.7479.8669.1075.247.1761.5246.2127.827h-4.3865Z"/></g></g><g><rect class="cls-1" x="142.5449" y="38.5704" width="44.9102" height="74.1018" transform="translate(240.6213 -89.3787) rotate(90)"/><g><path d="m140.7253,73.9819c.5294.3485,1.1867.5229,1.9722.5229.8382,0,1.5375-.2075,2.0979-.6221.5603-.4146.9154-.9837,1.0655-1.7072h-1.1515c-.0794.353-.2979.6507-.6552.8933-.3574.2428-.8096.364-1.3567.364-.5294,0-.9685-.1169-1.3171-.3507-.3487-.2338-.6088-.5513-.7809-.953-.1469-.3428-.2272-.7352-.2487-1.1712h5.6292v-.5558c0-.6088-.1257-1.1734-.3773-1.6939-.2515-.5205-.6309-.9398-1.1383-1.2573-.5076-.3177-1.123-.4764-1.8465-.4764-.7501,0-1.3832.172-1.8994.516-.5162.3442-.9023.7941-1.1581,1.3499-.2561.5558-.3839,1.1514-.3839,1.7867v.2249c0,.6266.1257,1.2175.3772,1.7735.2515.5558.642,1.0081,1.1714,1.3564Zm-.1324-4.6451c.1676-.4015.4213-.7168.7612-.9463.3395-.2293.7611-.344,1.264-.344.4676,0,.869.1014,1.2045.3044.3353.203.5845.4919.7479.8669.1075.247.1761.5246.2127.827h-4.3864c.0417-.2541.1056-.4912.1962-.708Z"/><polygon points="152.7303 67.2126 151.4729 67.2126 149.8316 69.8859 149.6464 69.8859 147.9124 67.2126 146.5623 67.2126 148.8753 70.7074 146.4432 74.2665 147.7006 74.2665 149.6331 71.3813 149.8184 71.3813 151.8303 74.2665 153.1804 74.2665 150.579 70.5656 152.7303 67.2126"/><path d="m155.2054,66.048c.2648,0,.4676-.0704.6088-.2118.1411-.141.2118-.3309.2118-.5689,0-.2293-.0707-.4146-.2118-.5558-.1412-.141-.344-.2118-.6088-.2118s-.4655.0708-.6022.2118c-.1369.1412-.2052.3309-.2052.5689,0,.2297.0682.4148.2052.5558.1367.1414.3375.2118.6022.2118Z"/><polygon points="154.8745 74.2665 156.0923 74.2665 156.0923 68.1787 156.0923 67.2126 154.8745 67.2126 153.7892 67.2126 153.7892 68.1787 154.8745 68.1787 154.8745 74.2665"/><path d="m161.85,73.1019c-.3089.2206-.7458.3309-1.3104.3309-.5913,0-1.0304-.1126-1.3171-.3375-.2868-.2249-.4347-.5007-.4434-.827h-1.1515c.0175.6882.28,1.2287.7875,1.6211.5073.3924,1.2154.589,2.1244.589.5646,0,1.0699-.0949,1.5156-.2846.4454-.1896.7918-.4566,1.039-.8008.2469-.344.3706-.7278.3706-1.1512,0-.5999-.2207-1.072-.6618-1.4162-.4414-.344-1.0546-.5558-1.8398-.6352l-.7677-.0794c-.406-.0439-.7038-.1475-.8935-.3108-.1899-.1632-.2846-.3817-.2846-.6553,0-.3261.1346-.5909.4038-.7939.269-.203.6419-.3044,1.1184-.3044.4852,0,.8581.0971,1.1184.291.2602.1942.3992.4456.4169.7543h1.1516c-.0179-.6703-.2671-1.1865-.7479-1.5484-.481-.3616-1.1273-.5425-1.939-.5425-.5208,0-.9817.0859-1.3832.2581-.4016.172-.717.4191-.9464.7409-.2295.3222-.3441.7037-.3441,1.1448,0,.5737.2007,1.0281.6023,1.3633.4014.3354.9507.5425,1.6479.6219l.781.0794c.4941.053.8537.1634,1.0787.3309.225.1677.3376.4017.3376.7015,0,.3528-.1546.6398-.4633.8602Z"/><path d="m166.6282,65.0554h-1.1648v2.1571h-1.2309v.9131h1.2309v3.7718c0,.6002.0993,1.0787.2979,1.436.1985.3573.4852.6152.8603.7741.3749.1589.8317.2383,1.37.2383h1.0853v-1.0985h-1.2442c-.3795,0-.6751-.1035-.8868-.3111-.2118-.2071-.3177-.505-.3177-.8933v-3.9173h2.4486v-.9131h-2.4486v-2.1571Z"/><path d="m175.152,71.4212c0,.5911-.1677,1.061-.5029,1.4093-.3355.3487-.7767.5229-1.3236.5229-.5208,0-.9332-.1589-1.2376-.4764-.3044-.3177-.4566-.7588-.4566-1.3234v-4.3541h-1.2177v4.1027c0,1.0236.225,1.8086.6749,2.3556.4501.5472,1.0898.8206,1.9193.8206h.053c.8293,0,1.4559-.2758,1.8795-.8273.2117-.2756.3705-.6136.4764-1.0138v1.6293h.9662v-7.0671h-1.2309v4.2217Z"/><path d="m179.0898,76.7414c.3485-.1503.6023-.395.7612-.7345.1588-.3399.2382-.8008.2382-1.3831v-7.4113h-2.2899v.9661h1.125v6.6305c0,.344-.0905.6064-.2713.7874-.1811.1806-.4391.2712-.7744.2712h-.7544v1.0985h.5691c.5824,0,1.0477-.0751,1.3964-.2249Z"/><path d="m179.2023,65.9421c.2648,0,.4654-.0728.6023-.2183.1367-.1455.2052-.333.2052-.5625,0-.2383-.0685-.4256-.2052-.5625-.1369-.1367-.3375-.2051-.6023-.2051s-.4655.0708-.6022.2118c-.1369.1412-.2052.3309-.2052.5689,0,.2297.0682.4148.2052.556.1367.1412.3375.2116.6022.2116Z"/><path d="m187.0048,67.4509c-.5076-.3177-1.123-.4764-1.8465-.4764-.7501,0-1.3832.172-1.8993.516-.5163.3442-.9023.7941-1.1582,1.3499-.2561.5558-.3839,1.1514-.3839,1.7867v.2249c0,.6266.1257,1.2175.3773,1.7735.2515.5558.6419,1.0081,1.1713,1.3564.5295.3485,1.1868.5229,1.9722.5229.8382,0,1.5375-.2075,2.0979-.6221.5603-.4146.9154-.9837,1.0656-1.7072h-1.1516c-.0794.353-.2978.6507-.6551.8933-.3574.2428-.8097.364-1.3568.364-.5294,0-.9685-.1169-1.3169-.3507-.3488-.2338-.6088-.5513-.781-.953-.1469-.3428-.2271-.7352-.2486-1.1712h5.6291v-.5558c0-.6088-.1257-1.1734-.3772-1.6939s-.631-.9398-1.1384-1.2573Zm-4.0677,2.5939c.0417-.2541.1056-.4912.1962-.708.1675-.4015.4212-.7168.7611-.9463.3395-.2293.7611-.344,1.264-.344.4676,0,.8691.1014,1.2046.3044.3352.203.5844.4919.7478.8669.1075.247.1761.5246.2128.827h-4.3864Z"/><path d="m190.6116,72.9299c-.1412-.15-.3177-.2252-.5295-.2252-.2117,0-.3884.0751-.5294.2252-.1412.15-.2117.3354-.2117.5558,0,.2206.0705.4058.2117.5558.141.15.3177.2249.5294.2249.2118,0,.3883-.0749.5295-.2249.141-.15.2117-.3352.2117-.5558,0-.2204-.0707-.4058-.2117-.5558Z"/><path d="m151.2613,79.8412c-.5738-.3483-1.2399-.5227-1.9987-.5227h-6.3269c-.759,0-1.4251.1744-1.9986.5227-.5738.3487-1.0106.8029-1.3105,1.3633-.3.5603-.45,1.1493-.45,1.7667v.2249c0,.6178.1455,1.2065.4368,1.7669.2911.5603.7234,1.0147,1.2971,1.363.5734.3485,1.2485.5229,2.025.5229h6.3269c.7763,0,1.4514-.1744,2.0252-.5229.5734-.3483,1.0059-.8027,1.2971-1.363.2912-.5603.4367-1.1491.4367-1.7669v-.2249c0-.6174-.1502-1.2063-.45-1.7667-.3001-.5603-.7369-1.0145-1.3104-1.3633Zm.2448,4.5989c-.1985.406-.4919.7259-.8801.9596-.3884.2338-.8429.3507-1.3633.3507-.5208,0-.9752-.1169-1.3633-.3507-.3884-.2338-.684-.5537-.8868-.9596-.2031-.4056-.3044-.8602-.3044-1.363s.1058-.9573.3177-1.363c.2117-.4058.5095-.7235.8934-.953.3839-.2293.8317-.344,1.3435-.344.5029,0,.9485.1147,1.3369.344.3882.2295.6859.5472.8935.953.2071.4058.311.8602.311,1.363s-.0993.9575-.2979,1.363Z"/><path class="cls-2" d="m151.5061,84.44c-.1985.406-.4919.7259-.8801.9596-.3884.2338-.8429.3507-1.3633.3507-.5208,0-.9752-.1169-1.3633-.3507-.3884-.2338-.684-.5537-.8868-.9596-.2031-.4056-.3044-.8602-.3044-1.363s.1058-.9573.3177-1.363c.2117-.4058.5095-.7235.8934-.953.3839-.2293.8317-.344,1.3435-.344.5029,0,.9485.1147,1.3369.344.3882.2295.6859.5472.8935.953.2071.4058.311.8602.311,1.363s-.0993.9575-.2979,1.363Z"/><path d="m158.0778,79.345h-.053c-.8736,0-1.5288.2758-1.9655.827-.2222.2805-.3872.6262-.4964,1.0356v-1.651h-.9662v7.0539h1.2177v-4.2217c0-.5735.1742-1.0367.5228-1.3895.3485-.3528.8095-.5295,1.3832-.5295.5381,0,.9662.1655,1.2839.4964s.4766.7788.4766,1.3432v4.3012h1.2177v-4.0364c0-1.0498-.2184-1.8506-.6552-2.4021-.4367-.5513-1.092-.827-1.9655-.827Z"/><polygon points="161.7441 76.9495 161.7441 77.9156 162.7368 77.9156 162.7368 86.6105 163.9545 86.6105 163.9545 77.9156 163.9545 76.9495 162.7368 76.9495 161.7441 76.9495"/><path d="m167.4621,78.1802c.141-.141.2117-.3309.2117-.5689,0-.2293-.0707-.4146-.2117-.5558-.1412-.141-.3441-.2118-.6088-.2118s-.4656.0708-.6023.2118c-.1369.1412-.2052.3309-.2052.5689,0,.2297.0682.4148.2052.5558.1367.1414.3375.2118.6023.2118s.4676-.0704.6088-.2118Z"/><polygon points="165.4369 79.5566 165.4369 80.5227 166.5223 80.5227 166.5223 86.6105 167.74 86.6105 167.74 80.5227 167.74 79.5566 166.5223 79.5566 165.4369 79.5566"/><path d="m173.3522,79.345h-.053c-.8736,0-1.5288.2758-1.9655.827-.2222.2806-.3873.6265-.4965,1.0361v-1.6515h-.9662v7.0539h1.2178v-4.2217c0-.5735.1741-1.0367.5228-1.3895.3485-.3528.8094-.5295,1.3832-.5295.5381,0,.9662.1655,1.2839.4964s.4764.7788.4764,1.3432v4.3012h1.2178v-4.0364c0-1.0498-.2184-1.8506-.6552-2.4021-.4368-.5513-1.092-.827-1.9655-.827Z"/><path d="m182.7828,79.7949c-.5076-.3177-1.123-.4764-1.8465-.4764-.7501,0-1.3832.172-1.8994.516-.5162.3442-.9023.7941-1.1581,1.3499-.2561.5558-.3839,1.1514-.3839,1.7867v.2249c0,.6266.1257,1.2175.3772,1.7735.2515.5558.642,1.0081,1.1714,1.3564.5294.3485,1.1867.5229,1.9722.5229.8382,0,1.5375-.2075,2.0979-.6221.5603-.4146.9154-.9837,1.0655-1.7072h-1.1515c-.0794.353-.2979.6507-.6552.8933-.3574.2428-.8096.364-1.3567.364-.5294,0-.9685-.1169-1.3171-.3507-.3487-.2338-.6088-.5513-.7809-.953-.1469-.3428-.2272-.7352-.2487-1.1712h5.6292v-.5558c0-.6088-.1257-1.1734-.3773-1.6939-.2515-.5205-.6309-.9398-1.1383-1.2573Zm-4.0678,2.5939c.0417-.2541.1056-.4912.1962-.708.1676-.4015.4213-.7168.7612-.9463.3395-.2293.7611-.344,1.264-.344.4676,0,.869.1014,1.2045.3044.3353.203.5845.4919.7479.8669.1075.247.1761.5246.2127.827h-4.3865Z"/></g></g><g><rect class="cls-3" x="220.494" y="38.5704" width="44.9102" height="74.1018" transform="translate(318.5704 -167.3278) rotate(90)"/><g><path class="cls-1" d="m218.6744,73.9819c.5294.3485,1.1867.5229,1.9722.5229.8382,0,1.5375-.2075,2.0979-.6221.5603-.4146.9154-.9837,1.0655-1.7072h-1.1515c-.0794.353-.2979.6507-.6552.8933-.3574.2428-.8096.364-1.3567.364-.5294,0-.9685-.1169-1.3171-.3507-.3487-.2338-.6088-.5513-.7809-.953-.1469-.3428-.2272-.7352-.2487-1.1712h5.6292v-.5558c0-.6088-.1257-1.1734-.3773-1.6939-.2515-.5205-.6309-.9398-1.1383-1.2573-.5076-.3177-1.123-.4764-1.8465-.4764-.7501,0-1.3832.172-1.8994.516-.5162.3442-.9023.7941-1.1581,1.3499-.2561.5558-.3839,1.1514-.3839,1.7867v.2249c0,.6266.1257,1.2175.3772,1.7735.2515.5558.642,1.0081,1.1714,1.3564Zm-.1324-4.6451c.1676-.4015.4213-.7168.7612-.9463.3395-.2293.7611-.344,1.264-.344.4676,0,.869.1014,1.2045.3044.3353.203.5845.4919.7479.8669.1075.247.1761.5246.2127.827h-4.3864c.0417-.2541.1056-.4912.1962-.708Z"/><polygon class="cls-1" points="230.6794 67.2126 229.422 67.2126 227.7807 69.8859 227.5955 69.8859 225.8615 67.2126 224.5114 67.2126 226.8244 70.7074 224.3923 74.2665 225.6497 74.2665 227.5822 71.3813 227.7675 71.3813 229.7794 74.2665 231.1295 74.2665 228.5281 70.5656 230.6794 67.2126"/><path class="cls-1" d="m233.1545,66.048c.2648,0,.4676-.0704.6088-.2118.1411-.141.2118-.3309.2118-.5689,0-.2293-.0707-.4146-.2118-.5558-.1412-.141-.344-.2118-.6088-.2118s-.4655.0708-.6022.2118c-.1369.1412-.2052.3309-.2052.5689,0,.2297.0682.4148.2052.5558.1367.1414.3375.2118.6022.2118Z"/><polygon class="cls-1" points="232.8236 74.2665 234.0414 74.2665 234.0414 68.1787 234.0414 67.2126 232.8236 67.2126 231.7383 67.2126 231.7383 68.1787 232.8236 68.1787 232.8236 74.2665"/><path class="cls-1" d="m239.7991,73.1019c-.3089.2206-.7458.3309-1.3104.3309-.5913,0-1.0304-.1126-1.3171-.3375-.2868-.2249-.4347-.5007-.4434-.827h-1.1515c.0175.6882.28,1.2287.7875,1.6211.5073.3924,1.2154.589,2.1244.589.5646,0,1.0699-.0949,1.5156-.2846.4454-.1896.7918-.4566,1.039-.8008.2469-.344.3706-.7278.3706-1.1512,0-.5999-.2207-1.072-.6618-1.4162-.4414-.344-1.0546-.5558-1.8398-.6352l-.7677-.0794c-.406-.0439-.7038-.1475-.8935-.3108-.1899-.1632-.2846-.3817-.2846-.6553,0-.3261.1346-.5909.4038-.7939.269-.203.6419-.3044,1.1184-.3044.4852,0,.8581.0971,1.1184.291.2602.1942.3992.4456.4169.7543h1.1516c-.0179-.6703-.2671-1.1865-.7479-1.5484-.481-.3616-1.1273-.5425-1.939-.5425-.5208,0-.9817.0859-1.3832.2581-.4016.172-.717.4191-.9464.7409-.2295.3222-.3441.7037-.3441,1.1448,0,.5737.2007,1.0281.6023,1.3633.4014.3354.9507.5425,1.6479.6219l.781.0794c.4941.053.8537.1634,1.0787.3309.225.1677.3376.4017.3376.7015,0,.3528-.1546.6398-.4633.8602Z"/><path class="cls-1" d="m244.5773,65.0554h-1.1648v2.1571h-1.2309v.9131h1.2309v3.7718c0,.6002.0993,1.0787.2979,1.436.1985.3573.4852.6152.8603.7741.3749.1589.8317.2383,1.37.2383h1.0853v-1.0985h-1.2442c-.3795,0-.6751-.1035-.8868-.3111-.2118-.2071-.3177-.505-.3177-.8933v-3.9173h2.4486v-.9131h-2.4486v-2.1571Z"/><path class="cls-1" d="m253.1011,71.4212c0,.5911-.1677,1.061-.5029,1.4093-.3355.3487-.7767.5229-1.3236.5229-.5208,0-.9332-.1589-1.2376-.4764-.3044-.3177-.4566-.7588-.4566-1.3234v-4.3541h-1.2177v4.1027c0,1.0236.225,1.8086.6749,2.3556.4501.5472,1.0898.8206,1.9193.8206h.053c.8293,0,1.4559-.2758,1.8795-.8273.2117-.2756.3705-.6136.4764-1.0138v1.6293h.9662v-7.0671h-1.2309v4.2217Z"/><path class="cls-1" d="m257.0389,76.7414c.3485-.1503.6023-.395.7612-.7345.1588-.3399.2382-.8008.2382-1.3831v-7.4113h-2.2899v.9661h1.125v6.6305c0,.344-.0905.6064-.2713.7874-.1811.1806-.4391.2712-.7744.2712h-.7544v1.0985h.5691c.5824,0,1.0477-.0751,1.3964-.2249Z"/><path class="cls-1" d="m257.1514,65.9421c.2648,0,.4654-.0728.6023-.2183.1367-.1455.2052-.333.2052-.5625,0-.2383-.0685-.4256-.2052-.5625-.1369-.1367-.3375-.2051-.6023-.2051s-.4655.0708-.6022.2118c-.1369.1412-.2052.3309-.2052.5689,0,.2297.0682.4148.2052.556.1367.1412.3375.2116.6022.2116Z"/><path class="cls-1" d="m264.9539,67.4509c-.5076-.3177-1.123-.4764-1.8465-.4764-.7501,0-1.3832.172-1.8993.516-.5163.3442-.9023.7941-1.1582,1.3499-.2561.5558-.3839,1.1514-.3839,1.7867v.2249c0,.6266.1257,1.2175.3773,1.7735.2515.5558.6419,1.0081,1.1713,1.3564.5295.3485,1.1868.5229,1.9722.5229.8382,0,1.5375-.2075,2.0979-.6221.5603-.4146.9154-.9837,1.0656-1.7072h-1.1516c-.0794.353-.2978.6507-.6551.8933-.3574.2428-.8097.364-1.3568.364-.5294,0-.9685-.1169-1.3169-.3507-.3488-.2338-.6088-.5513-.781-.953-.1469-.3428-.2271-.7352-.2486-1.1712h5.6291v-.5558c0-.6088-.1257-1.1734-.3772-1.6939s-.631-.9398-1.1384-1.2573Zm-4.0677,2.5939c.0417-.2541.1056-.4912.1962-.708.1675-.4015.4212-.7168.7611-.9463.3395-.2293.7611-.344,1.264-.344.4676,0,.8691.1014,1.2046.3044.3352.203.5844.4919.7478.8669.1075.247.1761.5246.2128.827h-4.3864Z"/><path class="cls-1" d="m268.5607,72.9299c-.1412-.15-.3177-.2252-.5295-.2252-.2117,0-.3884.0751-.5294.2252-.1412.15-.2117.3354-.2117.5558,0,.2206.0705.4058.2117.5558.141.15.3177.2249.5294.2249.2118,0,.3883-.0749.5295-.2249.141-.15.2117-.3352.2117-.5558,0-.2204-.0707-.4058-.2117-.5558Z"/><path class="cls-1" d="m229.2104,79.8412c-.5738-.3483-1.2399-.5227-1.9987-.5227h-6.3269c-.759,0-1.4251.1744-1.9986.5227-.5738.3487-1.0106.8029-1.3105,1.3633-.3.5603-.45,1.1493-.45,1.7667v.2249c0,.6178.1455,1.2065.4368,1.7669.2911.5603.7234,1.0147,1.2971,1.363.5734.3485,1.2485.5229,2.025.5229h6.3269c.7763,0,1.4514-.1744,2.0252-.5229.5734-.3483,1.0059-.8027,1.2971-1.363.2912-.5603.4367-1.1491.4367-1.7669v-.2249c0-.6174-.1502-1.2063-.45-1.7667-.3001-.5603-.7369-1.0145-1.3104-1.3633Zm.2448,4.5989c-.1985.406-.4919.7259-.8801.9596-.3884.2338-.8429.3507-1.3633.3507-.5208,0-.9752-.1169-1.3633-.3507-.3884-.2338-.684-.5537-.8868-.9596-.2031-.4056-.3044-.8602-.3044-1.363s.1058-.9573.3177-1.363c.2117-.4058.5095-.7235.8934-.953.3839-.2293.8317-.344,1.3435-.344.5029,0,.9485.1147,1.3369.344.3882.2295.6859.5472.8935.953.2071.4058.311.8602.311,1.363s-.0993.9575-.2979,1.363Z"/><path class="cls-2" d="m229.4552,84.44c-.1985.406-.4919.7259-.8801.9596-.3884.2338-.8429.3507-1.3633.3507-.5208,0-.9752-.1169-1.3633-.3507-.3884-.2338-.684-.5537-.8868-.9596-.2031-.4056-.3044-.8602-.3044-1.363s.1058-.9573.3177-1.363c.2117-.4058.5095-.7235.8934-.953.3839-.2293.8317-.344,1.3435-.344.5029,0,.9485.1147,1.3369.344.3882.2295.6859.5472.8935.953.2071.4058.311.8602.311,1.363s-.0993.9575-.2979,1.363Z"/><path class="cls-1" d="m236.0269,79.345h-.053c-.8736,0-1.5288.2758-1.9655.827-.2222.2805-.3872.6262-.4964,1.0356v-1.651h-.9662v7.0539h1.2177v-4.2217c0-.5735.1742-1.0367.5228-1.3895.3485-.3528.8095-.5295,1.3832-.5295.5381,0,.9662.1655,1.2839.4964s.4766.7788.4766,1.3432v4.3012h1.2177v-4.0364c0-1.0498-.2184-1.8506-.6552-2.4021-.4367-.5513-1.092-.827-1.9655-.827Z"/><polygon class="cls-1" points="239.6932 76.9495 239.6932 77.9156 240.6859 77.9156 240.6859 86.6105 241.9036 86.6105 241.9036 77.9156 241.9036 76.9495 240.6859 76.9495 239.6932 76.9495"/><path class="cls-1" d="m245.4112,78.1802c.141-.141.2117-.3309.2117-.5689,0-.2293-.0707-.4146-.2117-.5558-.1412-.141-.3441-.2118-.6088-.2118s-.4656.0708-.6023.2118c-.1369.1412-.2052.3309-.2052.5689,0,.2297.0682.4148.2052.5558.1367.1414.3375.2118.6023.2118s.4676-.0704.6088-.2118Z"/><polygon class="cls-1" points="243.386 79.5566 243.386 80.5227 244.4714 80.5227 244.4714 86.6105 245.6891 86.6105 245.6891 80.5227 245.6891 79.5566 244.4714 79.5566 243.386 79.5566"/><path class="cls-1" d="m251.3013,79.345h-.053c-.8736,0-1.5288.2758-1.9655.827-.2222.2806-.3873.6265-.4965,1.0361v-1.6515h-.9662v7.0539h1.2178v-4.2217c0-.5735.1741-1.0367.5228-1.3895.3485-.3528.8094-.5295,1.3832-.5295.5381,0,.9662.1655,1.2839.4964s.4764.7788.4764,1.3432v4.3012h1.2178v-4.0364c0-1.0498-.2184-1.8506-.6552-2.4021-.4368-.5513-1.092-.827-1.9655-.827Z"/><path class="cls-1" d="m260.7319,79.7949c-.5076-.3177-1.123-.4764-1.8465-.4764-.7501,0-1.3832.172-1.8994.516-.5162.3442-.9023.7941-1.1581,1.3499-.2561.5558-.3839,1.1514-.3839,1.7867v.2249c0,.6266.1257,1.2175.3772,1.7735.2515.5558.642,1.0081,1.1714,1.3564.5294.3485,1.1867.5229,1.9722.5229.8382,0,1.5375-.2075,2.0979-.6221.5603-.4146.9154-.9837,1.0655-1.7072h-1.1515c-.0794.353-.2979.6507-.6552.8933-.3574.2428-.8096.364-1.3567.364-.5294,0-.9685-.1169-1.3171-.3507-.3487-.2338-.6088-.5513-.7809-.953-.1469-.3428-.2272-.7352-.2487-1.1712h5.6292v-.5558c0-.6088-.1257-1.1734-.3773-1.6939-.2515-.5205-.6309-.9398-1.1383-1.2573Zm-4.0678,2.5939c.0417-.2541.1056-.4912.1962-.708.1676-.4015.4213-.7168.7612-.9463.3395-.2293.7611-.344,1.264-.344.4676,0,.869.1014,1.2045.3044.3353.203.5845.4919.7479.8669.1075.247.1761.5246.2127.827h-4.3865Z"/></g></g></g><g><g><rect x="64.5958" y="87.3278" width="44.9102" height="74.1018" transform="translate(211.4296 37.3278) rotate(90)"/><g><path class="cls-1" d="m62.7761,122.7394c.5294.3485,1.1867.5229,1.9722.5229.8382,0,1.5375-.2075,2.0979-.6221.5603-.4146.9154-.9837,1.0655-1.7072h-1.1515c-.0794.353-.2979.6507-.6552.8933-.3574.2428-.8096.364-1.3567.364-.5294,0-.9685-.1169-1.3171-.3507-.3487-.2338-.6088-.5513-.7809-.953-.1469-.3428-.2272-.7352-.2487-1.1712h5.6292v-.5558c0-.6088-.1257-1.1734-.3773-1.6939-.2515-.5205-.6309-.9398-1.1383-1.2573-.5076-.3177-1.123-.4764-1.8465-.4764-.7501,0-1.3832.172-1.8994.516-.5162.3442-.9023.7941-1.1581,1.3499-.2561.5558-.3839,1.1514-.3839,1.7867v.2249c0,.6266.1257,1.2175.3772,1.7735.2515.5558.642,1.0081,1.1714,1.3564Zm-.1324-4.6451c.1676-.4015.4213-.7168.7612-.9463.3395-.2293.7611-.344,1.264-.344.4676,0,.869.1014,1.2045.3044.3353.203.5845.4919.7479.8669.1075.247.1761.5246.2127.827h-4.3864c.0417-.2541.1056-.4912.1962-.708Z"/><polygon class="cls-1" points="74.7812 115.9701 73.5238 115.9701 71.8825 118.6434 71.6973 118.6434 69.9633 115.9701 68.6132 115.9701 70.9262 119.4649 68.4941 123.024 69.7515 123.024 71.684 120.1388 71.8693 120.1388 73.8812 123.024 75.2313 123.024 72.6299 119.3231 74.7812 115.9701"/><path class="cls-1" d="m77.2563,114.8055c.2648,0,.4676-.0704.6088-.2118.1411-.141.2118-.3309.2118-.5689,0-.2293-.0707-.4146-.2118-.5558-.1412-.141-.344-.2118-.6088-.2118s-.4655.0708-.6022.2118c-.1369.1412-.2052.3309-.2052.5689,0,.2297.0682.4148.2052.5558.1367.1414.3375.2118.6022.2118Z"/><polygon class="cls-1" points="76.9254 123.024 78.1432 123.024 78.1432 116.9362 78.1432 115.9701 76.9254 115.9701 75.8401 115.9701 75.8401 116.9362 76.9254 116.9362 76.9254 123.024"/><path class="cls-1" d="m83.9009,121.8594c-.3089.2206-.7458.3309-1.3104.3309-.5913,0-1.0304-.1126-1.3171-.3375-.2868-.2249-.4347-.5007-.4434-.827h-1.1515c.0175.6882.28,1.2287.7875,1.6211.5073.3924,1.2154.589,2.1244.589.5646,0,1.0699-.0949,1.5156-.2846.4454-.1896.7918-.4566,1.039-.8008.2469-.344.3706-.7278.3706-1.1512,0-.5999-.2207-1.072-.6618-1.4162-.4414-.344-1.0546-.5558-1.8398-.6352l-.7677-.0794c-.406-.0439-.7038-.1475-.8935-.3108-.1899-.1632-.2846-.3817-.2846-.6553,0-.3261.1346-.5909.4038-.7939.269-.203.6419-.3044,1.1184-.3044.4852,0,.8581.0971,1.1184.291.2602.1942.3992.4456.4169.7543h1.1516c-.0179-.6703-.2671-1.1865-.7479-1.5484-.481-.3616-1.1273-.5425-1.939-.5425-.5208,0-.9817.0859-1.3832.2581-.4016.172-.717.4191-.9464.7409-.2295.3222-.3441.7037-.3441,1.1448,0,.5737.2007,1.0281.6023,1.3633.4014.3354.9507.5425,1.6479.6219l.781.0794c.4941.053.8537.1634,1.0787.3309.225.1677.3376.4017.3376.7015,0,.3528-.1546.6398-.4633.8602Z"/><path class="cls-1" d="m88.6791,113.8129h-1.1648v2.1571h-1.2309v.9131h1.2309v3.7718c0,.6002.0993,1.0787.2979,1.436.1985.3573.4852.6152.8603.7741.3749.1589.8317.2383,1.37.2383h1.0853v-1.0985h-1.2442c-.3795,0-.6751-.1035-.8868-.3111-.2118-.2071-.3177-.505-.3177-.8933v-3.9173h2.4486v-.9131h-2.4486v-2.1571Z"/><path class="cls-1" d="m97.2029,120.1787c0,.5911-.1677,1.061-.5029,1.4093-.3355.3487-.7767.5229-1.3236.5229-.5208,0-.9332-.1589-1.2376-.4764-.3044-.3177-.4566-.7588-.4566-1.3234v-4.3541h-1.2177v4.1027c0,1.0236.225,1.8086.6749,2.3556.4501.5472,1.0898.8206,1.9193.8206h.053c.8293,0,1.4559-.2758,1.8795-.8273.2117-.2756.3705-.6136.4764-1.0138v1.6293h.9662v-7.0671h-1.2309v4.2217Z"/><path class="cls-1" d="m101.1407,125.4989c.3485-.1503.6023-.395.7612-.7345.1588-.3399.2382-.8008.2382-1.3831v-7.4113h-2.2899v.9661h1.125v6.6305c0,.344-.0905.6064-.2713.7874-.1811.1806-.4391.2712-.7744.2712h-.7544v1.0985h.5691c.5824,0,1.0477-.0751,1.3964-.2249Z"/><path class="cls-1" d="m101.2532,114.6996c.2648,0,.4654-.0728.6023-.2183.1367-.1455.2052-.333.2052-.5625,0-.2383-.0685-.4256-.2052-.5625-.1369-.1367-.3375-.2051-.6023-.2051s-.4655.0708-.6022.2118c-.1369.1412-.2052.3309-.2052.5689,0,.2297.0682.4148.2052.556.1367.1412.3375.2116.6022.2116Z"/><path class="cls-1" d="m109.0557,116.2084c-.5076-.3177-1.123-.4764-1.8465-.4764-.7501,0-1.3832.172-1.8993.516-.5163.3442-.9023.7941-1.1582,1.3499-.2561.5558-.3839,1.1514-.3839,1.7867v.2249c0,.6266.1257,1.2175.3773,1.7735.2515.5558.6419,1.0081,1.1713,1.3564.5295.3485,1.1868.5229,1.9722.5229.8382,0,1.5375-.2075,2.0979-.6221.5603-.4146.9154-.9837,1.0656-1.7072h-1.1516c-.0794.353-.2978.6507-.6551.8933-.3574.2428-.8097.364-1.3568.364-.5294,0-.9685-.1169-1.3169-.3507-.3488-.2338-.6088-.5513-.781-.953-.1469-.3428-.2271-.7352-.2486-1.1712h5.6291v-.5558c0-.6088-.1257-1.1734-.3772-1.6939s-.631-.9398-1.1384-1.2573Zm-4.0677,2.5939c.0417-.2541.1056-.4912.1962-.708.1675-.4015.4212-.7168.7611-.9463.3395-.2293.7611-.344,1.264-.344.4676,0,.8691.1014,1.2046.3044.3352.203.5844.4919.7478.8669.1075.247.1761.5246.2128.827h-4.3864Z"/><path class="cls-1" d="m112.6625,121.6874c-.1412-.15-.3177-.2252-.5295-.2252-.2117,0-.3884.0751-.5294.2252-.1412.15-.2117.3354-.2117.5558,0,.2206.0705.4058.2117.5558.141.15.3177.2249.5294.2249.2118,0,.3883-.0749.5295-.2249.141-.15.2117-.3352.2117-.5558,0-.2204-.0707-.4058-.2117-.5558Z"/><path class="cls-1" d="m73.3122,128.5986c-.5738-.3483-1.2399-.5227-1.9987-.5227h-6.3269c-.759,0-1.4251.1744-1.9986.5227-.5738.3487-1.0106.8029-1.3105,1.3633-.3.5603-.45,1.1493-.45,1.7667v.2249c0,.6178.1455,1.2065.4368,1.7669.2911.5603.7234,1.0147,1.2971,1.363.5734.3485,1.2485.5229,2.025.5229h6.3269c.7763,0,1.4514-.1744,2.0252-.5229.5734-.3483,1.0059-.8027,1.2971-1.363.2912-.5603.4367-1.1491.4367-1.7669v-.2249c0-.6174-.1502-1.2063-.45-1.7667-.3001-.5603-.7369-1.0145-1.3104-1.3633Zm.2448,4.5989c-.1985.406-.4919.7259-.8801.9596-.3884.2338-.8429.3507-1.3633.3507-.5208,0-.9752-.1169-1.3633-.3507-.3884-.2338-.684-.5537-.8868-.9596-.2031-.4056-.3044-.8602-.3044-1.363s.1058-.9573.3177-1.363c.2117-.4058.5095-.7235.8934-.953.3839-.2293.8317-.344,1.3435-.344.5029,0,.9485.1147,1.3369.344.3882.2295.6859.5472.8935.953.2071.4058.311.8602.311,1.363s-.0993.9575-.2979,1.363Z"/><path d="m73.557,133.1975c-.1985.406-.4919.7259-.8801.9596-.3884.2338-.8429.3507-1.3633.3507-.5208,0-.9752-.1169-1.3633-.3507-.3884-.2338-.684-.5537-.8868-.9596-.2031-.4056-.3044-.8602-.3044-1.363s.1058-.9573.3177-1.363c.2117-.4058.5095-.7235.8934-.953.3839-.2293.8317-.344,1.3435-.344.5029,0,.9485.1147,1.3369.344.3882.2295.6859.5472.8935.953.2071.4058.311.8602.311,1.363s-.0993.9575-.2979,1.363Z"/><path class="cls-1" d="m80.1287,128.1025h-.053c-.8736,0-1.5288.2758-1.9655.827-.2222.2805-.3872.6262-.4964,1.0356v-1.651h-.9662v7.0539h1.2177v-4.2217c0-.5735.1742-1.0367.5228-1.3895.3485-.3528.8095-.5295,1.3832-.5295.5381,0,.9662.1655,1.2839.4964s.4766.7788.4766,1.3432v4.3012h1.2177v-4.0364c0-1.0498-.2184-1.8506-.6552-2.4021-.4367-.5513-1.092-.827-1.9655-.827Z"/><polygon class="cls-1" points="83.795 125.707 83.795 126.6731 84.7877 126.6731 84.7877 135.368 86.0054 135.368 86.0054 126.6731 86.0054 125.707 84.7877 125.707 83.795 125.707"/><path class="cls-1" d="m89.513,126.9377c.141-.141.2117-.3309.2117-.5689,0-.2293-.0707-.4146-.2117-.5558-.1412-.141-.3441-.2118-.6088-.2118s-.4656.0708-.6023.2118c-.1369.1412-.2052.3309-.2052.5689,0,.2297.0682.4148.2052.5558.1367.1414.3375.2118.6023.2118s.4676-.0704.6088-.2118Z"/><polygon class="cls-1" points="87.4878 128.3141 87.4878 129.2802 88.5732 129.2802 88.5732 135.368 89.7909 135.368 89.7909 129.2802 89.7909 128.3141 88.5732 128.3141 87.4878 128.3141"/><path class="cls-1" d="m95.4031,128.1025h-.053c-.8736,0-1.5288.2758-1.9655.827-.2222.2806-.3873.6265-.4965,1.0361v-1.6515h-.9662v7.0539h1.2178v-4.2217c0-.5735.1741-1.0367.5228-1.3895.3485-.3528.8094-.5295,1.3832-.5295.5381,0,.9662.1655,1.2839.4964s.4764.7788.4764,1.3432v4.3012h1.2178v-4.0364c0-1.0498-.2184-1.8506-.6552-2.4021-.4368-.5513-1.092-.827-1.9655-.827Z"/><path class="cls-1" d="m104.8337,128.5524c-.5076-.3177-1.123-.4764-1.8465-.4764-.7501,0-1.3832.172-1.8994.516-.5162.3442-.9023.7941-1.1581,1.3499-.2561.5558-.3839,1.1514-.3839,1.7867v.2249c0,.6266.1257,1.2175.3772,1.7735.2515.5558.642,1.0081,1.1714,1.3564.5294.3485,1.1867.5229,1.9722.5229.8382,0,1.5375-.2075,2.0979-.6221.5603-.4146.9154-.9837,1.0655-1.7072h-1.1515c-.0794.353-.2979.6507-.6552.8933-.3574.2428-.8096.364-1.3567.364-.5294,0-.9685-.1169-1.3171-.3507-.3487-.2338-.6088-.5513-.7809-.953-.1469-.3428-.2272-.7352-.2487-1.1712h5.6292v-.5558c0-.6088-.1257-1.1734-.3773-1.6939-.2515-.5205-.6309-.9398-1.1383-1.2573Zm-4.0678,2.5939c.0417-.2541.1056-.4912.1962-.708.1676-.4015.4213-.7168.7612-.9463.3395-.2293.7611-.344,1.264-.344.4676,0,.869.1014,1.2045.3044.3353.203.5845.4919.7479.8669.1075.247.1761.5246.2127.827h-4.3865Z"/></g></g><g><rect x="142.5449" y="87.3278" width="44.9102" height="74.1018" transform="translate(289.3787 -40.6213) rotate(90)"/><g><path class="cls-1" d="m140.7253,122.7394c.5294.3485,1.1867.5229,1.9722.5229.8382,0,1.5375-.2075,2.0979-.6221.5603-.4146.9154-.9837,1.0655-1.7072h-1.1515c-.0794.353-.2979.6507-.6552.8933-.3574.2428-.8096.364-1.3567.364-.5294,0-.9685-.1169-1.3171-.3507-.3487-.2338-.6088-.5513-.7809-.953-.1469-.3428-.2272-.7352-.2487-1.1712h5.6292v-.5558c0-.6088-.1257-1.1734-.3773-1.6939-.2515-.5205-.6309-.9398-1.1383-1.2573-.5076-.3177-1.123-.4764-1.8465-.4764-.7501,0-1.3832.172-1.8994.516-.5162.3442-.9023.7941-1.1581,1.3499-.2561.5558-.3839,1.1514-.3839,1.7867v.2249c0,.6266.1257,1.2175.3772,1.7735.2515.5558.642,1.0081,1.1714,1.3564Zm-.1324-4.6451c.1676-.4015.4213-.7168.7612-.9463.3395-.2293.7611-.344,1.264-.344.4676,0,.869.1014,1.2045.3044.3353.203.5845.4919.7479.8669.1075.247.1761.5246.2127.827h-4.3864c.0417-.2541.1056-.4912.1962-.708Z"/><polygon class="cls-1" points="152.7303 115.9701 151.4729 115.9701 149.8316 118.6434 149.6464 118.6434 147.9124 115.9701 146.5623 115.9701 148.8753 119.4649 146.4432 123.024 147.7006 123.024 149.6331 120.1388 149.8184 120.1388 151.8303 123.024 153.1804 123.024 150.579 119.3231 152.7303 115.9701"/><path class="cls-1" d="m155.2054,114.8055c.2648,0,.4676-.0704.6088-.2118.1411-.141.2118-.3309.2118-.5689,0-.2293-.0707-.4146-.2118-.5558-.1412-.141-.344-.2118-.6088-.2118s-.4655.0708-.6022.2118c-.1369.1412-.2052.3309-.2052.5689,0,.2297.0682.4148.2052.5558.1367.1414.3375.2118.6022.2118Z"/><polygon class="cls-1" points="154.8745 123.024 156.0923 123.024 156.0923 116.9362 156.0923 115.9701 154.8745 115.9701 153.7892 115.9701 153.7892 116.9362 154.8745 116.9362 154.8745 123.024"/><path class="cls-1" d="m161.85,121.8594c-.3089.2206-.7458.3309-1.3104.3309-.5913,0-1.0304-.1126-1.3171-.3375-.2868-.2249-.4347-.5007-.4434-.827h-1.1515c.0175.6882.28,1.2287.7875,1.6211.5073.3924,1.2154.589,2.1244.589.5646,0,1.0699-.0949,1.5156-.2846.4454-.1896.7918-.4566,1.039-.8008.2469-.344.3706-.7278.3706-1.1512,0-.5999-.2207-1.072-.6618-1.4162-.4414-.344-1.0546-.5558-1.8398-.6352l-.7677-.0794c-.406-.0439-.7038-.1475-.8935-.3108-.1899-.1632-.2846-.3817-.2846-.6553,0-.3261.1346-.5909.4038-.7939.269-.203.6419-.3044,1.1184-.3044.4852,0,.8581.0971,1.1184.291.2602.1942.3992.4456.4169.7543h1.1516c-.0179-.6703-.2671-1.1865-.7479-1.5484-.481-.3616-1.1273-.5425-1.939-.5425-.5208,0-.9817.0859-1.3832.2581-.4016.172-.717.4191-.9464.7409-.2295.3222-.3441.7037-.3441,1.1448,0,.5737.2007,1.0281.6023,1.3633.4014.3354.9507.5425,1.6479.6219l.781.0794c.4941.053.8537.1634,1.0787.3309.225.1677.3376.4017.3376.7015,0,.3528-.1546.6398-.4633.8602Z"/><path class="cls-1" d="m166.6282,113.8129h-1.1648v2.1571h-1.2309v.9131h1.2309v3.7718c0,.6002.0993,1.0787.2979,1.436.1985.3573.4852.6152.8603.7741.3749.1589.8317.2383,1.37.2383h1.0853v-1.0985h-1.2442c-.3795,0-.6751-.1035-.8868-.3111-.2118-.2071-.3177-.505-.3177-.8933v-3.9173h2.4486v-.9131h-2.4486v-2.1571Z"/><path class="cls-1" d="m175.152,120.1787c0,.5911-.1677,1.061-.5029,1.4093-.3355.3487-.7767.5229-1.3236.5229-.5208,0-.9332-.1589-1.2376-.4764-.3044-.3177-.4566-.7588-.4566-1.3234v-4.3541h-1.2177v4.1027c0,1.0236.225,1.8086.6749,2.3556.4501.5472,1.0898.8206,1.9193.8206h.053c.8293,0,1.4559-.2758,1.8795-.8273.2117-.2756.3705-.6136.4764-1.0138v1.6293h.9662v-7.0671h-1.2309v4.2217Z"/><path class="cls-1" d="m179.0898,125.4989c.3485-.1503.6023-.395.7612-.7345.1588-.3399.2382-.8008.2382-1.3831v-7.4113h-2.2899v.9661h1.125v6.6305c0,.344-.0905.6064-.2713.7874-.1811.1806-.4391.2712-.7744.2712h-.7544v1.0985h.5691c.5824,0,1.0477-.0751,1.3964-.2249Z"/><path class="cls-1" d="m179.2023,114.6996c.2648,0,.4654-.0728.6023-.2183.1367-.1455.2052-.333.2052-.5625,0-.2383-.0685-.4256-.2052-.5625-.1369-.1367-.3375-.2051-.6023-.2051s-.4655.0708-.6022.2118c-.1369.1412-.2052.3309-.2052.5689,0,.2297.0682.4148.2052.556.1367.1412.3375.2116.6022.2116Z"/><path class="cls-1" d="m187.0048,116.2084c-.5076-.3177-1.123-.4764-1.8465-.4764-.7501,0-1.3832.172-1.8993.516-.5163.3442-.9023.7941-1.1582,1.3499-.2561.5558-.3839,1.1514-.3839,1.7867v.2249c0,.6266.1257,1.2175.3773,1.7735.2515.5558.6419,1.0081,1.1713,1.3564.5295.3485,1.1868.5229,1.9722.5229.8382,0,1.5375-.2075,2.0979-.6221.5603-.4146.9154-.9837,1.0656-1.7072h-1.1516c-.0794.353-.2978.6507-.6551.8933-.3574.2428-.8097.364-1.3568.364-.5294,0-.9685-.1169-1.3169-.3507-.3488-.2338-.6088-.5513-.781-.953-.1469-.3428-.2271-.7352-.2486-1.1712h5.6291v-.5558c0-.6088-.1257-1.1734-.3772-1.6939s-.631-.9398-1.1384-1.2573Zm-4.0677,2.5939c.0417-.2541.1056-.4912.1962-.708.1675-.4015.4212-.7168.7611-.9463.3395-.2293.7611-.344,1.264-.344.4676,0,.8691.1014,1.2046.3044.3352.203.5844.4919.7478.8669.1075.247.1761.5246.2128.827h-4.3864Z"/><path class="cls-1" d="m190.6116,121.6874c-.1412-.15-.3177-.2252-.5295-.2252-.2117,0-.3884.0751-.5294.2252-.1412.15-.2117.3354-.2117.5558,0,.2206.0705.4058.2117.5558.141.15.3177.2249.5294.2249.2118,0,.3883-.0749.5295-.2249.141-.15.2117-.3352.2117-.5558,0-.2204-.0707-.4058-.2117-.5558Z"/><path class="cls-1" d="m151.2613,128.5986c-.5738-.3483-1.2399-.5227-1.9987-.5227h-6.3269c-.759,0-1.4251.1744-1.9986.5227-.5738.3487-1.0106.8029-1.3105,1.3633-.3.5603-.45,1.1493-.45,1.7667v.2249c0,.6178.1455,1.2065.4368,1.7669.2911.5603.7234,1.0147,1.2971,1.363.5734.3485,1.2485.5229,2.025.5229h6.3269c.7763,0,1.4514-.1744,2.0252-.5229.5734-.3483,1.0059-.8027,1.2971-1.363.2912-.5603.4367-1.1491.4367-1.7669v-.2249c0-.6174-.1502-1.2063-.45-1.7667-.3001-.5603-.7369-1.0145-1.3104-1.3633Zm.2448,4.5989c-.1985.406-.4919.7259-.8801.9596-.3884.2338-.8429.3507-1.3633.3507-.5208,0-.9752-.1169-1.3633-.3507-.3884-.2338-.684-.5537-.8868-.9596-.2031-.4056-.3044-.8602-.3044-1.363s.1058-.9573.3177-1.363c.2117-.4058.5095-.7235.8934-.953.3839-.2293.8317-.344,1.3435-.344.5029,0,.9485.1147,1.3369.344.3882.2295.6859.5472.8935.953.2071.4058.311.8602.311,1.363s-.0993.9575-.2979,1.363Z"/><path class="cls-2" d="m151.5061,133.1975c-.1985.406-.4919.7259-.8801.9596-.3884.2338-.8429.3507-1.3633.3507-.5208,0-.9752-.1169-1.3633-.3507-.3884-.2338-.684-.5537-.8868-.9596-.2031-.4056-.3044-.8602-.3044-1.363s.1058-.9573.3177-1.363c.2117-.4058.5095-.7235.8934-.953.3839-.2293.8317-.344,1.3435-.344.5029,0,.9485.1147,1.3369.344.3882.2295.6859.5472.8935.953.2071.4058.311.8602.311,1.363s-.0993.9575-.2979,1.363Z"/><path class="cls-1" d="m158.0778,128.1025h-.053c-.8736,0-1.5288.2758-1.9655.827-.2222.2805-.3872.6262-.4964,1.0356v-1.651h-.9662v7.0539h1.2177v-4.2217c0-.5735.1742-1.0367.5228-1.3895.3485-.3528.8095-.5295,1.3832-.5295.5381,0,.9662.1655,1.2839.4964s.4766.7788.4766,1.3432v4.3012h1.2177v-4.0364c0-1.0498-.2184-1.8506-.6552-2.4021-.4367-.5513-1.092-.827-1.9655-.827Z"/><polygon class="cls-1" points="161.7441 125.707 161.7441 126.6731 162.7368 126.6731 162.7368 135.368 163.9545 135.368 163.9545 126.6731 163.9545 125.707 162.7368 125.707 161.7441 125.707"/><path class="cls-1" d="m167.4621,126.9377c.141-.141.2117-.3309.2117-.5689,0-.2293-.0707-.4146-.2117-.5558-.1412-.141-.3441-.2118-.6088-.2118s-.4656.0708-.6023.2118c-.1369.1412-.2052.3309-.2052.5689,0,.2297.0682.4148.2052.5558.1367.1414.3375.2118.6023.2118s.4676-.0704.6088-.2118Z"/><polygon class="cls-1" points="165.4369 128.3141 165.4369 129.2802 166.5223 129.2802 166.5223 135.368 167.74 135.368 167.74 129.2802 167.74 128.3141 166.5223 128.3141 165.4369 128.3141"/><path class="cls-1" d="m173.3522,128.1025h-.053c-.8736,0-1.5288.2758-1.9655.827-.2222.2806-.3873.6265-.4965,1.0361v-1.6515h-.9662v7.0539h1.2178v-4.2217c0-.5735.1741-1.0367.5228-1.3895.3485-.3528.8094-.5295,1.3832-.5295.5381,0,.9662.1655,1.2839.4964s.4764.7788.4764,1.3432v4.3012h1.2178v-4.0364c0-1.0498-.2184-1.8506-.6552-2.4021-.4368-.5513-1.092-.827-1.9655-.827Z"/><path class="cls-1" d="m182.7828,128.5524c-.5076-.3177-1.123-.4764-1.8465-.4764-.7501,0-1.3832.172-1.8994.516-.5162.3442-.9023.7941-1.1581,1.3499-.2561.5558-.3839,1.1514-.3839,1.7867v.2249c0,.6266.1257,1.2175.3772,1.7735.2515.5558.642,1.0081,1.1714,1.3564.5294.3485,1.1867.5229,1.9722.5229.8382,0,1.5375-.2075,2.0979-.6221.5603-.4146.9154-.9837,1.0655-1.7072h-1.1515c-.0794.353-.2979.6507-.6552.8933-.3574.2428-.8096.364-1.3567.364-.5294,0-.9685-.1169-1.3171-.3507-.3487-.2338-.6088-.5513-.7809-.953-.1469-.3428-.2272-.7352-.2487-1.1712h5.6292v-.5558c0-.6088-.1257-1.1734-.3773-1.6939-.2515-.5205-.6309-.9398-1.1383-1.2573Zm-4.0678,2.5939c.0417-.2541.1056-.4912.1962-.708.1676-.4015.4213-.7168.7612-.9463.3395-.2293.7611-.344,1.264-.344.4676,0,.869.1014,1.2045.3044.3353.203.5845.4919.7479.8669.1075.247.1761.5246.2127.827h-4.3865Z"/></g></g><g><rect class="cls-4" x="220.494" y="87.3278" width="44.9102" height="74.1018" transform="translate(367.3278 -118.5704) rotate(90)"/><g><path class="cls-1" d="m218.6744,122.7394c.5294.3485,1.1867.5229,1.9722.5229.8382,0,1.5375-.2075,2.0979-.6221.5603-.4146.9154-.9837,1.0655-1.7072h-1.1515c-.0794.353-.2979.6507-.6552.8933-.3574.2428-.8096.364-1.3567.364-.5294,0-.9685-.1169-1.3171-.3507-.3487-.2338-.6088-.5513-.7809-.953-.1469-.3428-.2272-.7352-.2487-1.1712h5.6292v-.5558c0-.6088-.1257-1.1734-.3773-1.6939-.2515-.5205-.6309-.9398-1.1383-1.2573-.5076-.3177-1.123-.4764-1.8465-.4764-.7501,0-1.3832.172-1.8994.516-.5162.3442-.9023.7941-1.1581,1.3499-.2561.5558-.3839,1.1514-.3839,1.7867v.2249c0,.6266.1257,1.2175.3772,1.7735.2515.5558.642,1.0081,1.1714,1.3564Zm-.1324-4.6451c.1676-.4015.4213-.7168.7612-.9463.3395-.2293.7611-.344,1.264-.344.4676,0,.869.1014,1.2045.3044.3353.203.5845.4919.7479.8669.1075.247.1761.5246.2127.827h-4.3864c.0417-.2541.1056-.4912.1962-.708Z"/><polygon class="cls-1" points="230.6794 115.9701 229.422 115.9701 227.7807 118.6434 227.5955 118.6434 225.8615 115.9701 224.5114 115.9701 226.8244 119.4649 224.3923 123.024 225.6497 123.024 227.5822 120.1388 227.7675 120.1388 229.7794 123.024 231.1295 123.024 228.5281 119.3231 230.6794 115.9701"/><path class="cls-1" d="m233.1545,114.8055c.2648,0,.4676-.0704.6088-.2118.1411-.141.2118-.3309.2118-.5689,0-.2293-.0707-.4146-.2118-.5558-.1412-.141-.344-.2118-.6088-.2118s-.4655.0708-.6022.2118c-.1369.1412-.2052.3309-.2052.5689,0,.2297.0682.4148.2052.5558.1367.1414.3375.2118.6022.2118Z"/><polygon class="cls-1" points="232.8236 123.024 234.0414 123.024 234.0414 116.9362 234.0414 115.9701 232.8236 115.9701 231.7383 115.9701 231.7383 116.9362 232.8236 116.9362 232.8236 123.024"/><path class="cls-1" d="m239.7991,121.8594c-.3089.2206-.7458.3309-1.3104.3309-.5913,0-1.0304-.1126-1.3171-.3375-.2868-.2249-.4347-.5007-.4434-.827h-1.1515c.0175.6882.28,1.2287.7875,1.6211.5073.3924,1.2154.589,2.1244.589.5646,0,1.0699-.0949,1.5156-.2846.4454-.1896.7918-.4566,1.039-.8008.2469-.344.3706-.7278.3706-1.1512,0-.5999-.2207-1.072-.6618-1.4162-.4414-.344-1.0546-.5558-1.8398-.6352l-.7677-.0794c-.406-.0439-.7038-.1475-.8935-.3108-.1899-.1632-.2846-.3817-.2846-.6553,0-.3261.1346-.5909.4038-.7939.269-.203.6419-.3044,1.1184-.3044.4852,0,.8581.0971,1.1184.291.2602.1942.3992.4456.4169.7543h1.1516c-.0179-.6703-.2671-1.1865-.7479-1.5484-.481-.3616-1.1273-.5425-1.939-.5425-.5208,0-.9817.0859-1.3832.2581-.4016.172-.717.4191-.9464.7409-.2295.3222-.3441.7037-.3441,1.1448,0,.5737.2007,1.0281.6023,1.3633.4014.3354.9507.5425,1.6479.6219l.781.0794c.4941.053.8537.1634,1.0787.3309.225.1677.3376.4017.3376.7015,0,.3528-.1546.6398-.4633.8602Z"/><path class="cls-1" d="m244.5773,113.8129h-1.1648v2.1571h-1.2309v.9131h1.2309v3.7718c0,.6002.0993,1.0787.2979,1.436.1985.3573.4852.6152.8603.7741.3749.1589.8317.2383,1.37.2383h1.0853v-1.0985h-1.2442c-.3795,0-.6751-.1035-.8868-.3111-.2118-.2071-.3177-.505-.3177-.8933v-3.9173h2.4486v-.9131h-2.4486v-2.1571Z"/><path class="cls-1" d="m253.1011,120.1787c0,.5911-.1677,1.061-.5029,1.4093-.3355.3487-.7767.5229-1.3236.5229-.5208,0-.9332-.1589-1.2376-.4764-.3044-.3177-.4566-.7588-.4566-1.3234v-4.3541h-1.2177v4.1027c0,1.0236.225,1.8086.6749,2.3556.4501.5472,1.0898.8206,1.9193.8206h.053c.8293,0,1.4559-.2758,1.8795-.8273.2117-.2756.3705-.6136.4764-1.0138v1.6293h.9662v-7.0671h-1.2309v4.2217Z"/><path class="cls-1" d="m257.0389,125.4989c.3485-.1503.6023-.395.7612-.7345.1588-.3399.2382-.8008.2382-1.3831v-7.4113h-2.2899v.9661h1.125v6.6305c0,.344-.0905.6064-.2713.7874-.1811.1806-.4391.2712-.7744.2712h-.7544v1.0985h.5691c.5824,0,1.0477-.0751,1.3964-.2249Z"/><path class="cls-1" d="m257.1514,114.6996c.2648,0,.4654-.0728.6023-.2183.1367-.1455.2052-.333.2052-.5625,0-.2383-.0685-.4256-.2052-.5625-.1369-.1367-.3375-.2051-.6023-.2051s-.4655.0708-.6022.2118c-.1369.1412-.2052.3309-.2052.5689,0,.2297.0682.4148.2052.556.1367.1412.3375.2116.6022.2116Z"/><path class="cls-1" d="m264.9539,116.2084c-.5076-.3177-1.123-.4764-1.8465-.4764-.7501,0-1.3832.172-1.8993.516-.5163.3442-.9023.7941-1.1582,1.3499-.2561.5558-.3839,1.1514-.3839,1.7867v.2249c0,.6266.1257,1.2175.3773,1.7735.2515.5558.6419,1.0081,1.1713,1.3564.5295.3485,1.1868.5229,1.9722.5229.8382,0,1.5375-.2075,2.0979-.6221.5603-.4146.9154-.9837,1.0656-1.7072h-1.1516c-.0794.353-.2978.6507-.6551.8933-.3574.2428-.8097.364-1.3568.364-.5294,0-.9685-.1169-1.3169-.3507-.3488-.2338-.6088-.5513-.781-.953-.1469-.3428-.2271-.7352-.2486-1.1712h5.6291v-.5558c0-.6088-.1257-1.1734-.3772-1.6939s-.631-.9398-1.1384-1.2573Zm-4.0677,2.5939c.0417-.2541.1056-.4912.1962-.708.1675-.4015.4212-.7168.7611-.9463.3395-.2293.7611-.344,1.264-.344.4676,0,.8691.1014,1.2046.3044.3352.203.5844.4919.7478.8669.1075.247.1761.5246.2128.827h-4.3864Z"/><path class="cls-1" d="m268.5607,121.6874c-.1412-.15-.3177-.2252-.5295-.2252-.2117,0-.3884.0751-.5294.2252-.1412.15-.2117.3354-.2117.5558,0,.2206.0705.4058.2117.5558.141.15.3177.2249.5294.2249.2118,0,.3883-.0749.5295-.2249.141-.15.2117-.3352.2117-.5558,0-.2204-.0707-.4058-.2117-.5558Z"/><path class="cls-1" d="m229.2104,128.5986c-.5738-.3483-1.2399-.5227-1.9987-.5227h-6.3269c-.759,0-1.4251.1744-1.9986.5227-.5738.3487-1.0106.8029-1.3105,1.3633-.3.5603-.45,1.1493-.45,1.7667v.2249c0,.6178.1455,1.2065.4368,1.7669.2911.5603.7234,1.0147,1.2971,1.363.5734.3485,1.2485.5229,2.025.5229h6.3269c.7763,0,1.4514-.1744,2.0252-.5229.5734-.3483,1.0059-.8027,1.2971-1.363.2912-.5603.4367-1.1491.4367-1.7669v-.2249c0-.6174-.1502-1.2063-.45-1.7667-.3001-.5603-.7369-1.0145-1.3104-1.3633Zm.2448,4.5989c-.1985.406-.4919.7259-.8801.9596-.3884.2338-.8429.3507-1.3633.3507-.5208,0-.9752-.1169-1.3633-.3507-.3884-.2338-.684-.5537-.8868-.9596-.2031-.4056-.3044-.8602-.3044-1.363s.1058-.9573.3177-1.363c.2117-.4058.5095-.7235.8934-.953.3839-.2293.8317-.344,1.3435-.344.5029,0,.9485.1147,1.3369.344.3882.2295.6859.5472.8935.953.2071.4058.311.8602.311,1.363s-.0993.9575-.2979,1.363Z"/><path class="cls-2" d="m229.4552,133.1975c-.1985.406-.4919.7259-.8801.9596-.3884.2338-.8429.3507-1.3633.3507-.5208,0-.9752-.1169-1.3633-.3507-.3884-.2338-.684-.5537-.8868-.9596-.2031-.4056-.3044-.8602-.3044-1.363s.1058-.9573.3177-1.363c.2117-.4058.5095-.7235.8934-.953.3839-.2293.8317-.344,1.3435-.344.5029,0,.9485.1147,1.3369.344.3882.2295.6859.5472.8935.953.2071.4058.311.8602.311,1.363s-.0993.9575-.2979,1.363Z"/><path class="cls-1" d="m236.0269,128.1025h-.053c-.8736,0-1.5288.2758-1.9655.827-.2222.2805-.3872.6262-.4964,1.0356v-1.651h-.9662v7.0539h1.2177v-4.2217c0-.5735.1742-1.0367.5228-1.3895.3485-.3528.8095-.5295,1.3832-.5295.5381,0,.9662.1655,1.2839.4964s.4766.7788.4766,1.3432v4.3012h1.2177v-4.0364c0-1.0498-.2184-1.8506-.6552-2.4021-.4367-.5513-1.092-.827-1.9655-.827Z"/><polygon class="cls-1" points="239.6932 125.707 239.6932 126.6731 240.6859 126.6731 240.6859 135.368 241.9036 135.368 241.9036 126.6731 241.9036 125.707 240.6859 125.707 239.6932 125.707"/><path class="cls-1" d="m245.4112,126.9377c.141-.141.2117-.3309.2117-.5689,0-.2293-.0707-.4146-.2117-.5558-.1412-.141-.3441-.2118-.6088-.2118s-.4656.0708-.6023.2118c-.1369.1412-.2052.3309-.2052.5689,0,.2297.0682.4148.2052.5558.1367.1414.3375.2118.6023.2118s.4676-.0704.6088-.2118Z"/><polygon class="cls-1" points="243.386 128.3141 243.386 129.2802 244.4714 129.2802 244.4714 135.368 245.6891 135.368 245.6891 129.2802 245.6891 128.3141 244.4714 128.3141 243.386 128.3141"/><path class="cls-1" d="m251.3013,128.1025h-.053c-.8736,0-1.5288.2758-1.9655.827-.2222.2806-.3873.6265-.4965,1.0361v-1.6515h-.9662v7.0539h1.2178v-4.2217c0-.5735.1741-1.0367.5228-1.3895.3485-.3528.8094-.5295,1.3832-.5295.5381,0,.9662.1655,1.2839.4964s.4764.7788.4764,1.3432v4.3012h1.2178v-4.0364c0-1.0498-.2184-1.8506-.6552-2.4021-.4368-.5513-1.092-.827-1.9655-.827Z"/><path class="cls-1" d="m260.7319,128.5524c-.5076-.3177-1.123-.4764-1.8465-.4764-.7501,0-1.3832.172-1.8994.516-.5162.3442-.9023.7941-1.1581,1.3499-.2561.5558-.3839,1.1514-.3839,1.7867v.2249c0,.6266.1257,1.2175.3772,1.7735.2515.5558.642,1.0081,1.1714,1.3564.5294.3485,1.1867.5229,1.9722.5229.8382,0,1.5375-.2075,2.0979-.6221.5603-.4146.9154-.9837,1.0655-1.7072h-1.1515c-.0794.353-.2979.6507-.6552.8933-.3574.2428-.8096.364-1.3567.364-.5294,0-.9685-.1169-1.3171-.3507-.3487-.2338-.6088-.5513-.7809-.953-.1469-.3428-.2272-.7352-.2487-1.1712h5.6292v-.5558c0-.6088-.1257-1.1734-.3773-1.6939-.2515-.5205-.6309-.9398-1.1383-1.2573Zm-4.0678,2.5939c.0417-.2541.1056-.4912.1962-.708.1676-.4015.4213-.7168.7612-.9463.3395-.2293.7611-.344,1.264-.344.4676,0,.869.1014,1.2045.3044.3353.203.5845.4919.7479.8669.1075.247.1761.5246.2127.827h-4.3865Z"/></g></g></g></svg>