<?xml version="1.0" encoding="UTF-8"?><svg id="Vrstva_1" xmlns="http://www.w3.org/2000/svg" viewBox="0 0 330 200"><defs><style>.cls-1{fill:#b700ff;}</style></defs><path d="m95.8106,94.8632c-.8073-.5054-1.7861-.7574-2.9369-.7574-1.1931,0-2.2.2732-3.021.8205-.8211.5479-1.4353,1.2636-1.8421,2.1477-.4074.8842-.6106,1.8313-.6106,2.8422v.3575c0,.9971.2,1.9368.6,2.8216.4001.8842,1.0211,1.6032,1.8632,2.1573.8422.5547,1.8875.8321,3.1369.8321,1.3333,0,2.4453-.3301,3.3369-.9896.8912-.6595,1.4559-1.5649,1.6947-2.7161h-1.8315c-.1264.5616-.4738,1.0355-1.0422,1.4211-.5683.3863-1.2877.5794-2.1579.5794-.842,0-1.5404-.1863-2.0947-.5582-.5547-.3719-.9684-.8766-1.2422-1.5156-.2343-.5468-.3674-1.1684-.4012-1.8635h8.9592v-.8842c0-.9684-.2-1.8662-.6-2.6942-.4001-.828-1.0037-1.495-1.8106-2.0005Zm-4.9474,1.495c.54-.365,1.2105-.5472,2.0104-.5472.7438,0,1.3822.1609,1.9159.4842.5332.3226.9296.7821,1.1895,1.3786.1713.3938.285.8331.3433,1.3156h-6.984c.0662-.4048.1701-.7808.3144-1.1259.2664-.639.67-1.1403,1.2105-1.5053Z"/><polygon points="108.958 94.4845 106.958 94.4845 104.3474 98.7368 104.0527 98.7368 101.2947 94.4845 99.1473 94.4845 102.8264 100.0436 98.9578 105.7052 100.958 105.7052 104.0316 101.116 104.3263 101.116 107.5264 105.7052 109.6738 105.7052 105.5361 99.8184 108.958 94.4845"/><polygon points="110.6422 94.4845 110.6422 96.0213 112.3686 96.0213 112.3686 105.7052 114.3055 105.7052 114.3055 96.0213 114.3055 94.4845 112.3686 94.4845 110.6422 94.4845"/><path d="m112.895,92.6319c.4208,0,.7436-.1123.9684-.337.2243-.2246.3368-.5267.3368-.9054,0-.3644-.1125-.6595-.3368-.8842-.2248-.224-.5476-.3369-.9684-.3369-.4212,0-.7405.113-.958.3369-.2178.2246-.3263.5267-.3263.9054,0,.365.1085.6595.3263.8841.2175.2247.5368.337.958.337Z"/><path d="m124.9792,100.2318c-.702-.5472-1.6772-.8842-2.9265-1.0108l-1.2209-.126c-.6457-.0699-1.1194-.2349-1.4211-.4945-.3019-.2595-.4525-.6075-.4525-1.0423,0-.5191.2137-.9403.6421-1.2629.428-.3233,1.0211-.4842,1.7789-.4842.7717,0,1.3648.1541,1.779.463.4138.3089.6349.7088.6631,1.1999h1.8317c-.0283-1.0663-.4248-1.8875-1.1895-2.4635-.7652-.5753-1.7932-.8629-3.0844-.8629-.8283,0-1.5615.137-2.2.4109-.6388.2733-1.1405.6664-1.5054,1.1787-.3652.5123-.5474,1.119-.5474,1.821,0,.9122.3191,1.6354.958,2.1683.6385.5335,1.5122.8629,2.621.9896l1.2422.126c.7859.0843,1.358.2603,1.7158.5267.3578.2664.5367.639.5367,1.1156,0,.5616-.2457,1.0177-.7367,1.3683-.4916.3513-1.1862.5267-2.0843.5267-.9405,0-1.6389-.1794-2.0947-.5369-.4563-.3582-.6916-.7965-.7054-1.3156h-1.8315c.0279,1.0944.4453,1.9546,1.2526,2.5785.807.6246,1.9333.9369,3.379.9369.898,0,1.7016-.1507,2.4106-.4527.7085-.3013,1.2595-.726,1.6526-1.2738.3928-.5472.5896-1.1574.5896-1.8313,0-.954-.351-1.7053-1.0527-2.2525Z"/><path d="m131.0633,91.0526h-1.8526v3.4318h-1.9581v1.4526h1.9581v6.0001c0,.9547.1579,1.7156.4736,2.284.3157.5685.7717.9787,1.3684,1.2314.5965.2527,1.3229.3794,2.1789.3794h1.7264v-1.7478h-1.979c-.6035,0-1.0737-.1644-1.4105-.4945-.3368-.3294-.5053-.8033-.5053-1.4211v-6.2316h3.8947v-1.4526h-3.8947v-3.4318Z"/><path d="m144.621,101.179c0,.9403-.2667,1.6882-.7999,2.2422-.5335.5547-1.2352.8314-2.1053.8314-.8284,0-1.4843-.2527-1.9685-.7574-.4842-.5054-.7263-1.2074-.7263-2.1053v-6.9267h-1.9369v6.5267c0,1.6279.3579,2.8771,1.0737,3.7469.7157.8705,1.7333,1.3053,3.0526,1.3053h.0841c1.3192,0,2.3159-.4383,2.9896-1.3156.3368-.4386.5894-.9761.7578-1.6127v2.5913h1.5369v-11.242h-1.9579v6.7157Z"/><path d="m151.0633,92.4635c.421,0,.74-.1158.9578-.3472.2174-.2315.3263-.5301.3263-.8951,0-.3787-.1089-.6766-.3263-.8944-.2178-.2178-.5368-.3267-.9578-.3267s-.7405.113-.958.337c-.2178.2246-.3264.5267-.3264.9054,0,.365.1085.6595.3264.8842.2174.2246.5368.337.958.337Z"/><path d="m148.8317,94.4845v1.5368h1.7894v10.5475c0,.5472-.1439.9643-.4314,1.2526-.2878.2869-.6984.4314-1.2315.4314h-1.2001v1.7471h.9052c.9263,0,1.6665-.1191,2.221-.3575.5544-.239.958-.6287,1.2105-1.1684.2527-.541.3791-1.2739.3791-2.2005v-11.7892h-3.6421Z"/><path d="m163.4736,94.8632c-.8071-.5054-1.7861-.7574-2.9367-.7574-1.1933,0-2.2002.2732-3.0212.8205-.821.5479-1.4353,1.2636-1.8421,2.1477-.4072.8842-.6106,1.8313-.6106,2.8422v.3575c0,.9971.2,1.9368.6,2.8216.4001.8842,1.0211,1.6032,1.8632,2.1573.8422.5547,1.8875.8321,3.1369.8321,1.3333,0,2.4455-.3301,3.3369-.9896.8912-.6595,1.4561-1.5649,1.6947-2.7161h-1.8315c-.1264.5616-.4738,1.0355-1.0422,1.4211-.5683.3863-1.2877.5794-2.1579.5794-.842,0-1.5404-.1863-2.0947-.5582-.5546-.3719-.9684-.8766-1.2422-1.5156-.2341-.5468-.3673-1.1684-.4012-1.8635h8.9592v-.8842c0-.9684-.2-1.8662-.6-2.6942-.4001-.828-1.0037-1.495-1.8106-2.0005Zm-4.9474,1.495c.5402-.365,1.2105-.5472,2.0106-.5472.7438,0,1.382.1609,1.9157.4842.5332.3226.9296.7821,1.1895,1.3786.1714.3938.285.8331.3433,1.3156h-6.984c.0662-.4048.1701-.7808.3144-1.1259.2664-.639.67-1.1403,1.2105-1.5053Z"/><path d="m168.3684,103.2212c-.337,0-.6178.1192-.8422.3582-.2247.2383-.3368.5335-.3368.8842s.1121.6451.3368.8842c.2245.2383.5052.3575.8422.3575.3368,0,.6174-.1192.842-.3575.2243-.239.3368-.5335.3368-.8842s-.1125-.6458-.3368-.8842c-.2247-.239-.5053-.3582-.842-.3582Z"/><path d="m190.0525,94.9372c-.9126-.5541-1.9721-.8314-3.179-.8314h-10.0634c-1.2071,0-2.2667.2774-3.1789.8314-.9126.5547-1.6074,1.2773-2.0842,2.1683-.4774.8917-.7159,1.8286-.7159,2.8107v.3575c0,.9828.2316,1.9197.6948,2.8106.4631.8917,1.1506,1.6142,2.0632,2.1683.9121.5547,1.9857.8321,3.2209.8321h10.0634c1.235,0,2.3085-.2774,3.2211-.8321.9123-.5541,1.6-1.2766,2.0632-2.1683.4632-.891.6948-1.8279.6948-2.8106v-.3575c0-.9821-.2389-1.919-.7159-2.8107-.4773-.891-1.172-1.6135-2.0842-2.1683Zm.3895,7.3157c-.3159.6458-.7826,1.1547-1.4,1.5265-.6177.3719-1.3405.5575-2.1685.5575s-1.551-.1856-2.1685-.5575c-.6178-.3719-1.0877-.8807-1.4105-1.5265-.3231-.6452-.4842-1.3684-.4842-2.1683s.1685-1.5231.5053-2.1683c.3368-.6458.8105-1.1512,1.4211-1.5163.6104-.3644,1.3227-.5472,2.1368-.5472.8001,0,1.5086.1829,2.1264.5472.6174.365,1.0912.8705,1.4211,1.5163.3296.6452.4946,1.3684.4946,2.1683s-.1579,1.5231-.4736,2.1683Z"/><path class="cls-1" d="m190.442,102.2529c-.3159.6458-.7826,1.1547-1.4,1.5265-.6177.3719-1.3405.5575-2.1685.5575s-1.551-.1856-2.1685-.5575c-.6178-.3719-1.0877-.8807-1.4105-1.5265-.3231-.6452-.4842-1.3684-.4842-2.1683s.1685-1.5231.5053-2.1683c.3368-.6458.8105-1.1512,1.4211-1.5163.6104-.3644,1.3227-.5472,2.1368-.5472.8001,0,1.5086.1829,2.1264.5472.6174.365,1.0912.8705,1.4211,1.5163.3296.6452.4946,1.3684.4946,2.1683s-.1579,1.5231-.4736,2.1683Z"/><path d="m200.8946,94.1475h-.0841c-1.3896,0-2.4316.439-3.1264,1.3156-.3534.4463-.6159.9963-.7895,1.6478v-2.6265h-1.5369v11.2208h1.9368v-6.7157c0-.9122.277-1.6491.8316-2.2101.5544-.5616,1.2875-.8424,2.2-.8424.8559,0,1.537.263,2.0421.7896.5054.526.758,1.2389.758,2.1368v6.8418h1.9368v-6.4206c0-1.6704-.3474-2.9442-1.042-3.8215-.6948-.8766-1.737-1.3156-3.1265-1.3156Z"/><polygon points="206.7261 90.337 206.7261 91.8738 208.3051 91.8738 208.3051 105.7052 210.2419 105.7052 210.2419 91.8738 210.2419 90.337 208.3051 90.337 206.7261 90.337"/><path d="m214.8525,92.6319c.421,0,.7438-.1123.9684-.337.2243-.2246.3368-.5267.3368-.9054,0-.3644-.1125-.6595-.3368-.8842-.2246-.224-.5474-.3369-.9684-.3369s-.7405.113-.958.3369c-.2176.2246-.3263.5267-.3263.9054,0,.365.1087.6595.3263.8841.2174.2247.5369.337.958.337Z"/><polygon points="212.5998 94.4845 212.5998 96.0213 214.3262 96.0213 214.3262 105.7052 216.263 105.7052 216.263 96.0213 216.263 94.4845 214.3262 94.4845 212.5998 94.4845"/><path d="m225.1895,94.1475h-.0843c-1.3894,0-2.4316.439-3.1263,1.3156-.3534.4462-.6158.9962-.7895,1.6475v-2.6262h-1.5368v11.2208h1.9368v-6.7157c0-.9122.277-1.6491.8316-2.2101.5542-.5616,1.2875-.8424,2.2-.8424.8559,0,1.5368.263,2.0421.7896.5052.526.758,1.2389.758,2.1368v6.8418h1.9368v-6.4206c0-1.6704-.3474-2.9442-1.0422-3.8215-.6947-.8766-1.7369-1.3156-3.1263-1.3156Z"/><path d="m242.6,99.5579c0-.9684-.2-1.8662-.6-2.6942-.4001-.828-1.0037-1.495-1.8106-2.0005-.8071-.5054-1.7861-.7574-2.9367-.7574-1.1932,0-2.2002.2732-3.0211.8205-.821.5479-1.4354,1.2636-1.8421,2.1477-.4072.8842-.6106,1.8313-.6106,2.8422v.3575c0,.9971.2,1.9368.6,2.8216.4001.8842,1.0211,1.6032,1.8632,2.1573.8422.5547,1.8875.8321,3.1369.8321,1.3333,0,2.4455-.3301,3.3369-.9896.8912-.6595,1.456-1.5649,1.6947-2.7161h-1.8315c-.1264.5616-.4738,1.0355-1.0422,1.4211-.5683.3863-1.2877.5794-2.1579.5794-.842,0-1.5404-.1863-2.0947-.5582-.5546-.3719-.9684-.8766-1.2422-1.5156-.2341-.5468-.3673-1.1684-.4012-1.8635h8.9592v-.8842Zm-7.358-3.1997c.5402-.365,1.2105-.5472,2.0106-.5472.7438,0,1.3821.1609,1.9158.4842.5332.3226.9295.7821,1.1895,1.3786.1713.3938.285.8331.3433,1.3156h-6.984c.0662-.4048.1701-.7808.3144-1.1259.2664-.639.67-1.1403,1.2105-1.5053Z"/></svg>