<?xml version="1.0" encoding="UTF-8"?><svg id="Vrstva_1" xmlns="http://www.w3.org/2000/svg" viewBox="0 0 330 200"><defs><style>.cls-1{fill:#b700ff;}</style></defs><g><path d="m111.0158,96.3543c1.1773.775,2.6391,1.1628,4.3859,1.1628,1.8642,0,3.4193-.4615,4.6655-1.3835,1.246-.922,2.0358-2.1877,2.3695-3.7967h-2.5608c-.1767.7851-.6624,1.4472-1.4572,1.9867-.7948.54-1.8005.8095-3.0171.8095-1.1773,0-2.1538-.2599-2.929-.7798-.7754-.5199-1.354-1.226-1.7366-2.1193-.3267-.7624-.5054-1.6349-.5531-2.6047h12.5187v-1.2361c0-1.3538-.2796-2.6095-.8391-3.767-.5592-1.1575-1.4031-2.0901-2.5314-2.7962-1.1287-.7066-2.4974-1.0594-4.1063-1.0594-1.6681,0-3.076.3825-4.2241,1.1475-1.1479.7655-2.0066,1.766-2.5754,3.002-.5695,1.2361-.8537,2.5607-.8537,3.9734v.5003c0,1.3936.2796,2.7076.8388,3.9442.5592,1.2361,1.4277,2.2418,2.6051,3.0164Zm-.2945-10.3303c.3727-.8928.937-1.5941,1.6928-2.1044.755-.5098,1.6925-.765,2.811-.765,1.0399,0,1.9326.2255,2.6786.6769.7457.4514,1.2999,1.0939,1.6633,1.9278.239.5493.3915,1.1665.473,1.8392h-9.7549c.0926-.5651.2348-1.0923.4363-1.5745Z"/><polygon points="137.7137 81.3 134.9174 81.3 131.2673 87.2453 130.8553 87.2453 126.9992 81.3 123.9967 81.3 129.1407 89.0722 123.7319 96.9872 126.5283 96.9872 130.8259 90.5709 131.2379 90.5709 135.7122 96.9872 138.7146 96.9872 132.9294 88.7568 137.7137 81.3"/><path d="m143.2181,78.7102c.5889,0,1.0399-.1565,1.354-.4711.3138-.3136.4711-.7358.4711-1.2653,0-.5098-.1573-.922-.4711-1.2361-.3141-.3136-.7651-.4711-1.354-.4711s-1.0351.1575-1.3392.4711c-.3045.314-.4563.7358-.4563,1.2653,0,.5108.1518.9225.4563,1.2361.304.3145.7505.4711,1.3392.4711Z"/><polygon points="142.4822 96.9872 145.1905 96.9872 145.1905 83.4485 145.1905 81.3 142.4822 81.3 140.0686 81.3 140.0686 83.4485 142.4822 83.4485 142.4822 96.9872"/><path d="m157.9949,94.3973c-.6871.4907-1.6585.7358-2.9141.7358-1.315,0-2.2915-.2504-2.929-.7506-.6377-.5003-.9667-1.1135-.9861-1.8392h-2.5608c.039,1.5305.6227,2.7325,1.7514,3.6052,1.1283.8727,2.703,1.3098,4.7244,1.3098,1.2556,0,2.3793-.2111,3.3704-.6329.9906-.4218,1.761-1.0154,2.3106-1.7808.5492-.765.8242-1.6185.8242-2.5602,0-1.3342-.4908-2.384-1.4718-3.1495-.9815-.765-2.3453-1.2361-4.0915-1.4127l-1.7074-.1766c-.903-.0977-1.5652-.3279-1.987-.6913-.4223-.3629-.633-.8488-.633-1.4572,0-.7253.2992-1.3141.898-1.7655.5982-.4514,1.4275-.6769,2.4873-.6769,1.0789,0,1.9082.2159,2.4873.6472.5786.4318.8877.9909.9272,1.6774h2.561c-.0397-1.4907-.5939-2.6387-1.6633-3.4434-1.0696-.8042-2.5069-1.2064-4.3122-1.2064-1.1582,0-2.1833.191-3.076.574-.8932.3825-1.5946.9321-2.1048,1.6478-.5104.7166-.7653,1.5649-.7653,2.5458,0,1.2758.4462,2.2864,1.3394,3.0317.8927.7458,2.1143,1.2064,3.6646,1.383l1.7368.1766c1.0988.1178,1.8986.3633,2.399.7358.5003.3729.7507.8933.7507,1.5601,0,.7846-.3438,1.4228-1.0304,1.913Z"/><path d="m168.6209,76.5028h-2.5905v4.7972h-2.7375v2.0307h2.7375v8.3881c0,1.3347.2207,2.3989.6624,3.1935.4414.7947,1.0789,1.3682,1.9132,1.7215.8338.3533,1.8496.5299,3.0468.5299h2.4136v-2.4429h-2.7669c-.8439,0-1.5012-.2303-1.9721-.6917-.4711-.4605-.7065-1.1231-.7065-1.9867v-8.7117h5.4455v-2.0307h-5.4455v-4.7972Z"/><path d="m187.5771,90.6595c0,1.3146-.373,2.3596-1.1184,3.1342-.7462.7755-1.7272,1.1628-2.9436,1.1628-1.1582,0-2.0753-.3533-2.7523-1.0594-.677-.7066-1.0155-1.6875-1.0155-2.9432v-9.6831h-2.708v9.1239c0,2.2763.5003,4.0222,1.501,5.2386,1.0009,1.2169,2.4236,1.8249,4.2684,1.8249h.1178c1.8443,0,3.2378-.6132,4.1798-1.8397.4709-.6129.824-1.3645,1.0596-2.2546v3.6233h2.1488v-15.7163h-2.7375v9.3886Z"/><path d="m196.3341,102.491c.7749-.3341,1.3394-.8784,1.6928-1.6334.3531-.7559.5298-1.7808.5298-3.0758v-16.4818h-5.0924v2.1485h2.5019v14.7455c0,.765-.2013,1.3486-.6033,1.7512-.4027.4016-.9765.6032-1.7222.6032h-1.6777v2.4429h1.2657c1.2951,0,2.33-.1671,3.1054-.5003Z"/><path d="m196.5843,78.4746c.5889,0,1.0349-.1618,1.3394-.4854.304-.3236.4563-.7406.4563-1.2509,0-.5299-.1523-.9464-.4563-1.2509-.3045-.304-.7505-.4562-1.3394-.4562s-1.0351.1575-1.3392.4711c-.3045.314-.4563.7358-.4563,1.2653,0,.5108.1518.9225.4563,1.2365.304.314.7505.4706,1.3392.4706Z"/><path d="m213.9363,81.83c-1.1287-.7066-2.4974-1.0594-4.1063-1.0594-1.6681,0-3.076.3825-4.2239,1.1475-1.1481.7655-2.0066,1.766-2.5756,3.002-.5695,1.2361-.8537,2.5607-.8537,3.9734v.5003c0,1.3936.2796,2.7076.8391,3.9442.5592,1.2361,1.4275,2.2418,2.6048,3.0164,1.1776.775,2.6393,1.1628,4.3859,1.1628,1.8642,0,3.4193-.4615,4.6655-1.3835,1.246-.922,2.0358-2.1877,2.3698-3.7967h-2.561c-.1767.7851-.6622,1.4472-1.457,1.9867-.7948.54-1.8007.8095-3.0173.8095-1.1773,0-2.1538-.2599-2.9287-.7798-.7756-.5199-1.354-1.226-1.7368-2.1193-.3267-.7624-.5051-1.6349-.5529-2.6047h12.5185v-1.2361c0-1.3538-.2796-2.6095-.8388-3.767s-1.4033-2.0901-2.5316-2.7962Zm-9.0461,5.7686c.0926-.5651.2348-1.0923.4363-1.5745.3725-.8928.9367-1.5941,1.6925-2.1044.755-.5098,1.6925-.765,2.811-.765,1.0399,0,1.9329.2255,2.6788.6769.7455.4514,1.2997,1.0939,1.6631,1.9278.239.5493.3916,1.1665.4733,1.8392h-9.7549Z"/><path d="m221.9574,94.0148c-.3141-.3337-.7065-.5007-1.1776-.5007-.4709,0-.8637.1671-1.1773.5007-.3141.3337-.4709.7458-.4709,1.2361,0,.4907.1568.9024.4709,1.2361.3136.3337.7065.5003,1.1773.5003.4711,0,.8635-.1666,1.1776-.5003.3136-.3337.4709-.7454.4709-1.2361,0-.4902-.1573-.9024-.4709-1.2361Z"/><path d="m134.4467,109.3846c-1.276-.7746-2.7573-1.1623-4.4448-1.1623h-14.0704c-1.688,0-3.1693.3878-4.4446,1.1623-1.276.7755-2.2474,1.7856-2.9144,3.0317-.6672,1.2461-1.0007,2.5559-1.0007,3.9288v.5003c0,1.3739.3237,2.6832.9715,3.9293.6473,1.2461,1.6087,2.2567,2.8847,3.0312,1.2753.775,2.7765,1.1628,4.5035,1.1628h14.0704c1.7265,0,3.2277-.3878,4.5037-1.1628,1.2753-.7746,2.2369-1.7851,2.8847-3.0312.6476-1.2461.9712-2.5554.9712-3.9293v-.5003c0-1.373-.334-2.6827-1.0007-3.9288-.6674-1.2461-1.6389-2.2562-2.9141-3.0317Zm.5444,10.2274c-.4414.9029-1.094,1.6142-1.9573,2.1341-.8637.5199-1.8745.7798-3.0319.7798-1.1582,0-2.1687-.2599-3.0319-.7798-.8637-.5199-1.5211-1.2313-1.9721-2.1341-.4517-.9019-.677-1.913-.677-3.0312s.2353-2.1289.7065-3.0312c.4709-.9024,1.1331-1.609,1.9867-2.1193.8537-.5098,1.8496-.765,2.9879-.765,1.1184,0,2.1093.2552,2.973.765.8633.5103,1.5254,1.2169,1.987,2.1193.4606.9024.6916,1.913.6916,3.0312s-.2207,2.1293-.6624,3.0312Z"/><path class="cls-1" d="m134.9911,119.6119c-.4414.9029-1.094,1.6142-1.9573,2.1341-.8637.5199-1.8745.7798-3.0319.7798-1.1582,0-2.1687-.2599-3.0319-.7798-.8637-.5199-1.5211-1.2313-1.9721-2.1341-.4517-.9019-.677-1.913-.677-3.0312s.2353-2.1289.7065-3.0312c.4709-.9024,1.1331-1.609,1.9867-2.1193.8537-.5098,1.8496-.765,2.9879-.765,1.1184,0,2.1093.2552,2.973.765.8633.5103,1.5254,1.2169,1.987,2.1193.4606.9024.6916,1.913.6916,3.0312s-.2207,2.1293-.6624,3.0312Z"/><path d="m149.6059,108.2811h-.1178c-1.9427,0-3.3999.6132-4.3711,1.8392-.4941.6238-.8611,1.3926-1.1038,2.3031v-3.6717h-2.1488v15.6871h2.708v-9.3886c0-1.2753.3873-2.3055,1.1627-3.0901.7749-.7846,1.8002-1.1776,3.076-1.1776,1.1967,0,2.1488.3681,2.8553,1.1039s1.0598,1.732,1.0598,2.9872v9.5653h2.708v-8.9765c0-2.3347-.4857-4.1155-1.4572-5.342-.9712-1.226-2.4284-1.8392-4.3711-1.8392Z"/><polygon points="157.7594 102.9539 157.7594 105.1024 159.9671 105.1024 159.9671 124.4389 162.6751 124.4389 162.6751 105.1024 162.6751 102.9539 159.9671 102.9539 157.7594 102.9539"/><path d="m170.4755,105.6908c.3136-.3136.4709-.7358.4709-1.2653,0-.5098-.1573-.922-.4709-1.2361-.3141-.3136-.7653-.4711-1.354-.4711s-1.0354.1575-1.3394.4711c-.3045.314-.4563.7358-.4563,1.2653,0,.5108.1518.9225.4563,1.2361.304.3145.7505.4711,1.3394.4711s1.0399-.1565,1.354-.4711Z"/><polygon points="165.9718 108.7517 165.9718 110.9002 168.3856 110.9002 168.3856 124.4389 171.0936 124.4389 171.0936 110.9002 171.0936 108.7517 168.3856 108.7517 165.9718 108.7517"/><path d="m183.5744,108.2811h-.1178c-1.9427,0-3.3999.6132-4.3711,1.8392-.4942.624-.8613,1.3932-1.1041,2.3041v-3.6728h-2.1488v15.6871h2.7083v-9.3886c0-1.2753.3871-2.3055,1.1627-3.0901.7749-.7846,1.8-1.1776,3.076-1.1776,1.1967,0,2.1488.3681,2.8553,1.1039s1.0596,1.732,1.0596,2.9872v9.5653h2.7083v-8.9765c0-2.3347-.4857-4.1155-1.4572-5.342-.9715-1.226-2.4284-1.8392-4.3711-1.8392Z"/><path d="m204.547,109.2817c-1.1287-.7066-2.4974-1.0594-4.1063-1.0594-1.6681,0-3.076.3825-4.2241,1.1475-1.1479.7655-2.0066,1.766-2.5754,3.002-.5695,1.2361-.8537,2.5607-.8537,3.9734v.5003c0,1.3936.2796,2.7076.8388,3.9442.5592,1.2361,1.4277,2.2418,2.6051,3.0164,1.1773.775,2.6391,1.1628,4.3859,1.1628,1.8642,0,3.4193-.4615,4.6655-1.3835,1.246-.922,2.0358-2.1877,2.3695-3.7967h-2.5608c-.1767.7851-.6624,1.4472-1.4572,1.9867-.7948.54-1.8005.8095-3.0171.8095-1.1773,0-2.1538-.2599-2.929-.7798-.7754-.5199-1.354-1.226-1.7366-2.1193-.3267-.7624-.5054-1.6349-.5531-2.6047h12.5187v-1.2361c0-1.3538-.2796-2.6095-.8391-3.767-.5592-1.1575-1.4031-2.0901-2.5314-2.7962Zm-9.0463,5.7686c.0926-.5651.2348-1.0923.4363-1.5745.3727-.8928.937-1.5941,1.6928-2.1044.755-.5098,1.6925-.765,2.811-.765,1.0399,0,1.9326.2255,2.6786.6769.7457.4514,1.2999,1.0939,1.6633,1.9278.239.5493.3915,1.1665.4731,1.8392h-9.755Z"/></g><path class="cls-1" d="m247.4594,150H82.5406v-25.0936h164.9189v25.0936Zm-164.794-.1248h164.6692v-24.8439H82.6654v24.8439Z"/><path class="cls-1" d="m107.6342,150h-25.0936V50h25.0936v100Zm-24.9688-.1248h24.8439V50.1248h-24.8439v99.7503Z"/><path class="cls-1" d="m247.4594,150h-25.0936V50h25.0936v100Zm-24.9688-.1248h24.8439V50.1248h-24.8439v99.7503Z"/><path class="cls-1" d="m247.4594,75.0936H82.5406v-25.0936h164.9189v25.0936Zm-164.794-.1248h164.6692v-24.8439H82.6654v24.8439Z"/></svg>