<?xml version="1.0" encoding="UTF-8"?><svg id="Vrstva_1" xmlns="http://www.w3.org/2000/svg" viewBox="0 0 488 200"><defs><style>.cls-1{fill:#b700ff;}</style></defs><path d="m71.0265,87.158c-2.0182-1.2635-4.4653-1.8936-7.3423-1.8936-2.9827,0-5.5.6831-7.5525,2.0511-2.0529,1.3698-3.5883,3.1589-4.6052,5.3693-1.0184,2.2104-1.5265,4.5784-1.5265,7.1055v.8938c0,2.4929.5,4.8419,1.4999,7.054,1.0004,2.2104,2.5529,4.0081,4.658,5.3932,2.1056,1.3868,4.7189,2.0803,7.8423,2.0803,3.3333,0,6.1133-.8253,8.3422-2.4741,2.228-1.6487,3.6398-3.9122,4.2368-6.7903h-4.5787c-.3159,1.404-1.1844,2.5888-2.6056,3.5527-1.4207.9657-3.2194,1.4485-5.3947,1.4485-2.1051,0-3.8511-.4657-5.2367-1.3954-1.3868-.9297-2.421-2.1915-3.1055-3.7889-.5857-1.3669-.9186-2.9209-1.0031-4.6588h22.3981v-2.2104c0-2.421-.5-4.6656-1.4999-6.7356-1.0004-2.07-2.5093-3.7376-4.5266-5.0012Zm-12.3684,3.7376c1.3501-.9125,3.0264-1.368,5.0261-1.368,1.8594,0,3.4556.4023,4.7898,1.2105,1.333.8064,2.324,1.9553,2.9736,3.4465.4282.9845.7124,2.0826.8582,3.2891h-17.46c.1655-1.012.4252-1.952.786-2.8148.666-1.5974,1.6749-2.8507,3.0262-3.7633Z"/><polygon points="103.8949 86.2112 98.8949 86.2112 92.3685 96.842 91.6318 96.842 84.7368 86.2112 79.3683 86.2112 88.5659 100.109 78.8944 114.2631 83.8949 114.2631 91.5791 102.79 92.3158 102.79 100.316 114.2631 105.6846 114.2631 95.3403 99.5459 103.8949 86.2112"/><polygon points="108.1056 86.2112 108.1056 90.0533 112.4215 90.0533 112.4215 114.2631 117.2637 114.2631 117.2637 90.0533 117.2637 86.2112 112.4215 86.2112 108.1056 86.2112"/><path d="m113.7374,81.5798c1.0521,0,1.859-.2808,2.421-.8424.5607-.5615.8419-1.3167.8419-2.2634,0-.9109-.2812-1.6488-.8419-2.2104-.562-.5599-1.3689-.8423-2.421-.8423-1.053,0-1.8513.2825-2.395.8423-.5444.5616-.8158,1.3167-.8158,2.2635,0,.9125.2714,1.6488.8158,2.2103.5437.5616,1.342.8424,2.395.8424Z"/><path d="m143.948,100.5796c-1.755-1.368-4.1931-2.2104-7.3162-2.5271l-3.0524-.3151c-1.6141-.1747-2.7986-.5873-3.5527-1.2362-.7546-.6489-1.1313-1.5187-1.1313-2.6058,0-1.2979.5342-2.3508,1.6052-3.1572,1.0701-.8082,2.5527-1.2105,4.4473-1.2105,1.9292,0,3.412.3852,4.4475,1.1574,1.0345.7722,1.5872,1.7721,1.6577,2.9997h4.5793c-.0707-2.6658-1.062-4.7187-2.9736-6.1586-1.913-1.4382-4.4829-2.1573-7.7109-2.1573-2.0708,0-3.9037.3425-5.4999,1.0273-1.597.6832-2.8512,1.6659-3.7634,2.9467-.913,1.2806-1.3684,2.7976-1.3684,4.5526,0,2.2805.7979,4.0886,2.3949,5.4207,1.5962,1.3337,3.7805,2.1573,6.5525,2.4741l3.1055.315c1.9647.2106,3.3949.6506,4.2896,1.3167.8945.666,1.3418,1.5974,1.3418,2.7891,0,1.404-.6143,2.5443-1.8418,3.4208-1.229.8784-2.9656,1.3167-5.2107,1.3167-2.3512,0-4.0972-.4485-5.2367-1.3423-1.1407-.8955-1.7289-1.9912-1.7635-3.2891h-4.5787c.0697,2.736,1.1133,4.8865,3.1315,6.4463,2.0175,1.5615,4.8331,2.3422,8.4475,2.3422,2.2451,0,4.254-.3766,6.0265-1.1317,1.7714-.7533,3.1488-1.8149,4.1315-3.1846.9819-1.368,1.4739-2.8936,1.4739-4.5783,0-2.3851-.8776-4.2632-2.6317-5.6313Z"/><path d="m159.1582,77.6316h-4.6315v8.5796h-4.8951v3.6315h4.8951v15.0002c0,2.3867.3947,4.2889,1.1841,5.71.7893,1.4211,1.9292,2.4467,3.4209,3.0785,1.4913.6318,3.3071.9485,5.4473.9485h4.316v-4.3694h-4.9474c-1.5088,0-2.6843-.4109-3.5262-1.2362-.8419-.8235-1.2632-2.0083-1.2632-3.5527v-15.5789h9.7368v-3.6315h-9.7368v-8.5796Z"/><path d="m193.0526,102.9475c0,2.3508-.6669,4.2205-1.9998,5.6056-1.3339,1.3868-3.0879,2.0786-5.2633,2.0786-2.0709,0-3.7107-.6318-4.9213-1.8936-1.2104-1.2636-1.8157-3.0186-1.8157-5.2632v-17.3167h-4.8422v16.3168c0,4.0698.8947,7.1927,2.6843,9.3672,1.7892,2.1761,4.3331,3.2633,7.6316,3.2633h.2102c3.2981,0,5.7898-1.0957,7.4741-3.289.842-1.0964,1.4735-2.4402,1.8945-4.0317v6.4783h3.8422v-28.105h-4.8948v16.7894Z"/><path d="m209.1583,81.1587c1.0525,0,1.85-.2894,2.3945-.8681.5436-.5787.8158-1.3252.8158-2.2378,0-.9468-.2722-1.6916-.8158-2.236-.5446-.5445-1.342-.8168-2.3945-.8168s-1.8513.2825-2.3949.8424c-.5446.5616-.8159,1.3167-.8159,2.2634,0,.9126.2714,1.6488.8159,2.2104.5436.5616,1.3419.8424,2.3949.8424Z"/><path d="m203.5792,86.2112v3.8421h4.4734v26.3688c0,1.368-.3599,2.4108-1.0786,3.1316-.7195.7173-1.746,1.0786-3.0789,1.0786h-3.0002v4.3677h2.2631c2.3158,0,4.1661-.2979,5.5526-.8937,1.386-.5975,2.3949-1.5718,3.0264-2.921.6317-1.3526.9476-3.1846.9476-5.5012v-29.473h-9.1053Z"/><path d="m240.184,87.158c-2.0178-1.2635-4.4653-1.8936-7.3418-1.8936-2.9832,0-5.5005.6831-7.553,2.0511-2.0525,1.3698-3.5883,3.1589-4.6052,5.3693-1.0179,2.2104-1.5265,4.5784-1.5265,7.1055v.8938c0,2.4929.5,4.8419,1.4999,7.054,1.0004,2.2104,2.5529,4.0081,4.658,5.3932,2.1056,1.3868,4.7189,2.0803,7.8423,2.0803,3.3333,0,6.1138-.8253,8.3422-2.4741,2.228-1.6487,3.6401-3.9122,4.2368-6.7903h-4.5787c-.3159,1.404-1.1844,2.5888-2.6056,3.5527-1.4207.9657-3.2194,1.4485-5.3947,1.4485-2.1051,0-3.8511-.4657-5.2367-1.3954-1.3865-.9297-2.421-2.1915-3.1055-3.7889-.5853-1.3669-.9183-2.9209-1.0031-4.6588h22.3981v-2.2104c0-2.421-.5-4.6656-1.4999-6.7356-1.0004-2.07-2.5093-3.7376-4.5266-5.0012Zm-12.3684,3.7376c1.3506-.9125,3.0264-1.368,5.0266-1.368,1.8594,0,3.4551.4023,4.7893,1.2105,1.333.8064,2.324,1.9553,2.9736,3.4465.4285.9845.7125,2.0826.8583,3.2891h-17.4601c.1655-1.012.4252-1.952.786-2.8148.666-1.5974,1.6749-2.8507,3.0262-3.7633Z"/><path d="m252.421,108.0531c-.8425,0-1.5444.298-2.1056.8955-.5616.5958-.8419,1.3337-.8419,2.2104s.2803,1.6129.8419,2.2104c.5612.5958,1.2631.8937,2.1056.8937.8419,0,1.5435-.2979,2.1051-.8937.5607-.5975.8419-1.3337.8419-2.2104s-.2812-1.6146-.8419-2.2104c-.5616-.5975-1.2632-.8955-2.1051-.8955Z"/><path d="m306.6313,87.343c-2.2815-1.3851-4.9303-2.0786-7.9476-2.0786h-25.1584c-3.0177,0-5.6669.6934-7.9471,2.0786-2.2815,1.3868-4.0186,3.1932-5.2106,5.4207-1.1935,2.2292-1.7897,4.5715-1.7897,7.0267v.8938c0,2.4569.5791,4.7991,1.7371,7.0266,1.1578,2.2292,2.8765,4.0355,5.158,5.4207,2.2802,1.3868,4.9644,2.0803,8.0524,2.0803h25.1584c3.0875,0,5.7714-.6935,8.0528-2.0803,2.2806-1.3851,4.0001-3.1914,5.158-5.4207,1.1579-2.2275,1.7371-4.5697,1.7371-7.0266v-.8938c0-2.4552-.5972-4.7975-1.7897-7.0267-1.1934-2.2275-2.9299-4.0338-5.2106-5.4207Zm.9738,18.2892c-.7897,1.6145-1.9565,2.8867-3.5001,3.8163-1.5444.9297-3.3512,1.3937-5.4212,1.3937s-3.8776-.4641-5.4212-1.3937c-1.5444-.9297-2.7194-2.2018-3.5262-3.8163-.8077-1.6129-1.2106-3.4209-1.2106-5.4207s.4213-3.8078,1.2632-5.4207c.842-1.6145,2.0264-2.8781,3.5529-3.7906,1.526-.9109,3.3066-1.368,5.342-1.368,2.0003,0,3.7715.4572,5.3159,1.368,1.5435.9126,2.728,2.1761,3.5528,3.7906.824,1.6129,1.2366,3.4209,1.2366,5.4207s-.3947,3.8078-1.184,5.4207Z"/><path class="cls-1" d="m307.6051,105.6322c-.7897,1.6145-1.9565,2.8867-3.5001,3.8163-1.5444.9297-3.3512,1.3937-5.4212,1.3937s-3.8776-.4641-5.4212-1.3937c-1.5444-.9297-2.7194-2.2018-3.5262-3.8163-.8077-1.6129-1.2106-3.4209-1.2106-5.4207s.4213-3.8078,1.2632-5.4207c.842-1.6145,2.0264-2.8781,3.5529-3.7906,1.526-.9109,3.3066-1.368,5.342-1.368,2.0003,0,3.7715.4572,5.3159,1.368,1.5435.9126,2.728,2.1761,3.5528,3.7906.824,1.6129,1.2366,3.4209,1.2366,5.4207s-.3947,3.8078-1.184,5.4207Z"/><path d="m333.7365,85.3688h-.2101c-3.474,0-6.0791,1.0975-7.8161,3.289-.8835,1.1157-1.5397,2.4908-1.9738,4.1196v-6.5662h-3.8422v28.0519h4.8421v-16.7894c0-2.2806.6926-4.1229,2.079-5.5251,1.386-1.4039,3.2189-2.106,5.4999-2.106,2.1398,0,3.8426.6575,5.1053,1.9741,1.2636,1.3149,1.895,3.0973,1.895,5.3419v17.1044h4.842v-16.0515c0-4.1759-.8685-7.3605-2.6051-9.5538-1.737-2.1915-4.3425-3.289-7.8162-3.289Z"/><polygon points="348.3153 75.8424 348.3153 79.6844 352.2628 79.6844 352.2628 114.2631 357.1049 114.2631 357.1049 79.6844 357.1049 75.8424 352.2628 75.8424 348.3153 75.8424"/><path d="m368.6312,81.5798c1.0526,0,1.8595-.2808,2.421-.8424.5608-.5615.842-1.3167.842-2.2634,0-.9109-.2812-1.6488-.842-2.2104-.5615-.5599-1.3684-.8423-2.421-.8423s-1.8513.2825-2.3949.8423c-.5441.5616-.8159,1.3167-.8159,2.2635,0,.9125.2718,1.6488.8159,2.2103.5436.5616,1.3423.8424,2.3949.8424Z"/><polygon points="362.9995 86.2112 362.9995 90.0533 367.3154 90.0533 367.3154 114.2631 372.1575 114.2631 372.1575 90.0533 372.1575 86.2112 367.3154 86.2112 362.9995 86.2112"/><path d="m394.4737,85.3688h-.2106c-3.4736,0-6.0791,1.0975-7.8157,3.289-.8834,1.1155-1.5396,2.4904-1.9738,4.1188v-6.5654h-3.8421v28.0519h4.8421v-16.7894c0-2.2806.6925-4.1229,2.079-5.5251,1.3856-1.4039,3.2189-2.106,5.5-2.106,2.1398,0,3.8421.6575,5.1053,1.9741,1.2631,1.3149,1.895,3.0973,1.895,5.3419v17.1044h4.842v-16.0515c0-4.1759-.8685-7.3605-2.6055-9.5538-1.7366-2.1915-4.3422-3.289-7.8157-3.289Z"/><path d="m438,98.8948c0-2.421-.4999-4.6656-1.4999-6.7356-1.0004-2.07-2.5092-3.7376-4.5266-5.0012-2.0178-1.2635-4.4653-1.8936-7.3418-1.8936-2.983,0-5.5004.6831-7.5529,2.0511-2.0525,1.3698-3.5884,3.1589-4.6053,5.3693-1.0179,2.2104-1.5265,4.5784-1.5265,7.1055v.8938c0,2.4929.5,4.8419,1.4999,7.054,1.0004,2.2104,2.5529,4.0081,4.658,5.3932,2.1055,1.3868,4.7188,2.0803,7.8422,2.0803,3.3333,0,6.1138-.8253,8.3422-2.4741,2.228-1.6487,3.6401-3.9122,4.2368-6.7903h-4.5787c-.3159,1.404-1.1844,2.5888-2.6056,3.5527-1.4207.9657-3.2193,1.4485-5.3947,1.4485-2.1051,0-3.8511-.4657-5.2367-1.3954-1.3865-.9297-2.421-2.1915-3.1055-3.7889-.5853-1.3669-.9183-2.9209-1.0029-4.6588h22.3979v-2.2104Zm-18.3949-7.9992c1.3505-.9125,3.0264-1.368,5.0266-1.368,1.8594,0,3.4552.4023,4.7894,1.2105,1.3329.8064,2.3239,1.9553,2.9736,3.4465.4283.9845.7125,2.0826.8582,3.2891h-17.4601c.1655-1.012.4252-1.952.786-2.8148.666-1.5974,1.6749-2.8507,3.0262-3.7633Z"/></svg>