<?xml version="1.0" encoding="UTF-8"?><svg id="Vrstva_1" xmlns="http://www.w3.org/2000/svg" viewBox="0 0 330 200"><defs><style>.cls-1{fill:#b700ff;}</style></defs><path d="m110.9482,96.3498c1.1788.776,2.6424,1.1643,4.3914,1.1643,1.8665,0,3.4235-.4621,4.6714-1.3852,1.2476-.9232,2.0384-2.1905,2.3725-3.8015h-2.564c-.1769.7861-.6632,1.449-1.459,1.9892-.7958.5407-1.8027.8105-3.0209.8105-1.1788,0-2.1565-.2603-2.9326-.7808-.7764-.5205-1.3557-1.2275-1.7387-2.1219-.3271-.7633-.506-1.637-.5538-2.608h12.5344v-1.2376c0-1.3555-.28-2.6128-.8401-3.7717-.5599-1.159-1.4048-2.0927-2.5345-2.7997-1.1302-.7075-2.5005-1.0607-4.1115-1.0607-1.6702,0-3.0798.383-4.2294,1.1489-1.1493.7664-2.0091,1.7682-2.5786,3.0058-.5702,1.2376-.8547,2.5639-.8547,3.9783v.5009c0,1.3953.28,2.711.8399,3.9491.5599,1.2376,1.4295,2.2446,2.6083,3.0202Zm-.2948-10.3432c.3732-.8939.9382-1.5961,1.6949-2.1071.756-.5105,1.6946-.7659,2.8145-.7659,1.0412,0,1.935.2258,2.6819.6778.7466.452,1.3015,1.0952,1.6654,1.9302.2393.55.392,1.168.4736,1.8415h-9.7671c.0928-.5658.2351-1.0937.4368-1.5765Z"/><polygon points="137.6795 81.2767 134.8797 81.2767 131.2251 87.2293 130.8126 87.2293 126.9516 81.2767 123.9453 81.2767 129.0958 89.0585 123.6802 96.9834 126.4801 96.9834 130.7831 90.5591 131.1956 90.5591 135.6755 96.9834 138.6817 96.9834 132.8893 88.7428 137.6795 81.2767"/><path d="m143.1908,78.6836c.5896,0,1.0412-.1567,1.3557-.4716.3142-.314.4717-.7367.4717-1.2668,0-.5105-.1575-.9232-.4717-1.2376-.3145-.314-.7661-.4716-1.3557-.4716s-1.0364.1577-1.3408.4716c-.3049.3144-.4569.7367-.4569,1.2668,0,.5114.152.9236.4569,1.2376.3044.3149.7514.4716,1.3408.4716Z"/><polygon points="142.454 96.9834 145.1656 96.9834 145.1656 83.4278 145.1656 81.2767 142.454 81.2767 140.0374 81.2767 140.0374 83.4278 142.454 83.4278 142.454 96.9834"/><path d="m157.9861,94.3903c-.6879.4913-1.6606.7367-2.9178.7367-1.3166,0-2.2943-.2507-2.9326-.7516-.6385-.5009-.9679-1.1149-.9873-1.8415h-2.564c.0391,1.5324.6234,2.7359,1.7536,3.6097,1.1297.8738,2.7064,1.3114,4.7303,1.3114,1.2572,0,2.3823-.2114,3.3746-.6337.9919-.4223,1.7632-1.0166,2.3135-1.7831.5499-.7659.8253-1.6206.8253-2.5634,0-1.3359-.4914-2.387-1.4736-3.1534-.9827-.7659-2.3483-1.2376-4.0966-1.4145l-1.7095-.1769c-.9041-.0978-1.5671-.3283-1.9895-.6921-.4228-.3633-.6337-.8498-.6337-1.459,0-.7262.2996-1.3157.8991-1.7677.599-.452,1.4293-.6778,2.4904-.6778,1.0803,0,1.9106.2162,2.4904.648.5793.4323.8888.9922.9283,1.6795h2.5642c-.0398-1.4926-.5947-2.642-1.6654-3.4477-1.0709-.8053-2.5101-1.2079-4.3176-1.2079-1.1596,0-2.186.1912-3.0798.5747-.8943.383-1.5966.9332-2.1074,1.6498-.511.7175-.7663,1.5669-.7663,2.549,0,1.2774.4468,2.2892,1.3411,3.0355.8938.7468,2.117,1.2079,3.6692,1.3847l1.739.1769c1.1002.1179,1.901.3638,2.402.7367.501.3734.7517.8944.7517,1.5621,0,.7856-.3442,1.4245-1.0316,1.9154Z"/><path d="m168.6254,76.4734h-2.5937v4.8032h-2.7409v2.0333h2.7409v8.3986c0,1.3363.221,2.4019.6632,3.1975.442.7957,1.0803,1.3699,1.9156,1.7236.8349.3537,1.8519.5306,3.0506.5306h2.4166v-2.446h-2.7704c-.8449,0-1.5031-.2306-1.9746-.6926-.4717-.4611-.7073-1.1245-.7073-1.9892v-8.7226h5.4523v-2.0333h-5.4523v-4.8032Z"/><path d="m187.6052,90.6478c0,1.3162-.3734,2.3626-1.1198,3.1381-.7471.7765-1.7294,1.1643-2.9473,1.1643-1.1596,0-2.0779-.3537-2.7558-1.0607-.6779-.7075-1.0168-1.6896-1.0168-2.9468v-9.6952h-2.7114v9.1353c0,2.2792.501,4.0272,1.5029,5.2452,1.0022,1.2184,2.4267,1.8272,4.2737,1.8272h.1179c1.8466,0,3.2419-.614,4.185-1.842.4715-.6137.825-1.3662,1.0609-2.2575v3.6278h2.1515v-15.736h-2.7409v9.4004Z"/><path d="m196.3732,102.4941c.7759-.3346,1.3411-.8795,1.6949-1.6354.3535-.7568.5304-1.7831.5304-3.0796v-16.5024h-5.0988v2.1512h2.505v14.7639c0,.7659-.2016,1.3502-.604,1.7533-.4032.4021-.9777.6039-1.7244.6039h-1.6798v2.446h1.2673c1.2967,0,2.3329-.1673,3.1093-.5009Z"/><path d="m196.6237,78.4477c.5896,0,1.0362-.162,1.3411-.486.3044-.324.4569-.7415.4569-1.2525,0-.5306-.1524-.9476-.4569-1.2525-.3049-.3044-.7514-.4568-1.3411-.4568s-1.0364.1577-1.3408.4716c-.3049.3144-.4569.7367-.4569,1.2668,0,.5114.152.9236.4569,1.2381.3044.3144.7514.4712,1.3408.4712Z"/><path d="m213.9974,81.8073c-1.1302-.7075-2.5005-1.0607-4.1115-1.0607-1.6702,0-3.0798.383-4.2291,1.1489-1.1496.7664-2.0091,1.7682-2.5789,3.0058-.5702,1.2376-.8547,2.5639-.8547,3.9783v.5009c0,1.3953.28,2.711.8401,3.9491.5599,1.2376,1.4293,2.2446,2.6081,3.0202,1.1791.776,2.6426,1.1643,4.3914,1.1643,1.8665,0,3.4235-.4621,4.6714-1.3852,1.2476-.9232,2.0384-2.1905,2.3727-3.8015h-2.5642c-.1769.7861-.663,1.449-1.4588,1.9892-.7958.5407-1.803.8105-3.0211.8105-1.1788,0-2.1565-.2603-2.9324-.7808-.7766-.5205-1.3557-1.2275-1.739-2.1219-.3271-.7633-.5058-1.637-.5536-2.608h12.5342v-1.2376c0-1.3555-.28-2.6128-.8399-3.7717s-1.4051-2.0927-2.5348-2.7997Zm-9.0574,5.7758c.0928-.5658.2351-1.0937.4368-1.5765.373-.8939.9379-1.5961,1.6946-2.1071.756-.5105,1.6946-.7659,2.8145-.7659,1.0412,0,1.9353.2258,2.6822.6778.7464.452,1.3013,1.0952,1.6651,1.9302.2393.55.3921,1.168.4739,1.8415h-9.7671Z"/><path d="m222.0285,94.0073c-.3145-.3341-.7073-.5014-1.1791-.5014-.4715,0-.8648.1673-1.1788.5014-.3145.3341-.4715.7468-.4715,1.2376,0,.4913.157.9035.4715,1.2376.314.3341.7073.5009,1.1788.5009.4717,0,.8646-.1668,1.1791-.5009.314-.3341.4715-.7463.4715-1.2376,0-.4908-.1575-.9035-.4715-1.2376Z"/><path d="m134.4084,109.3963c-1.2776-.7755-2.7608-1.1638-4.4504-1.1638h-14.088c-1.6901,0-3.1733.3882-4.4501,1.1638-1.2776.7765-2.2502,1.7879-2.918,3.0355-.668,1.2477-1.0019,2.5591-1.0019,3.9338v.5009c0,1.3756.3241,2.6866.9727,3.9342.6481,1.2477,1.6107,2.2595,2.8883,3.035,1.2768.776,2.78,1.1643,4.5091,1.1643h14.088c1.7287,0,3.2318-.3882,4.5093-1.1643,1.2768-.7755,2.2397-1.7874,2.8883-3.035.6484-1.2477.9724-2.5586.9724-3.9342v-.5009c0-1.3747-.3344-2.6861-1.0019-3.9338-.6683-1.2477-1.6409-2.259-2.9178-3.0355Zm.5451,10.2401c-.442.904-1.0954,1.6163-1.9597,2.1368-.8648.5205-1.8768.7808-3.0357.7808-1.1596,0-2.1714-.2603-3.0357-.7808-.8648-.5205-1.523-1.2328-1.9746-2.1368-.4523-.903-.6779-1.9154-.6779-3.035s.2356-2.1315.7073-3.035c.4715-.9035,1.1345-1.611,1.9892-2.1219.8547-.5105,1.8519-.7659,2.9916-.7659,1.1198,0,2.1119.2555,2.9767.7659.8643.511,1.5273,1.2184,1.9895,2.1219.4612.9035.6925,1.9154.6925,3.035s-.221,2.132-.6632,3.035Z"/><path class="cls-1" d="m134.9535,119.6364c-.442.904-1.0954,1.6163-1.9597,2.1368-.8648.5205-1.8768.7808-3.0357.7808-1.1596,0-2.1714-.2603-3.0357-.7808-.8648-.5205-1.523-1.2328-1.9746-2.1368-.4523-.903-.6779-1.9154-.6779-3.035s.2356-2.1315.7073-3.035c.4715-.9035,1.1345-1.611,1.9892-2.1219.8547-.5105,1.8519-.7659,2.9916-.7659,1.1198,0,2.1119.2555,2.9767.7659.8643.511,1.5273,1.2184,1.9895,2.1219.4612.9035.6925,1.9154.6925,3.035s-.221,2.132-.6632,3.035Z"/><path d="m149.5865,108.2915h-.1179c-1.9451,0-3.4041.614-4.3766,1.8415-.4947.6246-.8622,1.3943-1.1052,2.306v-3.6763h-2.1515v15.7068h2.7114v-9.4004c0-1.2769.3878-2.3084,1.1642-3.094.7759-.7856,1.8025-1.1791,3.0798-1.1791,1.1982,0,2.1515.3686,2.8588,1.1053s1.0611,1.7342,1.0611,2.9909v9.5772h2.7114v-8.9877c0-2.3376-.4863-4.1207-1.459-5.3487-.9724-1.2275-2.4314-1.8415-4.3766-1.8415Z"/><polygon points="157.7502 102.9576 157.7502 105.1088 159.9607 105.1088 159.9607 124.4694 162.6721 124.4694 162.6721 105.1088 162.6721 102.9576 159.9607 102.9576 157.7502 102.9576"/><path d="m170.4823,105.6979c.314-.314.4715-.7367.4715-1.2668,0-.5105-.1575-.9232-.4715-1.2376-.3145-.314-.7663-.4716-1.3557-.4716s-1.0367.1577-1.3411.4716c-.3049.3144-.4569.7367-.4569,1.2668,0,.5114.152.9236.4569,1.2376.3044.3149.7514.4716,1.3411.4716s1.0412-.1567,1.3557-.4716Z"/><polygon points="165.9729 108.7626 165.9729 110.9138 168.3897 110.9138 168.3897 124.4694 171.1012 124.4694 171.1012 110.9138 171.1012 108.7626 168.3897 108.7626 165.9729 108.7626"/><path d="m183.5976,108.2915h-.1179c-1.9451,0-3.4041.614-4.3766,1.8415-.4948.6248-.8624,1.3949-1.1055,2.307v-3.6774h-2.1515v15.7068h2.7116v-9.4004c0-1.2769.3876-2.3084,1.1642-3.094.7759-.7856,1.8023-1.1791,3.0798-1.1791,1.1982,0,2.1515.3686,2.8588,1.1053s1.0609,1.7342,1.0609,2.9909v9.5772h2.7116v-8.9877c0-2.3376-.4863-4.1207-1.459-5.3487-.9727-1.2275-2.4314-1.8415-4.3766-1.8415Z"/><path d="m204.5964,109.2932c-1.1302-.7075-2.5005-1.0607-4.1115-1.0607-1.6702,0-3.0798.383-4.2294,1.1489-1.1493.7664-2.0091,1.7682-2.5786,3.0058-.5702,1.2376-.8547,2.5639-.8547,3.9783v.5009c0,1.3953.28,2.711.8399,3.9491.5599,1.2376,1.4295,2.2446,2.6083,3.0202,1.1788.776,2.6424,1.1643,4.3914,1.1643,1.8665,0,3.4235-.4621,4.6714-1.3852,1.2476-.9232,2.0384-2.1905,2.3725-3.8015h-2.564c-.1769.7861-.6632,1.449-1.459,1.9892-.7958.5407-1.8027.8105-3.0209.8105-1.1788,0-2.1565-.2603-2.9326-.7808-.7764-.5205-1.3557-1.2275-1.7387-2.1219-.3271-.7633-.506-1.637-.5538-2.608h12.5344v-1.2376c0-1.3555-.28-2.6128-.8401-3.7717-.5599-1.159-1.4048-2.0927-2.5345-2.7997Zm-9.0576,5.7758c.0928-.5658.2351-1.0937.4368-1.5765.3732-.8939.9382-1.5961,1.6949-2.1071.756-.5105,1.6946-.7659,2.8145-.7659,1.0412,0,1.935.2258,2.6819.6778.7466.452,1.3015,1.0952,1.6654,1.9302.2393.55.392,1.168.4737,1.8415h-9.7672Z"/></svg>