<?xml version="1.0" encoding="UTF-8"?><svg id="Vrstva_1" xmlns="http://www.w3.org/2000/svg" viewBox="0 0 330 200"><defs><style>.cls-1{fill:#b700ff;}</style></defs><path d="m56.8965,92.6995c2.3576,1.552,5.2848,2.3285,8.7828,2.3285,3.733,0,6.8471-.9241,9.3428-2.7705,2.4952-1.8463,4.0767-4.381,4.745-7.6029h-5.128c-.3538,1.5722-1.3265,2.898-2.918,3.9783-1.5916,1.0813-3.6055,1.6211-6.0417,1.6211-2.3576,0-4.313-.5205-5.8653-1.5616-1.5527-1.0411-2.7114-2.4551-3.4775-4.2439-.6541-1.5267-1.012-3.274-1.1076-5.2159h25.0688v-2.4752c0-2.711-.5599-5.2255-1.6802-7.5435-1.1198-2.318-2.8097-4.1854-5.069-5.5994-2.2603-1.4149-5.001-2.1215-8.2229-2.1215-3.3404,0-6.1596.7659-8.4588,2.2978-2.2987,1.5329-4.0182,3.5364-5.1572,6.0116-1.1405,2.4752-1.7095,5.1277-1.7095,7.9567v1.0018c0,2.7906.5599,5.422,1.6798,7.8982,1.1198,2.4752,2.8591,4.4893,5.2167,6.0404Zm-.5896-20.6864c.7464-1.7879,1.8763-3.1923,3.3897-4.2142,1.512-1.0209,3.3893-1.5319,5.629-1.5319,2.0825,0,3.8701.4515,5.3639,1.3555,1.4933.904,2.6031,2.1905,3.3308,3.8604.4787,1.1.784,2.336.9473,3.6831h-19.5343c.1855-1.1317.4703-2.1874.8737-3.153Z"/><polygon points="110.3591 62.5533 104.7593 62.5533 97.4501 74.4586 96.6251 74.4586 88.9032 62.5533 82.8907 62.5533 93.1915 78.1171 82.3605 93.9668 87.9602 93.9668 96.5662 81.1182 97.3912 81.1182 106.3509 93.9668 112.3634 93.9668 100.7785 77.4856 110.3591 62.5533"/><path d="m121.3816,57.3671c1.1793,0,2.0825-.3135,2.7114-.9433.6285-.6279.9434-1.4734.9434-2.5337,0-1.0209-.315-1.8463-.9434-2.4752-.629-.6279-1.5321-.9433-2.7114-.9433s-2.0729.3154-2.6817.9433c-.6098.6289-.9137,1.4734-.9137,2.5337,0,1.0229.3039,1.8473.9137,2.4752.6088.6298,1.5029.9433,2.6817.9433Z"/><polygon points="119.908 93.9668 125.3313 93.9668 125.3313 66.8557 125.3313 62.5533 119.908 62.5533 115.0748 62.5533 115.0748 66.8557 119.908 66.8557 119.908 93.9668"/><path d="m150.9722,88.7806c-1.3758.9826-3.3212,1.4734-5.8356,1.4734-2.6333,0-4.5887-.5014-5.8653-1.5031-1.2771-1.0018-1.9358-2.2298-1.9746-3.6831h-5.128c.0781,3.0648,1.2469,5.4719,3.5072,7.2195,2.2593,1.7476,5.4128,2.6228,9.4607,2.6228,2.5144,0,4.7646-.4228,6.7493-1.2673,1.9837-.8446,3.5264-2.0333,4.627-3.5661,1.0997-1.5319,1.6505-3.2411,1.6505-5.1268,0-2.6717-.9827-4.774-2.9473-6.3069-1.9655-1.5319-4.6965-2.4752-8.1932-2.8289l-3.419-.3537c-1.8082-.1956-3.1342-.6567-3.9789-1.3843-.8456-.7266-1.2675-1.6997-1.2675-2.9181,0-1.4523.5992-2.6315,1.7982-3.5354,1.198-.904,2.8586-1.3555,4.9808-1.3555,2.1606,0,3.8212.4323,4.9808,1.2961,1.1587.8647,1.7776,1.9844,1.8567,3.3591h5.1285c-.0796-2.9852-1.1894-5.284-3.3308-6.8955-2.1419-1.6105-5.0201-2.4158-8.6352-2.4158-2.3193,0-4.372.3825-6.1596,1.1494-1.7886.7659-3.1932,1.8665-4.2148,3.2996-1.0221,1.4351-1.5326,3.1338-1.5326,5.098,0,2.5548.8936,4.5784,2.6822,6.071,1.7876,1.4936,4.2339,2.4158,7.3384,2.7695l3.4779.3537c2.2004.2358,3.802.7276,4.8039,1.4734,1.0019.7468,1.5034,1.7888,1.5034,3.1242,0,1.5712-.6884,2.8491-2.0633,3.8307Z"/><path d="m172.2507,52.9468h-5.1874v9.6065h-5.4818v4.0665h5.4818v16.7972c0,2.6727.442,4.8037,1.3265,6.3951.884,1.5913,2.1606,2.7398,3.8313,3.4473,1.6697.7075,3.7037,1.0612,6.1012,1.0612h4.8332v-4.8919h-5.5407c-1.6898,0-3.0062-.4611-3.9492-1.3852-.9434-.9222-1.4147-2.249-1.4147-3.9783v-17.4452h10.9046v-4.0665h-10.9046v-9.6065Z"/><path d="m210.2105,81.2956c0,2.6324-.7469,4.7251-2.2397,6.2762-1.4942,1.553-3.4588,2.3285-5.8945,2.3285-2.3193,0-4.1558-.7075-5.5115-2.1215-1.3557-1.4149-2.0336-3.3792-2.0336-5.8937v-19.3903h-5.4228v18.2706c0,4.5583,1.0019,8.0545,3.0058,10.4903,2.0043,2.4368,4.8533,3.6543,8.5475,3.6543h.2359c3.6932,0,6.4837-1.228,8.3701-3.684.943-1.2274,1.65-2.7324,2.1218-4.5149v7.2557h4.303v-31.472h-5.4818v18.8007Z"/><path d="m227.7464,104.9883c1.5518-.6691,2.6822-1.7591,3.3897-3.2709.7071-1.5137,1.0609-3.5661,1.0609-6.1592v-33.0048h-10.1975v4.3024h5.0101v29.5279c0,1.5319-.4032,2.7005-1.2081,3.5067-.8063.8043-1.9554,1.2079-3.4487,1.2079h-3.3595v4.8919h2.5345c2.5935,0,4.6659-.3346,6.2186-1.0018Z"/><path d="m228.2474,56.8955c1.1793,0,2.0724-.324,2.6822-.9721.6088-.648.9137-1.483.9137-2.5049,0-1.0612-.3049-1.8952-.9137-2.5049-.6098-.6087-1.5029-.9136-2.6822-.9136s-2.0729.3154-2.6817.9433c-.6098.6289-.9137,1.4734-.9137,2.5337,0,1.0229.3039,1.8473.9137,2.4762.6088.6289,1.5029.9423,2.6817.9423Z"/><path d="m262.9947,63.6145c-2.2603-1.4149-5.001-2.1215-8.2229-2.1215-3.3404,0-6.1596.7659-8.4583,2.2978-2.2991,1.5329-4.0182,3.5364-5.1577,6.0116-1.1405,2.4752-1.7095,5.1277-1.7095,7.9567v1.0018c0,2.7906.5599,5.422,1.6802,7.8982,1.1198,2.4752,2.8586,4.4893,5.2162,6.0404,2.3581,1.552,5.2852,2.3285,8.7828,2.3285,3.733,0,6.8471-.9241,9.3428-2.7705,2.4952-1.8463,4.0767-4.381,4.7454-7.6029h-5.1285c-.3538,1.5722-1.326,2.898-2.9175,3.9783-1.5916,1.0813-3.6059,1.6211-6.0422,1.6211-2.3576,0-4.313-.5205-5.8648-1.5616-1.5532-1.0411-2.7114-2.4551-3.4779-4.2439-.6541-1.5267-1.0115-3.274-1.1071-5.2159h25.0683v-2.4752c0-2.711-.5599-5.2255-1.6798-7.5435-1.1198-2.318-2.8102-4.1854-5.0695-5.5994Zm-18.1148,11.5516c.1855-1.1317.4703-2.1874.8737-3.153.7459-1.7879,1.8758-3.1923,3.3893-4.2142,1.512-1.0209,3.3893-1.5319,5.629-1.5319,2.0825,0,3.8706.4515,5.3643,1.3555,1.4928.904,2.6026,2.1905,3.3303,3.8604.4787,1.1.7842,2.336.9477,3.6831h-19.5343Z"/><path d="m279.057,88.0147c-.629-.6682-1.4147-1.0027-2.3581-1.0027-.943,0-1.7296.3346-2.3576,1.0027-.629.6682-.943,1.4936-.943,2.4752,0,.9826.314,1.807.943,2.4752.628.6682,1.4147,1.0018,2.3576,1.0018.9434,0,1.7291-.3336,2.3581-1.0018.628-.6682.943-1.4926.943-2.4752,0-.9816-.315-1.807-.943-2.4752Z"/><path d="m103.8169,118.7926c-2.5551-1.5511-5.5216-2.3276-8.9008-2.3276h-28.1759c-3.3802,0-6.3466.7765-8.9003,2.3276-2.5551,1.553-4.5005,3.5757-5.836,6.071-1.336,2.4953-2.0038,5.1182-2.0038,7.8675v1.0018c0,2.7513.6481,5.3731,1.9453,7.8685,1.2963,2.4953,3.2215,4.519,5.7766,6.0701,2.5537,1.552,5.5599,2.3285,9.0182,2.3285h28.1759c3.4573,0,6.4636-.7765,9.0187-2.3285,2.5537-1.5511,4.4794-3.5747,5.7766-6.0701,1.2967-2.4953,1.9449-5.1172,1.9449-7.8685v-1.0018c0-2.7494-.6687-5.3722-2.0038-7.8675-1.3365-2.4953-3.2819-4.518-5.8356-6.071Zm1.0901,20.4803c-.884,1.808-2.1908,3.2325-3.9195,4.2736-1.7296,1.0411-3.7536,1.5616-6.0714,1.5616-2.3193,0-4.3428-.5205-6.0714-1.5616-1.7296-1.0411-3.046-2.4656-3.9492-4.2736-.9046-1.8061-1.3557-3.8307-1.3557-6.0701s.4712-4.263,1.4147-6.0701c.943-1.807,2.2689-3.222,3.9784-4.2439,1.7095-1.0209,3.7037-1.5319,5.9832-1.5319,2.2397,0,4.2239.511,5.9535,1.5319,1.7287,1.0219,3.0547,2.4368,3.9789,4.2439.9223,1.807,1.3849,3.8307,1.3849,6.0701s-.442,4.264-1.3265,6.0701Z"/><path class="cls-1" d="m104.907,139.2729c-.884,1.808-2.1908,3.2325-3.9195,4.2736-1.7296,1.0411-3.7536,1.5616-6.0714,1.5616-2.3193,0-4.3428-.5205-6.0714-1.5616-1.7296-1.0411-3.046-2.4656-3.9492-4.2736-.9046-1.8061-1.3557-3.8307-1.3557-6.0701s.4712-4.263,1.4147-6.0701c.943-1.807,2.2689-3.222,3.9784-4.2439,1.7095-1.0209,3.7037-1.5319,5.9832-1.5319,2.2397,0,4.2239.511,5.9535,1.5319,1.7287,1.0219,3.0547,2.4368,3.9789,4.2439.9223,1.807,1.3849,3.8307,1.3849,6.0701s-.442,4.264-1.3265,6.0701Z"/><path d="m134.1731,116.5829h-.2359c-3.8902,0-6.8082,1.228-8.7531,3.6831-.9895,1.2491-1.7244,2.7887-2.2105,4.6119v-7.3527h-4.303v31.4135h5.4228v-18.8007c0-2.5538.7756-4.6168,2.3284-6.188,1.5518-1.5712,3.605-2.3582,6.1596-2.3582,2.3965,0,4.303.7372,5.7176,2.2106s2.1222,3.4683,2.1222,5.9819v19.1545h5.4228v-17.9754c0-4.6753-.9727-8.2414-2.918-10.6974-1.9449-2.4551-4.8629-3.6831-8.7531-3.6831Z"/><polygon points="150.5005 105.9153 150.5005 110.2176 154.9214 110.2176 154.9214 148.9388 160.3442 148.9388 160.3442 110.2176 160.3442 105.9153 154.9214 105.9153 150.5005 105.9153"/><path d="m175.9645,111.3958c.628-.6279.943-1.4734.943-2.5337,0-1.0209-.315-1.8463-.943-2.4752-.629-.6279-1.5326-.9433-2.7114-.9433s-2.0733.3154-2.6822.9433c-.6098.6289-.9137,1.4734-.9137,2.5337,0,1.0229.3039,1.8473.9137,2.4752.6088.6298,1.5029.9433,2.6822.9433s2.0825-.3135,2.7114-.9433Z"/><polygon points="166.9458 117.5253 166.9458 121.8276 171.7795 121.8276 171.7795 148.9388 177.2023 148.9388 177.2023 121.8276 177.2023 117.5253 171.7795 117.5253 166.9458 117.5253"/><path d="m202.1951,116.5829h-.2359c-3.8902,0-6.8082,1.228-8.7531,3.6831-.9897,1.2496-1.7248,2.7899-2.2109,4.614v-7.3548h-4.303v31.4135h5.4233v-18.8007c0-2.5538.7752-4.6168,2.3284-6.188,1.5518-1.5712,3.6045-2.3582,6.1596-2.3582,2.3965,0,4.303.7372,5.7176,2.2106,1.4147,1.4734,2.1218,3.4683,2.1218,5.9819v19.1545h5.4233v-17.9754c0-4.6753-.9727-8.2414-2.918-10.6974-1.9453-2.4551-4.8629-3.6831-8.7531-3.6831Z"/><path d="m244.1927,118.5865c-2.2603-1.4149-5.001-2.1215-8.2229-2.1215-3.3404,0-6.1596.7659-8.4588,2.2978-2.2987,1.5329-4.0182,3.5364-5.1572,6.0116-1.1405,2.4752-1.7095,5.1277-1.7095,7.9567v1.0018c0,2.7906.5599,5.422,1.6798,7.8982,1.1198,2.4752,2.8591,4.4893,5.2167,6.0404,2.3576,1.552,5.2848,2.3285,8.7828,2.3285,3.733,0,6.8471-.9241,9.3428-2.7705,2.4952-1.8463,4.0767-4.381,4.745-7.6029h-5.128c-.3538,1.5722-1.3265,2.898-2.918,3.9783-1.5916,1.0813-3.6055,1.6211-6.0417,1.6211-2.3576,0-4.313-.5205-5.8653-1.5616-1.5527-1.0411-2.7114-2.4551-3.4775-4.2439-.6541-1.5267-1.012-3.274-1.1076-5.2159h25.0688v-2.4752c0-2.711-.5599-5.2255-1.6802-7.5435-1.1198-2.318-2.8097-4.1854-5.069-5.5994Zm-18.1153,11.5516c.1855-1.1317.4703-2.1874.8737-3.153.7464-1.7879,1.8763-3.1923,3.3897-4.2142,1.512-1.0209,3.3893-1.5319,5.629-1.5319,2.0825,0,3.8701.4515,5.3639,1.3555,1.4933.904,2.6031,2.1905,3.3308,3.8604.4787,1.1.784,2.336.9474,3.6831h-19.5344Z"/></svg>