<?xml version="1.0" encoding="UTF-8"?><svg id="Vrstva_1" xmlns="http://www.w3.org/2000/svg" viewBox="0 0 330 200"><defs><style>.cls-1{fill:#fff;}.cls-2{fill:#b700ff;}.cls-3{fill:#e10f21;opacity:.5;}</style></defs><rect x="50" y="56.2439" width="230" height="87.5122"/><g><g><path class="cls-1" d="m56.5708,64.5358h8.6854v1.4208h-8.6854v-1.4208Zm3.5255-3.8369h1.6162v4.4598h-1.6162v-4.4598Zm0,6.9136h1.6162v11.1972h-1.6162v-11.1972Z"/><path class="cls-1" d="m68.9853,64.5358h1.4218v4.4781l-.3501-.0193c.0509-1.0635.2819-1.9531.691-2.6675.4091-.7134.9404-1.2498,1.5968-1.606.6554-.3572,1.3923-.5364,2.2095-.5364.974,0,1.8442.2432,2.6095.7307.7664.4865,1.3567,1.1389,1.7729,1.9571.4152.8173.6229,1.7139.6229,2.6869v.3318c0,.973-.2178,1.8686-.6524,2.6869-.4356.8183-1.0361,1.4706-1.8014,1.9571-.7664.4865-1.6294.7297-2.5902.7297-.7918,0-1.5225-.172-2.1902-.516-.6697-.343-1.2213-.8854-1.6559-1.6253s-.6717-1.6681-.7104-2.7846l.8173,1.5378v6.9329h-1.7912v-14.2739Zm7.1079,8.6458c.5323-.3369.9414-.805,1.2264-1.4025.286-.5964.4285-1.2844.4285-2.064,0-.7653-.1425-1.4472-.4285-2.0447-.285-.5964-.6941-1.0646-1.2264-1.4014-.5323-.3379-1.149-.5068-1.8503-.5068-.6493,0-1.2427.1466-1.7811.4386-.5394.2921-.9679.7073-1.2854,1.2457-.3186.5394-.4773,1.1653-.4773,1.8798v.8956c0,.7012.1618,1.3139.4865,1.8401s.7562.9282,1.2956,1.207c.5384.2799,1.1256.4193,1.7617.4193.7012,0,1.318-.1689,1.8503-.5068Z"/><path class="cls-1" d="m83.6296,74.5545c-.7796-.4733-1.3862-1.1226-1.8207-1.9469-.4356-.8244-.6524-1.7302-.6524-2.7164v-.3318c0-.9862.2107-1.8889.633-2.7062.4213-.8183,1.0188-1.4676,1.7912-1.948.7725-.4794,1.6457-.7206,2.6187-.7206.8315,0,1.5714.1761,2.2207.5262.6483.3501,1.1745.8793,1.5775,1.5867.402.7084.629,1.5938.6809,2.6584l-.7592-1.2457v-7.0113h1.7912v14.2159h-1.4208v-4.6155h.5252c-.0387,1.1297-.2728,2.064-.7012,2.8049-.4285.7399-.973,1.2844-1.6355,1.6355-.6615.3501-1.4025.5252-2.2197.5252-.974,0-1.8503-.2361-2.6288-.7104Zm4.6348-1.3139c.5323-.2992.9536-.7206,1.2651-1.2661s.4682-1.1745.4682-1.8889v-.915c0-.688-.1598-1.2925-.4773-1.8116-.3186-.5191-.747-.915-1.2854-1.1877-.5394-.2728-1.1266-.4091-1.7627-.4091-.7002,0-1.317.1659-1.8492.4967-.5333.3308-.9445.7959-1.2366,1.3923-.2921.5974-.4386,1.2854-.4386,2.064,0,.7928.1496,1.49.4478,2.0935s.7175,1.0686,1.2559,1.3923c.5394.3247,1.1521.4875,1.8401.4875.6493,0,1.2396-.1496,1.7729-.4478Z"/><path class="cls-1" d="m93.6972,64.6528h6.5034v1.3434h-6.5034v-1.3434Zm2.3561-3.214c.5964-.5445,1.4859-.8173,2.6675-.8173h1.2854v1.4991h-1.5968c-.4936,0-.8702.1364-1.1297.4091s-.3898.6493-.3898,1.1297v11.2553h-1.7322v-10.9632c0-1.1297.2982-1.9673.8956-2.5128Z"/><path class="cls-1" d="m105.8084,64.5358h1.4218v4.4394h-.2341c0-1.5185.3023-2.6899.9058-3.5143s1.5093-1.2366,2.7164-1.2366h.0784c1.207,0,2.1128.4122,2.7164,1.2366s.9058,1.9958.9058,3.5143h-.5455c0-1.5185.3084-2.6899.9251-3.5143.6157-.8244,1.5287-1.2366,2.7357-1.2366h.0784c1.207,0,2.1189.4122,2.7357,1.2366s.9251,1.9958.9251,3.5143v5.9396h-1.7923v-6.3487c0-.8437-.2107-1.5022-.632-1.9765-.4224-.4733-1.0096-.7104-1.7627-.7104-.7918,0-1.4218.2504-1.8889.7501s-.7012,1.1847-.7012,2.0538v6.2317h-1.8106v-6.3487c0-.8437-.2117-1.5022-.633-1.9765-.4224-.4733-1.0096-.7104-1.7627-.7104-.7918,0-1.4208.2504-1.8889.7501-.4671.4997-.7012,1.1847-.7012,2.0538v6.2317h-1.7912v-10.379Z"/><path class="cls-1" d="m124.2978,74.3011c-.6687-.5903-1.0025-1.4177-1.0025-2.4823,0-1.0778.3633-1.9022,1.091-2.4731.7267-.571,1.7648-.8569,3.1153-.8569h2.8629v1.3434h-2.9413c-.7531,0-1.3373.1822-1.7526.5455s-.6229.8437-.6229,1.4411.2076,1.0707.6229,1.4218c.4152.3501.9994.5252,1.7526.5252s1.3892-.2107,1.9083-.633c.5201-.4213.7989-1.1063.8376-2.0538l.5068.7002c-.1048,1.1297-.461,1.9805-1.0717,2.5515-.6096.571-1.4605.8569-2.5505.8569-1.1684,0-2.0874-.2951-2.7561-.8865Zm6.1828-2.5016h-.3114v-3.6028c0-.7267-.1883-1.2752-.5648-1.6457-.3766-.3694-.9282-.5547-1.6549-.5547-1.1816,0-2.3306.0387-3.4471.117v-1.5775c.8437-.0784,1.7923-.117,2.8436-.117,1.6091,0,2.7713.2992,3.4858.8956.7134.5974,1.0707,1.604,1.0707,3.0186v6.5818h-1.4218v-3.1153Z"/><path class="cls-1" d="m134.921,64.5358h1.4208v4.4394h-.2331c0-1.5449.3216-2.7225.9638-3.5346.6422-.8111,1.606-1.2162,2.8914-1.2162h.0784c1.2854,0,2.2492.4051,2.8914,1.2162.6432.8122.9638,1.9897.9638,3.5346v5.9396h-1.7912v-6.3283c0-.8315-.2341-1.49-.7012-1.9775-.4671-.4865-1.0971-.7297-1.8889-.7297-.8437,0-1.5215.2595-2.0345.7786-.5129.5201-.7694,1.2009-.7694,2.0447v6.2123h-1.7912v-10.379Z"/><path class="cls-1" d="m147.6754,74.0192c-.6615-.805-.9923-1.9602-.9923-3.4664v-6.0363h1.7912v6.4067c0,.8305.2239,1.4798.6717,1.9469s1.0544.7012,1.8207.7012c.805,0,1.4533-.2565,1.9469-.7694s.7399-1.204.7399-2.0742v-6.2113h1.8116v10.3983h-1.4218v-4.4394h.2341c0,1.5449-.3114,2.7225-.9353,3.5336-.6229.8122-1.5449,1.2172-2.7652,1.2172h-.0773c-1.2203,0-2.1617-.402-2.8242-1.207Z"/><path class="cls-1" d="m158.7851,74.3011c-.6687-.5903-1.0025-1.4177-1.0025-2.4823,0-1.0778.3623-1.9022,1.09-2.4731.7267-.571,1.7658-.8569,3.1153-.8569h2.8629v1.3434h-2.9403c-.7531,0-1.3373.1822-1.7526.5455-.4163.3633-.6229.8437-.6229,1.4411s.2066,1.0707.6229,1.4218c.4152.3501.9994.5252,1.7526.5252s1.3892-.2107,1.9083-.633c.5191-.4213.7979-1.1063.8376-2.0538l.5058.7002c-.1038,1.1297-.461,1.9805-1.0707,2.5515-.6106.571-1.4605.8569-2.5515.8569-1.1684,0-2.0864-.2951-2.755-.8865Zm6.1828-2.5016h-.3114v-3.6028c0-.7267-.1883-1.2752-.5648-1.6457-.3766-.3694-.9282-.5547-1.6559-.5547-1.1806,0-2.3296.0387-3.4461.117v-1.5775c.8437-.0784,1.7912-.117,2.8426-.117,1.6101,0,2.7723.2992,3.4858.8956.7145.5974,1.0717,1.604,1.0717,3.0186v6.5818h-1.4218v-3.1153Zm-1.8889-12.6384h1.8889l-2.1424,3.8359h-1.4605l1.7139-3.8359Z"/><path class="cls-1" d="m168.0639,60.6989h3.2517v1.4218h-3.2517v-1.4218Zm1.4605,0h1.7912v14.2159h-1.7912v-14.2159Z"/><path class="cls-1" d="m55.5775,100.6383h1.1104c.4936,0,.8732-.1333,1.1389-.399.2666-.2666.4-.6524.4-1.1592v-11.1769h1.7129v10.9052c0,.8559-.116,1.5348-.3501,2.0345s-.6066.86-1.1195,1.0808-1.1979.3308-2.0548.3308h-.8376v-1.6162Zm.9933-12.7351h3.3687v1.4208h-3.3687v-1.4208Zm1.1786-2.181c-.2015-.2076-.3023-.4804-.3023-.8183,0-.3501.1008-.629.3023-.8376.2015-.2076.4967-.3114.8854-.3114.3898,0,.6849.1008.8865.3023s.3023.4773.3023.8274c0,.3379-.1008.6137-.3023.8274-.2015.2147-.4967.3216-.8865.3216-.3888,0-.6839-.1038-.8854-.3114Z"/><path class="cls-1" d="m64.6131,97.8639c-.7786-.5129-1.3526-1.1786-1.723-1.9968-.3694-.8173-.5547-1.6874-.5547-2.6085v-.3318c0-.9343.1883-1.8106.5648-2.6288.3766-.8173.9445-1.4798,1.7037-1.9856.7592-.5068,1.6905-.7603,2.7947-.7603,1.0635,0,1.9693.2341,2.7164.7012.746.4671,1.3048,1.0839,1.6742,1.8503.3705.7664.5557,1.5968.5557,2.4925v.8183h-9.231v-1.3444h7.9262l-.4091.7206c0-.7399-.1201-1.3852-.3603-1.9378-.2402-.5516-.6076-.976-1.1002-1.2752-.4936-.2982-1.0839-.4478-1.7719-.4478-.7399,0-1.3607.1689-1.8604.5068-.4997.3369-.8732.801-1.1195,1.3923-.2463.5903-.3694,1.2752-.3694,2.0538,0,.7796.1262,1.4645.3796,2.0548.2524.5903.6361,1.0585,1.149,1.4025.5119.344,1.1582.516,1.9368.516.805,0,1.4706-.1791,1.9968-.5364.5252-.3562.8468-.7949.9638-1.3139h1.6935c-.2209,1.0646-.743,1.9022-1.5673,2.5118-.8244.6106-1.8533.915-3.0868.915-1.1551,0-2.122-.2565-2.9016-.7684Z"/><path class="cls-1" d="m78.5755,87.9033h1.4208v4.4394h-.2331c0-1.5185.3013-2.6899.9058-3.5143.6035-.8244,1.5083-1.2366,2.7164-1.2366h.0773c1.2081,0,2.1128.4122,2.7164,1.2366.6045.8244.9058,1.9958.9058,3.5143h-.5455c0-1.5185.3084-2.6899.9251-3.5143s1.5287-1.2366,2.7367-1.2366h.0773c1.207,0,2.1189.4122,2.7357,1.2366s.9251,1.9958.9251,3.5143v5.9396h-1.7912v-6.3487c0-.8437-.2117-1.5022-.633-1.9765-.4224-.4733-1.0096-.7104-1.7627-.7104-.7918,0-1.4208.2504-1.8889.7501-.4671.4997-.7002,1.1847-.7002,2.0538v6.2317h-1.8116v-6.3487c0-.8437-.2107-1.5022-.633-1.9765-.4213-.4733-1.0096-.7104-1.7617-.7104-.7918,0-1.4218.2504-1.8889.7501s-.7012,1.1847-.7012,2.0538v6.2317h-1.7912v-10.379Z"/><path class="cls-1" d="m96.9581,87.9033h1.4208v4.2837h-.0773c0-1.5052.3308-2.6156.9933-3.3301.6615-.7134,1.6742-1.0707,3.038-1.0707h.3308v1.6162h-.6432c-1.0513,0-1.8594.2758-2.4243.8274-.5648.5526-.8468,1.3607-.8468,2.4243v5.6281h-1.7912v-10.379Z"/><path class="cls-1" d="m103.1307,87.9033h7.1273v1.3434h-7.1273v-1.3434Zm3.5153,10.1449c-.5526-.2331-.974-.6127-1.2661-1.1389s-.4376-1.2294-.4376-2.1128v-10.0675h1.7129v10.2823c0,.571.1557,1.0096.4682,1.3139.3114.3053.746.458,1.3037.458h1.8309v1.6162h-1.5968c-.7918,0-1.4635-.117-2.0151-.3511Z"/><path class="cls-1" d="m111.1729,87.9033h1.8696l3.4858,10.379h-1.7912l-3.5641-10.379Zm4.012,8.9572h2.181v1.4218h-2.181v-1.4218Zm3.9143-8.9572h1.7526l-3.097,10.379h-1.6935l3.038-10.379Z"/><path class="cls-1" d="m121.4542,87.9033h1.8309l3.5631,10.1449h-1.6742l-3.7199-10.1449Zm.7012,12.8134h1.4605c.6748,0,1.1979-.1303,1.5673-.3898.3705-.2595.6524-.7206.8478-1.3821l3.3097-11.0415h1.7526l-3.4848,11.5087c-.2086.688-.5007,1.2427-.8763,1.665-.3776.4213-.8315.7358-1.3638.9445-.5323.2076-1.149.3114-1.8503.3114h-1.3628v-1.6162Zm3.213-4.1677h2.181v1.4991h-2.181v-1.4991Zm1.7719-14.0205h1.8889l-2.1413,3.8359h-1.4605l1.7129-3.8359Z"/><path class="cls-1" d="m131.9512,97.9515c-.2086-.2209-.3114-.4936-.3114-.8183s.1028-.5964.3114-.8183c.2076-.2198.4671-.3308.7786-.3308s.571.1109.7786.3308c.2076.2219.3114.4936.3114.8183s-.1038.5974-.3114.8183-.4671.3308-.7786.3308-.571-.1099-.7786-.3308Zm5.0623,0c-.2076-.2209-.3114-.4936-.3114-.8183s.1038-.5964.3114-.8183c.2076-.2198.4682-.3308.7796-.3308s.571.1109.7786.3308c.2076.2219.3114.4936.3114.8183s-.1038.5974-.3114.8183-.4671.3308-.7786.3308-.572-.1099-.7796-.3308Zm5.044,0c-.2076-.2209-.3114-.4936-.3114-.8183s.1038-.5964.3114-.8183c.2076-.2198.4671-.3308.7786-.3308.3124,0,.572.1109.7796.3308.2076.2219.3114.4936.3114.8183s-.1038.5974-.3114.8183-.4671.3308-.7796.3308c-.3114,0-.571-.1099-.7786-.3308Z"/><path class="cls-1" d="m58.9269,121.2324c-.7786-.5129-1.3526-1.1786-1.723-1.9968-.3694-.8173-.5547-1.6874-.5547-2.6085v-.3318c0-.9343.1883-1.8106.5648-2.6288.3766-.8173.9445-1.4798,1.7037-1.9856.7592-.5068,1.6905-.7603,2.7947-.7603,1.0635,0,1.9693.2341,2.7164.7012.746.4671,1.3048,1.0839,1.6742,1.8503.3705.7664.5557,1.5968.5557,2.4925v.8183h-9.231v-1.3444h7.9262l-.4091.7206c0-.7399-.1201-1.3852-.3603-1.9378-.2402-.5516-.6076-.976-1.1002-1.2752-.4936-.2982-1.0839-.4478-1.7719-.4478-.7399,0-1.3607.1689-1.8604.5068-.4997.3369-.8732.801-1.1195,1.3923-.2463.5903-.3694,1.2752-.3694,2.0538,0,.7796.1262,1.4645.3796,2.0548.2524.5903.6361,1.0585,1.149,1.4025.5119.344,1.1582.516,1.9368.516.805,0,1.4706-.1791,1.9968-.5364.5252-.3562.8468-.7949.9638-1.3139h1.6935c-.2209,1.0646-.743,1.9022-1.5673,2.5118-.8244.6106-1.8533.915-3.0868.915-1.1551,0-2.122-.2565-2.9016-.7684Z"/><path class="cls-1" d="m71.0788,116.1783l-.059.3898-3.5051-5.2964h1.9866l2.5505,3.9336h.2728l2.4151-3.9336h1.8503l-3.3107,5.16.058-.3501,3.9143,5.5691h-1.9856l-2.9606-4.245h-.2728l-2.8426,4.245h-1.8503l3.7392-5.4724Z"/><path class="cls-1" d="m78.147,111.2717h3.3881v1.4208h-3.3881v-1.4208Zm1.1979-2.0253c-.2015-.2076-.3023-.4804-.3023-.8183,0-.3501.1008-.629.3023-.8376.2015-.2066.4967-.3114.8865-.3114.3888,0,.687.1048.8956.3114.2076.2086.3114.4814.3114.8183,0,.3501-.1038.63-.3114.8376-.2086.2076-.5068.3114-.8956.3114-.3898,0-.6849-.1038-.8865-.3114Zm.399,2.0253h1.7912v10.379h-1.7912v-10.379Z"/><path class="cls-1" d="m84.9527,121.096c-.746-.5781-1.1328-1.3729-1.1582-2.3856h1.6945c.0122.4804.23.8854.6524,1.2172.4213.3308,1.0676.4967,1.9368.4967.8305,0,1.4737-.1628,1.9286-.4875.4539-.3236.6809-.746.6809-1.2651,0-.4417-.1649-.7857-.4967-1.033-.3308-.2463-.86-.4081-1.5867-.4865l-1.149-.117c-1.0259-.116-1.834-.4213-2.4243-.915-.5913-.4936-.8865-1.1612-.8865-2.006,0-.6483.1689-1.2101.5068-1.6844.3369-.4733.801-.8376,1.3923-1.09.5903-.2534,1.2691-.3796,2.0345-.3796,1.1948,0,2.1454.2656,2.8527.7979s1.0747,1.2915,1.1002,2.2787h-1.6935c-.0265-.4549-.231-.8244-.6137-1.1104-.3827-.285-.9312-.4285-1.6457-.4285-.7002,0-1.2498.1496-1.6447.4478-.3969.2992-.5944.688-.5944,1.1684,0,.403.1394.7236.4183.9638.2789.2412.7175.3929,1.3149.458l1.1297.117c1.1551.117,2.0569.4285,2.7062.9343.6493.5068.974,1.2009.974,2.0843,0,.6229-.1822,1.1877-.5455,1.6935-.3633.5068-.8732.8997-1.5287,1.1786s-1.3994.4183-2.2299.4183c-1.3373,0-2.3785-.289-3.1255-.8661Z"/><path class="cls-1" d="m93.512,111.2717h7.1273v1.3434h-7.1273v-1.3434Zm3.5143,10.1449c-.5516-.2331-.973-.6127-1.2651-1.1389s-.4386-1.2294-.4386-2.1128v-10.0675h1.7139v10.2823c0,.571.1557,1.0096.4671,1.3139.3114.3053.746.458,1.3048.458h1.8309v1.6162h-1.5968c-.7928,0-1.4645-.117-2.0162-.3511Z"/><path class="cls-1" d="m103.5978,120.7551c-.6615-.805-.9923-1.9602-.9923-3.4664v-6.0363h1.7912v6.4067c0,.8305.2239,1.4798.6717,1.9469s1.0544.7012,1.8207.7012c.805,0,1.4533-.2565,1.9469-.7694s.7399-1.204.7399-2.0742v-6.2113h1.8116v10.3983h-1.4218v-4.4394h.2341c0,1.5449-.3114,2.7225-.9353,3.5336-.6229.8122-1.5449,1.2172-2.7652,1.2172h-.0773c-1.2203,0-2.1617-.402-2.8242-1.207Z"/><path class="cls-1" d="m112.4777,124.0068h1.1104c.4936,0,.8732-.1333,1.1389-.399.2666-.2666.4-.6524.4-1.1592v-11.1769h1.7129v10.9052c0,.8559-.116,1.5348-.3501,2.0345s-.6066.86-1.1195,1.0808-1.1979.3308-2.0548.3308h-.8376v-1.6162Zm.9933-12.7351h3.3687v1.4208h-3.3687v-1.4208Zm1.1786-2.181c-.2015-.2076-.3023-.4804-.3023-.8183,0-.3501.1008-.629.3023-.8376.2015-.2076.4967-.3114.8854-.3114.3898,0,.6849.1008.8865.3023s.3023.4773.3023.8274c0,.3379-.1008.6137-.3023.8274-.2015.2147-.4967.3216-.8865.3216-.3888,0-.6839-.1038-.8854-.3114Z"/><path class="cls-1" d="m121.5132,121.2324c-.7786-.5129-1.3526-1.1786-1.723-1.9968-.3694-.8173-.5547-1.6874-.5547-2.6085v-.3318c0-.9343.1883-1.8106.5648-2.6288.3766-.8173.9445-1.4798,1.7037-1.9856.7592-.5068,1.6905-.7603,2.7947-.7603,1.0635,0,1.9693.2341,2.7164.7012.746.4671,1.3048,1.0839,1.6742,1.8503.3705.7664.5557,1.5968.5557,2.4925v.8183h-9.231v-1.3444h7.9262l-.4091.7206c0-.7399-.1201-1.3852-.3603-1.9378-.2402-.5516-.6076-.976-1.1002-1.2752-.4936-.2982-1.0839-.4478-1.7719-.4478-.7399,0-1.3607.1689-1.8604.5068-.4997.3369-.8732.801-1.1195,1.3923-.2463.5903-.3694,1.2752-.3694,2.0538,0,.7796.1262,1.4645.3796,2.0548.2524.5903.6361,1.0585,1.149,1.4025.5119.344,1.1582.516,1.9368.516.805,0,1.4706-.1791,1.9968-.5364.5252-.3562.8468-.7949.9638-1.3139h1.6935c-.2209,1.0646-.743,1.9022-1.5673,2.5118-.8244.6106-1.8533.915-3.0868.915-1.1551,0-2.122-.2565-2.9016-.7684Z"/><path class="cls-1" d="m130.7635,121.3199c-.2086-.2209-.3114-.4936-.3114-.8183s.1028-.5964.3114-.8183c.2076-.2198.4671-.3308.7786-.3308s.571.1109.7786.3308c.2076.2219.3124.4936.3124.8183s-.1048.5974-.3124.8183-.4671.3308-.7786.3308-.571-.1099-.7786-.3308Z"/><path class="cls-1" d="m136.3713,121.2324c-.8437-.5129-1.4798-1.1816-1.9083-2.006s-.6432-1.6905-.6432-2.5993v-.3318c0-.9078.2209-1.7749.6626-2.5993.4407-.8244,1.0839-1.493,1.9276-2.006s1.8238-.7694,2.9403-.7694h9.3083c1.1165,0,2.0966.2565,2.9403.7694s1.4869,1.1816,1.9286,2.006c.4407.8244.6615,1.6915.6615,2.5993v.3318c0,.9088-.2137,1.7749-.6422,2.5993s-1.0646,1.493-1.9083,2.006c-.8447.5119-1.837.7684-2.98.7684h-9.3083c-1.1419,0-2.1352-.2565-2.9789-.7684Zm14.2932-1.3638c.571-.344,1.0025-.8142,1.2946-1.4116.2921-.5964.4386-1.2661.4386-2.006s-.1527-1.4086-.458-2.005c-.3053-.5974-.743-1.0646-1.3139-1.4025-.572-.3379-1.2274-.5068-1.9673-.5068-.7531,0-1.4116.1689-1.9765.5068s-1.0025.805-1.3139,1.4025c-.3124.5964-.4682,1.2651-.4682,2.005s.1496,1.4096.4478,2.006c.2992.5974.7338,1.0676,1.3048,1.4116.572.344,1.2396.516,2.006.516s1.435-.172,2.006-.516Z"/><path class="cls-1" d="m156.5064,111.2717h1.4218v4.4394h-.2341c0-1.5449.3216-2.7225.9638-3.5346.6432-.8111,1.607-1.2162,2.8924-1.2162h.0773c1.2854,0,2.2492.4051,2.8924,1.2162.6422.8122.9638,1.9897.9638,3.5346v5.9396h-1.7912v-6.3283c0-.8315-.2341-1.49-.7012-1.9775-.4671-.4865-1.0971-.7297-1.8889-.7297-.8447,0-1.5225.2595-2.0355.7786-.5129.5201-.7694,1.2009-.7694,2.0447v6.2123h-1.7912v-10.379Z"/><path class="cls-1" d="m167.0218,107.4348h3.2517v1.4218h-3.2517v-1.4218Zm1.4605,0h1.7912v14.2159h-1.7912v-14.2159Z"/><path class="cls-1" d="m172.4545,111.2717h3.3881v1.4208h-3.3881v-1.4208Zm1.1979-2.0253c-.2015-.2076-.3023-.4804-.3023-.8183,0-.3501.1008-.629.3023-.8376.2015-.2066.4967-.3114.8865-.3114.3888,0,.687.1048.8956.3114.2076.2086.3114.4814.3114.8183,0,.3501-.1038.63-.3114.8376-.2086.2076-.5068.3114-.8956.3114-.3898,0-.6849-.1038-.8865-.3114Zm.399,2.0253h1.7912v10.379h-1.7912v-10.379Z"/><path class="cls-1" d="m178.9782,111.2717h1.4218v4.4394h-.2341c0-1.5449.3216-2.7225.9638-3.5346.6432-.8111,1.607-1.2162,2.8924-1.2162h.0773c1.2854,0,2.2492.4051,2.8924,1.2162.6422.8122.9638,1.9897.9638,3.5346v5.9396h-1.7912v-6.3283c0-.8315-.2341-1.49-.7012-1.9775-.4671-.4865-1.0971-.7297-1.8889-.7297-.8447,0-1.5225.2595-2.0355.7786-.5129.5201-.7694,1.2009-.7694,2.0447v6.2123h-1.7912v-10.379Z"/><path class="cls-1" d="m192.4725,121.2324c-.7786-.5129-1.3526-1.1786-1.723-1.9968-.3694-.8173-.5547-1.6874-.5547-2.6085v-.3318c0-.9343.1883-1.8106.5648-2.6288.3766-.8173.9445-1.4798,1.7037-1.9856.7592-.5068,1.6905-.7603,2.7947-.7603,1.0635,0,1.9693.2341,2.7164.7012.746.4671,1.3048,1.0839,1.6742,1.8503.3705.7664.5557,1.5968.5557,2.4925v.8183h-9.231v-1.3444h7.9262l-.4091.7206c0-.7399-.1201-1.3852-.3603-1.9378-.2402-.5516-.6076-.976-1.1002-1.2752-.4936-.2982-1.0839-.4478-1.7719-.4478-.7399,0-1.3607.1689-1.8604.5068-.4997.3369-.8732.801-1.1195,1.3923-.2463.5903-.3694,1.2752-.3694,2.0538,0,.7796.1262,1.4645.3796,2.0548.2524.5903.6361,1.0585,1.149,1.4025.5119.344,1.1582.516,1.9368.516.805,0,1.4706-.1791,1.9968-.5364.5252-.3562.8468-.7949.9638-1.3139h1.6935c-.2209,1.0646-.743,1.9022-1.5673,2.5118-.8244.6106-1.8533.915-3.0868.915-1.1551,0-2.122-.2565-2.9016-.7684Z"/></g><path class="cls-2" d="m150.664,119.8703c.5714-.344,1.0031-.8147,1.2952-1.412.292-.5967.4381-1.2657.4381-2.0056s-.1527-1.4086-.4577-2.0056-.7434-1.0646-1.3142-1.4022c-.5717-.3373-1.2271-.5062-1.967-.5062-.7532,0-1.4117.1688-1.9765.5062-.5648.3376-1.0028.8052-1.3145,1.4022s-.4675,1.2657-.4675,2.0056.1492,1.4089.4479,2.0056c.2987.5974.7336,1.0681,1.305,1.412.5711.344,1.2394.516,2.0056.516s1.4342-.172,2.0056-.516Z"/></g><g><path class="cls-1" d="m60.4594,130.77c-.2953-.1849-.6534-.2771-1.0744-.2771-.4365,0-.8048.1-1.1052.3001-.3004.2004-.5251.4623-.6739.7857-.149.3235-.2234.67-.2234,1.0398v.1308c0,.3648.0732.7085.2195,1.0322.1464.3234.3736.5865.6816.7892.3081.2029.6905.3044,1.1476.3044.4878,0,.8946-.1208,1.2207-.362.326-.2413.5326-.5725.62-.9936h-.67c-.0462.2054-.1733.3788-.3813.5199-.2079.1413-.4711.212-.7894.212-.308,0-.5635-.0681-.7663-.2042-.2029-.136-.3543-.3207-.4544-.5544-.0857-.2-.1344-.4274-.1468-.6817h3.2775v-.3234c0-.3543-.0732-.6827-.2195-.9856-.1464-.3029-.3672-.5469-.6624-.7318Zm-1.8099.5469c.1976-.1335.4429-.2002.7355-.2002.2721,0,.5057.0589.7009.1771.1951.118.3401.2861.4351.5043.0627.1441.1042.3048.1256.4813h-2.5549c.0242-.1481.0622-.2856.115-.4119.0975-.2338.2451-.4171.4428-.5507Z"/><polygon class="cls-1" points="65.2691 130.6315 64.5374 130.6315 63.5824 132.1871 63.4746 132.1871 62.4657 130.6315 61.6801 130.6315 63.026 132.6652 61.6107 134.7364 62.3425 134.7364 63.4669 133.0575 63.5747 133.0575 64.7454 134.7364 65.531 134.7364 64.0173 132.5828 65.2691 130.6315"/><polygon class="cls-1" points="65.8852 130.6315 65.8852 131.1937 66.5168 131.1937 66.5168 134.7364 67.2253 134.7364 67.2253 131.1937 67.2253 130.6315 66.5168 130.6315 65.8852 130.6315"/><path class="cls-1" d="m66.7093,129.9538c.154,0,.272-.0411.3543-.1233.082-.0822.1232-.1927.1232-.3312,0-.1333-.0412-.2413-.1232-.3234-.0822-.0819-.2003-.1233-.3543-.1233-.1541,0-.2709.0413-.3505.1233-.0797.0822-.1194.1927-.1194.3312,0,.1335.0397.2413.1194.3234.0796.0822.1964.1233.3505.1233Z"/><path class="cls-1" d="m71.1301,132.734c-.2568-.2002-.6136-.3234-1.0706-.3698l-.4467-.0461c-.2362-.0256-.4095-.0859-.5199-.1809-.1104-.0949-.1656-.2222-.1656-.3813,0-.1899.0782-.344.2349-.462.1566-.1183.3735-.1771.6508-.1771.2823,0,.4993.0564.6508.1694.1514.113.2323.2593.2426.4389h.6701c-.0103-.3901-.1554-.6905-.4351-.9012-.2799-.2105-.656-.3157-1.1283-.3157-.303,0-.5712.0501-.8048.1503-.2337.1-.4172.2438-.5507.4312-.1336.1874-.2002.4094-.2002.6662,0,.3337.1168.5983.3504.7932.2336.1952.5532.3157.9588.362l.4544.0461c.2875.0308.4968.0952.6277.1927.1309.0975.1963.2338.1963.4081,0,.2054-.0899.3723-.2695.5006-.1798.1285-.434.1927-.7625.1927-.3441,0-.5995-.0656-.7663-.1964-.1669-.131-.253-.2914-.2581-.4813h-.67c.0102.4004.1629.715.4582.9433.2952.2285.7072.3427,1.2361.3427.3285,0,.6225-.0551.8819-.1656.2592-.1102.4608-.2656.6046-.466.1437-.2002.2157-.4234.2157-.6699,0-.349-.1284-.6238-.3851-.824Z"/><path class="cls-1" d="m73.3558,129.376h-.6777v1.2555h-.7163v.5314h.7163v2.195c0,.3493.0578.6276.1733.8355.1155.208.2823.358.5006.4505.2182.0924.4839.1388.7971.1388h.6316v-.6394h-.724c-.2208,0-.3928-.0601-.516-.1809-.1232-.1205-.1848-.2939-.1848-.5199v-2.2797h1.4248v-.5314h-1.4248v-1.2555Z"/><path class="cls-1" d="m78.3156,133.0805c0,.344-.0976.6176-.2926.8203-.1952.2029-.4519.3042-.7702.3042-.303,0-.543-.0924-.7201-.2771-.1771-.1849-.2657-.4417-.2657-.7702v-2.534h-.7086v2.3877c0,.5955.1309,1.0525.3928,1.3707.2618.3184.6341.4775,1.1167.4775h.0308c.4826,0,.8472-.1603,1.0937-.4813.1232-.1604.2156-.3571.2772-.59v.948h.5622v-4.1126h-.7163v2.4568Z"/><path class="cls-1" d="m80.6724,129.8921c.154,0,.2707-.0424.3504-.127.0795-.0847.1194-.1939.1194-.3275,0-.1386-.0398-.2475-.1194-.3272-.0797-.0797-.1964-.1195-.3504-.1195s-.2709.0413-.3504.1233c-.0797.0822-.1194.1927-.1194.3312,0,.1335.0397.2413.1194.3235.0795.0822.1964.1233.3504.1233Z"/><path class="cls-1" d="m79.856,130.6315v.5622h.6546v3.8586c0,.2002-.0527.3528-.1578.4582-.1053.105-.2555.1578-.4505.1578h-.439v.6391h.3312c.3389,0,.6096-.0436.8125-.1308.2028-.0874.3504-.23.4429-.4274.0924-.1979.1387-.466.1387-.805v-4.3128h-1.3324Z"/><path class="cls-1" d="m85.2124,130.77c-.2953-.1849-.6534-.2771-1.0743-.2771-.4365,0-.8049.1-1.1052.3001-.3003.2004-.5251.4623-.6739.7857-.149.3235-.2234.67-.2234,1.0398v.1308c0,.3648.0732.7085.2195,1.0322.1464.3234.3736.5865.6816.7892.3081.2029.6905.3044,1.1476.3044.4878,0,.8946-.1208,1.2207-.362.326-.2413.5327-.5725.62-.9936h-.67c-.0462.2054-.1733.3788-.3813.5199-.2079.1413-.4711.212-.7894.212-.308,0-.5635-.0681-.7663-.2042-.2029-.136-.3543-.3207-.4544-.5544-.0857-.2-.1344-.4274-.1468-.6817h3.2775v-.3234c0-.3543-.0732-.6827-.2195-.9856-.1464-.3029-.3672-.5469-.6624-.7318Zm-1.8099.5469c.1976-.1335.4429-.2002.7355-.2002.2721,0,.5056.0589.7008.1771.1951.118.3401.2861.4351.5043.0627.1441.1043.3048.1256.4813h-2.555c.0242-.1481.0622-.2856.115-.4119.0975-.2338.2451-.4171.4428-.5507Z"/><path class="cls-1" d="m87.0031,133.8276c-.1233,0-.226.0436-.3081.131-.0822.0872-.1232.1952-.1232.3234s.041.236.1232.3234c.0821.0872.1848.1308.3081.1308.1232,0,.2259-.0436.308-.1308.082-.0874.1232-.1952.1232-.3234s-.0412-.2363-.1232-.3234c-.0822-.0874-.1848-.131-.308-.131Z"/><path class="cls-1" d="m253.3941,130.7971c-.3339-.2027-.7215-.3042-1.163-.3042H90.0913c-.4416,0-.8292.1015-1.1629.3042-.3339.2029-.588.4673-.7625.7932-.1746.3262-.2619.6689-.2619,1.0282v.1308c0,.3595.0847.7023.2542,1.0282.1694.3262.4209.5905.7548.7932.3337.2029.7264.3044,1.1783.3044h162.1398c.4518,0,.8445-.1015,1.1784-.3044.3337-.2027.5853-.467.7548-.7932.1694-.3259.2542-.6687.2542-1.0282v-.1308c0-.3593-.0874-.702-.2619-1.0282-.1746-.3259-.4287-.5903-.7625-.7932Zm.1425,2.6763c-.1156.2363-.2863.4224-.5122.5584-.226.136-.4904.2039-.7933.2039s-.5674-.0679-.7933-.2039c-.226-.136-.3979-.3222-.516-.5584-.1182-.236-.1771-.5006-.1771-.7932s.0616-.5572.1848-.7932c.1232-.2363.2965-.4211.5199-.5547.2233-.1333.4839-.2002.7817-.2002.2927,0,.5519.0669.7779.2002.2259.1335.3992.3184.5199.5547.1206.236.1809.5006.1809.7932s-.0578.5572-.1733.7932Z"/><path class="cls-2" d="m253.5366,133.4734c-.1156.2363-.2863.4224-.5122.5584-.226.136-.4904.2039-.7933.2039s-.5674-.0679-.7933-.2039c-.226-.136-.3979-.3222-.516-.5584-.1182-.236-.1771-.5006-.1771-.7932s.0616-.5572.1848-.7932c.1232-.2363.2965-.4211.5199-.5547.2233-.1333.4839-.2002.7817-.2002.2927,0,.5519.0669.7779.2002.2259.1335.3992.3184.5199.5547.1206.236.1809.5006.1809.7932s-.0578.5572-.1733.7932Z"/><path class="cls-1" d="m257.3604,130.5082h-.0308c-.5084,0-.8896.1606-1.1437.4813-.1293.1633-.2253.3645-.2888.6028v-.9608h-.5622v4.1049h.7086v-2.4568c0-.3337.1013-.6033.3042-.8085.2028-.2054.471-.3082.8048-.3082.3131,0,.5623.0962.7471.2889.1849.1924.2773.4532.2773.7817v2.5029h.7085v-2.3488c0-.6111-.1271-1.0771-.3812-1.398-.2542-.3207-.6354-.4813-1.1437-.4813Z"/><polygon class="cls-1" points="259.4938 129.1142 259.4938 129.6764 260.0714 129.6764 260.0714 134.7364 260.7799 134.7364 260.7799 129.6764 260.7799 129.1142 260.0714 129.1142 259.4938 129.1142"/><path class="cls-1" d="m262.4666,129.9538c.154,0,.2721-.0411.3543-.1233.0821-.0822.1232-.1927.1232-.3312,0-.1333-.0412-.2413-.1232-.3234-.0822-.0819-.2002-.1233-.3543-.1233s-.2709.0413-.3504.1233c-.0796.0822-.1194.1927-.1194.3312,0,.1335.0398.2413.1194.3234.0795.0822.1964.1233.3504.1233Z"/><polygon class="cls-1" points="261.6425 130.6315 261.6425 131.1937 262.2741 131.1937 262.2741 134.7364 262.9826 134.7364 262.9826 131.1937 262.9826 130.6315 262.2741 130.6315 261.6425 130.6315"/><path class="cls-1" d="m266.2482,130.5082h-.0308c-.5083,0-.8896.1606-1.1437.4813-.1293.1632-.2253.3644-.2888.6027v-.9607h-.5622v4.1049h.7086v-2.4568c0-.3337.1013-.6033.3042-.8085.2028-.2054.471-.3082.8048-.3082.3131,0,.5622.0962.7471.2889.1848.1924.2773.4532.2773.7817v2.5029h.7085v-2.3488c0-.6111-.1271-1.0771-.3813-1.398-.2541-.3207-.6354-.4813-1.1437-.4813Z"/><path class="cls-1" d="m272.6174,132.4875c0-.3543-.0732-.6827-.2195-.9856-.1464-.3029-.3672-.5469-.6624-.7318-.2953-.1849-.6534-.2771-1.0743-.2771-.4365,0-.8049.1-1.1052.3001-.3003.2004-.5251.4623-.6739.7857-.149.3235-.2234.67-.2234,1.0398v.1308c0,.3648.0732.7085.2195,1.0322.1464.3234.3736.5865.6816.7892.3081.2029.6905.3044,1.1476.3044.4878,0,.8946-.1208,1.2207-.362.326-.2413.5327-.5725.62-.9936h-.67c-.0462.2054-.1733.3788-.3813.5199-.2079.1413-.4711.212-.7894.212-.308,0-.5635-.0681-.7663-.2042-.2029-.136-.3543-.3207-.4544-.5544-.0857-.2-.1344-.4274-.1468-.6817h3.2775v-.3234Zm-2.6917-1.1705c.1976-.1335.4429-.2002.7355-.2002.2721,0,.5056.0589.7008.1771.195.118.3401.2861.4351.5043.0627.1441.1043.3048.1256.4813h-2.555c.0242-.1481.0622-.2856.115-.4119.0975-.2338.2451-.4171.4428-.5507Z"/></g><rect class="cls-3" x="50" y="56.2439" width="230" height="7.3826"/></svg>