<?xml version="1.0" encoding="UTF-8"?><svg id="Vrstva_1" xmlns="http://www.w3.org/2000/svg" viewBox="0 0 330 276.687"><defs><style>.cls-1{fill:#ededed;}.cls-2{fill:#b700ff;}</style></defs><rect class="cls-1" x="57.0176" y="50.1103" width="112.0026" height="112.0026"/><rect class="cls-1" x="180.5302" y="50.1103" width="99.5765" height="176.5483"/><rect class="cls-1" x="57.0176" y="173.4413" width="112.0026" height="53.2173"/><rect class="cls-2" x="50" y="152.6317" width="4.7519" height="4.7519"/><rect class="cls-2" x="57.0175" y="88.8868" width="112.0026" height=".2832"/><rect class="cls-2" x="57.0175" y="123.0531" width="112.0026" height=".2832"/><rect class="cls-2" x="95.7942" y="50.1103" width=".2832" height="112.0026"/><rect class="cls-2" x="129.9604" y="50.1103" width=".2832" height="112.0026"/><rect class="cls-2" x="57.0175" y="157.2195" width="112.0026" height=".2832"/><rect class="cls-2" x="164.1267" y="50.1103" width=".2832" height="112.0026"/><rect class="cls-2" x="57.0175" y="54.7206" width="112.0026" height=".2832"/><rect class="cls-2" x="61.6277" y="50.1103" width=".2832" height="112.0026"/><rect class="cls-2" x="172.1837" y="214.497" width="6.0808" height="6.0808"/><rect class="cls-2" x="180.5302" y="110.8451" width="99.5764" height=".2832"/><rect class="cls-2" x="180.5302" y="165.6406" width="99.5764" height=".2832"/><rect class="cls-2" x="215.6078" y="50.1103" width=".2832" height="176.5484"/><rect class="cls-2" x="244.7459" y="50.1103" width=".2832" height="175.9662"/><rect class="cls-2" x="180.5302" y="56.0495" width="99.5764" height=".2832"/><rect class="cls-2" x="273.8843" y="50.1103" width=".2832" height="176.5484"/><rect class="cls-2" x="180.5302" y="220.4361" width="99.5764" height=".2832"/><rect class="cls-2" x="186.4694" y="50.1103" width=".2832" height="176.5484"/><rect class="cls-2" x="51.0318" y="219.2654" width="3.7201" height="3.7201"/><rect class="cls-2" x="57.0175" y="192.2789" width="112.0026" height=".2832"/><rect class="cls-2" x="57.0175" y="207.5379" width="112.0026" height=".2832"/><rect class="cls-2" x="95.4501" y="173.3765" width=".2832" height="53.2822"/><rect class="cls-2" x="130.3042" y="173.4413" width=".2832" height="53.2173"/><rect class="cls-2" x="60.5961" y="173.4413" width=".2832" height="53.2173"/><rect class="cls-2" x="165.1586" y="173.4413" width=".2832" height="53.2173"/><rect class="cls-2" x="57.0175" y="177.0198" width="112.0026" height=".2832"/><rect class="cls-2" x="57.0175" y="222.797" width="112.0026" height=".2832"/><rect class="cls-2" x="57.0175" y="152.4675" width="112.0026" height=".2832"/><rect class="cls-2" x="180.5302" y="214.3554" width="99.5764" height=".2832"/><rect class="cls-2" x="57.0175" y="219.0768" width="112.0026" height=".2832"/><g><path d="m63.7677,153.7646c-.1918-.1201-.4244-.18-.6978-.18-.2835,0-.5227.0649-.7178.1949-.1951.1302-.341.3002-.4377.5103-.0968.2101-.1451.4351-.1451.6753v.0849c0,.2369.0475.4602.1425.6704.0951.2101.2426.3809.4427.5126.2001.1318.4485.1977.7453.1977.3168,0,.581-.0784.7928-.2351.2117-.1567.3459-.3718.4027-.6453h-.4352c-.03.1334-.1126.246-.2476.3376-.135.0918-.306.1377-.5127.1377-.2001,0-.366-.0443-.4977-.1326-.1318-.0884-.2301-.2083-.2951-.3601-.0557-.1299-.0873-.2776-.0953-.4428h2.1287v-.2101c0-.2301-.0475-.4434-.1425-.6401-.0951-.1967-.2385-.3552-.4302-.4753Zm-1.1755.3552c.1283-.0867.2876-.13.4777-.13.1767,0,.3284.0382.4552.115.1267.0766.2209.1858.2826.3275.0407.0936.0677.1979.0816.3126h-1.6593c.0157-.0962.0404-.1855.0747-.2675.0633-.1518.1592-.2709.2876-.3577Z"/><polygon points="66.8914 153.6746 66.4162 153.6746 65.796 154.6849 65.726 154.6849 65.0707 153.6746 64.5605 153.6746 65.4346 154.9954 64.5155 156.3406 64.9907 156.3406 65.721 155.2502 65.791 155.2502 66.5513 156.3406 67.0615 156.3406 66.0784 154.9419 66.8914 153.6746"/><polygon points="67.2916 153.6746 67.2916 154.0398 67.7018 154.0398 67.7018 156.3406 68.162 156.3406 68.162 154.0398 68.162 153.6746 67.7018 153.6746 67.2916 153.6746"/><path d="m67.8268,153.2345c.1,0,.1767-.0267.2301-.0801.0533-.0534.08-.1251.08-.2151,0-.0866-.0267-.1567-.08-.2101-.0534-.0532-.1301-.0801-.2301-.0801-.1001,0-.1759.0268-.2276.0801-.0517.0534-.0775.1251-.0775.2151,0,.0867.0258.1567.0775.2101.0517.0534.1275.0801.2276.0801Z"/><path d="m70.698,155.0402c-.1668-.13-.3985-.2101-.6953-.2402l-.2901-.0299c-.1534-.0166-.266-.0558-.3376-.1175-.0717-.0617-.1075-.1443-.1075-.2477,0-.1233.0508-.2234.1526-.3001.1017-.0768.2426-.115.4227-.115.1833,0,.3243.0366.4227.11.0983.0734.1508.1684.1575.2851h.4352c-.0067-.2534-.1009-.4485-.2826-.5853-.1818-.1367-.426-.205-.7328-.205-.1968,0-.371.0325-.5227.0976-.1518.0649-.271.1583-.3577.28-.0868.1217-.13.2659-.13.4327,0,.2167.0758.3886.2276.5152.1517.1268.3593.205.6227.2351l.2951.0299c.1867.02.3226.0618.4077.1251.085.0633.1275.1518.1275.2651,0,.1334-.0584.2418-.175.3251-.1168.0835-.2818.1251-.4952.1251-.2235,0-.3894-.0426-.4977-.1276-.1084-.0851-.1643-.1892-.1676-.3126h-.4352c.0066.26.1058.4644.2976.6126.1917.1484.4593.2226.8028.2226.2134,0,.4043-.0358.5727-.1076.1683-.0716.2993-.1725.3926-.3027.0933-.13.1401-.275.1401-.4351,0-.2267-.0834-.4052-.2501-.5352Z"/><path d="m72.1435,152.8592h-.4402v.8154h-.4652v.3451h.4652v1.4256c0,.2268.0375.4076.1125.5427.075.1351.1833.2325.3251.2926.1417.06.3143.0901.5177.0901h.4102v-.4153h-.4702c-.1434,0-.2551-.039-.3351-.1175-.08-.0783-.12-.1909-.12-.3376v-1.4806h.9254v-.3451h-.9254v-.8154Z"/><path d="m75.3647,155.2652c0,.2234-.0634.4011-.1901.5327-.1268.1318-.2935.1975-.5002.1975-.1968,0-.3527-.06-.4677-.18-.115-.1201-.1726-.2869-.1726-.5002v-1.6457h-.4602v1.5507c0,.3868.085.6836.2551.8902.17.2068.4118.3101.7253.3101h.02c.3134,0,.5502-.1041.7103-.3126.08-.1042.14-.2319.1801-.3832v.6157h.3651v-2.671h-.4652v1.5956Z"/><path d="m76.8954,153.1944c.1,0,.1758-.0275.2276-.0825.0517-.055.0775-.1259.0775-.2127,0-.09-.0259-.1608-.0775-.2125-.0518-.0517-.1275-.0776-.2276-.0776s-.1759.0269-.2276.0801c-.0518.0534-.0775.1251-.0775.2151,0,.0867.0258.1567.0775.2101.0517.0534.1275.0801.2276.0801Z"/><path d="m76.3652,153.6746v.3651h.4251v2.506c0,.13-.0342.2291-.1025.2976-.0684.0682-.1659.1025-.2926.1025h-.2851v.4151h.2151c.2201,0,.3959-.0283.5277-.0849.1317-.0568.2276-.1494.2876-.2776.06-.1285.0901-.3027.0901-.5228v-2.801h-.8653Z"/><path d="m79.844,153.7646c-.1918-.1201-.4244-.18-.6977-.18-.2835,0-.5228.0649-.7178.1949-.1951.1302-.341.3002-.4377.5103-.0967.2101-.1451.4351-.1451.6753v.0849c0,.2369.0475.4602.1425.6704.0951.2101.2426.3809.4427.5126.2001.1318.4485.1977.7453.1977.3168,0,.581-.0784.7928-.2351.2117-.1567.3459-.3718.4027-.6453h-.4352c-.03.1334-.1126.246-.2476.3376-.135.0918-.306.1377-.5127.1377-.2001,0-.366-.0443-.4977-.1326-.1318-.0884-.2301-.2083-.2951-.3601-.0556-.1299-.0873-.2776-.0953-.4428h2.1287v-.2101c0-.2301-.0475-.4434-.1425-.6401-.0951-.1967-.2385-.3552-.4302-.4753Zm-1.1755.3552c.1284-.0867.2876-.13.4777-.13.1767,0,.3284.0382.4552.115.1267.0766.2209.1858.2826.3275.0407.0936.0677.1979.0816.3126h-1.6594c.0157-.0962.0404-.1855.0747-.2675.0633-.1518.1592-.2709.2876-.3577Z"/><path d="m81.0069,155.7504c-.0801,0-.1468.0283-.2001.0851-.0534.0566-.08.1268-.08.2101s.0266.1533.08.2101c.0533.0566.12.0849.2001.0849.08,0,.1467-.0283.2001-.0849.0533-.0568.08-.1268.08-.2101s-.0267-.1534-.08-.2101c-.0534-.0568-.12-.0851-.2001-.0851Z"/><path d="m151.7834,153.7822c-.2168-.1316-.4686-.1975-.7553-.1975h-68.0154c-.2868,0-.5386.0659-.7553.1975-.2168.1318-.3819.3035-.4952.5152-.1134.2119-.1701.4345-.1701.6678v.0849c0,.2335.055.4561.1651.6678.11.2119.2734.3835.4902.5152.2167.1318.4718.1977.7653.1977h68.0154c.2934,0,.5485-.0659.7653-.1977.2167-.1316.3802-.3033.4902-.5152.11-.2117.1651-.4343.1651-.6678v-.0849c0-.2333-.0568-.4559-.1701-.6678-.1134-.2117-.2785-.3834-.4952-.5152Zm.0925,1.7382c-.0751.1534-.1859.2743-.3326.3627-.1468.0884-.3185.1325-.5152.1325s-.3685-.0441-.5152-.1325c-.1468-.0884-.2584-.2093-.3351-.3627-.0768-.1533-.115-.3251-.115-.5152s.04-.3619.12-.5152c.08-.1534.1926-.2735.3377-.3603.145-.0866.3143-.13.5077-.13.1901,0,.3584.0434.5052.13.1467.0867.2593.2068.3376.3603.0783.1533.1175.3251.1175.5152s-.0375.3619-.1125.5152Z"/><path class="cls-2" d="m151.8759,155.5203c-.0751.1534-.1859.2743-.3326.3627-.1468.0884-.3185.1325-.5152.1325s-.3685-.0441-.5152-.1325c-.1468-.0884-.2584-.2093-.3351-.3627-.0768-.1533-.115-.3251-.115-.5152s.04-.3619.12-.5152c.08-.1534.1926-.2735.3377-.3603.145-.0866.3143-.13.5077-.13.1901,0,.3584.0434.5052.13.1467.0867.2593.2068.3376.3603.0783.1533.1175.3251.1175.5152s-.0375.3619-.1125.5152Z"/><path d="m154.3594,153.5946h-.02c-.3302,0-.5777.1043-.7428.3126-.084.106-.1463.2367-.1876.3915v-.624h-.3651v2.666h.4602v-1.5956c0-.2167.0658-.3918.1976-.5251.1317-.1334.3059-.2001.5227-.2001.2034,0,.3652.0625.4852.1876.1201.125.1801.2944.1801.5077v1.6256h.4602v-1.5255c0-.3969-.0825-.6995-.2476-.908-.1651-.2083-.4127-.3126-.7428-.3126Z"/><polygon points="155.7449 152.6892 155.7449 153.0543 156.12 153.0543 156.12 156.3406 156.5802 156.3406 156.5802 153.0543 156.5802 152.6892 156.12 152.6892 155.7449 152.6892"/><path d="m157.6757,153.2345c.1,0,.1767-.0267.2301-.0801.0533-.0534.08-.1251.08-.2151,0-.0866-.0267-.1567-.08-.2101-.0534-.0532-.13-.0801-.2301-.0801s-.1759.0268-.2276.0801c-.0517.0534-.0775.1251-.0775.2151,0,.0867.0258.1567.0775.2101.0517.0534.1276.0801.2276.0801Z"/><polygon points="157.1404 153.6746 157.1404 154.0398 157.5506 154.0398 157.5506 156.3406 158.0108 156.3406 158.0108 154.0398 158.0108 153.6746 157.5506 153.6746 157.1404 153.6746"/><path d="m160.1317,153.5946h-.02c-.3301,0-.5777.1043-.7428.3126-.084.106-.1463.2367-.1876.3914v-.624h-.3651v2.666h.4602v-1.5956c0-.2167.0658-.3918.1976-.5251.1317-.1334.3059-.2001.5227-.2001.2034,0,.3651.0625.4852.1876.12.125.1801.2944.1801.5077v1.6256h.4602v-1.5255c0-.3969-.0825-.6995-.2476-.908-.165-.2083-.4127-.3126-.7428-.3126Z"/><path d="m164.2683,154.88c0-.2301-.0475-.4434-.1425-.6401-.0951-.1967-.2385-.3552-.4302-.4753-.1918-.1201-.4244-.18-.6977-.18-.2835,0-.5227.0649-.7178.1949-.1951.1302-.341.3002-.4377.5103-.0967.2101-.1451.4351-.1451.6753v.0849c0,.2369.0475.4602.1425.6704.0951.2101.2426.3809.4427.5126.2001.1318.4485.1977.7453.1977.3168,0,.581-.0784.7928-.2351.2117-.1567.3459-.3718.4026-.6453h-.4352c-.03.1334-.1126.246-.2476.3376-.135.0918-.306.1377-.5127.1377-.2001,0-.366-.0443-.4977-.1326-.1318-.0884-.2301-.2083-.2951-.3601-.0556-.1299-.0873-.2776-.0953-.4428h2.1286v-.2101Zm-1.7482-.7602c.1284-.0867.2876-.13.4777-.13.1767,0,.3284.0382.4552.115.1267.0766.2209.1858.2826.3275.0407.0936.0677.1979.0816.3126h-1.6594c.0157-.0962.0404-.1855.0747-.2675.0633-.1518.1592-.2709.2876-.3577Z"/></g><g><path d="m62.3021,220.123c-.1502-.094-.3322-.1409-.5463-.1409-.2219,0-.4092.0508-.5619.1526-.1527.1019-.267.235-.3426.3995-.0758.1645-.1136.3406-.1136.5287v.0665c0,.1855.0372.3602.1116.5248.0744.1645.1899.2982.3466.4013.1567.1032.3511.1548.5835.1548.248,0,.4548-.0614.6207-.1841.1658-.1227.2708-.2911.3152-.5052h-.3407c-.0235.1045-.0881.1926-.1939.2643-.1057.0718-.2395.1078-.4014.1078-.1566,0-.2865-.0346-.3896-.1038-.1032-.0692-.1801-.1631-.2311-.2819-.0436-.1017-.0683-.2173-.0746-.3466h1.6665v-.1645c0-.1801-.0372-.3471-.1116-.5011-.0744-.154-.1867-.2781-.3368-.3721Zm-.9202.2781c.1004-.0679.2252-.1018.374-.1018.1383,0,.2571.0299.3564.0901.0992.06.1729.1455.2212.2564.0319.0732.053.155.0638.2447h-1.2991c.0123-.0753.0316-.1452.0585-.2094.0496-.1189.1246-.2121.2252-.28Z"/><polygon points="64.7475 220.0526 64.3755 220.0526 63.8899 220.8435 63.8351 220.8435 63.3221 220.0526 62.9227 220.0526 63.607 221.0866 62.8874 222.1397 63.2595 222.1397 63.8312 221.286 63.886 221.286 64.4813 222.1397 64.8807 222.1397 64.1111 221.0447 64.7475 220.0526"/><polygon points="65.0608 220.0526 65.0608 220.3384 65.3819 220.3384 65.3819 222.1397 65.7422 222.1397 65.7422 220.3384 65.7422 220.0526 65.3819 220.0526 65.0608 220.0526"/><path d="m65.4798,219.708c.0783,0,.1383-.0209.1801-.0627.0417-.0418.0626-.098.0626-.1684,0-.0678-.0209-.1227-.0626-.1645-.0418-.0417-.1018-.0627-.1801-.0627-.0783,0-.1377.021-.1782.0627-.0405.0418-.0607.098-.0607.1684,0,.0679.0202.1227.0607.1645.0405.0418.0999.0627.1782.0627Z"/><path d="m67.7276,221.1216c-.1306-.1018-.312-.1645-.5443-.188l-.2271-.0234c-.1201-.013-.2082-.0437-.2643-.092-.0561-.0483-.0842-.113-.0842-.1939,0-.0966.0397-.1749.1194-.2349.0796-.0601.1899-.0901.3309-.0901.1435,0,.2539.0287.3309.0861.077.0575.1181.1318.1233.2232h.3407c-.0053-.1983-.079-.3511-.2212-.4582-.1423-.107-.3335-.1605-.5737-.1605-.1541,0-.2904.0255-.4092.0764-.1188.0508-.2121.1239-.28.2192-.0679.0953-.1018.2081-.1018.3387,0,.1697.0594.3042.1782.4033.1188.0992.2813.1605.4875.1841l.2311.0234c.1462.0157.2526.0484.3192.098.0666.0496.0998.1189.0998.2075,0,.1045-.0457.1893-.137.2545-.0914.0654-.2206.098-.3877.098-.1749,0-.3048-.0334-.3896-.0999-.0849-.0666-.1286-.1481-.1312-.2447h-.3407c.0052.2036.0828.3636.233.4796.1501.1162.3596.1743.6285.1743.167,0,.3165-.028.4484-.0842.1318-.056.2343-.135.3074-.2369.0731-.1018.1097-.2153.1097-.3406,0-.1775-.0653-.3172-.1958-.419Z"/><path d="m68.8592,219.4142h-.3446v.6383h-.3642v.2702h.3642v1.116c0,.1776.0294.3191.0881.4248.0587.1057.1435.182.2545.229.111.047.2461.0706.4053.0706h.3211v-.3251h-.3681c-.1123,0-.1997-.0306-.2624-.092-.0626-.0613-.094-.1494-.094-.2643v-1.1591h.7244v-.2702h-.7244v-.6383Z"/><path d="m71.381,221.2978c0,.1749-.0496.314-.1488.4171-.0992.1032-.2297.1546-.3916.1546-.1541,0-.2761-.047-.3662-.1409-.0901-.094-.1351-.2246-.1351-.3916v-1.2884h-.3603v1.214c0,.3028.0666.5352.1997.6969.1331.1619.3224.2428.5678.2428h.0156c.2454,0,.4308-.0815.5561-.2447.0626-.0816.1096-.1816.141-.3v.482h.2859v-2.0911h-.3642v1.2492Z"/><path d="m72.5793,219.6766c.0783,0,.1376-.0215.1782-.0646.0404-.0431.0607-.0986.0607-.1665,0-.0704-.0203-.1259-.0607-.1664-.0405-.0405-.0999-.0608-.1782-.0608s-.1377.021-.1782.0627c-.0405.0418-.0607.098-.0607.1684,0,.0679.0202.1227.0607.1645.0404.0418.0998.0627.1782.0627Z"/><path d="m72.1642,220.0526v.2859h.3328v1.9619c0,.1018-.0268.1794-.0803.233-.0535.0534-.1299.0803-.2291.0803h-.2232v.325h.1684c.1723,0,.31-.0222.4131-.0665.1031-.0445.1782-.1169.2252-.2173.047-.1006.0705-.2369.0705-.4093v-2.1928h-.6775Z"/><path d="m74.8877,220.123c-.1501-.094-.3322-.1409-.5462-.1409-.222,0-.4092.0508-.562.1526-.1527.1019-.267.235-.3426.3995-.0757.1645-.1136.3406-.1136.5287v.0665c0,.1855.0372.3602.1116.5248.0744.1645.1899.2982.3466.4013.1567.1032.3511.1548.5835.1548.248,0,.4549-.0614.6207-.1841.1658-.1227.2708-.2911.3152-.5052h-.3407c-.0235.1045-.0881.1926-.1939.2643-.1057.0718-.2395.1078-.4014.1078-.1566,0-.2865-.0346-.3896-.1038-.1032-.0692-.1801-.1631-.2311-.2819-.0435-.1017-.0683-.2173-.0746-.3466h1.6665v-.1645c0-.1801-.0372-.3471-.1116-.5011-.0744-.154-.1867-.2781-.3368-.3721Zm-.9202.2781c.1005-.0679.2252-.1018.374-.1018.1383,0,.2571.0299.3563.0901.0992.06.1729.1455.2212.2564.0319.0732.053.155.0639.2447h-1.2991c.0123-.0753.0316-.1452.0585-.2094.0496-.1189.1246-.2121.2252-.28Z"/><path d="m75.7981,221.6776c-.0627,0-.1149.0222-.1567.0666-.0418.0443-.0626.0992-.0626.1645s.0209.12.0626.1645c.0418.0443.094.0665.1567.0665.0626,0,.1148-.0222.1566-.0665.0417-.0445.0626-.0992.0626-.1645s-.0209-.1201-.0626-.1645c-.0418-.0445-.094-.0666-.1566-.0666Z"/><path d="m155.526,220.1368c-.1697-.1031-.3668-.1546-.5913-.1546h-77.5663c-.2245,0-.4216.0516-.5913.1546-.1697.1032-.299.2376-.3877.4033-.0888.1659-.1332.3401-.1332.5228v.0665c0,.1828.0431.3571.1292.5228.0861.1659.214.3003.3838.4033.1696.1032.3694.1548.5991.1548h77.5663c.2297,0,.4294-.0516.5991-.1548.1697-.1031.2976-.2374.3838-.4033.0861-.1657.1292-.34.1292-.5228v-.0665c0-.1827-.0444-.3569-.1332-.5228-.0888-.1657-.218-.3001-.3877-.4033Zm.0724,1.3608c-.0588.1201-.1456.2148-.2604.2839-.1149.0692-.2493.1037-.4033.1037s-.2885-.0345-.4033-.1037c-.1149-.0692-.2023-.1638-.2624-.2839-.0601-.12-.0901-.2545-.0901-.4033s.0313-.2833.094-.4033c.0626-.1201.1508-.2141.2643-.282.1135-.0678.246-.1018.3975-.1018.1488,0,.2806.034.3955.1018.1148.0679.203.1619.2643.282.0613.12.092.2545.092.4033s-.0294.2833-.0881.4033Z"/><path class="cls-2" d="m155.5984,221.4975c-.0588.1201-.1456.2148-.2604.2839-.1149.0692-.2493.1037-.4033.1037s-.2885-.0345-.4033-.1037c-.1149-.0692-.2023-.1638-.2624-.2839-.0601-.12-.0901-.2545-.0901-.4033s.0313-.2833.094-.4033c.0626-.1201.1508-.2141.2643-.282.1135-.0678.246-.1018.3975-.1018.1488,0,.2806.034.3955.1018.1148.0679.203.1619.2643.282.0613.12.092.2545.092.4033s-.0294.2833-.0881.4033Z"/><path d="m157.5426,219.9899h-.0156c-.2585,0-.4523.0817-.5815.2447-.0657.083-.1146.1853-.1469.3065v-.4885h-.2859v2.0871h.3603v-1.2492c0-.1697.0515-.3067.1547-.4111.1031-.1045.2395-.1567.4092-.1567.1592,0,.2859.0489.3798.1469.094.0978.141.2304.141.3974v1.2726h.3603v-1.1943c0-.3107-.0646-.5476-.1938-.7108-.1292-.1631-.3231-.2447-.5815-.2447Z"/><polygon points="158.6273 219.2811 158.6273 219.567 158.921 219.567 158.921 222.1397 159.2813 222.1397 159.2813 219.567 159.2813 219.2811 158.921 219.2811 158.6273 219.2811"/><path d="m160.1389,219.708c.0783,0,.1384-.0209.1801-.0627.0417-.0418.0626-.098.0626-.1684,0-.0678-.0209-.1227-.0626-.1645-.0418-.0417-.1018-.0627-.1801-.0627s-.1377.021-.1782.0627c-.0405.0418-.0607.098-.0607.1684,0,.0679.0202.1227.0607.1645.0404.0418.0999.0627.1782.0627Z"/><polygon points="159.7199 220.0526 159.7199 220.3384 160.041 220.3384 160.041 222.1397 160.4012 222.1397 160.4012 220.3384 160.4012 220.0526 160.041 220.0526 159.7199 220.0526"/><path d="m162.0616,219.9899h-.0157c-.2584,0-.4523.0817-.5815.2447-.0657.083-.1146.1853-.1469.3064v-.4885h-.2859v2.0871h.3603v-1.2492c0-.1697.0515-.3067.1547-.4111.1031-.1045.2395-.1567.4092-.1567.1592,0,.2859.0489.3798.1469.094.0978.141.2304.141.3974v1.2726h.3603v-1.1943c0-.3107-.0646-.5476-.1939-.7108-.1292-.1631-.3231-.2447-.5815-.2447Z"/><path d="m165.3,220.9962c0-.1801-.0372-.3471-.1116-.5011-.0744-.154-.1867-.2781-.3368-.3721-.1501-.094-.3322-.1409-.5462-.1409-.2219,0-.4092.0508-.5619.1526-.1527.1019-.267.235-.3426.3995-.0757.1645-.1136.3406-.1136.5287v.0665c0,.1855.0372.3602.1116.5248.0744.1645.1899.2982.3466.4013.1567.1032.3511.1548.5835.1548.248,0,.4549-.0614.6207-.1841.1658-.1227.2708-.2911.3152-.5052h-.3407c-.0235.1045-.0881.1926-.1939.2643-.1057.0718-.2395.1078-.4014.1078-.1566,0-.2865-.0346-.3896-.1038-.1032-.0692-.1801-.1631-.2311-.2819-.0435-.1017-.0683-.2173-.0746-.3466h1.6664v-.1645Zm-1.3686-.5952c.1005-.0679.2252-.1018.374-.1018.1383,0,.2571.0299.3563.0901.0992.06.1729.1455.2212.2564.0319.0732.053.155.0638.2447h-1.2991c.0123-.0753.0316-.1452.0585-.2094.0496-.1189.1246-.2121.2252-.28Z"/></g><g><path d="m189.1682,215.9756c-.2454-.1537-.5431-.2303-.8929-.2303-.3627,0-.6689.0831-.9185.2495-.2497.1666-.4364.3842-.5601.653-.1239.2688-.1856.5568-.1856.8641v.1087c0,.3032.0608.5889.1824.8579.1217.2688.3105.4875.5665.6559.2561.1687.5739.253.9537.253.4054,0,.7435-.1004,1.0145-.3009.271-.2005.4427-.4758.5153-.8258h-.5568c-.0384.1707-.144.3148-.3169.4321-.1728.1174-.3915.1762-.6561.1762-.256,0-.4684-.0566-.6369-.1697-.1687-.1131-.2944-.2665-.3777-.4608-.0712-.1662-.1117-.3552-.122-.5666h2.724v-.2688c0-.2944-.0608-.5674-.1824-.8192-.1217-.2517-.3052-.4546-.5505-.6082Zm-1.5042.4546c.1642-.111.3681-.1664.6113-.1664.2261,0,.4203.0489.5825.1472.1621.0981.2826.2378.3616.4192.0521.1197.0866.2533.1044.4h-2.1234c.0201-.1231.0517-.2374.0956-.3423.081-.1943.2037-.3467.368-.4577Z"/><polygon points="193.1655 215.8605 192.5574 215.8605 191.7637 217.1533 191.6741 217.1533 190.8356 215.8605 190.1827 215.8605 191.3012 217.5507 190.125 219.272 190.7332 219.272 191.6677 217.8767 191.7573 217.8767 192.7302 219.272 193.3831 219.272 192.1251 217.4822 193.1655 215.8605"/><polygon points="193.6776 215.8605 193.6776 216.3277 194.2025 216.3277 194.2025 219.272 194.7913 219.272 194.7913 216.3277 194.7913 215.8605 194.2025 215.8605 193.6776 215.8605"/><path d="m194.3625,215.2972c.128,0,.2261-.0341.2944-.1025.0682-.0683.1024-.1601.1024-.2753,0-.1108-.0342-.2005-.1024-.2688-.0683-.0681-.1665-.1024-.2944-.1024-.1281,0-.2251.0344-.2913.1024-.0662.0683-.0992.1601-.0992.2753,0,.111.033.2005.0992.2688.0661.0683.1632.1025.2913.1025Z"/><path d="m198.0366,217.6079c-.2134-.1664-.51-.2688-.8898-.3073l-.3712-.0383c-.1963-.0212-.3404-.0714-.4321-.1503-.0918-.0789-.1376-.1847-.1376-.3169,0-.1578.065-.2859.1952-.384.1301-.0983.3105-.1472.5409-.1472.2346,0,.415.0468.5409.1408.1258.0939.193.2155.2016.3648h.5569c-.0086-.3242-.1292-.5739-.3616-.749-.2326-.1749-.5452-.2624-.9378-.2624-.2518,0-.4748.0416-.6689.1249-.1942.0831-.3468.2026-.4577.3584-.111.1557-.1664.3402-.1664.5537,0,.2773.097.4972.2913.6592.1941.1622.4598.2624.7969.3009l.3777.0383c.2389.0256.4129.0791.5217.1601.1088.081.1632.1943.1632.3392,0,.1707-.0747.3094-.224.416-.1495.1068-.3607.1601-.6337.1601-.2859,0-.4983-.0546-.6369-.1632-.1387-.1089-.2103-.2422-.2145-.4h-.5568c.0085.3327.1354.5943.3808.784.2454.1899.5878.2848,1.0274.2848.273,0,.5174-.0458.7329-.1376.2154-.0916.3829-.2207.5025-.3873.1194-.1664.1792-.3519.1792-.5568,0-.2901-.1067-.5185-.3201-.6849Z"/><path d="m199.8864,214.817h-.5633v1.0434h-.5953v.4416h.5953v1.8243c0,.2903.048.5216.144.6944.096.1728.2346.2976.416.3744.1814.0768.4022.1154.6625.1154h.5249v-.5314h-.6017c-.1835,0-.3265-.05-.4288-.1503-.1024-.1001-.1536-.2442-.1536-.4321v-1.8946h1.1842v-.4416h-1.1842v-1.0434Z"/><path d="m204.0085,217.8959c0,.2859-.0811.5133-.2432.6817-.1622.1687-.3755.2528-.6401.2528-.2519,0-.4513-.0768-.5985-.2303-.1472-.1537-.2208-.3671-.2208-.6401v-2.106h-.5889v1.9844c0,.4949.1088.8748.3265,1.1392.2176.2647.527.3969.9281.3969h.0256c.4011,0,.7041-.1333.909-.4.1024-.1333.1792-.2968.2304-.4903v.7879h.4673v-3.418h-.5953v2.0419Z"/><path d="m205.9672,215.246c.128,0,.225-.0352.2912-.1056.0661-.0704.0992-.1612.0992-.2722,0-.1152-.0331-.2057-.0992-.2719-.0662-.0662-.1632-.0993-.2912-.0993s-.2251.0344-.2913.1025c-.0662.0683-.0992.1601-.0992.2753,0,.111.033.2005.0992.2688.0661.0683.1632.1025.2913.1025Z"/><path d="m205.2887,215.8605v.4673h.544v3.2069c0,.1664-.0438.2932-.1312.3809-.0875.0872-.2123.1312-.3744.1312h-.3649v.5312h.2752c.2816,0,.5067-.0362.6753-.1087.1686-.0727.2913-.1912.3681-.3552.0768-.1645.1152-.3873.1152-.669v-3.5844h-1.1074Z"/><path d="m209.7404,215.9756c-.2454-.1537-.5431-.2303-.8929-.2303-.3628,0-.6689.0831-.9186.2495-.2496.1666-.4364.3842-.5601.653-.1238.2688-.1856.5568-.1856.8641v.1087c0,.3032.0608.5889.1824.8579.1217.2688.3105.4875.5665.6559.2561.1687.5739.253.9537.253.4054,0,.7435-.1004,1.0145-.3009.271-.2005.4427-.4758.5153-.8258h-.5568c-.0384.1707-.144.3148-.3169.4321-.1728.1174-.3915.1762-.6561.1762-.256,0-.4684-.0566-.6369-.1697-.1686-.1131-.2944-.2665-.3777-.4608-.0712-.1662-.1117-.3552-.122-.5666h2.724v-.2688c0-.2944-.0608-.5674-.1824-.8192-.1217-.2517-.3052-.4546-.5505-.6082Zm-1.5042.4546c.1643-.111.3681-.1664.6113-.1664.2261,0,.4202.0489.5825.1472.1621.0981.2826.2378.3616.4192.0521.1197.0867.2533.1044.4h-2.1234c.0201-.1231.0517-.2374.0956-.3423.081-.1943.2037-.3467.368-.4577Z"/><path d="m211.2286,218.5168c-.1025,0-.1878.0362-.2561.1089-.0683.0725-.1024.1622-.1024.2688s.0341.1961.1024.2688c.0682.0725.1536.1087.2561.1087.1024,0,.1877-.0362.256-.1087.0682-.0727.1024-.1622.1024-.2688s-.0342-.1964-.1024-.2688c-.0683-.0727-.1536-.1089-.256-.1089Z"/><path d="m258.0494,215.9981c-.2775-.1685-.5996-.2528-.9666-.2528h-43.2876c-.367,0-.6892.0843-.9665.2528-.2775.1687-.4887.3883-.6337.6592-.1451.2711-.2177.556-.2177.8546v.1087c0,.2988.0704.5837.2113.8545.1408.2711.3498.4908.6273.6592.2773.1687.6037.253.9793.253h43.2876c.3755,0,.7019-.0843.9793-.253.2774-.1685.4865-.3881.6273-.6592.1408-.2709.2113-.5557.2113-.8545v-.1087c0-.2986-.0726-.5835-.2177-.8546-.1451-.2709-.3563-.4906-.6337-.6592Zm.1184,2.2243c-.096.1963-.2379.3511-.4257.4641-.1878.1131-.4076.1695-.6593.1695s-.4716-.0564-.6593-.1695c-.1878-.1131-.3307-.2678-.4288-.4641-.0982-.1962-.1472-.416-.1472-.6592s.0512-.4631.1536-.6592c.1024-.1963.2464-.35.4321-.461.1856-.1108.4021-.1664.6497-.1664.2433,0,.4587.0556.6465.1664.1877.111.3318.2647.4321.461.1002.1962.1504.416.1504.6592s-.048.4631-.144.6592Z"/><path class="cls-2" d="m258.1678,218.2224c-.096.1963-.2379.3511-.4257.4641-.1878.1131-.4076.1695-.6593.1695s-.4716-.0564-.6593-.1695c-.1878-.1131-.3307-.2678-.4288-.4641-.0982-.1962-.1472-.416-.1472-.6592s.0512-.4631.1536-.6592c.1024-.1963.2464-.35.4321-.461.1856-.1108.4021-.1664.6497-.1664.2433,0,.4587.0556.6465.1664.1877.111.3318.2647.4321.461.1002.1962.1504.416.1504.6592s-.048.4631-.144.6592Z"/><path d="m261.3458,215.758h-.0256c-.4225,0-.7393.1335-.9506.4-.1075.1357-.1872.3029-.24.501v-.7986h-.4673v3.4116h.5889v-2.0419c0-.2774.0842-.5014.2528-.6719.1686-.1707.3915-.2561.6689-.2561.2602,0,.4673.08.6209.2401.1537.1599.2305.3767.2305.6497v2.0802h.5889v-1.9521c0-.5079-.1056-.8952-.3168-1.1619-.2112-.2665-.5281-.4-.9506-.4Z"/><polygon points="263.1188 214.5995 263.1188 215.0667 263.5989 215.0667 263.5989 219.272 264.1878 219.272 264.1878 215.0667 264.1878 214.5995 263.5989 214.5995 263.1188 214.5995"/><path d="m265.5896,215.2972c.128,0,.2261-.0341.2944-.1025.0682-.0683.1024-.1601.1024-.2753,0-.1108-.0342-.2005-.1024-.2688-.0683-.0681-.1664-.1024-.2944-.1024s-.2251.0344-.2913.1024c-.0662.0683-.0992.1601-.0992.2753,0,.111.0331.2005.0992.2688.0661.0683.1633.1025.2913.1025Z"/><polygon points="264.9047 215.8605 264.9047 216.3277 265.4295 216.3277 265.4295 219.272 266.0184 219.272 266.0184 216.3277 266.0184 215.8605 265.4295 215.8605 264.9047 215.8605"/><path d="m268.7324,215.758h-.0256c-.4224,0-.7393.1335-.9505.4-.1074.1357-.1872.3029-.24.5009v-.7985h-.4673v3.4116h.5889v-2.0419c0-.2774.0842-.5014.2528-.6719.1685-.1707.3915-.2561.6689-.2561.2602,0,.4673.08.6209.2401.1536.1599.2305.3767.2305.6497v2.0802h.5889v-1.9521c0-.5079-.1056-.8952-.3169-1.1619-.2112-.2665-.5281-.4-.9505-.4Z"/><path d="m274.0259,217.403c0-.2944-.0608-.5674-.1824-.8192-.1217-.2517-.3052-.4546-.5505-.6082-.2454-.1537-.5431-.2303-.8929-.2303-.3628,0-.6689.0831-.9185.2495-.2496.1666-.4364.3842-.5601.653-.1238.2688-.1856.5568-.1856.8641v.1087c0,.3032.0608.5889.1824.8579.1217.2688.3105.4875.5665.6559.2561.1687.5739.253.9537.253.4054,0,.7435-.1004,1.0145-.3009.271-.2005.4427-.4758.5153-.8258h-.5568c-.0384.1707-.144.3148-.3169.4321-.1728.1174-.3915.1762-.6561.1762-.256,0-.4684-.0566-.6369-.1697-.1686-.1131-.2944-.2665-.3777-.4608-.0712-.1662-.1117-.3552-.122-.5666h2.7239v-.2688Zm-2.2371-.9728c.1642-.111.3681-.1664.6113-.1664.2261,0,.4202.0489.5825.1472.1621.0981.2826.2378.3616.4192.0521.1197.0866.2533.1044.4h-2.1234c.0201-.1231.0517-.2374.0956-.3423.081-.1943.2037-.3467.368-.4577Z"/></g></svg>