<?xml version="1.0" encoding="UTF-8"?><svg id="Vrstva_1" xmlns="http://www.w3.org/2000/svg" viewBox="0 0 330 297.1248"><defs><style>.cls-1{fill:#ededed;}.cls-2{fill:#b700ff;}.cls-3{fill:#a0f;}</style></defs><rect class="cls-1" x="51.1687" y="66.0872" width="114.2868" height="114.2868"/><rect class="cls-1" x="177.2002" y="66.0872" width="101.6073" height="180.1489"/><rect class="cls-1" x="51.1687" y="191.9334" width="114.2868" height="54.3026"/><rect class="cls-2" x="108.1676" y="42.4176" width=".289" height="161.626" transform="translate(-55.4133 112.6816) rotate(-45)"/><rect class="cls-2" x="51.1687" y="66.0872" width="4.8488" height="4.8488"/><rect class="cls-2" x="51.0678" y="50.1216" width="6.7601" height="6.7601"/><rect class="cls-2" x="160.6067" y="175.5252" width="4.8488" height="4.8488"/><rect class="cls-3" x="90.8805" y="105.799" width="34.8631" height="34.8631"/><rect class="cls-2" x="51.1687" y="105.6545" width="114.2868" height=".289"/><rect class="cls-2" x="51.1687" y="140.5176" width="114.2868" height=".289"/><rect class="cls-2" x="90.7361" y="66.0872" width=".289" height="114.2868"/><rect class="cls-2" x="125.5991" y="66.0872" width=".289" height="114.2868"/><rect class="cls-2" x="51.1687" y="175.3807" width="114.2868" height=".289"/><rect class="cls-2" x="160.4621" y="66.0872" width=".289" height="114.2868"/><rect class="cls-2" x="51.1687" y="70.7915" width="114.2868" height=".289"/><rect class="cls-2" x="55.8729" y="66.0872" width=".289" height="114.2868"/><rect class="cls-2" x="227.8594" y="52.7478" width=".289" height="206.8277" transform="translate(-47.3066 132.1538) rotate(-29.4238)"/><rect class="cls-2" x="177.2002" y="66.0872" width="6.2048" height="6.2048"/><rect class="cls-2" x="272.6027" y="240.0312" width="6.2048" height="6.2048"/><rect class="cls-2" x="213.1376" y="128.2051" width="29.7326" height="55.9131"/><rect class="cls-2" x="177.2003" y="128.0606" width="101.6074" height=".289"/><rect class="cls-2" x="177.2003" y="183.9736" width="101.6074" height=".289"/><rect class="cls-2" x="212.9932" y="66.0872" width=".289" height="180.1489"/><rect class="cls-2" x="242.7257" y="66.0872" width=".289" height="179.5549"/><rect class="cls-2" x="177.2003" y="72.1476" width="101.6074" height=".289"/><rect class="cls-2" x="272.4582" y="66.0872" width=".289" height="180.1489"/><rect class="cls-2" x="177.2003" y="239.8867" width="101.6074" height=".289"/><rect class="cls-2" x="183.2605" y="66.0872" width=".289" height="180.1489"/><rect class="cls-2" x="108.1676" y="155.819" width=".289" height="126.5316" transform="translate(-136.0547 222.8922) rotate(-64.5856)"/><rect class="cls-2" x="51.1687" y="191.9334" width="3.796" height="3.796"/><rect class="cls-2" x="161.6595" y="242.4401" width="3.796" height="3.796"/><rect class="cls-2" x="90.5296" y="211.2996" width="35.565" height="15.5702"/><rect class="cls-2" x="51.1687" y="211.1552" width="114.2868" height=".289"/><rect class="cls-2" x="51.1687" y="226.7254" width="114.2868" height=".289"/><rect class="cls-2" x="90.385" y="191.8673" width=".289" height="54.3688"/><rect class="cls-2" x="125.95" y="191.9334" width=".289" height="54.3026"/><rect class="cls-2" x="54.8201" y="191.9334" width=".289" height="54.3026"/><rect class="cls-2" x="161.5149" y="191.9334" width=".289" height="54.3026"/><rect class="cls-2" x="51.1687" y="195.5849" width="114.2868" height=".289"/><rect class="cls-2" x="51.1687" y="242.2957" width="114.2868" height=".289"/><g><path class="cls-2" d="m68.4732,56.8018c-.3543-.1924-.6227-.4509-.8061-.7748-.1834-.323-.2747-.6773-.2747-1.062h.8607c0,.4151.1333.7453.399.9895s.6236.3659,1.0763.3659c.2988,0,.5583-.0546.7784-.1646s.391-.2675.5136-.4724c.1217-.204.1825-.4438.1825-.7184,0-.416-.1342-.7515-.4026-1.0083-.2693-.2559-.6227-.3847-1.0629-.3847-.3364,0-.62.0796-.8518.238l-.4402-.7873,2.5562-1.869-.0913-.1655h-3.2522v-.7507h4.0763v1.2186l-2.116,1.5389-.6415.0277c.238-.0859.501-.1288.7882-.1288.4697,0,.8795.0904,1.2275.2702.348.1807.6138.4232.7972.7292.1834.3051.2747.6406.2747,1.0074v.1279c0,.3606-.0913.6979-.2747,1.0128s-.4527.5681-.8061.7605c-.3543.1924-.773.2881-1.2553.2881-.4831,0-.901-.0957-1.2553-.2881Z"/><path class="cls-2" d="m75.8572,53.3428c-.2443-.3239-.3659-.7354-.3659-1.2365v-.238c0-.5198.1235-.9368.3704-1.2508.2478-.3149.6156-.4724,1.1041-.4724s.8571.1575,1.1041.4724c.2478.314.3713.731.3713,1.2508v.238c0,.501-.1226.9126-.3668,1.2365s-.6138.4858-1.1085.4858-.8643-.1619-1.1085-.4858Zm1.7366-.4259c.1369-.2049.2058-.5118.2058-.9206,0-.4277-.0689-.7426-.2058-.9439-.1378-.2013-.3471-.3024-.6281-.3024s-.4903.1011-.6272.3024c-.1378.2013-.2067.5136-.2067.935,0,.4151.0689.7247.2067.9296.1369.2049.3462.3069.6272.3069s.4903-.102.6281-.3069Zm2.3951-2.6796h.697l-2.5293,6.6879h-.6961l2.5284-6.6879Zm.0465,6.2942c-.2443-.3239-.3668-.7363-.3668-1.2374v-.238c0-.5189.1235-.9359.3713-1.2508.2469-.314.6147-.4715,1.1041-.4715.4885,0,.8562.1575,1.1041.4715.2469.3149.3704.7319.3704,1.2508v.238c0,.501-.1217.9135-.3659,1.2374s-.6138.4849-1.1085.4849-.8643-.161-1.1085-.4849Zm1.7357-.4259c.1378-.2049.2067-.5118.2067-.9215,0-.4268-.0689-.7417-.2067-.943-.1369-.2022-.3462-.3024-.6272-.3024s-.4903.1002-.6281.3024c-.1369.2013-.2058.5127-.2058.9341,0,.4151.0689.7256.2058.9305.1378.204.3471.3069.6281.3069s.4903-.1029.6272-.3069Z"/><path class="cls-2" d="m86.0273,55.9446l2.6662-3.1968v.1458l-.1467-.2192.119.0546h-2.6752v-.6961h3.4813v.9806l-2.6662,3.1968v-.1279l.1655.229-.1288-.0823h2.7763v.6961h-3.5913v-.9806Z"/><path class="cls-2" d="m94.1619,56.7561c-.3659-.2237-.6531-.5288-.8607-.9162-.2085-.3883-.3123-.8142-.3123-1.2785v-.1646c0-.4644.1011-.8893.3024-1.2741.2022-.3847.484-.6898.8482-.9162.3632-.2255.7739-.3382,1.232-.3382.3847,0,.7301.0805,1.0352.2425s.5529.4089.7417.7417c.1897.3328.2961.7533.3212,1.2597l-.3668-.586v-3.2889h.8795v6.6879h-.6961v-2.1714h.2568c-.0251.5377-.1378.9806-.3391,1.3286s-.4581.603-.7694.765-.6567.2425-1.0352.2425c-.4581,0-.8705-.1109-1.2374-.3337Zm2.1759-.6415c.2478-.1378.4429-.3328.5869-.5869.1432-.2532.2147-.5476.2147-.884v-.4214c0-.3239-.0734-.6057-.2201-.8473-.1458-.2416-.3445-.4241-.595-.5493s-.5225-.1879-.816-.1879c-.323,0-.6084.076-.8562.229-.2469.1521-.4393.3677-.5771.646-.1378.2774-.2058.5995-.2058.9663s.0698.6898.2103.9708.3355.4966.586.646c.2505.1503.535.2246.8527.2246.2988,0,.5726-.0689.8195-.2058Z"/><path class="cls-2" d="m100.6082,56.7284c-.3695-.2416-.6415-.5547-.816-.9394-.1736-.3847-.2613-.7936-.2613-1.2275v-.1646c0-.4402.0886-.8527.2657-1.2374s.4465-.6961.807-.9341c.3597-.238.7999-.357,1.3188-.357.5073,0,.9359.1092,1.2875.3293.3507.2201.6138.5118.7873.875.1745.3632.2613.756.2613,1.1774v.3937h-4.342v-.6594h3.7014l-.2022.357c0-.348-.0546-.6504-.1646-.9063-.11-.2568-.2783-.4536-.5037-.5914-.2264-.1378-.501-.2058-.8249-.2058-.3418,0-.629.0778-.8607.2335-.2326.1557-.4053.3713-.518.646s-.1691.595-.1691.9618c0,.3606.0573.6782.1736.9529s.2935.4912.5315.6504.5377.238.8983.238c.3722,0,.6809-.0823.9251-.2469.2443-.1655.3937-.3668.4491-.6048h.824c-.1038.5073-.3507.9036-.7417,1.1908s-.8768.4304-1.4566.4304c-.544,0-1.0003-.1208-1.3698-.3615Zm1.6713-7.2238h.926l-1.0173,1.8136h-.7149l.8061-1.8136Z"/><path class="cls-2" d="m105.1113,50.2373h1.5577v.6961h-1.5577v-.6961Zm.6782,0h.8795v6.6879h-.8795v-6.6879Z"/><path class="cls-2" d="m108.5827,50.2373h.8795v6.6879h-.8795v-6.6879Zm1.5299,4.4064h-.8061l2.2448-2.6107h.9251l-2.0337,2.3549.0635-.4679,2.4649,3.0053h-1.0173l-1.8413-2.2815Z"/><path class="cls-2" d="m113.3282,52.033h.8983l1.6767,4.7822h-.8249l-1.75-4.7822Zm.348,6.0097h.7059c.3114,0,.5529-.0608.7238-.1834.1709-.1217.3024-.3355.3937-.6406l1.5398-5.1857h.8607l-1.631,5.4147c-.0975.323-.2353.586-.4116.7873-.178.2022-.3928.3516-.646.4491-.2541.0975-.5485.1467-.8849.1467h-.6504v-.7882Zm1.4942-1.9603h1.062v.7328h-1.062v-.7328Z"/><path class="cls-2" d="m122.371,56.7561c-.3659-.2237-.6531-.5288-.8607-.9162-.2085-.3883-.3123-.8142-.3123-1.2785v-.1646c0-.4644.1011-.8893.3024-1.2741.2022-.3847.484-.6898.8482-.9162.3632-.2255.7739-.3382,1.232-.3382.3847,0,.7301.0805,1.0352.2425s.5529.4089.7417.7417c.1897.3328.2961.7533.3212,1.2597l-.3668-.586v-3.2889h.8795v6.6879h-.6961v-2.1714h.2568c-.0251.5377-.1378.9806-.3391,1.3286s-.4581.603-.7694.765-.6567.2425-1.0352.2425c-.4581,0-.8705-.1109-1.2374-.3337Zm2.1759-.6415c.2478-.1378.4429-.3328.5869-.5869.1432-.2532.2147-.5476.2147-.884v-.4214c0-.3239-.0734-.6057-.2201-.8473-.1458-.2416-.3445-.4241-.595-.5493s-.5225-.1879-.816-.1879c-.323,0-.6084.076-.8562.229-.2469.1521-.4393.3677-.5771.646-.1378.2774-.2058.5995-.2058.9663s.0698.6898.2103.9708.3355.4966.586.646c.2505.1503.535.2246.8527.2246.2988,0,.5726-.0689.8195-.2058Z"/><path class="cls-2" d="m127.5933,52.033h1.6301v.6961h-1.6301v-.6961Zm.5681-.9394c-.0984-.1002-.1467-.2335-.1467-.3981,0-.1655.0483-.2979.1467-.399.0975-.1002.2407-.1512.4304-.1512.1888,0,.3328.051.4304.1512.0975.1011.1467.2335.1467.399,0,.1646-.0492.2979-.1467.3981-.0975.1011-.2416.1512-.4304.1512-.1897,0-.3328-.0501-.4304-.1512Zm.1825.9394h.8795v4.8922h-.8795v-4.8922Z"/><path class="cls-2" d="m131.207,56.6362c-.314-.2774-.4715-.6701-.4715-1.1765,0-.5136.1727-.9045.518-1.173.3445-.2684.8383-.4035,1.4789-.4035h1.3286v.6603h-1.3653c-.348,0-.6182.0841-.8106.2514-.1924.1682-.2881.3892-.2881.6648,0,.2747.0957.493.2881.6549s.4626.2425.8106.2425c.3489,0,.6433-.0975.8849-.2935.2407-.195.3704-.5127.3892-.9529l.238.3489c-.0492.5252-.2156.9215-.4992,1.1908-.2845.2684-.6827.4026-1.1953.4026-.5565,0-.9913-.1387-1.3063-.4169Zm2.9096-1.1765h-.1467v-1.6955c0-.3355-.0877-.5896-.2613-.7605-.1745-.1709-.4295-.2559-.765-.2559-.5556,0-1.1023.0179-1.64.0546v-.7694c.3972-.0367.8455-.0555,1.3465-.0555.7632,0,1.3152.1414,1.6543.4214.3382.2818.5082.7578.5082,1.4297v3.0966h-.6961v-1.4655Z"/><path class="cls-2" d="m137.1675,58.7298v-.7417c.5001.0734.9582.11,1.3743.11.4456,0,.8017-.0599,1.0665-.1789.2657-.119.4581-.3024.578-.5493.119-.2478.178-.5762.178-.9851v-.935l.2935-.6961c-.0188.4822-.1208.8884-.3069,1.2186s-.4304.5771-.7328.7417c-.3024.1655-.6397.2478-1.0128.2478-.4456,0-.8455-.1127-1.1998-.3391-.3543-.2255-.629-.5297-.8249-.9117-.195-.3811-.2935-.7981-.2935-1.2508v-.1646c0-.4518.1011-.8625.3024-1.232.2022-.3695.4813-.6612.8383-.875.3579-.2138.765-.3203,1.2231-.3203.4098,0,.7703.0868,1.0817.2604.3114.1745.5574.4312.7372.7703.1798.3382.2791.7435.2979,1.2132l-.2568.0098v-2.0891h.6961v4.3151c0,.5923-.0895,1.0701-.2702,1.4333-.1798.3641-.467.629-.8607.7972-.3946.1682-.918.2523-1.5711.2523-.4581,0-.9045-.034-1.3376-.1011Zm2.405-2.7709c.2407-.1315.433-.3194.5771-.5637.1432-.2443.2147-.5279.2147-.8518v-.4214c0-.3176-.0716-.5914-.2147-.8204-.144-.229-.3382-.4026-.5825-.5225-.2443-.119-.5064-.178-.7873-.178-.3176,0-.5986.0734-.8428.2192-.2443.1467-.4339.3543-.5681.6236-.1342.2684-.2013.5798-.2013.9341s.068.6657.2058.935c.1378.2684.3266.476.5681.6227.2407.1467.5171.2201.8294.2201.2926,0,.5601-.0653.8017-.1968Z"/><path class="cls-2" d="m143.91,56.7284c-.3972-.2416-.6979-.5556-.9019-.9439-.2049-.3874-.3078-.7954-.3078-1.2231v-.1646c0-.4277.1056-.8357.3167-1.2231.2103-.3883.5145-.7023.9117-.9439.3964-.2416.8607-.3615,1.3922-.3615s.9958.1199,1.3931.3615c.3964.2416.7006.5556.9108.9439.2111.3874.3167.7954.3167,1.2231v.1646c0,.4277-.1029.8357-.3069,1.2231-.2049.3883-.5055.7023-.9028.9439-.3972.2407-.867.3615-1.4109.3615s-1.0137-.1208-1.4109-.3615Zm2.3405-.6648c.2657-.1584.4679-.3767.6048-.6549.1378-.2774.2067-.5878.2067-.9296,0-.348-.0725-.6612-.2156-.9394-.1432-.2774-.3462-.4948-.6093-.6504-.2621-.1557-.5681-.2335-.9162-.2335s-.6531.0778-.9162.2335c-.2621.1557-.4661.3731-.6093.6504-.1432.2783-.2147.5914-.2147.9394,0,.3418.068.6522.2058.9296.1378.2783.3391.4966.6048.6549.2657.1593.5753.2389.9296.2389s.6648-.0796.9296-.2389Z"/><path class="cls-2" d="m149.4894,52.033h.6961v2.0981h-.11c0-.7328.1512-1.2902.4536-1.6722s.756-.5726,1.3608-.5726h.0367c.6048,0,1.0584.1906,1.3608.5726.3015.382.4527.9394.4527,1.6722v2.7942h-.8795v-2.9776c0-.3847-.1083-.6898-.3248-.9162-.2174-.2255-.5082-.3391-.875-.3391-.3847,0-.6961.1208-.935.3624-.238.2407-.357.5574-.357.9475v2.923h-.8795v-4.8922Z"/><path class="cls-2" d="m155.6324,56.6362c-.314-.2774-.4715-.6701-.4715-1.1765,0-.5136.1727-.9045.518-1.173.3445-.2684.8383-.4035,1.4789-.4035h1.3286v.6603h-1.3653c-.348,0-.6182.0841-.8106.2514-.1924.1682-.2881.3892-.2881.6648,0,.2747.0957.493.2881.6549s.4626.2425.8106.2425c.3489,0,.6433-.0975.8849-.2935.2407-.195.3704-.5127.3892-.9529l.238.3489c-.0492.5252-.2156.9215-.4992,1.1908-.2845.2684-.6827.4026-1.1953.4026-.5565,0-.9913-.1387-1.3063-.4169Zm2.9096-1.1765h-.1467v-1.6955c0-.3355-.0877-.5896-.2613-.7605-.1745-.1709-.4295-.2559-.765-.2559-.5556,0-1.1023.0179-1.64.0546v-.7694c.3972-.0367.8455-.0555,1.3465-.0555.7632,0,1.3152.1414,1.6543.4214.3382.2818.5082.7578.5082,1.4297v3.0966h-.6961v-1.4655Zm-.8893-5.9551h.926l-1.0173,1.8136h-.7149l.8061-1.8136Z"/><path class="cls-2" d="m160.4566,50.2373h1.5577v.6961h-1.5577v-.6961Zm.6782,0h.8795v6.6879h-.8795v-6.6879Z"/><path class="cls-2" d="m163.2508,52.033h.8983l1.6767,4.7822h-.8249l-1.75-4.7822Zm.348,6.0097h.7059c.3114,0,.5529-.0608.7238-.1834.1709-.1217.3024-.3355.3937-.6406l1.5398-5.1857h.8607l-1.631,5.4147c-.0975.323-.2353.586-.4116.7873-.178.2022-.3928.3516-.646.4491-.2541.0975-.5485.1467-.8849.1467h-.6504v-.7882Zm1.4942-1.9603h1.062v.7328h-1.062v-.7328Z"/></g><g><path class="cls-2" d="m202.9106,51.7467h.6961v2.0149h-.0367c0-.7086.1557-1.2311.4679-1.5657.3114-.3364.7847-.5046,1.4199-.5046h.1646v.7873h-.3114c-.4885,0-.8643.1306-1.1273.3901-.2621.2595-.3937.6334-.3937,1.122v2.6483h-.8795v-4.8922Z"/><path class="cls-2" d="m207.6839,56.4421c-.3972-.2416-.6979-.5565-.9019-.9448-.2049-.3865-.3078-.7945-.3078-1.2222v-.1646c0-.4277.1056-.8357.3167-1.224.2103-.3883.5145-.7014.9117-.943.3964-.2416.8607-.3615,1.3922-.3615s.9958.1199,1.3931.3615c.3964.2416.7006.5547.9108.943.2111.3883.3167.7963.3167,1.224v.1646c0,.4277-.1029.8357-.3069,1.2222-.2049.3883-.5055.7032-.9028.9448-.3972.2398-.867.3615-1.4109.3615s-1.0137-.1217-1.4109-.3615Zm2.3405-.6657c.2657-.1575.4679-.3758.6048-.6549.1378-.2774.2067-.5869.2067-.9287,0-.3489-.0725-.6621-.2156-.9394s-.3462-.4957-.6093-.6513c-.2621-.1557-.5681-.2326-.9162-.2326s-.6531.0769-.9162.2326c-.2621.1557-.4661.374-.6093.6513s-.2147.5905-.2147.9394c0,.3418.068.6513.2058.9287.1378.2791.3391.4975.6048.6549.2657.1593.5753.2398.9296.2398s.6648-.0805.9296-.2398Z"/><path class="cls-2" d="m212.9152,55.6583l2.6662-3.1977v.1467l-.1467-.2201.119.0555h-2.6752v-.6961h3.4813v.9806l-2.6662,3.1959v-.127l.1655.229-.1288-.0823h2.7763v.6961h-3.5913v-.9806Z"/><path class="cls-2" d="m218.6869,56.4689c-.3659-.2237-.6531-.5279-.8607-.9162-.2085-.3883-.3123-.8142-.3123-1.2776v-.1646c0-.4652.1011-.8893.3024-1.2741.2022-.3847.484-.6907.8482-.9162.3632-.2255.7739-.3382,1.232-.3382.3847,0,.7301.0805,1.0352.2416.3051.1628.5529.4098.7417.7426.1897.3328.2961.7533.3212,1.2597l-.3668-.5869v-3.2889h.8795v6.6888h-.6961v-2.1723h.2568c-.0251.5386-.1378.9806-.3391,1.3295-.2013.3471-.4581.603-.7694.7641-.3114.1628-.6567.2434-1.0352.2434-.4581,0-.8705-.1109-1.2374-.3346Zm2.1759-.6406c.2478-.1378.4429-.3328.5869-.5869.1432-.2541.2147-.5476.2147-.884v-.4223c0-.3239-.0734-.6048-.2201-.8464-.1458-.2416-.3445-.4241-.595-.5493s-.5225-.1879-.816-.1879c-.323,0-.6084.0752-.8562.229-.2469.1521-.4393.3668-.5771.646-.1378.2774-.2058.5995-.2058.9663s.0698.6889.2103.9699.3355.4975.586.646c.2505.1503.535.2255.8527.2255.2988,0,.5726-.0698.8195-.2058Z"/><path class="cls-2" d="m225.1323,56.4421c-.3695-.2416-.6415-.5547-.816-.9394-.1736-.3847-.2613-.7945-.2613-1.2275v-.1646c0-.4402.0886-.8535.2657-1.2383s.4465-.6961.807-.9341c.3597-.238.7999-.3561,1.3188-.3561.5073,0,.9359.1092,1.2875.3293.3507.2201.6138.5118.7873.875.1745.3632.2613.7551.2613,1.1774v.3937h-4.342v-.6603h3.7014l-.2022.3579c0-.3489-.0546-.6513-.1646-.9072s-.2783-.4527-.5037-.5905c-.2264-.1378-.501-.2058-.8249-.2058-.3418,0-.629.0769-.8607.2326-.2326.1557-.4053.3722-.518.646-.1127.2756-.1691.5959-.1691.9627,0,.3597.0573.6782.1736.952.1163.2756.2935.4921.5315.6513s.5377.238.8983.238c.3722,0,.6809-.0823.9251-.2469.2443-.1664.3937-.3668.4491-.6048h.824c-.1038.5064-.3507.9036-.7417,1.19-.391.2881-.8768.4312-1.4566.4312-.544,0-1.0003-.1217-1.3698-.3615Zm-.1789-7.2238h.7238l.7515,1.3743h.0734l.6317-1.3743h.6871l-.8884,1.8127h-.9716l-1.0074-1.8127Z"/><path class="cls-2" d="m229.6354,49.9501h1.5577v.6961h-1.5577v-.6961Zm.6782,0h.8795v6.6888h-.8795v-6.6888Z"/><path class="cls-2" d="m233.8181,56.4421c-.3695-.2416-.6415-.5547-.816-.9394-.1736-.3847-.2613-.7945-.2613-1.2275v-.1646c0-.4402.0886-.8535.2657-1.2383s.4465-.6961.807-.9341c.3597-.238.7999-.3561,1.3188-.3561.5073,0,.9359.1092,1.2875.3293.3507.2201.6138.5118.7873.875.1745.3632.2613.7551.2613,1.1774v.3937h-4.342v-.6603h3.7014l-.2022.3579c0-.3489-.0546-.6513-.1646-.9072s-.2783-.4527-.5037-.5905c-.2264-.1378-.501-.2058-.8249-.2058-.3418,0-.629.0769-.8607.2326-.2326.1557-.4053.3722-.518.646-.1127.2756-.1691.5959-.1691.9627,0,.3597.0573.6782.1736.952.1163.2756.2935.4921.5315.6513s.5377.238.8983.238c.3722,0,.6809-.0823.9251-.2469.2443-.1664.3937-.3668.4491-.6048h.824c-.1038.5064-.3507.9036-.7417,1.19-.391.2881-.8768.4312-1.4566.4312-.544,0-1.0003-.1217-1.3698-.3615Z"/><path class="cls-2" d="m238.9439,51.7467h.6961v2.0972h-.11c0-.7319.1512-1.2902.4536-1.6713.3024-.3829.756-.5726,1.3608-.5726h.0367c.6048,0,1.0584.1897,1.3608.5726.3015.3811.4527.9394.4527,1.6713v2.795h-.8795v-2.9776c0-.3847-.1083-.6907-.3248-.9162-.2174-.2255-.5082-.34-.875-.34-.3847,0-.6961.1217-.935.3632-.238.2398-.357.5565-.357.9466v2.9239h-.8795v-4.8922Z"/><path class="cls-2" d="m244.5232,51.7467h1.6301v.6961h-1.6301v-.6961Zm1.2553-2.5284h.9251l-1.0173,1.8127h-.7149l.807-1.8127Zm-.5046,2.5284h.8795v4.8922h-.8795v-4.8922Z"/><path class="cls-2" d="m249.6901,51.7467h3.3721v.6585h-3.3721v-.6585Zm1.6588,4.7813c-.263-.1092-.4644-.2917-.6048-.544-.1405-.2541-.2111-.5923-.2111-1.0128v-4.7097h.8437v4.8189c0,.263.0716.467.2147.6102s.3471.2147.6093.2147h.8616v.7873h-.7515c-.3785,0-.6997-.0537-.9618-.1646Z"/><path class="cls-2" d="m254.2987,49.2183h.7238l.7507,1.3743h.0734l.6326-1.3743h.6871l-.8884,1.8127h-.9716l-1.0074-1.8127Zm.238,2.5284h.6961v2.0149h-.0367c0-.7086.1557-1.2311.4679-1.5657.3114-.3364.7847-.5046,1.4199-.5046h.1646v.7873h-.3114c-.4885,0-.8643.1306-1.1273.3901-.2621.2595-.3937.6334-.3937,1.122v2.6483h-.8795v-4.8922Z"/><path class="cls-2" d="m259.1775,56.4421c-.3695-.2416-.6415-.5547-.816-.9394-.1736-.3847-.2613-.7945-.2613-1.2275v-.1646c0-.4402.0886-.8535.2657-1.2383s.4465-.6961.807-.9341c.3597-.238.7999-.3561,1.3188-.3561.5073,0,.9359.1092,1.2875.3293.3507.2201.6138.5118.7873.875.1745.3632.2613.7551.2613,1.1774v.3937h-4.342v-.6603h3.7014l-.2022.3579c0-.3489-.0546-.6513-.1646-.9072s-.2783-.4527-.5037-.5905c-.2264-.1378-.501-.2058-.8249-.2058-.3418,0-.629.0769-.8607.2326-.2326.1557-.4053.3722-.518.646-.1127.2756-.1691.5959-.1691.9627,0,.3597.0573.6782.1736.952.1163.2756.2935.4921.5315.6513s.5377.238.8983.238c.3722,0,.6809-.0823.9251-.2469.2443-.1664.3937-.3668.4491-.6048h.824c-.1038.5064-.3507.9036-.7417,1.19-.391.2881-.8768.4312-1.4566.4312-.544,0-1.0003-.1217-1.3698-.3615Z"/><path class="cls-2" d="m263.5884,51.7467h3.3721v.6585h-3.3721v-.6585Zm1.6588,4.7813c-.263-.1092-.4644-.2917-.6048-.544-.1405-.2541-.2111-.5923-.2111-1.0128v-4.7097h.8437v4.8189c0,.263.0716.467.2147.6102s.3471.2147.6093.2147h.8616v.7873h-.7515c-.3785,0-.6997-.0537-.9618-.1646Z"/><path class="cls-2" d="m267.9223,51.7467h1.6301v.6961h-1.6301v-.6961Zm.5681-.9394c-.0984-.1002-.1467-.2344-.1467-.399s.0483-.297.1467-.399c.0975-.1002.2407-.1503.4304-.1503.1888,0,.3328.0501.4304.1503.0975.102.1467.2344.1467.399s-.0492.2988-.1467.399-.2416.1503-.4304.1503c-.1897,0-.3328-.0501-.4304-.1503Zm.1825.9394h.8795v4.8922h-.8795v-4.8922Z"/><path class="cls-2" d="m271.4859,51.7467h.6961v2.0972h-.11c0-.7319.1512-1.2902.4536-1.6713.3024-.3829.756-.5726,1.3608-.5726h.0367c.6048,0,1.0584.1897,1.3608.5726.3015.3811.4527.9394.4527,1.6713v2.795h-.8795v-2.9776c0-.3847-.1083-.6907-.3248-.9162-.2174-.2255-.5082-.34-.875-.34-.3847,0-.6961.1217-.935.3632-.238.2398-.357.5565-.357.9466v2.9239h-.8795v-4.8922Z"/></g><g><rect class="cls-2" x="186.146" y="52.3129" width="6.7601" height=".4029"/><rect class="cls-2" x="186.146" y="54.3749" width="6.7601" height=".4029"/><rect class="cls-2" x="188.2935" y="50.1654" width=".4029" height="6.7599"/><rect class="cls-2" x="190.3558" y="50.1654" width=".4029" height="6.7599"/><rect class="cls-2" x="186.146" y="56.437" width="6.7601" height=".4029"/><rect class="cls-2" x="192.4178" y="50.1654" width=".4029" height="6.7599"/><rect class="cls-2" x="186.146" y="50.2508" width="6.7601" height=".4029"/><rect class="cls-2" x="186.2314" y="50.1654" width=".4029" height="6.7599"/></g></svg>