<?xml version="1.0" encoding="UTF-8"?><svg id="Vrstva_1" xmlns="http://www.w3.org/2000/svg" viewBox="0 0 330 276.687"><defs><style>.cls-1{fill:#ededed;}.cls-2{fill:#b700ff;}</style></defs><rect class="cls-1" x="57.0143" y="50.1103" width="111.9506" height="111.9506"/><rect class="cls-1" x="180.4697" y="50.1103" width="99.5303" height="176.4664"/><rect class="cls-1" x="57.0143" y="173.3841" width="111.9506" height="53.1926"/><rect class="cls-2" x="50" y="54.8599" width="4.7497" height="4.7497"/><rect class="cls-2" x="57.0142" y="88.8689" width="111.9507" height=".2831"/><rect class="cls-2" x="57.0142" y="123.0192" width="111.9507" height=".2831"/><rect class="cls-2" x="95.7729" y="50.1103" width=".2831" height="111.9507"/><rect class="cls-2" x="129.9233" y="50.1103" width=".2831" height="111.9507"/><rect class="cls-2" x="57.0142" y="157.1698" width="111.9507" height=".2831"/><rect class="cls-2" x="164.0737" y="50.1103" width=".2831" height="111.9507"/><rect class="cls-2" x="57.0142" y="54.7185" width="111.9507" height=".2831"/><rect class="cls-2" x="61.6225" y="50.1103" width=".2831" height="111.9507"/><rect class="cls-2" x="172.127" y="56.1883" width="6.078" height="6.078"/><rect class="cls-2" x="180.4697" y="110.817" width="99.5303" height=".2831"/><rect class="cls-2" x="180.4697" y="165.587" width="99.5303" height=".2831"/><rect class="cls-2" x="215.531" y="50.1103" width=".2831" height="176.4665"/><rect class="cls-2" x="244.6556" y="50.1103" width=".2831" height="175.8846"/><rect class="cls-2" x="180.4697" y="56.0468" width="99.5303" height=".2831"/><rect class="cls-2" x="273.7805" y="50.1103" width=".2831" height="176.4665"/><rect class="cls-2" x="180.4697" y="220.3571" width="99.5303" height=".2831"/><rect class="cls-2" x="186.4061" y="50.1103" width=".2831" height="176.4665"/><rect class="cls-2" x="51.0313" y="177.1025" width="3.7184" height="3.7184"/><rect class="cls-2" x="57.0142" y="192.2129" width="111.9507" height=".2831"/><rect class="cls-2" x="57.0142" y="207.4648" width="111.9507" height=".2831"/><rect class="cls-2" x="95.429" y="173.3193" width=".2831" height="53.2575"/><rect class="cls-2" x="130.2669" y="173.3841" width=".2831" height="53.1926"/><rect class="cls-2" x="60.5911" y="173.3841" width=".2831" height="53.1926"/><rect class="cls-2" x="165.1051" y="173.3841" width=".2831" height="53.1926"/><rect class="cls-2" x="57.0142" y="176.9609" width="111.9507" height=".2831"/><rect class="cls-2" x="57.0142" y="222.7169" width="111.9507" height=".2831"/><rect class="cls-2" x="57.0142" y="59.4681" width="111.9507" height=".2831"/><rect class="cls-2" x="180.4697" y="62.1247" width="99.5303" height=".2831"/><rect class="cls-2" x="57.0142" y="180.6794" width="111.9507" height=".2831"/><g><path d="m63.7613,56.0149c-.1917-.12-.4242-.1799-.6975-.1799-.2833,0-.5225.0649-.7174.1948-.195.1301-.3409.3001-.4375.51-.0967.21-.145.4349-.145.675v.0849c0,.2368.0475.4599.1425.6701.095.21.2425.3807.4425.5123.2.1317.4483.1976.745.1976.3166,0,.5807-.0784.7924-.235.2116-.1566.3458-.3716.4025-.645h-.4349c-.03.1334-.1125.2459-.2475.3375-.135.0917-.3058.1376-.5125.1376-.2,0-.3658-.0442-.4975-.1326-.1317-.0883-.23-.2082-.295-.3599-.0556-.1299-.0873-.2775-.0953-.4426h2.1277v-.21c0-.23-.0475-.4432-.1425-.6398-.095-.1966-.2384-.355-.43-.4751Zm-1.1749.355c.1283-.0867.2875-.1299.4774-.1299.1766,0,.3283.0382.455.115.1266.0766.2208.1857.2825.3274.0407.0935.0677.1978.0815.3124h-1.6586c.0157-.0961.0404-.1854.0747-.2674.0633-.1517.1591-.2708.2875-.3575Z"/><polygon points="66.8836 55.9249 66.4086 55.9249 65.7887 56.9348 65.7187 56.9348 65.0637 55.9249 64.5537 55.9249 65.4274 57.2451 64.5087 58.5897 64.9837 58.5897 65.7137 57.4998 65.7837 57.4998 66.5436 58.5897 67.0536 58.5897 66.071 57.1916 66.8836 55.9249"/><polygon points="67.2836 55.9249 67.2836 56.2899 67.6936 56.2899 67.6936 58.5897 68.1535 58.5897 68.1535 56.2899 68.1535 55.9249 67.6936 55.9249 67.2836 55.9249"/><path d="m67.8186,55.485c.0999,0,.1766-.0267.23-.08.0533-.0533.08-.1251.08-.215,0-.0865-.0267-.1566-.08-.21-.0534-.0532-.13-.08-.23-.08-.1,0-.1759.0268-.2275.08-.0517.0533-.0775.1251-.0775.215,0,.0867.0258.1566.0775.21.0516.0534.1275.08.2275.08Z"/><path d="m70.6884,57.2898c-.1667-.13-.3983-.21-.695-.2401l-.29-.0299c-.1533-.0166-.2658-.0558-.3375-.1174-.0717-.0616-.1075-.1443-.1075-.2475,0-.1233.0507-.2233.1525-.2999.1016-.0768.2425-.115.4225-.115.1833,0,.3241.0366.4225.1099.0983.0734.1508.1683.1575.285h.435c-.0067-.2532-.1009-.4482-.2825-.585-.1817-.1366-.4258-.2049-.7325-.2049-.1967,0-.3708.0325-.5225.0976-.1517.0649-.2708.1582-.3575.2799-.0867.1217-.13.2658-.13.4325,0,.2166.0758.3884.2275.5149.1516.1267.3591.2049.6224.235l.295.0299c.1866.02.3225.0618.4075.1251.085.0633.1275.1517.1275.2649,0,.1334-.0584.2417-.175.325-.1167.0834-.2817.1251-.495.1251-.2233,0-.3892-.0426-.4975-.1275-.1084-.0851-.1642-.1892-.1675-.3124h-.4349c.0066.2599.1058.4642.2975.6124.1916.1483.4591.2225.8025.2225.2133,0,.4041-.0358.5725-.1075.1683-.0716.2991-.1724.3925-.3025.0933-.13.14-.2749.14-.4349,0-.2266-.0834-.405-.25-.5349Z"/><path d="m72.1332,55.1099h-.44v.815h-.465v.345h.465v1.4249c0,.2267.0375.4074.1125.5424.075.135.1833.2324.325.2924.1417.06.3142.0901.5175.0901h.41v-.4151h-.47c-.1433,0-.255-.039-.335-.1174-.08-.0782-.12-.1908-.12-.3375v-1.4799h.9249v-.345h-.9249v-.815Z"/><path d="m75.353,57.5148c0,.2233-.0633.4009-.19.5325-.1267.1317-.2933.1974-.5.1974-.1967,0-.3525-.06-.4675-.1799-.115-.12-.1725-.2867-.1725-.5v-1.645h-.46v1.55c0,.3866.085.6833.255.8898.17.2067.4116.31.7249.31h.02c.3133,0,.55-.1041.71-.3124.08-.1042.14-.2318.18-.383v.6154h.365v-2.6698h-.465v1.5949Z"/><path d="m76.8829,55.445c.1,0,.1757-.0275.2275-.0825.0516-.055.0775-.1259.0775-.2126,0-.0899-.0259-.1607-.0775-.2124-.0517-.0517-.1275-.0776-.2275-.0776s-.1759.0268-.2275.08c-.0517.0533-.0775.1251-.0775.215,0,.0867.0258.1566.0775.21.0516.0533.1275.08.2275.08Z"/><path d="m76.3529,55.9249v.365h.4249v2.5049c0,.13-.0342.229-.1025.2975-.0683.0681-.1659.1025-.2925.1025h-.285v.4149h.215c.22,0,.3958-.0283.5275-.0849.1317-.0568.2275-.1493.2875-.2775.06-.1285.09-.3025.09-.5226v-2.7997h-.8649Z"/><path d="m79.8301,56.0149c-.1917-.12-.4242-.1799-.6974-.1799-.2834,0-.5225.0649-.7175.1948-.195.1301-.3409.3001-.4375.51-.0967.21-.145.4349-.145.675v.0849c0,.2368.0475.4599.1425.6701.095.21.2425.3807.4425.5123.2.1317.4483.1976.745.1976.3166,0,.5808-.0784.7924-.235.2116-.1566.3458-.3716.4025-.645h-.4349c-.03.1334-.1125.2459-.2475.3375-.135.0917-.3058.1376-.5125.1376-.2,0-.3658-.0442-.4975-.1326-.1317-.0883-.23-.2082-.295-.3599-.0556-.1299-.0872-.2775-.0953-.4426h2.1277v-.21c0-.23-.0475-.4432-.1425-.6398-.095-.1966-.2384-.355-.43-.4751Zm-1.1749.355c.1283-.0867.2875-.1299.4775-.1299.1766,0,.3282.0382.455.115.1266.0766.2208.1857.2825.3274.0407.0935.0677.1978.0815.3124h-1.6586c.0157-.0961.0404-.1854.0747-.2674.0633-.1517.1591-.2708.2875-.3575Z"/><path d="m80.9926,57.9998c-.08,0-.1467.0283-.2.0851-.0534.0566-.08.1267-.08.21s.0266.1532.08.21c.0533.0566.12.0849.2.0849.08,0,.1466-.0283.2-.0849.0533-.0568.08-.1267.08-.21s-.0267-.1534-.08-.21c-.0534-.0568-.12-.0851-.2-.0851Z"/><path d="m151.7361,56.0324c-.2167-.1316-.4683-.1974-.755-.1974h-67.9839c-.2867,0-.5383.0659-.7549.1974-.2167.1317-.3817.3033-.495.5149-.1134.2118-.17.4343-.17.6675v.0849c0,.2334.055.4559.165.6675.11.2118.2732.3833.49.5149.2166.1317.4716.1976.7649.1976h67.9839c.2933,0,.5482-.0659.765-.1976.2166-.1316.38-.3032.49-.5149.11-.2116.165-.4341.165-.6675v-.0849c0-.2332-.0567-.4557-.17-.6675-.1134-.2116-.2783-.3832-.495-.5149Zm.0925,1.7374c-.075.1534-.1859.2742-.3325.3625-.1467.0883-.3183.1324-.515.1324s-.3683-.0441-.515-.1324c-.1467-.0883-.2583-.2092-.335-.3625-.0767-.1532-.115-.325-.115-.5149s.04-.3617.12-.5149c.08-.1534.1925-.2734.3375-.3601.145-.0865.3141-.13.5075-.13.19,0,.3583.0434.505.13.1466.0867.2591.2067.3375.3601.0783.1532.1175.325.1175.5149s-.0375.3617-.1125.5149Z"/><path class="cls-2" d="m151.8286,57.7698c-.075.1534-.1859.2742-.3325.3625-.1467.0883-.3183.1324-.515.1324s-.3683-.0441-.515-.1324c-.1467-.0883-.2583-.2092-.335-.3625-.0767-.1532-.115-.325-.115-.5149s.04-.3617.12-.5149c.08-.1534.1925-.2734.3375-.3601.145-.0865.3141-.13.5075-.13.19,0,.3583.0434.505.13.1466.0867.2591.2067.3375.3601.0783.1532.1175.325.1175.5149s-.0375.3617-.1125.5149Z"/><path d="m154.3109,55.8449h-.02c-.33,0-.5775.1043-.7425.3124-.0839.106-.1463.2366-.1875.3913v-.6237h-.365v2.6647h.46v-1.5949c0-.2166.0658-.3916.1975-.5249.1317-.1334.3058-.2001.5225-.2001.2033,0,.365.0625.485.1875.12.1249.18.2942.18.5074v1.6248h.46v-1.5248c0-.3967-.0825-.6992-.2475-.9075-.165-.2082-.4125-.3124-.7425-.3124Z"/><polygon points="155.6958 54.94 155.6958 55.3049 156.0708 55.3049 156.0708 58.5897 156.5308 58.5897 156.5308 55.3049 156.5308 54.94 156.0708 54.94 155.6958 54.94"/><path d="m157.6257,55.485c.1,0,.1766-.0267.23-.08.0533-.0533.08-.1251.08-.215,0-.0865-.0267-.1566-.08-.21-.0533-.0532-.13-.08-.23-.08s-.1759.0268-.2275.08c-.0517.0533-.0775.1251-.0775.215,0,.0867.0258.1566.0775.21.0516.0534.1275.08.2275.08Z"/><polygon points="157.0907 55.9249 157.0907 56.2899 157.5007 56.2899 157.5007 58.5897 157.9607 58.5897 157.9607 56.2899 157.9607 55.9249 157.5007 55.9249 157.0907 55.9249"/><path d="m160.0806,55.8449h-.02c-.33,0-.5775.1043-.7424.3124-.0839.106-.1463.2366-.1875.3913v-.6237h-.365v2.6647h.46v-1.5949c0-.2166.0658-.3916.1975-.5249.1316-.1334.3058-.2001.5225-.2001.2033,0,.365.0625.485.1875.12.1249.18.2942.18.5074v1.6248h.46v-1.5248c0-.3967-.0825-.6992-.2475-.9075-.165-.2082-.4125-.3124-.7424-.3124Z"/><path d="m164.2153,57.1298c0-.23-.0475-.4432-.1425-.6398-.095-.1966-.2384-.355-.43-.4751-.1917-.12-.4242-.1799-.6974-.1799-.2834,0-.5225.0649-.7175.1948-.195.1301-.3409.3001-.4375.51-.0967.21-.145.4349-.145.675v.0849c0,.2368.0475.4599.1425.6701.095.21.2425.3807.4425.5123.2.1317.4483.1976.745.1976.3166,0,.5808-.0784.7925-.235.2116-.1566.3458-.3716.4025-.645h-.4349c-.03.1334-.1125.2459-.2475.3375-.135.0917-.3058.1376-.5125.1376-.2,0-.3658-.0442-.4975-.1326-.1317-.0883-.23-.2082-.295-.3599-.0556-.1299-.0872-.2775-.0953-.4426h2.1277v-.21Zm-1.7474-.7599c.1283-.0867.2875-.1299.4775-.1299.1766,0,.3282.0382.455.115.1266.0766.2208.1857.2825.3274.0407.0935.0677.1978.0815.3124h-1.6586c.0157-.0961.0404-.1854.0747-.2674.0633-.1517.1591-.2708.2875-.3575Z"/></g><g><path d="m62.2963,178.0066c-.1501-.094-.3321-.1408-.546-.1408-.2218,0-.409.0508-.5617.1525-.1527.1019-.2668.2349-.3425.3993-.0757.1644-.1135.3405-.1135.5284v.0665c0,.1854.0372.3601.1115.5246.0744.1644.1898.2981.3464.4011.1566.1031.3509.1547.5832.1547.2479,0,.4546-.0614.6204-.184.1657-.1226.2707-.2909.3151-.505h-.3405c-.0235.1044-.0881.1925-.1938.2642-.1057.0718-.2394.1077-.4012.1077-.1566,0-.2864-.0346-.3894-.1038-.1031-.0691-.18-.163-.2309-.2818-.0436-.1017-.0683-.2172-.0746-.3465h1.6657v-.1644c0-.18-.0372-.347-.1115-.5009-.0744-.1539-.1866-.278-.3366-.3719Zm-.9198.278c.1004-.0679.2251-.1017.3738-.1017.1383,0,.257.0299.3562.09.0991.06.1728.1454.2211.2563.0318.0732.053.1549.0638.2446h-1.2985c.0123-.0753.0316-.1452.0585-.2093.0495-.1188.1246-.212.2251-.2799Z"/><polygon points="64.7407 177.9362 64.3688 177.9362 63.8835 178.7268 63.8287 178.7268 63.3159 177.9362 62.9167 177.9362 63.6007 178.9698 62.8815 180.0224 63.2533 180.0224 63.8248 179.1692 63.8796 179.1692 64.4745 180.0224 64.8738 180.0224 64.1045 178.9279 64.7407 177.9362"/><polygon points="65.0538 177.9362 65.0538 178.222 65.3748 178.222 65.3748 180.0224 65.7349 180.0224 65.7349 178.222 65.7349 177.9362 65.3748 177.9362 65.0538 177.9362"/><path d="m65.4726,177.5918c.0782,0,.1382-.0209.18-.0626.0417-.0418.0626-.0979.0626-.1683,0-.0677-.0209-.1226-.0626-.1644-.0418-.0416-.1018-.0626-.18-.0626-.0783,0-.1377.021-.1781.0626-.0405.0418-.0607.0979-.0607.1683,0,.0679.0202.1226.0607.1644.0404.0418.0998.0626.1781.0626Z"/><path d="m67.7193,179.0048c-.1305-.1017-.3118-.1644-.5441-.1879l-.227-.0234c-.12-.013-.2081-.0437-.2642-.0919-.0561-.0483-.0841-.1129-.0841-.1938,0-.0965.0397-.1748.1194-.2348.0796-.0601.1898-.09.3307-.09.1435,0,.2537.0286.3307.0861.0769.0574.118.1318.1233.2231h.3406c-.0053-.1983-.079-.3509-.2211-.458-.1423-.107-.3334-.1604-.5734-.1604-.154,0-.2903.0255-.409.0764-.1188.0508-.212.1239-.2799.2191-.0679.0952-.1018.2081-.1018.3386,0,.1696.0593.3041.1781.4031.1187.0992.2811.1604.4873.184l.2309.0234c.1461.0157.2525.0484.319.0979.0665.0495.0998.1188.0998.2074,0,.1044-.0457.1892-.137.2544-.0914.0653-.2205.0979-.3875.0979-.1749,0-.3047-.0334-.3894-.0998-.0848-.0666-.1286-.1481-.1312-.2446h-.3405c.0052.2035.0828.3634.2329.4794.15.1161.3594.1742.6282.1742.167,0,.3164-.028.4482-.0842.1317-.056.2342-.135.3072-.2368.073-.1017.1096-.2152.1096-.3405,0-.1774-.0653-.317-.1957-.4188Z"/><path d="m68.8505,177.2982h-.3444v.638h-.364v.2701h.364v1.1155c0,.1775.0293.319.0881.4246.0587.1057.1435.182.2544.2289.1109.047.2459.0705.4051.0705h.321v-.3249h-.3679c-.1122,0-.1996-.0306-.2622-.0919-.0626-.0612-.0939-.1494-.0939-.2642v-1.1586h.7241v-.2701h-.7241v-.638Z"/><path d="m71.3711,179.1809c0,.1748-.0496.3139-.1487.4169-.0992.1031-.2296.1546-.3914.1546-.154,0-.276-.047-.366-.1408-.09-.094-.135-.2245-.135-.3914v-1.2878h-.3601v1.2134c0,.3027.0665.5349.1996.6966.1331.1618.3222.2427.5675.2427h.0156c.2453,0,.4306-.0815.5558-.2446.0626-.0815.1096-.1815.1409-.2998v.4818h.2857v-2.0901h-.364v1.2486Z"/><path d="m72.5688,177.5605c.0783,0,.1376-.0215.1781-.0646.0404-.043.0607-.0986.0607-.1664,0-.0704-.0202-.1258-.0607-.1663-.0405-.0405-.0998-.0607-.1781-.0607s-.1377.021-.1781.0626c-.0405.0418-.0607.0979-.0607.1683,0,.0679.0202.1226.0607.1644.0404.0418.0998.0626.1781.0626Z"/><path d="m72.1539,177.9362v.2857h.3327v1.961c0,.1017-.0268.1793-.0802.2329-.0535.0533-.1298.0802-.229.0802h-.2231v.3248h.1683c.1722,0,.3098-.0222.4129-.0665.1031-.0444.1781-.1169.2251-.2172.047-.1006.0705-.2368.0705-.4091v-2.1918h-.6771Z"/><path d="m74.8761,178.0066c-.1501-.094-.3321-.1408-.546-.1408-.2218,0-.4091.0508-.5617.1525-.1526.1019-.2668.2349-.3425.3993-.0757.1644-.1135.3405-.1135.5284v.0665c0,.1854.0372.3601.1115.5246.0744.1644.1898.2981.3464.4011.1566.1031.3509.1547.5832.1547.2479,0,.4547-.0614.6204-.184.1657-.1226.2707-.2909.3151-.505h-.3405c-.0235.1044-.0881.1925-.1938.2642-.1057.0718-.2394.1077-.4012.1077-.1566,0-.2864-.0346-.3894-.1038-.1031-.0691-.18-.163-.2309-.2818-.0435-.1017-.0683-.2172-.0746-.3465h1.6657v-.1644c0-.18-.0372-.347-.1115-.5009-.0744-.1539-.1866-.278-.3366-.3719Zm-.9198.278c.1004-.0679.2251-.1017.3738-.1017.1383,0,.2569.0299.3562.09.0991.06.1728.1454.2211.2563.0319.0732.053.1549.0638.2446h-1.2985c.0123-.0753.0316-.1452.0585-.2093.0495-.1188.1246-.212.2251-.2799Z"/><path d="m75.7862,179.5606c-.0627,0-.1149.0222-.1566.0666-.0418.0443-.0626.0992-.0626.1644s.0208.1199.0626.1644c.0417.0443.0939.0665.1566.0665.0626,0,.1148-.0222.1566-.0665.0417-.0444.0626-.0992.0626-.1644s-.0209-.1201-.0626-.1644c-.0418-.0444-.0939-.0666-.1566-.0666Z"/><path d="m155.477,178.0204c-.1697-.103-.3667-.1546-.591-.1546h-77.5303c-.2244,0-.4214.0516-.591.1546-.1697.1031-.2988.2375-.3875.4031-.0888.1658-.1331.34-.1331.5226v.0665c0,.1827.0431.3569.1292.5226.0861.1658.2139.3001.3836.4031.1696.1031.3692.1547.5988.1547h77.5303c.2296,0,.4292-.0516.5989-.1547.1696-.103.2975-.2373.3836-.4031.0861-.1657.1292-.3398.1292-.5226v-.0665c0-.1826-.0444-.3568-.1331-.5226-.0887-.1657-.2179-.3-.3875-.4031Zm.0724,1.3601c-.0587.1201-.1455.2147-.2603.2838-.1149.0691-.2492.1036-.4032.1036s-.2884-.0345-.4032-.1036c-.1149-.0691-.2022-.1637-.2622-.2838-.0601-.1199-.09-.2544-.09-.4031s.0313-.2832.0939-.4031c.0626-.1201.1507-.214.2642-.2819.1135-.0677.2459-.1017.3973-.1017.1488,0,.2805.034.3953.1017.1148.0679.2029.1618.2642.2819.0613.1199.092.2544.092.4031s-.0293.2832-.088.4031Z"/><path class="cls-2" d="m155.5494,179.3805c-.0587.1201-.1455.2147-.2603.2838-.1149.0691-.2492.1036-.4032.1036s-.2884-.0345-.4032-.1036c-.1149-.0691-.2022-.1637-.2622-.2838-.0601-.1199-.09-.2544-.09-.4031s.0313-.2832.0939-.4031c.0626-.1201.1507-.214.2642-.2819.1135-.0677.2459-.1017.3973-.1017.1488,0,.2805.034.3953.1017.1148.0679.2029.1618.2642.2819.0613.1199.092.2544.092.4031s-.0293.2832-.088.4031Z"/><path d="m157.4928,177.8736h-.0156c-.2584,0-.4521.0816-.5813.2446-.0657.083-.1145.1852-.1468.3064v-.4883h-.2857v2.0861h.3601v-1.2486c0-.1696.0515-.3066.1546-.4109.1031-.1044.2394-.1566.409-.1566.1591,0,.2858.0489.3797.1468.094.0978.1409.2303.1409.3973v1.272h.3601v-1.1937c0-.3106-.0646-.5474-.1937-.7105-.1292-.163-.3229-.2446-.5813-.2446Z"/><polygon points="158.5769 177.1651 158.5769 177.4509 158.8705 177.4509 158.8705 180.0224 159.2306 180.0224 159.2306 177.4509 159.2306 177.1651 158.8705 177.1651 158.5769 177.1651"/><path d="m160.0878,177.5918c.0783,0,.1383-.0209.18-.0626.0417-.0418.0626-.0979.0626-.1683,0-.0677-.0209-.1226-.0626-.1644-.0418-.0416-.1018-.0626-.18-.0626s-.1377.021-.1781.0626c-.0405.0418-.0607.0979-.0607.1683,0,.0679.0202.1226.0607.1644.0404.0418.0998.0626.1781.0626Z"/><polygon points="159.669 177.9362 159.669 178.222 159.9899 178.222 159.9899 180.0224 160.35 180.0224 160.35 178.222 160.35 177.9362 159.9899 177.9362 159.669 177.9362"/><path d="m162.0096,177.8736h-.0157c-.2583,0-.4521.0816-.5812.2446-.0657.083-.1145.1852-.1468.3063v-.4883h-.2857v2.0861h.3601v-1.2486c0-.1696.0515-.3066.1546-.4109.103-.1044.2394-.1566.409-.1566.1591,0,.2857.0489.3797.1468.0939.0978.1409.2303.1409.3973v1.272h.3601v-1.1937c0-.3106-.0646-.5474-.1938-.7105-.1291-.163-.3229-.2446-.5812-.2446Z"/><path d="m165.2466,178.8795c0-.18-.0372-.347-.1115-.5009-.0744-.1539-.1866-.278-.3366-.3719-.1501-.094-.3321-.1408-.546-.1408-.2218,0-.4091.0508-.5617.1525-.1526.1019-.2669.2349-.3425.3993-.0757.1644-.1135.3405-.1135.5284v.0665c0,.1854.0372.3601.1115.5246.0744.1644.1898.2981.3464.4011.1566.1031.3509.1547.5832.1547.2479,0,.4547-.0614.6204-.184.1657-.1226.2707-.2909.3151-.505h-.3405c-.0235.1044-.0881.1925-.1938.2642-.1057.0718-.2394.1077-.4012.1077-.1566,0-.2864-.0346-.3894-.1038-.1031-.0691-.18-.163-.2309-.2818-.0435-.1017-.0683-.2172-.0746-.3465h1.6657v-.1644Zm-1.368-.5949c.1004-.0679.2251-.1017.3738-.1017.1383,0,.257.0299.3562.09.0991.06.1728.1454.2211.2563.0319.0732.053.1549.0638.2446h-1.2985c.0123-.0753.0316-.1452.0585-.2093.0495-.1188.1246-.212.2251-.2799Z"/></g><g><path d="m189.1036,57.6662c-.2453-.1536-.5428-.2302-.8925-.2302-.3626,0-.6686.083-.9181.2493-.2495.1665-.4362.384-.5598.6527-.1238.2687-.1856.5565-.1856.8637v.1086c0,.303.0608.5886.1823.8575.1216.2687.3103.4872.5662.6556.256.1686.5736.2529.9533.2529.4052,0,.7431-.1003,1.0141-.3008.2708-.2004.4424-.4756.515-.8254h-.5566c-.0384.1707-.144.3147-.3167.4319-.1727.1174-.3913.1761-.6558.1761-.2559,0-.4681-.0566-.6366-.1696-.1686-.113-.2943-.2664-.3775-.4606-.0712-.1662-.1117-.3551-.1219-.5663h2.7227v-.2687c0-.2943-.0608-.5671-.1823-.8188-.1216-.2516-.305-.4543-.5503-.6079Zm-1.5035.4543c.1641-.1109.3679-.1663.611-.1663.226,0,.4201.0489.5822.1471.162.098.2825.2377.3615.419.0521.1197.0866.2532.1043.3998h-2.1224c.0201-.123.0517-.2373.0955-.3422.081-.1942.2036-.3465.3679-.4575Z"/><polygon points="193.0991 57.5511 192.4913 57.5511 191.6979 58.8434 191.6084 58.8434 190.7702 57.5511 190.1176 57.5511 191.2357 59.2405 190.06 60.9611 190.6679 60.9611 191.602 59.5664 191.6915 59.5664 192.664 60.9611 193.3166 60.9611 192.0592 59.1721 193.0991 57.5511"/><polygon points="193.6109 57.5511 193.6109 58.0181 194.1356 58.0181 194.1356 60.9611 194.7242 60.9611 194.7242 58.0181 194.7242 57.5511 194.1356 57.5511 193.6109 57.5511"/><path d="m194.2955,56.9881c.1279,0,.226-.0341.2943-.1024.0682-.0683.1023-.1601.1023-.2751,0-.1107-.0342-.2004-.1023-.2687-.0683-.0681-.1664-.1024-.2943-.1024-.128,0-.225.0343-.2911.1024-.0662.0683-.0992.1601-.0992.2751,0,.1109.033.2004.0992.2687.0661.0683.1631.1024.2911.1024Z"/><path d="m197.9679,59.2977c-.2133-.1663-.5097-.2687-.8893-.3072l-.371-.0383c-.1962-.0212-.3402-.0714-.4319-.1503-.0917-.0789-.1375-.1846-.1375-.3168,0-.1578.0649-.2858.1951-.3838.1301-.0982.3103-.1471.5406-.1471.2345,0,.4148.0468.5406.1407.1258.0939.1929.2154.2015.3646h.5567c-.0086-.3241-.1291-.5736-.3615-.7486-.2325-.1748-.5449-.2622-.9373-.2622-.2517,0-.4745.0416-.6686.1249-.1941.083-.3466.2025-.4575.3582-.111.1557-.1663.3401-.1663.5534,0,.2772.097.497.2911.6589.194.1621.4596.2622.7965.3007l.3775.0383c.2388.0256.4127.0791.5214.1601.1087.081.1631.1942.1631.339,0,.1707-.0747.3093-.2239.4158-.1494.1068-.3605.1601-.6334.1601-.2858,0-.4981-.0545-.6366-.1632-.1387-.1089-.2102-.2421-.2144-.3998h-.5566c.0085.3326.1353.594.3807.7836.2452.1898.5875.2847,1.0269.2847.2729,0,.5171-.0458.7326-.1376.2153-.0916.3828-.2206.5022-.3871.1194-.1663.1792-.3517.1792-.5565,0-.2899-.1067-.5182-.3199-.6845Z"/><path d="m199.8169,56.5082h-.563v1.0429h-.5951v.4414h.5951v1.8234c0,.2901.048.5214.1439.6941.0959.1728.2345.2974.4158.3742.1813.0768.402.1153.6622.1153h.5247v-.5311h-.6014c-.1834,0-.3263-.0499-.4286-.1503-.1023-.1001-.1536-.2441-.1536-.4319v-1.8938h1.1836v-.4414h-1.1836v-1.0429Z"/><path d="m203.9371,59.5856c0,.2858-.0811.513-.2431.6814-.1621.1686-.3754.2527-.6398.2527-.2517,0-.4511-.0768-.5982-.2302-.1471-.1536-.2207-.3669-.2207-.6398v-2.105h-.5886v1.9835c0,.4947.1088.8743.3263,1.1387.2175.2645.5267.3967.9277.3967h.0256c.4009,0,.7038-.1332.9086-.3998.1024-.1333.1791-.2966.2303-.4901v.7875h.4671v-3.4164h-.595v2.0409Z"/><path d="m205.8949,56.9369c.1279,0,.2249-.0352.2911-.1055.0661-.0703.0992-.1611.0992-.272,0-.1151-.0331-.2056-.0992-.2718-.0662-.0662-.1631-.0993-.2911-.0993s-.225.0343-.2911.1024c-.0662.0683-.0992.1601-.0992.2751,0,.1109.033.2004.0992.2687.0661.0683.1631.1024.2911.1024Z"/><path d="m205.2167,57.5511v.467h.5438v3.2054c0,.1663-.0437.2931-.1311.3807-.0875.0872-.2122.1311-.3743.1311h-.3647v.5309h.2751c.2815,0,.5064-.0362.675-.1086.1685-.0726.2911-.1911.3679-.3551.0768-.1644.1152-.3871.1152-.6687v-3.5827h-1.1068Z"/><path d="m209.6663,57.6662c-.2453-.1536-.5428-.2302-.8925-.2302-.3626,0-.6686.083-.9181.2493-.2495.1665-.4362.384-.5598.6527-.1237.2687-.1856.5565-.1856.8637v.1086c0,.303.0608.5886.1823.8575.1216.2687.3103.4872.5662.6556.256.1686.5736.2529.9533.2529.4052,0,.7432-.1003,1.0141-.3008.2708-.2004.4425-.4756.515-.8254h-.5566c-.0384.1707-.144.3147-.3167.4319-.1727.1174-.3913.1761-.6558.1761-.2559,0-.4681-.0566-.6366-.1696-.1685-.113-.2943-.2664-.3775-.4606-.0712-.1662-.1116-.3551-.1219-.5663h2.7227v-.2687c0-.2943-.0608-.5671-.1823-.8188-.1216-.2516-.305-.4543-.5503-.6079Zm-1.5035.4543c.1642-.1109.3679-.1663.611-.1663.226,0,.42.0489.5822.1471.162.098.2825.2377.3615.419.0521.1197.0866.2532.1043.3998h-2.1224c.0201-.123.0517-.2373.0955-.3422.081-.1942.2036-.3465.3679-.4575Z"/><path d="m211.1539,60.2062c-.1024,0-.1877.0362-.256.1089-.0683.0724-.1023.1621-.1023.2687s.0341.1961.1023.2687c.0682.0724.1535.1086.256.1086.1023,0,.1876-.0362.2559-.1086.0682-.0726.1023-.1621.1023-.2687s-.0342-.1963-.1023-.2687c-.0683-.0726-.1536-.1089-.2559-.1089Z"/><path d="m257.9529,57.6887c-.2773-.1684-.5993-.2527-.9661-.2527h-43.2675c-.3668,0-.6889.0843-.9661.2527-.2773.1686-.4885.3882-.6334.6589-.1451.271-.2176.5557-.2176.8542v.1086c0,.2987.0704.5834.2112.8542.1407.271.3497.4906.627.6589.2772.1686.6035.2529.9788.2529h43.2675c.3753,0,.7016-.0843.9789-.2529.2772-.1684.4863-.3879.627-.6589.1408-.2708.2112-.5555.2112-.8542v-.1086c0-.2985-.0726-.5832-.2176-.8542-.1451-.2708-.3562-.4903-.6334-.6589Zm.1184,2.2232c-.096.1963-.2378.3509-.4255.4639-.1877.113-.4074.1694-.659.1694s-.4714-.0564-.659-.1694c-.1877-.113-.3306-.2677-.4286-.4639-.0982-.1961-.1472-.4158-.1472-.6589s.0512-.4629.1536-.6589c.1024-.1963.2463-.3499.4319-.4608.1855-.1107.402-.1663.6494-.1663.2432,0,.4585.0556.6462.1663.1876.1109.3316.2645.4319.4608.1002.1961.1503.4158.1503.6589s-.048.4629-.1439.6589Z"/><path class="cls-2" d="m258.0713,59.9119c-.096.1963-.2378.3509-.4255.4639-.1877.113-.4074.1694-.659.1694s-.4714-.0564-.659-.1694c-.1877-.113-.3306-.2677-.4286-.4639-.0982-.1961-.1472-.4158-.1472-.6589s.0512-.4629.1536-.6589c.1024-.1963.2463-.3499.4319-.4608.1855-.1107.402-.1663.6494-.1663.2432,0,.4585.0556.6462.1663.1876.1109.3316.2645.4319.4608.1002.1961.1503.4158.1503.6589s-.048.4629-.1439.6589Z"/><path d="m261.2478,57.4487h-.0255c-.4223,0-.739.1334-.9501.3998-.1074.1356-.1872.3028-.2399.5008v-.7982h-.4671v3.41h.5886v-2.0409c0-.2772.0842-.5012.2527-.6716.1685-.1707.3913-.256.6686-.256.2601,0,.4671.0799.6206.24.1536.1598.2304.3765.2304.6494v2.0792h.5886v-1.9512c0-.5076-.1056-.8947-.3167-1.1614-.2111-.2664-.5279-.3998-.9501-.3998Z"/><polygon points="263.02 56.2907 263.02 56.7577 263.4998 56.7577 263.4998 60.9611 264.0884 60.9611 264.0884 56.7577 264.0884 56.2907 263.4998 56.2907 263.02 56.2907"/><path d="m265.4896,56.9881c.128,0,.226-.0341.2943-.1024.0682-.0683.1024-.1601.1024-.2751,0-.1107-.0342-.2004-.1024-.2687-.0683-.0681-.1663-.1024-.2943-.1024s-.225.0343-.2911.1024c-.0661.0683-.0992.1601-.0992.2751,0,.1109.033.2004.0992.2687.0661.0683.1632.1024.2911.1024Z"/><polygon points="264.805 57.5511 264.805 58.0181 265.3296 58.0181 265.3296 60.9611 265.9182 60.9611 265.9182 58.0181 265.9182 57.5511 265.3296 57.5511 264.805 57.5511"/><path d="m268.631,57.4487h-.0256c-.4222,0-.739.1334-.9501.3998-.1074.1356-.1872.3027-.2399.5007v-.7981h-.467v3.41h.5886v-2.0409c0-.2772.0842-.5012.2527-.6716.1684-.1707.3913-.256.6686-.256.2601,0,.467.0799.6206.24.1535.1598.2304.3765.2304.6494v2.0792h.5886v-1.9512c0-.5076-.1056-.8947-.3167-1.1614-.2111-.2664-.5278-.3998-.9501-.3998Z"/><path d="m273.922,59.0929c0-.2943-.0608-.5671-.1823-.8188-.1216-.2516-.305-.4543-.5503-.6079-.2453-.1536-.5428-.2302-.8925-.2302-.3626,0-.6686.083-.9181.2493-.2495.1665-.4362.384-.5598.6527-.1237.2687-.1856.5565-.1856.8637v.1086c0,.303.0608.5886.1823.8575.1216.2687.3103.4872.5662.6556.2559.1686.5736.2529.9533.2529.4052,0,.7432-.1003,1.0141-.3008.2708-.2004.4425-.4756.515-.8254h-.5566c-.0384.1707-.144.3147-.3167.4319-.1727.1174-.3913.1761-.6558.1761-.2559,0-.4681-.0566-.6366-.1696-.1685-.113-.2943-.2664-.3775-.4606-.0712-.1662-.1116-.3551-.1219-.5663h2.7227v-.2687Zm-2.2361-.9724c.1642-.1109.3679-.1663.611-.1663.226,0,.42.0489.5822.1471.162.098.2825.2377.3615.419.0521.1197.0866.2532.1043.3998h-2.1224c.0201-.123.0517-.2373.0955-.3422.081-.1942.2036-.3465.3679-.4575Z"/></g></svg>