<?xml version="1.0" encoding="UTF-8"?><svg id="Vrstva_1" xmlns="http://www.w3.org/2000/svg" viewBox="0 0 330 200"><defs><style>.cls-1{fill:#fff;}.cls-2{fill:#b700ff;}</style></defs><rect x="50" y="56.2439" width="230" height="87.5122"/><g><g><path class="cls-1" d="m57.3998,76.2155h4.3366v.7104h-4.3366v-.7104Zm1.7597-1.9144h.8071v2.2258h-.8071v-2.2258Zm0,3.4512h.8071v5.5905h-.8071v-5.5905Z"/><path class="cls-1" d="m64.12,76.2155h.7094v2.237l-.174-.0102c.0254-.5313.1404-.975.345-1.3322.2035-.3562.4692-.6239.7969-.802.3267-.1781.6951-.2666,1.1032-.2666.4865,0,.92.1211,1.3027.3644s.6778.5689.8854.977c.2066.4081.3104.8549.3104,1.3414v.1649c0,.4865-.1089.9333-.3257,1.3424-.2168.4081-.517.7338-.8987.977-.3827.2432-.8142.3644-1.2936.3644-.3949,0-.7603-.0865-1.0941-.2575-.3338-.172-.6086-.4427-.8264-.8122-.2168-.3694-.3348-.8325-.3542-1.3902l.4081.7684v3.4614h-.8946v-7.1273Zm3.5489,4.3173c.2656-.1689.4692-.402.6127-.7002.1425-.2982.2137-.6412.2137-1.031,0-.3817-.0712-.7226-.2137-1.0208-.1435-.2972-.3471-.5313-.6127-.6992-.2656-.1689-.574-.2534-.9241-.2534-.3236,0-.6208.0733-.8895.2188-.2687.1466-.4824.3532-.6412.6229-.1588.2687-.2382.5811-.2382.9373v.4478c0,.3501.0804.6564.2432.919.1618.2616.3766.4631.6463.6025.2687.1394.5618.2086.8793.2086.3501,0,.6585-.0845.9241-.2524Z"/><path class="cls-1" d="m71.4305,81.2177c-.3888-.2361-.6921-.5598-.9088-.9719-.2168-.4112-.3257-.8641-.3257-1.3567v-.1649c0-.4926.1048-.9435.3155-1.3516s.5089-.7318.8946-.9719.8223-.3593,1.3078-.3593c.4152,0,.7847.0875,1.1083.2616.3247.1751.5862.4397.7877.7928.2005.3532.3145.7959.3399,1.3271l-.3786-.6218v-3.5h.8946v7.0967h-.7104v-2.3042h.2626c-.0193.5638-.1364,1.031-.3501,1.4004s-.4855.6412-.8162.8162-.7002.2626-1.1083.2626c-.4865,0-.9241-.1181-1.3129-.3552Zm2.3144-.6564c.2656-.1486.4763-.3593.632-.631.1547-.2728.2331-.5872.2331-.9435v-.457c0-.343-.0794-.6453-.2382-.9038-.1588-.2595-.3725-.457-.6422-.5933-.2687-.1364-.5618-.2046-.8793-.2046-.3501,0-.6585.0824-.9241.2483-.2656.1649-.4712.3969-.6168.6951s-.2188.6412-.2188,1.03c0,.3959.0743.744.2239,1.0452.1486.3013.3572.5333.6269.6951.2687.1628.575.2432.918.2432.3247,0,.6198-.0743.8854-.2239Z"/><path class="cls-1" d="m76.4571,76.2745h3.2466v.6707h-3.2466v-.6707Zm1.1765-1.604c.2982-.2728.7419-.4091,1.3312-.4091h.6422v.7491h-.7969c-.2463,0-.4346.0682-.5638.2046-.1303.1354-.1944.3236-.1944.5638v5.619h-.8661v-5.4734c0-.5638.1496-.9821.4478-1.2539Z"/><path class="cls-1" d="m82.5046,76.2155h.7094v2.2167h-.117c0-.7582.1506-1.3424.4529-1.7546.3013-.4112.7531-.6168,1.3556-.6168h.0387c.6035,0,1.0554.2056,1.3567.6168.3013.4122.4519.9964.4519,1.7546h-.2717c0-.7582.1537-1.3424.461-1.7546.3084-.4112.7633-.6168,1.3668-.6168h.0387c.6025,0,1.0574.2056,1.3658.6168.3074.4122.4621.9964.4621,1.7546v2.9657h-.8946v-3.1693c0-.4213-.1058-.7501-.3165-.9872-.2107-.2361-.5038-.3542-.8793-.3542-.3959,0-.7104.1242-.9435.3735-.2331.2504-.3501.5923-.3501,1.0259v3.1113h-.9038v-3.1693c0-.4213-.1058-.7501-.3165-.9872-.2107-.2361-.5038-.3542-.8793-.3542-.3959,0-.7094.1242-.9435.3735-.2331.2504-.3501.5923-.3501,1.0259v3.1113h-.8936v-5.1824Z"/><path class="cls-1" d="m91.7355,81.0915c-.3338-.2951-.5007-.7084-.5007-1.2396,0-.5374.1812-.9496.5445-1.2345.3623-.285.8814-.4275,1.5551-.4275h1.4289v.6707h-1.4676c-.3766,0-.6676.0906-.8753.2717-.2076.1822-.3114.4213-.3114.7195s.1038.5353.3114.7094c.2076.1751.4987.2626.8753.2626.3755,0,.6931-.1048.9526-.3155s.399-.5526.4183-1.0259l.2524.3501c-.0519.5638-.23.9882-.5343,1.2732-.3053.286-.7297.4285-1.2742.4285-.5832,0-1.0412-.1476-1.375-.4427Zm3.0868-1.2488h-.1557v-1.7994c0-.3623-.0947-.6361-.2819-.8213-.1883-.1842-.4641-.2768-.8264-.2768-.5903,0-1.1633.0193-1.721.058v-.7877c.4213-.0387.8946-.058,1.4198-.058.803,0,1.3831.1496,1.7403.4478.3562.2982.5343.7999.5343,1.5063v3.2863h-.7094v-1.5551Z"/><path class="cls-1" d="m97.038,76.2155h.7094v2.2167h-.116c0-.7704.1598-1.3587.4814-1.7638.3206-.4051.802-.6076,1.4432-.6076h.0387c.6422,0,1.1236.2025,1.4442.6076s.4814.9933.4814,1.7638v2.9657h-.8946v-3.1601c0-.4142-.117-.743-.3501-.9862s-.5475-.3644-.9424-.3644c-.4213,0-.7603.1293-1.0167.3888-.2555.2585-.3837.5995-.3837,1.0208v3.1011h-.8946v-5.1824Z"/><path class="cls-1" d="m103.406,80.951c-.3308-.402-.4956-.9791-.4956-1.7312v-3.0135h.8946v3.1988c0,.4142.112.7389.3348.9719.2239.2331.5272.3501.9099.3501.401,0,.7257-.1282.9719-.3837.2463-.2565.3694-.6015.3694-1.0361v-3.1011h.9038v5.1915h-.7094v-2.2167h.117c0,.7715-.1557,1.3597-.4671,1.7648s-.7715.6076-1.3801.6076h-.0397c-.6086,0-1.0788-.2005-1.4096-.6025Z"/><path class="cls-1" d="m108.9527,81.0915c-.3338-.2951-.5007-.7084-.5007-1.2396,0-.5374.1812-.9496.5445-1.2345s.8814-.4275,1.5561-.4275h1.4289v.6707h-1.4686c-.3755,0-.6676.0906-.8742.2717-.2076.1822-.3114.4213-.3114.7195s.1038.5353.3114.7094c.2066.1751.4987.2626.8742.2626.3766,0,.6941-.1048.9536-.3155.2585-.2107.3979-.5526.4173-1.0259l.2534.3501c-.0519.5638-.23.9882-.5353,1.2732-.3043.286-.7287.4285-1.2732.4285-.5832,0-1.0422-.1476-1.376-.4427Zm3.0868-1.2488h-.1557v-1.7994c0-.3623-.0936-.6361-.2819-.8213-.1883-.1842-.4631-.2768-.8264-.2768-.5893,0-1.1633.0193-1.721.058v-.7877c.4213-.0387.8946-.058,1.4198-.058.804,0,1.3841.1496,1.7403.4478s.5343.7999.5343,1.5063v3.2863h-.7094v-1.5551Zm-.9424-6.31h.9424l-1.0697,1.9154h-.7287l.8559-1.9154Z"/><path class="cls-1" d="m113.5855,74.3011h1.6233v.7094h-1.6233v-.7094Zm.7287,0h.8946v7.0967h-.8946v-7.0967Z"/><path class="cls-1" d="m56.9042,94.2408h.5547c.2463,0,.4356-.0672.5679-.1995.1333-.1333.1995-.3257.1995-.5781v-5.5813h.8559v5.4449c0,.4275-.058.7664-.1751,1.0157s-.3033.4295-.5587.5394c-.2565.1109-.5984.1659-1.0259.1659h-.4183v-.8071Zm.4956-6.3589h1.6823v.7104h-1.6823v-.7104Zm.5883-1.088c-.1008-.1038-.1506-.2402-.1506-.4091,0-.1751.0499-.3135.1506-.4173s.2483-.1557.4427-.1557.342.0499.4427.1506c.0997.1008.1506.2382.1506.4132,0,.1689-.0509.3063-.1506.4132-.1008.1069-.2483.1598-.4427.1598s-.342-.0509-.4427-.1547Z"/><path class="cls-1" d="m61.4148,92.8556c-.3888-.2565-.6758-.5883-.86-.9974-.1852-.4081-.2768-.8417-.2768-1.3027v-.1649c0-.4661.0936-.9038.2819-1.3129.1873-.4081.4712-.7389.8498-.9913.3796-.2524.8447-.3786,1.3953-.3786.5313,0,.9842.116,1.3567.3491.3725.2341.6514.5414.8356.9241.1852.3827.2778.7969.2778,1.2447v.4081h-4.6084v-.6707h3.957l-.2046.3593c0-.3694-.06-.6921-.1801-.9669-.1201-.2758-.3033-.4875-.5496-.6371-.2463-.1486-.5404-.2239-.8844-.2239-.3694,0-.6788.0845-.9282.2534-.2493.1679-.4356.4-.5587.6951s-.1852.6361-.1852,1.0249c0,.3898.0631.7318.1893,1.0259.1272.2951.3175.5282.574.7002s.5781.2575.9679.2575c.401,0,.7338-.0885.9964-.2677.2626-.1781.4224-.3969.4814-.6554h.8457c-.1109.5313-.3715.9496-.7826,1.2539-.4122.3043-.9261.457-1.5409.457-.5771,0-1.0605-.1282-1.4493-.3837Z"/><path class="cls-1" d="m68.3854,87.8819h.7094v2.2167h-.116c0-.7582.1506-1.3424.4519-1.7546.3013-.4112.7531-.6168,1.3567-.6168h.0387c.6025,0,1.0544.2056,1.3556.6168.3023.4122.4529.9964.4529,1.7546h-.2728c0-.7582.1537-1.3424.4621-1.7546.3074-.4112.7633-.6168,1.3658-.6168h.0387c.6025,0,1.0585.2056,1.3658.6168.3084.4122.4621.9964.4621,1.7546v2.9657h-.8946v-3.1693c0-.4213-.1048-.7501-.3155-.9872-.2107-.2361-.5038-.3542-.8804-.3542-.3949,0-.7094.1242-.9424.3735-.2341.2504-.3501.5923-.3501,1.0259v3.1113h-.9048v-3.1693c0-.4213-.1048-.7501-.3155-.9872-.2107-.2361-.5038-.3542-.8804-.3542-.3949,0-.7094.1242-.9424.3735-.2331.2504-.3501.5923-.3501,1.0259v3.1113h-.8946v-5.1824Z"/><path class="cls-1" d="m77.5634,87.8819h.7094v2.1393h-.0387c0-.7521.1659-1.3058.4956-1.662.3308-.3572.8366-.5353,1.5175-.5353h.1649v.8071h-.3206c-.5252,0-.9282.1374-1.2101.4132-.2829.2758-.4234.6788-.4234,1.2101v2.81h-.8946v-5.1824Z"/><path class="cls-1" d="m80.6451,87.8819h3.558v.6717h-3.558v-.6717Zm1.7546,5.0653c-.2758-.116-.4855-.3063-.632-.5679-.1455-.2626-.2188-.6147-.2188-1.0554v-5.0266h.8559v5.1335c0,.285.0773.5038.2331.6564s.3725.228.6514.228h.9139v.8071h-.7969c-.3959,0-.7307-.058-1.0066-.1751Z"/><path class="cls-1" d="m84.6601,87.8819h.9333l1.7403,5.1824h-.8946l-1.779-5.1824Zm2.0029,4.473h1.089v.7094h-1.089v-.7094Zm1.9541-4.473h.8753l-1.546,5.1824h-.8457l1.5164-5.1824Z"/><path class="cls-1" d="m89.7937,87.8819h.9139l1.779,5.0653h-.8366l-1.8564-5.0653Zm.3501,6.3976h.7287c.3369,0,.5984-.0651.7826-.1944.1852-.1293.3257-.3593.4234-.69l1.6528-5.5131h.8742l-1.7403,5.7462c-.1038.344-.2493.6208-.4376.8315-.1873.2107-.4142.3674-.6799.4712s-.574.1557-.9241.1557h-.6799v-.8071Zm1.604-2.0803h1.089v.748h-1.089v-.748Zm.8844-7.0001h.9435l-1.0697,1.9154h-.7297l.8559-1.9154Z"/><path class="cls-1" d="m95.034,92.8994c-.1038-.1109-.1557-.2463-.1557-.4091,0-.1618.0519-.2972.1557-.4081.1028-.1099.2331-.1649.3888-.1649s.285.055.3888.1649c.1038.1109.1557.2463.1557.4081,0,.1628-.0519.2982-.1557.4091-.1038.1099-.2331.1649-.3888.1649s-.286-.055-.3888-.1649Zm2.5271,0c-.1038-.1109-.1557-.2463-.1557-.4091,0-.1618.0519-.2972.1557-.4081.1038-.1099.2341-.1649.3888-.1649.1557,0,.286.055.3898.1649.1028.1109.1547.2463.1547.4081,0,.1628-.0519.2982-.1547.4091-.1038.1099-.2341.1649-.3898.1649-.1547,0-.285-.055-.3888-.1649Zm2.5179,0c-.1038-.1109-.1547-.2463-.1547-.4091,0-.1618.0509-.2972.1547-.4081.1038-.1099.2341-.1649.3898-.1649.1547,0,.285.055.3888.1649.1028.1109.1547.2463.1547.4081,0,.1628-.0519.2982-.1547.4091-.1038.1099-.2341.1649-.3888.1649-.1557,0-.286-.055-.3898-.1649Z"/><path class="cls-1" d="m58.5763,104.522c-.3888-.2565-.6758-.5883-.86-.9974-.1852-.4081-.2768-.8417-.2768-1.3027v-.1649c0-.4661.0936-.9038.2819-1.3129.1873-.4081.4712-.7389.8498-.9913.3796-.2524.8447-.3786,1.3953-.3786.5313,0,.9842.116,1.3567.3491.3725.2341.6514.5414.8356.9241.1852.3827.2778.7969.2778,1.2447v.4081h-4.6084v-.6707h3.957l-.2046.3593c0-.3694-.06-.6921-.1801-.9669-.1201-.2758-.3033-.4875-.5496-.6371-.2463-.1486-.5404-.2239-.8844-.2239-.3694,0-.6788.0845-.9282.2534-.2493.1679-.4356.4-.5587.6951s-.1852.6361-.1852,1.0249c0,.3898.0631.7318.1893,1.0259.1272.2951.3175.5282.574.7002s.5781.2575.9679.2575c.401,0,.7338-.0885.9964-.2677.2626-.1781.4224-.3969.4814-.6554h.8457c-.1109.5313-.3715.9496-.7826,1.2539-.4122.3043-.9261.457-1.5409.457-.5771,0-1.0605-.1282-1.4493-.3837Z"/><path class="cls-1" d="m64.6431,101.999l-.0295.1944-1.7495-2.6451h.9913l1.2732,1.9643h.1364l1.206-1.9643h.9231l-1.6528,2.5769.0295-.1751,1.9541,2.7805h-.9913l-1.4778-2.1189h-.1364l-1.4198,2.1189h-.9231l1.8665-2.7316Z"/><path class="cls-1" d="m68.1727,99.5483h1.6915v.7104h-1.6915v-.7104Zm.5974-1.0106c-.1008-.1038-.1506-.2402-.1506-.4081,0-.1751.0499-.3145.1506-.4183s.2483-.1557.4427-.1557.343.0519.4468.1557.1557.2402.1557.4081c0,.1751-.0519.3145-.1557.4183s-.2524.1557-.4468.1557-.342-.0519-.4427-.1557Zm.1995,1.0106h.8946v5.1824h-.8946v-5.1824Z"/><path class="cls-1" d="m71.5699,104.4539c-.3725-.289-.5659-.686-.5781-1.1908h.8457c.0061.2392.115.4417.3257.6076.2107.1649.5333.2473.9669.2473.4152,0,.7358-.0804.9628-.2432.227-.1618.3399-.3725.3399-.632,0-.2198-.0824-.3918-.2473-.515-.1659-.1231-.4295-.2035-.7928-.2432l-.573-.058c-.5129-.058-.916-.2107-1.2111-.457s-.4417-.5801-.4417-1.0015c0-.3236.0835-.6045.2524-.8407.1689-.2371.4-.4183.6951-.5445s.633-.1893,1.0157-.1893c.5964,0,1.0717.1323,1.4248.3979s.5364.6453.5486,1.1378h-.8457c-.0132-.227-.115-.4112-.3063-.5547-.1903-.1425-.4651-.2137-.8213-.2137-.3501,0-.6239.0753-.8213.2239-.1974.1496-.2962.344-.2962.5832,0,.2015.0692.3613.2086.4814s.3582.1964.6564.228l.5638.059c.5771.058,1.0269.2137,1.3516.4661.3236.2534.4855.5995.4855,1.0401,0,.3114-.0906.5933-.2717.8468-.1812.2524-.4356.4488-.7633.5872-.3277.1394-.6982.2097-1.1134.2097-.6676,0-1.1877-.1445-1.5602-.4325Z"/><path class="cls-1" d="m75.8424,99.5483h3.5591v.6717h-3.5591v-.6717Zm1.7556,5.0653c-.2758-.116-.4865-.3063-.632-.5679-.1455-.2626-.2188-.6147-.2188-1.0554v-5.0266h.8559v5.1335c0,.285.0773.5038.2331.6564s.3725.228.6514.228h.9139v.8071h-.7979c-.3949,0-.7307-.058-1.0055-.1751Z"/><path class="cls-1" d="m80.8782,104.2839c-.3308-.402-.4956-.9791-.4956-1.7312v-3.0135h.8946v3.1988c0,.4142.112.7389.3348.9719.2239.2331.5272.3501.9099.3501.401,0,.7257-.1282.9719-.3837.2463-.2565.3694-.6015.3694-1.0361v-3.1011h.9038v5.1915h-.7094v-2.2167h.117c0,.7715-.1557,1.3597-.4671,1.7648s-.7715.6076-1.3801.6076h-.0397c-.6086,0-1.0788-.2005-1.4096-.6025Z"/><path class="cls-1" d="m85.3115,105.9072h.5547c.2463,0,.4356-.0672.5679-.1995.1333-.1333.1995-.3257.1995-.5781v-5.5813h.8559v5.4449c0,.4275-.058.7664-.1751,1.0157s-.3033.4295-.5587.5394c-.2565.1109-.5984.1659-1.0259.1659h-.4183v-.8071Zm.4956-6.3589h1.6823v.7104h-1.6823v-.7104Zm.5883-1.088c-.1008-.1038-.1506-.2402-.1506-.4091,0-.1751.0499-.3135.1506-.4173s.2483-.1557.4427-.1557.342.0499.4427.1506c.0997.1008.1506.2382.1506.4132,0,.1689-.0509.3063-.1506.4132-.1008.1069-.2483.1598-.4427.1598s-.342-.0509-.4427-.1547Z"/><path class="cls-1" d="m89.8232,104.522c-.3888-.2565-.6758-.5883-.861-.9974-.1842-.4081-.2768-.8417-.2768-1.3027v-.1649c0-.4661.0936-.9038.2819-1.3129.1883-.4081.4712-.7389.8508-.9913.3786-.2524.8437-.3786,1.3953-.3786.5313,0,.9831.116,1.3556.3491.3725.2341.6514.5414.8366.9241.1842.3827.2768.7969.2768,1.2447v.4081h-4.6084v-.6707h3.957l-.2046.3593c0-.3694-.06-.6921-.1791-.9669-.1201-.2758-.3033-.4875-.5496-.6371-.2463-.1486-.5414-.2239-.8844-.2239-.3694,0-.6788.0845-.9292.2534-.2493.1679-.4356.4-.5587.6951s-.1842.6361-.1842,1.0249c0,.3898.0631.7318.1893,1.0259.1262.2951.3175.5282.574.7002.2555.172.5781.2575.9669.2575.402,0,.7338-.0885.9964-.2677.2626-.1781.4234-.3969.4814-.6554h.8457c-.1099.5313-.3715.9496-.7826,1.2539s-.9251.457-1.5409.457c-.5771,0-1.0595-.1282-1.4483-.3837Z"/><path class="cls-1" d="m94.4407,104.5658c-.1038-.1109-.1557-.2463-.1557-.4091,0-.1618.0519-.2972.1557-.4081.1038-.1099.2331-.1649.3888-.1649s.285.055.3888.1649c.1038.1109.1557.2463.1557.4081,0,.1628-.0519.2982-.1557.4091-.1038.1099-.2331.1649-.3888.1649s-.285-.055-.3888-.1649Z"/><path class="cls-1" d="m97.2405,104.522c-.4213-.2565-.7389-.5903-.9526-1.0015-.2137-.4122-.3206-.8447-.3206-1.2986v-.1649c0-.4539.1099-.8865.3297-1.2976.2209-.4122.5414-.745.9628-1.0015s.9109-.3837,1.4676-.3837h4.648c.5567,0,1.0462.1272,1.4676.3837s.7419.5893.9628,1.0015c.2198.4112.3308.8437.3308,1.2976v.1649c0,.4539-.1079.8865-.3216,1.2986-.2137.4112-.5313.745-.9526,1.0015-.4213.2555-.917.3837-1.4869.3837h-4.648c-.5699,0-1.0656-.1282-1.4869-.3837Zm7.1364-.6809c.285-.172.4997-.4071.6463-.7053.1455-.2972.2188-.632.2188-1.0015s-.0763-.7022-.229-1.0004-.3705-.5323-.6564-.7002c-.285-.1689-.6117-.2534-.9811-.2534-.3766,0-.7053.0845-.9872.2534-.2819.1679-.5007.402-.6564.7002s-.2331.631-.2331,1.0004.0743.7043.2239,1.0015c.1486.2982.3654.5333.6514.7053.285.172.6188.2575,1.0015.2575.3817,0,.7155-.0855,1.0015-.2575Z"/><path class="cls-1" d="m107.2928,99.5483h.7094v2.2167h-.116c0-.7704.1598-1.3587.4814-1.7638.3206-.4051.802-.6076,1.4432-.6076h.0387c.6422,0,1.1236.2025,1.4442.6076s.4814.9933.4814,1.7638v2.9657h-.8946v-3.1601c0-.4142-.117-.743-.3501-.9862s-.5475-.3644-.9424-.3644c-.4213,0-.7603.1293-1.0167.3888-.2555.2585-.3837.5995-.3837,1.0208v3.1011h-.8946v-5.1824Z"/><path class="cls-1" d="m112.5433,97.6339h1.6233v.7094h-1.6233v-.7094Zm.7287,0h.8946v7.0967h-.8946v-7.0967Z"/><path class="cls-1" d="m115.2556,99.5483h1.6915v.7104h-1.6915v-.7104Zm.5974-1.0106c-.1008-.1038-.1506-.2402-.1506-.4081,0-.1751.0499-.3145.1506-.4183s.2483-.1557.4427-.1557.343.0519.4468.1557.1557.2402.1557.4081c0,.1751-.0519.3145-.1557.4183s-.2524.1557-.4468.1557-.342-.0519-.4427-.1557Zm.1995,1.0106h.8946v5.1824h-.8946v-5.1824Z"/><path class="cls-1" d="m118.5124,99.5483h.7094v2.2167h-.117c0-.7704.1608-1.3587.4814-1.7638s.802-.6076,1.4442-.6076h.0387c.6412,0,1.1226.2025,1.4442.6076.3206.4051.4804.9933.4804,1.7638v2.9657h-.8936v-3.1601c0-.4142-.117-.743-.3501-.9862-.2341-.2432-.5486-.3644-.9435-.3644-.4213,0-.7603.1293-1.0157.3888-.2565.2585-.3847.5995-.3847,1.0208v3.1011h-.8936v-5.1824Z"/><path class="cls-1" d="m125.2499,104.522c-.3888-.2565-.6758-.5883-.861-.9974-.1842-.4081-.2768-.8417-.2768-1.3027v-.1649c0-.4661.0936-.9038.2819-1.3129.1883-.4081.4712-.7389.8508-.9913.3786-.2524.8437-.3786,1.3953-.3786.5313,0,.9831.116,1.3556.3491.3725.2341.6514.5414.8366.9241.1842.3827.2768.7969.2768,1.2447v.4081h-4.6084v-.6707h3.957l-.2046.3593c0-.3694-.06-.6921-.1791-.9669-.1201-.2758-.3033-.4875-.5496-.6371-.2463-.1486-.5414-.2239-.8844-.2239-.3694,0-.6788.0845-.9292.2534-.2493.1679-.4356.4-.5587.6951s-.1842.6361-.1842,1.0249c0,.3898.0631.7318.1893,1.0259.1262.2951.3175.5282.574.7002.2555.172.5781.2575.9669.2575.402,0,.7338-.0885.9964-.2677.2626-.1781.4234-.3969.4814-.6554h.8457c-.1099.5313-.3715.9496-.7826,1.2539s-.9251.457-1.5409.457c-.5771,0-1.0595-.1282-1.4483-.3837Z"/></g><path class="cls-2" d="m104.3899,103.8487c.2854-.1718.501-.4068.6468-.7052.1458-.298.2188-.6321.2188-1.0016s-.0762-.7034-.2286-1.0016-.3713-.5317-.6563-.7003c-.2855-.1685-.6128-.2528-.9823-.2528-.3762,0-.705.0843-.9871.2528-.282.1686-.5008.4021-.6565.7003s-.2335.6321-.2335,1.0016.0745.7036.2237,1.0016c.1492.2983.3664.5334.6517.7052.2852.1718.619.2577,1.0016.2577s.7163-.0859,1.0016-.2577Z"/></g><g><path class="cls-1" d="m60.4594,130.77c-.2953-.1849-.6534-.2771-1.0744-.2771-.4365,0-.8048.1-1.1052.3001-.3004.2004-.5251.4623-.6739.7857-.149.3235-.2234.67-.2234,1.0398v.1308c0,.3648.0732.7085.2195,1.0322.1464.3234.3736.5865.6816.7892.3081.2029.6905.3044,1.1476.3044.4878,0,.8946-.1208,1.2207-.362.326-.2413.5326-.5725.62-.9936h-.67c-.0462.2054-.1733.3788-.3813.5199-.2079.1413-.4711.212-.7894.212-.308,0-.5635-.0681-.7663-.2042-.2029-.136-.3543-.3207-.4544-.5544-.0857-.2-.1344-.4274-.1468-.6817h3.2775v-.3234c0-.3543-.0732-.6827-.2195-.9856-.1464-.3029-.3672-.5469-.6624-.7318Zm-1.8099.5469c.1976-.1335.4429-.2002.7355-.2002.2721,0,.5057.0589.7009.1771.1951.118.3401.2861.4351.5043.0627.1441.1042.3048.1256.4813h-2.5549c.0242-.1481.0622-.2856.115-.4119.0975-.2338.2451-.4171.4428-.5507Z"/><polygon class="cls-1" points="65.2691 130.6315 64.5374 130.6315 63.5824 132.1871 63.4746 132.1871 62.4657 130.6315 61.6801 130.6315 63.026 132.6652 61.6107 134.7364 62.3425 134.7364 63.4669 133.0575 63.5747 133.0575 64.7454 134.7364 65.531 134.7364 64.0173 132.5828 65.2691 130.6315"/><polygon class="cls-1" points="65.8852 130.6315 65.8852 131.1937 66.5168 131.1937 66.5168 134.7364 67.2253 134.7364 67.2253 131.1937 67.2253 130.6315 66.5168 130.6315 65.8852 130.6315"/><path class="cls-1" d="m66.7093,129.9538c.154,0,.272-.0411.3543-.1233.082-.0822.1232-.1927.1232-.3312,0-.1333-.0412-.2413-.1232-.3234-.0822-.0819-.2003-.1233-.3543-.1233-.1541,0-.2709.0413-.3505.1233-.0797.0822-.1194.1927-.1194.3312,0,.1335.0397.2413.1194.3234.0796.0822.1964.1233.3505.1233Z"/><path class="cls-1" d="m71.1301,132.734c-.2568-.2002-.6136-.3234-1.0706-.3698l-.4467-.0461c-.2362-.0256-.4095-.0859-.5199-.1809-.1104-.0949-.1656-.2222-.1656-.3813,0-.1899.0782-.344.2349-.462.1566-.1183.3735-.1771.6508-.1771.2823,0,.4993.0564.6508.1694.1514.113.2323.2593.2426.4389h.6701c-.0103-.3901-.1554-.6905-.4351-.9012-.2799-.2105-.656-.3157-1.1283-.3157-.303,0-.5712.0501-.8048.1503-.2337.1-.4172.2438-.5507.4312-.1336.1874-.2002.4094-.2002.6662,0,.3337.1168.5983.3504.7932.2336.1952.5532.3157.9588.362l.4544.0461c.2875.0308.4968.0952.6277.1927.1309.0975.1963.2338.1963.4081,0,.2054-.0899.3723-.2695.5006-.1798.1285-.434.1927-.7625.1927-.3441,0-.5995-.0656-.7663-.1964-.1669-.131-.253-.2914-.2581-.4813h-.67c.0102.4004.1629.715.4582.9433.2952.2285.7072.3427,1.2361.3427.3285,0,.6225-.0551.8819-.1656.2592-.1102.4608-.2656.6046-.466.1437-.2002.2157-.4234.2157-.6699,0-.349-.1284-.6238-.3851-.824Z"/><path class="cls-1" d="m73.3558,129.376h-.6777v1.2555h-.7163v.5314h.7163v2.195c0,.3493.0578.6276.1733.8355.1155.208.2823.358.5006.4505.2182.0924.4839.1388.7971.1388h.6316v-.6394h-.724c-.2208,0-.3928-.0601-.516-.1809-.1232-.1205-.1848-.2939-.1848-.5199v-2.2797h1.4248v-.5314h-1.4248v-1.2555Z"/><path class="cls-1" d="m78.3156,133.0805c0,.344-.0976.6176-.2926.8203-.1952.2029-.4519.3042-.7702.3042-.303,0-.543-.0924-.7201-.2771-.1771-.1849-.2657-.4417-.2657-.7702v-2.534h-.7086v2.3877c0,.5955.1309,1.0525.3928,1.3707.2618.3184.6341.4775,1.1167.4775h.0308c.4826,0,.8472-.1603,1.0937-.4813.1232-.1604.2156-.3571.2772-.59v.948h.5622v-4.1126h-.7163v2.4568Z"/><path class="cls-1" d="m80.6724,129.8921c.154,0,.2707-.0424.3504-.127.0795-.0847.1194-.1939.1194-.3275,0-.1386-.0398-.2475-.1194-.3272-.0797-.0797-.1964-.1195-.3504-.1195s-.2709.0413-.3504.1233c-.0797.0822-.1194.1927-.1194.3312,0,.1335.0397.2413.1194.3235.0795.0822.1964.1233.3504.1233Z"/><path class="cls-1" d="m79.856,130.6315v.5622h.6546v3.8586c0,.2002-.0527.3528-.1578.4582-.1053.105-.2555.1578-.4505.1578h-.439v.6391h.3312c.3389,0,.6096-.0436.8125-.1308.2028-.0874.3504-.23.4429-.4274.0924-.1979.1387-.466.1387-.805v-4.3128h-1.3324Z"/><path class="cls-1" d="m85.2124,130.77c-.2953-.1849-.6534-.2771-1.0743-.2771-.4365,0-.8049.1-1.1052.3001-.3003.2004-.5251.4623-.6739.7857-.149.3235-.2234.67-.2234,1.0398v.1308c0,.3648.0732.7085.2195,1.0322.1464.3234.3736.5865.6816.7892.3081.2029.6905.3044,1.1476.3044.4878,0,.8946-.1208,1.2207-.362.326-.2413.5327-.5725.62-.9936h-.67c-.0462.2054-.1733.3788-.3813.5199-.2079.1413-.4711.212-.7894.212-.308,0-.5635-.0681-.7663-.2042-.2029-.136-.3543-.3207-.4544-.5544-.0857-.2-.1344-.4274-.1468-.6817h3.2775v-.3234c0-.3543-.0732-.6827-.2195-.9856-.1464-.3029-.3672-.5469-.6624-.7318Zm-1.8099.5469c.1976-.1335.4429-.2002.7355-.2002.2721,0,.5056.0589.7008.1771.1951.118.3401.2861.4351.5043.0627.1441.1043.3048.1256.4813h-2.555c.0242-.1481.0622-.2856.115-.4119.0975-.2338.2451-.4171.4428-.5507Z"/><path class="cls-1" d="m87.0031,133.8276c-.1233,0-.226.0436-.3081.131-.0822.0872-.1232.1952-.1232.3234s.041.236.1232.3234c.0821.0872.1848.1308.3081.1308.1232,0,.2259-.0436.308-.1308.082-.0874.1232-.1952.1232-.3234s-.0412-.2363-.1232-.3234c-.0822-.0874-.1848-.131-.308-.131Z"/><path class="cls-1" d="m253.3941,130.7971c-.3339-.2027-.7215-.3042-1.163-.3042H90.0913c-.4416,0-.8292.1015-1.1629.3042-.3339.2029-.588.4673-.7625.7932-.1746.3262-.2619.6689-.2619,1.0282v.1308c0,.3595.0847.7023.2542,1.0282.1694.3262.4209.5905.7548.7932.3337.2029.7264.3044,1.1783.3044h162.1398c.4518,0,.8445-.1015,1.1784-.3044.3337-.2027.5853-.467.7548-.7932.1694-.3259.2542-.6687.2542-1.0282v-.1308c0-.3593-.0874-.702-.2619-1.0282-.1746-.3259-.4287-.5903-.7625-.7932Zm.1425,2.6763c-.1156.2363-.2863.4224-.5122.5584-.226.136-.4904.2039-.7933.2039s-.5674-.0679-.7933-.2039c-.226-.136-.3979-.3222-.516-.5584-.1182-.236-.1771-.5006-.1771-.7932s.0616-.5572.1848-.7932c.1232-.2363.2965-.4211.5199-.5547.2233-.1333.4839-.2002.7817-.2002.2927,0,.5519.0669.7779.2002.2259.1335.3992.3184.5199.5547.1206.236.1809.5006.1809.7932s-.0578.5572-.1733.7932Z"/><path class="cls-2" d="m253.5366,133.4734c-.1156.2363-.2863.4224-.5122.5584-.226.136-.4904.2039-.7933.2039s-.5674-.0679-.7933-.2039c-.226-.136-.3979-.3222-.516-.5584-.1182-.236-.1771-.5006-.1771-.7932s.0616-.5572.1848-.7932c.1232-.2363.2965-.4211.5199-.5547.2233-.1333.4839-.2002.7817-.2002.2927,0,.5519.0669.7779.2002.2259.1335.3992.3184.5199.5547.1206.236.1809.5006.1809.7932s-.0578.5572-.1733.7932Z"/><path class="cls-1" d="m257.3604,130.5082h-.0308c-.5084,0-.8896.1606-1.1437.4813-.1293.1633-.2253.3645-.2888.6028v-.9608h-.5622v4.1049h.7086v-2.4568c0-.3337.1013-.6033.3042-.8085.2028-.2054.471-.3082.8048-.3082.3131,0,.5623.0962.7471.2889.1849.1924.2773.4532.2773.7817v2.5029h.7085v-2.3488c0-.6111-.1271-1.0771-.3812-1.398-.2542-.3207-.6354-.4813-1.1437-.4813Z"/><polygon class="cls-1" points="259.4938 129.1142 259.4938 129.6764 260.0714 129.6764 260.0714 134.7364 260.7799 134.7364 260.7799 129.6764 260.7799 129.1142 260.0714 129.1142 259.4938 129.1142"/><path class="cls-1" d="m262.4666,129.9538c.154,0,.2721-.0411.3543-.1233.0821-.0822.1232-.1927.1232-.3312,0-.1333-.0412-.2413-.1232-.3234-.0822-.0819-.2002-.1233-.3543-.1233s-.2709.0413-.3504.1233c-.0796.0822-.1194.1927-.1194.3312,0,.1335.0398.2413.1194.3234.0795.0822.1964.1233.3504.1233Z"/><polygon class="cls-1" points="261.6425 130.6315 261.6425 131.1937 262.2741 131.1937 262.2741 134.7364 262.9826 134.7364 262.9826 131.1937 262.9826 130.6315 262.2741 130.6315 261.6425 130.6315"/><path class="cls-1" d="m266.2482,130.5082h-.0308c-.5083,0-.8896.1606-1.1437.4813-.1293.1632-.2253.3644-.2888.6027v-.9607h-.5622v4.1049h.7086v-2.4568c0-.3337.1013-.6033.3042-.8085.2028-.2054.471-.3082.8048-.3082.3131,0,.5622.0962.7471.2889.1848.1924.2773.4532.2773.7817v2.5029h.7085v-2.3488c0-.6111-.1271-1.0771-.3813-1.398-.2541-.3207-.6354-.4813-1.1437-.4813Z"/><path class="cls-1" d="m272.6174,132.4875c0-.3543-.0732-.6827-.2195-.9856-.1464-.3029-.3672-.5469-.6624-.7318-.2953-.1849-.6534-.2771-1.0743-.2771-.4365,0-.8049.1-1.1052.3001-.3003.2004-.5251.4623-.6739.7857-.149.3235-.2234.67-.2234,1.0398v.1308c0,.3648.0732.7085.2195,1.0322.1464.3234.3736.5865.6816.7892.3081.2029.6905.3044,1.1476.3044.4878,0,.8946-.1208,1.2207-.362.326-.2413.5327-.5725.62-.9936h-.67c-.0462.2054-.1733.3788-.3813.5199-.2079.1413-.4711.212-.7894.212-.308,0-.5635-.0681-.7663-.2042-.2029-.136-.3543-.3207-.4544-.5544-.0857-.2-.1344-.4274-.1468-.6817h3.2775v-.3234Zm-2.6917-1.1705c.1976-.1335.4429-.2002.7355-.2002.2721,0,.5056.0589.7008.1771.195.118.3401.2861.4351.5043.0627.1441.1043.3048.1256.4813h-2.555c.0242-.1481.0622-.2856.115-.4119.0975-.2338.2451-.4171.4428-.5507Z"/></g></svg>