<?xml version="1.0" encoding="UTF-8"?><svg id="Vrstva_1" xmlns="http://www.w3.org/2000/svg" viewBox="0 0 330 282.0792"><defs><style>.cls-1{fill:#fff;}.cls-2{fill:#b700ff;}</style></defs><rect x="50.0765" y="50.1103" width="115.3954" height="115.3954"/><rect x="177.3306" y="50.1103" width="102.5929" height="181.8964"/><rect x="50.0765" y="177.1773" width="115.3954" height="54.8294"/><g><g><path class="cls-1" d="m53.4898,184.9917h4.3691v.7148h-4.3691v-.7148Zm1.7725-1.9307h.8135v2.2441h-.8135v-2.2441Zm0,3.4785h.8135v5.6338h-.8135v-5.6338Z"/><path class="cls-1" d="m60.2115,184.9917h.7148v2.2529l-.1758-.0098c.0254-.5352.1416-.9824.3477-1.3418s.4736-.6289.8037-.8086c.3291-.1797.7002-.2695,1.1113-.2695.4902,0,.9277.1221,1.3135.3672.3848.2451.6826.5732.8916.9854.209.4111.3135.8613.3135,1.3516v.167c0,.4893-.1094.9404-.3281,1.3516-.2197.4111-.5215.7402-.9062.9844-.3857.2451-.8203.3682-1.3037.3682-.3984,0-.7656-.0869-1.1016-.2598-.3369-.1729-.6143-.4463-.833-.8184s-.3379-.8389-.3574-1.4014l.4111.7744v3.4883h-.9014v-7.1816Zm3.5762,4.3496c.2676-.1699.4736-.4053.6172-.7051.1436-.3008.2158-.6465.2158-1.0391,0-.3848-.0723-.7275-.2158-1.0283s-.3496-.5352-.6172-.7051-.5781-.2549-.9307-.2549c-.3271,0-.626.0732-.8965.2197-.2715.1475-.4863.3564-.6465.6279-.1602.2705-.2402.5859-.2402.9453v.4502c0,.3525.0811.6611.2451.9258.1631.2646.3799.4678.6514.6074.2705.1406.5664.2109.8867.2109.3525,0,.6631-.085.9307-.2549Z"/><path class="cls-1" d="m67.5787,190.0317c-.3916-.2383-.6973-.5645-.916-.9795s-.3281-.8701-.3281-1.3662v-.167c0-.4961.1055-.9502.3184-1.3613.2119-.4121.5127-.7383.9014-.9805.3887-.2412.8281-.3623,1.3174-.3623.418,0,.79.0879,1.1172.2646.3262.1768.5908.4424.7939.7988.2021.3555.3164.8018.3428,1.3369l-.3828-.627v-3.5273h.9014v7.1523h-.7148v-2.3223h.2646c-.0195.5684-.1377,1.0391-.3525,1.4111-.2158.3721-.4902.6465-.8232.8232-.333.1758-.7051.2646-1.1172.2646-.4893,0-.9307-.1201-1.3223-.3584Zm2.332-.6611c.2676-.1504.4795-.3623.6367-.6367.1562-.2744.2354-.5908.2354-.9502v-.4609c0-.3457-.0801-.6494-.2402-.9111-.1602-.2607-.376-.46-.6465-.5977-.2715-.1367-.5674-.2051-.8867-.2051-.3535,0-.6631.083-.9307.25-.2686.166-.4756.3994-.623.7002-.1465.3008-.2197.6465-.2197,1.0381,0,.3984.0752.75.2246,1.0537.1504.3037.3613.5371.6328.7002.2705.1631.5791.2451.9258.2451.3262,0,.623-.0752.8916-.2256Z"/><path class="cls-1" d="m72.6441,185.0503h3.2725v.6758h-3.2725v-.6758Zm1.1855-1.6172c.3008-.2734.748-.4111,1.3418-.4111h.6475v.7549h-.8037c-.248,0-.4375.0684-.5684.2051-.1309.1377-.1963.3271-.1963.5684v5.6631h-.8721v-5.5156c0-.5684.1504-.9902.4512-1.2646Z"/><path class="cls-1" d="m78.7379,184.9917h.7148v2.2334h-.1172c0-.7637.1523-1.3535.4561-1.7686.3037-.4141.7588-.6221,1.3662-.6221h.0391c.6074,0,1.0635.208,1.3672.6221.3037.415.4551,1.0049.4551,1.7686h-.2744c0-.7637.1553-1.3535.4658-1.7686.3096-.4141.7686-.6221,1.376-.6221h.04c.6074,0,1.0654.208,1.376.6221.3105.415.4658,1.0049.4658,1.7686v2.9883h-.9014v-3.1943c0-.4238-.1064-.7559-.3184-.9941-.2129-.2383-.5078-.3574-.8867-.3574-.3984,0-.7158.126-.9502.377-.2354.252-.3535.5967-.3535,1.0342v3.1348h-.9111v-3.1943c0-.4238-.1055-.7559-.3184-.9941-.2119-.2383-.5078-.3574-.8867-.3574-.3984,0-.7148.126-.9502.377-.2354.252-.3525.5967-.3525,1.0342v3.1348h-.9014v-5.2217Z"/><path class="cls-1" d="m88.0396,189.9048c-.3359-.2969-.5039-.7139-.5039-1.249,0-.542.1826-.957.5479-1.2441.3662-.2881.8887-.4316,1.5684-.4316h1.4395v.6768h-1.4795c-.3789,0-.6729.0908-.8809.2734-.21.1836-.3145.4248-.3145.7256s.1045.5391.3145.7148c.208.1768.502.2646.8809.2646s.6992-.1064.9609-.3184c.2607-.2119.4014-.5566.4209-1.0332l.2549.3525c-.0527.5684-.2324.9961-.5391,1.2832s-.7344.4307-1.2832.4307c-.5879,0-1.0498-.1484-1.3867-.4453Zm3.1113-1.2588h-.1572v-1.8125c0-.3662-.0947-.6416-.2842-.8281s-.4668-.2793-.833-.2793c-.5938,0-1.1719.0195-1.7334.0586v-.793c.4238-.0391.9014-.0596,1.4297-.0596.8105,0,1.3945.1504,1.7539.4512s.5391.8066.5391,1.5186v3.3115h-.7148v-1.5674Z"/><path class="cls-1" d="m93.3844,184.9917h.7148v2.2334h-.1172c0-.7773.1621-1.3701.4854-1.7783s.8076-.6123,1.4541-.6123h.04c.6465,0,1.1309.2041,1.4541.6123.3242.4082.4854,1.001.4854,1.7783v2.9883h-.9014v-3.1846c0-.418-.1172-.749-.3525-.9941s-.5518-.3672-.9502-.3672c-.4248,0-.7666.1309-1.0244.3916-.2578.2617-.3867.6045-.3867,1.0293v3.125h-.9014v-5.2217Z"/><path class="cls-1" d="m99.8014,189.7632c-.333-.4053-.499-.9863-.499-1.7441v-3.0371h.9014v3.2227c0,.418.1123.7451.3379.9805.2256.2344.5303.3525.916.3525.4043,0,.7314-.1289.9795-.3877.248-.2578.3721-.6055.3721-1.043v-3.125h.9111v5.2314h-.7148v-2.2334h.1172c0,.7773-.1562,1.3701-.4697,1.7773-.3135.4092-.7773.6133-1.3916.6133h-.0391c-.6143,0-1.0879-.2031-1.4209-.6074Z"/><path class="cls-1" d="m105.3912,189.9048c-.3359-.2969-.5039-.7139-.5039-1.249,0-.542.1826-.957.5479-1.2441.3662-.2881.8887-.4316,1.5684-.4316h1.4395v.6768h-1.4795c-.3789,0-.6729.0908-.8809.2734-.21.1836-.3145.4248-.3145.7256s.1045.5391.3145.7148c.208.1768.502.2646.8809.2646s.6992-.1064.9609-.3184c.2607-.2119.4014-.5566.4209-1.0332l.2549.3525c-.0527.5684-.2324.9961-.5391,1.2832s-.7344.4307-1.2832.4307c-.5879,0-1.0498-.1484-1.3867-.4453Zm3.1113-1.2588h-.1572v-1.8125c0-.3662-.0947-.6416-.2842-.8281s-.4668-.2793-.833-.2793c-.5938,0-1.1719.0195-1.7334.0586v-.793c.4238-.0391.9014-.0596,1.4297-.0596.8105,0,1.3945.1504,1.7539.4512s.5391.8066.5391,1.5186v3.3115h-.7148v-1.5674Zm-.9512-6.3584h.9512l-1.0781,1.9297h-.7344l.8613-1.9297Z"/><path class="cls-1" d="m110.0601,183.061h1.6357v.7158h-1.6357v-.7158Zm.7344,0h.9014v7.1523h-.9014v-7.1523Z"/><path class="cls-1" d="m52.9898,203.1558h.5586c.248,0,.4395-.0674.5732-.2012s.2002-.3281.2002-.583v-5.623h.8623v5.4863c0,.4307-.0586.7725-.1758,1.0234-.1182.252-.3057.4326-.5635.5439-.2588.1113-.6025.167-1.0342.167h-.4209v-.8135Zm.5-6.4072h1.6943v.7148h-1.6943v-.7148Zm.5928-1.0977c-.1016-.1045-.1523-.2412-.1523-.4111,0-.1768.0508-.3174.1523-.4219.1006-.1045.249-.1562.4453-.1562s.3447.0508.4463.1514c.1006.1016.1514.2402.1514.417,0,.1699-.0508.3086-.1514.416-.1016.1074-.25.1621-.4463.1621s-.3447-.0527-.4453-.1572Z"/><path class="cls-1" d="m57.5357,201.7593c-.3926-.2578-.6816-.5928-.8672-1.0039-.1865-.4111-.2793-.8486-.2793-1.3125v-.167c0-.4707.0947-.9111.2842-1.3223.1895-.4121.4746-.7451.8574-1,.3818-.2549.8506-.3818,1.4053-.3818.5361,0,.9912.1172,1.3672.3525.375.2354.6562.5459.8428.9307.1855.3857.2783.8037.2783,1.2539v.4121h-4.6436v-.6758h3.9873l-.2051.3623c0-.3721-.0605-.6973-.1816-.9746-.1211-.2783-.3057-.4922-.5537-.6426-.248-.1494-.5449-.2246-.8916-.2246-.3721,0-.6846.085-.9355.2549s-.4395.4033-.5635.7002-.1855.6416-.1855,1.0332c0,.3926.0635.7363.1904,1.0342.1279.2969.3203.5322.5781.7051s.583.2598.9746.2598c.4053,0,.7402-.0898,1.0049-.2695s.4258-.4004.4844-.6611h.8525c-.1113.5352-.374.957-.7881,1.2637-.415.3066-.9326.4609-1.5537.4609-.5811,0-1.0674-.1299-1.459-.3877Z"/><path class="cls-1" d="m64.5601,196.7485h.7148v2.2334h-.1172c0-.7637.1523-1.3535.4561-1.7686.3037-.4141.7588-.6221,1.3662-.6221h.0391c.6074,0,1.0635.208,1.3672.6221.3037.415.4551,1.0049.4551,1.7686h-.2744c0-.7637.1553-1.3535.4658-1.7686.3096-.4141.7686-.6221,1.376-.6221h.04c.6074,0,1.0654.208,1.376.6221.3105.415.4658,1.0049.4658,1.7686v2.9883h-.9014v-3.1943c0-.4238-.1064-.7559-.3184-.9941-.2129-.2383-.5078-.3574-.8867-.3574-.3984,0-.7158.126-.9502.377-.2354.252-.3535.5967-.3535,1.0342v3.1348h-.9111v-3.1943c0-.4238-.1055-.7559-.3184-.9941-.2119-.2383-.5078-.3574-.8867-.3574-.3984,0-.7148.126-.9502.377-.2354.252-.3525.5967-.3525,1.0342v3.1348h-.9014v-5.2217Z"/><path class="cls-1" d="m73.8092,196.7485h.7148v2.1553h-.0391c0-.7578.167-1.3164.5-1.6758s.8428-.5391,1.5283-.5391h.167v.8135h-.3242c-.5283,0-.9355.1387-1.2197.417-.2842.2773-.4258.6836-.4258,1.2197v2.8311h-.9014v-5.2217Z"/><path class="cls-1" d="m76.9146,196.7485h3.5859v.6758h-3.5859v-.6758Zm1.7686,5.1045c-.2773-.1182-.4893-.3086-.6367-.5732-.1465-.2646-.2207-.6191-.2207-1.0635v-5.0654h.8623v5.1738c0,.2871.0791.5078.2354.6611.1572.1533.376.2295.6562.2295h.9209v.8135h-.8027c-.3984,0-.7363-.0586-1.0146-.1758Z"/><path class="cls-1" d="m80.9605,196.7485h.9404l1.7539,5.2217h-.9014l-1.793-5.2217Zm2.0186,4.5068h1.0967v.7148h-1.0967v-.7148Zm1.9688-4.5068h.8818l-1.5576,5.2217h-.8525l1.5283-5.2217Z"/><path class="cls-1" d="m86.1344,196.7485h.9209l1.793,5.1045h-.8428l-1.8711-5.1045Zm.3525,6.4463h.7344c.3398,0,.6025-.0654.7891-.1963.1855-.1299.3281-.3623.4258-.6953l1.666-5.5547h.8818l-1.7539,5.79c-.1045.3457-.252.625-.4414.8379-.1895.2119-.418.3701-.6855.4746s-.5781.1572-.9307.1572h-.6855v-.8135Zm1.6162-2.0967h1.0977v.7549h-1.0977v-.7549Zm.8916-7.0537h.9502l-1.0771,1.9297h-.7354l.8623-1.9297Z"/><path class="cls-1" d="m91.4146,201.8032c-.1045-.1104-.1562-.248-.1562-.4111s.0518-.2998.1562-.4111.2354-.167.3926-.167c.1562,0,.2871.0557.3916.167s.1572.248.1572.4111-.0527.3008-.1572.4111c-.1045.1113-.2354.167-.3916.167-.1572,0-.2881-.0557-.3926-.167Zm2.5479,0c-.1045-.1104-.1572-.248-.1572-.4111s.0527-.2998.1572-.4111.2354-.167.3916-.167c.1572,0,.2871.0557.3916.167s.1572.248.1572.4111-.0527.3008-.1572.4111c-.1045.1113-.2344.167-.3916.167-.1562,0-.2871-.0557-.3916-.167Zm2.5371,0c-.1045-.1104-.1562-.248-.1562-.4111s.0518-.2998.1562-.4111.2354-.167.3926-.167c.1562,0,.2871.0557.3916.167s.1562.248.1562.4111-.0518.3008-.1562.4111c-.1045.1113-.2354.167-.3916.167-.1572,0-.2881-.0557-.3926-.167Z"/><path class="cls-1" d="m54.6754,213.5161c-.3926-.2578-.6816-.5928-.8672-1.0039-.1865-.4111-.2793-.8486-.2793-1.3125v-.167c0-.4707.0947-.9111.2842-1.3223.1895-.4121.4746-.7451.8574-1,.3818-.2549.8506-.3818,1.4053-.3818.5361,0,.9912.1172,1.3672.3525.375.2354.6562.5459.8428.9307.1855.3857.2783.8037.2783,1.2539v.4121h-4.6436v-.6758h3.9873l-.2051.3623c0-.3721-.0605-.6973-.1816-.9746-.1211-.2783-.3057-.4922-.5537-.6426-.248-.1494-.5449-.2246-.8916-.2246-.3721,0-.6846.085-.9355.2549s-.4395.4033-.5635.7002-.1855.6416-.1855,1.0332c0,.3926.0635.7363.1904,1.0342.1279.2969.3203.5322.5781.7051s.583.2598.9746.2598c.4053,0,.7402-.0898,1.0049-.2695s.4258-.4004.4844-.6611h.8525c-.1113.5352-.374.957-.7881,1.2637-.415.3066-.9326.4609-1.5537.4609-.5811,0-1.0674-.1299-1.459-.3877Z"/><path class="cls-1" d="m60.7887,210.9741l-.0293.1963-1.7637-2.665h1l1.2832,1.9785h.1367l1.2148-1.9785h.9307l-1.665,2.5957.0293-.1758,1.9697,2.8018h-1l-1.4893-2.1357h-.1367l-1.4307,2.1357h-.9307l1.8809-2.7529Z"/><path class="cls-1" d="m64.3443,208.5054h1.7051v.7148h-1.7051v-.7148Zm.6025-1.0195c-.1016-.1045-.1514-.2412-.1514-.4111,0-.1768.0498-.3164.1514-.4219.1016-.1035.25-.1562.4463-.1562.1953,0,.3457.0527.4502.1562.1045.1055.1572.2422.1572.4121,0,.1758-.0527.3164-.1572.4209s-.2549.1572-.4502.1572c-.1963,0-.3447-.0527-.4463-.1572Zm.2012,1.0195h.9014v5.2217h-.9014v-5.2217Z"/><path class="cls-1" d="m67.7691,213.4477c-.375-.29-.5693-.6904-.583-1.2002h.8525c.0068.2422.1162.4463.3281.6123.2129.167.5371.25.9756.25.418,0,.7412-.082.9697-.2451s.3428-.375.3428-.6367c0-.2217-.083-.3955-.25-.5195-.166-.124-.4326-.2051-.7979-.2451l-.5781-.0586c-.5166-.0586-.9229-.2119-1.2197-.46-.2979-.248-.4463-.585-.4463-1.0098,0-.3262.085-.6084.2549-.8467s.4033-.4219.7002-.5488c.2979-.1279.6387-.1914,1.0244-.1914.6006,0,1.0791.1338,1.4346.4014.3564.2686.541.6504.5537,1.1465h-.8525c-.0127-.2285-.1152-.4141-.3086-.5586-.1924-.1436-.4688-.2148-.8271-.2148-.3535,0-.6289.0752-.8281.2246-.1992.1504-.2988.3467-.2988.5879,0,.2031.0703.3643.2109.4854.1396.1211.3604.1973.6611.2305l.5684.0586c.5811.0586,1.0352.2158,1.3613.4707.3271.2539.4902.6035.4902,1.0479,0,.3135-.0918.5977-.2744.8525s-.4395.4521-.7695.5928c-.3291.1406-.7031.2109-1.1211.2109-.6729,0-1.1973-.1455-1.5732-.4365Z"/><path class="cls-1" d="m72.0748,208.5054h3.5859v.6758h-3.5859v-.6758Zm1.7686,5.1045c-.2773-.1182-.4893-.3086-.6367-.5732-.1465-.2646-.2207-.6191-.2207-1.0635v-5.0654h.8623v5.1738c0,.2871.0791.5078.2354.6611.1572.1533.376.2295.6562.2295h.9209v.8135h-.8027c-.3984,0-.7363-.0586-1.0146-.1758Z"/><path class="cls-1" d="m77.15,213.2769c-.333-.4053-.499-.9863-.499-1.7441v-3.0371h.9014v3.2227c0,.418.1123.7451.3379.9805.2256.2344.5303.3525.916.3525.4043,0,.7314-.1289.9795-.3877.248-.2578.3721-.6055.3721-1.043v-3.125h.9111v5.2314h-.7148v-2.2334h.1172c0,.7773-.1562,1.3701-.4697,1.7773-.3135.4092-.7773.6133-1.3916.6133h-.0391c-.6143,0-1.0879-.2031-1.4209-.6074Z"/><path class="cls-1" d="m81.6178,214.9126h.5586c.248,0,.4395-.0674.5732-.2012s.2002-.3281.2002-.583v-5.623h.8623v5.4863c0,.4307-.0586.7725-.1758,1.0234-.1182.252-.3057.4326-.5635.5439-.2588.1113-.6025.167-1.0342.167h-.4209v-.8135Zm.5-6.4072h1.6943v.7148h-1.6943v-.7148Zm.5928-1.0977c-.1016-.1045-.1523-.2412-.1523-.4111,0-.1768.0508-.3174.1523-.4219.1006-.1045.249-.1562.4453-.1562s.3447.0508.4463.1514c.1006.1016.1514.2402.1514.417,0,.1699-.0508.3086-.1514.416-.1016.1074-.25.1621-.4463.1621s-.3447-.0527-.4453-.1572Z"/><path class="cls-1" d="m86.1637,213.5161c-.3926-.2578-.6816-.5928-.8672-1.0039-.1865-.4111-.2793-.8486-.2793-1.3125v-.167c0-.4707.0947-.9111.2842-1.3223.1895-.4121.4746-.7451.8574-1,.3818-.2549.8506-.3818,1.4053-.3818.5361,0,.9912.1172,1.3672.3525.375.2354.6562.5459.8428.9307.1855.3857.2783.8037.2783,1.2539v.4121h-4.6436v-.6758h3.9873l-.2051.3623c0-.3721-.0605-.6973-.1816-.9746-.1211-.2783-.3057-.4922-.5537-.6426-.248-.1494-.5449-.2246-.8916-.2246-.3721,0-.6846.085-.9355.2549s-.4395.4033-.5635.7002-.1855.6416-.1855,1.0332c0,.3926.0635.7363.1904,1.0342.1279.2969.3203.5322.5781.7051s.583.2598.9746.2598c.4053,0,.7402-.0898,1.0049-.2695s.4258-.4004.4844-.6611h.8525c-.1113.5352-.374.957-.7881,1.2637-.415.3066-.9326.4609-1.5537.4609-.5811,0-1.0674-.1299-1.459-.3877Z"/><path class="cls-1" d="m90.817,213.5601c-.1045-.1104-.1562-.248-.1562-.4111s.0518-.2998.1562-.4111.2354-.167.3916-.167c.1572,0,.2881.0557.3926.167s.1562.248.1562.4111-.0518.3008-.1562.4111c-.1045.1113-.2354.167-.3926.167-.1562,0-.2871-.0557-.3916-.167Z"/><path class="cls-1" d="m93.6383,213.5161c-.4248-.2578-.7441-.5938-.96-1.0088s-.3232-.8506-.3232-1.3076v-.167c0-.457.1104-.8926.333-1.3076.2217-.415.5449-.751.9697-1.0098.4248-.2578.918-.3867,1.4795-.3867h4.6836c.5615,0,1.0547.1289,1.4785.3867.4248.2588.748.5947.9707,1.0098.2217.415.333.8506.333,1.3076v.167c0,.457-.1084.8926-.3232,1.3076-.2158.415-.5361.751-.96,1.0088-.4248.2578-.9248.3877-1.499.3877h-4.6836c-.5752,0-1.0742-.1299-1.499-.3877Zm7.1914-.6855c.2871-.1729.5049-.4102.6514-.71.1475-.3008.2207-.6367.2207-1.0098,0-.3721-.0771-.708-.2305-1.0088s-.374-.5352-.6611-.7051c-.2881-.1699-.6172-.2549-.9893-.2549-.3789,0-.7109.085-.9951.2549s-.5039.4043-.6611.7051c-.1562.3008-.2354.6367-.2354,1.0088,0,.373.0752.709.2256,1.0098.1504.2998.3691.5371.6562.71s.624.2598,1.0098.2598c.3848,0,.7217-.0869,1.0088-.2598Z"/><path class="cls-1" d="m103.7691,208.5054h.7148v2.2334h-.1172c0-.7773.1621-1.3701.4854-1.7783s.8076-.6123,1.4541-.6123h.04c.6465,0,1.1309.2041,1.4541.6123.3242.4082.4854,1.001.4854,1.7783v2.9883h-.9014v-3.1846c0-.418-.1172-.749-.3525-.9941s-.5518-.3672-.9502-.3672c-.4248,0-.7666.1309-1.0244.3916-.2578.2617-.3867.6045-.3867,1.0293v3.125h-.9014v-5.2217Z"/><path class="cls-1" d="m109.0601,206.5747h1.6357v.7158h-1.6357v-.7158Zm.7344,0h.9014v7.1523h-.9014v-7.1523Z"/><path class="cls-1" d="m111.7926,208.5054h1.7051v.7148h-1.7051v-.7148Zm.6025-1.0195c-.1016-.1045-.1514-.2412-.1514-.4111,0-.1768.0498-.3164.1514-.4219.1016-.1035.25-.1562.4463-.1562.1953,0,.3457.0527.4502.1562.1045.1055.1572.2422.1572.4121,0,.1758-.0527.3164-.1572.4209s-.2549.1572-.4502.1572c-.1963,0-.3447-.0527-.4463-.1572Zm.2012,1.0195h.9014v5.2217h-.9014v-5.2217Z"/><path class="cls-1" d="m115.0748,208.5054h.7148v2.2334h-.1172c0-.7773.1621-1.3701.4854-1.7783s.8076-.6123,1.4541-.6123h.04c.6465,0,1.1309.2041,1.4541.6123.3242.4082.4854,1.001.4854,1.7783v2.9883h-.9014v-3.1846c0-.418-.1172-.749-.3525-.9941s-.5518-.3672-.9502-.3672c-.4248,0-.7666.1309-1.0244.3916-.2578.2617-.3867.6045-.3867,1.0293v3.125h-.9014v-5.2217Z"/><path class="cls-1" d="m121.8648,213.5161c-.3926-.2578-.6816-.5928-.8672-1.0039-.1865-.4111-.2793-.8486-.2793-1.3125v-.167c0-.4707.0947-.9111.2842-1.3223.1895-.4121.4746-.7451.8574-1,.3818-.2549.8506-.3818,1.4053-.3818.5361,0,.9912.1172,1.3672.3525.375.2354.6562.5459.8428.9307.1855.3857.2783.8037.2783,1.2539v.4121h-4.6436v-.6758h3.9873l-.2051.3623c0-.3721-.0605-.6973-.1816-.9746-.1211-.2783-.3057-.4922-.5537-.6426-.248-.1494-.5449-.2246-.8916-.2246-.3721,0-.6846.085-.9355.2549s-.4395.4033-.5635.7002-.1855.6416-.1855,1.0332c0,.3926.0635.7363.1904,1.0342.1279.2969.3203.5322.5781.7051s.583.2598.9746.2598c.4053,0,.7402-.0898,1.0049-.2695s.4258-.4004.4844-.6611h.8525c-.1113.5352-.374.957-.7881,1.2637-.415.3066-.9326.4609-1.5537.4609-.5811,0-1.0674-.1299-1.459-.3877Z"/></g><path class="cls-2" d="m100.8301,212.8316c.2875-.1731.5047-.4099.6516-.7104.1469-.3002.2204-.6368.2204-1.0091s-.0768-.7087-.2303-1.0091-.374-.5356-.6612-.7055c-.2876-.1697-.6174-.2547-.9896-.2547-.379,0-.7103.0849-.9944.2547-.2841.1699-.5045.4051-.6613.7055s-.2352.6368-.2352,1.0091.0751.7088.2253,1.0091c.1503.3006.3691.5374.6566.7104.2873.1731.6236.2596,1.0091.2596s.7216-.0865,1.0091-.2596Z"/></g><g><path class="cls-1" d="m57.0311,156.9045c-.1976-.1237-.4372-.1854-.7189-.1854-.2921,0-.5385.0669-.7395.2008-.201.1341-.3513.3093-.4509.5257-.0997.2164-.1495.4483-.1495.6957v.0875c0,.2441.049.4741.1469.6907.098.2164.25.3925.4561.5281.2062.1358.4621.2037.7679.2037.3264,0,.5986-.0808.8168-.2423.2182-.1614.3564-.3831.4149-.6649h-.4483c-.0309.1375-.116.2535-.2551.3479-.1391.0946-.3152.1418-.5282.1418-.2061,0-.3771-.0456-.5128-.1366-.1358-.091-.2371-.2146-.3041-.371-.0573-.1338-.0899-.286-.0982-.4562h2.1931v-.2164c0-.2371-.049-.4568-.1469-.6595-.098-.2027-.2457-.366-.4432-.4897Zm-1.2111.366c.1322-.0894.2963-.1339.4921-.1339.1821,0,.3384.0394.469.1185.1305.079.2276.1915.2912.3375.0419.0964.0698.2039.084.3221h-1.7096c.0162-.0991.0416-.1911.077-.2756.0652-.1564.164-.2791.2963-.3685Z"/><polygon class="cls-1" points="60.2495 156.8118 59.7599 156.8118 59.1209 157.8527 59.0487 157.8527 58.3736 156.8118 57.8479 156.8118 58.7485 158.1726 57.8015 159.5585 58.2911 159.5585 59.0436 158.4351 59.1157 158.4351 59.899 159.5585 60.4247 159.5585 59.4118 158.1175 60.2495 156.8118"/><polygon class="cls-1" points="60.6618 156.8118 60.6618 157.188 61.0844 157.188 61.0844 159.5585 61.5585 159.5585 61.5585 157.188 61.5585 156.8118 61.0844 156.8118 60.6618 156.8118"/><path class="cls-1" d="m61.2132,156.3583c.103,0,.182-.0275.2371-.0825.0549-.055.0824-.1289.0824-.2216,0-.0892-.0275-.1614-.0824-.2164-.055-.0548-.134-.0825-.2371-.0825-.1031,0-.1813.0277-.2345.0825-.0533.055-.0799.1289-.0799.2216,0,.0894.0266.1614.0799.2164.0532.055.1314.0825.2345.0825Z"/><path class="cls-1" d="m64.1713,158.2187c-.1718-.134-.4106-.2164-.7164-.2474l-.2989-.0308c-.158-.0171-.274-.0575-.3479-.121-.0739-.0635-.1108-.1487-.1108-.2552,0-.1271.0523-.2302.1572-.3091.1048-.0791.25-.1185.4355-.1185.1889,0,.3341.0377.4355.1133.1013.0756.1554.1735.1623.2937h.4484c-.0069-.261-.104-.462-.2912-.603-.1873-.1408-.4389-.2112-.755-.2112-.2028,0-.3822.0335-.5385.1006-.1564.0669-.2792.1631-.3685.2885-.0894.1254-.134.2739-.134.4458,0,.2233.0781.4003.2345.5308.1563.1306.3702.2112.6416.2423l.3041.0308c.1924.0206.3324.0637.42.1289.0876.0652.1314.1564.1314.2731,0,.1375-.0601.2491-.1803.335-.1203.086-.2904.1289-.5102.1289-.2302,0-.4012-.0439-.5128-.1314-.1117-.0877-.1693-.195-.1727-.3221h-.4483c.0068.2679.109.4785.3066.6312.1975.1529.4732.2293.8271.2293.2198,0,.4165-.0369.5901-.1108.1734-.0738.3083-.1777.4045-.3118.0961-.134.1443-.2833.1443-.4483,0-.2335-.0859-.4174-.2577-.5514Z"/><path class="cls-1" d="m65.6606,155.9717h-.4535v.8401h-.4793v.3556h.4793v1.4688c0,.2337.0386.42.1159.5591.0773.1392.1889.2396.335.3014.146.0619.3238.0929.5334.0929h.4226v-.4278h-.4844c-.1477,0-.2628-.0402-.3453-.121-.0824-.0806-.1237-.1966-.1237-.3479v-1.5254h.9534v-.3556h-.9534v-.8401Z"/><path class="cls-1" d="m68.9794,158.4505c0,.2302-.0653.4133-.1958.5489-.1306.1358-.3024.2035-.5154.2035-.2028,0-.3633-.0619-.4819-.1854-.1185-.1237-.1778-.2956-.1778-.5154v-1.6956h-.4741v1.5977c0,.3985.0876.7043.2628.9172.1752.2131.4243.3195.7473.3195h.0206c.3229,0,.5669-.1073.7318-.322.0824-.1074.1443-.2389.1855-.3948v.6343h.3762v-2.7519h-.4793v1.6439Z"/><path class="cls-1" d="m70.5565,156.3171c.1031,0,.1811-.0283.2345-.085.0532-.0567.0799-.1298.0799-.2191,0-.0927-.0267-.1656-.0799-.2189-.0533-.0533-.1314-.08-.2345-.08s-.1813.0277-.2345.0825c-.0533.055-.0799.1289-.0799.2216,0,.0894.0266.1614.0799.2164.0532.055.1314.0825.2345.0825Z"/><path class="cls-1" d="m70.0102,156.8118v.3762h.438v2.5819c0,.134-.0352.2361-.1056.3066-.0704.0702-.171.1056-.3015.1056h-.2938v.4277h.2216c.2268,0,.4079-.0292.5437-.0875.1357-.0585.2345-.1539.2963-.286.0619-.1324.0928-.3118.0928-.5387v-2.8859h-.8916Z"/><path class="cls-1" d="m73.5944,156.9045c-.1976-.1237-.4372-.1854-.7189-.1854-.2921,0-.5386.0669-.7396.2008-.201.1341-.3513.3093-.4509.5257-.0997.2164-.1495.4483-.1495.6957v.0875c0,.2441.049.4741.1469.6907.098.2164.25.3925.4561.5281.2062.1358.4621.2037.7679.2037.3264,0,.5986-.0808.8168-.2423.2182-.1614.3564-.3831.4149-.6649h-.4483c-.0309.1375-.116.2535-.2551.3479-.1391.0946-.3152.1418-.5282.1418-.2061,0-.3771-.0456-.5128-.1366-.1358-.091-.2371-.2146-.3041-.371-.0573-.1338-.0899-.286-.0982-.4562h2.1931v-.2164c0-.2371-.049-.4568-.1469-.6595-.098-.2027-.2457-.366-.4432-.4897Zm-1.2111.366c.1322-.0894.2963-.1339.4922-.1339.1821,0,.3383.0394.469.1185.1305.079.2276.1915.2912.3375.042.0964.0698.2039.084.3221h-1.7096c.0162-.0991.0416-.1911.077-.2756.0652-.1564.164-.2791.2963-.3685Z"/><path class="cls-1" d="m74.7926,158.9505c-.0825,0-.1512.0292-.2062.0877-.055.0583-.0824.1306-.0824.2164s.0274.1579.0824.2164c.0549.0583.1237.0875.2062.0875.0824,0,.1511-.0292.2061-.0875.0549-.0585.0824-.1306.0824-.2164s-.0275-.1581-.0824-.2164c-.055-.0585-.1237-.0877-.2061-.0877Z"/><path class="cls-1" d="m147.713,156.9226c-.2234-.1356-.4828-.2035-.7782-.2035h-70.0757c-.2955,0-.5549.0679-.7782.2035-.2234.1358-.3935.3127-.5102.5308-.1169.2183-.1752.4476-.1752.688v.0875c0,.2406.0567.4699.1701.688.1134.2183.2817.3951.505.5308.2233.1358.4861.2037.7885.2037h70.0757c.3023,0,.5651-.0679.7885-.2037.2233-.1356.3917-.3125.505-.5308.1134-.2181.1701-.4474.1701-.688v-.0875c0-.2404-.0585-.4698-.1752-.688-.1168-.2181-.2869-.395-.5102-.5308Zm.0953,1.7908c-.0773.1581-.1916.2827-.3427.3737-.1512.091-.3281.1365-.5308.1365s-.3797-.0454-.5308-.1365c-.1512-.091-.2663-.2156-.3453-.3737-.0791-.1579-.1185-.335-.1185-.5308s.0412-.3728.1237-.5308c.0824-.1581.1984-.2818.3479-.3712.1494-.0892.3238-.134.5231-.134.1959,0,.3693.0448.5205.134.1511.0894.2671.2131.3479.3712.0807.1579.1211.335.1211.5308s-.0386.3728-.1159.5308Z"/><path class="cls-2" d="m147.8083,158.7134c-.0773.1581-.1916.2827-.3427.3737-.1512.091-.3281.1365-.5308.1365s-.3797-.0454-.5308-.1365c-.1512-.091-.2663-.2156-.3453-.3737-.0791-.1579-.1185-.335-.1185-.5308s.0412-.3728.1237-.5308c.0824-.1581.1984-.2818.3479-.3712.1494-.0892.3238-.134.5231-.134.1959,0,.3693.0448.5205.134.1511.0894.2671.2131.3479.3712.0807.1579.1211.335.1211.5308s-.0386.3728-.1159.5308Z"/><path class="cls-1" d="m150.367,156.7293h-.0206c-.3402,0-.5952.1075-.7653.322-.0865.1092-.1508.2439-.1933.4034v-.6429h-.3762v2.7467h.4741v-1.6439c0-.2233.0678-.4037.2036-.541.1357-.1375.3152-.2062.5385-.2062.2095,0,.3763.0644.4999.1933.1237.1288.1856.3033.1856.5231v1.6748h.4741v-1.5717c0-.4089-.085-.7207-.2551-.9355-.1701-.2146-.4252-.322-.7653-.322Z"/><polygon class="cls-1" points="151.7945 155.7965 151.7945 156.1727 152.181 156.1727 152.181 159.5585 152.6551 159.5585 152.6551 156.1727 152.6551 155.7965 152.181 155.7965 151.7945 155.7965"/><path class="cls-1" d="m153.7837,156.3583c.1031,0,.1821-.0275.2371-.0825.0549-.055.0824-.1289.0824-.2216,0-.0892-.0275-.1614-.0824-.2164-.055-.0548-.134-.0825-.2371-.0825s-.1813.0277-.2345.0825c-.0533.055-.0799.1289-.0799.2216,0,.0894.0266.1614.0799.2164.0532.055.1314.0825.2345.0825Z"/><polygon class="cls-1" points="153.2323 156.8118 153.2323 157.188 153.6549 157.188 153.6549 159.5585 154.129 159.5585 154.129 157.188 154.129 156.8118 153.6549 156.8118 153.2323 156.8118"/><path class="cls-1" d="m156.3141,156.7293h-.0206c-.3401,0-.5952.1075-.7653.322-.0865.1092-.1508.2439-.1933.4033v-.6429h-.3762v2.7467h.4741v-1.6439c0-.2233.0678-.4037.2036-.541.1357-.1375.3152-.2062.5385-.2062.2095,0,.3762.0644.4999.1933.1237.1288.1855.3033.1855.5231v1.6748h.4741v-1.5717c0-.4089-.085-.7207-.2551-.9355-.17-.2146-.4252-.322-.7653-.322Z"/><path class="cls-1" d="m160.5761,158.0537c0-.2371-.049-.4568-.1469-.6595-.098-.2027-.2457-.366-.4432-.4897-.1976-.1237-.4372-.1854-.7189-.1854-.2921,0-.5386.0669-.7395.2008-.201.1341-.3514.3093-.4509.5257-.0997.2164-.1495.4483-.1495.6957v.0875c0,.2441.049.4741.1469.6907.098.2164.25.3925.4561.5281.2062.1358.462.2037.7679.2037.3264,0,.5986-.0808.8168-.2423.2182-.1614.3564-.3831.4148-.6649h-.4483c-.0309.1375-.116.2535-.2551.3479-.1391.0946-.3152.1418-.5282.1418-.2061,0-.3771-.0456-.5128-.1366-.1358-.091-.2371-.2146-.3041-.371-.0573-.1338-.0899-.286-.0982-.4562h2.1931v-.2164Zm-1.8012-.7833c.1322-.0894.2963-.1339.4922-.1339.1821,0,.3383.0394.469.1185.1305.079.2275.1915.2912.3375.0419.0964.0698.2039.084.3221h-1.7096c.0162-.0991.0416-.1911.077-.2756.0652-.1564.164-.2791.2963-.3685Z"/></g><g><path class="cls-1" d="m55.5211,225.273c-.1547-.0969-.3423-.1452-.5628-.1452-.2286,0-.4216.0524-.5789.1572-.1574.105-.2751.2422-.353.4116-.0781.1694-.117.351-.117.5447v.0685c0,.1911.0383.3712.115.5407.0767.1694.1957.3072.3571.4134.1614.1063.3617.1595.6012.1595.2555,0,.4686-.0633.6395-.1897.1708-.1264.279-.2999.3248-.5205h-.351c-.0242.1076-.0908.1984-.1997.2723-.1089.074-.2468.111-.4135.111-.1614,0-.2952-.0357-.4014-.107-.1063-.0713-.1856-.168-.2381-.2904-.0449-.1048-.0704-.2239-.0769-.3571h1.7169v-.1694c0-.1856-.0383-.3576-.115-.5163-.0767-.1587-.1924-.2865-.347-.3834Zm-.9481.2865c.1035-.07.232-.1049.3853-.1049.1425,0,.2649.0308.3672.0928.1022.0618.1781.1499.2279.2642.0328.0755.0546.1596.0658.2521h-1.3384c.0127-.0776.0326-.1496.0603-.2158.0511-.1225.1284-.2185.232-.2885Z"/><polygon class="cls-1" points="58.0406 225.2005 57.6573 225.2005 57.1571 226.0154 57.1006 226.0154 56.572 225.2005 56.1605 225.2005 56.8656 226.2658 56.1242 227.3508 56.5075 227.3508 57.0965 226.4713 57.153 226.4713 57.7663 227.3508 58.1778 227.3508 57.3849 226.2226 58.0406 225.2005"/><polygon class="cls-1" points="58.3634 225.2005 58.3634 225.495 58.6942 225.495 58.6942 227.3508 59.0654 227.3508 59.0654 225.495 59.0654 225.2005 58.6942 225.2005 58.3634 225.2005"/><path class="cls-1" d="m58.7951,224.8454c.0807,0,.1425-.0215.1856-.0646.043-.043.0645-.1009.0645-.1735,0-.0698-.0216-.1264-.0645-.1694-.0431-.0429-.1049-.0646-.1856-.0646-.0807,0-.1419.0217-.1836.0646-.0417.043-.0625.1009-.0625.1735,0,.07.0208.1264.0625.1694.0417.0431.1029.0646.1836.0646Z"/><path class="cls-1" d="m61.1109,226.3019c-.1345-.1049-.3214-.1694-.5608-.1937l-.234-.0242c-.1237-.0134-.2145-.045-.2723-.0948-.0578-.0497-.0867-.1164-.0867-.1998,0-.0995.0409-.1802.123-.242.082-.062.1957-.0928.3409-.0928.1479,0,.2615.0295.3409.0887.0793.0592.1217.1358.1271.2299h.351c-.0054-.2044-.0814-.3617-.2279-.4721-.1466-.1102-.3436-.1654-.5911-.1654-.1587,0-.2992.0263-.4216.0787-.1224.0524-.2186.1277-.2885.2259-.07.0982-.1049.2145-.1049.349,0,.1748.0612.3134.1836.4155.1224.1022.2898.1654.5023.1897l.2381.0241c.1506.0161.2602.0499.3288.1009.0686.0511.1029.1225.1029.2138,0,.1076-.0471.195-.1412.2622-.0942.0673-.2273.1009-.3994.1009-.1802,0-.3141-.0344-.4014-.1029-.0874-.0686-.1325-.1526-.1352-.2521h-.351c.0053.2097.0853.3746.24.4941.1546.1197.3705.1795.6475.1795.1721,0,.3261-.0289.462-.0868.1358-.0577.2414-.1391.3167-.2441.0753-.1049.113-.2218.113-.351,0-.1828-.0673-.3268-.2017-.4317Z"/><path class="cls-1" d="m62.2769,224.5428h-.355v.6577h-.3752v.2784h.3752v1.1499c0,.183.0303.3288.0908.4377.0605.1089.1479.1876.2622.236.1143.0484.2535.0727.4176.0727h.3308v-.3349h-.3792c-.1157,0-.2058-.0315-.2703-.0948-.0645-.0631-.0968-.1539-.0968-.2723v-1.1942h.7464v-.2784h-.7464v-.6577Z"/><path class="cls-1" d="m64.8751,226.4834c0,.1802-.0511.3235-.1533.4297-.1022.1063-.2367.1593-.4035.1593-.1587,0-.2844-.0484-.3772-.1452-.0928-.0969-.1392-.2314-.1392-.4035v-1.3274h-.3712v1.2508c0,.312.0686.5514.2058.718.1372.1668.3322.2502.585.2502h.0161c.2528,0,.4438-.084.5729-.2521.0645-.084.113-.1871.1452-.3091v.4966h.2945v-2.1544h-.3752v1.287Z"/><path class="cls-1" d="m66.1097,224.8131c.0807,0,.1418-.0222.1836-.0665.0417-.0444.0625-.1016.0625-.1715,0-.0726-.0209-.1297-.0625-.1714-.0417-.0417-.1029-.0626-.1836-.0626s-.1419.0217-.1836.0646c-.0417.043-.0625.1009-.0625.1735,0,.07.0208.1264.0625.1694.0417.043.1029.0646.1836.0646Z"/><path class="cls-1" d="m65.682,225.2005v.2945h.3429v2.0213c0,.1049-.0276.1848-.0827.2401-.0552.055-.1338.0827-.236.0827h-.23v.3348h.1735c.1775,0,.3194-.0228.4256-.0685.1062-.0458.1836-.1205.232-.2239.0484-.1037.0726-.2441.0726-.4217v-2.2593h-.698Z"/><path class="cls-1" d="m68.4879,225.273c-.1547-.0969-.3423-.1452-.5628-.1452-.2287,0-.4216.0524-.579.1572-.1573.105-.2751.2422-.353.4116-.078.1694-.117.351-.117.5447v.0685c0,.1911.0383.3712.115.5407.0767.1694.1957.3072.3571.4134.1614.1063.3617.1595.6012.1595.2555,0,.4687-.0633.6395-.1897.1708-.1264.279-.2999.3248-.5205h-.351c-.0242.1076-.0908.1984-.1997.2723-.1089.074-.2468.111-.4135.111-.1614,0-.2952-.0357-.4014-.107-.1063-.0713-.1856-.168-.2381-.2904-.0449-.1048-.0704-.2239-.0769-.3571h1.7169v-.1694c0-.1856-.0383-.3576-.115-.5163-.0767-.1587-.1924-.2865-.347-.3834Zm-.9481.2865c.1035-.07.232-.1049.3853-.1049.1425,0,.2649.0308.3671.0928.1022.0618.1781.1499.2279.2642.0328.0755.0546.1596.0658.2521h-1.3384c.0127-.0776.0326-.1496.0603-.2158.0511-.1225.1284-.2185.232-.2885Z"/><path class="cls-1" d="m69.426,226.8748c-.0646,0-.1184.0228-.1614.0686-.0431.0457-.0645.1022-.0645.1694s.0215.1236.0645.1694c.043.0457.0968.0685.1614.0685.0645,0,.1183-.0228.1614-.0685.043-.0458.0645-.1022.0645-.1694s-.0216-.1238-.0645-.1694c-.0431-.0458-.0968-.0686-.1614-.0686Z"/><path class="cls-1" d="m151.5689,225.2872c-.1749-.1062-.3779-.1593-.6092-.1593h-79.9159c-.2313,0-.4344.0532-.6092.1593-.1749.1063-.308.2448-.3994.4155-.0915.1709-.1372.3504-.1372.5386v.0685c0,.1883.0444.3679.1332.5386.0888.1709.2205.3093.3954.4155.1748.1063.3805.1595.6173.1595h79.9159c.2367,0,.4424-.0532.6173-.1595.1748-.1062.3066-.2446.3954-.4155.0888-.1707.1332-.3503.1332-.5386v-.0685c0-.1882-.0458-.3678-.1372-.5386-.0915-.1707-.2246-.3092-.3994-.4155Zm.0746,1.402c-.0605.1238-.15.2213-.2683.2925-.1184.0713-.2569.1068-.4156.1068s-.2972-.0356-.4156-.1068c-.1184-.0713-.2085-.1688-.2703-.2925-.0619-.1236-.0928-.2622-.0928-.4155s.0323-.2919.0968-.4155c.0645-.1238.1553-.2206.2723-.2906.117-.0698.2535-.1049.4095-.1049.1533,0,.2891.035.4075.1049.1183.07.2091.1668.2723.2906.0632.1236.0948.2622.0948.4155s-.0303.2919-.0908.4155Z"/><path class="cls-2" d="m151.6436,226.6892c-.0605.1238-.15.2213-.2683.2925-.1184.0713-.2569.1068-.4156.1068s-.2972-.0356-.4156-.1068c-.1184-.0713-.2085-.1688-.2703-.2925-.0619-.1236-.0928-.2622-.0928-.4155s.0323-.2919.0968-.4155c.0645-.1238.1553-.2206.2723-.2906.117-.0698.2535-.1049.4095-.1049.1533,0,.2891.035.4075.1049.1183.07.2091.1668.2723.2906.0632.1236.0948.2622.0948.4155s-.0303.2919-.0908.4155Z"/><path class="cls-1" d="m153.6467,225.1359h-.0161c-.2663,0-.466.0841-.5991.2521-.0677.0855-.118.1909-.1513.3158v-.5033h-.2945v2.1503h.3712v-1.287c0-.1748.0531-.316.1594-.4235.1062-.1076.2467-.1614.4216-.1614.164,0,.2946.0504.3913.1513.0969.1008.1453.2374.1453.4095v1.3112h.3712v-1.2304c0-.3201-.0666-.5642-.1997-.7324-.1332-.168-.3329-.2521-.5992-.2521Z"/><polygon class="cls-1" points="154.7642 224.4056 154.7642 224.7001 155.0668 224.7001 155.0668 227.3508 155.438 227.3508 155.438 224.7001 155.438 224.4056 155.0668 224.4056 154.7642 224.4056"/><path class="cls-1" d="m156.3216,224.8454c.0807,0,.1425-.0215.1856-.0646.043-.043.0645-.1009.0645-.1735,0-.0698-.0216-.1264-.0645-.1694-.043-.0429-.1049-.0646-.1856-.0646s-.1419.0217-.1836.0646c-.0417.043-.0625.1009-.0625.1735,0,.07.0208.1264.0625.1694.0417.0431.1029.0646.1836.0646Z"/><polygon class="cls-1" points="155.8899 225.2005 155.8899 225.495 156.2207 225.495 156.2207 227.3508 156.5919 227.3508 156.5919 225.495 156.5919 225.2005 156.2207 225.2005 155.8899 225.2005"/><path class="cls-1" d="m158.3025,225.1359h-.0161c-.2663,0-.466.0841-.5991.2521-.0677.0855-.118.1909-.1513.3157v-.5033h-.2945v2.1503h.3712v-1.287c0-.1748.0531-.316.1594-.4235.1062-.1076.2467-.1614.4216-.1614.164,0,.2945.0504.3913.1513.0968.1008.1453.2374.1453.4095v1.3112h.3712v-1.2304c0-.3201-.0666-.5642-.1997-.7324-.1331-.168-.3329-.2521-.5991-.2521Z"/><path class="cls-1" d="m161.6391,226.1727c0-.1856-.0383-.3576-.115-.5163-.0767-.1587-.1923-.2865-.347-.3834-.1547-.0969-.3423-.1452-.5628-.1452-.2287,0-.4216.0524-.579.1572-.1573.105-.2751.2422-.353.4116-.078.1694-.117.351-.117.5447v.0685c0,.1911.0383.3712.115.5407.0767.1694.1957.3072.3571.4134.1614.1063.3617.1595.6012.1595.2555,0,.4687-.0633.6395-.1897.1708-.1264.279-.2999.3248-.5205h-.351c-.0242.1076-.0908.1984-.1997.2723-.1089.074-.2468.111-.4135.111-.1614,0-.2952-.0357-.4014-.107-.1063-.0713-.1856-.168-.2381-.2904-.0449-.1048-.0704-.2239-.0769-.3571h1.7169v-.1694Zm-1.4101-.6132c.1035-.07.232-.1049.3853-.1049.1425,0,.2649.0308.3671.0928.1022.0618.1781.1499.2279.2642.0328.0755.0546.1596.0658.2521h-1.3384c.0127-.0776.0326-.1496.0603-.2158.0511-.1225.1284-.2185.232-.2885Z"/></g><g><path class="cls-1" d="m186.2302,221c-.2529-.1583-.5595-.2373-.92-.2373-.3737,0-.6892.0856-.9463.257-.2572.1716-.4496.3958-.577.6728-.1276.277-.1913.5737-.1913.8903v.112c0,.3124.0627.6067.1879.8839.1253.277.3199.5022.5836.6758.2638.1738.5913.2607.9826.2607.4177,0,.766-.1034,1.0453-.31.2792-.2066.4561-.4902.5309-.8508h-.5737c-.0396.1759-.1484.3244-.3265.4452-.178.121-.4034.1815-.676.1815-.2638,0-.4825-.0584-.6562-.1748-.1738-.1165-.3034-.2746-.3891-.4748-.0734-.1713-.1151-.366-.1257-.5837h2.8065v-.277c0-.3033-.0627-.5846-.1879-.844-.1253-.2594-.3144-.4683-.5672-.6267Zm-1.5498.4683c.1692-.1143.3792-.1714.6298-.1714.233,0,.433.0504.6002.1517.167.101.2912.245.3726.4319.0537.1234.0893.261.1075.4121h-2.1877c.0207-.1268.0533-.2446.0985-.3527.0835-.2002.2099-.3572.3792-.4715Z"/><polygon class="cls-1" points="190.3486 220.8814 189.7221 220.8814 188.9044 222.2134 188.8121 222.2134 187.9481 220.8814 187.2754 220.8814 188.4279 222.6228 187.2161 224.3963 187.8426 224.3963 188.8055 222.9587 188.8978 222.9587 189.9002 224.3963 190.5729 224.3963 189.2767 222.5522 190.3486 220.8814"/><polygon class="cls-1" points="190.8762 220.8814 190.8762 221.3628 191.417 221.3628 191.417 224.3963 192.0237 224.3963 192.0237 221.3628 192.0237 220.8814 191.417 220.8814 190.8762 220.8814"/><path class="cls-1" d="m191.5819,220.3011c.1318,0,.2329-.0352.3034-.1056.0703-.0704.1055-.165.1055-.2836,0-.1141-.0352-.2066-.1055-.277-.0704-.0702-.1715-.1055-.3034-.1055-.1319,0-.232.0354-.3001.1055-.0682.0704-.1022.165-.1022.2836,0,.1143.034.2066.1022.277.0681.0704.1682.1056.3001.1056Z"/><path class="cls-1" d="m195.3673,222.6817c-.2199-.1714-.5254-.277-.9167-.3166l-.3825-.0395c-.2023-.0219-.3507-.0736-.4452-.1549-.0946-.0813-.1418-.1903-.1418-.3265,0-.1626.0669-.2946.2011-.3956.1341-.1013.3199-.1517.5572-.1517.2417,0,.4275.0483.5573.145.1296.0968.1989.222.2077.3759h.5738c-.0089-.334-.1331-.5913-.3726-.7717-.2397-.1802-.5617-.2703-.9662-.2703-.2595,0-.4891.0429-.6891.1287-.2001.0856-.3573.2087-.4716.3692-.1144.1605-.1715.3505-.1715.5704,0,.2857.1.5123.3001.6792.2.1671.4737.2703.821.31l.3891.0395c.2462.0264.4254.0815.5375.165.1121.0835.1681.2002.1681.3495,0,.1759-.077.3188-.2308.4286-.154.1101-.3716.165-.6529.165-.2946,0-.5134-.0562-.6562-.1682-.1429-.1122-.2166-.2495-.221-.4121h-.5737c.0087.3428.1395.6123.3924.8077.2528.1957.6056.2935,1.0585.2935.2813,0,.533-.0472.7551-.1418.222-.0944.3945-.2274.5177-.399.123-.1714.1847-.3626.1847-.5737,0-.2988-.11-.5342-.3298-.7056Z"/><path class="cls-1" d="m197.2731,219.8064h-.5803v1.075h-.6134v.455h.6134v1.8795c0,.2991.0495.5374.1484.7155.0989.1781.2417.3066.4286.3857.1869.0792.4144.1188.6825.1188h.5408v-.5475h-.6199c-.1891,0-.3363-.0515-.4418-.1549-.1055-.1032-.1583-.2516-.1583-.4452v-1.952h1.22v-.455h-1.22v-1.075Z"/><path class="cls-1" d="m201.5201,222.9784c0,.2946-.0836.5288-.2506.7024-.1671.1738-.3869.2604-.6595.2604-.2595,0-.465-.0792-.6166-.2373-.1517-.1583-.2275-.3782-.2275-.6595v-2.1698h-.6067v2.0445c0,.5099.1121.9013.3363,1.1737.2242.2727.5429.4089.9562.4089h.0263c.4133,0,.7255-.1373.9365-.4121.1055-.1374.1846-.3058.2374-.5052v.8117h.4814v-3.5216h-.6133v2.1037Z"/><path class="cls-1" d="m203.5381,220.2483c.1319,0,.2318-.0363.3-.1088.0681-.0725.1022-.166.1022-.2804,0-.1186-.0341-.212-.1022-.2802-.0682-.0682-.1682-.1023-.3-.1023s-.232.0354-.3001.1056c-.0682.0704-.1022.165-.1022.2836,0,.1143.034.2066.1022.277.0681.0704.1681.1056.3001.1056Z"/><path class="cls-1" d="m202.8391,220.8814v.4814h.5605v3.304c0,.1714-.0451.3021-.1352.3924-.0902.0899-.2188.1352-.3858.1352h-.3759v.5473h.2836c.2902,0,.522-.0373.6957-.112.1737-.0749.3001-.1969.3792-.366.0792-.1695.1187-.399.1187-.6893v-3.693h-1.1409Z"/><path class="cls-1" d="m207.4257,221c-.2528-.1583-.5595-.2373-.9199-.2373-.3738,0-.6892.0856-.9464.257-.2572.1716-.4496.3958-.577.6728-.1275.277-.1913.5737-.1913.8903v.112c0,.3124.0627.6067.1879.8839.1253.277.3199.5022.5836.6758.2638.1738.5913.2607.9826.2607.4177,0,.7661-.1034,1.0453-.31.2792-.2066.4561-.4902.5309-.8508h-.5737c-.0396.1759-.1484.3244-.3265.4452-.178.121-.4034.1815-.676.1815-.2638,0-.4825-.0584-.6562-.1748-.1737-.1165-.3034-.2746-.3891-.4748-.0733-.1713-.1151-.366-.1257-.5837h2.8065v-.277c0-.3033-.0627-.5846-.1879-.844-.1253-.2594-.3144-.4683-.5672-.6267Zm-1.5498.4683c.1692-.1143.3792-.1714.6298-.1714.233,0,.4329.0504.6001.1517.167.101.2912.245.3726.4319.0537.1234.0893.261.1075.4121h-2.1877c.0207-.1268.0533-.2446.0985-.3527.0835-.2002.2099-.3572.3792-.4715Z"/><path class="cls-1" d="m208.959,223.6182c-.1056,0-.1935.0373-.2638.1122-.0704.0747-.1055.1671-.1055.277s.0351.2021.1055.277c.0703.0747.1583.112.2638.112.1055,0,.1934-.0373.2638-.112.0703-.0749.1055-.1671.1055-.277s-.0352-.2023-.1055-.277c-.0704-.0749-.1583-.1122-.2638-.1122Z"/><path class="cls-1" d="m257.198,221.0232c-.2859-.1736-.6178-.2604-.9958-.2604h-44.5988c-.3781,0-.7101.0869-.9958.2604-.2859.1738-.5035.4001-.6529.6792-.1495.2793-.2242.5728-.2242.8804v.112c0,.3079.0726.6013.2177.8804.1451.2793.3604.5057.6463.6792.2857.1738.622.2607,1.009.2607h44.5988c.3869,0,.7232-.0869,1.009-.2607.2858-.1736.5012-.3999.6463-.6792.1451-.2791.2177-.5726.2177-.8804v-.112c0-.3076-.0748-.6011-.2242-.8804-.1495-.2791-.3671-.5054-.6529-.6792Zm.122,2.2916c-.099.2023-.2452.3617-.4386.4782-.1935.1165-.4199.1746-.6793.1746s-.4859-.0581-.6793-.1746c-.1935-.1165-.3407-.2759-.4418-.4782-.1012-.2021-.1517-.4286-.1517-.6792s.0528-.4771.1583-.6792c.1055-.2023.2539-.3606.4452-.475.1912-.1141.4143-.1714.6694-.1714.2506,0,.4726.0573.6661.1714.1934.1143.3418.2727.4452.475.1032.2021.1549.4286.1549.6792s-.0495.4771-.1484.6792Z"/><path class="cls-2" d="m257.32,223.3148c-.099.2023-.2452.3617-.4386.4782-.1935.1165-.4199.1746-.6793.1746s-.4859-.0581-.6793-.1746c-.1935-.1165-.3407-.2759-.4418-.4782-.1012-.2021-.1517-.4286-.1517-.6792s.0528-.4771.1583-.6792c.1055-.2023.2539-.3606.4452-.475.1912-.1141.4143-.1714.6694-.1714.2506,0,.4726.0573.6661.1714.1934.1143.3418.2727.4452.475.1032.2021.1549.4286.1549.6792s-.0495.4771-.1484.6792Z"/><path class="cls-1" d="m260.5943,220.7758h-.0263c-.4353,0-.7617.1375-.9794.4121-.1107.1398-.1929.3121-.2473.5162v-.8227h-.4814v3.5149h.6067v-2.1037c0-.2858.0868-.5166.2605-.6923.1737-.1759.4033-.2639.6891-.2639.2681,0,.4815.0824.6397.2474.1583.1648.2374.3881.2374.6693v2.1432h.6067v-2.0112c0-.5232-.1088-.9223-.3264-1.1971-.2176-.2746-.5441-.4121-.9794-.4121Z"/><polygon class="cls-1" points="262.421 219.5822 262.421 220.0636 262.9156 220.0636 262.9156 224.3963 263.5223 224.3963 263.5223 220.0636 263.5223 219.5822 262.9156 219.5822 262.421 219.5822"/><path class="cls-1" d="m264.9666,220.3011c.1319,0,.233-.0352.3034-.1056.0703-.0704.1055-.165.1055-.2836,0-.1141-.0352-.2066-.1055-.277-.0704-.0702-.1715-.1055-.3034-.1055s-.232.0354-.3001.1055c-.0682.0704-.1022.165-.1022.2836,0,.1143.0341.2066.1022.277.0681.0704.1682.1056.3001.1056Z"/><polygon class="cls-1" points="264.2609 220.8814 264.2609 221.3628 264.8017 221.3628 264.8017 224.3963 265.4084 224.3963 265.4084 221.3628 265.4084 220.8814 264.8017 220.8814 264.2609 220.8814"/><path class="cls-1" d="m268.2047,220.7758h-.0264c-.4352,0-.7617.1375-.9793.4121-.1107.1398-.1929.312-.2473.5161v-.8226h-.4814v3.5149h.6067v-2.1037c0-.2858.0868-.5166.2605-.6923.1736-.1759.4033-.2639.6892-.2639.2681,0,.4814.0824.6397.2474.1583.1648.2374.3881.2374.6693v2.1432h.6067v-2.0112c0-.5232-.1088-.9223-.3265-1.1971-.2176-.2746-.5441-.4121-.9793-.4121Z"/><path class="cls-1" d="m273.6585,222.4706c0-.3033-.0626-.5846-.1879-.844-.1253-.2594-.3144-.4683-.5672-.6267-.2528-.1583-.5595-.2373-.9199-.2373-.3738,0-.6892.0856-.9464.257-.2572.1716-.4496.3958-.5771.6728-.1275.277-.1913.5737-.1913.8903v.112c0,.3124.0627.6067.1879.8839.1253.277.3199.5022.5837.6758.2638.1738.5913.2607.9826.2607.4177,0,.7661-.1034,1.0453-.31.2792-.2066.4561-.4902.5309-.8508h-.5737c-.0396.1759-.1484.3244-.3265.4452-.178.121-.4034.1815-.676.1815-.2638,0-.4825-.0584-.6562-.1748-.1737-.1165-.3034-.2746-.3891-.4748-.0733-.1713-.1151-.366-.1257-.5837h2.8065v-.277Zm-2.3049-1.0023c.1692-.1143.3792-.1714.6298-.1714.233,0,.4329.0504.6001.1517.167.101.2912.245.3726.4319.0537.1234.0893.261.1075.4121h-2.1877c.0207-.1268.0533-.2446.0985-.3527.0835-.2002.2099-.3572.3792-.4715Z"/></g><g><g><path class="cls-1" d="m54.5426,78.7036h4.2832v.7002h-4.2832v-.7002Zm1.7383-1.8926h.7969v2.1992h-.7969v-2.1992Zm0,3.4092h.7969v5.5225h-.7969v-5.5225Z"/><path class="cls-1" d="m61.151,78.7036h.7002v2.208l-.1729-.0088c.0264-.5254.1396-.9639.3408-1.3164.2021-.3516.4648-.6162.7881-.792s.6865-.2637,1.0898-.2637c.4805,0,.9092.1201,1.2871.3594.377.2402.6689.5625.874.9658.2041.4033.3066.8447.3066,1.3252v.1631c0,.4805-.1074.9219-.3213,1.3252-.2148.4033-.5107.7246-.8887.9648s-.8037.3604-1.2773.3604c-.3906,0-.75-.085-1.0801-.2549-.3301-.1689-.6016-.4365-.8164-.8018-.2148-.3643-.3311-.8223-.3506-1.373l.4033.7588v3.4189h-.8828v-7.0391Zm3.5049,4.2637c.2627-.167.4639-.3975.6045-.6914.1416-.2949.2119-.6338.2119-1.0186,0-.377-.0703-.7139-.2119-1.0078-.1406-.2949-.3418-.5254-.6045-.6914-.2627-.167-.5664-.25-.9121-.25-.3203,0-.6133.0723-.8789.2158-.2656.1445-.4775.3496-.6338.6152-.1572.2656-.2354.5742-.2354.9268v.4414c0,.3457.0801.6484.2402.9072.1602.2598.373.458.6387.5957s.5547.2061.8691.2061c.3457,0,.6494-.083.9121-.249Z"/><path class="cls-1" d="m68.3726,83.644c-.3838-.2334-.6836-.5537-.8975-.96-.2148-.4072-.3223-.8535-.3223-1.3398v-.1631c0-.4863.1045-.9316.3125-1.335s.502-.7236.8828-.9609c.3809-.2363.8115-.3545,1.292-.3545.4102,0,.7744.0859,1.0947.2588s.5791.4336.7783.7832c.1982.3486.3105.7852.3359,1.3105l-.375-.6143v-3.458h.8838v7.0107h-.7012v-2.2764h.2598c-.0195.5576-.1348,1.0186-.3457,1.3828-.2119.3652-.4805.6338-.8066.8066-.3271.1738-.6914.2598-1.0947.2598-.4805,0-.9131-.1172-1.2969-.3506Zm2.2861-.6484c.2617-.1465.4697-.3555.624-.624.1533-.2686.2305-.5791.2305-.9316v-.4512c0-.3389-.0791-.6367-.2354-.8936-.1572-.2559-.3682-.4512-.6338-.585-.2656-.1348-.5557-.2021-.8691-.2021-.3457,0-.6504.082-.9121.2451-.2627.1631-.4658.3926-.6104.6865-.1436.2949-.2158.6338-.2158,1.0176,0,.3906.0732.7354.2207,1.0332.1475.2969.3535.5264.6191.6865s.5684.2393.9082.2393c.3193,0,.6113-.0732.874-.2207Z"/><path class="cls-1" d="m73.3375,78.7612h3.207v.6621h-3.207v-.6621Zm1.1621-1.585c.2939-.2686.7324-.4033,1.3154-.4033h.6338v.7393h-.7881c-.2432,0-.4287.0674-.5566.2021-.1279.1338-.1924.3203-.1924.5566v5.5508h-.8545v-5.4062c0-.5576.1475-.9707.4424-1.2393Z"/><path class="cls-1" d="m79.3101,78.7036h.7002v2.1895h-.1152c0-.749.1494-1.3271.4473-1.7334.2979-.4072.7441-.6104,1.3389-.6104h.0391c.5957,0,1.042.2031,1.3398.6104.2969.4062.4463.9844.4463,1.7334h-.2686c0-.749.1514-1.3271.4561-1.7334.3037-.4072.7539-.6104,1.3486-.6104h.0391c.5947,0,1.0449.2031,1.3486.6104.3047.4062.4561.9844.4561,1.7334v2.9287h-.8828v-3.1309c0-.416-.1045-.7412-.3125-.9746s-.498-.3506-.8691-.3506c-.3906,0-.7012.123-.9316.3701-.2305.2461-.3457.584-.3457,1.0127v3.0732h-.8926v-3.1309c0-.416-.1045-.7412-.3125-.9746s-.498-.3506-.8691-.3506c-.3906,0-.7012.123-.9316.3701-.2305.2461-.3457.584-.3457,1.0127v3.0732h-.8828v-5.1182Z"/><path class="cls-1" d="m88.4283,83.519c-.3301-.291-.4951-.6992-.4951-1.2246,0-.5312.1797-.9375.5381-1.2188.3584-.2822.8701-.4229,1.5361-.4229h1.4121v.6621h-1.4502c-.3711,0-.6592.0898-.8643.2695-.2051.1787-.3076.416-.3076.71,0,.2949.1025.5283.3076.7012s.4932.2598.8643.2598.6846-.1045.9414-.3125c.2559-.208.3936-.5459.4131-1.0127l.249.3457c-.0508.5566-.2275.9766-.5283,1.2578-.3008.2822-.7197.4229-1.2578.4229-.5762,0-1.0293-.1455-1.3584-.4375Zm3.0488-1.2334h-.1533v-1.7773c0-.3584-.0938-.6289-.2793-.8115-.1855-.1816-.457-.2734-.8164-.2734-.582,0-1.1484.0195-1.6992.0576v-.7773c.416-.0391.8838-.0576,1.4023-.0576.793,0,1.3662.1465,1.7188.4414.3516.2949.5283.791.5283,1.4883v3.2461h-.7012v-1.5361Z"/><path class="cls-1" d="m93.6676,78.7036h.7002v2.1895h-.1152c0-.7617.1592-1.3428.4756-1.7432.3174-.4004.792-.6006,1.4258-.6006h.0391c.6338,0,1.1094.2002,1.4258.6006.3174.4004.4756.9814.4756,1.7432v2.9287h-.8838v-3.1211c0-.4092-.1152-.7344-.3457-.9746s-.541-.3604-.9316-.3604c-.416,0-.75.1279-1.0029.3838-.2529.2568-.3799.5928-.3799,1.0088v3.0635h-.8828v-5.1182Z"/><path class="cls-1" d="m99.9566,83.3804c-.3262-.3975-.4893-.9668-.4893-1.71v-2.9766h.8828v3.1592c0,.4102.1104.7295.332.96.2207.2305.5195.3457.8975.3457.3965,0,.7168-.126.96-.3789s.3652-.5938.3652-1.0225v-3.0635h.8936v5.1279h-.7012v-2.1895h.1152c0,.7617-.1543,1.3428-.4609,1.7432-.3076.4004-.7627.5996-1.3643.5996h-.0381c-.6016,0-1.0664-.1982-1.3926-.5947Z"/><path class="cls-1" d="m105.4361,83.519c-.3301-.291-.4951-.6992-.4951-1.2246,0-.5312.1797-.9375.5381-1.2188.3584-.2822.8701-.4229,1.5361-.4229h1.4121v.6621h-1.4502c-.3711,0-.6592.0898-.8643.2695-.2051.1787-.3076.416-.3076.71,0,.2949.1025.5283.3076.7012s.4932.2598.8643.2598.6846-.1045.9414-.3125c.2559-.208.3936-.5459.4131-1.0127l.249.3457c-.0508.5566-.2275.9766-.5283,1.2578-.3008.2822-.7197.4229-1.2578.4229-.5762,0-1.0293-.1455-1.3584-.4375Zm3.0488-1.2334h-.1533v-1.7773c0-.3584-.0938-.6289-.2793-.8115-.1855-.1816-.457-.2734-.8164-.2734-.582,0-1.1484.0195-1.6992.0576v-.7773c.416-.0391.8838-.0576,1.4023-.0576.793,0,1.3662.1465,1.7188.4414.3516.2949.5283.791.5283,1.4883v3.2461h-.7012v-1.5361Zm-.9316-6.2334h.9316l-1.0566,1.8926h-.7197l.8447-1.8926Z"/><path class="cls-1" d="m110.0113,76.811h1.6035v.7012h-1.6035v-.7012Zm.7207,0h.8828v7.0107h-.8828v-7.0107Z"/><path class="cls-1" d="m54.0523,96.5083h.5479c.2432,0,.4307-.0654.5615-.1973.1309-.1309.1973-.3213.1973-.5713v-5.5117h.8447v5.3779c0,.4219-.0576.7568-.1729,1.0029s-.2988.4238-.5518.5332c-.2529.1084-.5908.1631-1.0137.1631h-.4131v-.7969Zm.4902-6.2803h1.6611v.7002h-1.6611v-.7002Zm.5811-1.0762c-.0996-.1025-.1494-.2363-.1494-.4033,0-.1729.0498-.3105.1494-.4131.0986-.1016.2451-.1533.4365-.1533.1924,0,.3379.0498.4375.1484.0986.0996.1484.2354.1484.4082,0,.167-.0498.3027-.1484.4082-.0996.1055-.2451.1592-.4375.1592-.1914,0-.3379-.0518-.4365-.1543Z"/><path class="cls-1" d="m58.5084,95.1401c-.3848-.2529-.668-.5811-.8506-.9844-.1816-.4033-.2734-.833-.2734-1.2871v-.1631c0-.4609.0928-.8936.2783-1.2969s.4658-.7295.8408-.9795c.374-.25.834-.374,1.3779-.374.5244,0,.9717.1152,1.3398.3457s.6436.5342.8252.9121c.1826.3779.2744.7871.2744,1.2295v.4033h-4.5518v-.6631h3.9082l-.2021.3555c0-.3652-.0586-.6836-.1777-.9561-.1182-.2715-.2988-.4814-.542-.6289-.2432-.1465-.5352-.2207-.874-.2207-.3652,0-.6709.083-.917.25-.2471.166-.4307.3955-.5527.6865-.1211.291-.1816.6289-.1816,1.0127,0,.3848.0615.7227.1865,1.0137s.3135.5215.5674.6914c.252.1699.5713.2539.9551.2539.3965,0,.7246-.0879.9844-.2637.2588-.1758.418-.3916.4756-.6484h.835c-.1084.5254-.3662.9385-.7725,1.2393-.4072.3008-.9141.4512-1.5225.4512-.5703,0-1.0469-.127-1.4307-.3789Z"/><path class="cls-1" d="m65.3941,90.228h.7002v2.1895h-.1152c0-.749.1494-1.3271.4473-1.7334.2979-.4072.7441-.6104,1.3389-.6104h.0391c.5957,0,1.042.2031,1.3398.6104.2969.4062.4463.9844.4463,1.7334h-.2686c0-.749.1514-1.3271.4561-1.7334.3037-.4072.7539-.6104,1.3486-.6104h.0391c.5947,0,1.0449.2031,1.3486.6104.3047.4062.4561.9844.4561,1.7334v2.9287h-.8828v-3.1309c0-.416-.1045-.7412-.3125-.9746s-.498-.3506-.8691-.3506c-.3906,0-.7012.123-.9316.3701-.2305.2461-.3457.584-.3457,1.0127v3.0732h-.8926v-3.1309c0-.416-.1045-.7412-.3125-.9746s-.498-.3506-.8691-.3506c-.3906,0-.7012.123-.9316.3701-.2305.2461-.3457.584-.3457,1.0127v3.0732h-.8828v-5.1182Z"/><path class="cls-1" d="m74.4596,90.228h.7002v2.1123h-.0381c0-.7422.1631-1.29.4902-1.6426.3262-.3516.8252-.5273,1.498-.5273h.1631v.7969h-.3174c-.5186,0-.917.1357-1.1953.4082-.2783.2715-.418.6709-.418,1.1953v2.7754h-.8828v-5.1182Z"/><path class="cls-1" d="m77.5035,90.228h3.5146v.6621h-3.5146v-.6621Zm1.7334,5.0029c-.2725-.1152-.4805-.3027-.625-.5615-.1436-.2598-.2158-.6064-.2158-1.042v-4.9648h.8457v5.0703c0,.2812.0762.498.2305.6484.1533.1504.3682.2256.6426.2256h.9033v.7969h-.7881c-.3896,0-.7217-.0576-.9932-.1729Z"/><path class="cls-1" d="m81.4693,90.228h.9219l1.7188,5.1182h-.8838l-1.7568-5.1182Zm1.9785,4.417h1.0752v.7012h-1.0752v-.7012Zm1.9297-4.417h.8643l-1.5264,5.1182h-.8359l1.498-5.1182Z"/><path class="cls-1" d="m86.5396,90.228h.9023l1.7578,5.0029h-.8262l-1.834-5.0029Zm.3457,6.3184h.7197c.333,0,.5908-.0635.7734-.1914.1826-.1289.3213-.3555.418-.6826l1.6328-5.4443h.8643l-1.7197,5.6748c-.1025.3398-.2461.6133-.4316.8213s-.4102.3633-.6729.4658c-.2617.1025-.5664.1533-.9121.1533h-.6719v-.7969Zm1.584-2.0547h1.0762v.7393h-1.0762v-.7393Zm.874-6.915h.9316l-1.0566,1.8926h-.7197l.8447-1.8926Z"/><path class="cls-1" d="m91.7164,95.1831c-.1025-.1094-.1543-.2432-.1543-.4033s.0518-.2949.1543-.4033c.1016-.1094.2305-.1631.3838-.1631s.2812.0537.3838.1631c.1025.1084.1543.2432.1543.4033s-.0518.2939-.1543.4033c-.1025.1084-.2305.1631-.3838.1631s-.2822-.0547-.3838-.1631Zm2.4961,0c-.1016-.1094-.1533-.2432-.1533-.4033s.0518-.2949.1533-.4033c.1025-.1094.2305-.1631.3848-.1631.1533,0,.2812.0537.3838.1631.1025.1084.1543.2432.1543.4033s-.0518.2939-.1543.4033c-.1025.1084-.2305.1631-.3838.1631-.1543,0-.2822-.0547-.3848-.1631Zm2.4873,0c-.1025-.1094-.1533-.2432-.1533-.4033s.0508-.2949.1533-.4033c.1025-.1094.2305-.1631.3848-.1631.1533,0,.2812.0537.3838.1631.1025.1084.1533.2432.1533.4033s-.0508.2939-.1533.4033c-.1025.1084-.2305.1631-.3838.1631-.1543,0-.2822-.0547-.3848-.1631Z"/><path class="cls-1" d="m55.7047,106.6636c-.3848-.2529-.668-.5811-.8506-.9844-.1816-.4033-.2734-.833-.2734-1.2871v-.1631c0-.4609.0928-.8936.2783-1.2969s.4658-.7295.8408-.9795c.374-.25.834-.374,1.3779-.374.5244,0,.9717.1152,1.3398.3457s.6436.5342.8252.9121c.1826.3779.2744.7871.2744,1.2295v.4033h-4.5518v-.6631h3.9082l-.2021.3555c0-.3652-.0586-.6836-.1777-.9561-.1182-.2715-.2988-.4814-.542-.6289-.2432-.1465-.5352-.2207-.874-.2207-.3652,0-.6709.083-.917.25-.2471.166-.4307.3955-.5527.6865-.1211.291-.1816.6289-.1816,1.0127,0,.3848.0615.7227.1865,1.0137s.3135.5215.5674.6914c.252.1699.5713.2539.9551.2539.3965,0,.7246-.0879.9844-.2637.2588-.1758.418-.3916.4756-.6484h.835c-.1084.5254-.3662.9385-.7725,1.2393-.4072.3008-.9141.4512-1.5225.4512-.5703,0-1.0469-.127-1.4307-.3789Z"/><path class="cls-1" d="m61.6969,104.1714l-.0283.1914-1.7285-2.6113h.9795l1.2578,1.9395h.1348l1.1904-1.9395h.9121l-1.6328,2.5449.0293-.1729,1.9307,2.7461h-.9795l-1.46-2.0938h-.1348l-1.4023,2.0938h-.9121l1.8438-2.6982Z"/><path class="cls-1" d="m65.1832,101.7515h1.6709v.7002h-1.6709v-.7002Zm.5908-.999c-.0996-.1025-.1494-.2373-.1494-.4033,0-.1729.0498-.3105.1494-.4131.0986-.1025.2441-.1533.4365-.1533s.3389.0508.4414.1533.1543.2373.1543.4033c0,.1729-.0518.3105-.1543.4131s-.249.1533-.4414.1533-.3379-.0508-.4365-.1533Zm.1963.999h.8838v5.1182h-.8838v-5.1182Z"/><path class="cls-1" d="m68.5387,106.5962c-.3682-.2852-.5586-.6777-.5713-1.1768h.8359c.0059.2373.1133.4375.3213.6006s.5264.2441.9561.2441c.4092,0,.7266-.0791.9502-.2393.2246-.1602.3369-.3682.3369-.625,0-.2168-.082-.3867-.2451-.5088-.1631-.1211-.4248-.2012-.7832-.2402l-.5664-.0576c-.5059-.0576-.9043-.208-1.1953-.4512-.292-.2432-.4375-.5723-.4375-.9893,0-.3193.083-.5967.25-.8301.166-.2344.3955-.4131.6865-.5381s.626-.1875,1.0039-.1875c.5889,0,1.0576.1318,1.4062.3936.3496.2627.5303.6377.543,1.124h-.835c-.0137-.2236-.1143-.4062-.3027-.5479-.1895-.1406-.46-.2109-.8115-.2109-.3457,0-.6162.0742-.8115.2207-.1953.1475-.293.3398-.293.5762,0,.1992.0684.3574.2061.4756s.3535.1934.6484.2256l.5566.0576c.5703.0576,1.0146.2119,1.335.4609.3203.25.4805.5928.4805,1.0273,0,.3076-.0898.5859-.2686.8359-.1797.25-.4307.4434-.7539.5811s-.6904.2061-1.0996.2061c-.6602,0-1.1738-.1426-1.542-.4268Z"/><path class="cls-1" d="m72.7603,101.7515h3.5146v.6621h-3.5146v-.6621Zm1.7334,5.0029c-.2725-.1152-.4805-.3027-.625-.5615-.1436-.2598-.2158-.6064-.2158-1.042v-4.9648h.8457v5.0703c0,.2812.0762.498.2305.6484.1533.1504.3682.2256.6426.2256h.9033v.7969h-.7881c-.3896,0-.7217-.0576-.9932-.1729Z"/><path class="cls-1" d="m77.734,106.4282c-.3262-.3975-.4893-.9668-.4893-1.71v-2.9766h.8828v3.1592c0,.4102.1104.7295.332.96.2207.2305.5195.3457.8975.3457.3965,0,.7168-.126.96-.3789s.3652-.5938.3652-1.0225v-3.0635h.8936v5.1279h-.7012v-2.1895h.1152c0,.7617-.1543,1.3428-.4609,1.7432-.3076.4004-.7627.5996-1.3643.5996h-.0381c-.6016,0-1.0664-.1982-1.3926-.5947Z"/><path class="cls-1" d="m82.1129,108.0317h.5479c.2432,0,.4307-.0654.5615-.1973.1309-.1309.1973-.3213.1973-.5713v-5.5117h.8447v5.3779c0,.4219-.0576.7568-.1729,1.0029s-.2988.4238-.5518.5332c-.2529.1084-.5908.1631-1.0137.1631h-.4131v-.7969Zm.4902-6.2803h1.6611v.7002h-1.6611v-.7002Zm.5811-1.0762c-.0996-.1025-.1494-.2363-.1494-.4033,0-.1729.0498-.3105.1494-.4131.0986-.1016.2451-.1533.4365-.1533.1924,0,.3379.0498.4375.1484.0986.0996.1484.2354.1484.4082,0,.167-.0498.3027-.1484.4082-.0996.1055-.2451.1592-.4375.1592-.1914,0-.3379-.0518-.4365-.1543Z"/><path class="cls-1" d="m86.5689,106.6636c-.3848-.2529-.668-.5811-.8506-.9844-.1816-.4033-.2734-.833-.2734-1.2871v-.1631c0-.4609.0928-.8936.2783-1.2969s.4658-.7295.8408-.9795c.374-.25.834-.374,1.3779-.374.5244,0,.9717.1152,1.3398.3457s.6436.5342.8252.9121c.1826.3779.2744.7871.2744,1.2295v.4033h-4.5518v-.6631h3.9082l-.2021.3555c0-.3652-.0586-.6836-.1777-.9561-.1182-.2715-.2988-.4814-.542-.6289-.2432-.1465-.5352-.2207-.874-.2207-.3652,0-.6709.083-.917.25-.2471.166-.4307.3955-.5527.6865-.1211.291-.1816.6289-.1816,1.0127,0,.3848.0615.7227.1865,1.0137s.3135.5215.5674.6914c.252.1699.5713.2539.9551.2539.3965,0,.7246-.0879.9844-.2637.2588-.1758.418-.3916.4756-.6484h.835c-.1084.5254-.3662.9385-.7725,1.2393-.4072.3008-.9141.4512-1.5225.4512-.5703,0-1.0469-.127-1.4307-.3789Z"/><path class="cls-1" d="m91.1305,106.7065c-.1025-.1094-.1543-.2432-.1543-.4033s.0518-.2949.1543-.4033c.1016-.1094.2305-.1631.3838-.1631s.2812.0537.3838.1631c.1025.1084.1543.2432.1543.4033s-.0518.2939-.1543.4033c-.1025.1084-.2305.1631-.3838.1631s-.2822-.0547-.3838-.1631Z"/><path class="cls-1" d="m93.8961,106.6636c-.416-.2529-.7295-.583-.9404-.9893-.2119-.4072-.3174-.834-.3174-1.2822v-.1631c0-.4482.1094-.876.3271-1.2822.2168-.4062.5342-.7363.9502-.9893s.8994-.3789,1.4502-.3789h4.5908c.5498,0,1.0332.126,1.4492.3789.417.2529.7334.583.9512.9893s.3262.834.3262,1.2822v.1631c0,.4482-.1055.875-.3164,1.2822-.2119.4062-.5254.7363-.9414.9893-.416.252-.9062.3789-1.4688.3789h-4.5908c-.5635,0-1.0537-.127-1.4697-.3789Zm7.0488-.6729c.2822-.1689.4951-.4014.6387-.6963.1445-.2939.2168-.624.2168-.9893,0-.3643-.0762-.6943-.2256-.9883-.1514-.2949-.3672-.5254-.6484-.6924-.2822-.166-.6055-.249-.9697-.249-.3721,0-.6963.083-.9756.249-.2783.167-.4941.3975-.6475.6924-.1543.2939-.2305.624-.2305.9883,0,.3652.0732.6953.2207.9893.1475.2949.3613.5273.6436.6963.2812.1699.6113.2549.9893.2549.377,0,.707-.085.9883-.2549Z"/><path class="cls-1" d="m103.8258,101.7515h.7002v2.1895h-.1152c0-.7617.1592-1.3428.4756-1.7432.3174-.4004.792-.6006,1.4258-.6006h.0391c.6338,0,1.1094.2002,1.4258.6006.3174.4004.4756.9814.4756,1.7432v2.9287h-.8838v-3.1211c0-.4092-.1152-.7344-.3457-.9746s-.541-.3604-.9316-.3604c-.416,0-.75.1279-1.0029.3838-.2529.2568-.3799.5928-.3799,1.0088v3.0635h-.8828v-5.1182Z"/><path class="cls-1" d="m109.0113,99.8589h1.6035v.7012h-1.6035v-.7012Zm.7207,0h.8828v7.0107h-.8828v-7.0107Z"/><path class="cls-1" d="m111.691,101.7515h1.6709v.7002h-1.6709v-.7002Zm.5908-.999c-.0996-.1025-.1494-.2373-.1494-.4033,0-.1729.0498-.3105.1494-.4131.0986-.1025.2441-.1533.4365-.1533s.3389.0508.4414.1533.1543.2373.1543.4033c0,.1729-.0518.3105-.1543.4131s-.249.1533-.4414.1533-.3379-.0508-.4365-.1533Zm.1963.999h.8838v5.1182h-.8838v-5.1182Z"/><path class="cls-1" d="m114.9088,101.7515h.7002v2.1895h-.1152c0-.7617.1592-1.3428.4756-1.7432.3174-.4004.792-.6006,1.4258-.6006h.0391c.6338,0,1.1094.2002,1.4258.6006.3174.4004.4756.9814.4756,1.7432v2.9287h-.8838v-3.1211c0-.4092-.1152-.7344-.3457-.9746s-.541-.3604-.9316-.3604c-.416,0-.75.1279-1.0029.3838-.2529.2568-.3799.5928-.3799,1.0088v3.0635h-.8828v-5.1182Z"/><path class="cls-1" d="m121.5631,106.6636c-.3848-.2529-.668-.5811-.8506-.9844-.1816-.4033-.2734-.833-.2734-1.2871v-.1631c0-.4609.0928-.8936.2783-1.2969s.4658-.7295.8408-.9795c.374-.25.834-.374,1.3779-.374.5244,0,.9717.1152,1.3398.3457s.6436.5342.8252.9121c.1826.3779.2744.7871.2744,1.2295v.4033h-4.5518v-.6631h3.9082l-.2021.3555c0-.3652-.0586-.6836-.1777-.9561-.1182-.2715-.2988-.4814-.542-.6289-.2432-.1465-.5352-.2207-.874-.2207-.3652,0-.6709.083-.917.25-.2471.166-.4307.3955-.5527.6865-.1211.291-.1816.6289-.1816,1.0127,0,.3848.0615.7227.1865,1.0137s.3135.5215.5674.6914c.252.1699.5713.2539.9551.2539.3965,0,.7246-.0879.9844-.2637.2588-.1758.418-.3916.4756-.6484h.835c-.1084.5254-.3662.9385-.7725,1.2393-.4072.3008-.9141.4512-1.5225.4512-.5703,0-1.0469-.127-1.4307-.3789Z"/></g><path class="cls-2" d="m100.9439,105.9918c.2818-.1696.4947-.4018.6387-.6964.144-.2943.216-.6242.216-.9891s-.0753-.6946-.2257-.9891-.3666-.525-.6481-.6915c-.2819-.1664-.6051-.2496-.97-.2496-.3715,0-.6962.0833-.9747.2496-.2785.1665-.4945.3971-.6482.6915s-.2306.6242-.2306.9891.0736.6948.2209.9891c.1473.2946.3618.5267.6436.6964.2816.1696.6112.2545.9891.2545s.7073-.0848.9891-.2545Z"/></g><g><g><path class="cls-1" d="m183.2379,103.021h3.6533v.5977h-3.6533v-.5977Zm1.4824-1.6143h.6797v1.876h-.6797v-1.876Zm0,2.9082h.6797v4.709h-.6797v-4.709Z"/><path class="cls-1" d="m189.0211,103.021h.5977v1.8838l-.1475-.0088c.0225-.4473.1191-.8213.291-1.1221.1719-.2998.3955-.5254.6719-.6758.2754-.1494.5859-.2246.9297-.2246.4092,0,.7754.1016,1.0977.3066s.5703.4795.7451.8232.2617.7207.2617,1.1299v.1396c0,.4092-.0908.7861-.2744,1.1309-.1826.3438-.4355.6182-.7568.8223-.3223.2051-.6855.3076-1.0898.3076-.333,0-.6406-.0723-.9219-.2168s-.5127-.373-.6953-.6846c-.1836-.3105-.2832-.7012-.2998-1.1709l.3447.6475v2.915h-.7539v-6.0029Zm2.9893,3.6367c.2246-.1426.3965-.3389.5166-.5898s.1797-.541.1797-.8682c0-.3223-.0596-.6094-.1797-.8604s-.292-.4473-.5166-.5898c-.2236-.1416-.4824-.2129-.7773-.2129-.2734,0-.5234.0615-.75.1846-.2266.1221-.4062.2979-.54.5234-.1338.2275-.2012.4902-.2012.791v.377c0,.2949.0684.5527.2051.7734.1357.2217.3174.3906.5449.5078.2266.1182.4736.1768.7412.1768.2949,0,.5537-.0713.7773-.2129Z"/><path class="cls-1" d="m195.1812,107.2349c-.3281-.1992-.583-.4727-.7656-.8193-.1836-.3467-.2744-.7275-.2744-1.1426v-.1396c0-.4141.0879-.7939.2656-1.1377.1777-.3447.4287-.6172.7539-.8193.3242-.2021.6914-.3027,1.1016-.3027.3496,0,.6602.0732.9336.2207s.4941.3701.6631.668c.1699.2969.2656.6699.2871,1.1172l-.3193-.5234v-2.9492h.7529v5.9795h-.5977v-1.9414h.2217c-.0166.4756-.1152.8682-.2949,1.1797-.1807.3115-.4102.541-.6885.6885-.2783.1465-.5898.2207-.9336.2207-.4092,0-.7783-.0996-1.1055-.2988Zm1.9492-.5527c.2236-.126.4014-.3037.5322-.5322.1309-.2295.1963-.4941.1963-.7949v-.3848c0-.29-.0664-.5439-.2002-.7617-.1338-.2188-.3145-.3848-.541-.5-.2266-.1143-.4736-.1719-.7412-.1719-.2949,0-.5537.0693-.7783.209-.2236.1387-.3965.334-.5195.5859-.123.251-.1846.54-.1846.8682,0,.333.0625.626.1885.8799s.3018.4492.5283.5859.4844.2051.7744.2051c.2725,0,.5215-.0635.7451-.1885Z"/><path class="cls-1" d="m199.4146,103.0698h2.7363v.5654h-2.7363v-.5654Zm.9912-1.3516c.251-.2295.625-.3438,1.1221-.3438h.541v.6309h-.6719c-.207,0-.3662.0566-.4746.1719-.1094.1143-.1641.2725-.1641.4746v4.7344h-.7295v-4.6113c0-.4756.126-.8271.377-1.0566Z"/><path class="cls-1" d="m204.5094,103.021h.5977v1.8672h-.0977c0-.6387.127-1.1318.3809-1.4785s.6348-.5205,1.1426-.5205h.0322c.5078,0,.8887.1738,1.1426.5205s.3809.8398.3809,1.4785h-.2295c0-.6387.1299-1.1318.3896-1.4785.2588-.3467.6426-.5205,1.1504-.5205h.0332c.5078,0,.8916.1738,1.1504.5205.2598.3467.3896.8398.3896,1.4785v2.498h-.7539v-2.6699c0-.3555-.0889-.6318-.2666-.832-.1768-.1992-.4238-.2988-.7412-.2988-.333,0-.5977.1055-.7939.3154-.1973.2109-.2949.499-.2949.8643v2.6211h-.7617v-2.6699c0-.3555-.0889-.6318-.2666-.832-.1777-.1992-.4248-.2988-.7412-.2988-.333,0-.5977.1055-.7939.3154-.1973.2109-.2949.499-.2949.8643v2.6211h-.7539v-4.3652Z"/><path class="cls-1" d="m212.2867,107.1284c-.2812-.249-.4219-.5967-.4219-1.0449,0-.4531.1533-.7998.459-1.04s.7422-.3604,1.3105-.3604h1.2041v.5654h-1.2373c-.3164,0-.5625.0762-.7373.2295-.1748.1523-.2617.3545-.2617.6055,0,.252.0869.4512.2617.5986s.4209.2207.7373.2207c.3174,0,.585-.0889.8027-.2656.2188-.1777.3359-.4658.3525-.8643l.2129.2949c-.0439.4746-.1943.832-.4502,1.0723-.2568.2402-.6143.3604-1.0732.3604-.4912,0-.8779-.124-1.1592-.3721Zm2.6006-1.0527h-.1309v-1.5156c0-.3057-.0791-.5361-.2373-.6914-.1592-.1562-.3906-.2334-.6963-.2334-.4971,0-.9805.0156-1.4502.0488v-.6631c.3555-.0332.7539-.0498,1.1963-.0498.6768,0,1.166.126,1.4658.377.3008.251.4502.6748.4502,1.2695v2.7686h-.5977v-1.3105Z"/><path class="cls-1" d="m216.7545,103.021h.5977v1.8672h-.0977c0-.6494.1348-1.1455.4053-1.4863.2705-.3418.6758-.5127,1.2158-.5127h.0332c.54,0,.9463.1709,1.2158.5127.2705.3408.4062.8369.4062,1.4863v2.498h-.7539v-2.6621c0-.3496-.0986-.627-.2949-.8311-.1963-.2051-.4619-.3076-.7949-.3076-.3545,0-.6396.1094-.8555.3281-.2158.2178-.3232.5049-.3232.8594v2.6133h-.7539v-4.3652Z"/><path class="cls-1" d="m222.1197,107.0093c-.2783-.3379-.418-.8242-.418-1.458v-2.5391h.7539v2.6953c0,.3496.0938.6221.2822.8184.1885.1973.4443.2949.7666.2949.3379,0,.6113-.1074.8184-.3232.208-.2158.3115-.5068.3115-.8721v-2.6133h.7617v4.374h-.5977v-1.8672h.0977c0,.6494-.1309,1.1455-.3926,1.4863-.2627.3418-.6504.5117-1.1631.5117h-.0332c-.5127,0-.9092-.1689-1.1875-.5078Z"/><path class="cls-1" d="m226.7916,107.1284c-.2812-.249-.4219-.5967-.4219-1.0449,0-.4531.1533-.7998.459-1.04s.7422-.3604,1.3105-.3604h1.2041v.5654h-1.2373c-.3164,0-.5625.0762-.7373.2295-.1748.1523-.2617.3545-.2617.6055,0,.252.0869.4512.2617.5986s.4209.2207.7373.2207c.3174,0,.585-.0889.8027-.2656.2188-.1777.3359-.4658.3525-.8643l.2129.2949c-.0439.4746-.1943.832-.4502,1.0723-.2568.2402-.6143.3604-1.0732.3604-.4912,0-.8779-.124-1.1592-.3721Zm2.6006-1.0527h-.1309v-1.5156c0-.3057-.0791-.5361-.2373-.6914-.1592-.1562-.3906-.2334-.6963-.2334-.4971,0-.9805.0156-1.4502.0488v-.6631c.3555-.0332.7539-.0498,1.1963-.0498.6768,0,1.166.126,1.4658.377.3008.251.4502.6748.4502,1.2695v2.7686h-.5977v-1.3105Zm-.7939-5.3154h.7939l-.9004,1.6133h-.6152l.7217-1.6133Z"/><path class="cls-1" d="m230.6949,101.4067h1.3682v.5986h-1.3682v-.5986Zm.6143,0h.7539v5.9795h-.7539v-5.9795Z"/><path class="cls-1" d="m182.8199,118.2065h.4668c.208,0,.3672-.0566.4795-.168.1113-.1123.168-.2744.168-.4873v-4.7012h.7207v4.5859c0,.3604-.0488.6465-.1475.8564s-.2549.3613-.4707.4541-.5039.1396-.8643.1396h-.3525v-.6797Zm.418-5.3564h1.417v.5977h-1.417v-.5977Zm.4951-.918c-.084-.0869-.127-.2021-.127-.3438,0-.1475.043-.2646.127-.3525.085-.0869.209-.1309.373-.1309s.2881.042.373.127c.084.085.127.2012.127.3486,0,.1416-.043.2578-.127.3477-.085.0898-.209.1348-.373.1348s-.2881-.043-.373-.1309Z"/><path class="cls-1" d="m186.6207,117.0395c-.3281-.2158-.5693-.4961-.7246-.8398-.1562-.3438-.2334-.71-.2334-1.0977v-.1396c0-.3926.0791-.7617.2373-1.1055s.3975-.6221.7168-.835.7109-.3193,1.1748-.3193c.4482,0,.8291.0977,1.1426.2949.3145.1963.5488.4551.7051.7773.1553.3223.2334.6719.2334,1.0488v.3438h-3.8828v-.5654h3.334l-.1719.3037c0-.3115-.0508-.583-.1523-.8154-.1006-.2314-.2549-.4102-.4629-.5361-.207-.126-.4551-.1885-.7451-.1885-.3105,0-.5723.0713-.7822.2129-.21.1426-.3672.3369-.4707.5859-.1035.248-.1553.5361-.1553.8643,0,.3271.0527.6152.1592.8633.1064.249.2676.4453.4834.5898.2158.1455.4873.2178.8154.2178.3379,0,.6182-.0752.8389-.2256.2217-.1504.3564-.334.4053-.5527h.7129c-.0928.4473-.3125.7998-.6592,1.0566s-.7793.3848-1.2979.3848c-.4863,0-.8936-.1084-1.2207-.3232Z"/><path class="cls-1" d="m192.4928,112.8501h.5977v1.8672h-.0977c0-.6387.127-1.1318.3809-1.4785s.6348-.5205,1.1426-.5205h.0322c.5078,0,.8887.1738,1.1426.5205s.3809.8398.3809,1.4785h-.2295c0-.6387.1299-1.1318.3896-1.4785.2588-.3467.6426-.5205,1.1504-.5205h.0332c.5078,0,.8916.1738,1.1504.5205.2598.3467.3896.8398.3896,1.4785v2.498h-.7539v-2.6699c0-.3555-.0889-.6318-.2666-.832-.1768-.1992-.4238-.2988-.7412-.2988-.333,0-.5977.1055-.7939.3154-.1973.2109-.2949.499-.2949.8643v2.6211h-.7617v-2.6699c0-.3555-.0889-.6318-.2666-.832-.1777-.1992-.4248-.2988-.7412-.2988-.333,0-.5977.1055-.7939.3154-.1973.2109-.2949.499-.2949.8643v2.6211h-.7539v-4.3652Z"/><path class="cls-1" d="m200.2252,112.8501h.5977v1.8018h-.0322c0-.6338.1387-1.1006.417-1.4004.2793-.3008.7051-.4512,1.2783-.4512h.1396v.6797h-.2705c-.4424,0-.7822.1162-1.0195.3486-.2383.2324-.3564.5723-.3564,1.0195v2.3672h-.7539v-4.3652Z"/><path class="cls-1" d="m202.8209,112.8501h2.998v.5645h-2.998v-.5645Zm1.4785,4.2666c-.2314-.0977-.4092-.2578-.5322-.4785-.123-.2217-.1846-.5176-.1846-.8887v-4.2354h.7217v4.3252c0,.2402.0654.4248.1963.5527.1309.1289.3135.1924.5488.1924h.7695v.6797h-.6719c-.333,0-.6152-.0488-.8477-.1475Z"/><path class="cls-1" d="m206.2047,112.8501h.7861l1.4658,4.3652h-.7529l-1.499-4.3652Zm1.6865,3.7676h.918v.5977h-.918v-.5977Zm1.6465-3.7676h.7373l-1.3018,4.3652h-.7129l1.2773-4.3652Z"/><path class="cls-1" d="m210.5289,112.8501h.7705l1.499,4.2666h-.7051l-1.5645-4.2666Zm.2949,5.3887h.6143c.2842,0,.5039-.0547.6602-.1631.1553-.1094.2744-.3037.3555-.582l1.3926-4.6436h.7373l-1.4658,4.8398c-.0879.29-.2109.5234-.3691.7012-.1582.1768-.3496.3096-.5732.3965-.2236.0879-.4834.1318-.7783.1318h-.5732v-.6807Zm1.3516-1.752h.918v.6299h-.918v-.6299Zm.7451-5.8975h.7949l-.9014,1.6133h-.6143l.7207-1.6133Z"/><path class="cls-1" d="m214.9439,117.0757c-.0879-.0928-.1318-.207-.1318-.3438s.0439-.251.1318-.3438c.0869-.0928.1963-.1396.3271-.1396s.2402.0469.3281.1396c.0869.0928.1309.207.1309.3438s-.0439.251-.1309.3438c-.0879.0938-.1973.1396-.3281.1396s-.2402-.0459-.3271-.1396Zm2.1289,0c-.0869-.0928-.1309-.207-.1309-.3438s.0439-.251.1309-.3438c.0879-.0928.1973-.1396.3281-.1396s.2402.0469.3271.1396c.0879.0928.1318.207.1318.3438s-.0439.251-.1318.3438c-.0869.0938-.1963.1396-.3271.1396s-.2402-.0459-.3281-.1396Zm2.1221,0c-.0879-.0928-.1318-.207-.1318-.3438s.0439-.251.1318-.3438c.0869-.0928.1963-.1396.3271-.1396s.2402.0469.3281.1396c.0869.0928.1309.207.1309.3438s-.0439.251-.1309.3438c-.0879.0938-.1973.1396-.3281.1396s-.2402-.0459-.3271-.1396Z"/><path class="cls-1" d="m184.2291,126.8686c-.3281-.2158-.5693-.4961-.7246-.8398-.1562-.3438-.2334-.71-.2334-1.0977v-.1396c0-.3926.0791-.7617.2373-1.1055s.3975-.6221.7168-.835.7109-.3193,1.1748-.3193c.4482,0,.8291.0977,1.1426.2949.3145.1963.5488.4551.7051.7773.1553.3223.2334.6719.2334,1.0488v.3438h-3.8828v-.5654h3.334l-.1719.3037c0-.3115-.0508-.583-.1523-.8154-.1006-.2314-.2549-.4102-.4629-.5361-.207-.126-.4551-.1885-.7451-.1885-.3105,0-.5723.0713-.7822.2129-.21.1426-.3672.3369-.4707.5859-.1035.248-.1553.5361-.1553.8643,0,.3271.0527.6152.1592.8633.1064.249.2676.4453.4834.5898.2158.1455.4873.2178.8154.2178.3379,0,.6182-.0752.8389-.2256.2217-.1504.3564-.334.4053-.5527h.7129c-.0928.4473-.3125.7998-.6592,1.0566s-.7793.3848-1.2979.3848c-.4863,0-.8936-.1084-1.2207-.3232Z"/><path class="cls-1" d="m189.3404,124.7427l-.0254.1641-1.4736-2.2275h.835l1.0732,1.6543h.1143l1.0156-1.6543h.7783l-1.3926,2.1699.0254-.1475,1.6455,2.3428h-.835l-1.2451-1.7852h-.1143l-1.1963,1.7852h-.7783l1.5732-2.3018Z"/><path class="cls-1" d="m192.3131,122.6792h1.4258v.5977h-1.4258v-.5977Zm.5039-.8525c-.085-.0869-.127-.2021-.127-.3438,0-.1475.042-.2646.127-.3525.085-.0869.209-.1309.373-.1309s.2891.0439.377.1309c.0869.0879.1309.2021.1309.3447,0,.1475-.0439.2646-.1309.3516-.0879.0879-.2129.1309-.377.1309s-.2881-.043-.373-.1309Zm.168.8525h.7539v4.3652h-.7539v-4.3652Z"/><path class="cls-1" d="m195.1764,126.811c-.3145-.2432-.4766-.5771-.4873-1.0029h.7129c.0049.2012.0967.3721.2734.5117.1777.1387.4492.209.8154.209.3496,0,.6201-.0684.8105-.2051.1914-.1367.2871-.3145.2871-.5322,0-.1855-.0693-.3311-.209-.4346s-.3613-.1719-.668-.2041l-.4824-.0498c-.4316-.0488-.7715-.1768-1.0205-.3848-.248-.207-.3721-.4883-.3721-.8438,0-.2725.0703-.5088.2129-.708.1416-.1992.3369-.3525.5859-.459.248-.1064.5332-.1602.8555-.1602.502,0,.9023.1123,1.2002.3359.2969.2246.4512.5439.4629.959h-.7129c-.0107-.1914-.0967-.3467-.2578-.4678-.1611-.1191-.3926-.1797-.6924-.1797-.2949,0-.5254.0625-.6924.1885-.166.126-.25.2891-.25.4912,0,.1689.0596.3047.1768.4053.1172.1016.3018.165.5527.1924l.4746.0498c.4863.0488.8662.1797,1.1387.3926.2734.2129.4102.5059.4102.877,0,.2617-.0771.499-.2295.7119-.1533.2139-.3672.3789-.6436.4961-.2754.1172-.5879.1758-.9375.1758-.5625,0-1.001-.1211-1.3145-.3643Z"/><path class="cls-1" d="m198.775,122.6792h2.998v.5645h-2.998v-.5645Zm1.4785,4.2666c-.2314-.0977-.4092-.2578-.5322-.4785-.123-.2217-.1846-.5176-.1846-.8887v-4.2354h.7217v4.3252c0,.2402.0654.4248.1963.5527.1309.1289.3135.1924.5488.1924h.7695v.6797h-.6719c-.333,0-.6152-.0488-.8477-.1475Z"/><path class="cls-1" d="m203.0181,126.6675c-.2783-.3379-.418-.8242-.418-1.458v-2.5391h.7539v2.6953c0,.3496.0938.6221.2822.8184.1885.1973.4443.2949.7666.2949.3379,0,.6113-.1074.8184-.3232.208-.2158.3115-.5068.3115-.8721v-2.6133h.7617v4.374h-.5977v-1.8672h.0977c0,.6494-.1309,1.1455-.3926,1.4863-.2627.3418-.6504.5117-1.1631.5117h-.0332c-.5127,0-.9092-.1689-1.1875-.5078Z"/><path class="cls-1" d="m206.7525,128.0356h.4668c.208,0,.3672-.0566.4795-.168.1113-.1123.168-.2744.168-.4873v-4.7012h.7207v4.5859c0,.3604-.0488.6465-.1475.8564s-.2549.3613-.4707.4541-.5039.1396-.8643.1396h-.3525v-.6797Zm.418-5.3564h1.417v.5977h-1.417v-.5977Zm.4951-.918c-.084-.0869-.127-.2021-.127-.3438,0-.1475.043-.2646.127-.3525.085-.0869.209-.1309.373-.1309s.2881.042.373.127c.084.085.127.2012.127.3486,0,.1416-.043.2578-.127.3477-.085.0898-.209.1348-.373.1348s-.2881-.043-.373-.1309Z"/><path class="cls-1" d="m210.5533,126.8686c-.3281-.2158-.5693-.4961-.7246-.8398-.1562-.3438-.2334-.71-.2334-1.0977v-.1396c0-.3926.0791-.7617.2373-1.1055s.3975-.6221.7168-.835.7109-.3193,1.1748-.3193c.4482,0,.8291.0977,1.1426.2949.3145.1963.5488.4551.7051.7773.1553.3223.2334.6719.2334,1.0488v.3438h-3.8828v-.5654h3.334l-.1719.3037c0-.3115-.0508-.583-.1523-.8154-.1006-.2314-.2549-.4102-.4629-.5361-.207-.126-.4551-.1885-.7451-.1885-.3105,0-.5723.0713-.7822.2129-.21.1426-.3672.3369-.4707.5859-.1035.248-.1553.5361-.1553.8643,0,.3271.0527.6152.1592.8633.1064.249.2676.4453.4834.5898.2158.1455.4873.2178.8154.2178.3379,0,.6182-.0752.8389-.2256.2217-.1504.3564-.334.4053-.5527h.7129c-.0928.4473-.3125.7998-.6592,1.0566s-.7793.3848-1.2979.3848c-.4863,0-.8936-.1084-1.2207-.3232Z"/><path class="cls-1" d="m214.4439,126.9048c-.0869-.0928-.1309-.207-.1309-.3438s.0439-.251.1309-.3438c.0879-.0928.1973-.1396.3281-.1396s.2402.0469.3271.1396c.0879.0928.1318.207.1318.3438s-.0439.251-.1318.3438c-.0869.0938-.1963.1396-.3271.1396s-.2402-.0459-.3281-.1396Z"/><path class="cls-1" d="m216.8023,126.8686c-.3545-.2158-.6221-.4971-.8027-.8438-.1797-.3467-.2695-.7109-.2695-1.0938v-.1396c0-.3818.0928-.7461.2783-1.0928s.4561-.6279.8105-.8438.7676-.3232,1.2373-.3232h3.915c.4688,0,.8818.1074,1.2363.3232.3555.2158.625.4971.8105.8438.1865.3467.2793.7109.2793,1.0928v.1396c0,.3828-.0908.7471-.2705,1.0938-.1807.3467-.4482.6279-.8027.8438-.3555.2148-.7725.3232-1.2529.3232h-3.915c-.4814,0-.8984-.1084-1.2539-.3232Zm6.0127-.5732c.2402-.1455.4209-.3428.5439-.5947.123-.251.1846-.5322.1846-.8428,0-.3115-.0645-.5928-.1924-.8438-.1289-.251-.3125-.4482-.5527-.5898-.2402-.1426-.5166-.2129-.8271-.2129-.3174,0-.5938.0703-.832.2129-.2373.1416-.4219.3389-.5527.5898s-.1963.5322-.1963.8438c0,.3105.0625.5918.1885.8428.125.252.3086.4492.5488.5947.2402.1445.5215.2168.8438.2168s.6025-.0723.8438-.2168Z"/><path class="cls-1" d="m225.2721,122.6792h.5977v1.8672h-.0977c0-.6494.1348-1.1455.4053-1.4863.2705-.3418.6758-.5127,1.2158-.5127h.0332c.54,0,.9463.1709,1.2158.5127.2705.3408.4062.8369.4062,1.4863v2.498h-.7539v-2.6621c0-.3496-.0986-.627-.2949-.8311-.1963-.2051-.4619-.3076-.7949-.3076-.3545,0-.6396.1094-.8555.3281-.2158.2178-.3232.5049-.3232.8594v2.6133h-.7539v-4.3652Z"/><path class="cls-1" d="m229.6949,121.0649h1.3682v.5986h-1.3682v-.5986Zm.6143,0h.7539v5.9795h-.7539v-5.9795Z"/><path class="cls-1" d="m231.9801,122.6792h1.4258v.5977h-1.4258v-.5977Zm.5039-.8525c-.085-.0869-.127-.2021-.127-.3438,0-.1475.042-.2646.127-.3525.085-.0869.209-.1309.373-.1309s.2891.0439.377.1309c.0869.0879.1309.2021.1309.3447,0,.1475-.0439.2646-.1309.3516-.0879.0879-.2129.1309-.377.1309s-.2881-.043-.373-.1309Zm.168.8525h.7539v4.3652h-.7539v-4.3652Z"/><path class="cls-1" d="m234.7242,122.6792h.5977v1.8672h-.0977c0-.6494.1348-1.1455.4053-1.4863.2705-.3418.6758-.5127,1.2158-.5127h.0332c.54,0,.9463.1709,1.2158.5127.2705.3408.4062.8369.4062,1.4863v2.498h-.7539v-2.6621c0-.3496-.0986-.627-.2949-.8311-.1963-.2051-.4619-.3076-.7949-.3076-.3545,0-.6396.1094-.8555.3281-.2158.2178-.3232.5049-.3232.8594v2.6133h-.7539v-4.3652Z"/><path class="cls-1" d="m240.4,126.8686c-.3281-.2158-.5693-.4961-.7246-.8398-.1562-.3438-.2334-.71-.2334-1.0977v-.1396c0-.3926.0791-.7617.2373-1.1055s.3975-.6221.7168-.835.7109-.3193,1.1748-.3193c.4482,0,.8291.0977,1.1426.2949.3145.1963.5488.4551.7051.7773.1553.3223.2334.6719.2334,1.0488v.3438h-3.8828v-.5654h3.334l-.1719.3037c0-.3115-.0508-.583-.1523-.8154-.1006-.2314-.2549-.4102-.4629-.5361-.207-.126-.4551-.1885-.7451-.1885-.3105,0-.5723.0713-.7822.2129-.21.1426-.3672.3369-.4707.5859-.1035.248-.1553.5361-.1553.8643,0,.3271.0527.6152.1592.8633.1064.249.2676.4453.4834.5898.2158.1455.4873.2178.8154.2178.3379,0,.6182-.0752.8389-.2256.2217-.1504.3564-.334.4053-.5527h.7129c-.0928.4473-.3125.7998-.6592,1.0566s-.7793.3848-1.2979.3848c-.4863,0-.8936-.1084-1.2207-.3232Z"/></g><path class="cls-2" d="m222.8145,126.2939c.2403-.1447.4219-.3427.5448-.5939.1228-.251.1843-.5324.1843-.8436s-.0642-.5925-.1925-.8436-.3127-.4478-.5528-.5898c-.2405-.1419-.5161-.2129-.8273-.2129-.3168,0-.5938.071-.8313.2129-.2375.142-.4218.3387-.5529.5898s-.1966.5324-.1966.8436.0627.5926.1884.8436c.1256.2513.3086.4492.5489.5939.2402.1447.5213.217.8436.217s.6033-.0723.8436-.217Z"/></g></svg>