<?xml version="1.0" encoding="UTF-8"?><svg id="Vrstva_1" xmlns="http://www.w3.org/2000/svg" viewBox="0 0 330 282.0792"><defs><style>.cls-1{fill:#ededed;}.cls-2{fill:#b700ff;}</style></defs><rect class="cls-1" x="50" y="49.9463" width="115.5794" height="115.5794"/><rect class="cls-1" x="177.4571" y="49.9463" width="102.7566" height="182.1865"/><rect class="cls-1" x="50" y="177.216" width="115.5794" height="54.9168"/><rect class="cls-2" x="50" y="89.9613" width="115.5795" height=".2923"/><rect class="cls-2" x="50" y="125.2186" width="115.5795" height=".2923"/><rect class="cls-2" x="90.0148" y="49.9463" width=".2923" height="115.5795"/><rect class="cls-2" x="125.2722" y="49.9463" width=".2923" height="115.5795"/><rect class="cls-2" x="50" y="160.4761" width="115.5795" height=".2923"/><rect class="cls-2" x="160.5298" y="49.9463" width=".2923" height="115.5795"/><rect class="cls-2" x="50" y="54.7039" width="115.5795" height=".2923"/><rect class="cls-2" x="54.7575" y="49.9463" width=".2923" height="115.5795"/><rect class="cls-2" x="168.844" y="219.5828" width="6.275" height="6.275"/><rect class="cls-2" x="177.457" y="112.6208" width="102.7567" height=".2923"/><rect class="cls-2" x="177.457" y="169.1661" width="102.7567" height=".2923"/><rect class="cls-2" x="213.6547" y="49.9463" width=".2923" height="182.1865"/><rect class="cls-2" x="243.7237" y="49.9463" width=".2923" height="181.5858"/><rect class="cls-2" x="177.457" y="56.0753" width="102.7567" height=".2923"/><rect class="cls-2" x="273.7926" y="49.9463" width=".2923" height="182.1865"/><rect class="cls-2" x="177.457" y="225.7117" width="102.7567" height=".2923"/><rect class="cls-2" x="183.586" y="49.9463" width=".2923" height="182.1865"/><rect class="cls-2" x="50" y="196.6552" width="115.5795" height=".2923"/><rect class="cls-2" x="50" y="212.4015" width="115.5795" height=".2923"/><rect class="cls-2" x="89.66" y="177.1491" width=".2923" height="54.9838"/><rect class="cls-2" x="125.6272" y="177.216" width=".2923" height="54.9168"/><rect class="cls-2" x="53.6929" y="177.216" width=".2923" height="54.9168"/><rect class="cls-2" x="161.5944" y="177.216" width=".2923" height="54.9168"/><rect class="cls-2" x="50" y="180.9088" width="115.5795" height=".2923"/><rect class="cls-2" x="50" y="228.1479" width="115.5795" height=".2923"/><rect class="cls-2" x="50" y="155.5724" width="115.5795" height=".2923"/><rect class="cls-2" x="177.457" y="219.4367" width="102.7567" height=".2923"/><rect class="cls-2" x="50" y="224.3089" width="115.5795" height=".2923"/><g><g><path d="m53.4187,185.0433h4.3766v.7157h-4.3766v-.7157Zm1.7762-1.9336h.8143v2.2467h-.8143v-2.2467Zm0,3.4836h.8143v5.6425h-.8143v-5.6425Z"/><path d="m60.0759,185.0433h.7166v2.2566l-.1769-.01c.0262-.5366.1425-.9844.3484-1.3446.2063-.3592.4741-.6289.8048-.8098.3303-.1792.7017-.2696,1.1138-.2696.4904,0,.9288.1231,1.3147.3683s.6836.5746.8931.9863.314.8641.314,1.3545v.1665c0,.4904-.1095.9419-.3285,1.3536-.2194.4126-.5221.742-.908.9863-.3859.2461-.8211.3683-1.3052.3683-.399,0-.7668-.086-1.1039-.2597s-.6148-.447-.8342-.8198c-.219-.3728-.3384-.8397-.3579-1.4025l.4121.7745v3.4935h-.903v-7.1924Zm3.5817,4.3567c.2683-.1701.4746-.4063.6184-.7067s.2158-.6479.2158-1.0405c0-.3855-.0719-.7293-.2158-1.0297-.1439-.3013-.3502-.5366-.6184-.7076-.2683-.1692-.5786-.2552-.932-.2552-.3275,0-.6266.0742-.898.2208-.2714.1484-.4872.3574-.6479.6289-.1602.2714-.2402.5872-.2402.9473v.4506c0,.3529.0819.6623.2452.9274.1638.2651.3809.4678.6528.6089.2714.1402.5673.2099.8881.2099.3533,0,.6637-.0841.932-.2543Z"/><path d="m67.4552,190.0922c-.3922-.2389-.6981-.5664-.9175-.9817-.219-.4153-.3285-.8713-.3285-1.369v-.1665c0-.4977.1059-.9519.3189-1.3645.2122-.4126.5135-.7392.9026-.9808.3891-.2425.8293-.3637,1.3197-.3637.4189,0,.7917.0887,1.1188.2651s.5922.4434.7949.7999.3171.8026.3434,1.34l-.3827-.6289v-3.5324h.903v7.1635h-.7166v-2.3254h.2651c-.0195.5682-.1375,1.0405-.3533,1.4133s-.4904.6469-.8243.8234c-.3334.1773-.7062.2651-1.1184.2651-.4909,0-.9324-.1194-1.3251-.3574Zm2.3358-.6623c.2678-.1511.4809-.3637.6379-.6388s.2353-.5918.2353-.9519v-.4615c0-.3456-.0801-.6497-.2402-.9121-.1606-.2615-.3764-.4615-.6479-.599s-.5678-.2063-.8881-.2063c-.3533,0-.6641.0841-.932.2515-.2687.1665-.4759.3999-.6234.7003-.147.3022-.2208.6479-.2208,1.0405,0,.3999.0751.751.2258,1.055.1502.304.3615.5384.6329.7021.2714.1629.5804.2443.9274.2443.3271,0,.6248-.0742.8931-.2244Z"/><path d="m72.5285,185.1012h3.2777v.6777h-3.2777v-.6777Zm1.1876-1.6187c.3009-.2742.7487-.4117,1.3441-.4117h.6479v.7546h-.8048c-.2484,0-.4384.0688-.5691.2063s-.1963.3275-.1963.57v5.6714h-.8732v-5.5248c0-.5691.1502-.9917.4515-1.2658Z"/><path d="m78.632,185.0433h.7166v2.2367h-.1181c0-.7655.1525-1.3554.4565-1.7716.304-.4144.7605-.6225,1.369-.6225h.0394c.608,0,1.0645.2081,1.3685.6225.3045.4162.4565,1.0062.4565,1.7716h-.2746c0-.7655.1552-1.3554.466-1.7716.3108-.4144.7705-.6225,1.3789-.6225h.0389c.6085,0,1.0681.2081,1.3789.6225.3104.4162.466,1.0062.466,1.7716v2.9931h-.9026v-3.1994c0-.4253-.1068-.7564-.3189-.9953-.2126-.2389-.509-.3583-.8881-.3583-.3995,0-.7166.1258-.9519.3782-.2357.2515-.3533.5963-.3533,1.0351v3.1397h-.9125v-3.1994c0-.4253-.1068-.7564-.3189-.9953-.2126-.2389-.509-.3583-.8881-.3583-.3995,0-.7166.1258-.9519.3782-.2357.2515-.3533.5963-.3533,1.0351v3.1397h-.903v-5.2299Z"/><path d="m87.9498,189.9637c-.337-.2968-.5058-.7148-.5058-1.2505,0-.5429.1832-.9591.5497-1.2468s.8899-.4316,1.5703-.4316h1.4423v.6777h-1.4816c-.3796,0-.6741.0905-.8831.2742-.2095.1837-.314.4253-.314.7266,0,.3004.1045.5393.314.7166.209.1755.5035.2642.8831.2642.3791,0,.6999-.1068.9618-.3185.2615-.2126.4022-.5574.4216-1.0351l.2552.3529c-.0525.5691-.2321.9971-.5397,1.2848-.3076.2886-.7361.4325-1.2853.4325-.589,0-1.0519-.1484-1.3884-.447Zm3.1153-1.2604h-.157v-1.816c0-.3655-.095-.6424-.2846-.8288s-.4678-.2796-.8338-.2796c-.5954,0-1.1745.019-1.7373.0588v-.7944c.4253-.0398.903-.0597,1.4328-.0597.8112,0,1.3966.1511,1.7567.4524.3597.3004.5397.8071.5397,1.5201v3.3171h-.7166v-1.5699Z"/><path d="m93.3023,185.0433h.7166v2.2367h-.1181c0-.7781.162-1.3717.4859-1.7807s.8098-.6135,1.4572-.6135h.0394c.6474,0,1.1333.2045,1.4572.6135s.4859,1.0025.4859,1.7807v2.9931h-.903v-3.1886c0-.4198-.1176-.751-.3533-.9971-.2353-.2443-.5528-.3674-.9519-.3674-.4253,0-.7668.1303-1.0252.3927-.2588.2615-.3877.6044-.3877,1.0297v3.1307h-.903v-5.2299Z"/><path d="m99.7297,189.8217c-.3334-.4054-.5004-.9872-.5004-1.7472v-3.042h.9026v3.2284c0,.4198.1131.7465.3389.9817.2258.2362.5311.3538.9175.3538.4054,0,.7325-.1294.9813-.3873.2484-.2588.3728-.608.3728-1.046v-3.1307h.9125v5.2407h-.7162v-2.2367h.1176c0,.7781-.157,1.3717-.471,1.7807s-.7786.6135-1.3934.6135h-.0394c-.6148,0-1.089-.2027-1.4228-.6089Z"/><path d="m105.3283,189.9637c-.337-.2968-.5058-.7148-.5058-1.2505,0-.5429.1832-.9591.5497-1.2468s.8899-.4316,1.5703-.4316h1.4423v.6777h-1.4816c-.3796,0-.6741.0905-.8831.2742-.2095.1837-.314.4253-.314.7266,0,.3004.1045.5393.314.7166.209.1755.5035.2642.8831.2642.3791,0,.6999-.1068.9618-.3185.2615-.2126.4022-.5574.4216-1.0351l.2552.3529c-.0525.5691-.2321.9971-.5397,1.2848-.3076.2886-.7361.4325-1.2853.4325-.589,0-1.0519-.1484-1.3884-.447Zm3.1153-1.2604h-.157v-1.816c0-.3655-.095-.6424-.2846-.8288s-.4678-.2796-.8338-.2796c-.5954,0-1.1745.019-1.7373.0588v-.7944c.4253-.0398.903-.0597,1.4328-.0597.8112,0,1.3966.1511,1.7567.4524.3597.3004.5397.8071.5397,1.5201v3.3171h-.7166v-1.5699Zm-.9519-6.369h.9519l-1.0795,1.9327h-.7356l.8632-1.9327Z"/><path d="m110.0039,183.1097h1.6386v.7157h-1.6386v-.7157Zm.7356,0h.903v7.1635h-.903v-7.1635Z"/><path d="m52.9183,203.2365h.5592c.2484,0,.4397-.0679.5741-.2018.1339-.1339.2013-.3285.2013-.5836v-5.6325h.8632v5.4959c0,.4307-.0588.7727-.1764,1.0243-.1176.2524-.3058.4343-.5642.5447-.2588.1122-.6035.1674-1.0356.1674h-.4216v-.8143Zm.5004-6.4179h1.6974v.7166h-1.6974v-.7166Zm.5936-1.0985c-.1013-.105-.152-.2425-.152-.4126,0-.1773.0507-.3176.152-.4216.1013-.105.2502-.1574.4465-.1574s.3452.0507.4465.152.152.2407.152.4171c0,.1701-.0507.3085-.152.4171-.1013.1077-.2502.162-.4465.162s-.3452-.0525-.4465-.1565Z"/><path d="m57.4709,201.8386c-.3922-.2588-.6818-.5945-.8682-1.0062-.1864-.4126-.2796-.8505-.2796-1.3156v-.1665c0-.4705.0946-.9121.2846-1.3247.1896-.4126.4759-.7456.8587-1.0007.3823-.2552.8519-.3836,1.4079-.3836.5366,0,.9926.1185,1.369.3538.376.2362.6574.5465.8437.9329.1868.3855.28.8044.28,1.2559v.4117h-4.6517v-.6768h3.9939l-.2058.3628c0-.3728-.0606-.6985-.1814-.9763-.1212-.2778-.3063-.4922-.5547-.6433-.2488-.1502-.5465-.2253-.8931-.2253-.3728,0-.6854.086-.9369.2552-.252.171-.4402.4045-.5646.7012-.124.2986-.1864.6433-.1864,1.036,0,.3918.0638.7374.1914,1.0351s.3208.5329.5791.7067.5841.2597.9763.2597c.4058,0,.741-.0896,1.0062-.2696.2647-.1801.4266-.4008.4854-.6623h.8537c-.1113.5366-.3746.9582-.7899,1.2658s-.9338.4615-1.5554.4615c-.5823,0-1.0695-.1294-1.4622-.3873Z"/><path d="m64.5068,196.8187h.7166v2.2367h-.1181c0-.7646.1525-1.3554.4565-1.7707s.7605-.6234,1.369-.6234h.0394c.608,0,1.0645.2081,1.3685.6234.3045.4153.4565,1.0062.4565,1.7707h-.2746c0-.7646.1552-1.3554.466-1.7707s.7705-.6234,1.3789-.6234h.0389c.6085,0,1.0681.2081,1.3789.6234.3104.4153.466,1.0062.466,1.7707v2.9931h-.9026v-3.1985c0-.4253-.1068-.7573-.3189-.9962-.2126-.2389-.509-.3583-.8881-.3583-.3995,0-.7166.1267-.9519.3782-.2357.2515-.3533.5972-.3533,1.0351v3.1397h-.9125v-3.1985c0-.4253-.1068-.7573-.3189-.9962-.2126-.2389-.509-.3583-.8881-.3583-.3995,0-.7166.1267-.9519.3782-.2357.2515-.3533.5972-.3533,1.0351v3.1397h-.903v-5.2299Z"/><path d="m73.7704,196.8187h.7166v2.1589h-.0394c0-.7582.1669-1.3183.5004-1.6775.3339-.3601.8437-.5402,1.531-.5402h.1669v.8143h-.3239c-.5302,0-.9374.1384-1.222.4171s-.4266.6859-.4266,1.2215v2.8357h-.903v-5.2299Z"/><path d="m76.8811,196.8187h3.5912v.6768h-3.5912v-.6768Zm1.7712,5.1122c-.2782-.1176-.4909-.3094-.6379-.5737-.147-.2651-.2208-.6198-.2208-1.065v-5.0733h.8637v5.181c0,.2877.0783.5094.2353.6623.157.1538.3764.2316.6578.2316h.922v.8143h-.8044c-.399,0-.7379-.0597-1.0157-.1773Z"/><path d="m80.9338,196.8187h.9424l1.7563,5.2299h-.9026l-1.7961-5.2299Zm2.0218,4.5142h1.0989v.7157h-1.0989v-.7157Zm1.9721-4.5142h.8831l-1.5599,5.2299h-.8537l1.5305-5.2299Z"/><path d="m86.1148,196.8187h.9225l1.7956,5.1122h-.8437l-1.8743-5.1122Zm.3533,6.4568h.7361c.3398,0,.6035-.0651.7899-.1954.1864-.1321.3289-.3637.4266-.6976l1.6685-5.5637h.8831l-1.7567,5.7999c-.1045.3456-.2515.6261-.4416.8388-.1896.2126-.4185.371-.6868.4759-.2683.1041-.5791.1565-.9324.1565h-.6868v-.8143Zm1.6192-2.0992h1.0989v.7546h-1.0989v-.7546Zm.8931-7.0667h.9519l-1.0795,1.9336h-.7361l.8637-1.9336Z"/><path d="m91.4044,201.882c-.1045-.1104-.157-.2479-.157-.4126,0-.1629.0525-.3004.157-.4117s.2357-.1665.3927-.1665.2877.0552.3922.1665.157.2488.157.4117c0,.1647-.0525.3022-.157.4126-.1045.1113-.2353.1665-.3922.1665s-.2882-.0552-.3927-.1665Zm2.5516,0c-.105-.1104-.157-.2479-.157-.4126,0-.1629.052-.3004.157-.4117.1045-.1113.2353-.1665.3922-.1665s.2877.0552.3927.1665c.1045.1113.157.2488.157.4117,0,.1647-.0525.3022-.157.4126-.105.1113-.2357.1665-.3927.1665s-.2877-.0552-.3922-.1665Zm2.5416,0c-.105-.1104-.1574-.2479-.1574-.4126,0-.1629.0525-.3004.1574-.4117.1045-.1113.2353-.1665.3922-.1665s.2877.0552.3927.1665c.1045.1113.157.2488.157.4117,0,.1647-.0525.3022-.157.4126-.105.1113-.2357.1665-.3927.1665s-.2877-.0552-.3922-.1665Z"/><path d="m54.6058,213.6139c-.3922-.2588-.6818-.5945-.8682-1.0062-.1864-.4126-.2796-.8505-.2796-1.3156v-.1665c0-.4705.0946-.9121.2846-1.3247.1896-.4126.4759-.7456.8587-1.0007.3823-.2552.8519-.3836,1.4079-.3836.5366,0,.9926.1185,1.369.3538.376.2362.6574.5465.8437.9329.1868.3855.28.8044.28,1.2559v.4117h-4.6517v-.6768h3.9939l-.2058.3628c0-.3728-.0606-.6985-.1814-.9763-.1212-.2778-.3063-.4922-.5547-.6433-.2488-.1502-.5465-.2253-.8931-.2253-.3728,0-.6854.086-.9369.2552-.252.171-.4402.4045-.5646.7012-.124.2986-.1864.6433-.1864,1.036,0,.3918.0638.7374.1914,1.0351s.3208.5329.5791.7067.5841.2597.9763.2597c.4058,0,.741-.0896,1.0062-.2696.2647-.1801.4266-.4008.4854-.6623h.8537c-.1113.5366-.3746.9582-.7899,1.2658s-.9338.4615-1.5554.4615c-.5823,0-1.0695-.1294-1.4622-.3873Z"/><path d="m60.7296,211.0669l-.0294.1963-1.7667-2.6692h1.0012l1.2853,1.9816h.1375l1.2165-1.9816h.9324l-1.668,2.6005.0294-.1773,1.9725,2.8068h-1.0012l-1.4916-2.139h-.1375l-1.4323,2.139h-.9324l1.8843-2.757Z"/><path d="m64.2914,208.594h1.7074v.7166h-1.7074v-.7166Zm.6035-1.0206c-.1018-.105-.1525-.2425-.1525-.4126,0-.1755.0507-.3167.1525-.4216.1013-.105.2502-.1574.4461-.1574.1963,0,.347.0525.4515.1574s.157.2425.157.4126c0,.1764-.0525.3167-.157.4216s-.2552.1574-.4515.1574c-.1959,0-.3447-.0525-.4461-.1574Zm.2009,1.0206h.903v5.2299h-.903v-5.2299Z"/><path d="m67.7207,213.5452c-.376-.2914-.5705-.6922-.5836-1.2025h.8537c.0063.2416.1158.4461.3285.6126.2126.1674.5384.2506.9768.2506.4185,0,.7424-.0814.9713-.2452.2289-.1629.3434-.3764.3434-.6379,0-.2217-.0832-.3954-.2502-.5203-.1669-.124-.4334-.2063-.7999-.2452l-.5786-.0588c-.5171-.0588-.9243-.2117-1.222-.4615-.2977-.2479-.4465-.5845-.4465-1.0098,0-.3275.0851-.6098.2552-.8487s.404-.4226.7017-.5501.6393-.1918,1.0256-.1918c.6017,0,1.0808.1339,1.4373.4026s.5415.6506.5547,1.1482h-.8537c-.0131-.2289-.1163-.4153-.309-.5592-.1932-.1439-.4696-.2163-.8293-.2163-.3533,0-.6298.0751-.8293.2253-.1995.1511-.2995.3475-.2995.5899,0,.2027.0706.3637.2113.485.1402.1212.361.1982.6623.2307l.5691.0588c.5823.0588,1.0369.2153,1.364.4705s.4904.6062.4904,1.0505c0,.314-.0914.5981-.2746.8532s-.4402.4542-.7705.5945-.7049.2108-1.1233.2108c-.6741,0-1.1989-.1457-1.5753-.4361Z"/><path d="m72.034,208.594h3.5912v.6768h-3.5912v-.6768Zm1.7712,5.1122c-.2782-.1176-.4909-.3094-.6379-.5737-.147-.2651-.2208-.6198-.2208-1.065v-5.0733h.8637v5.181c0,.2877.0783.5094.2353.6623.157.1538.3764.2316.6578.2316h.922v.8143h-.8044c-.399,0-.7379-.0597-1.0157-.1773Z"/><path d="m77.1168,213.3733c-.3334-.4054-.5004-.9881-.5004-1.7472v-3.042h.9026v3.2284c0,.4189.1131.7465.3389.9817s.5311.3529.9175.3529c.4054,0,.7325-.1285.9813-.3873.2484-.2588.3728-.6071.3728-1.0451v-3.1307h.9125v5.2398h-.7162v-2.2367h.1176c0,.7781-.157,1.3717-.471,1.7807s-.7786.6135-1.3934.6135h-.0394c-.6148,0-1.089-.2027-1.4228-.608Z"/><path d="m81.5916,215.0119h.5592c.2484,0,.4397-.0679.5741-.2018.1339-.1339.2013-.3285.2013-.5836v-5.6325h.8632v5.4959c0,.4307-.0588.7727-.1764,1.0243-.1176.2524-.3058.4343-.5642.5447-.2588.1122-.6035.1674-1.0356.1674h-.4216v-.8143Zm.5004-6.4179h1.6974v.7166h-1.6974v-.7166Zm.5936-1.0985c-.1013-.105-.152-.2425-.152-.4126,0-.1773.0507-.3176.152-.4216.1013-.105.2502-.1574.4465-.1574s.3452.0507.4465.152.152.2407.152.4171c0,.1701-.0507.3085-.152.4171-.1013.1077-.2502.162-.4465.162s-.3452-.0525-.4465-.1565Z"/><path d="m86.1442,213.6139c-.3922-.2588-.6818-.5945-.8682-1.0062-.1864-.4126-.2796-.8505-.2796-1.3156v-.1665c0-.4705.0946-.9121.2846-1.3247.1896-.4126.4759-.7456.8587-1.0007.3823-.2552.8519-.3836,1.4079-.3836.5366,0,.9926.1185,1.369.3538.376.2362.6574.5465.8437.9329.1868.3855.28.8044.28,1.2559v.4117h-4.6517v-.6768h3.9939l-.2058.3628c0-.3728-.0606-.6985-.1814-.9763-.1212-.2778-.3063-.4922-.5547-.6433-.2488-.1502-.5465-.2253-.8931-.2253-.3728,0-.6854.086-.9369.2552-.252.171-.4402.4045-.5646.7012-.124.2986-.1864.6433-.1864,1.036,0,.3918.0638.7374.1914,1.0351s.3208.5329.5791.7067.5841.2597.9763.2597c.4058,0,.741-.0896,1.0062-.2696.2647-.1801.4266-.4008.4854-.6623h.8537c-.1113.5366-.3746.9582-.7899,1.2658s-.9338.4615-1.5554.4615c-.5823,0-1.0695-.1294-1.4622-.3873Z"/><path d="m90.8059,213.6574c-.105-.1104-.1574-.2479-.1574-.4126,0-.1629.0525-.3004.1574-.4117.1045-.1113.2353-.1665.3922-.1665s.2877.0552.3927.1665c.1045.1113.157.2488.157.4117,0,.1647-.0525.3022-.157.4126-.105.1113-.2357.1665-.3927.1665s-.2877-.0552-.3922-.1665Z"/><path d="m93.6316,213.6139c-.4253-.2588-.7456-.5954-.9618-1.0116-.2158-.4153-.3235-.8523-.3235-1.3102v-.1665c0-.4578.1108-.894.3334-1.3102.2226-.4153.5461-.7519.9713-1.0107.4253-.2579.9193-.3882,1.4821-.3882h4.6906c.5623,0,1.0564.1303,1.4816.3882.4253.2588.7492.5954.9713,1.0107.2226.4162.3339.8523.3339,1.3102v.1665c0,.4578-.1081.8949-.3239,1.3102-.2158.4162-.5366.7528-.9618,1.0116-.4253.2579-.9256.3873-1.5011.3873h-4.6906c-.5759,0-1.0763-.1294-1.5016-.3873Zm7.2028-.6877c.2877-.1737.5053-.4108.6524-.7112.1475-.3004.2208-.6379.2208-1.0107,0-.3737-.0769-.7103-.2303-1.0107-.1538-.3004-.3746-.5366-.6623-.7067-.2882-.1701-.6184-.2552-.9912-.2552-.3796,0-.7116.0851-.9962.2552s-.5053.4063-.6623.7067-.2353.637-.2353,1.0107c0,.3728.0751.7103.2253,1.0107.1507.3004.3696.5375.6578.7112.2877.1737.6243.2606,1.0107.2606.3859,0,.7225-.0869,1.0107-.2606Z"/><path d="m103.7783,208.594h.7166v2.2367h-.1181c0-.7781.162-1.3717.4859-1.7807s.8098-.6135,1.4572-.6135h.0394c.6474,0,1.1333.2045,1.4572.6135s.4859,1.0025.4859,1.7807v2.9931h-.903v-3.1886c0-.4189-.1176-.751-.3533-.9962-.2353-.2452-.5528-.3683-.9519-.3683-.4253,0-.7668.1312-1.0252.3927-.2588.2624-.3877.6053-.3877,1.0306v3.1298h-.903v-5.2299Z"/><path d="m109.0774,206.6613h1.6386v.7157h-1.6386v-.7157Zm.7356,0h.903v7.1626h-.903v-7.1626Z"/><path d="m111.8154,208.594h1.7074v.7166h-1.7074v-.7166Zm.6035-1.0206c-.1018-.105-.1525-.2425-.1525-.4126,0-.1755.0507-.3167.1525-.4216.1013-.105.2502-.1574.4461-.1574.1963,0,.347.0525.4515.1574s.157.2425.157.4126c0,.1764-.0525.3167-.157.4216s-.2552.1574-.4515.1574c-.1959,0-.3447-.0525-.4461-.1574Zm.2009,1.0206h.903v5.2299h-.903v-5.2299Z"/><path d="m115.1026,208.594h.7166v2.2367h-.1181c0-.7781.162-1.3717.4859-1.7807s.8098-.6135,1.4572-.6135h.0394c.6474,0,1.1333.2045,1.4572.6135s.4859,1.0025.4859,1.7807v2.9931h-.903v-3.1886c0-.4189-.1176-.751-.3533-.9962-.2353-.2452-.5528-.3683-.9519-.3683-.4253,0-.7668.1312-1.0252.3927-.2588.2624-.3877.6053-.3877,1.0306v3.1298h-.903v-5.2299Z"/><path d="m121.9028,213.6139c-.3922-.2588-.6818-.5945-.8682-1.0062-.1864-.4126-.2796-.8505-.2796-1.3156v-.1665c0-.4705.0946-.9121.2846-1.3247.1896-.4126.4759-.7456.8587-1.0007.3823-.2552.8519-.3836,1.4079-.3836.5366,0,.9926.1185,1.369.3538.376.2362.6574.5465.8437.9329.1868.3855.28.8044.28,1.2559v.4117h-4.6517v-.6768h3.9939l-.2058.3628c0-.3728-.0606-.6985-.1814-.9763-.1212-.2778-.3063-.4922-.5547-.6433-.2488-.1502-.5465-.2253-.8931-.2253-.3728,0-.6854.086-.9369.2552-.252.171-.4402.4045-.5646.7012-.124.2986-.1864.6433-.1864,1.036,0,.3918.0638.7374.1914,1.0351s.3208.5329.5791.7067.5841.2597.9763.2597c.4058,0,.741-.0896,1.0062-.2696.2647-.1801.4266-.4008.4854-.6623h.8537c-.1113.5366-.3746.9582-.7899,1.2658s-.9338.4615-1.5554.4615c-.5823,0-1.0695-.1294-1.4622-.3873Z"/></g><path class="cls-2" d="m100.8346,212.9272c.2879-.1733.5055-.4105.6527-.7116.1472-.3007.2207-.6378.2207-1.0107s-.0769-.7098-.2306-1.0107-.3746-.5365-.6622-.7066c-.2881-.17-.6183-.2551-.9912-.2551-.3796,0-.7114.0851-.996.2551-.2846.1701-.5053.4057-.6624.7066s-.2356.6378-.2356,1.0107.0752.71.2257,1.0107c.1505.301.3697.5382.6576.7116.2878.1733.6246.26,1.0107.26s.7227-.0867,1.0107-.26Z"/></g><g><path d="m56.9657,156.9109c-.1979-.1239-.4379-.1857-.7201-.1857-.2925,0-.5394.067-.7407.2012-.2013.1343-.3519.3098-.4516.5266-.0999.2168-.1497.449-.1497.6968v.0877c0,.2445.049.4749.1471.6918.0981.2168.2504.3931.4568.5289.2065.136.4628.204.7691.204.3269,0,.5995-.0809.8181-.2426.2185-.1617.357-.3837.4155-.6659h-.449c-.031.1377-.1162.2539-.2555.3484-.1393.0947-.3157.1421-.5291.1421-.2065,0-.3777-.0457-.5136-.1368-.136-.0912-.2374-.2149-.3046-.3716-.0574-.1341-.0901-.2865-.0984-.4569h2.1966v-.2168c0-.2374-.049-.4576-.1471-.6606-.0981-.203-.2461-.3666-.4439-.4905Zm-1.213.3666c.1324-.0895.2968-.1342.4929-.1342.1824,0,.3389.0395.4697.1187.1307.0791.2279.1918.2916.338.042.0966.0699.2042.0842.3226h-1.7123c.0162-.0992.0417-.1914.0771-.2761.0653-.1567.1643-.2796.2968-.3691Z"/><polygon points="60.1892 156.8181 59.6988 156.8181 59.0588 157.8607 58.9865 157.8607 58.3103 156.8181 57.7838 156.8181 58.6859 158.1811 57.7374 159.5692 58.2278 159.5692 58.9814 158.444 59.0536 158.444 59.8382 159.5692 60.3647 159.5692 59.3502 158.1258 60.1892 156.8181"/><polygon points="60.6022 156.8181 60.6022 157.1949 61.0254 157.1949 61.0254 159.5692 61.5003 159.5692 61.5003 157.1949 61.5003 156.8181 61.0254 156.8181 60.6022 156.8181"/><path d="m61.1545,156.3639c.1032,0,.1823-.0275.2374-.0826.055-.0551.0826-.1291.0826-.222,0-.0893-.0276-.1617-.0826-.2168-.0551-.0549-.1343-.0826-.2374-.0826-.1033,0-.1816.0277-.2349.0826-.0534.0551-.08.1291-.08.222,0,.0895.0266.1617.08.2168.0533.0551.1316.0826.2349.0826Z"/><path d="m64.1173,158.2272c-.1721-.1342-.4112-.2168-.7175-.2478l-.2994-.0309c-.1583-.0171-.2745-.0576-.3484-.1212-.074-.0636-.111-.1489-.111-.2556,0-.1273.0524-.2306.1574-.3096.1049-.0793.2504-.1187.4362-.1187.1892,0,.3346.0378.4362.1135.1015.0757.1557.1738.1626.2942h.4491c-.0069-.2614-.1042-.4628-.2916-.604-.1876-.1411-.4396-.2116-.7562-.2116-.2031,0-.3828.0336-.5394.1007-.1566.067-.2796.1634-.3691.289-.0895.1256-.1342.2744-.1342.4465,0,.2237.0782.401.2349.5316.1565.1308.3708.2116.6426.2426l.3046.0309c.1927.0207.3329.0638.4207.1291.0877.0653.1316.1567.1316.2735,0,.1377-.0602.2495-.1806.3355-.1205.0861-.2908.1291-.511.1291-.2306,0-.4018-.044-.5136-.1316-.1119-.0878-.1696-.1953-.173-.3226h-.449c.0068.2683.1092.4792.3071.6322.1979.1531.474.2297.8285.2297.2202,0,.4172-.0369.591-.111.1737-.0739.3088-.178.4052-.3123.0963-.1342.1445-.2838.1445-.449,0-.2339-.0861-.4181-.2581-.5523Z"/><path d="m65.609,155.9766h-.4542v.8414h-.4801v.3561h.4801v1.4711c0,.2341.0387.4206.1161.56.0774.1394.1892.2399.3355.3019.1463.062.3243.093.5342.093h.4233v-.4285h-.4852c-.148,0-.2633-.0403-.3458-.1212-.0826-.0808-.1239-.197-.1239-.3484v-1.5279h.9549v-.3561h-.9549v-.8414Z"/><path d="m68.9331,158.4594c0,.2305-.0654.4139-.1961.5498-.1308.136-.3028.2038-.5162.2038-.2031,0-.3639-.062-.4826-.1857-.1187-.1239-.1781-.296-.1781-.5162v-1.6983h-.4749v1.6002c0,.3991.0877.7054.2633.9187.1755.2134.425.32.7484.32h.0206c.3235,0,.5678-.1075.733-.3226.0826-.1075.1445-.2393.1858-.3954v.6353h.3768v-2.7563h-.48v1.6466Z"/><path d="m70.5126,156.3226c.1032,0,.1814-.0284.2348-.0851.0533-.0568.08-.13.08-.2195,0-.0929-.0267-.1659-.08-.2193-.0534-.0534-.1316-.0801-.2348-.0801s-.1816.0277-.2349.0826c-.0534.0551-.08.1291-.08.222,0,.0895.0266.1617.08.2168.0533.0551.1316.0826.2349.0826Z"/><path d="m69.9655,156.8181v.3768h.4387v2.5861c0,.1342-.0353.2364-.1058.3071-.0706.0704-.1712.1058-.302.1058h-.2942v.4283h.2219c.2271,0,.4086-.0292.5446-.0876.1359-.0586.2349-.1541.2968-.2865.062-.1327.0929-.3123.0929-.5395v-2.8905h-.893Z"/><path d="m73.5554,156.9109c-.1979-.1239-.4379-.1857-.72-.1857-.2926,0-.5394.067-.7407.2012-.2013.1343-.3519.3098-.4516.5266-.0998.2168-.1497.449-.1497.6968v.0877c0,.2445.049.4749.1471.6918.0981.2168.2504.3931.4568.5289.2065.136.4628.204.7691.204.3269,0,.5996-.0809.8181-.2426.2185-.1617.357-.3837.4155-.6659h-.449c-.031.1377-.1162.2539-.2555.3484-.1393.0947-.3157.1421-.5291.1421-.2065,0-.3777-.0457-.5136-.1368-.136-.0912-.2374-.2149-.3046-.3716-.0574-.1341-.0901-.2865-.0984-.4569h2.1966v-.2168c0-.2374-.049-.4576-.1471-.6606-.0981-.203-.2461-.3666-.4439-.4905Zm-1.213.3666c.1325-.0895.2968-.1342.493-.1342.1824,0,.3388.0395.4697.1187.1307.0791.2279.1918.2916.338.042.0966.0699.2042.0842.3226h-1.7124c.0162-.0992.0417-.1914.0771-.2761.0653-.1567.1643-.2796.2968-.3691Z"/><path d="m74.7555,158.9602c-.0826,0-.1515.0292-.2065.0878-.0551.0584-.0826.1308-.0826.2168s.0275.1582.0826.2168c.055.0584.1239.0877.2065.0877.0826,0,.1514-.0292.2065-.0877.055-.0586.0826-.1308.0826-.2168s-.0276-.1583-.0826-.2168c-.0551-.0586-.1239-.0878-.2065-.0878Z"/><path d="m147.7922,156.9291c-.2238-.1358-.4835-.2038-.7794-.2038h-70.1875c-.296,0-.5558.068-.7794.2038-.2238.136-.3941.3132-.511.5316-.117.2186-.1755.4483-.1755.6891v.0877c0,.241.0568.4707.1704.6891.1136.2186.2821.3958.5059.5316.2236.136.4869.204.7897.204h70.1875c.3028,0,.566-.068.7898-.204.2237-.1358.3923-.313.5059-.5316.1136-.2185.1704-.4482.1704-.6891v-.0877c0-.2408-.0586-.4705-.1755-.6891-.117-.2185-.2873-.3956-.511-.5316Zm.0955,1.7937c-.0775.1583-.1919.2831-.3433.3743-.1515.0912-.3287.1367-.5317.1367s-.3803-.0455-.5317-.1367c-.1515-.0912-.2667-.2159-.3458-.3743-.0792-.1582-.1187-.3355-.1187-.5316s.0413-.3734.1239-.5316c.0826-.1583.1987-.2823.3484-.3718.1497-.0893.3243-.1342.5239-.1342.1962,0,.3699.0448.5213.1342.1514.0895.2675.2134.3484.3718.0808.1582.1213.3355.1213.5316s-.0387.3734-.1161.5316Z"/><path class="cls-2" d="m147.8877,158.7227c-.0775.1583-.1919.2831-.3433.3743-.1515.0912-.3287.1367-.5317.1367s-.3803-.0455-.5317-.1367c-.1515-.0912-.2667-.2159-.3458-.3743-.0792-.1582-.1187-.3355-.1187-.5316s.0413-.3734.1239-.5316c.0826-.1583.1987-.2823.3484-.3718.1497-.0893.3243-.1342.5239-.1342.1962,0,.3699.0448.5213.1342.1514.0895.2675.2134.3484.3718.0808.1582.1213.3355.1213.5316s-.0387.3734-.1161.5316Z"/><path d="m150.4505,156.7355h-.0206c-.3407,0-.5962.1076-.7665.3226-.0867.1094-.151.2443-.1936.404v-.644h-.3768v2.7511h.4749v-1.6466c0-.2237.0679-.4043.2039-.5419.1359-.1377.3157-.2065.5394-.2065.2099,0,.3769.0645.5007.1936.1239.129.1858.3038.1858.5239v1.6775h.4749v-1.5742c0-.4095-.0852-.7219-.2555-.937-.1704-.2149-.4259-.3226-.7665-.3226Z"/><polygon points="151.8803 155.8012 151.8803 156.178 152.2674 156.178 152.2674 159.5692 152.7423 159.5692 152.7423 156.178 152.7423 155.8012 152.2674 155.8012 151.8803 155.8012"/><path d="m153.8727,156.3639c.1032,0,.1824-.0275.2374-.0826.055-.0551.0826-.1291.0826-.222,0-.0893-.0276-.1617-.0826-.2168-.0551-.0549-.1342-.0826-.2374-.0826s-.1816.0277-.2349.0826c-.0534.0551-.08.1291-.08.222,0,.0895.0267.1617.08.2168.0533.0551.1316.0826.2349.0826Z"/><polygon points="153.3204 156.8181 153.3204 157.1949 153.7436 157.1949 153.7436 159.5692 154.2185 159.5692 154.2185 157.1949 154.2185 156.8181 153.7436 156.8181 153.3204 156.8181"/><path d="m156.4071,156.7355h-.0207c-.3407,0-.5962.1076-.7665.3226-.0866.1094-.151.2442-.1936.4039v-.6439h-.3768v2.7511h.4749v-1.6466c0-.2237.0679-.4043.2039-.5419.1359-.1377.3157-.2065.5394-.2065.2099,0,.3768.0645.5007.1936.1239.129.1858.3038.1858.5239v1.6775h.4749v-1.5742c0-.4095-.0852-.7219-.2555-.937-.1703-.2149-.4258-.3226-.7665-.3226Z"/><path d="m160.6758,158.062c0-.2374-.049-.4576-.1471-.6606-.0981-.203-.2461-.3666-.4439-.4905-.1979-.1239-.4379-.1857-.72-.1857-.2926,0-.5394.067-.7407.2012-.2013.1343-.3519.3098-.4517.5266-.0998.2168-.1497.449-.1497.6968v.0877c0,.2445.049.4749.1471.6918.0981.2168.2504.3931.4568.5289.2065.136.4628.204.7691.204.3269,0,.5996-.0809.8181-.2426.2185-.1617.357-.3837.4155-.6659h-.449c-.031.1377-.1162.2539-.2555.3484-.1393.0947-.3157.1421-.5291.1421-.2065,0-.3777-.0457-.5136-.1368-.136-.0912-.2374-.2149-.3046-.3716-.0574-.1341-.0901-.2865-.0984-.4569h2.1966v-.2168Zm-1.804-.7845c.1324-.0895.2968-.1342.493-.1342.1824,0,.3389.0395.4697.1187.1307.0791.2279.1918.2916.338.042.0966.0699.2042.0842.3226h-1.7124c.0162-.0992.0417-.1914.0771-.2761.0653-.1567.1643-.2796.2968-.3691Z"/></g><g><path d="m55.4533,225.3885c-.155-.097-.3428-.1454-.5637-.1454-.229,0-.4223.0524-.5799.1575-.1576.1052-.2755.2425-.3536.4122-.0782.1697-.1172.3515-.1172.5455v.0686c0,.1914.0384.3718.1152.5416.0768.1697.196.3077.3576.4141.1617.1065.3623.1597.6021.1597.2559,0,.4694-.0634.6405-.19.1711-.1266.2795-.3004.3253-.5213h-.3515c-.0243.1078-.0909.1988-.2001.2728-.1091.0741-.2472.1112-.4142.1112-.1616,0-.2957-.0358-.4021-.1071-.1065-.0714-.1859-.1683-.2384-.2909-.045-.105-.0705-.2243-.077-.3577h1.7197v-.1697c0-.1859-.0384-.3582-.1152-.5171-.0768-.1589-.1927-.287-.3475-.384Zm-.9496.287c.1037-.0701.2324-.105.3859-.105.1428,0,.2653.0309.3678.0929.1023.0619.1784.1501.2283.2646.0329.0756.0547.1599.0659.2525h-1.3405c.0127-.0777.0326-.1499.0603-.2161.0511-.1226.1286-.2189.2323-.2889Z"/><polygon points="57.9768 225.3158 57.5929 225.3158 57.0919 226.132 57.0353 226.132 56.5059 225.3158 56.0937 225.3158 56.7999 226.3829 56.0574 227.4696 56.4413 227.4696 57.0313 226.5887 57.0878 226.5887 57.7021 227.4696 58.1142 227.4696 57.32 226.3396 57.9768 225.3158"/><polygon points="58.3001 225.3158 58.3001 225.6108 58.6315 225.6108 58.6315 227.4696 59.0033 227.4696 59.0033 225.6108 59.0033 225.3158 58.6315 225.3158 58.3001 225.3158"/><path d="m58.7325,224.9602c.0808,0,.1427-.0216.1859-.0647.043-.0431.0646-.1011.0646-.1738,0-.0699-.0216-.1266-.0646-.1697-.0432-.043-.1051-.0647-.1859-.0647-.0808,0-.1421.0217-.1839.0647-.0418.0431-.0626.1011-.0626.1738,0,.0701.0208.1266.0626.1697.0417.0431.103.0647.1839.0647Z"/><path d="m61.052,226.419c-.1347-.105-.3219-.1697-.5617-.194l-.2344-.0242c-.1239-.0134-.2149-.0451-.2728-.0949-.0579-.0498-.0869-.1166-.0869-.2001,0-.0996.041-.1805.1232-.2424.0822-.062.196-.0929.3415-.0929.1481,0,.262.0296.3415.0889.0794.0593.1219.1361.1273.2303h.3516c-.0054-.2047-.0815-.3623-.2283-.4728-.1469-.1104-.3442-.1656-.592-.1656-.159,0-.2997.0263-.4223.0789-.1226.0525-.2189.1279-.2889.2262-.0701.0983-.1051.2148-.1051.3495,0,.1751.0613.3139.1839.4162.1226.1024.2903.1656.5031.19l.2384.0242c.1508.0162.2607.05.3293.1011.0687.0511.103.1226.103.2141,0,.1078-.0472.1953-.1414.2626-.0944.0674-.2277.1011-.4001.1011-.1805,0-.3146-.0344-.4021-.1031-.0876-.0688-.1327-.1529-.1354-.2525h-.3515c.0054.2101.0855.3752.2404.4949.1549.1199.3711.1798.6486.1798.1724,0,.3266-.0289.4627-.0869.136-.0578.2418-.1393.3172-.2445.0754-.105.1132-.2222.1132-.3515,0-.1831-.0674-.3273-.2021-.4324Z"/><path d="m62.2198,224.6571h-.3556v.6587h-.3758v.2788h.3758v1.1517c0,.1832.0303.3293.0909.4384.0606.1091.1481.1878.2626.2364.1145.0485.2539.0728.4182.0728h.3314v-.3355h-.3799c-.1158,0-.2061-.0315-.2707-.0949-.0646-.0632-.097-.1542-.097-.2728v-1.1961h.7476v-.2788h-.7476v-.6587Z"/><path d="m64.8222,226.6008c0,.1805-.0512.324-.1535.4304-.1024.1065-.2371.1596-.4041.1596-.159,0-.2849-.0485-.3778-.1454-.0929-.097-.1394-.2318-.1394-.4041v-1.3295h-.3718v1.2528c0,.3125.0687.5522.2061.7192.1374.1671.3327.2505.5859.2505h.0161c.2532,0,.4445-.0841.5738-.2525.0647-.0842.1131-.1874.1455-.3095v.4974h.295v-2.1578h-.3758v1.2891Z"/><path d="m66.0587,224.9279c.0808,0,.142-.0222.1838-.0667.0417-.0444.0626-.1017.0626-.1718,0-.0727-.0209-.1299-.0626-.1717-.0418-.0418-.103-.0627-.1838-.0627s-.1421.0217-.1839.0647c-.0418.0431-.0626.1011-.0626.1738,0,.0701.0208.1266.0626.1697.0417.0431.103.0647.1839.0647Z"/><path d="m65.6304,225.3158v.295h.3435v2.0245c0,.105-.0276.1851-.0828.2404-.0552.0551-.1341.0828-.2364.0828h-.2304v.3353h.1738c.1778,0,.3199-.0229.4263-.0686.1064-.0459.1839-.1207.2324-.2243.0485-.1038.0728-.2445.0728-.4224v-2.2629h-.6991Z"/><path d="m68.4408,225.3885c-.1549-.097-.3428-.1454-.5637-.1454-.229,0-.4223.0524-.5799.1575-.1576.1052-.2755.2425-.3536.4122-.0782.1697-.1172.3515-.1172.5455v.0686c0,.1914.0384.3718.1152.5416.0768.1697.196.3077.3576.4141.1617.1065.3623.1597.6021.1597.2559,0,.4694-.0634.6405-.19.1711-.1266.2795-.3004.3253-.5213h-.3515c-.0243.1078-.0909.1988-.2001.2728-.1091.0741-.2472.1112-.4142.1112-.1616,0-.2957-.0358-.4021-.1071-.1065-.0714-.1859-.1683-.2384-.2909-.0449-.105-.0705-.2243-.077-.3577h1.7197v-.1697c0-.1859-.0384-.3582-.1152-.5171-.0768-.1589-.1927-.287-.3475-.384Zm-.9496.287c.1037-.0701.2324-.105.3859-.105.1428,0,.2653.0309.3677.0929.1023.0619.1784.1501.2283.2646.0329.0756.0547.1599.0659.2525h-1.3405c.0127-.0777.0326-.1499.0603-.2161.0511-.1226.1286-.2189.2323-.2889Z"/><path d="m69.3804,226.9928c-.0647,0-.1186.0229-.1617.0688-.0431.0457-.0646.1024-.0646.1697s.0215.1238.0646.1697c.0431.0457.097.0686.1617.0686.0646,0,.1185-.0229.1616-.0686.043-.0459.0646-.1024.0646-.1697s-.0216-.124-.0646-.1697c-.0431-.0459-.097-.0688-.1616-.0688Z"/><path d="m151.6543,225.4027c-.1752-.1063-.3785-.1596-.6102-.1596h-80.0434c-.2317,0-.4351.0532-.6102.1596-.1752.1065-.3085.2452-.4001.4162-.0916.1712-.1374.351-.1374.5395v.0686c0,.1886.0445.3685.1334.5395.0889.1712.2208.3098.396.4162.1751.1065.3812.1597.6182.1597h80.0434c.237,0,.4431-.0532.6183-.1597.1751-.1063.3071-.245.396-.4162.0889-.171.1334-.3509.1334-.5395v-.0686c0-.1885-.0458-.3683-.1374-.5395-.0916-.171-.225-.3097-.4001-.4162Zm.0748,1.4042c-.0606.124-.1502.2216-.2687.293-.1186.0714-.2573.107-.4162.107s-.2977-.0356-.4162-.107c-.1186-.0714-.2088-.1691-.2707-.293-.062-.1238-.0929-.2626-.0929-.4162s.0323-.2924.097-.4162c.0647-.124.1556-.221.2728-.291.1172-.0699.2539-.105.4101-.105.1536,0,.2896.0351.4081.105.1185.0701.2094.1671.2728.291.0633.1238.0949.2626.0949.4162s-.0303.2924-.0909.4162Z"/><path class="cls-2" d="m151.7291,226.8069c-.0606.124-.1502.2216-.2687.293-.1186.0714-.2573.107-.4162.107s-.2977-.0356-.4162-.107c-.1186-.0714-.2088-.1691-.2707-.293-.062-.1238-.0929-.2626-.0929-.4162s.0323-.2924.097-.4162c.0647-.124.1556-.221.2728-.291.1172-.0699.2539-.105.4101-.105.1536,0,.2896.0351.4081.105.1185.0701.2094.1671.2728.291.0633.1238.0949.2626.0949.4162s-.0303.2924-.0909.4162Z"/><path d="m153.7354,225.2511h-.0161c-.2667,0-.4667.0843-.6001.2525-.0678.0857-.1182.1912-.1515.3163v-.5041h-.295v2.1538h.3718v-1.2891c0-.1751.0532-.3165.1596-.4242.1064-.1078.2471-.1617.4223-.1617.1643,0,.295.0505.392.1516.097.101.1455.2378.1455.4101v1.3132h.3718v-1.2324c0-.3206-.0667-.5651-.2-.7335-.1334-.1683-.3334-.2525-.6001-.2525Z"/><polygon points="154.8547 224.5197 154.8547 224.8147 155.1578 224.8147 155.1578 227.4696 155.5296 227.4696 155.5296 224.8147 155.5296 224.5197 155.1578 224.5197 154.8547 224.5197"/><path d="m156.4146,224.9602c.0808,0,.1428-.0216.1859-.0647.0431-.0431.0647-.1011.0647-.1738,0-.0699-.0216-.1266-.0647-.1697-.0431-.043-.1051-.0647-.1859-.0647s-.1421.0217-.1839.0647c-.0418.0431-.0626.1011-.0626.1738,0,.0701.0209.1266.0626.1697.0417.0431.1031.0647.1839.0647Z"/><polygon points="155.9822 225.3158 155.9822 225.6108 156.3135 225.6108 156.3135 227.4696 156.6853 227.4696 156.6853 225.6108 156.6853 225.3158 156.3135 225.3158 155.9822 225.3158"/><path d="m158.3987,225.2511h-.0162c-.2667,0-.4667.0843-.6001.2525-.0678.0856-.1182.1912-.1515.3162v-.5041h-.295v2.1538h.3718v-1.2891c0-.1751.0532-.3165.1596-.4242.1064-.1078.2471-.1617.4223-.1617.1643,0,.295.0505.392.1516.097.101.1455.2378.1455.4101v1.3132h.3718v-1.2324c0-.3206-.0667-.5651-.2-.7335-.1333-.1683-.3334-.2525-.6001-.2525Z"/><path d="m161.7406,226.2896c0-.1859-.0384-.3582-.1152-.5171-.0768-.1589-.1926-.287-.3475-.384-.1549-.097-.3428-.1454-.5637-.1454-.229,0-.4223.0524-.5799.1575-.1576.1052-.2755.2425-.3536.4122-.0782.1697-.1172.3515-.1172.5455v.0686c0,.1914.0384.3718.1152.5416.0768.1697.196.3077.3576.4141.1617.1065.3623.1597.6021.1597.2559,0,.4694-.0634.6405-.19.1711-.1266.2795-.3004.3253-.5213h-.3515c-.0243.1078-.0909.1988-.2001.2728-.1091.0741-.2472.1112-.4142.1112-.1616,0-.2957-.0358-.4021-.1071-.1065-.0714-.1859-.1683-.2384-.2909-.0449-.105-.0705-.2243-.077-.3577h1.7197v-.1697Zm-1.4123-.6142c.1037-.0701.2324-.105.3859-.105.1428,0,.2653.0309.3677.0929.1023.0619.1784.1501.2283.2646.0329.0756.0547.1599.0659.2525h-1.3405c.0127-.0777.0326-.1499.0603-.2161.0511-.1226.1286-.2189.2323-.2889Z"/></g><g><path d="m186.3709,221.1087c-.2533-.1586-.5604-.2376-.9215-.2376-.3743,0-.6902.0857-.9478.2574-.2576.1719-.4503.3964-.578.6738-.1278.2774-.1916.5746-.1916.8917v.1122c0,.3129.0627.6077.1882.8853.1255.2774.3204.503.5846.6769.2643.174.5922.2611.9842.2611.4183,0,.7672-.1036,1.0469-.3105.2796-.2069.4568-.491.5317-.8522h-.5746c-.0396.1762-.1486.3249-.327.4459-.1783.1212-.404.1818-.677.1818-.2642,0-.4833-.0584-.6572-.1751-.174-.1167-.3038-.275-.3897-.4755-.0735-.1716-.1153-.3666-.1259-.5847h2.811v-.2774c0-.3038-.0627-.5855-.1882-.8453-.1255-.2598-.3149-.4691-.5681-.6277Zm-1.5522.4691c.1694-.1145.3798-.1717.6308-.1717.2334,0,.4337.0505.6011.1519.1673.1012.2917.2454.3732.4325.0537.1236.0894.2614.1077.4128h-2.1912c.0208-.127.0534-.245.0986-.3533.0836-.2005.2102-.3578.3798-.4723Z"/><polygon points="190.4959 220.9899 189.8684 220.9899 189.0493 222.324 188.9569 222.324 188.0916 220.9899 187.4178 220.9899 188.5721 222.734 187.3583 224.5104 187.9859 224.5104 188.9503 223.0705 189.0427 223.0705 190.0467 224.5104 190.7205 224.5104 189.4223 222.6634 190.4959 220.9899"/><polygon points="191.0243 220.9899 191.0243 221.472 191.566 221.472 191.566 224.5104 192.1737 224.5104 192.1737 221.472 192.1737 220.9899 191.566 220.9899 191.0243 220.9899"/><path d="m191.7311,220.4086c.132,0,.2333-.0352.3038-.1057.0704-.0705.1057-.1652.1057-.2841,0-.1143-.0353-.2069-.1057-.2774-.0705-.0703-.1718-.1057-.3038-.1057-.1321,0-.2323.0355-.3006.1057-.0683.0705-.1024.1652-.1024.2841,0,.1145.0341.2069.1024.2774.0682.0705.1684.1057.3006.1057Z"/><path d="m195.5226,222.7931c-.2203-.1717-.5262-.2774-.9182-.3172l-.3831-.0395c-.2026-.0219-.3512-.0737-.4459-.1551-.0947-.0814-.142-.1906-.142-.327,0-.1629.067-.295.2015-.3962.1343-.1014.3204-.1519.5581-.1519.2421,0,.4282.0483.5582.1453.1298.0969.1992.2224.208.3765h.5747c-.0089-.3346-.1333-.5922-.3732-.7729-.2401-.1805-.5626-.2707-.9677-.2707-.2599,0-.4899.043-.6902.1289-.2004.0857-.3578.2091-.4723.3698-.1146.1607-.1717.3511-.1717.5714,0,.2862.1001.5131.3006.6803.2003.1674.4745.2707.8223.3105l.3897.0395c.2466.0264.4261.0817.5383.1652.1123.0836.1684.2005.1684.35,0,.1762-.0771.3193-.2311.4293-.1542.1102-.3722.1652-.6539.1652-.2951,0-.5142-.0563-.6572-.1685-.1432-.1124-.217-.2499-.2213-.4128h-.5746c.0087.3434.1397.6133.393.809.2532.196.6066.2939,1.0602.2939.2818,0,.5339-.0473.7563-.142.2223-.0945.3952-.2278.5185-.3997.1232-.1717.185-.3631.185-.5746,0-.2993-.1101-.535-.3303-.7067Z"/><path d="m197.4314,219.9131h-.5812v1.0767h-.6143v.4557h.6143v1.8825c0,.2995.0495.5383.1486.7166.0991.1784.2421.3071.4293.3864.1872.0793.415.119.6836.119h.5417v-.5484h-.6209c-.1894,0-.3369-.0516-.4425-.1551-.1057-.1033-.1585-.252-.1585-.4459v-1.9552h1.222v-.4557h-1.222v-1.0767Z"/><path d="m201.6852,223.0903c0,.295-.0837.5297-.251.7035-.1674.174-.3875.2609-.6605.2609-.2599,0-.4657-.0793-.6176-.2376-.1519-.1586-.2279-.3788-.2279-.6605v-2.1732h-.6077v2.0478c0,.5108.1123.9027.3369,1.1756.2245.2731.5438.4095.9578.4095h.0264c.4139,0,.7266-.1375.938-.4128.1057-.1376.1849-.3063.2378-.506v.813h.4822v-3.5272h-.6143v2.1071Z"/><path d="m203.7064,220.3558c.1321,0,.2322-.0363.3005-.1089.0682-.0726.1024-.1663.1024-.2808,0-.1188-.0342-.2123-.1024-.2806-.0683-.0683-.1684-.1025-.3005-.1025s-.2323.0355-.3006.1057c-.0683.0705-.1024.1652-.1024.2841,0,.1145.0341.2069.1024.2774.0682.0705.1684.1057.3006.1057Z"/><path d="m203.0063,220.9899v.4822h.5614v3.3093c0,.1717-.0452.3026-.1354.393-.0903.09-.2191.1354-.3864.1354h-.3765v.5481h.284c.2906,0,.5228-.0374.6969-.1122.1739-.075.3006-.1973.3798-.3666.0793-.1698.1189-.3997.1189-.6904v-3.6989h-1.1427Z"/><path d="m207.6002,221.1087c-.2532-.1586-.5604-.2376-.9214-.2376-.3744,0-.6903.0857-.9479.2574-.2576.1719-.4503.3964-.578.6738-.1278.2774-.1916.5746-.1916.8917v.1122c0,.3129.0627.6077.1882.8853.1255.2774.3204.503.5846.6769.2643.174.5922.2611.9842.2611.4183,0,.7673-.1036,1.0469-.3105.2796-.2069.4568-.491.5317-.8522h-.5746c-.0396.1762-.1486.3249-.327.4459-.1783.1212-.404.1818-.677.1818-.2642,0-.4833-.0584-.6572-.1751-.174-.1167-.3038-.275-.3897-.4755-.0735-.1716-.1153-.3666-.1259-.5847h2.811v-.2774c0-.3038-.0627-.5855-.1882-.8453-.1255-.2598-.3149-.4691-.5681-.6277Zm-1.5522.4691c.1695-.1145.3798-.1717.6308-.1717.2334,0,.4336.0505.6011.1519.1673.1012.2917.2454.3732.4325.0538.1236.0894.2614.1077.4128h-2.1912c.0208-.127.0534-.245.0986-.3533.0836-.2005.2102-.3578.3798-.4723Z"/><path d="m209.1359,223.731c-.1057,0-.1938.0374-.2643.1124-.0705.0748-.1057.1674-.1057.2774s.0352.2024.1057.2774c.0704.0748.1585.1122.2643.1122.1057,0,.1937-.0374.2642-.1122.0704-.075.1057-.1674.1057-.2774s-.0353-.2026-.1057-.2774c-.0705-.075-.1585-.1124-.2642-.1124Z"/><path d="m257.4519,221.1319c-.2863-.1738-.6188-.2609-.9974-.2609h-44.67c-.3787,0-.7112.087-.9974.2609-.2863.174-.5043.4007-.6539.6803-.1498.2798-.2246.5737-.2246.8818v.1122c0,.3083.0727.6023.218.8818.1453.2798.361.5065.6473.6803.2862.174.623.2611,1.0106.2611h44.67c.3875,0,.7243-.087,1.0106-.2611.2862-.1738.502-.4005.6473-.6803.1453-.2795.218-.5735.218-.8818v-.1122c0-.3081-.0749-.6021-.2246-.8818-.1498-.2795-.3677-.5062-.6539-.6803Zm.1222,2.2953c-.0991.2026-.2455.3623-.4393.479-.1938.1167-.4206.1749-.6804.1749s-.4866-.0582-.6804-.1749c-.1938-.1167-.3413-.2763-.4425-.479-.1014-.2024-.1519-.4293-.1519-.6803s.0529-.4779.1585-.6803c.1057-.2026.2543-.3612.4459-.4757.1915-.1143.415-.1717.6704-.1717.251,0,.4733.0574.6671.1717.1937.1145.3424.2731.4459.4757.1034.2024.1552.4293.1552.6803s-.0495.4779-.1486.6803Z"/><path class="cls-2" d="m257.5741,223.4272c-.0991.2026-.2455.3623-.4393.479-.1938.1167-.4206.1749-.6804.1749s-.4866-.0582-.6804-.1749c-.1938-.1167-.3413-.2763-.4425-.479-.1014-.2024-.1519-.4293-.1519-.6803s.0529-.4779.1585-.6803c.1057-.2026.2543-.3612.4459-.4757.1915-.1143.415-.1717.6704-.1717.251,0,.4733.0574.6671.1717.1937.1145.3424.2731.4459.4757.1034.2024.1552.4293.1552.6803s-.0495.4779-.1486.6803Z"/><path d="m260.8536,220.8841h-.0264c-.436,0-.7629.1377-.9809.4128-.1109.14-.1932.3126-.2477.517v-.8241h-.4822v3.5205h.6077v-2.1071c0-.2862.0869-.5174.2609-.6934.1739-.1762.404-.2643.6902-.2643.2685,0,.4822.0825.6407.2478.1586.165.2378.3887.2378.6704v2.1466h.6077v-2.0145c0-.5241-.109-.9237-.3269-1.199-.218-.275-.545-.4128-.9809-.4128Z"/><polygon points="262.6832 219.6886 262.6832 220.1707 263.1786 220.1707 263.1786 224.5104 263.7863 224.5104 263.7863 220.1707 263.7863 219.6886 263.1786 219.6886 262.6832 219.6886"/><path d="m265.2329,220.4086c.1321,0,.2334-.0352.3038-.1057.0704-.0705.1057-.1652.1057-.2841,0-.1143-.0353-.2069-.1057-.2774-.0705-.0703-.1717-.1057-.3038-.1057s-.2323.0355-.3006.1057c-.0683.0705-.1024.1652-.1024.2841,0,.1145.0341.2069.1024.2774.0682.0705.1685.1057.3006.1057Z"/><polygon points="264.5261 220.9899 264.5261 221.472 265.0678 221.472 265.0678 224.5104 265.6754 224.5104 265.6754 221.472 265.6754 220.9899 265.0678 220.9899 264.5261 220.9899"/><path d="m268.4761,220.8841h-.0264c-.4359,0-.7629.1377-.9809.4128-.1109.14-.1932.3125-.2477.5169v-.824h-.4822v3.5205h.6077v-2.1071c0-.2862.0869-.5174.2609-.6934.1739-.1762.404-.2643.6902-.2643.2685,0,.4822.0825.6407.2478.1585.165.2378.3887.2378.6704v2.1466h.6077v-2.0145c0-.5241-.109-.9237-.327-1.199-.2179-.275-.5449-.4128-.9809-.4128Z"/><path d="m273.9387,222.5816c0-.3038-.0627-.5855-.1882-.8453-.1255-.2598-.3149-.4691-.5681-.6277-.2532-.1586-.5604-.2376-.9214-.2376-.3744,0-.6903.0857-.9479.2574-.2576.1719-.4503.3964-.578.6738-.1278.2774-.1916.5746-.1916.8917v.1122c0,.3129.0627.6077.1882.8853.1255.2774.3204.503.5846.6769.2642.174.5922.2611.9842.2611.4183,0,.7673-.1036,1.0469-.3105.2796-.2069.4568-.491.5317-.8522h-.5746c-.0396.1762-.1486.3249-.327.4459-.1783.1212-.404.1818-.677.1818-.2642,0-.4833-.0584-.6572-.1751-.174-.1167-.3038-.275-.3897-.4755-.0735-.1716-.1153-.3666-.1259-.5847h2.8109v-.2774Zm-2.3086-1.0039c.1695-.1145.3798-.1717.6308-.1717.2334,0,.4336.0505.6011.1519.1673.1012.2916.2454.3732.4325.0538.1236.0894.2614.1077.4128h-2.1912c.0208-.127.0534-.245.0986-.3533.0836-.2005.2102-.3578.3798-.4723Z"/></g><g><g><path d="m54.4728,78.5857h4.2898v.7021h-4.2898v-.7021Zm1.7409-1.8947h.7985v2.2023h-.7985v-2.2023Zm0,3.4148h.7985v5.5303h-.7985v-5.5303Z"/><path d="m61.0164,78.5857h.7021v2.2123l-.1728-.01c.0253-.5248.1393-.9645.3411-1.3174.2022-.3529.4651-.6171.789-.7935.3235-.1764.6877-.2651,1.0917-.2651.4809,0,.9103.1212,1.2889.3619.3782.2398.67.5619.8754.9663.2049.4036.3076.846.3076,1.3265v.1647c0,.4805-.1077.9229-.3221,1.3265-.2149.4045-.5117.7266-.8899.9663-.3782.2407-.8048.3619-1.2794.3619-.3909,0-.7519-.0851-1.0822-.2552s-.6026-.4379-.8175-.8035-.3316-.8234-.3511-1.3753l.404.76v3.4238h-.8849v-7.0504Zm3.5107,4.2708c.2629-.1665.4651-.3981.6062-.6931.1407-.295.2117-.6343.2117-1.0188,0-.3782-.071-.7148-.2117-1.0098-.1412-.295-.3434-.5266-.6062-.6931s-.5673-.2497-.9134-.2497c-.3208,0-.6144.0724-.8804.2163s-.4777.3493-.6347.6153c-.157.2669-.2357.5764-.2357.9283v.4425c0,.3465.0801.6497.2407.9084.1602.2606.3732.4596.6397.5972.266.1375.556.2063.8704.2063.3461,0,.6506-.0832.9134-.2497Z"/><path d="m68.2496,83.535c-.3845-.2353-.6845-.5556-.8994-.9627s-.3221-.8542-.3221-1.3409v-.1647c0-.4868.1041-.932.3126-1.3364.2081-.4045.5031-.7248.8849-.9618.3814-.2371.8125-.3565,1.2934-.3565.4103,0,.7759.0869,1.0966.2606.3208.1728.5804.4343.7791.7836s.3113.7872.3366,1.3129l-.375-.6162v-3.4618h.8849v7.0214h-.7021v-2.2801h.2597c-.019.5583-.1344,1.0206-.3461,1.3862s-.4809.6343-.808.8071c-.3271.1737-.6926.2606-1.0966.2606-.4809,0-.9139-.1176-1.2984-.3511Zm2.2892-.6497c.2629-.1475.4714-.3565.6252-.6252.1538-.2696.2307-.58.2307-.9329v-.4524c0-.3402-.0787-.6379-.2357-.894-.157-.257-.3687-.4524-.6347-.5872s-.5565-.2018-.8704-.2018c-.3461,0-.651.0814-.9139.2452s-.4664.3927-.6108.6877-.2163.6343-.2163,1.0197c0,.3909.0737.7356.2212,1.0333.1475.2986.3542.5284.6203.6877.266.1611.5691.2407.9089.2407.3208,0,.6126-.0733.8754-.2208Z"/><path d="m73.222,78.6436h3.2126v.6641h-3.2126v-.6641Zm1.1641-1.5871c.295-.2696.7343-.4036,1.3179-.4036h.6347v.7401h-.789c-.2434,0-.4293.067-.5578.2018-.128.1348-.1923.3212-.1923.5583v5.5592h-.856v-5.4154c0-.5583.1475-.9709.4425-1.2405Z"/><path d="m79.2047,78.5857h.7021v2.1933h-.1154c0-.751.1493-1.3292.4474-1.7364s.7456-.6108,1.3418-.6108h.0385c.5963,0,1.0437.2036,1.3418.6108s.447.9854.447,1.7364h-.2692c0-.751.152-1.3292.4569-1.7364.3045-.4072.7551-.6108,1.3514-.6108h.0385c.5963,0,1.0469.2036,1.3514.6108s.4569.9854.4569,1.7364v2.9334h-.8849v-3.1361c0-.4162-.1041-.742-.3126-.9754-.2086-.2343-.4986-.3511-.8704-.3511-.3913,0-.7021.1231-.9329.3701-.2312.247-.3465.5854-.3465,1.0143v3.0782h-.8944v-3.1361c0-.4162-.1045-.742-.3126-.9754-.2086-.2343-.4986-.3511-.8704-.3511-.3913,0-.7021.1231-.9329.3701-.2312.247-.3465.5854-.3465,1.0143v3.0782h-.8849v-5.1267Z"/><path d="m88.3375,83.4093c-.3303-.2923-.4954-.7003-.4954-1.226,0-.532.1796-.9392.5388-1.2215.3588-.2823.8718-.4235,1.5391-.4235h1.4138v.6641h-1.4522c-.3723,0-.6605.0896-.8659.2687-.2054.1801-.3076.4171-.3076.7121s.1022.5284.3076.7021c.2054.1728.4936.2597.8659.2597.3714,0,.6859-.1041.9424-.3122.2565-.209.3945-.5474.4135-1.0152l.2502.3456c-.0516.5583-.2276.979-.5289,1.2604-.3018.2823-.7216.4235-1.26.4235-.5773,0-1.031-.1457-1.3613-.4379Zm3.0542-1.236h-.1543v-1.7798c0-.3583-.0927-.6298-.2787-.8125s-.4587-.2733-.8175-.2733c-.5836,0-1.1514.0181-1.7029.057v-.7791c.4171-.038.8849-.0579,1.4047-.0579.7949,0,1.369.1484,1.7214.4425.3529.2959.5293.7917.5293,1.4911v3.251h-.7021v-1.5391Z"/><path d="m93.5846,78.5857h.7021v2.1933h-.1154c0-.7637.1588-1.3446.4764-1.7463.3171-.3999.7935-.6008,1.4283-.6008h.0385c.6347,0,1.1107.2009,1.4283.6008.3176.4017.4759.9826.4759,1.7463v2.9334h-.8849v-3.1262c0-.4099-.1154-.7356-.3461-.9763s-.542-.3601-.9329-.3601c-.4171,0-.7519.1285-1.0053.3836-.2533.257-.38.5936-.38,1.0107v3.0682h-.8849v-5.1267Z"/><path d="m99.8844,83.2699c-.3266-.3972-.4904-.9682-.4904-1.7119v-2.9814h.8849v3.1642c0,.4099.1108.7302.3321.9618.2212.2307.5207.3456.8994.3456.3972,0,.718-.1267.9618-.38.2434-.2533.3655-.5936.3655-1.0243v-3.0673h.8944v5.1358h-.7021v-2.1933h.1154c0,.7637-.1538,1.3455-.4619,1.7463-.3076.3999-.7632.6008-1.3658.6008h-.0385c-.6026,0-1.0677-.1991-1.3948-.5963Z"/><path d="m105.3721,83.4093c-.3303-.2923-.4954-.7003-.4954-1.226,0-.532.1796-.9392.5388-1.2215.3588-.2823.8718-.4235,1.5391-.4235h1.4138v.6641h-1.4522c-.3723,0-.6605.0896-.8659.2687-.2054.1801-.3076.4171-.3076.7121s.1022.5284.3076.7021c.2054.1728.4936.2597.8659.2597.3714,0,.6859-.1041.9424-.3122.2565-.209.3945-.5474.4135-1.0152l.2502.3456c-.0516.5583-.2276.979-.5289,1.2604-.3018.2823-.7216.4235-1.26.4235-.5773,0-1.031-.1457-1.3613-.4379Zm3.0542-1.236h-.1543v-1.7798c0-.3583-.0927-.6298-.2787-.8125s-.4587-.2733-.8175-.2733c-.5836,0-1.1514.0181-1.7029.057v-.7791c.4171-.038.8849-.0579,1.4047-.0579.7949,0,1.369.1484,1.7214.4425.3529.2959.5293.7917.5293,1.4911v3.251h-.7021v-1.5391Zm-.9333-6.2424h.9333l-1.0582,1.8947h-.7216l.8465-1.8947Z"/><path d="m109.9551,76.691h1.6065v.7021h-1.6065v-.7021Zm.7216,0h.8849v7.0214h-.8849v-7.0214Z"/><path d="m53.9819,96.4188h.5483c.2438,0,.4311-.0661.5628-.1973.1312-.1312.1973-.323.1973-.5728v-5.5212h.8465v5.3873c0,.4235-.0579.7582-.1733,1.0044-.1154.247-.2999.4253-.5528.5338-.2533.1095-.5918.1638-1.0148.1638h-.414v-.7981Zm.4909-6.2912h1.664v.7021h-1.664v-.7021Zm.5818-1.0767c-.0995-.1031-.1488-.2371-.1488-.4036,0-.1737.0493-.3113.1488-.4144.0995-.1022.2452-.1538.4375-.1538.1927,0,.3384.0498.4379.1493.0991.0995.1488.2362.1488.409,0,.1665-.0498.3031-.1488.4081-.0995.1068-.2452.1592-.4379.1592-.1923,0-.338-.0507-.4375-.1538Z"/><path d="m58.4449,95.048c-.3845-.2533-.6682-.5818-.851-.9863-.1828-.4036-.2742-.8333-.2742-1.2885v-.1638c0-.4615.0927-.8949.2787-1.2984s.4669-.7311.8419-.9808.8351-.3755,1.3803-.3755c.5257,0,.9727.1149,1.3418.3465.3683.2307.6442.5357.827.9139s.2742.789.2742,1.2306v.4045h-4.5594v-.6632h3.9147l-.2018.3547c0-.3646-.0593-.684-.1778-.9564-.119-.2724-.2999-.4823-.5438-.6307-.2434-.1466-.5352-.2208-.875-.2208-.3655,0-.6718.0832-.9188.2497-.247.1674-.4311.3963-.5528.6877-.1222.2923-.1828.6307-.1828,1.0152,0,.3855.0624.7239.1873,1.0152.1253.2914.3144.523.5678.6922.2533.1701.5723.2552.9568.2552.3977,0,.7261-.0878.9858-.2651.2597-.1755.4185-.3927.4764-.6488h.837c-.1095.5257-.3674.9392-.7745,1.2405s-.9152.4524-1.5246.4524c-.5705,0-1.0482-.1267-1.4332-.38Z"/><path d="m65.3415,90.1276h.7021v2.1933h-.1154c0-.7501.1493-1.3283.4474-1.7354s.7456-.6117,1.3418-.6117h.0385c.5963,0,1.0437.2045,1.3418.6117s.447.9854.447,1.7354h-.2692c0-.7501.152-1.3283.4569-1.7354.3045-.4072.7551-.6117,1.3514-.6117h.0385c.5963,0,1.0469.2045,1.3514.6117s.4569.9854.4569,1.7354v2.9334h-.8849v-3.1352c0-.4171-.1041-.742-.3126-.9763-.2086-.2334-.4986-.3511-.8704-.3511-.3913,0-.7021.1231-.9329.371-.2312.2461-.3465.5845-.3465,1.0143v3.0773h-.8944v-3.1352c0-.4171-.1045-.742-.3126-.9763-.2086-.2334-.4986-.3511-.8704-.3511-.3913,0-.7021.1231-.9329.371-.2312.2461-.3465.5845-.3465,1.0143v3.0773h-.8849v-5.1267Z"/><path d="m74.4214,90.1276h.7021v2.1164h-.0385c0-.7438.1638-1.2921.4909-1.6441.3266-.3529.827-.5302,1.5002-.5302h.1638v.799h-.3176c-.5194,0-.9184.1366-1.1975.409-.2787.2724-.4185.6723-.4185,1.1971v2.7796h-.8849v-5.1267Z"/><path d="m77.4706,90.1276h3.5202v.6641h-3.5202v-.6641Zm1.7359,5.0118c-.2724-.1149-.4809-.3031-.6252-.5628s-.2163-.6071-.2163-1.0433v-4.9729h.8465v5.0779c0,.2823.0769.4995.2307.6497s.3687.2262.6447.2262h.9039v.7981h-.7886c-.3913,0-.723-.0579-.9958-.1728Z"/><path d="m81.4428,90.1276h.9234l1.7214,5.1267h-.8849l-1.7599-5.1267Zm1.9811,4.4246h1.0772v.7021h-1.0772v-.7021Zm1.9336-4.4246h.8655l-1.5291,5.1267h-.837l1.5006-5.1267Z"/><path d="m86.5211,90.1276h.9039l1.7603,5.0118h-.827l-1.8372-5.0118Zm.3461,6.3301h.7216c.3334,0,.5913-.0651.7741-.1936.1828-.1276.3226-.3547.4185-.6822l1.6355-5.4543h.8655l-1.7219,5.685c-.1027.3393-.2466.6144-.4325.8225-.1864.2081-.4108.3637-.6736.4669-.2629.1022-.5673.1538-.9134.1538h-.6736v-.7981Zm1.5871-2.0594h1.0776v.741h-1.0776v-.741Zm.8754-6.9255h.9329l-1.0577,1.8947h-.7216l.8465-1.8947Z"/><path d="m91.7057,95.0914c-.1027-.1086-.1538-.2443-.1538-.4036,0-.1611.0511-.295.1538-.4045s.2312-.1638.385-.1638.2819.0543.3845.1638.1538.2434.1538.4045c0,.1592-.0511.295-.1538.4036s-.2307.1629-.3845.1629-.2823-.0543-.385-.1629Zm2.5009,0c-.1027-.1086-.1538-.2443-.1538-.4036,0-.1611.0511-.295.1538-.4045s.2307-.1638.385-.1638c.1538,0,.2819.0543.3845.1638s.1538.2434.1538.4045c0,.1592-.0511.295-.1538.4036s-.2307.1629-.3845.1629c-.1543,0-.2823-.0543-.385-.1629Zm2.4914,0c-.1027-.1086-.1543-.2443-.1543-.4036,0-.1611.0516-.295.1543-.4045.1022-.1095.2307-.1638.3845-.1638s.2823.0543.385.1638c.1022.1095.1538.2434.1538.4045,0,.1592-.0516.295-.1538.4036-.1027.1086-.2312.1629-.385.1629s-.2823-.0543-.3845-.1629Z"/><path d="m55.6364,106.5899c-.3845-.2533-.6682-.5809-.851-.9854s-.2742-.8333-.2742-1.2894v-.1629c0-.4615.0927-.8949.2787-1.2993.1859-.4036.4669-.7311.8419-.9808s.8351-.3746,1.3803-.3746c.5257,0,.9727.1149,1.3418.3456.3683.2316.6442.5357.827.9139s.2742.789.2742,1.2315v.4045h-4.5594v-.6641h3.9147l-.2018.3556c0-.3646-.0593-.684-.1778-.9564-.119-.2733-.2999-.4832-.5438-.6307-.2434-.1475-.5352-.2217-.875-.2217-.3655,0-.6718.0841-.9188.2506-.247.1674-.4311.3963-.5528.6877-.1222.2923-.1828.6307-.1828,1.0143,0,.3855.0624.7239.1873,1.0152.1253.2923.3144.523.5678.6931s.5723.2552.9568.2552c.3977,0,.7261-.0887.9858-.2651s.4185-.3927.4764-.6488h.837c-.1095.5248-.3674.9392-.7745,1.2396-.4072.3022-.9152.4524-1.5246.4524-.5705,0-1.0482-.1267-1.4332-.38Z"/><path d="m61.6385,104.0944l-.029.1918-1.7314-2.6158h.9813l1.26,1.9427h.1344l1.193-1.9427h.9134l-1.635,2.5489.029-.1737,1.9332,2.7516h-.9808l-1.4622-2.0965h-.1348l-1.4043,2.0965h-.9134l1.8467-2.7027Z"/><path d="m65.1302,101.6704h1.6735v.7021h-1.6735v-.7021Zm.5913-.9998c-.0995-.1031-.1488-.2371-.1488-.4045,0-.1728.0493-.3104.1488-.4135s.2452-.1538.4379-.1538c.1923,0,.3398.0507.4425.1538.1022.1031.1538.2371.1538.4036,0,.1737-.0516.3113-.1538.4144-.1027.1022-.2502.1538-.4425.1538-.1927,0-.3384-.0516-.4379-.1538Zm.1973.9998h.8849v5.1267h-.8849v-5.1267Z"/><path d="m68.4916,106.5229c-.3687-.285-.5596-.6786-.5723-1.1781h.837c.0063.2371.1136.4379.3221.6008.2081.1638.5275.2461.9568.2461.4103,0,.7279-.0805.9523-.2407.2244-.1611.3366-.3692.3366-.6261,0-.2172-.0814-.3873-.2452-.5094-.1633-.1222-.4248-.2018-.784-.2398l-.5673-.0579c-.5067-.0579-.9057-.2081-1.1975-.4524s-.4375-.5737-.4375-.9908c0-.3212.0832-.5981.2497-.8315.1669-.2343.3959-.4144.6881-.5393.2914-.1249.6266-.1873,1.0048-.1873.5899,0,1.0595.1312,1.4093.3945.3493.2633.5307.6379.5433,1.1247h-.8365c-.0131-.2244-.114-.4072-.3031-.5483-.1891-.1402-.4601-.2117-.813-.2117-.3461,0-.6171.0742-.8125.2217-.1959.1475-.2936.3402-.2936.5773,0,.1991.0692.3574.2068.4759.138.1185.3542.1945.6497.2262l.5578.0579c.5705.057,1.0161.2108,1.3369.4615s.4809.5927.4809,1.0288c0,.3076-.09.5872-.2692.8379-.1796.2497-.4316.4434-.7551.5809-.3239.1384-.6913.2072-1.1016.2072-.6605,0-1.1749-.1421-1.5436-.428Z"/><path d="m72.7189,101.6704h3.5202v.6632h-3.5202v-.6632Zm1.7359,5.0118c-.2724-.1158-.4809-.304-.6252-.5628-.1443-.2606-.2163-.608-.2163-1.0442v-4.9729h.8465v5.0788c0,.2823.0769.4986.2307.6488.1538.1511.3687.2262.6447.2262h.9039v.799h-.7886c-.3913,0-.723-.0579-.9958-.1728Z"/><path d="m77.7009,106.3546c-.3266-.3981-.4904-.9682-.4904-1.7119v-2.9823h.8849v3.1651c0,.4108.1108.7311.3321.9618s.5207.3465.8994.3465c.3972,0,.718-.1267.9618-.38.2434-.2533.3655-.5954.3655-1.0243v-3.0692h.8944v5.1367h-.7021v-2.1924h.1154c0,.7619-.1538,1.3446-.4619,1.7445-.3076.4017-.7632.6017-1.3658.6017h-.0385c-.6026,0-1.0677-.1982-1.3948-.5963Z"/><path d="m82.087,107.9616h.5483c.2438,0,.4311-.067.5628-.1973.1312-.1321.1973-.323.1973-.5728v-5.5212h.8465v5.3864c0,.4235-.0579.7582-.1733,1.0053s-.2999.4244-.5528.5338c-.2533.1095-.5918.1638-1.0148.1638h-.414v-.7981Zm.4909-6.2912h1.664v.7021h-1.664v-.7021Zm.5818-1.0776c-.0995-.1022-.1488-.2371-.1488-.4036,0-.1737.0493-.3113.1488-.4135s.2452-.1547.4375-.1547c.1927,0,.3384.0507.4379.1502.0991.0995.1488.2353.1488.409,0,.1665-.0498.3022-.1488.4081-.0995.1059-.2452.1583-.4379.1583-.1923,0-.338-.0507-.4375-.1538Z"/><path d="m86.55,106.5899c-.3845-.2533-.6682-.5809-.851-.9854s-.2742-.8333-.2742-1.2894v-.1629c0-.4615.0927-.8949.2787-1.2993.1859-.4036.4669-.7311.8419-.9808s.8351-.3746,1.3803-.3746c.5257,0,.9727.1149,1.3418.3456.3683.2316.6442.5357.827.9139s.2742.789.2742,1.2315v.4045h-4.5594v-.6641h3.9147l-.2018.3556c0-.3646-.0593-.684-.1778-.9564-.119-.2733-.2999-.4832-.5438-.6307-.2434-.1475-.5352-.2217-.875-.2217-.3655,0-.6718.0841-.9188.2506-.247.1674-.4311.3963-.5528.6877-.1222.2923-.1828.6307-.1828,1.0143,0,.3855.0624.7239.1873,1.0152.1253.2923.3144.523.5678.6931s.5723.2552.9568.2552c.3977,0,.7261-.0887.9858-.2651s.4185-.3927.4764-.6488h.837c-.1095.5248-.3674.9392-.7745,1.2396-.4072.3022-.9152.4524-1.5246.4524-.5705,0-1.0482-.1267-1.4332-.38Z"/><path d="m91.1189,106.6333c-.1022-.1086-.1538-.2434-.1538-.4036,0-.1611.0516-.295.1538-.4036.1027-.1095.2312-.1647.385-.1647s.2819.0552.3845.1647c.1027.1086.1538.2425.1538.4036,0,.1602-.0511.295-.1538.4036-.1027.1095-.2307.1638-.3845.1638s-.2823-.0543-.385-.1638Z"/><path d="m93.8891,106.5899c-.4171-.2533-.7311-.5827-.9428-.9899-.2113-.4072-.3171-.8361-.3171-1.2848v-.1629c0-.4488.109-.8777.3271-1.2848.2176-.4072.5352-.7365.9523-.9899.4167-.2533.9007-.38,1.4522-.38h4.5978c.551,0,1.0351.1267,1.4522.38.4167.2533.7343.5827.9523.9899.2176.4072.3271.8361.3271,1.2848v.1629c0,.4488-.1059.8777-.3176,1.2848s-.5257.7365-.9428.9899c-.4167.2533-.9071.38-1.4712.38h-4.5978c-.5646,0-1.055-.1267-1.4717-.38Zm7.0599-.6732c.2823-.1701.4954-.4017.6397-.6967s.2167-.6261.2167-.9917-.0756-.6949-.2262-.9899-.3674-.5266-.6492-.6931c-.2823-.1665-.6062-.2497-.9713-.2497-.3723,0-.6976.0832-.9763.2497-.2791.1665-.4954.3981-.6497.6931-.1538.295-.2307.6243-.2307.9899s.0737.6967.2212.9917.3624.5266.6447.6967c.2819.1701.6121.2552.9908.2552.3782,0,.7085-.0851.9903-.2552Z"/><path d="m103.8344,101.6704h.7021v2.1924h-.1154c0-.7619.1588-1.3446.4764-1.7445.3171-.4017.7935-.6017,1.4283-.6017h.0385c.6347,0,1.1107.2,1.4283.6017.3176.3999.4759.9826.4759,1.7445v2.9343h-.8849v-3.1262c0-.4108-.1154-.7356-.3461-.9763-.2307-.2398-.542-.361-.9329-.361-.4171,0-.7519.1285-1.0053.3855-.2533.2561-.38.5936-.38,1.0098v3.0682h-.8849v-5.1267Z"/><path d="m109.0285,99.7757h1.6065v.7021h-1.6065v-.7021Zm.7216,0h.8849v7.0214h-.8849v-7.0214Z"/><path d="m111.7122,101.6704h1.6735v.7021h-1.6735v-.7021Zm.5913-.9998c-.0995-.1031-.1488-.2371-.1488-.4045,0-.1728.0493-.3104.1488-.4135s.2452-.1538.4379-.1538c.1923,0,.3398.0507.4425.1538.1022.1031.1538.2371.1538.4036,0,.1737-.0516.3113-.1538.4144-.1027.1022-.2502.1538-.4425.1538-.1927,0-.3384-.0516-.4379-.1538Zm.1973.9998h.8849v5.1267h-.8849v-5.1267Z"/><path d="m114.9343,101.6704h.7021v2.1924h-.1154c0-.7619.1588-1.3446.4764-1.7445.3171-.4017.7935-.6017,1.4283-.6017h.0385c.6347,0,1.1107.2,1.4283.6017.3176.3999.4759.9826.4759,1.7445v2.9343h-.8849v-3.1262c0-.4108-.1154-.7356-.3461-.9763-.2307-.2398-.542-.361-.9329-.361-.4171,0-.7519.1285-1.0053.3855-.2533.2561-.38.5936-.38,1.0098v3.0682h-.8849v-5.1267Z"/><path d="m121.5997,106.5899c-.3845-.2533-.6682-.5809-.851-.9854s-.2742-.8333-.2742-1.2894v-.1629c0-.4615.0927-.8949.2787-1.2993.1859-.4036.4669-.7311.8419-.9808s.8351-.3746,1.3803-.3746c.5257,0,.9727.1149,1.3418.3456.3683.2316.6442.5357.827.9139s.2742.789.2742,1.2315v.4045h-4.5594v-.6641h3.9147l-.2018.3556c0-.3646-.0593-.684-.1778-.9564-.119-.2733-.2999-.4832-.5438-.6307-.2434-.1475-.5352-.2217-.875-.2217-.3655,0-.6718.0841-.9188.2506-.247.1674-.4311.3963-.5528.6877-.1222.2923-.1828.6307-.1828,1.0143,0,.3855.0624.7239.1873,1.0152.1253.2923.3144.523.5678.6931s.5723.2552.9568.2552c.3977,0,.7261-.0887.9858-.2651s.4185-.3927.4764-.6488h.837c-.1095.5248-.3674.9392-.7745,1.2396-.4072.3022-.9152.4524-1.5246.4524-.5705,0-1.0482-.1267-1.4332-.38Z"/></g><path class="cls-2" d="m100.9486,105.917c.2822-.1699.4955-.4024.6397-.6975.1442-.2948.2164-.6252.2164-.9907s-.0754-.6957-.2261-.9907-.3672-.5258-.6491-.6926c-.2824-.1666-.6061-.25-.9716-.25-.372,0-.6973.0834-.9763.25-.279.1668-.4953.3977-.6493.6926s-.2309.6252-.2309.9907.0737.6959.2212.9907c.1475.2951.3623.5276.6446.6975.2821.1699.6122.2549.9907.2549s.7084-.085.9907-.2549Z"/></g><g><g><path d="m183.3741,102.9416h3.6586v.599h-3.6586v-.599Zm1.4848-1.616h.6809v1.8784h-.6809v-1.8784Zm0,2.9117h.6809v4.7177h-.6809v-4.7177Z"/><path d="m189.0912,102.9416h.599v1.8866l-.1475-.0081c.0217-.4488.119-.8234.2914-1.1238.1719-.3013.3963-.5266.6723-.6768.2764-.1502.5868-.2262.9315-.2262.4099,0,.7763.1031,1.0989.3076.323.2054.5718.4796.7469.8252.1746.3438.2624.722.2624,1.131v.1402c0,.4099-.0918.7872-.2751,1.1319s-.4361.6189-.7587.8243-.6863.3076-1.0912.3076c-.3334,0-.6411-.0724-.9229-.2172-.2814-.1448-.5139-.3737-.6972-.6849s-.2832-.703-.2995-1.1726l.3447.6479v2.9208h-.7551v-6.0134Zm2.9945,3.6419c.2244-.1421.3968-.3393.5171-.5908.1199-.2515.1805-.5411.1805-.8695,0-.323-.0606-.6089-.1805-.8614-.1203-.2515-.2927-.4479-.5171-.5908-.2244-.1421-.4841-.2135-.7795-.2135-.2733,0-.5234.0615-.7505.1846s-.4072.2986-.5415.5257c-.1339.2271-.2009.4913-.2009.7917v.3773c0,.2959.0683.5538.2054.7754.1366.2208.3185.3909.5452.5085.2271.1176.4746.1764.7424.1764.2954,0,.5551-.0715.7795-.2135Z"/><path d="m195.2607,107.1617c-.328-.1991-.5841-.4723-.7668-.8198-.1837-.3475-.2751-.7293-.2751-1.1446v-.1402c0-.4144.0887-.7953.2665-1.1401.1778-.3438.4293-.6171.7551-.8198.3253-.2027.6931-.304,1.1034-.304.3497,0,.6614.0742.9351.2217.2733.1475.4949.3701.6646.6687.1692.2986.2651.6714.2868,1.1202l-.3199-.5248v-2.9533h.7546v5.9881h-.5985v-1.9445h.2212c-.0163.4759-.1149.8695-.2954,1.1817-.1801.3122-.4099.5411-.689.6886-.2787.1484-.5904.2217-.9351.2217-.4103,0-.7795-.0995-1.1075-.2995Zm1.9526-.5538c.2239-.1249.4017-.3031.5329-.5329.1317-.2298.1973-.4949.1973-.7953v-.3855c0-.2904-.067-.5447-.2013-.7637-.1339-.219-.3144-.3855-.5411-.5004-.2271-.1149-.4746-.1728-.7424-.1728-.2954,0-.5556.0706-.7795.2099-.2244.1393-.3981.3348-.5212.5863s-.1846.5411-.1846.8695c0,.3339.0629.6279.1887.8822s.3022.4497.5293.5863c.2271.1375.4854.2054.7754.2054.2733,0,.5221-.0624.7465-.1891Z"/><path d="m199.5016,102.9905h2.7403v.5664h-2.7403v-.5664Zm.9926-1.3536c.2515-.2298.6266-.3447,1.1242-.3447h.5415v.6316h-.6727c-.2081,0-.3665.057-.4759.1728-.1095.114-.1642.2733-.1642.4759v4.7413h-.7302v-4.6182c0-.4759.1258-.8288.3773-1.0586Z"/><path d="m204.6043,102.9416h.599v1.8694h-.0982c0-.6388.1271-1.1328.3814-1.4803s.6356-.5212,1.1441-.5212h.033c.5085,0,.8899.1737,1.1446.5212.2543.3475.3814.8415.3814,1.4803h-.2298c0-.6388.1298-1.1328.3895-1.4803s.6442-.5212,1.1527-.5212h.033c.5085,0,.8926.1737,1.1523.5212s.39.8415.39,1.4803v2.5027h-.7551v-2.6747c0-.3547-.0887-.6334-.2665-.8324s-.4253-.2995-.7424-.2995c-.3334,0-.599.1059-.7958.3158-.1968.2108-.2954.4995-.2954.865v2.6258h-.7628v-2.6747c0-.3547-.0891-.6334-.2665-.8324-.1778-.1991-.4257-.2995-.7429-.2995-.3334,0-.5985.1059-.7953.3158-.1973.2108-.2954.4995-.2954.865v2.6258h-.7551v-4.3721Z"/><path d="m212.3939,107.055c-.2819-.2479-.4226-.5972-.4226-1.046,0-.4542.1534-.8008.4596-1.0414s.7438-.361,1.3124-.361h1.2061v.5664h-1.2387c-.3176,0-.5637.076-.7383.2298-.1751.152-.2629.3547-.2629.6062s.0878.4515.2629.599c.1746.1484.4207.2217.7383.2217.3171,0,.585-.0887.8039-.2669.2185-.1773.3361-.466.3524-.865l.2135.295c-.0439.4759-.1941.8342-.4511,1.0749-.2574.2407-.6153.361-1.0749.361-.4922,0-.879-.124-1.1609-.3737Zm2.605-1.0532h-.1317v-1.5183c0-.3058-.0792-.5375-.2375-.6931-.1588-.1556-.3913-.2334-.6976-.2334-.4977,0-.9817.0163-1.4518.0489v-.6641c.3551-.0335.7546-.0498,1.1975-.0498.6782,0,1.1677.1258,1.4685.3773s.4511.675.4511,1.2722v2.7724h-.5985v-1.312Z"/><path d="m216.8687,102.9416h.599v1.8694h-.0982c0-.6497.1353-1.1464.4058-1.4884.271-.3411.6768-.513,1.2183-.513h.033c.5411,0,.9473.1719,1.2179.513.271.342.4063.8388.4063,1.4884v2.5027h-.7546v-2.6656c0-.3511-.0986-.6279-.2954-.8333s-.4624-.3076-.7958-.3076c-.3556,0-.6415.1095-.8573.3285-.2163.219-.3239.5058-.3239.8614v2.6167h-.7551v-4.3721Z"/><path d="m222.2425,106.9364c-.2796-.3393-.4189-.8261-.4189-1.4604v-2.5435h.7546v2.7c0,.3493.095.6225.2841.8198.1882.1973.4434.295.7664.295.3393,0,.6126-.1077.8207-.3239.2081-.2153.3113-.5067.3113-.8741v-2.6167h.7637v4.3811h-.599v-1.8703h.0977c0,.6506-.1303,1.1464-.3936,1.4884-.2624.342-.6506.513-1.1645.513h-.0326c-.5139,0-.9112-.1692-1.1898-.5085Z"/><path d="m226.9231,107.055c-.2823-.2479-.4235-.5972-.4235-1.046,0-.4542.1538-.8008.4596-1.0414.3067-.2407.7438-.361,1.3129-.361h1.2061v.5664h-1.2387c-.3176,0-.5637.076-.7383.2298-.1746.152-.2633.3547-.2633.6062s.0887.4515.2633.599c.1746.1484.4207.2217.7383.2217s.5854-.0887.8044-.2669c.2181-.1773.3357-.466.352-.865l.2135.295c-.0443.4759-.1945.8342-.4515,1.0749s-.6153.361-1.0749.361c-.4922,0-.8786-.124-1.16-.3737Zm2.6041-1.0532h-.1312v-1.5183c0-.3058-.0787-.5375-.238-.6931-.1583-.1556-.3909-.2334-.6967-.2334-.4977,0-.9826.0163-1.4522.0489v-.6641c.3556-.0335.7546-.0498,1.1971-.0498.6786,0,1.1681.1258,1.4694.3773.3004.2515.4506.675.4506,1.2722v2.7724h-.599v-1.312Zm-.7953-5.3249h.7953l-.9021,1.616h-.6153l.722-1.616Z"/><path d="m230.8319,101.3256h1.3699v.5981h-1.3699v-.5981Zm.6153,0h.7546v5.9881h-.7546v-5.9881Z"/><path d="m182.9556,118.1508h.4673c.2081,0,.3678-.0561.48-.1683s.1683-.2742.1683-.4877v-4.7087h.722v4.5938c0,.361-.0493.6469-.1479.8569-.0982.2108-.2556.3619-.4714.456-.2163.0923-.5049.1393-.8659.1393h-.3524v-.6813Zm.4185-5.3647h1.4192v.599h-1.4192v-.599Zm.4963-.9193c-.0851-.0869-.1271-.2027-.1271-.3447,0-.1475.0421-.2651.1271-.352.0846-.0887.209-.1321.3732-.1321.1638,0,.2882.0425.3732.1267.0846.0851.1271.2018.1271.3493,0,.143-.0425.2588-.1271.3493-.0851.0896-.2095.1348-.3732.1348-.1642,0-.2886-.0443-.3732-.1312Z"/><path d="m186.7622,116.9818c-.3285-.2163-.5705-.4967-.7261-.8406-.1561-.3447-.2339-.7112-.2339-1.0994v-.1402c0-.3927.0792-.7619.238-1.1075.1583-.3438.3977-.6225.718-.8361.3199-.2135.7121-.3203,1.1772-.3203.4483,0,.8297.0986,1.1441.295.3144.1973.5497.4578.7058.78.1556.3221.2339.6732.2339,1.0496v.3456h-3.8889v-.5664h3.3392l-.1724.3031c0-.3122-.0507-.5836-.152-.8161-.1009-.2325-.2556-.4117-.4633-.5375-.2081-.1258-.4569-.1891-.7465-.1891-.3117,0-.5732.0715-.7836.2135-.2104.143-.3678.3384-.4719.5863-.1036.2497-.1556.5375-.1556.8659s.0534.6162.1597.8659c.1068.2488.2683.4452.4841.5899.2163.1457.4882.2181.8166.2181.3389,0,.6194-.0751.8406-.2253.2217-.1502.357-.3348.4063-.5538h.7139c-.0932.4479-.3135.8008-.6605,1.0577-.3475.257-.7809.3855-1.3002.3855-.4872,0-.8944-.1077-1.2224-.3239Z"/><path d="m192.6435,112.7861h.599v1.8694h-.0982c0-.6388.1271-1.1328.3814-1.4803s.6356-.5212,1.1441-.5212h.033c.5085,0,.8899.1737,1.1446.5212.2543.3475.3814.8415.3814,1.4803h-.2298c0-.6388.1298-1.1328.3895-1.4803s.6442-.5212,1.1527-.5212h.033c.5085,0,.8926.1737,1.1523.5212s.39.8415.39,1.4803v2.5027h-.7551v-2.6747c0-.3547-.0887-.6334-.2665-.8324s-.4253-.2995-.7424-.2995c-.3334,0-.599.1059-.7958.3158-.1968.2108-.2954.4995-.2954.865v2.6258h-.7628v-2.6747c0-.3547-.0891-.6334-.2665-.8324-.1778-.1991-.4257-.2995-.7429-.2995-.3334,0-.5985.1059-.7953.3158-.1973.2108-.2954.4995-.2954.865v2.6258h-.7551v-4.3721Z"/><path d="m200.3879,112.7861h.599v1.8042h-.0326c0-.6343.1393-1.1021.418-1.4025.2791-.3004.7058-.4515,1.2799-.4515h.1398v.6813h-.271c-.4429,0-.7836.1158-1.0211.3484-.238.2325-.357.5728-.357,1.0215v2.3706h-.7551v-4.3721Z"/><path d="m202.9888,112.7861h3.0026v.5655h-3.0026v-.5655Zm1.4807,4.2735c-.2325-.0986-.4103-.2579-.5334-.4796s-.1846-.5185-.1846-.8903v-4.2409h.722v4.3314c0,.2407.0656.4253.1968.5538s.3144.1927.5497.1927h.7714v.6804h-.6727c-.3339,0-.6166-.0489-.8492-.1475Z"/><path d="m206.3764,112.7861h.7876l1.4685,4.3721h-.7546l-1.5016-4.3721Zm1.6902,3.7731h.9188v.599h-.9188v-.599Zm1.649-3.7731h.7383l-1.3048,4.3721h-.7135l1.2799-4.3721Z"/><path d="m210.7087,112.7861h.7709l1.5016,4.2735h-.7058l-1.5667-4.2735Zm.295,5.3982h.6153c.2846,0,.5049-.0552.6605-.1647.1561-.1095.2751-.304.357-.5827l1.3948-4.6508h.7383l-1.4685,4.848c-.0878.2895-.2108.523-.3692.7012-.1588.1782-.3502.3104-.5746.3981-.2239.0878-.4841.1312-.7791.1312h-.5746v-.6804Zm1.3536-1.7563h.9188v.6316h-.9188v-.6316Zm.7469-5.9067h.7953l-.9021,1.616h-.6153l.722-1.616Z"/><path d="m215.1301,117.0188c-.0878-.0932-.1312-.2081-.1312-.3447s.0434-.2515.1312-.3447c.0873-.0923.1968-.1393.328-.1393s.2407.0471.3285.1393c.0873.0932.1312.2081.1312.3447s-.0439.2515-.1312.3447c-.0878.0923-.1973.1393-.3285.1393s-.2407-.0471-.328-.1393Zm2.1331,0c-.0878-.0932-.1317-.2081-.1317-.3447s.0439-.2515.1317-.3447c.0873-.0923.1968-.1393.328-.1393s.2407.0471.328.1393c.0878.0932.1312.2081.1312.3447s-.0434.2515-.1312.3447c-.0873.0923-.1968.1393-.328.1393s-.2407-.0471-.328-.1393Zm2.1245,0c-.0873-.0932-.1312-.2081-.1312-.3447s.0439-.2515.1312-.3447c.0873-.0923.1968-.1393.3285-.1393.1312,0,.2402.0471.328.1393.0873.0932.1312.2081.1312.3447s-.0439.2515-.1312.3447c-.0878.0923-.1968.1393-.328.1393-.1317,0-.2411-.0471-.3285-.1393Z"/><path d="m184.3666,126.8262c-.3285-.2163-.5705-.4967-.7261-.8406-.1561-.3447-.2339-.7112-.2339-1.0994v-.1402c0-.3927.0792-.7619.238-1.1075.1583-.3438.3977-.6225.718-.8361.3199-.2135.7121-.3203,1.1772-.3203.4483,0,.8297.0986,1.1441.295.3144.1973.5497.4578.7058.78.1556.3221.2339.6732.2339,1.0496v.3456h-3.8889v-.5664h3.3392l-.1724.3031c0-.3122-.0507-.5836-.152-.8161-.1009-.2325-.2556-.4117-.4633-.5375-.2081-.1258-.4569-.1891-.7465-.1891-.3117,0-.5732.0715-.7836.2135-.2104.143-.3678.3384-.4719.5863-.1036.2497-.1556.5375-.1556.8659s.0534.6162.1597.8659c.1068.2488.2683.4452.4841.5899.2163.1457.4882.2181.8166.2181.3389,0,.6194-.0751.8406-.2253.2217-.1502.357-.3348.4063-.5538h.7139c-.0932.4479-.3135.8008-.6605,1.0577-.3475.257-.7809.3855-1.3002.3855-.4872,0-.8944-.1077-1.2224-.3239Z"/><path d="m189.4857,124.6972l-.0249.1647-1.4767-2.2313h.837l1.0745,1.6567h.1149l1.0175-1.6567h.7791l-1.3943,2.1734.0244-.1475,1.649,2.3462h-.837l-1.2468-1.7879h-.1149l-1.1975,1.7879h-.7795l1.5753-2.3055Z"/><path d="m192.4634,122.6306h1.4274v.599h-1.4274v-.599Zm.5044-.8542c-.0846-.0869-.1271-.2018-.1271-.3438,0-.1484.0425-.266.1271-.3529.0846-.0878.2095-.1321.3732-.1321.1642,0,.29.0443.3773.1321.0878.0869.1317.2027.1317.3438,0,.1484-.0439.266-.1317.3529-.0873.0878-.2131.1321-.3773.1321-.1638,0-.2886-.0443-.3732-.1321Zm.1683.8542h.7546v4.3721h-.7546v-4.3721Z"/><path d="m195.3308,126.7692c-.3144-.2443-.4773-.5791-.4882-1.0053h.7139c.0054.2018.0968.3737.2746.513s.4497.209.8166.209c.3497,0,.6203-.0679.8121-.2054.1914-.1366.2868-.3149.2868-.5329,0-.1855-.0697-.3312-.209-.4352-.1393-.1031-.3624-.1719-.6687-.2045l-.4841-.0498c-.4321-.0489-.7723-.1773-1.0211-.3855-.2493-.2072-.3732-.4895-.3732-.8451,0-.2733.071-.5094.2131-.7094s.3375-.3529.5868-.4596c.2488-.1059.5343-.1602.8573-.1602.5031,0,.9035.1122,1.2016.3366s.4524.5447.4637.96h-.7139c-.0109-.1909-.0973-.3475-.2583-.4678-.1615-.1203-.3927-.181-.6931-.181-.2954,0-.5266.0633-.6935.1891s-.2502.2904-.2502.4922c0,.1692.0588.3049.1764.4063s.3022.1656.5538.1927l.4759.0498c.4868.0489.8668.1801,1.1401.3927.2737.2135.4103.5067.4103.8786,0,.2624-.0765.5004-.2298.7139-.1529.2135-.3678.3782-.6438.4958-.2764.1176-.5895.1764-.9392.1764-.5637,0-1.0025-.1222-1.317-.3646Z"/><path d="m198.9365,122.6306h3.0026v.5655h-3.0026v-.5655Zm1.4807,4.2735c-.2325-.0986-.4103-.2579-.5334-.4796s-.1846-.5185-.1846-.8903v-4.2409h.722v4.3314c0,.2407.0656.4253.1968.5538s.3144.1927.5497.1927h.7714v.6804h-.6727c-.3339,0-.6166-.0489-.8492-.1475Z"/><path d="m203.186,126.6253c-.2791-.3393-.4185-.8261-.4185-1.4604v-2.5435h.7546v2.7c0,.3493.0946.6225.2832.8198s.4443.295.7668.295c.3393,0,.6126-.1077.8207-.3239.2077-.2153.3117-.5067.3117-.8741v-2.6167h.7628v4.3811h-.599v-1.8703h.0986c0,.6506-.1312,1.1464-.394,1.4884-.2624.342-.6506.513-1.1645.513h-.033c-.5139,0-.9107-.1692-1.1894-.5085Z"/><path d="m206.9266,127.9952h.4673c.2081,0,.3678-.0561.48-.1683s.1683-.2742.1683-.4877v-4.7087h.722v4.5938c0,.361-.0493.6469-.1479.8569-.0982.2108-.2556.3619-.4714.456-.2163.0923-.5049.1393-.8659.1393h-.3524v-.6813Zm.4185-5.3647h1.4192v.599h-1.4192v-.599Zm.4963-.9193c-.0851-.0869-.1271-.2027-.1271-.3447,0-.1475.0421-.2651.1271-.352.0846-.0887.209-.1321.3732-.1321.1638,0,.2882.0425.3732.1267.0846.0851.1271.2018.1271.3493,0,.143-.0425.2588-.1271.3493-.0851.0896-.2095.1348-.3732.1348-.1642,0-.2886-.0443-.3732-.1312Z"/><path d="m210.7331,126.8262c-.3285-.2163-.5705-.4967-.7261-.8406-.1561-.3447-.2339-.7112-.2339-1.0994v-.1402c0-.3927.0792-.7619.238-1.1075.1583-.3438.3977-.6225.718-.8361.3199-.2135.7121-.3203,1.1772-.3203.4483,0,.8297.0986,1.1441.295.3144.1973.5497.4578.7058.78.1556.3221.2339.6732.2339,1.0496v.3456h-3.8889v-.5664h3.3392l-.1724.3031c0-.3122-.0507-.5836-.152-.8161-.1009-.2325-.2556-.4117-.4633-.5375-.2081-.1258-.4569-.1891-.7465-.1891-.3117,0-.5732.0715-.7836.2135-.2104.143-.3678.3384-.4719.5863-.1036.2497-.1556.5375-.1556.8659s.0534.6162.1597.8659c.1068.2488.2683.4452.4841.5899.2163.1457.4882.2181.8166.2181.3389,0,.6194-.0751.8406-.2253.2217-.1502.357-.3348.4063-.5538h.7139c-.0932.4479-.3135.8008-.6605,1.0577-.3475.257-.7809.3855-1.3002.3855-.4872,0-.8944-.1077-1.2224-.3239Z"/><path d="m214.6298,126.8633c-.0873-.0932-.1312-.2081-.1312-.3447s.0439-.2515.1312-.3447c.0878-.0923.1973-.1393.3285-.1393s.2407.0471.328.1393c.0873.0932.1312.2081.1312.3447s-.0439.2515-.1312.3447c-.0873.0923-.1968.1393-.328.1393s-.2407-.0471-.3285-.1393Z"/><path d="m216.9927,126.8262c-.3556-.2163-.6239-.4977-.8044-.8451-.1801-.3465-.2705-.7121-.2705-1.0948v-.1402c0-.3818.0927-.7474.2791-1.0948.1855-.3475.4565-.6289.8121-.8451.3556-.2153.7682-.3239,1.2387-.3239h3.9215c.4705,0,.8831.1086,1.2387.3239.3556.2163.6261.4977.8116.8451.1864.3475.2796.713.2796,1.0948v.1402c0,.3827-.0905.7483-.2705,1.0948-.181.3475-.4488.6289-.8044.8451s-.7736.3239-1.255.3239h-3.9215c-.4814,0-.8998-.1077-1.255-.3239Zm6.0216-.5746c.2407-.1448.4216-.3429.5447-.5945s.1846-.5329.1846-.8451-.0633-.5927-.1918-.8442-.3131-.4488-.5538-.5918c-.2407-.1412-.5176-.2126-.8288-.2126-.3167,0-.5954.0715-.8329.2126-.238.143-.4226.3402-.5538.5918s-.1968.532-.1968.8442.0629.5936.1887.8451.309.4497.5497.5945.5221.2172.8451.2172c.3221,0,.6044-.0724.8451-.2172Z"/><path d="m225.4754,122.6306h.599v1.8694h-.0986c0-.6497.1348-1.1464.4063-1.4884.2705-.3411.6768-.513,1.2179-.513h.0326c.5411,0,.9483.1719,1.2179.513.2714.342.4072.8388.4072,1.4884v2.5027h-.7546v-2.6656c0-.3511-.0995-.6279-.2959-.8333s-.4624-.3076-.7953-.3076c-.3565,0-.6424.1095-.8578.3285-.2163.219-.3239.5058-.3239.8614v2.6167h-.7546v-4.3721Z"/><path d="m229.9054,121.0145h1.3699v.5981h-1.3699v-.5981Zm.6153,0h.7546v5.9881h-.7546v-5.9881Z"/><path d="m232.1946,122.6306h1.4269v.599h-1.4269v-.599Zm.504-.8542c-.0841-.0869-.1276-.2018-.1276-.3438,0-.1484.0434-.266.1276-.3529.0841-.0878.209-.1321.3737-.1321.1638,0,.2895.0443.3764.1321.0887.0869.1321.2027.1321.3438,0,.1484-.0434.266-.1321.3529-.0869.0878-.2126.1321-.3764.1321-.1647,0-.2895-.0443-.3737-.1321Zm.1683.8542h.7546v4.3721h-.7546v-4.3721Z"/><path d="m234.9416,122.6306h.599v1.8694h-.0977c0-.6497.1357-1.1464.4054-1.4884.2714-.3411.6768-.513,1.2188-.513h.0335c.5411,0,.9464.1719,1.2179.513.2705.342.4054.8388.4054,1.4884v2.5027h-.7546v-2.6656c0-.3511-.0977-.6279-.295-.8333s-.4624-.3076-.7962-.3076c-.3547,0-.6406.1095-.8569.3285s-.3239.5058-.3239.8614v2.6167h-.7555v-4.3721Z"/><path d="m240.6275,126.8262c-.3285-.2163-.57-.4967-.7257-.8406-.1565-.3447-.2343-.7112-.2343-1.0994v-.1402c0-.3927.0787-.7619.238-1.1075.1583-.3438.3981-.6225.7184-.8361.3194-.2135.7112-.3203,1.1763-.3203.4488,0,.8306.0986,1.1446.295.314.1973.5492.4578.7058.78.1556.3221.2343.6732.2343,1.0496v.3456h-3.8889v-.5664h3.3388l-.1719.3031c0-.3122-.0507-.5836-.152-.8161s-.2561-.4117-.4633-.5375c-.2081-.1258-.4578-.1891-.7474-.1891-.3113,0-.5728.0715-.7836.2135-.2099.143-.3674.3384-.4714.5863-.1041.2497-.1556.5375-.1556.8659s.0534.6162.1602.8659c.1068.2488.2678.4452.4832.5899.2172.1457.4886.2181.8171.2181.3393,0,.6198-.0751.8406-.2253.2217-.1502.3565-.3348.4063-.5538h.7139c-.0932.4479-.3131.8008-.6605,1.0577s-.7809.3855-1.3002.3855c-.4877,0-.8949-.1077-1.2224-.3239Z"/></g><path class="cls-2" d="m223.0136,126.2515c.2407-.1449.4226-.3432.5456-.5949.123-.2514.1845-.5332.1845-.8449s-.0643-.5934-.1928-.8449-.3132-.4485-.5536-.5907c-.2409-.1421-.5169-.2132-.8287-.2132-.3173,0-.5947.0711-.8327.2132-.2379.1422-.4225.3392-.5538.5907s-.197.5332-.197.8449.0628.5935.1887.8449c.1258.2517.309.45.5498.5949.2406.1449.5221.2174.8449.2174s.6042-.0725.8449-.2174Z"/></g></svg>