<?xml version="1.0" encoding="UTF-8"?><svg id="Vrstva_1" xmlns="http://www.w3.org/2000/svg" viewBox="0 0 330 296.6098"><defs><style>.cls-1{fill:#ededed;}.cls-2{fill:#b700ff;}.cls-3{fill:#d280ff;}</style></defs><g><rect class="cls-1" x="51.1687" y="66.3064" width="114.2868" height="114.2868"/><rect class="cls-1" x="177.2003" y="66.3064" width="101.6073" height="180.1489"/><rect class="cls-1" x="51.1687" y="192.1526" width="114.2868" height="54.3026"/><rect class="cls-2" x="108.1676" y="42.6368" width=".289" height="161.6258" transform="translate(-55.5683 112.7457) rotate(-45)"/><rect class="cls-2" x="51.1687" y="66.3064" width="4.8488" height="4.8488"/><rect class="cls-3" x="88.4562" y="66.3064" width="4.8488" height="114.2868"/><rect class="cls-3" x="123.3192" y="66.3064" width="4.8488" height="114.2868"/><rect class="cls-3" x="105.8877" y="48.8748" width="4.8488" height="114.2868" transform="translate(214.3303 -2.2939) rotate(90)"/><rect class="cls-3" x="105.8877" y="83.7379" width="4.8488" height="114.2868" transform="translate(249.1934 32.5692) rotate(90)"/><rect class="cls-2" x="160.6067" y="175.7444" width="4.8488" height="4.8488"/><rect class="cls-2" x="51.1688" y="105.8738" width="114.2867" height=".289"/><rect class="cls-2" x="51.1688" y="140.7368" width="114.2867" height=".289"/><rect class="cls-2" x="90.736" y="66.3064" width=".289" height="114.2868"/><rect class="cls-2" x="125.5992" y="66.3064" width=".289" height="114.2868"/><rect class="cls-2" x="51.1688" y="175.5999" width="114.2867" height=".289"/><rect class="cls-2" x="160.4622" y="66.3064" width=".289" height="114.2868"/><rect class="cls-2" x="51.1688" y="71.0107" width="114.2867" height=".289"/><rect class="cls-2" x="55.873" y="66.3064" width=".289" height="114.2868"/><rect class="cls-2" x="227.8594" y="52.967" width=".289" height="206.8276" transform="translate(-47.4142 132.182) rotate(-29.4238)"/><rect class="cls-2" x="177.2003" y="66.3064" width="6.2048" height="6.2048"/><rect class="cls-3" x="177.2003" y="125.3219" width="101.6073" height="6.2048"/><rect class="cls-3" x="177.2003" y="181.235" width="101.6073" height="6.2048"/><rect class="cls-3" x="210.0353" y="66.3064" width="6.2048" height="180.1489"/><rect class="cls-3" x="239.7678" y="66.3064" width="6.2048" height="180.1489"/><rect class="cls-2" x="272.6028" y="240.2504" width="6.2048" height="6.2048"/><rect class="cls-2" x="177.2003" y="128.2799" width="101.6072" height=".289"/><rect class="cls-2" x="177.2003" y="184.1928" width="101.6072" height=".289"/><rect class="cls-2" x="212.9931" y="66.3064" width=".289" height="180.1489"/><rect class="cls-2" x="242.7258" y="66.3064" width=".289" height="179.5549"/><rect class="cls-2" x="177.2003" y="72.3668" width="101.6072" height=".289"/><rect class="cls-2" x="272.4583" y="66.3064" width=".289" height="180.1489"/><rect class="cls-2" x="177.2003" y="240.1059" width="101.6072" height=".289"/><rect class="cls-2" x="183.2606" y="66.3064" width=".289" height="180.1489"/><rect class="cls-2" x="108.1676" y="156.0382" width=".289" height="126.5315" transform="translate(-136.2527 223.0172) rotate(-64.5855)"/><rect class="cls-2" x="51.1687" y="192.1526" width="3.796" height="3.796"/><rect class="cls-3" x="88.6316" y="192.1526" width="3.796" height="54.3026"/><rect class="cls-3" x="124.1966" y="192.1526" width="3.796" height="54.3026"/><rect class="cls-3" x="51.1687" y="209.6209" width="114.2868" height="3.796"/><rect class="cls-3" x="51.1687" y="225.1911" width="114.2868" height="3.796"/><rect class="cls-2" x="161.6595" y="242.6593" width="3.796" height="3.796"/><rect class="cls-2" x="51.1688" y="211.3744" width="114.2867" height=".289"/><rect class="cls-2" x="51.1688" y="226.9446" width="114.2867" height=".289"/><rect class="cls-2" x="90.3851" y="192.0865" width=".289" height="54.3688"/><rect class="cls-2" x="125.9501" y="192.1526" width=".289" height="54.3026"/><rect class="cls-2" x="54.8202" y="192.1526" width=".289" height="54.3026"/><rect class="cls-2" x="161.515" y="192.1526" width=".289" height="54.3026"/><rect class="cls-2" x="51.1688" y="195.8041" width="114.2867" height=".289"/><rect class="cls-2" x="51.1688" y="242.5149" width="114.2867" height=".289"/></g><rect class="cls-3" x="51.2497" y="50.3408" width="6.7601" height="6.7601"/><g><path class="cls-2" d="m68.6547,57.021c-.3543-.1924-.6227-.4509-.8061-.7748-.1834-.323-.2747-.6773-.2747-1.062h.8607c0,.4151.1333.7453.399.9895s.6236.3659,1.0763.3659c.2988,0,.5583-.0546.7784-.1646s.391-.2675.5136-.4724c.1217-.204.1825-.4438.1825-.7184,0-.416-.1342-.7515-.4026-1.0083-.2693-.2559-.6227-.3847-1.0629-.3847-.3364,0-.62.0796-.8518.238l-.4402-.7873,2.5562-1.869-.0913-.1655h-3.2522v-.7507h4.0763v1.2186l-2.116,1.5389-.6415.0277c.238-.0859.501-.1288.7882-.1288.4697,0,.8795.0904,1.2275.2702.348.1807.6138.4232.7972.7292.1834.3051.2747.6406.2747,1.0074v.1279c0,.3606-.0913.6979-.2747,1.0128s-.4527.5681-.8061.7605c-.3543.1924-.773.2881-1.2553.2881-.4831,0-.901-.0957-1.2553-.2881Z"/><path class="cls-2" d="m76.0387,53.562c-.2443-.3239-.3659-.7354-.3659-1.2365v-.238c0-.5198.1235-.9368.3704-1.2508.2478-.3149.6156-.4724,1.1041-.4724s.8571.1575,1.1041.4724c.2478.314.3713.731.3713,1.2508v.238c0,.501-.1226.9126-.3668,1.2365s-.6138.4858-1.1085.4858-.8643-.1619-1.1085-.4858Zm1.7366-.4259c.1369-.2049.2058-.5118.2058-.9206,0-.4277-.0689-.7426-.2058-.9439-.1378-.2013-.3471-.3024-.6281-.3024s-.4903.1011-.6272.3024c-.1378.2013-.2067.5136-.2067.935,0,.4151.0689.7247.2067.9296.1369.2049.3462.3069.6272.3069s.4903-.102.6281-.3069Zm2.3951-2.6796h.697l-2.5293,6.6879h-.6961l2.5284-6.6879Zm.0465,6.2942c-.2443-.3239-.3668-.7363-.3668-1.2374v-.238c0-.5189.1235-.9359.3713-1.2508.2469-.314.6147-.4715,1.1041-.4715.4885,0,.8562.1575,1.1041.4715.2469.3149.3704.7319.3704,1.2508v.238c0,.501-.1217.9135-.3659,1.2374s-.6138.4849-1.1085.4849-.8643-.161-1.1085-.4849Zm1.7357-.4259c.1378-.2049.2067-.5118.2067-.9215,0-.4268-.0689-.7417-.2067-.943-.1369-.2022-.3462-.3024-.6272-.3024s-.4903.1002-.6281.3024c-.1369.2013-.2058.5127-.2058.9341,0,.4151.0689.7256.2058.9305.1378.204.3471.3069.6281.3069s.4903-.1029.6272-.3069Z"/><path class="cls-2" d="m87.3629,56.9476c-.3972-.2416-.6979-.5556-.9019-.9439-.2049-.3874-.3078-.7954-.3078-1.2231v-.1646c0-.4277.1056-.8357.3167-1.2231.2103-.3883.5145-.7023.9117-.9439.3964-.2416.8607-.3615,1.3922-.3615s.9958.1199,1.3931.3615c.3964.2416.7006.5556.9108.9439.2111.3874.3167.7954.3167,1.2231v.1646c0,.4277-.1029.8357-.3069,1.2231-.2049.3883-.5055.7023-.9028.9439-.3972.2407-.867.3615-1.4109.3615s-1.0137-.1208-1.4109-.3615Zm2.3405-.6648c.2657-.1584.4679-.3767.6048-.6549.1378-.2774.2067-.5878.2067-.9296,0-.348-.0725-.6612-.2156-.9394-.1432-.2774-.3462-.4948-.6093-.6504-.2621-.1557-.5681-.2335-.9162-.2335s-.6531.0778-.9162.2335c-.2621.1557-.4661.3731-.6093.6504-.1432.2783-.2147.5914-.2147.9394,0,.3418.068.6522.2058.9296.1378.2783.3391.4966.6048.6549.2657.1593.5753.2389.9296.2389s.6648-.0796.9296-.2389Z"/><path class="cls-2" d="m92.9423,50.4565h.8795v6.6879h-.8795v-6.6879Zm1.5299,4.4064h-.8061l2.2448-2.6107h.9251l-2.0337,2.3549.0635-.4679,2.4649,3.0053h-1.0173l-1.8413-2.2815Z"/><path class="cls-2" d="m98.4205,52.2522h.6961v2.0158h-.0367c0-.7086.1557-1.2311.4679-1.5666.3114-.3364.7847-.5046,1.4199-.5046h.1646v.7882h-.3114c-.4885,0-.8643.1297-1.1273.3892-.2621.2595-.3937.6343-.3937,1.1229v2.6474h-.8795v-4.8922Z"/><path class="cls-2" d="m102.4377,56.8554c-.314-.2774-.4715-.6701-.4715-1.1765,0-.5136.1727-.9045.518-1.173.3445-.2684.8383-.4035,1.4789-.4035h1.3286v.6603h-1.3653c-.348,0-.6182.0841-.8106.2514-.1924.1682-.2881.3892-.2881.6648,0,.2747.0957.493.2881.6549s.4626.2425.8106.2425c.3489,0,.6433-.0975.8849-.2935.2407-.195.3704-.5127.3892-.9529l.238.3489c-.0492.5252-.2156.9215-.4992,1.1908-.2845.2684-.6827.4026-1.1953.4026-.5565,0-.9913-.1387-1.3063-.4169Zm2.9096-1.1765h-.1467v-1.6955c0-.3355-.0877-.5896-.2613-.7605-.1745-.1709-.4295-.2559-.765-.2559-.5556,0-1.1023.0179-1.64.0546v-.7694c.3972-.0367.8455-.0555,1.3465-.0555.7632,0,1.3152.1414,1.6543.4214.3382.2818.5082.7578.5082,1.4297v3.0966h-.6961v-1.4655Z"/><path class="cls-2" d="m107.024,58.2252h.5127c.2317,0,.4107-.0626.5359-.1879s.1879-.3033.1879-.5359v-5.2492h.8428v5.1213c0,.4089-.0564.7328-.1691.9708-.1136.2389-.2926.4098-.5359.5136-.2451.1038-.5744.1557-.9895.1557h-.3847v-.7882Zm.467-5.973h1.6123v.6961h-1.6123v-.6961Zm.5493-1.0128c-.0975-.1002-.1467-.2335-.1467-.3981s.0492-.2979.1467-.399c.0975-.1002.2416-.1512.4304-.1512.1897,0,.3328.051.4312.1512.0975.1011.1467.2344.1467.399s-.0492.2979-.1467.3981c-.0984.1011-.2416.1512-.4312.1512-.1888,0-.3328-.0501-.4304-.1512Z"/><path class="cls-2" d="m111.7283,56.9476c-.3695-.2416-.6415-.5547-.816-.9394-.1736-.3847-.2613-.7936-.2613-1.2275v-.1646c0-.4402.0886-.8527.2657-1.2374s.4465-.6961.807-.9341c.3597-.238.7999-.357,1.3188-.357.5073,0,.9359.1092,1.2875.3293.3507.2201.6138.5118.7873.875.1745.3632.2613.756.2613,1.1774v.3937h-4.342v-.6594h3.7014l-.2022.357c0-.348-.0546-.6504-.1646-.9063-.11-.2568-.2783-.4536-.5037-.5914-.2264-.1378-.501-.2058-.8249-.2058-.3418,0-.629.0778-.8607.2335-.2326.1557-.4053.3713-.518.646s-.1691.595-.1691.9618c0,.3606.0573.6782.1736.9529s.2935.4912.5315.6504.5377.238.8983.238c.3722,0,.6809-.0823.9251-.2469.2443-.1655.3937-.3668.4491-.6048h.824c-.1038.5073-.3507.9036-.7417,1.1908s-.8768.4304-1.4566.4304c-.544,0-1.0003-.1208-1.3698-.3615Z"/><path class="cls-2" d="m119.1722,52.2522h.6961v2.116l-.1646-.0179c.0242-.5073.1324-.9287.3257-1.2642.1924-.3364.442-.5869.7507-.7515s.6522-.2469,1.0307-.2469c.4581,0,.867.1145,1.2275.3436s.6388.5359.8339.9206c.1959.3847.2935.8061.2935,1.2642v.1646c0,.4581-.1029.8795-.3069,1.2642-.2049.3847-.4876.6916-.8473.9206-.3606.229-.7668.3436-1.2186.3436-.3668,0-.7077-.0787-1.0217-.238-.3149-.1584-.5744-.4125-.7784-.7605-.2049-.348-.3194-.7873-.3436-1.3188l.4026.7328v3.2522h-.8795v-6.7246Zm3.3399,4.0539c.2469-.1557.4375-.3722.5726-.6504.1342-.2783.2013-.5968.2013-.9573s-.0671-.6791-.2013-.9573c-.1351-.2783-.3257-.4948-.5726-.6504-.2478-.1557-.5332-.2335-.8571-.2335-.2988,0-.5744.0671-.824.2013-.2505.1342-.4491.3266-.5959.5771s-.2201.544-.2201.8795v.4214c0,.3239.0752.6084.2246.8518.1494.2451.3498.4312.6003.5592s.5216.1924.8151.1924c.3239,0,.6093-.0778.8571-.2335Z"/><path class="cls-2" d="m125.7134,52.2522h.6961v2.0158h-.0367c0-.7086.1557-1.2311.4679-1.5666.3114-.3364.7847-.5046,1.4199-.5046h.1646v.7882h-.3114c-.4885,0-.8643.1297-1.1273.3892-.2621.2595-.3937.6343-.3937,1.1229v2.6474h-.8795v-4.8922Z"/><path class="cls-2" d="m130.4866,56.9476c-.3972-.2416-.6979-.5556-.9019-.9439-.2049-.3874-.3078-.7954-.3078-1.2231v-.1646c0-.4277.1056-.8357.3167-1.2231.2103-.3883.5145-.7023.9117-.9439.3964-.2416.8607-.3615,1.3922-.3615s.9958.1199,1.3931.3615c.3964.2416.7006.5556.9108.9439.2111.3874.3167.7954.3167,1.2231v.1646c0,.4277-.1029.8357-.3069,1.2231-.2049.3883-.5055.7023-.9028.9439-.3972.2407-.867.3615-1.4109.3615s-1.0137-.1208-1.4109-.3615Zm2.3405-.6648c.2657-.1584.4679-.3767.6048-.6549.1378-.2774.2067-.5878.2067-.9296,0-.348-.0725-.6612-.2156-.9394-.1432-.2774-.3462-.4948-.6093-.6504-.2621-.1557-.5681-.2335-.9162-.2335s-.6531.0778-.9162.2335c-.2621.1557-.4661.3731-.6093.6504-.1432.2783-.2147.5914-.2147.9394,0,.3418.068.6522.2058.9296.1378.2783.3391.4966.6048.6549.2657.1593.5753.2389.9296.2389s.6648-.0796.9296-.2389Z"/><path class="cls-2" d="m138.7411,56.723c-.3114-.3785-.467-.9251-.467-1.64v-2.8398h.8795v3.0142c0,.3847.1038.6853.3114.9019.2076.2174.4885.3257.8428.3257.3731,0,.6737-.119.9028-.3579.229-.238.3436-.5583.3436-.9618v-2.9221h.8795v4.9012h-.6961v-2.0981h.11c0,.7328-.1449,1.2902-.4357,1.6722-.2899.382-.722.5726-1.2964.5726h-.0367c-.5798,0-1.0253-.1897-1.3376-.5681Z"/><path class="cls-2" d="m144.4851,56.8832c-.3543-.272-.5377-.6487-.5493-1.1309h.824c.0125.2192.1163.4062.3123.5583.195.153.4948.229.8974.229.3785,0,.6746-.0743.8884-.2246.2138-.1494.3212-.3436.3212-.5816,0-.2013-.0769-.3588-.229-.4715-.153-.1136-.3999-.1879-.7426-.2246l-.5315-.0555c-.4885-.0546-.8732-.1977-1.1542-.4304-.2809-.2317-.4214-.5493-.4214-.9529,0-.3051.0796-.5708.238-.7972.1593-.2255.3794-.3981.6603-.5171s.6039-.1789.9708-.1789c.5619,0,1.011.1253,1.3465.3758.3364.2505.51.6111.5225,1.0808h-.8249c-.0116-.2076-.1065-.3767-.2836-.5082s-.4304-.1968-.7605-.1968-.586.068-.7694.2058-.2747.3158-.2747.5359c0,.1897.0635.3373.1924.4447.1279.1065.3328.1754.6138.2058l.5315.0555c.5431.0546.969.2031,1.2776.4438.3087.2416.4626.5699.4626.9851,0,.2997-.0868.5681-.2604.8061-.1745.238-.416.4232-.7238.5547-.3087.1306-.6585.1968-1.0495.1968-.6352,0-1.13-.136-1.4843-.408Z"/><path class="cls-2" d="m149.5563,56.8554c-.314-.2774-.4715-.6701-.4715-1.1765,0-.5136.1727-.9045.518-1.173.3445-.2684.8383-.4035,1.4789-.4035h1.3286v.6603h-1.3653c-.348,0-.6182.0841-.8106.2514-.1924.1682-.2881.3892-.2881.6648,0,.2747.0957.493.2881.6549s.4626.2425.8106.2425c.3489,0,.6433-.0975.8849-.2935.2407-.195.3704-.5127.3892-.9529l.238.3489c-.0492.5252-.2156.9215-.4992,1.1908-.2845.2684-.6827.4026-1.1953.4026-.5565,0-.9913-.1387-1.3063-.4169Zm2.9096-1.1765h-.1467v-1.6955c0-.3355-.0877-.5896-.2613-.7605-.1745-.1709-.4295-.2559-.765-.2559-.5556,0-1.1023.0179-1.64.0546v-.7694c.3972-.0367.8455-.0555,1.3465-.0555.7632,0,1.3152.1414,1.6543.4214.3382.2818.5082.7578.5082,1.4297v3.0966h-.6961v-1.4655Z"/><path class="cls-2" d="m154.6919,56.1638l2.6662-3.1968v.1458l-.1467-.2192.119.0546h-2.6752v-.6961h3.4813v.9806l-2.6662,3.1968v-.1279l.1655.229-.1288-.0823h2.7763v.6961h-3.5913v-.9806Z"/><path class="cls-2" d="m160.3679,56.9476c-.3695-.2416-.6415-.5547-.816-.9394-.1736-.3847-.2613-.7936-.2613-1.2275v-.1646c0-.4402.0886-.8527.2657-1.2374s.4465-.6961.807-.9341c.3597-.238.7999-.357,1.3188-.357.5073,0,.9359.1092,1.2875.3293.3507.2201.6138.5118.7873.875.1745.3632.2613.756.2613,1.1774v.3937h-4.342v-.6594h3.7014l-.2022.357c0-.348-.0546-.6504-.1646-.9063-.11-.2568-.2783-.4536-.5037-.5914-.2264-.1378-.501-.2058-.8249-.2058-.3418,0-.629.0778-.8607.2335-.2326.1557-.4053.3713-.518.646s-.1691.595-.1691.9618c0,.3606.0573.6782.1736.9529s.2935.4912.5315.6504.5377.238.8983.238c.3722,0,.6809-.0823.9251-.2469.2443-.1655.3937-.3668.4491-.6048h.824c-.1038.5073-.3507.9036-.7417,1.1908s-.8768.4304-1.4566.4304c-.544,0-1.0003-.1208-1.3698-.3615Z"/><path class="cls-2" d="m165.4936,52.2522h.6961v2.0981h-.11c0-.7328.1512-1.2902.4536-1.6722s.756-.5726,1.3608-.5726h.0367c.6048,0,1.0584.1906,1.3608.5726.3015.382.4527.9394.4527,1.6722v2.7942h-.8795v-2.9776c0-.3847-.1083-.6898-.3248-.9162-.2174-.2255-.5082-.3391-.875-.3391-.3847,0-.6961.1208-.935.3624-.238.2407-.357.5574-.357.9475v2.923h-.8795v-4.8922Z"/><path class="cls-2" d="m171.073,52.2522h1.6301v.6961h-1.6301v-.6961Zm1.2553-2.5284h.9251l-1.0173,1.8136h-.7149l.807-1.8136Zm-.5046,2.5284h.8795v4.8922h-.8795v-4.8922Z"/><path class="cls-2" d="m176.2399,52.2522h3.3721v.6594h-3.3721v-.6594Zm1.6588,4.7822c-.263-.11-.4644-.2917-.6048-.5449s-.2111-.5914-.2111-1.0128v-4.7088h.8437v4.8189c0,.263.0716.4661.2147.6093.1432.144.3471.2156.6093.2156h.8616v.7873h-.7515c-.3785,0-.6997-.0546-.9618-.1646Z"/><path class="cls-2" d="m181.7602,56.9476c-.3695-.2416-.6415-.5547-.816-.9394-.1736-.3847-.2613-.7936-.2613-1.2275v-.1646c0-.4402.0886-.8527.2657-1.2374s.4465-.6961.807-.9341c.3597-.238.7999-.357,1.3188-.357.5073,0,.9359.1092,1.2875.3293.3507.2201.6138.5118.7873.875.1745.3632.2613.756.2613,1.1774v.3937h-4.342v-.6594h3.7014l-.2022.357c0-.348-.0546-.6504-.1646-.9063-.11-.2568-.2783-.4536-.5037-.5914-.2264-.1378-.501-.2058-.8249-.2058-.3418,0-.629.0778-.8607.2335-.2326.1557-.4053.3713-.518.646s-.1691.595-.1691.9618c0,.3606.0573.6782.1736.9529s.2935.4912.5315.6504.5377.238.8983.238c.3722,0,.6809-.0823.9251-.2469.2443-.1655.3937-.3668.4491-.6048h.824c-.1038.5073-.3507.9036-.7417,1.1908s-.8768.4304-1.4566.4304c-.544,0-1.0003-.1208-1.3698-.3615Z"/><path class="cls-2" d="m188.032,54.5704l-.0277.1825-1.64-2.5007h.9708l1.1819,1.8413h.1288l1.1175-1.8413h.9072l-1.5487,2.4372.0277-.1655,1.8323,2.6206h-.9716l-1.3743-1.988h-.1279l-1.3197,1.988h-.9063l1.75-2.5741Z"/><path class="cls-2" d="m191.4757,52.2522h3.3721v.6594h-3.3721v-.6594Zm1.6588,4.7822c-.263-.11-.4644-.2917-.6048-.5449s-.2111-.5914-.2111-1.0128v-4.7088h.8437v4.8189c0,.263.0716.4661.2147.6093.1432.144.3471.2156.6093.2156h.8616v.7873h-.7515c-.3785,0-.6997-.0546-.9618-.1646Z"/><path class="cls-2" d="m196.6793,56.723c-.3114-.3785-.467-.9251-.467-1.64v-2.8398h.8795v3.0142c0,.3847.1038.6853.3114.9019.2076.2174.4885.3257.8428.3257.3731,0,.6737-.119.9028-.3579.229-.238.3436-.5583.3436-.9618v-2.9221h.8795v4.9012h-.6961v-2.0981h.11c0,.7328-.1449,1.2902-.4357,1.6722-.2899.382-.722.5726-1.2964.5726h-.0367c-.5798,0-1.0253-.1897-1.3376-.5681Zm.8705-5.3825c-.1888-.1924-.2836-.4384-.2836-.7372,0-.2997.0948-.5458.2836-.7381.1897-.1924.4366-.2881.7426-.2881.3051,0,.552.0957.7417.2881s.2845.4384.2845.7381c0,.2988-.0948.5449-.2845.7372s-.4366.289-.7417.289c-.306,0-.5529-.0966-.7426-.289Zm1.1273-.3436c.0975-.1038.1467-.2353.1467-.3937,0-.1593-.0492-.2908-.1467-.3946-.0984-.1038-.2264-.1557-.3847-.1557-.1593,0-.2872.0519-.3847.1557-.0984.1038-.1467.2353-.1467.3946,0,.1584.0483.2899.1467.3937.0975.1038.2255.1557.3847.1557.1584,0,.2863-.0519.3847-.1557Z"/><path class="cls-2" d="m204.6726,56.8554c-.314-.2774-.4715-.6701-.4715-1.1765,0-.5136.1727-.9045.518-1.173.3445-.2684.8383-.4035,1.4789-.4035h1.3286v.6603h-1.3653c-.348,0-.6182.0841-.8106.2514-.1924.1682-.2881.3892-.2881.6648,0,.2747.0957.493.2881.6549s.4626.2425.8106.2425c.3489,0,.6433-.0975.8849-.2935.2407-.195.3704-.5127.3892-.9529l.238.3489c-.0492.5252-.2156.9215-.4992,1.1908-.2845.2684-.6827.4026-1.1953.4026-.5565,0-.9913-.1387-1.3063-.4169Zm2.9096-1.1765h-.1467v-1.6955c0-.3355-.0877-.5896-.2613-.7605-.1745-.1709-.4295-.2559-.765-.2559-.5556,0-1.1023.0179-1.64.0546v-.7694c.3972-.0367.8455-.0555,1.3465-.0555.7632,0,1.3152.1414,1.6543.4214.3382.2818.5082.7578.5082,1.4297v3.0966h-.6961v-1.4655Z"/><path class="cls-2" d="m213.2805,56.9476c-.3972-.2416-.6979-.5556-.9019-.9439-.2049-.3874-.3078-.7954-.3078-1.2231v-.1646c0-.4277.1056-.8357.3167-1.2231.2103-.3883.5145-.7023.9117-.9439.3964-.2416.8607-.3615,1.3922-.3615s.9958.1199,1.3931.3615c.3964.2416.7006.5556.9108.9439.2111.3874.3167.7954.3167,1.2231v.1646c0,.4277-.1029.8357-.3069,1.2231-.2049.3883-.5055.7023-.9028.9439-.3972.2407-.867.3615-1.4109.3615s-1.0137-.1208-1.4109-.3615Zm2.3405-.6648c.2657-.1584.4679-.3767.6048-.6549.1378-.2774.2067-.5878.2067-.9296,0-.348-.0725-.6612-.2156-.9394-.1432-.2774-.3462-.4948-.6093-.6504-.2621-.1557-.5681-.2335-.9162-.2335s-.6531.0778-.9162.2335c-.2621.1557-.4661.3731-.6093.6504-.1432.2783-.2147.5914-.2147.9394,0,.3418.068.6522.2058.9296.1378.2783.3391.4966.6048.6549.2657.1593.5753.2389.9296.2389s.6648-.0796.9296-.2389Z"/><path class="cls-2" d="m220.3621,57.0433c-.3114-.1772-.5583-.4366-.7417-.7784s-.2836-.748-.3024-1.2186h.238v2.0981h-.6961v-6.6879h.8795v3.2522l-.3114.6692c.0179-.5136.1217-.9412.3114-1.283s.4366-.5959.7426-.7605c.3051-.1646.6504-.2469,1.0352-.2469.4581,0,.8643.1109,1.2186.3337.3534.2237.629.527.824.9117.1959.3847.2935.8061.2935,1.2642v.1655c0,.4635-.1011.8902-.3024,1.2776-.2013.3883-.4858.6961-.8518.9251-.3668.229-.7855.3436-1.2553.3436-.4098,0-.7694-.0886-1.0817-.2657Zm1.8377-.7372c.2469-.1557.4375-.374.5726-.6549.1342-.2809.2013-.6048.2013-.9716,0-.3597-.0689-.6791-.2067-.9573-.1369-.2774-.3284-.4912-.5726-.6406-.2443-.1503-.5279-.2246-.8518-.2246-.2988,0-.5744.0671-.824.2013-.2505.1342-.4491.3266-.5959.5771s-.2201.544-.2201.8795v.4214c0,.3239.0752.6084.2246.8518.1494.2451.3498.4312.6003.5592s.5216.1924.8151.1924c.3239,0,.6093-.0778.8571-.2335Z"/><path class="cls-2" d="m225.4019,52.2522h.6961v2.0158h-.0367c0-.7086.1557-1.2311.4679-1.5666.3114-.3364.7847-.5046,1.4199-.5046h.1646v.7882h-.3114c-.4885,0-.8643.1297-1.1273.3892-.2621.2595-.3937.6343-.3937,1.1229v2.6474h-.8795v-4.8922Z"/><path class="cls-2" d="m229.4182,56.8554c-.314-.2774-.4715-.6701-.4715-1.1765,0-.5136.1727-.9045.518-1.173.3445-.2684.8383-.4035,1.4789-.4035h1.3286v.6603h-1.3653c-.348,0-.6182.0841-.8106.2514-.1924.1682-.2881.3892-.2881.6648,0,.2747.0957.493.2881.6549s.4626.2425.8106.2425c.3489,0,.6433-.0975.8849-.2935.2407-.195.3704-.5127.3892-.9529l.238.3489c-.0492.5252-.2156.9215-.4992,1.1908-.2845.2684-.6827.4026-1.1953.4026-.5565,0-.9913-.1387-1.3063-.4169Zm2.9096-1.1765h-.1467v-1.6955c0-.3355-.0877-.5896-.2613-.7605-.1745-.1709-.4295-.2559-.765-.2559-.5556,0-1.1023.0179-1.64.0546v-.7694c.3972-.0367.8455-.0555,1.3465-.0555.7632,0,1.3152.1414,1.6543.4214.3382.2818.5082.7578.5082,1.4297v3.0966h-.6961v-1.4655Zm-.8893-5.9551h.926l-1.0173,1.8136h-.7149l.8061-1.8136Z"/><path class="cls-2" d="m234.5538,56.1638l2.6662-3.1968v.1458l-.1467-.2192.119.0546h-2.6752v-.6961h3.4813v.9806l-2.6662,3.1968v-.1279l.1655.229-.1288-.0823h2.7763v.6961h-3.5913v-.9806Z"/><path class="cls-2" d="m239.565,50.4565h.8795v6.6879h-.8795v-6.6879Zm1.5299,4.4064h-.8061l2.2448-2.6107h.9251l-2.0337,2.3549.0635-.4679,2.4649,3.0053h-1.0173l-1.8413-2.2815Z"/><path class="cls-2" d="m245.3466,56.723c-.3114-.3785-.467-.9251-.467-1.64v-2.8398h.8795v3.0142c0,.3847.1038.6853.3114.9019.2076.2174.4885.3257.8428.3257.3731,0,.6737-.119.9028-.3579.229-.238.3436-.5583.3436-.9618v-2.9221h.8795v4.9012h-.6961v-2.0981h.11c0,.7328-.1449,1.2902-.4357,1.6722-.2899.382-.722.5726-1.2964.5726h-.0367c-.5798,0-1.0253-.1897-1.3376-.5681Zm.8705-5.3825c-.1888-.1924-.2836-.4384-.2836-.7372,0-.2997.0948-.5458.2836-.7381.1897-.1924.4366-.2881.7426-.2881.3051,0,.552.0957.7417.2881s.2845.4384.2845.7381c0,.2988-.0948.5449-.2845.7372s-.4366.289-.7417.289c-.306,0-.5529-.0966-.7426-.289Zm1.1273-.3436c.0975-.1038.1467-.2353.1467-.3937,0-.1593-.0492-.2908-.1467-.3946-.0984-.1038-.2264-.1557-.3847-.1557-.1593,0-.2872.0519-.3847.1557-.0984.1038-.1467.2353-.1467.3946,0,.1584.0483.2899.1467.3937.0975.1038.2255.1557.3847.1557.1584,0,.2863-.0519.3847-.1557Z"/></g></svg>