<svg xmlns="http://www.w3.org/2000/svg"><defs>
<symbol id="menu" viewBox="0 0 24 24">
<line  x1="11.6" y1="12" x2="21" y2="12"/><polyline points="3,16.5 7.5,12 3,7.5"/><line x1="8.2" y1="6" x2="21" y2="6"/><line x1="8.2" y1="18" x2="21" y2="18"/>
</symbol>
<symbol id="language" viewBox="0 0 24 24">
<circle cx="12" cy="12" r="10"></circle><line x1="2" y1="12" x2="22" y2="12"></line><path d="M12 2a15.3 15.3 0 0 1 4 10 15.3 15.3 0 0 1-4 10 15.3 15.3 0 0 1-4-10 15.3 15.3 0 0 1 4-10z"></path>
</symbol>
<symbol id="login" viewBox="0 0 24 24">
<path d="M20 21v-2a4 4 0 0 0-4-4H8a4 4 0 0 0-4 4v2"></path><circle cx="12" cy="7" r="4"></circle>
</symbol>
<symbol id="contact" viewBox="0 0 24 24">
<path d="M21 11.5a8.38 8.38 0 0 1-.9 3.8 8.5 8.5 0 0 1-7.6 4.7 8.38 8.38 0 0 1-3.8-.9L3 21l1.9-5.7a8.38 8.38 0 0 1-.9-3.8 8.5 8.5 0 0 1 4.7-7.6 8.38 8.38 0 0 1 3.8-.9h.5a8.48 8.48 0 0 1 8 8v.5z"></path>
</symbol>
<symbol id="mobile" viewBox="0 0 24 24">
<circle cx="12" cy="18" r="0.2"/><rect x="5" y="2" width="14" height="20" rx="2" ry="2"></rect><line x1="12" y1="18" x2="12.01" y2="18"></line>
</symbol>
<symbol id="mail" viewBox="0 0 24 24">
<circle cx="12" cy="12" r="4"></circle><path d="M16 8v5a3 3 0 0 0 6 0v-1a10 10 0 1 0-3.92 7.94"></path>
</symbol>
<symbol id="send" viewBox="0 0 24 24">
<line x1="21.4" y1="2.6" x2="10.4" y2="13.6"/><polygon points="21.4,2.6 14.4,22.6 10.4,13.6 1.4,9.6 "/>
</symbol>
<symbol id="link" viewBox="0 0 24 24">
<path d="M10 13a5 5 0 0 0 7.54.54l3-3a5 5 0 0 0-7.07-7.07l-1.72 1.71"></path><path d="M14 11a5 5 0 0 0-7.54-.54l-3 3a5 5 0 0 0 7.07 7.07l1.71-1.71"></path>
</symbol>
<symbol id="copy" viewBox="0 0 24 24">
<rect x="9" y="9" width="13" height="13" rx="2" ry="2"></rect><path d="M5 15H4a2 2 0 0 1-2-2V4a2 2 0 0 1 2-2h9a2 2 0 0 1 2 2v1"></path>
</symbol>
<symbol id="check" viewBox="0 0 24 24">
<polyline points="20 6 9 17 4 12"></polyline>
</symbol>
<symbol id="cross" viewBox="0 0 24 24">
<line x1="18" y1="6" x2="6" y2="18"></line><line x1="6" y1="6" x2="18" y2="18"></line>
</symbol>
<symbol id="change" viewBox="0 0 24 24">
<polyline points="23 4 23 10 17 10"></polyline><polyline points="1 20 1 14 7 14"></polyline><path d="M3.51 9a9 9 0 0 1 14.85-3.36L23 10M1 14l4.64 4.36A9 9 0 0 0 20.49 15"></path>
</symbol>
<symbol id="share" viewBox="0 0 24 24">
<circle cx="17" cy="5" r="3"/><circle cx="5" cy="12" r="3"/><circle cx="17" cy="19" r="3"/><line x1="7.6" y1="13.5" x2="14.4" y2="17.5"/><line x1="14.4" y1="6.5" x2="7.6" y2="10.5"/>
</symbol>
<symbol id="circle" viewBox="0 0 24 24">
<circle cx="50%" cy="50%" r="6"/>
</symbol>
<symbol id="arrow-right" viewBox="0 0 24 24">
<line x1="5" y1="12" x2="19" y2="12"></line><polyline points="12 5 19 12 12 19"></polyline>
</symbol>
<symbol id="download" viewBox="0 0 24 24">
<path d="M21 15v4a2 2 0 0 1-2 2H5a2 2 0 0 1-2-2v-4"></path><polyline points="7 10 12 15 17 10"></polyline><line x1="12" y1="15" x2="12" y2="3"></line>
</symbol>
<symbol id="edit" viewBox="0 0 24 24">
<path d="M11 4H4a2 2 0 0 0-2 2v14a2 2 0 0 0 2 2h14a2 2 0 0 0 2-2v-7"></path><path d="M18.5 2.5a2.121 2.121 0 0 1 3 3L12 15l-4 1 1-4 9.5-9.5z"></path>
</symbol>
<symbol id="save" viewBox="0 0 24 24">
<path d="M19 21H5a2 2 0 0 1-2-2V5a2 2 0 0 1 2-2h11l5 5v11a2 2 0 0 1-2 2z"></path><polyline points="17 21 17 13 7 13 7 21"></polyline><polyline points="7 3 7 8 15 8"></polyline>
</symbol>
<symbol id="editing" viewBox="0 0 24 24">
<path d="M12 20h9"></path><path d="M16.5 3.5a2.121 2.121 0 0 1 3 3L7 19l-4 1 1-4L16.5 3.5z"></path>
</symbol>
</defs></svg>
