<?xml version="1.0" encoding="UTF-8"?><svg id="Vrstva_1" xmlns="http://www.w3.org/2000/svg" viewBox="0 0 433.3471 200"><path d="m53.5894,67.8596c-.8545-.5576-1.4824-1.2812-1.8848-2.1704s-.6035-1.835-.6035-2.8374v-.3809c0-1.0161.2046-1.9692.6138-2.8584s1.0303-1.6094,1.8628-2.1597c.834-.5503,1.8496-.8257,3.0488-.8257,1.1719,0,2.1641.2539,2.9746.7622.8125.5083,1.4199,1.1821,1.8223,2.022s.6035,1.7466.6035,2.7207v.9106h-10.0366v-1.5244h8.5542l-.4668.8257c0-.8047-.127-1.5034-.3809-2.0962s-.6426-1.0483-1.1641-1.3657-1.1582-.4766-1.9062-.4766c-.7891,0-1.4531.1802-1.9902.54-.5352.3599-.9346.8574-1.1953,1.4927-.2617.6353-.3921,1.3765-.3921,2.2231,0,.833.1343,1.5669.4019,2.2021.2686.6353.6777,1.1362,1.2285,1.5034s1.2422.5503,2.0742.5503c.8613,0,1.5742-.1904,2.1387-.5718.5645-.3809.9102-.8467,1.0391-1.3975h1.9043c-.2402,1.1719-.8125,2.0894-1.7148,2.7524-.9043.6636-2.0254.9956-3.3672.9956-1.2559,0-2.3105-.2793-3.1641-.8364Z"/><path d="m68.0816,62.3649l-.0635.4233-3.79-5.7803h2.2441l2.7314,4.2559h.2969l2.583-4.2559h2.0957l-3.5781,5.6323.0635-.3813,4.2354,6.0557h-2.2451l-3.1758-4.5947h-.2959l-3.0488,4.5947h-2.0967l4.0439-5.9497Z"/><path d="m76.5943,57.008h3.7686v1.6094h-3.7686v-1.6094Zm1.3125-2.1699c-.2266-.2329-.3389-.54-.3389-.9214,0-.3809.1123-.688.3389-.9209.2256-.2329.5576-.3491.9951-.3491s.7686.1162.9951.3491c.2256.2329.3389.54.3389.9209,0,.3813-.1133.6885-.3389.9214-.2266.2329-.5576.3491-.9951.3491s-.7695-.1162-.9951-.3491Zm.4229,2.1699h2.0332v11.3066h-2.0332v-11.3066Z"/><path d="m85.105,67.7111c-.8193-.6279-1.2432-1.4995-1.2705-2.6147h1.9053c.0283.5083.2676.939.7197,1.2915.4521.353,1.1436.5293,2.0752.5293.875,0,1.5596-.1729,2.0537-.5186s.7412-.7939.7412-1.3447c0-.4658-.1768-.8291-.5293-1.0903-.3535-.2612-.9248-.4341-1.7148-.5186l-1.2285-.1274c-1.1289-.127-2.0186-.4585-2.668-.9951-.6494-.5361-.9736-1.27-.9736-2.2017,0-.7061.1836-1.3198.5508-1.8423.3662-.522.875-.9209,1.5244-1.1963.6484-.2754,1.3975-.4126,2.2441-.4126,1.2988,0,2.3359.2891,3.1123.8677.7764.5791,1.1787,1.4121,1.207,2.4985h-1.9053c-.0293-.4795-.2471-.8711-.6572-1.1748-.4092-.3037-.9951-.4556-1.7568-.4556-.7627,0-1.3555.1592-1.7783.4766-.4238.3174-.6357.7305-.6357,1.2388,0,.4375.1484.7798.4453,1.0269.2959.2471.7686.4058,1.418.4761l1.2285.1274c1.2559.127,2.2402.4692,2.9531,1.0269s1.0693,1.3164,1.0693,2.2759c0,.6919-.2012,1.313-.6035,1.8633s-.96.9775-1.6729,1.2812c-.7129.3032-1.5205.4551-2.4238.4551-1.4688,0-2.6113-.3145-3.4297-.9424Z"/><path d="m95.0571,57.008h7.791v1.5244h-7.791v-1.5244Zm3.832,11.0527c-.6074-.2544-1.0732-.6738-1.3975-1.2598-.3252-.5859-.4873-1.3657-.4873-2.3398v-10.8828h1.9482v11.1367c0,.6074.166,1.0767.4971,1.4082.332.332.8018.4976,1.4082.4976h1.9902v1.8208h-1.7363c-.875,0-1.6162-.127-2.2227-.3809Z"/><path d="m107.0825,67.3405c-.7197-.875-1.0791-2.1382-1.0791-3.79v-6.5635h2.0322v6.9658c0,.8896.2402,1.585.7197,2.0859s1.1289.7515,1.9482.7515c.8604,0,1.5557-.2754,2.085-.8257.5293-.5508.7939-1.2915.7939-2.2231v-6.7544h2.0332v11.3276h-1.6094v-4.8486h.2539c0,1.6938-.335,2.9819-1.0059,3.8643-.6699.8823-1.6689,1.3232-2.9961,1.3232h-.084c-1.3418,0-2.3721-.4375-3.0918-1.313Z"/><path d="m118.0923,70.8132h1.1855c.5361,0,.9492-.145,1.2383-.4341.2891-.2896.4346-.7026.4346-1.2388v-12.1323h1.9473v11.8359c0,.9453-.1309,1.6938-.3916,2.2441-.2607.5508-.6738.9458-1.2383,1.186-.5645.2397-1.3271.3599-2.2871.3599h-.8887v-1.8208Zm1.0791-13.8052h3.7266v1.6094h-3.7266v-1.6094Zm1.2705-2.3394c-.2256-.2329-.3389-.54-.3389-.9209,0-.3813.1133-.6885.3389-.9214s.5576-.3491.9951-.3491.7695.1162.9951.3491.3389.54.3389.9214c0,.3809-.1133.688-.3389.9209s-.5576.3491-.9951.3491-.7695-.1162-.9951-.3491Z"/><path d="m128.9644,67.8596c-.8545-.5576-1.4824-1.2812-1.8848-2.1704s-.6035-1.835-.6035-2.8374v-.3809c0-1.0161.2051-1.9692.6143-2.8584s1.0303-1.6094,1.8633-2.1597,1.8496-.8257,3.0488-.8257c1.1719,0,2.1631.2539,2.9746.7622s1.4189,1.1821,1.8213,2.022.6035,1.7466.6035,2.7207v.9106h-10.0361v-1.5244h8.5537l-.4658.8257c0-.8047-.127-1.5034-.3809-2.0962s-.6426-1.0483-1.1641-1.3657c-.5225-.3174-1.1582-.4766-1.9062-.4766-.79,0-1.4541.1802-1.9902.54s-.9355.8574-1.1963,1.4927-.3916,1.3765-.3916,2.2231c0,.833.1338,1.5669.4023,2.2021.2676.6353.6777,1.1362,1.2285,1.5034.5498.3672,1.2412.5503,2.0742.5503.8613,0,1.5742-.1904,2.1387-.5718.5645-.3809.9102-.8467,1.0381-1.3975h1.9053c-.2402,1.1719-.8125,2.0894-1.7148,2.7524-.9043.6636-2.0264.9956-3.3672.9956-1.2559,0-2.3115-.2793-3.165-.8364Z"/><path d="m140.5884,67.944c-.2324-.2466-.3486-.5537-.3486-.9209s.1162-.6738.3486-.9209c.2334-.2471.5264-.3706.8789-.3706s.6465.1235.8789.3706c.2334.2471.3496.5537.3496.9209s-.1162.6743-.3496.9209c-.2324.2471-.5264.3706-.8789.3706s-.6455-.1235-.8789-.3706Z"/><path d="m148.3696,67.8596c-.917-.5576-1.6123-1.2847-2.085-2.1812-.4736-.896-.71-1.8384-.71-2.8267v-.3809c0-.9878.2441-1.9302.7305-2.8267.4873-.896,1.1895-1.623,2.1074-2.1807.917-.5576,1.9902-.8364,3.2178-.8364,1.2285,0,2.3008.2788,3.2188.8364.917.5576,1.6191,1.2847,2.1064,2.1807.4873.8965.7305,1.8389.7305,2.8267v.3809c0,.9883-.2363,1.9307-.709,2.8267-.4736.8965-1.168,1.6235-2.0859,2.1812-.918.5571-2.0039.8364-3.2607.8364-1.2559,0-2.3428-.2793-3.2607-.8364Zm5.4102-1.5352c.6143-.3667,1.0801-.8716,1.3975-1.5142.3174-.6421.4766-1.3579.4766-2.1489,0-.8047-.166-1.5278-.498-2.1699-.332-.6426-.8008-1.1436-1.4082-1.5034-.6064-.3599-1.3125-.54-2.1172-.54s-1.5107.1802-2.1172.54-1.0762.8608-1.4082,1.5034c-.3311.6421-.4971,1.3652-.4971,2.1699,0,.791.1582,1.5068.4766,2.1489.3174.6426.7832,1.1475,1.3975,1.5142.6133.3672,1.3301.5503,2.1484.5503s1.5352-.1831,2.1494-.5503Z"/><path d="m161.2642,57.008h1.6084v4.8486h-.2539c0-1.6938.3496-2.9814,1.0488-3.8638.6982-.8823,1.7461-1.3232,3.1436-1.3232h.085c1.3975,0,2.4453.4409,3.1445,1.3232.6982.8823,1.0479,2.1699,1.0479,3.8638v6.458h-2.0332v-6.8813c0-.8892-.25-1.5947-.751-2.1172-.502-.522-1.1758-.7837-2.0225-.7837-.8887,0-1.6094.2793-2.1592.8364-.5508.5581-.8262,1.2886-.8262,2.1914v6.7544h-2.0322v-11.3066Z"/><path d="m173.9038,52.8581h3.5996v1.6094h-3.5996v-1.6094Zm1.5674,0h2.0322v15.4565h-2.0322v-15.4565Z"/><path d="m180.7437,57.008h3.7686v1.6094h-3.7686v-1.6094Zm1.3125-2.1699c-.2266-.2329-.3389-.54-.3389-.9214,0-.3809.1123-.688.3389-.9209.2256-.2329.5576-.3491.9951-.3491s.7686.1162.9951.3491c.2256.2329.3389.54.3389.9209,0,.3813-.1133.6885-.3389.9214-.2266.2329-.5576.3491-.9951.3491s-.7695-.1162-.9951-.3491Zm.4229,2.1699h2.0332v11.3066h-2.0332v-11.3066Z"/><path d="m188.98,57.008h1.6084v4.8486h-.2539c0-1.6938.3496-2.9814,1.0488-3.8638.6982-.8823,1.7461-1.3232,3.1436-1.3232h.085c1.3975,0,2.4453.4409,3.1445,1.3232.6982.8823,1.0479,2.1699,1.0479,3.8638v6.458h-2.0332v-6.8813c0-.8892-.25-1.5947-.751-2.1172-.502-.522-1.1758-.7837-2.0225-.7837-.8887,0-1.6094.2793-2.1592.8364-.5508.5581-.8262,1.2886-.8262,2.1914v6.7544h-2.0322v-11.3066Z"/><path d="m204.7007,67.8596c-.8545-.5576-1.4824-1.2812-1.8848-2.1704s-.6035-1.835-.6035-2.8374v-.3809c0-1.0161.2051-1.9692.6143-2.8584s1.0303-1.6094,1.8633-2.1597,1.8496-.8257,3.0488-.8257c1.1719,0,2.1631.2539,2.9746.7622s1.4189,1.1821,1.8213,2.022.6035,1.7466.6035,2.7207v.9106h-10.0361v-1.5244h8.5537l-.4658.8257c0-.8047-.127-1.5034-.3809-2.0962s-.6426-1.0483-1.1641-1.3657c-.5225-.3174-1.1582-.4766-1.9062-.4766-.79,0-1.4541.1802-1.9902.54s-.9355.8574-1.1963,1.4927-.3916,1.3765-.3916,2.2231c0,.833.1338,1.5669.4023,2.2021.2676.6353.6777,1.1362,1.2285,1.5034.5498.3672,1.2412.5503,2.0742.5503.8613,0,1.5742-.1904,2.1387-.5718.5645-.3809.9102-.8467,1.0381-1.3975h1.9053c-.2402,1.1719-.8125,2.0894-1.7148,2.7524-.9043.6636-2.0264.9956-3.3672.9956-1.2559,0-2.3115-.2793-3.165-.8364Z"/><path d="m53.5894,93.2673c-.8545-.5576-1.4824-1.2812-1.8848-2.1704s-.6035-1.835-.6035-2.8374v-.3809c0-1.0161.2046-1.9692.6138-2.8584s1.0303-1.6094,1.8628-2.1597c.834-.5503,1.8496-.8257,3.0488-.8257,1.1719,0,2.1641.2539,2.9746.7622.8125.5083,1.4199,1.1821,1.8223,2.022s.6035,1.7466.6035,2.7207v.9106h-10.0366v-1.5244h8.5542l-.4668.8257c0-.8047-.127-1.5034-.3809-2.0962s-.6426-1.0483-1.1641-1.3657-1.1582-.4766-1.9062-.4766c-.7891,0-1.4531.1802-1.9902.54-.5352.3599-.9346.8574-1.1953,1.4927-.2617.6353-.3921,1.3765-.3921,2.2231,0,.833.1343,1.5669.4019,2.2021.2686.6353.6777,1.1362,1.2285,1.5034s1.2422.5503,2.0742.5503c.8613,0,1.5742-.1904,2.1387-.5718.5645-.3809.9102-.8467,1.0391-1.3975h1.9043c-.2402,1.1719-.8125,2.0894-1.7148,2.7524-.9043.6636-2.0254.9956-3.3672.9956-1.2559,0-2.3105-.2793-3.1641-.8364Z"/><path d="m68.0816,87.7727l-.0635.4233-3.79-5.7803h2.2441l2.7314,4.2559h.2969l2.583-4.2559h2.0957l-3.5781,5.6323.0635-.3813,4.2354,6.0557h-2.2451l-3.1758-4.5947h-.2959l-3.0488,4.5947h-2.0967l4.0439-5.9497Z"/><path d="m76.5943,82.4157h3.7686v1.6094h-3.7686v-1.6094Zm1.3125-2.1699c-.2266-.2329-.3389-.54-.3389-.9214,0-.3809.1123-.688.3389-.9209.2256-.2329.5576-.3491.9951-.3491s.7686.1162.9951.3491c.2256.2329.3389.54.3389.9209,0,.3813-.1133.6885-.3389.9214-.2266.2329-.5576.3491-.9951.3491s-.7695-.1162-.9951-.3491Zm.4229,2.1699h2.0332v11.3066h-2.0332v-11.3066Z"/><path d="m85.105,93.1188c-.8193-.6279-1.2432-1.4995-1.2705-2.6147h1.9053c.0283.5083.2676.939.7197,1.2915.4521.353,1.1436.5293,2.0752.5293.875,0,1.5596-.1729,2.0537-.5186s.7412-.7939.7412-1.3447c0-.4658-.1768-.8291-.5293-1.0903-.3535-.2612-.9248-.4341-1.7148-.5186l-1.2285-.1274c-1.1289-.127-2.0186-.4585-2.668-.9951-.6494-.5361-.9736-1.27-.9736-2.2017,0-.7061.1836-1.3198.5508-1.8423.3662-.522.875-.9209,1.5244-1.1963.6484-.2754,1.3975-.4126,2.2441-.4126,1.2988,0,2.3359.2891,3.1123.8677.7764.5791,1.1787,1.4121,1.207,2.4985h-1.9053c-.0293-.4795-.2471-.8711-.6572-1.1748-.4092-.3037-.9951-.4556-1.7568-.4556-.7627,0-1.3555.1592-1.7783.4766-.4238.3174-.6357.7305-.6357,1.2388,0,.4375.1484.7798.4453,1.0269.2959.2471.7686.4058,1.418.4761l1.2285.1274c1.2559.127,2.2402.4692,2.9531,1.0269s1.0693,1.3164,1.0693,2.2759c0,.6919-.2012,1.313-.6035,1.8633s-.96.9775-1.6729,1.2812c-.7129.3032-1.5205.4551-2.4238.4551-1.4688,0-2.6113-.3145-3.4297-.9424Z"/><path d="m95.0571,82.4157h7.791v1.5244h-7.791v-1.5244Zm3.832,11.0527c-.6074-.2544-1.0732-.6738-1.3975-1.2598-.3252-.5859-.4873-1.3657-.4873-2.3398v-10.8828h1.9482v11.1367c0,.6074.166,1.0767.4971,1.4082.332.332.8018.4976,1.4082.4976h1.9902v1.8208h-1.7363c-.875,0-1.6162-.127-2.2227-.3809Z"/><path d="m107.0825,92.7482c-.7197-.875-1.0791-2.1382-1.0791-3.79v-6.5635h2.0322v6.9658c0,.8896.2402,1.585.7197,2.0859s1.1289.7515,1.9482.7515c.8604,0,1.5557-.2754,2.085-.8257.5293-.5508.7939-1.2915.7939-2.2231v-6.7544h2.0332v11.3276h-1.6094v-4.8486h.2539c0,1.6938-.335,2.9819-1.0059,3.8643-.6699.8823-1.6689,1.3232-2.9961,1.3232h-.084c-1.3418,0-2.3721-.4375-3.0918-1.313Z"/><path d="m118.0923,96.2209h1.1855c.5361,0,.9492-.145,1.2383-.4341.2891-.2896.4346-.7026.4346-1.2388v-12.1323h1.9473v11.8359c0,.9453-.1309,1.6938-.3916,2.2441-.2607.5508-.6738.9458-1.2383,1.186-.5645.2397-1.3271.3599-2.2871.3599h-.8887v-1.8208Zm1.0791-13.8052h3.7266v1.6094h-3.7266v-1.6094Zm1.2705-2.3394c-.2256-.2329-.3389-.54-.3389-.9209,0-.3813.1133-.6885.3389-.9214s.5576-.3491.9951-.3491.7695.1162.9951.3491.3389.54.3389.9214c0,.3809-.1133.688-.3389.9209s-.5576.3491-.9951.3491-.7695-.1162-.9951-.3491Z"/><path d="m128.9644,93.2673c-.8545-.5576-1.4824-1.2812-1.8848-2.1704s-.6035-1.835-.6035-2.8374v-.3809c0-1.0161.2051-1.9692.6143-2.8584s1.0303-1.6094,1.8633-2.1597,1.8496-.8257,3.0488-.8257c1.1719,0,2.1631.2539,2.9746.7622s1.4189,1.1821,1.8213,2.022.6035,1.7466.6035,2.7207v.9106h-10.0361v-1.5244h8.5537l-.4658.8257c0-.8047-.127-1.5034-.3809-2.0962s-.6426-1.0483-1.1641-1.3657c-.5225-.3174-1.1582-.4766-1.9062-.4766-.79,0-1.4541.1802-1.9902.54s-.9355.8574-1.1963,1.4927-.3916,1.3765-.3916,2.2231c0,.833.1338,1.5669.4023,2.2021.2676.6353.6777,1.1362,1.2285,1.5034.5498.3672,1.2412.5503,2.0742.5503.8613,0,1.5742-.1904,2.1387-.5718.5645-.3809.9102-.8467,1.0381-1.3975h1.9053c-.2402,1.1719-.8125,2.0894-1.7148,2.7524-.9043.6636-2.0264.9956-3.3672.9956-1.2559,0-2.3115-.2793-3.165-.8364Z"/><path d="m140.5884,93.3518c-.2324-.2466-.3486-.5537-.3486-.9209s.1162-.6738.3486-.9209c.2334-.2471.5264-.3706.8789-.3706s.6465.1235.8789.3706c.2334.2471.3496.5537.3496.9209s-.1162.6743-.3496.9209c-.2324.2471-.5264.3706-.8789.3706s-.6455-.1235-.8789-.3706Z"/><path d="m146.9937,93.1188c-.8193-.6279-1.2432-1.4995-1.2705-2.6147h1.9053c.0283.5083.2676.939.7197,1.2915.4521.353,1.1436.5293,2.0752.5293.875,0,1.5596-.1729,2.0537-.5186s.7412-.7939.7412-1.3447c0-.4658-.1768-.8291-.5293-1.0903-.3535-.2612-.9248-.4341-1.7148-.5186l-1.2285-.1274c-1.1289-.127-2.0186-.4585-2.668-.9951-.6494-.5361-.9736-1.27-.9736-2.2017,0-.7061.1836-1.3198.5508-1.8423.3662-.522.875-.9209,1.5244-1.1963.6484-.2754,1.3975-.4126,2.2441-.4126,1.2988,0,2.3359.2891,3.1123.8677.7764.5791,1.1787,1.4121,1.207,2.4985h-1.9053c-.0293-.4795-.2471-.8711-.6572-1.1748-.4092-.3037-.9951-.4556-1.7568-.4556-.7627,0-1.3555.1592-1.7783.4766-.4238.3174-.6357.7305-.6357,1.2388,0,.4375.1484.7798.4453,1.0269.2959.2471.7686.4058,1.418.4761l1.2285.1274c1.2559.127,2.2402.4692,2.9531,1.0269s1.0693,1.3164,1.0693,2.2759c0,.6919-.2012,1.313-.6035,1.8633s-.96.9775-1.6729,1.2812c-.7129.3032-1.5205.4551-2.4238.4551-1.4688,0-2.6113-.3145-3.4297-.9424Z"/><path d="m160.5435,93.2673c-.917-.5576-1.6123-1.2847-2.085-2.1812-.4736-.896-.71-1.8384-.71-2.8267v-.3809c0-.9878.2441-1.9302.7305-2.8267.4873-.896,1.1895-1.623,2.1074-2.1807.917-.5576,1.9902-.8364,3.2178-.8364,1.2285,0,2.3008.2788,3.2188.8364.917.5576,1.6191,1.2847,2.1064,2.1807.4873.8965.7305,1.8389.7305,2.8267v.3809c0,.9883-.2363,1.9307-.709,2.8267-.4736.8965-1.168,1.6235-2.0859,2.1812-.918.5571-2.0039.8364-3.2607.8364-1.2559,0-2.3428-.2793-3.2607-.8364Zm5.4102-1.5352c.6143-.3667,1.0801-.8716,1.3975-1.5142.3174-.6421.4766-1.3579.4766-2.1489,0-.8047-.166-1.5278-.498-2.1699-.332-.6426-.8008-1.1436-1.4082-1.5034-.6064-.3599-1.3125-.54-2.1172-.54s-1.5107.1802-2.1172.54-1.0762.8608-1.4082,1.5034c-.3311.6421-.4971,1.3652-.4971,2.1699,0,.791.1582,1.5068.4766,2.1489.3174.6426.7832,1.1475,1.3975,1.5142.6133.3672,1.3301.5503,2.1484.5503s1.5352-.1831,2.1494-.5503Z"/><path d="m173.439,82.4157h1.6084v4.6582h-.084c0-1.6372.3594-2.8442,1.0791-3.6206.7207-.7759,1.8145-1.1646,3.2822-1.1646h.3809v1.8208h-.7197c-1.1289,0-1.9971.3003-2.6045.8999-.6064.6001-.9102,1.4648-.9102,2.5938v6.1191h-2.0322v-11.3066Z"/><path d="m182.7222,93.0554c-.7275-.6421-1.0908-1.5488-1.0908-2.7207,0-1.1855.3994-2.0889,1.1963-2.71.7979-.6211,1.9375-.9316,3.4199-.9316h3.0703v1.5244h-3.1553c-.8047,0-1.4287.1938-1.874.582-.4443.3887-.667.8999-.667,1.5352s.2227,1.1401.667,1.5137c.4453.3745,1.0693.5615,1.874.5615s1.4854-.2261,2.043-.6777.8574-1.1855.9004-2.2021l.5508.8047c-.1133,1.2144-.498,2.1313-1.1543,2.7524-.6562.6216-1.5771.9316-2.7627.9316-1.2852,0-2.291-.3208-3.0176-.9634Zm6.7227-2.7207h-.3389v-3.917c0-.7764-.2012-1.3623-.6035-1.7573s-.9922-.5928-1.7676-.5928c-1.2852,0-2.5488.042-3.79.127v-1.7788c.917-.0845,1.9541-.127,3.1123-.127,1.7637,0,3.0381.3252,3.8213.9741.7832.6494,1.1758,1.7505,1.1758,3.3027v7.1567h-1.6094v-3.3877Z"/><path d="m50.2964,107.8234h7.791v1.5244h-7.791v-1.5244Zm3.832,11.0527c-.6074-.2544-1.0728-.6738-1.397-1.2598-.3252-.5859-.4873-1.3657-.4873-2.3398v-10.8828h1.9487v11.1367c0,.6074.166,1.0767.4961,1.4082.332.332.8027.4976,1.4082.4976h1.9902v1.8208h-1.7363c-.875,0-1.6152-.127-2.2227-.3809Z"/><path d="m63.3599,118.675c-.917-.5576-1.6123-1.2847-2.085-2.1812-.4736-.896-.71-1.8384-.71-2.8267v-.3809c0-.9878.2441-1.9302.7305-2.8267.4873-.896,1.1895-1.623,2.1074-2.1807.917-.5576,1.9902-.8364,3.2178-.8364,1.2285,0,2.3008.2788,3.2188.8364.917.5576,1.6191,1.2847,2.1064,2.1807.4873.8965.7305,1.8389.7305,2.8267v.3809c0,.9883-.2363,1.9307-.709,2.8267-.4736.8965-1.168,1.6235-2.0859,2.1812-.918.5571-2.0039.8364-3.2607.8364-1.2559,0-2.3428-.2793-3.2607-.8364Zm5.4102-1.5352c.6143-.3667,1.0801-.8716,1.3975-1.5142.3174-.6421.4766-1.3579.4766-2.1489,0-.8047-.166-1.5278-.498-2.1699-.332-.6426-.8008-1.1436-1.4082-1.5034-.6064-.3599-1.3125-.54-2.1172-.54s-1.5107.1802-2.1172.54-1.0762.8608-1.4082,1.5034c-.3311.6421-.4971,1.3652-.4971,2.1699,0,.791.1582,1.5068.4766,2.1489.3174.6426.7832,1.1475,1.3975,1.5142.6133.3672,1.3301.5503,2.1484.5503s1.5352-.1831,2.1494-.5503Z"/><path d="m76.2544,107.8234h1.6084v4.8486h-.2539c0-1.665.3281-2.9463.9844-3.8428.6572-.896,1.6416-1.3442,2.9541-1.3442h.085c1.3125,0,2.2969.4482,2.9531,1.3442.6562.8965.9844,2.1777.9844,3.8428h-.5928c0-1.665.3359-2.9463,1.0059-3.8428.6709-.896,1.6621-1.3442,2.9746-1.3442h.085c1.3125,0,2.3047.4482,2.9746,1.3442.6709.8965,1.0059,2.1777,1.0059,3.8428v6.458h-2.0322v-6.9023c0-.9033-.2266-1.6094-.6777-2.1172-.4521-.5083-1.0801-.7627-1.8848-.7627-.8467,0-1.5205.2686-2.0215.8047-.501.5366-.752,1.2705-.752,2.2021v6.7754h-2.0322v-6.9023c0-.9033-.2266-1.6094-.6777-2.1172-.4521-.5083-1.0801-.7627-1.8848-.7627-.8467,0-1.5205.2686-2.0215.8047-.501.5366-.752,1.2705-.752,2.2021v6.7754h-2.0322v-11.3066Z"/><path d="m97.396,118.4631c-.7275-.6421-1.0908-1.5488-1.0908-2.7207,0-1.1855.3994-2.0889,1.1963-2.71.7979-.6211,1.9375-.9316,3.4199-.9316h3.0703v1.5244h-3.1553c-.8047,0-1.4287.1938-1.874.582-.4443.3887-.667.8999-.667,1.5352s.2227,1.1401.667,1.5137c.4453.3745,1.0693.5615,1.874.5615s1.4854-.2261,2.043-.6777.8574-1.1855.9004-2.2021l.5508.8047c-.1133,1.2144-.498,2.1313-1.1543,2.7524-.6562.6216-1.5771.9316-2.7627.9316-1.2852,0-2.291-.3208-3.0176-.9634Zm6.7227-2.7207h-.3389v-3.917c0-.7764-.2012-1.3623-.6035-1.7573s-.9922-.5928-1.7676-.5928c-1.2852,0-2.5488.042-3.79.127v-1.7788c.917-.0845,1.9541-.127,3.1123-.127,1.7637,0,3.0381.3252,3.8213.9741.7832.6494,1.1758,1.7505,1.1758,3.3027v7.1567h-1.6094v-3.3877Z"/><path d="m110.2583,118.5266c-.8193-.6279-1.2432-1.4995-1.2705-2.6147h1.9053c.0283.5083.2676.939.7197,1.2915.4521.353,1.1436.5293,2.0752.5293.875,0,1.5596-.1729,2.0537-.5186s.7412-.7939.7412-1.3447c0-.4658-.1768-.8291-.5293-1.0903-.3535-.2612-.9248-.4341-1.7148-.5186l-1.2285-.1274c-1.1289-.127-2.0186-.4585-2.668-.9951-.6494-.5361-.9736-1.27-.9736-2.2017,0-.7061.1836-1.3198.5508-1.8423.3662-.522.875-.9209,1.5244-1.1963.6484-.2754,1.3975-.4126,2.2441-.4126,1.2988,0,2.3359.2891,3.1123.8677.7764.5791,1.1787,1.4121,1.207,2.4985h-1.9053c-.0293-.4795-.2471-.8711-.6572-1.1748-.4092-.3037-.9951-.4556-1.7568-.4556-.7627,0-1.3555.1592-1.7783.4766-.4238.3174-.6357.7305-.6357,1.2388,0,.4375.1484.7798.4453,1.0269.2959.2471.7686.4058,1.418.4761l1.2285.1274c1.2559.127,2.2402.4692,2.9531,1.0269s1.0693,1.3164,1.0693,2.2759c0,.6919-.2012,1.313-.6035,1.8633s-.96.9775-1.6729,1.2812c-.7129.3032-1.5205.4551-2.4238.4551-1.4688,0-2.6113-.3145-3.4297-.9424Z"/><path d="m121.5962,118.7595c-.2324-.2466-.3486-.5537-.3486-.9209s.1162-.6738.3486-.9209c.2334-.2471.5264-.3706.8789-.3706s.6465.1235.8789.3706c.2334.2471.3496.5537.3496.9209s-.1162.6743-.3496.9209c-.2324.2471-.5264.3706-.8789.3706s-.6455-.1235-.8789-.3706Z"/><path d="m125.481,107.8234h2.1172l3.7695,11.3066h-2.0332l-3.8535-11.3066Zm4.3623,9.6973h2.4561v1.6094h-2.4561v-1.6094Zm4.2559-9.6973h1.9902l-3.3457,11.3066h-1.9268l3.2822-11.3066Z"/><path d="m140.7896,118.6643c-.8613-.5645-1.5039-1.2949-1.9268-2.1914-.4238-.896-.6357-1.8315-.6357-2.8057v-.3809c0-.9878.2158-1.9302.6465-2.8267.4297-.896,1.0723-1.623,1.9268-2.1807.8535-.5576,1.8809-.8364,3.0801-.8364.9463,0,1.7969.1768,2.5518.5293.7549.353,1.3623.854,1.8213,1.5034.458.6494.7158,1.4048.7725,2.2651h-1.9482c-.1133-.7334-.4482-1.3301-1.0059-1.7891-.5576-.4585-1.2881-.688-2.1914-.688-.79,0-1.457.1802-2.001.54-.543.3599-.9492.8574-1.2168,1.4927-.2686.6353-.4023,1.3623-.4023,2.1807,0,.8047.1377,1.5244.4131,2.1597.2744.6353.6846,1.1367,1.2275,1.5034.543.3672,1.2178.5503,2.0225.5503.6064,0,1.1504-.1089,1.6299-.3281.4795-.2188.8613-.522,1.1436-.9102s.4512-.8223.5078-1.3022h1.9482c-.042.8755-.2998,1.6406-.7725,2.2974-.4736.6562-1.0977,1.1646-1.874,1.5244s-1.6377.54-2.583.54c-1.2285,0-2.2734-.2827-3.1338-.8472Z"/><path d="m154.0757,118.675c-.8545-.5576-1.4824-1.2812-1.8848-2.1704s-.6035-1.835-.6035-2.8374v-.3809c0-1.0161.2051-1.9692.6143-2.8584s1.0303-1.6094,1.8633-2.1597,1.8496-.8257,3.0488-.8257c1.1719,0,2.1631.2539,2.9746.7622s1.4189,1.1821,1.8213,2.022.6035,1.7466.6035,2.7207v.9106h-10.0361v-1.5244h8.5537l-.4658.8257c0-.8047-.127-1.5034-.3809-2.0962s-.6426-1.0483-1.1641-1.3657c-.5225-.3174-1.1582-.4766-1.9062-.4766-.79,0-1.4541.1802-1.9902.54s-.9355.8574-1.1963,1.4927-.3916,1.3765-.3916,2.2231c0,.833.1338,1.5669.4023,2.2021.2676.6353.6777,1.1362,1.2285,1.5034.5498.3672,1.2412.5503,2.0742.5503.8613,0,1.5742-.1904,2.1387-.5718.5645-.3809.9102-.8467,1.0381-1.3975h1.9053c-.2402,1.1719-.8125,2.0894-1.7148,2.7524-.9043.6636-2.0264.9956-3.3672.9956-1.2559,0-2.3115-.2793-3.165-.8364Z"/><path d="m164.482,103.6735h3.5996v1.6094h-3.5996v-1.6094Zm1.5674,0h2.0322v15.4565h-2.0322v-15.4565Z"/><path d="m172.6236,118.4631c-.7275-.6421-1.0908-1.5488-1.0908-2.7207,0-1.1855.3994-2.0889,1.1963-2.71.7979-.6211,1.9375-.9316,3.4199-.9316h3.0703v1.5244h-3.1553c-.8047,0-1.4287.1938-1.874.582-.4443.3887-.667.8999-.667,1.5352s.2227,1.1401.667,1.5137c.4453.3745,1.0693.5615,1.874.5615s1.4854-.2261,2.043-.6777.8574-1.1855.9004-2.2021l.5508.8047c-.1133,1.2144-.498,2.1313-1.1543,2.7524-.6562.6216-1.5771.9316-2.7627.9316-1.2852,0-2.291-.3208-3.0176-.9634Zm6.7227-2.7207h-.3389v-3.917c0-.7764-.2012-1.3623-.6035-1.7573s-.9922-.5928-1.7676-.5928c-1.2852,0-2.5488.042-3.79.127v-1.7788c.917-.0845,1.9541-.127,3.1123-.127,1.7637,0,3.0381.3252,3.8213.9741.7832.6494,1.1758,1.7505,1.1758,3.3027v7.1567h-1.6094v-3.3877Z"/><path d="m185.2105,103.6735h2.0322v15.4565h-2.0322v-15.4565Zm3.5352,10.1846h-1.8633l5.1875-6.0347h2.1387l-4.7002,5.4419.1484-1.0801,5.6953,6.9448h-2.3506l-4.2559-5.272Z"/><path d="m202.4458,122.9626c-1.6094-.8755-2.8662-2.1035-3.7686-3.6841-.9043-1.5811-1.3555-3.395-1.3555-5.4419,0-1.9902.4482-3.79,1.3447-5.3989.8955-1.6094,2.1523-2.876,3.7686-3.8008,1.6162-.9243,3.4688-1.3867,5.5576-1.3867,1.8916,0,3.624.3638,5.1982,1.0903,1.5742.7271,2.8232,1.7891,3.748,3.1865.9238,1.3975,1.3867,3.0635,1.3867,4.9971,0,1.228-.1904,2.3364-.5723,3.3242-.3809.9883-.9102,1.7607-1.5879,2.3184-.6768.5576-1.4541.8364-2.3291.8364-.9883,0-1.7715-.3071-2.3496-.9209-.5791-.6143-.8682-1.415-.8682-2.4033v-1.313h.6143c-.043.9741-.2549,1.7964-.6357,2.4668-.3809.6709-.8789,1.1719-1.4922,1.5034-.6143.3315-1.2891.4976-2.0225.4976-.8613,0-1.6338-.2119-2.3184-.6353s-1.2246-1.0088-1.6201-1.7573c-.3955-.748-.5928-1.5806-.5928-2.4985v-.3389c0-.917.2012-1.7393.6035-2.4663s.9561-1.2949,1.6621-1.7046c.7061-.4092,1.4893-.6143,2.3506-.6143.7764,0,1.4785.1694,2.1064.5083s1.1328.833,1.5137,1.4824c.3818.6494.5928,1.4185.6357,2.3076h-.7627v-4.0015h1.6514v6.521c0,.5649.1377.9917.4131,1.2812.2754.2891.6318.4341,1.0693.4341.4795,0,.9277-.1978,1.3447-.5933.416-.395.748-.9526.9951-1.6724.2471-.7202.3701-1.5459.3701-2.4775,0-1.6514-.3779-3.0522-1.1328-4.2026s-1.7783-2.0146-3.0703-2.5938c-1.291-.5786-2.7207-.8682-4.2871-.8682-1.7783,0-3.3389.3887-4.6797,1.1646-1.3408.7764-2.375,1.8423-3.1016,3.1973s-1.0898,2.8726-1.0898,4.5522c0,1.708.3662,3.2183,1.1006,4.5308.7334,1.313,1.7646,2.3325,3.0908,3.0596,1.3271.7271,2.8447,1.0903,4.5527,1.0903.875,0,1.7217-.0986,2.541-.2964v1.7573c-.876.1836-1.7227.2754-2.541.2754-2.0186,0-3.832-.4375-5.4414-1.3125Zm6.542-6.1299c.4658-.2607.8398-.6421,1.1221-1.1431s.4238-1.0908.4238-1.7681v-.5508c0-.6348-.1445-1.1714-.4336-1.6089-.29-.4375-.667-.769-1.1328-.9951-.4658-.2256-.9746-.3389-1.5244-.3389-.6074,0-1.1406.1377-1.5986.4131-.459.2749-.8125.6636-1.0586,1.1641-.2471.5015-.3711,1.0908-.3711,1.7681,0,.6777.127,1.2778.3809,1.7998.2549.5225.6104.9282,1.0693,1.2173.459.2896.9854.4341,1.5781.4341.5645,0,1.0791-.1304,1.5449-.3916Z"/><path d="m223.7984,118.675c-.8545-.5576-1.4824-1.2812-1.8848-2.1704s-.6035-1.835-.6035-2.8374v-.3809c0-1.0161.2051-1.9692.6143-2.8584s1.0303-1.6094,1.8633-2.1597,1.8496-.8257,3.0488-.8257c1.1719,0,2.1631.2539,2.9746.7622s1.4189,1.1821,1.8213,2.022.6035,1.7466.6035,2.7207v.9106h-10.0361v-1.5244h8.5537l-.4658.8257c0-.8047-.127-1.5034-.3809-2.0962s-.6426-1.0483-1.1641-1.3657c-.5225-.3174-1.1582-.4766-1.9062-.4766-.79,0-1.4541.1802-1.9902.54s-.9355.8574-1.1963,1.4927-.3916,1.3765-.3916,2.2231c0,.833.1338,1.5669.4023,2.2021.2676.6353.6777,1.1362,1.2285,1.5034.5498.3672,1.2412.5503,2.0742.5503.8613,0,1.5742-.1904,2.1387-.5718.5645-.3809.9102-.8467,1.0381-1.3975h1.9053c-.2402,1.1719-.8125,2.0894-1.7148,2.7524-.9043.6636-2.0264.9956-3.3672.9956-1.2559,0-2.3115-.2793-3.165-.8364Z"/><path d="m238.2915,113.1804l-.0635.4233-3.79-5.7803h2.2441l2.7314,4.2559h.2969l2.583-4.2559h2.0957l-3.5781,5.6323.0635-.3813,4.2354,6.0557h-2.2451l-3.1758-4.5947h-.2959l-3.0488,4.5947h-2.0967l4.0439-5.9497Z"/><path d="m246.8032,107.8234h3.7686v1.6094h-3.7686v-1.6094Zm1.3125-2.1699c-.2266-.2329-.3389-.54-.3389-.9214,0-.3809.1123-.688.3389-.9209.2256-.2329.5576-.3491.9951-.3491s.7686.1162.9951.3491c.2256.2329.3389.54.3389.9209,0,.3813-.1133.6885-.3389.9214-.2266.2329-.5576.3491-.9951.3491s-.7695-.1162-.9951-.3491Zm.4229,2.1699h2.0332v11.3066h-2.0332v-11.3066Z"/><path d="m255.315,118.5266c-.8193-.6279-1.2432-1.4995-1.2705-2.6147h1.9053c.0283.5083.2676.939.7197,1.2915.4521.353,1.1436.5293,2.0752.5293.875,0,1.5596-.1729,2.0537-.5186s.7412-.7939.7412-1.3447c0-.4658-.1768-.8291-.5293-1.0903-.3535-.2612-.9248-.4341-1.7148-.5186l-1.2285-.1274c-1.1289-.127-2.0186-.4585-2.668-.9951-.6494-.5361-.9736-1.27-.9736-2.2017,0-.7061.1836-1.3198.5508-1.8423.3662-.522.875-.9209,1.5244-1.1963.6484-.2754,1.3975-.4126,2.2441-.4126,1.2988,0,2.3359.2891,3.1123.8677.7764.5791,1.1787,1.4121,1.207,2.4985h-1.9053c-.0293-.4795-.2471-.8711-.6572-1.1748-.4092-.3037-.9951-.4556-1.7568-.4556-.7627,0-1.3555.1592-1.7783.4766-.4238.3174-.6357.7305-.6357,1.2388,0,.4375.1484.7798.4453,1.0269.2959.2471.7686.4058,1.418.4761l1.2285.1274c1.2559.127,2.2402.4692,2.9531,1.0269s1.0693,1.3164,1.0693,2.2759c0,.6919-.2012,1.313-.6035,1.8633s-.96.9775-1.6729,1.2812c-.7129.3032-1.5205.4551-2.4238.4551-1.4688,0-2.6113-.3145-3.4297-.9424Z"/><path d="m265.2661,107.8234h7.791v1.5244h-7.791v-1.5244Zm3.832,11.0527c-.6074-.2544-1.0732-.6738-1.3975-1.2598-.3252-.5859-.4873-1.3657-.4873-2.3398v-10.8828h1.9482v11.1367c0,.6074.166,1.0767.4971,1.4082.332.332.8018.4976,1.4082.4976h1.9902v1.8208h-1.7363c-.875,0-1.6162-.127-2.2227-.3809Z"/><path d="m277.2915,118.156c-.7197-.875-1.0791-2.1382-1.0791-3.79v-6.5635h2.0322v6.9658c0,.8896.2402,1.585.7197,2.0859s1.1289.7515,1.9482.7515c.8604,0,1.5557-.2754,2.085-.8257.5293-.5508.7939-1.2915.7939-2.2231v-6.7544h2.0332v11.3276h-1.6094v-4.8486h.2539c0,1.6938-.335,2.9819-1.0059,3.8643-.6699.8823-1.6689,1.3232-2.9961,1.3232h-.084c-1.3418,0-2.3721-.4375-3.0918-1.313Z"/><path d="m288.3023,121.6286h1.1855c.5361,0,.9492-.145,1.2383-.4341.2891-.2896.4346-.7026.4346-1.2388v-12.1323h1.9473v11.8359c0,.9453-.1309,1.6938-.3916,2.2441-.2607.5508-.6738.9458-1.2383,1.186-.5645.2397-1.3271.3599-2.2871.3599h-.8887v-1.8208Zm1.0791-13.8052h3.7266v1.6094h-3.7266v-1.6094Zm1.2705-2.3394c-.2256-.2329-.3389-.54-.3389-.9209,0-.3813.1133-.6885.3389-.9214s.5576-.3491.9951-.3491.7695.1162.9951.3491.3389.54.3389.9214c0,.3809-.1133.688-.3389.9209s-.5576.3491-.9951.3491-.7695-.1162-.9951-.3491Z"/><path d="m299.1743,118.675c-.8545-.5576-1.4824-1.2812-1.8848-2.1704s-.6035-1.835-.6035-2.8374v-.3809c0-1.0161.2051-1.9692.6143-2.8584s1.0303-1.6094,1.8633-2.1597,1.8496-.8257,3.0488-.8257c1.1719,0,2.1631.2539,2.9746.7622s1.4189,1.1821,1.8213,2.022.6035,1.7466.6035,2.7207v.9106h-10.0361v-1.5244h8.5537l-.4658.8257c0-.8047-.127-1.5034-.3809-2.0962s-.6426-1.0483-1.1641-1.3657c-.5225-.3174-1.1582-.4766-1.9062-.4766-.79,0-1.4541.1802-1.9902.54s-.9355.8574-1.1963,1.4927-.3916,1.3765-.3916,2.2231c0,.833.1338,1.5669.4023,2.2021.2676.6353.6777,1.1362,1.2285,1.5034.5498.3672,1.2412.5503,2.0742.5503.8613,0,1.5742-.1904,2.1387-.5718.5645-.3809.9102-.8467,1.0381-1.3975h1.9053c-.2402,1.1719-.8125,2.0894-1.7148,2.7524-.9043.6636-2.0264.9956-3.3672.9956-1.2559,0-2.3115-.2793-3.165-.8364Z"/><path d="m310.7974,118.7595c-.2324-.2466-.3486-.5537-.3486-.9209s.1162-.6738.3486-.9209c.2334-.2471.5264-.3706.8789-.3706s.6465.1235.8789.3706c.2334.2471.3496.5537.3496.9209s-.1162.6743-.3496.9209c-.2324.2471-.5264.3706-.8789.3706s-.6455-.1235-.8789-.3706Z"/><path d="m318.5786,118.675c-.917-.5576-1.6123-1.2847-2.085-2.1812-.4736-.896-.71-1.8384-.71-2.8267v-.3809c0-.9878.2441-1.9302.7305-2.8267.4873-.896,1.1895-1.623,2.1074-2.1807.917-.5576,1.9902-.8364,3.2178-.8364,1.2285,0,2.3008.2788,3.2188.8364.917.5576,1.6191,1.2847,2.1064,2.1807.4873.8965.7305,1.8389.7305,2.8267v.3809c0,.9883-.2363,1.9307-.709,2.8267-.4736.8965-1.168,1.6235-2.0859,2.1812-.918.5571-2.0039.8364-3.2607.8364-1.2559,0-2.3428-.2793-3.2607-.8364Zm5.4102-1.5352c.6143-.3667,1.0801-.8716,1.3975-1.5142.3174-.6421.4766-1.3579.4766-2.1489,0-.8047-.166-1.5278-.498-2.1699-.332-.6426-.8008-1.1436-1.4082-1.5034-.6064-.3599-1.3125-.54-2.1172-.54s-1.5107.1802-2.1172.54-1.0762.8608-1.4082,1.5034c-.3311.6421-.4971,1.3652-.4971,2.1699,0,.791.1582,1.5068.4766,2.1489.3174.6426.7832,1.1475,1.3975,1.5142.6133.3672,1.3301.5503,2.1484.5503s1.5352-.1831,2.1494-.5503Z"/><path d="m331.4741,107.8234h1.6084v4.8486h-.2539c0-1.6938.3496-2.9814,1.0488-3.8638.6982-.8823,1.7461-1.3232,3.1436-1.3232h.085c1.3975,0,2.4453.4409,3.1445,1.3232.6982.8823,1.0479,2.1699,1.0479,3.8638v6.458h-2.0332v-6.8813c0-.8892-.25-1.5947-.751-2.1172-.502-.522-1.1758-.7837-2.0225-.7837-.8887,0-1.6094.2793-2.1592.8364-.5508.5581-.8262,1.2886-.8262,2.1914v6.7544h-2.0322v-11.3066Z"/><path d="m344.1138,103.6735h3.5996v1.6094h-3.5996v-1.6094Zm1.5674,0h2.0322v15.4565h-2.0322v-15.4565Z"/><path d="m350.9527,107.8234h3.7686v1.6094h-3.7686v-1.6094Zm1.3125-2.1699c-.2266-.2329-.3389-.54-.3389-.9214,0-.3809.1123-.688.3389-.9209.2256-.2329.5576-.3491.9951-.3491s.7686.1162.9951.3491c.2256.2329.3389.54.3389.9209,0,.3813-.1133.6885-.3389.9214-.2266.2329-.5576.3491-.9951.3491s-.7695-.1162-.9951-.3491Zm.4229,2.1699h2.0332v11.3066h-2.0332v-11.3066Z"/><path d="m359.189,107.8234h1.6084v4.8486h-.2539c0-1.6938.3496-2.9814,1.0488-3.8638.6982-.8823,1.7461-1.3232,3.1436-1.3232h.085c1.3975,0,2.4453.4409,3.1445,1.3232.6982.8823,1.0479,2.1699,1.0479,3.8638v6.458h-2.0332v-6.8813c0-.8892-.25-1.5947-.751-2.1172-.502-.522-1.1758-.7837-2.0225-.7837-.8887,0-1.6094.2793-2.1592.8364-.5508.5581-.8262,1.2886-.8262,2.1914v6.7544h-2.0322v-11.3066Z"/><path d="m374.9097,118.675c-.8545-.5576-1.4824-1.2812-1.8848-2.1704s-.6035-1.835-.6035-2.8374v-.3809c0-1.0161.2051-1.9692.6143-2.8584s1.0303-1.6094,1.8633-2.1597,1.8496-.8257,3.0488-.8257c1.1719,0,2.1631.2539,2.9746.7622s1.4189,1.1821,1.8213,2.022.6035,1.7466.6035,2.7207v.9106h-10.0361v-1.5244h8.5537l-.4658.8257c0-.8047-.127-1.5034-.3809-2.0962s-.6426-1.0483-1.1641-1.3657c-.5225-.3174-1.1582-.4766-1.9062-.4766-.79,0-1.4541.1802-1.9902.54s-.9355.8574-1.1963,1.4927-.3916,1.3765-.3916,2.2231c0,.833.1338,1.5669.4023,2.2021.2676.6353.6777,1.1362,1.2285,1.5034.5498.3672,1.2412.5503,2.0742.5503.8613,0,1.5742-.1904,2.1387-.5718.5645-.3809.9102-.8467,1.0381-1.3975h1.9053c-.2402,1.1719-.8125,2.0894-1.7148,2.7524-.9043.6636-2.0264.9956-3.3672.9956-1.2559,0-2.3115-.2793-3.165-.8364Z"/><path d="m50.5503,129.0812h11.4766v1.8633h-11.4766v-1.8633Zm4.7012,1.4399h2.0742v14.0166h-2.0742v-14.0166Z"/><path d="m65.647,144.0827c-.917-.5576-1.6123-1.2847-2.085-2.1812-.4736-.896-.71-1.8384-.71-2.8267v-.3809c0-.9878.2441-1.9302.7305-2.8267.4873-.896,1.1895-1.623,2.1074-2.1807.917-.5576,1.9902-.8364,3.2178-.8364,1.2285,0,2.3008.2788,3.2188.8364.917.5576,1.6191,1.2847,2.1064,2.1807.4873.8965.7305,1.8389.7305,2.8267v.3809c0,.9883-.2363,1.9307-.709,2.8267-.4736.8965-1.168,1.6235-2.0859,2.1812-.918.5571-2.0039.8364-3.2607.8364-1.2559,0-2.3428-.2793-3.2607-.8364Zm5.4102-1.5352c.6143-.3667,1.0801-.8716,1.3975-1.5142.3174-.6421.4766-1.3579.4766-2.1489,0-.8047-.166-1.5278-.498-2.1699-.332-.6426-.8008-1.1436-1.4082-1.5034-.6064-.3599-1.3125-.54-2.1172-.54s-1.5107.1802-2.1172.54-1.0762.8608-1.4082,1.5034c-.3311.6421-.4971,1.3652-.4971,2.1699,0,.791.1582,1.5068.4766,2.1489.3174.6426.7832,1.1475,1.3975,1.5142.6133.3672,1.3301.5503,2.1484.5503s1.5352-.1831,2.1494-.5503Z"/><path d="m78.5415,133.2312h1.6084v4.8486h-.2539c0-1.665.3281-2.9463.9844-3.8428.6572-.896,1.6416-1.3442,2.9541-1.3442h.085c1.3125,0,2.2969.4482,2.9531,1.3442.6562.8965.9844,2.1777.9844,3.8428h-.5928c0-1.665.3359-2.9463,1.0059-3.8428.6709-.896,1.6621-1.3442,2.9746-1.3442h.085c1.3125,0,2.3047.4482,2.9746,1.3442.6709.8965,1.0059,2.1777,1.0059,3.8428v6.458h-2.0322v-6.9023c0-.9033-.2266-1.6094-.6777-2.1172-.4521-.5083-1.0801-.7627-1.8848-.7627-.8467,0-1.5205.2686-2.0215.8047-.501.5366-.752,1.2705-.752,2.2021v6.7754h-2.0322v-6.9023c0-.9033-.2266-1.6094-.6777-2.1172-.4521-.5083-1.0801-.7627-1.8848-.7627-.8467,0-1.5205.2686-2.0215.8047-.501.5366-.752,1.2705-.752,2.2021v6.7754h-2.0322v-11.3066Z"/><path d="m99.6821,143.8708c-.7275-.6421-1.0908-1.5488-1.0908-2.7207,0-1.1855.3994-2.0889,1.1963-2.71.7979-.6211,1.9375-.9316,3.4199-.9316h3.0703v1.5244h-3.1553c-.8047,0-1.4287.1938-1.874.582-.4443.3887-.667.8999-.667,1.5352s.2227,1.1401.667,1.5137c.4453.3745,1.0693.5615,1.874.5615s1.4854-.2261,2.043-.6777.8574-1.1855.9004-2.2021l.5508.8047c-.1133,1.2144-.498,2.1313-1.1543,2.7524-.6562.6216-1.5771.9316-2.7627.9316-1.2852,0-2.291-.3208-3.0176-.9634Zm6.7227-2.7207h-.3389v-3.917c0-.7764-.2012-1.3623-.6035-1.7573s-.9922-.5928-1.7676-.5928c-1.2852,0-2.5488.042-3.79.127v-1.7788c.917-.0845,1.9541-.127,3.1123-.127,1.7637,0,3.0381.3252,3.8213.9741.7832.6494,1.1758,1.7505,1.1758,3.3027v7.1567h-1.6094v-3.3877Zm-2.0537-13.7627h2.1377l-2.3496,4.1924h-1.6514l1.8633-4.1924Z"/><path d="m112.5454,143.9343c-.8193-.6279-1.2432-1.4995-1.2705-2.6147h1.9053c.0283.5083.2676.939.7197,1.2915.4521.353,1.1436.5293,2.0752.5293.875,0,1.5596-.1729,2.0537-.5186s.7412-.7939.7412-1.3447c0-.4658-.1768-.8291-.5293-1.0903-.3535-.2612-.9248-.4341-1.7148-.5186l-1.2285-.1274c-1.1289-.127-2.0186-.4585-2.668-.9951-.6494-.5361-.9736-1.27-.9736-2.2017,0-.7061.1836-1.3198.5508-1.8423.3662-.522.875-.9209,1.5244-1.1963.6484-.2754,1.3975-.4126,2.2441-.4126,1.2988,0,2.3359.2891,3.1123.8677.7764.5791,1.1787,1.4121,1.207,2.4985h-1.9053c-.0293-.4795-.2471-.8711-.6572-1.1748-.4092-.3037-.9951-.4556-1.7568-.4556-.7627,0-1.3555.1592-1.7783.4766-.4238.3174-.6357.7305-.6357,1.2388,0,.4375.1484.7798.4453,1.0269.2959.2471.7686.4058,1.418.4761l1.2285.1274c1.2559.127,2.2402.4692,2.9531,1.0269s1.0693,1.3164,1.0693,2.2759c0,.6919-.2012,1.313-.6035,1.8633s-.96.9775-1.6729,1.2812c-.7129.3032-1.5205.4551-2.4238.4551-1.4688,0-2.6113-.3145-3.4297-.9424Zm-.043-16.5469h1.6729l1.7363,3.1763h.1689l1.4609-3.1763h1.5879l-2.0537,4.1924h-2.2441l-2.3291-4.1924Z"/><path d="m128.022,129.0812h2.1387l4.8057,14.1016-1.0156-.5083h2.541l-1.0801.5083,4.4248-14.1016h2.0752l-4.9756,15.4565h-3.5576l-5.3564-15.4565Z"/><path d="m145.8921,144.072c-.8613-.5645-1.5039-1.2949-1.9268-2.1914-.4238-.896-.6357-1.8315-.6357-2.8057v-.3809c0-.9878.2158-1.9302.6465-2.8267.4297-.896,1.0723-1.623,1.9268-2.1807.8535-.5576,1.8809-.8364,3.0801-.8364.9463,0,1.7969.1768,2.5518.5293.7549.353,1.3623.854,1.8213,1.5034.458.6494.7158,1.4048.7725,2.2651h-1.9482c-.1133-.7334-.4482-1.3301-1.0059-1.7891-.5576-.4585-1.2881-.688-2.1914-.688-.79,0-1.457.1802-2.001.54-.543.3599-.9492.8574-1.2168,1.4927-.2686.6353-.4023,1.3623-.4023,2.1807,0,.8047.1377,1.5244.4131,2.1597.2744.6353.6846,1.1367,1.2275,1.5034.543.3672,1.2178.5503,2.0225.5503.6064,0,1.1504-.1089,1.6299-.3281.4795-.2188.8613-.522,1.1436-.9102s.4512-.8223.5078-1.3022h1.9482c-.042.8755-.2998,1.6406-.7725,2.2974-.4736.6562-1.0977,1.1646-1.874,1.5244s-1.6377.54-2.583.54c-1.2285,0-2.2734-.2827-3.1338-.8472Zm-.3604-16.6846h1.6729l1.7363,3.1763h.1689l1.4609-3.1763h1.5889l-2.0547,4.1924h-2.2441l-2.3291-4.1924Z"/><path d="m159.1782,144.0827c-.8545-.5576-1.4824-1.2812-1.8848-2.1704s-.6035-1.835-.6035-2.8374v-.3809c0-1.0161.2051-1.9692.6143-2.8584s1.0303-1.6094,1.8633-2.1597,1.8496-.8257,3.0488-.8257c1.1719,0,2.1631.2539,2.9746.7622s1.4189,1.1821,1.8213,2.022.6035,1.7466.6035,2.7207v.9106h-10.0361v-1.5244h8.5537l-.4658.8257c0-.8047-.127-1.5034-.3809-2.0962s-.6426-1.0483-1.1641-1.3657c-.5225-.3174-1.1582-.4766-1.9062-.4766-.79,0-1.4541.1802-1.9902.54s-.9355.8574-1.1963,1.4927-.3916,1.3765-.3916,2.2231c0,.833.1338,1.5669.4023,2.2021.2676.6353.6777,1.1362,1.2285,1.5034.5498.3672,1.2412.5503,2.0742.5503.8613,0,1.5742-.1904,2.1387-.5718.5645-.3809.9102-.8467,1.0381-1.3975h1.9053c-.2402,1.1719-.8125,2.0894-1.7148,2.7524-.9043.6636-2.0264.9956-3.3672.9956-1.2559,0-2.3115-.2793-3.165-.8364Z"/><path d="m169.5845,129.0812h3.5996v1.6094h-3.5996v-1.6094Zm1.5674,0h2.0322v15.4565h-2.0322v-15.4565Z"/><path d="m177.7261,143.8708c-.7275-.6421-1.0908-1.5488-1.0908-2.7207,0-1.1855.3994-2.0889,1.1963-2.71.7979-.6211,1.9375-.9316,3.4199-.9316h3.0703v1.5244h-3.1553c-.8047,0-1.4287.1938-1.874.582-.4443.3887-.667.8999-.667,1.5352s.2227,1.1401.667,1.5137c.4453.3745,1.0693.5615,1.874.5615s1.4854-.2261,2.043-.6777.8574-1.1855.9004-2.2021l.5508.8047c-.1133,1.2144-.498,2.1313-1.1543,2.7524-.6562.6216-1.5771.9316-2.7627.9316-1.2852,0-2.291-.3208-3.0176-.9634Zm6.7227-2.7207h-.3389v-3.917c0-.7764-.2012-1.3623-.6035-1.7573s-.9922-.5928-1.7676-.5928c-1.2852,0-2.5488.042-3.79.127v-1.7788c.917-.0845,1.9541-.127,3.1123-.127,1.7637,0,3.0381.3252,3.8213.9741.7832.6494,1.1758,1.7505,1.1758,3.3027v7.1567h-1.6094v-3.3877Zm-2.0537-13.7627h2.1377l-2.3496,4.1924h-1.6514l1.8633-4.1924Z"/><path d="m190.313,129.0812h2.0322v15.4565h-2.0322v-15.4565Zm3.5352,10.1846h-1.8633l5.1875-6.0347h2.1387l-4.7002,5.4419.1484-1.0801,5.6953,6.9448h-2.3506l-4.2559-5.272Z"/><path d="m209.9722,144.0827c-.8545-.5576-1.4824-1.2812-1.8848-2.1704s-.6035-1.835-.6035-2.8374v-.3809c0-1.0161.2051-1.9692.6143-2.8584s1.0303-1.6094,1.8633-2.1597,1.8496-.8257,3.0488-.8257c1.1719,0,2.1631.2539,2.9746.7622s1.4189,1.1821,1.8213,2.022.6035,1.7466.6035,2.7207v.9106h-10.0361v-1.5244h8.5537l-.4658.8257c0-.8047-.127-1.5034-.3809-2.0962s-.6426-1.0483-1.1641-1.3657c-.5225-.3174-1.1582-.4766-1.9062-.4766-.79,0-1.4541.1802-1.9902.54s-.9355.8574-1.1963,1.4927-.3916,1.3765-.3916,2.2231c0,.833.1338,1.5669.4023,2.2021.2676.6353.6777,1.1362,1.2285,1.5034.5498.3672,1.2412.5503,2.0742.5503.8613,0,1.5742-.1904,2.1387-.5718.5645-.3809.9102-.8467,1.0381-1.3975h1.9053c-.2402,1.1719-.8125,2.0894-1.7148,2.7524-.9043.6636-2.0264.9956-3.3672.9956-1.2559,0-2.3115-.2793-3.165-.8364Z"/><path d="m224.4654,138.5881l-.0635.4233-3.79-5.7803h2.2441l2.7314,4.2559h.2969l2.583-4.2559h2.0957l-3.5781,5.6323.0635-.3813,4.2354,6.0557h-2.2451l-3.1758-4.5947h-.2959l-3.0488,4.5947h-2.0967l4.0439-5.9497Z"/><path d="m232.9771,133.2312h3.7686v1.6094h-3.7686v-1.6094Zm1.3125-2.1699c-.2266-.2329-.3389-.54-.3389-.9214,0-.3809.1123-.688.3389-.9209.2256-.2329.5576-.3491.9951-.3491s.7686.1162.9951.3491c.2256.2329.3389.54.3389.9209,0,.3813-.1133.6885-.3389.9214-.2266.2329-.5576.3491-.9951.3491s-.7695-.1162-.9951-.3491Zm.4229,2.1699h2.0332v11.3066h-2.0332v-11.3066Z"/><path d="m241.4888,143.9343c-.8193-.6279-1.2432-1.4995-1.2705-2.6147h1.9053c.0283.5083.2676.939.7197,1.2915.4521.353,1.1436.5293,2.0752.5293.875,0,1.5596-.1729,2.0537-.5186s.7412-.7939.7412-1.3447c0-.4658-.1768-.8291-.5293-1.0903-.3535-.2612-.9248-.4341-1.7148-.5186l-1.2285-.1274c-1.1289-.127-2.0186-.4585-2.668-.9951-.6494-.5361-.9736-1.27-.9736-2.2017,0-.7061.1836-1.3198.5508-1.8423.3662-.522.875-.9209,1.5244-1.1963.6484-.2754,1.3975-.4126,2.2441-.4126,1.2988,0,2.3359.2891,3.1123.8677.7764.5791,1.1787,1.4121,1.207,2.4985h-1.9053c-.0293-.4795-.2471-.8711-.6572-1.1748-.4092-.3037-.9951-.4556-1.7568-.4556-.7627,0-1.3555.1592-1.7783.4766-.4238.3174-.6357.7305-.6357,1.2388,0,.4375.1484.7798.4453,1.0269.2959.2471.7686.4058,1.418.4761l1.2285.1274c1.2559.127,2.2402.4692,2.9531,1.0269s1.0693,1.3164,1.0693,2.2759c0,.6919-.2012,1.313-.6035,1.8633s-.96.9775-1.6729,1.2812c-.7129.3032-1.5205.4551-2.4238.4551-1.4688,0-2.6113-.3145-3.4297-.9424Z"/><path d="m251.44,133.2312h7.791v1.5244h-7.791v-1.5244Zm3.832,11.0527c-.6074-.2544-1.0732-.6738-1.3975-1.2598-.3252-.5859-.4873-1.3657-.4873-2.3398v-10.8828h1.9482v11.1367c0,.6074.166,1.0767.4971,1.4082.332.332.8018.4976,1.4082.4976h1.9902v1.8208h-1.7363c-.875,0-1.6162-.127-2.2227-.3809Z"/><path d="m263.4654,143.5637c-.7197-.875-1.0791-2.1382-1.0791-3.79v-6.5635h2.0322v6.9658c0,.8896.2402,1.585.7197,2.0859s1.1289.7515,1.9482.7515c.8604,0,1.5557-.2754,2.085-.8257.5293-.5508.7939-1.2915.7939-2.2231v-6.7544h2.0332v11.3276h-1.6094v-4.8486h.2539c0,1.6938-.335,2.9819-1.0059,3.8643-.6699.8823-1.6689,1.3232-2.9961,1.3232h-.084c-1.3418,0-2.3721-.4375-3.0918-1.313Z"/><path d="m274.4761,147.0363h1.1855c.5361,0,.9492-.145,1.2383-.4341.2891-.2896.4346-.7026.4346-1.2388v-12.1323h1.9473v11.8359c0,.9453-.1309,1.6938-.3916,2.2441-.2607.5508-.6738.9458-1.2383,1.186-.5645.2397-1.3271.3599-2.2871.3599h-.8887v-1.8208Zm1.0791-13.8052h3.7266v1.6094h-3.7266v-1.6094Zm1.2705-2.3394c-.2256-.2329-.3389-.54-.3389-.9209,0-.3813.1133-.6885.3389-.9214s.5576-.3491.9951-.3491.7695.1162.9951.3491.3389.54.3389.9214c0,.3809-.1133.688-.3389.9209s-.5576.3491-.9951.3491-.7695-.1162-.9951-.3491Z"/><path d="m285.3482,144.0827c-.8545-.5576-1.4824-1.2812-1.8848-2.1704s-.6035-1.835-.6035-2.8374v-.3809c0-1.0161.2051-1.9692.6143-2.8584s1.0303-1.6094,1.8633-2.1597,1.8496-.8257,3.0488-.8257c1.1719,0,2.1631.2539,2.9746.7622s1.4189,1.1821,1.8213,2.022.6035,1.7466.6035,2.7207v.9106h-10.0361v-1.5244h8.5537l-.4658.8257c0-.8047-.127-1.5034-.3809-2.0962s-.6426-1.0483-1.1641-1.3657c-.5225-.3174-1.1582-.4766-1.9062-.4766-.79,0-1.4541.1802-1.9902.54s-.9355.8574-1.1963,1.4927-.3916,1.3765-.3916,2.2231c0,.833.1338,1.5669.4023,2.2021.2676.6353.6777,1.1362,1.2285,1.5034.5498.3672,1.2412.5503,2.0742.5503.8613,0,1.5742-.1904,2.1387-.5718.5645-.3809.9102-.8467,1.0381-1.3975h1.9053c-.2402,1.1719-.8125,2.0894-1.7148,2.7524-.9043.6636-2.0264.9956-3.3672.9956-1.2559,0-2.3115-.2793-3.165-.8364Z"/><path d="m296.9712,144.1672c-.2324-.2466-.3486-.5537-.3486-.9209s.1162-.6738.3486-.9209c.2334-.2471.5264-.3706.8789-.3706s.6465.1235.8789.3706c.2334.2471.3496.5537.3496.9209s-.1162.6743-.3496.9209c-.2324.2471-.5264.3706-.8789.3706s-.6455-.1235-.8789-.3706Z"/><path d="m304.7525,144.0827c-.917-.5576-1.6123-1.2847-2.085-2.1812-.4736-.896-.71-1.8384-.71-2.8267v-.3809c0-.9878.2441-1.9302.7305-2.8267.4873-.896,1.1895-1.623,2.1074-2.1807.917-.5576,1.9902-.8364,3.2178-.8364,1.2285,0,2.3008.2788,3.2188.8364.917.5576,1.6191,1.2847,2.1064,2.1807.4873.8965.7305,1.8389.7305,2.8267v.3809c0,.9883-.2363,1.9307-.709,2.8267-.4736.8965-1.168,1.6235-2.0859,2.1812-.918.5571-2.0039.8364-3.2607.8364-1.2559,0-2.3428-.2793-3.2607-.8364Zm5.4102-1.5352c.6143-.3667,1.0801-.8716,1.3975-1.5142.3174-.6421.4766-1.3579.4766-2.1489,0-.8047-.166-1.5278-.498-2.1699-.332-.6426-.8008-1.1436-1.4082-1.5034-.6064-.3599-1.3125-.54-2.1172-.54s-1.5107.1802-2.1172.54-1.0762.8608-1.4082,1.5034c-.3311.6421-.4971,1.3652-.4971,2.1699,0,.791.1582,1.5068.4766,2.1489.3174.6426.7832,1.1475,1.3975,1.5142.6133.3672,1.3301.5503,2.1484.5503s1.5352-.1831,2.1494-.5503Z"/><path d="m317.648,133.2312h1.6084v4.8486h-.2539c0-1.6938.3496-2.9814,1.0488-3.8638.6982-.8823,1.7461-1.3232,3.1436-1.3232h.085c1.3975,0,2.4453.4409,3.1445,1.3232.6982.8823,1.0479,2.1699,1.0479,3.8638v6.458h-2.0332v-6.8813c0-.8892-.25-1.5947-.751-2.1172-.502-.522-1.1758-.7837-2.0225-.7837-.8887,0-1.6094.2793-2.1592.8364-.5508.5581-.8262,1.2886-.8262,2.1914v6.7544h-2.0322v-11.3066Z"/><path d="m330.2876,129.0812h3.5996v1.6094h-3.5996v-1.6094Zm1.5674,0h2.0322v15.4565h-2.0322v-15.4565Z"/><path d="m337.1275,133.2312h3.7686v1.6094h-3.7686v-1.6094Zm1.3125-2.1699c-.2266-.2329-.3389-.54-.3389-.9214,0-.3809.1123-.688.3389-.9209.2256-.2329.5576-.3491.9951-.3491s.7686.1162.9951.3491c.2256.2329.3389.54.3389.9209,0,.3813-.1133.6885-.3389.9214-.2266.2329-.5576.3491-.9951.3491s-.7695-.1162-.9951-.3491Zm.4229,2.1699h2.0332v11.3066h-2.0332v-11.3066Z"/><path d="m345.3628,133.2312h1.6084v4.8486h-.2539c0-1.6938.3496-2.9814,1.0488-3.8638.6982-.8823,1.7461-1.3232,3.1436-1.3232h.085c1.3975,0,2.4453.4409,3.1445,1.3232.6982.8823,1.0479,2.1699,1.0479,3.8638v6.458h-2.0332v-6.8813c0-.8892-.25-1.5947-.751-2.1172-.502-.522-1.1758-.7837-2.0225-.7837-.8887,0-1.6094.2793-2.1592.8364-.5508.5581-.8262,1.2886-.8262,2.1914v6.7544h-2.0322v-11.3066Z"/><path d="m361.0835,144.0827c-.8545-.5576-1.4824-1.2812-1.8848-2.1704s-.6035-1.835-.6035-2.8374v-.3809c0-1.0161.2051-1.9692.6143-2.8584s1.0303-1.6094,1.8633-2.1597,1.8496-.8257,3.0488-.8257c1.1719,0,2.1631.2539,2.9746.7622s1.4189,1.1821,1.8213,2.022.6035,1.7466.6035,2.7207v.9106h-10.0361v-1.5244h8.5537l-.4658.8257c0-.8047-.127-1.5034-.3809-2.0962s-.6426-1.0483-1.1641-1.3657c-.5225-.3174-1.1582-.4766-1.9062-.4766-.79,0-1.4541.1802-1.9902.54s-.9355.8574-1.1963,1.4927-.3916,1.3765-.3916,2.2231c0,.833.1338,1.5669.4023,2.2021.2676.6353.6777,1.1362,1.2285,1.5034.5498.3672,1.2412.5503,2.0742.5503.8613,0,1.5742-.1904,2.1387-.5718.5645-.3809.9102-.8467,1.0381-1.3975h1.9053c-.2402,1.1719-.8125,2.0894-1.7148,2.7524-.9043.6636-2.0264.9956-3.3672.9956-1.2559,0-2.3115-.2793-3.165-.8364Z"/></svg>