<?xml version="1.0" encoding="UTF-8"?><svg id="Vrstva_1" xmlns="http://www.w3.org/2000/svg" viewBox="0 0 330 200"><defs><style>.cls-1{fill:#b700ff;}</style></defs><circle class="cls-1" cx="217.2594" cy="142.547" r="3.0835"/><g><path d="m78.1065,61.8422c-.5664-.3696-.9834-.8496-1.25-1.439-.2666-.5898-.3994-1.2168-.3994-1.8813v-.2529c0-.6738.1348-1.3052.4062-1.895s.6836-1.0669,1.2363-1.4321c.5518-.3647,1.2256-.5474,2.0215-.5474.7764,0,1.4336.1685,1.9717.5054s.9414.7842,1.208,1.3408.4004,1.1582.4004,1.8037v.604h-6.6553v-1.0107h5.6719l-.3086.5474c0-.5337-.084-.9966-.2529-1.3896-.168-.3936-.4258-.6953-.7715-.9058-.3467-.2104-.7676-.3159-1.2637-.3159-.5244,0-.9648.1196-1.3203.3579-.3555.2388-.6201.5688-.793.9897-.1729.4214-.2598.9126-.2598,1.4741,0,.5522.0889,1.0391.2666,1.46.1777.4214.4492.7539.8145.9971s.8232.3647,1.376.3647c.5703,0,1.043-.126,1.418-.3789.374-.2524.6035-.5615.6875-.9268h1.2637c-.1592.7773-.5381,1.3853-1.1367,1.8252-.5996.4399-1.3438.6602-2.2324.6602-.833,0-1.5332-.1851-2.0986-.5547Z"/><path d="m87.0421,58.1992l-.042.2808-2.5127-3.8325h1.4883l1.8105,2.8218h.1973l1.7119-2.8218h1.3906l-2.373,3.7339.042-.2524,2.8076,4.0151h-1.4873l-2.1064-3.0464h-.1963l-2.0215,3.0464h-1.3896l2.6807-3.9448Z"/><path d="m92.0128,54.6474h2.498v1.0669h-2.498v-1.0669Zm.8701-1.4395c-.1504-.1543-.2246-.3579-.2246-.6104,0-.2529.0742-.4565.2246-.6108.1494-.1543.3691-.2314.6602-.2314.2891,0,.5098.0771.6592.2314s.2246.3579.2246.6108c0,.2524-.0752.4561-.2246.6104-.1494.1548-.3701.2319-.6592.2319-.291,0-.5107-.0771-.6602-.2319Zm.2803,1.4395h1.3477v7.4966h-1.3477v-7.4966Z"/><path d="m96.9815,61.7441c-.542-.4165-.8232-.9946-.8418-1.7339h1.2637c.0186.3369.1777.6226.4775.8564.2988.2339.7578.3506,1.375.3506.5811,0,1.0342-.1143,1.3623-.3438.3271-.2295.4912-.5264.4912-.8916,0-.3086-.1172-.5498-.3506-.7231-.2344-.1729-.6133-.2876-1.1377-.3438l-.8145-.084c-.749-.0845-1.3379-.3042-1.7686-.6602-.4307-.3555-.6455-.8423-.6455-1.46,0-.4678.1211-.875.3643-1.2212.2441-.3462.5811-.6108,1.0117-.7935.4297-.1826.9258-.2739,1.4873-.2739.8613,0,1.5488.1924,2.0645.5757.5146.3838.7812.936.7998,1.6567h-1.2637c-.0186-.3179-.1641-.5776-.4346-.7793-.2725-.2012-.6602-.3018-1.166-.3018-.5049,0-.8984.1055-1.1787.3159-.2812.2104-.4209.4844-.4209.8213,0,.29.0977.5171.2939.6807.1973.1641.5107.2695.9414.3159l.8135.0845c.833.084,1.4863.311,1.959.6807.4727.3701.709.873.709,1.5093,0,.459-.1338.8706-.4004,1.2354-.2666.3652-.6367.6484-1.1094.8496s-1.0078.3018-1.6074.3018c-.9736,0-1.7314-.2085-2.2744-.6245Z"/><path d="m102.9053,54.6474h5.167v1.0107h-5.167v-1.0107Zm2.541,7.3281c-.4023-.1685-.7109-.4468-.9268-.8354-.2148-.3882-.3223-.9053-.3223-1.5513v-7.2158h1.291v7.3843c0,.4028.1104.7139.3301.9336.2197.2202.5312.3301.9336.3301h1.3203v1.2075h-1.1514c-.5811,0-1.0723-.0845-1.4746-.2529Z"/><path d="m110.2061,61.498c-.4775-.5801-.7158-1.418-.7158-2.5127v-4.3521h1.3477v4.6187c0,.5898.1592,1.0508.4775,1.3828.3184.3325.749.4985,1.292.4985.5703,0,1.0312-.1826,1.3828-.5474.3506-.3652.5264-.8564.5264-1.4741v-4.4785h1.3477v7.5107h-1.0674v-3.2148h.1689c0,1.123-.2227,1.9771-.667,2.562s-1.1074.8774-1.9863.8774h-.0566c-.8887,0-1.5723-.29-2.0498-.8706Z"/><path d="m116.8321,63.8007h.7861c.3555,0,.6299-.0962.8213-.2881.1924-.1919.2881-.4653.2881-.8213v-8.0439h1.292v7.8477c0,.627-.0869,1.123-.2598,1.4878-.1738.3652-.4473.627-.8213.7866-.375.1587-.8799.2383-1.5166.2383h-.5898v-1.207Zm.7158-9.1533h2.4717v1.0669h-2.4717v-1.0669Zm.8428-1.5518c-.1494-.1543-.2246-.3579-.2246-.6104,0-.2529.0752-.4565.2246-.6108s.3691-.2314.6602-.2314c.29,0,.5098.0771.6592.2314.1504.1543.2246.3579.2246.6108,0,.2524-.0742.4561-.2246.6104-.1494.1548-.3691.2319-.6592.2319-.291,0-.5107-.0771-.6602-.2319Z"/><path d="m123.3673,61.8422c-.5664-.3696-.9834-.8496-1.25-1.439-.2666-.5898-.3994-1.2168-.3994-1.8813v-.2529c0-.6738.1348-1.3052.4062-1.895s.6836-1.0669,1.2363-1.4321c.5518-.3647,1.2256-.5474,2.0215-.5474.7764,0,1.4336.1685,1.9717.5054s.9414.7842,1.208,1.3408.4004,1.1582.4004,1.8037v.604h-6.6553v-1.0107h5.6719l-.3086.5474c0-.5337-.084-.9966-.2529-1.3896-.168-.3936-.4258-.6953-.7715-.9058-.3467-.2104-.7676-.3159-1.2637-.3159-.5244,0-.9648.1196-1.3203.3579-.3555.2388-.6201.5688-.793.9897-.1729.4214-.2598.9126-.2598,1.4741,0,.5522.0889,1.0391.2666,1.46.1777.4214.4492.7539.8145.9971s.8232.3647,1.376.3647c.5703,0,1.043-.126,1.418-.3789.374-.2524.6035-.5615.6875-.9268h1.2637c-.1592.7773-.5381,1.3853-1.1367,1.8252-.5996.4399-1.3438.6602-2.2324.6602-.833,0-1.5332-.1851-2.0986-.5547Z"/><path d="m130.0079,61.8984c-.1543-.1636-.2314-.3672-.2314-.6108,0-.2432.0771-.4468.2314-.6108.1543-.1636.3486-.2456.583-.2456.2334,0,.4277.082.582.2456.1543.1641.2324.3677.2324.6108,0,.2437-.0781.4473-.2324.6108s-.3486.2456-.582.2456c-.2344,0-.4287-.082-.583-.2456Z"/><path d="m133.1876,61.7441c-.542-.4165-.8232-.9946-.8418-1.7339h1.2637c.0186.3369.1777.6226.4775.8564.2988.2339.7578.3506,1.375.3506.5811,0,1.0342-.1143,1.3623-.3438.3271-.2295.4912-.5264.4912-.8916,0-.3086-.1172-.5498-.3506-.7231-.2344-.1729-.6133-.2876-1.1377-.3438l-.8145-.084c-.749-.0845-1.3379-.3042-1.7686-.6602-.4307-.3555-.6455-.8423-.6455-1.46,0-.4678.1211-.875.3643-1.2212.2441-.3462.5811-.6108,1.0117-.7935.4297-.1826.9258-.2739,1.4873-.2739.8613,0,1.5488.1924,2.0645.5757.5146.3838.7812.936.7998,1.6567h-1.2637c-.0186-.3179-.1641-.5776-.4346-.7793-.2725-.2012-.6602-.3018-1.166-.3018-.5049,0-.8984.1055-1.1787.3159-.2812.2104-.4209.4844-.4209.8213,0,.29.0977.5171.2939.6807.1973.1641.5107.2695.9414.3159l.8135.0845c.833.084,1.4863.311,1.959.6807.4727.3701.709.873.709,1.5093,0,.459-.1338.8706-.4004,1.2354-.2666.3652-.6367.6484-1.1094.8496s-1.0078.3018-1.6074.3018c-.9736,0-1.7314-.2085-2.2744-.6245Z"/><path d="m141.4981,61.8422c-.6084-.3696-1.0693-.8516-1.3828-1.4463-.3135-.5942-.4697-1.2188-.4697-1.874v-.2529c0-.6548.1611-1.2793.4844-1.874.3223-.5942.7881-1.0762,1.3965-1.4458s1.3193-.5547,2.1338-.5547,1.5254.1851,2.1338.5547,1.0742.8516,1.3975,1.4458c.3223.5947.4844,1.2192.4844,1.874v.2529c0,.6553-.1572,1.2798-.4707,1.874-.3135.5947-.7744,1.0767-1.3828,1.4463s-1.3291.5547-2.1621.5547-1.5537-.1851-2.1621-.5547Zm3.5869-1.0181c.4072-.2432.7158-.5776.9268-1.0034s.3154-.9009.3154-1.4253c0-.5332-.1094-1.0127-.3291-1.439-.2207-.4258-.5312-.7578-.9336-.9966-.4033-.2388-.8711-.3579-1.4043-.3579s-1.002.1191-1.4043.3579-.7129.5708-.9336.9966c-.2197.4263-.3291.9058-.3291,1.439,0,.5244.1045.9995.3154,1.4253s.5195.7603.9268,1.0034c.4072.2437.8818.3652,1.4248.3652s1.0176-.1216,1.4248-.3652Z"/><path d="m149.3751,54.6474h1.0664v3.0884h-.0557c0-1.0854.2383-1.8857.7158-2.4009.4775-.5146,1.2021-.772,2.1758-.772h.2529v1.2075h-.4775c-.749,0-1.3242.1987-1.7266.5967s-.6035.9707-.6035,1.7197v4.0571h-1.3477v-7.4966Z"/><path d="m154.8565,61.7016c-.4824-.4258-.7236-1.0269-.7236-1.8037,0-.7861.2646-1.3853.7939-1.7974.5283-.4116,1.2842-.6177,2.2666-.6177h2.0361v1.0112h-2.0918c-.5342,0-.9482.1284-1.2432.3857-.2939.2578-.4414.5967-.4414,1.0181,0,.4209.1475.7559.4414,1.0034.2949.2485.709.3721,1.2432.3721.5332,0,.9844-.1494,1.3545-.4492.3701-.2993.5684-.7861.5967-1.46l.3652.5337c-.0752.8047-.3301,1.4131-.7656,1.8247-.4346.4121-1.0459.6182-1.832.6182-.8516,0-1.5186-.2129-2-.6392Zm4.457-1.8037h-.2246v-2.5972c0-.5146-.1338-.9033-.4004-1.1655-.2666-.2617-.6572-.3931-1.1719-.3931-.8516,0-1.6895.0283-2.5127.0845v-1.1792c.6074-.0566,1.2959-.0845,2.0635-.0845,1.1699,0,2.0146.2153,2.5342.646.5195.4302.7793,1.1606.7793,2.1899v4.7451h-1.0674v-2.2461Z"/><path d="m162.1007,61.8984c-.1543-.1636-.2314-.3672-.2314-.6108,0-.2432.0771-.4468.2314-.6108.1543-.1636.3486-.2456.583-.2456.2334,0,.4277.082.582.2456.1543.1641.2324.3677.2324.6108,0,.2437-.0781.4473-.2324.6108s-.3486.2456-.582.2456c-.2344,0-.4287-.082-.583-.2456Z"/><path d="m167.4005,61.9897c-.4775-.2715-.8564-.6689-1.1367-1.1934-.2812-.5239-.4355-1.1465-.4639-1.8672h.3652v3.2148h-1.0664v-10.2485h1.3477v4.9839l-.4775,1.0249c.0283-.7861.1865-1.4414.4775-1.9653.29-.5244.6689-.9126,1.1367-1.1655.4678-.2524.9971-.3789,1.5869-.3789.7012,0,1.3242.1709,1.8672.5122.542.3418.9639.8076,1.2627,1.397.2998.5898.4492,1.2354.4492,1.9375v.2529c0,.7109-.1543,1.3638-.4629,1.958-.3086.5947-.7441,1.0674-1.3057,1.418-.5615.3511-1.2031.5269-1.9229.5269-.6279,0-1.1797-.1362-1.6572-.4072Zm2.8154-1.1304c.3789-.2388.6709-.5732.877-1.0039.2061-.4302.3086-.9263.3086-1.4878,0-.5522-.1045-1.041-.3154-1.4673-.2109-.4258-.5029-.7534-.8779-.9824-.374-.2295-.8096-.3442-1.3057-.3442-.458,0-.8799.103-1.2627.3091-.3838.2061-.6885.5005-.9131.8843s-.3369.833-.3369,1.3477v.646c0,.4961.1143.9312.3438,1.3057s.5361.6597.9199.8564c.3838.1963.7998.2944,1.249.2944.4961,0,.9336-.1191,1.3135-.3579Z"/><path d="m174.5255,61.7016c-.4824-.4258-.7236-1.0269-.7236-1.8037,0-.7861.2646-1.3853.7939-1.7974.5283-.4116,1.2842-.6177,2.2666-.6177h2.0361v1.0112h-2.0918c-.5342,0-.9482.1284-1.2432.3857-.2939.2578-.4414.5967-.4414,1.0181,0,.4209.1475.7559.4414,1.0034.2949.2485.709.3721,1.2432.3721.5332,0,.9844-.1494,1.3545-.4492.3701-.2993.5684-.7861.5967-1.46l.3652.5337c-.0752.8047-.3301,1.4131-.7656,1.8247-.4346.4121-1.0459.6182-1.832.6182-.8516,0-1.5186-.2129-2-.6392Zm4.457-1.8037h-.2246v-2.5972c0-.5146-.1338-.9033-.4004-1.1655-.2666-.2617-.6572-.3931-1.1719-.3931-.8516,0-1.6895.0283-2.5127.0845v-1.1792c.6074-.0566,1.2959-.0845,2.0635-.0845,1.1699,0,2.0146.2153,2.5342.646.5195.4302.7793,1.1606.7793,2.1899v4.7451h-1.0674v-2.2461Z"/><path d="m182.1973,54.6474h1.0664v3.0884h-.0557c0-1.0854.2383-1.8857.7158-2.4009.4775-.5146,1.2021-.772,2.1758-.772h.2529v1.2075h-.4775c-.749,0-1.3242.1987-1.7266.5967s-.6035.9707-.6035,1.7197v4.0571h-1.3477v-7.4966Z"/><path d="m188.6339,61.8422c-.5664-.3696-.9834-.8496-1.25-1.439-.2666-.5898-.3994-1.2168-.3994-1.8813v-.2529c0-.6738.1348-1.3052.4062-1.895s.6836-1.0669,1.2363-1.4321c.5518-.3647,1.2256-.5474,2.0215-.5474.7764,0,1.4336.1685,1.9717.5054s.9414.7842,1.208,1.3408.4004,1.1582.4004,1.8037v.604h-6.6553v-1.0107h5.6719l-.3086.5474c0-.5337-.084-.9966-.2529-1.3896-.168-.3936-.4258-.6953-.7715-.9058-.3467-.2104-.7676-.3159-1.2637-.3159-.5244,0-.9648.1196-1.3203.3579-.3555.2388-.6201.5688-.793.9897-.1729.4214-.2598.9126-.2598,1.4741,0,.5522.0889,1.0391.2666,1.46.1777.4214.4492.7539.8145.9971s.8232.3647,1.376.3647c.5703,0,1.043-.126,1.418-.3789.374-.2524.6035-.5615.6875-.9268h1.2637c-.1592.7773-.5381,1.3853-1.1367,1.8252-.5996.4399-1.3438.6602-2.2324.6602-.833,0-1.5332-.1851-2.0986-.5547Z"/><path d="m194.8038,54.6474h1.4043l2.499,7.4966h-1.3486l-2.5547-7.4966Zm2.8916,6.4297h1.6289v1.0669h-1.6289v-1.0669Zm2.8223-6.4297h1.3193l-2.2178,7.4966h-1.2773l2.1758-7.4966Z"/><path d="m203.2843,54.6474h1.0664v3.2148h-.168c0-1.123.2314-1.9771.6943-2.5625.4639-.5845,1.1582-.8774,2.085-.8774h.0566c.9258,0,1.6211.293,2.084.8774.4639.5854.6953,1.4395.6953,2.5625v4.2817h-1.3477v-4.5625c0-.5898-.166-1.0576-.498-1.4043-.333-.3457-.7793-.519-1.3408-.519-.5898,0-1.0674.1846-1.4326.5542-.3643.3701-.5469.8545-.5469,1.4531v4.4785h-1.3477v-7.4966Z"/><path d="m212.0235,61.7016c-.4824-.4258-.7236-1.0269-.7236-1.8037,0-.7861.2646-1.3853.7939-1.7974.5283-.4116,1.2842-.6177,2.2666-.6177h2.0361v1.0112h-2.0918c-.5342,0-.9482.1284-1.2432.3857-.2939.2578-.4414.5967-.4414,1.0181,0,.4209.1475.7559.4414,1.0034.2949.2485.709.3721,1.2432.3721.5332,0,.9844-.1494,1.3545-.4492.3701-.2993.5684-.7861.5967-1.46l.3652.5337c-.0752.8047-.3301,1.4131-.7656,1.8247-.4346.4121-1.0459.6182-1.832.6182-.8516,0-1.5186-.2129-2-.6392Zm4.457-1.8037h-.2246v-2.5972c0-.5146-.1338-.9033-.4004-1.1655-.2666-.2617-.6572-.3931-1.1719-.3931-.8516,0-1.6895.0283-2.5127.0845v-1.1792c.6074-.0566,1.2959-.0845,2.0635-.0845,1.1699,0,2.0146.2153,2.5342.646.5195.4302.7793,1.1606.7793,2.1899v4.7451h-1.0674v-2.2461Z"/><path d="m79.8116,68.7421h2.3311l3.8047,10.2485h-1.418l-3.4395-9.3501.6738.3369h-1.6572l.7158-.3369-3.3271,9.3501h-1.375l3.6914-10.2485Zm-1.0244,5.9526h4.4219l.4639,1.2354h-5.3486l.4629-1.2354Z"/><path d="m90.2423,68.7421h2.3311l3.8047,10.2485h-1.418l-3.4395-9.3501.6738.3369h-1.6572l.7158-.3369-3.3271,9.3501h-1.375l3.6914-10.2485Zm-1.0244,5.9526h4.4219l.4639,1.2354h-5.3486l.4629-1.2354Zm3.1592-9.0693h1.5723l-2.1201,2.3027h-1.2354l1.7832-2.3027Z"/><path d="m97.9366,68.686h1.376v10.3608h-1.376v-10.3608Zm1.0947,4.5625h2.4854c.5615,0,.9844-.1494,1.2705-.4492.2852-.2993.4277-.7065.4277-1.2212s-.1426-.9243-.4277-1.2285c-.2861-.3037-.709-.4561-1.2705-.4561h-2.4854v-1.2075h2.2461c1.1143,0,1.9492.2339,2.5059.7021.5576.4678.8359,1.1509.8359,2.0493v.1968c0,.8984-.293,1.542-.8779,1.9302-.585.3887-1.4062.583-2.4639.583h-2.2461v-.8989Zm0,4.5908h2.8643c.5518,0,.9805-.1543,1.2842-.4629.3047-.3091.4561-.7305.4561-1.2637,0-.543-.1494-.9639-.4492-1.2637-.2988-.2993-.7295-.4492-1.291-.4492h-2.8643v-.8984h2.668c1.0479,0,1.8672.1987,2.4561.5967.5898.3979.8848,1.0459.8848,1.9443v.1968c0,.5991-.124,1.1089-.3721,1.5303-.248.4209-.6201.7393-1.1162.9546s-1.1133.3228-1.8525.3228h-2.668v-1.2075Z"/><path d="m108.627,78.4501c-.7725-.5288-1.3369-1.1953-1.6924-2.0005-.3555-.8047-.5332-1.6235-.5332-2.457v-.3086c0-.8799.1797-1.7173.541-2.5132.3594-.7954.9189-1.4458,1.6768-1.9512.7588-.5054,1.708-.7583,2.8506-.7583.8984,0,1.6777.1567,2.3369.4702.6602.314,1.1816.7583,1.5654,1.334s.623,1.252.7158,2.0283h-1.4033c-.0752-.5615-.2598-1.0337-.5547-1.418-.2949-.3833-.6689-.6714-1.123-.8633-.4541-.1914-.9668-.2876-1.5371-.2876-.7861,0-1.4561.1802-2.0078.5405-.5527.3604-.9668.8516-1.2422,1.4741-.2764.6226-.4141,1.3267-.4141,2.1128,0,.7578.1426,1.4482.4277,2.0708s.709,1.1206,1.2705,1.4951,1.2451.5615,2.0498.5615c.8984,0,1.6426-.2222,2.2324-.667.5898-.4443.9492-1.0786,1.0811-1.9023h1.4033c-.0938.7212-.334,1.3716-.7227,1.9517s-.9219,1.0386-1.6006,1.3755c-.6787.3374-1.4766.5059-2.3936.5059-1.1797,0-2.1553-.2646-2.9268-.7935Z"/><path d="m119.4649,78.4501c-.7725-.5288-1.3369-1.1953-1.6924-2.0005-.3555-.8047-.5332-1.6235-.5332-2.457v-.3086c0-.8799.1797-1.7173.541-2.5132.3594-.7954.9189-1.4458,1.6768-1.9512.7588-.5054,1.708-.7583,2.8506-.7583.8984,0,1.6777.1567,2.3369.4702.6602.314,1.1816.7583,1.5654,1.334s.623,1.252.7158,2.0283h-1.4033c-.0752-.5615-.2598-1.0337-.5547-1.418-.2949-.3833-.6689-.6714-1.123-.8633-.4541-.1914-.9668-.2876-1.5371-.2876-.7861,0-1.4561.1802-2.0078.5405-.5527.3604-.9668.8516-1.2422,1.4741-.2764.6226-.4141,1.3267-.4141,2.1128,0,.7578.1426,1.4482.4277,2.0708s.709,1.1206,1.2705,1.4951,1.2451.5615,2.0498.5615c.8984,0,1.6426-.2222,2.2324-.667.5898-.4443.9492-1.0786,1.0811-1.9023h1.4033c-.0938.7212-.334,1.3716-.7227,1.9517s-.9219,1.0386-1.6006,1.3755c-.6787.3374-1.4766.5059-2.3936.5059-1.1797,0-2.1553-.2646-2.9268-.7935Zm.2031-12.8247h1.25l1.2773,1.6284h.2246l1.1367-1.6284h1.2217l-1.6992,2.3027h-1.5723l-1.8389-2.3027Z"/><path d="m128.7803,68.686h1.376v10.3608h-1.376v-10.3608Zm1.0947,9.0972h2.5557c.7949,0,1.4902-.1704,2.084-.5122.5947-.3418,1.0508-.812,1.3691-1.4111.3184-.5986.4775-1.2681.4775-2.0073,0-.7676-.1572-1.4463-.4707-2.0356-.3135-.5898-.7676-1.0483-1.3613-1.376-.5947-.3276-1.2939-.4912-2.0986-.4912h-2.5557v-1.2637h2.415c1.1699,0,2.1689.2388,2.9971.7158.8281.4775,1.4482,1.0977,1.8604,1.8604.4121.7632.6172,1.5747.6172,2.436v.3086c0,.8423-.208,1.6494-.624,2.4219-.417.772-1.0371,1.4014-1.8604,1.8882-.8242.4868-1.8203.73-2.9902.73h-2.415v-1.2637Z"/><path d="m139.5616,68.7421h1.376v10.2485h-1.376v-10.2485Zm1.0947,0h4.8291v1.2354h-4.8291v-1.2354Zm0,4.4224h4.5352v1.2354h-4.5352v-1.2354Zm0,4.5908h4.9697v1.2354h-4.9697v-1.2354Z"/><path d="m147.6622,68.7421h1.376v10.2485h-1.376v-10.2485Zm1.0947,0h4.8291v1.2354h-4.8291v-1.2354Zm0,4.4224h4.5352v1.2354h-4.5352v-1.2354Zm0,4.5908h4.9697v1.2354h-4.9697v-1.2354Zm2.9199-12.1299h1.5723l-2.1191,2.3027h-1.2354l1.7822-2.3027Z"/><path d="m155.7628,68.7421h1.376v10.2485h-1.376v-10.2485Zm.4072-3.1167h1.249l1.2773,1.6284h.2246l1.1377-1.6284h1.2217l-1.6992,2.3027h-1.5723l-1.8389-2.3027Zm.6875,3.1167h4.8291v1.2354h-4.8291v-1.2354Zm0,4.4224h4.5352v1.2354h-4.5352v-1.2354Zm0,4.5908h4.9697v1.2354h-4.9697v-1.2354Z"/><path d="m163.8624,68.7421h1.376v10.2485h-1.376v-10.2485Zm1.0947,0h4.6328v1.2354h-4.6328v-1.2354Zm0,4.4502l4.3945-.0137v1.2354l-4.3945.0142v-1.2358Z"/><path d="m173.1641,78.5556c-.8008-.4585-1.4209-1.0903-1.8604-1.8955-.4404-.8047-.6602-1.7173-.6602-2.7373v-.3091c0-.8892.2061-1.729.6182-2.52.4111-.7905,1.001-1.4272,1.7686-1.9092s1.6562-.7231,2.667-.7231c.8428,0,1.5986.1616,2.2676.4844s1.2051.7744,1.6074,1.355c.4023.5801.6367,1.2446.7021,1.9932h-1.4043c-.0938-.8232-.4395-1.4575-1.0381-1.9023-.5996-.4443-1.3105-.6665-2.1348-.6665-.7109,0-1.3428.1685-1.8945.5054-.5527.3369-.9834.812-1.292,1.4248-.3086.6133-.4629,1.3223-.4629,2.127,0,.9175.1631,1.6919.4912,2.3232.3271.6318.7832,1.1069,1.3682,1.4253s1.2568.4771,2.0146.4771c.7773,0,1.4697-.1562,2.0781-.4702.6084-.3135,1.0713-.7368,1.3896-1.2705l-.5049,1.6709v-3.0469h1.291v2.4429c-.458.6084-1.0508,1.0791-1.7754,1.4111-.7256.332-1.5518.4985-2.4785.4985-1.0381,0-1.958-.2295-2.7578-.688Zm2.3936-4.5347h5.4893v1.1509h-5.4893v-1.1509Z"/><path d="m182.6885,68.7421h1.376v10.2485h-1.376v-10.2485Zm1.0947,4.5347h6.1211v1.2354h-6.1211v-1.2354Zm5.8408-4.5347h1.375v10.2485h-1.375v-10.2485Z"/><path d="m193.6817,68.7421h1.375v10.2485h-1.375v-10.2485Z"/><path d="m199.4229,65.6254h1.5723l-2.1201,2.3027h-1.2354l1.7832-2.3027Zm-1.6562,3.1167h1.375v10.2485h-1.375v-10.2485Z"/><path d="m202.6026,78.8154c-.5391-.2856-.9619-.709-1.2705-1.2705-.3096-.562-.4639-1.2402-.4639-2.0356v-.3511h1.376v.6035c0,.6929.2012,1.2354.6035,1.6284s.9316.5898,1.5869.5898c.6543,0,1.1836-.1968,1.5859-.5898s.6035-.9355.6035-1.6284v-6.0649h1.376v5.8125c0,.8047-.1543,1.4858-.4629,2.0425-.3086.5571-.7324.978-1.2705,1.2637-.5381.2852-1.1494.4282-1.832.4282-.6836,0-1.2939-.1431-1.832-.4282Zm-.3867-10.0732h5.7842v1.2354h-5.7842v-1.2354Z"/><path d="m210.4854,68.7421h1.376v10.2485h-1.376v-10.2485Zm2.2881,5.4614h-1.502l4.7588-5.4614h1.5723l-4.3232,4.9419-.127-.9688,5.5039,6.2754h-1.7129l-4.1699-4.7871Z"/><path d="m219.6807,68.7421h1.376v10.2485h-1.376v-10.2485Zm1.0947,9.0132h4.6895v1.2354h-4.6895v-1.2354Z"/><path d="m226.9952,68.7421h1.8252l3.0322,6.8369h.2246l3.0186-6.8369h1.8389v10.2485h-1.376v-8.7461l.0986.0278-2.9062,6.5981h-1.6846l-2.9199-6.5981.1123-.0278v8.7461h-1.2637v-10.2485Z"/><path d="m239.588,68.7421h2.2461l5.208,9.0132h.4502l-.2812.2524v-9.2656h1.3193v10.2485h-2.2744l-5.208-9.0132h-.4492l.2803-.2524v9.2656h-1.291v-10.2485Z"/><path d="m78.8858,95.2827c-.7959-.5381-1.3906-1.2119-1.7832-2.0215-.3936-.8096-.5898-1.6167-.5898-2.4219v-.3086c0-.8613.1992-1.6919.5967-2.4922s.9971-1.4551,1.7969-1.9653c.8008-.5098,1.7666-.7651,2.8994-.7651,1.1318,0,2.0986.2554,2.8984.7651.8008.5103,1.3994,1.165,1.7979,1.9653.3975.8003.5967,1.6309.5967,2.4922v.3086c0,.8052-.1973,1.6123-.5898,2.4219-.3936.8096-.9883,1.4834-1.7832,2.0215-.7959.5386-1.7686.8076-2.9199.8076s-2.125-.269-2.9199-.8076Zm4.9697-1.0249c.5889-.3789,1.043-.8843,1.3613-1.5161s.4775-1.3125.4775-2.0425c0-.7583-.1592-1.4531-.4775-2.085s-.7725-1.1299-1.3613-1.4951c-.5898-.3647-1.2734-.5474-2.0498-.5474-.7773,0-1.46.1826-2.0498.5474-.5898.3652-1.0439.8633-1.3623,1.4951s-.4766,1.3267-.4766,2.085c0,.73.1582,1.4106.4766,2.0425s.7725,1.1372,1.3623,1.5161c.5898.3794,1.2725.5688,2.0498.5688.7764,0,1.46-.1895,2.0498-.5688Z"/><path d="m89.0352,85.5327h1.376v10.3047h-1.376v-10.3047Zm1.0947,5.5312h2.2881c.7021,0,1.2402-.2012,1.6152-.6035.374-.4023.5615-.9219.5615-1.5581,0-.646-.1875-1.1675-.5615-1.5654-.375-.3979-.9131-.5967-1.6152-.5967h-2.2881v-1.2075h2.0361c.8232,0,1.5225.1313,2.0986.3931.5752.2622,1.0078.6387,1.2988,1.1304.29.4912.4346,1.0693.4346,1.7339v.2246c0,.6646-.1445,1.2402-.4346,1.7266-.291.4868-.7236.8633-1.2988,1.1304-.5762.2666-1.2754.3999-2.0986.3999h-2.0361v-1.2075Z"/><path d="m99.3682,95.2827c-.7959-.5381-1.3906-1.2119-1.7832-2.0215-.3936-.8096-.5898-1.6167-.5898-2.4219v-.3086c0-.8613.1992-1.6919.5967-2.4922s.9971-1.4551,1.7969-1.9653c.8008-.5098,1.7666-.7651,2.8994-.7651,1.1318,0,2.0986.2554,2.8984.7651.8008.5103,1.3994,1.165,1.7979,1.9653.3975.8003.5967,1.6309.5967,2.4922v.3086c0,.8052-.1973,1.6123-.5898,2.4219-.3936.8096-.9883,1.4834-1.7832,2.0215-.7959.5386-1.7686.8076-2.9199.8076s-2.125-.269-2.9199-.8076Zm4.9697-1.0249c.5889-.3789,1.043-.8843,1.3613-1.5161s.4775-1.3125.4775-2.0425c0-.7583-.1592-1.4531-.4775-2.085s-.7725-1.1299-1.3613-1.4951c-.5898-.3647-1.2734-.5474-2.0498-.5474-.7773,0-1.46.1826-2.0498.5474-.5898.3652-1.0439.8633-1.3623,1.4951s-.4766,1.3267-.4766,2.085c0,.73.1582,1.4106.4766,2.0425s.7725,1.1372,1.3623,1.5161c.5898.3794,1.2725.5688,2.0498.5688.7764,0,1.46-.1895,2.0498-.5688Zm-1.5098,4.3174c-.3691-.1499-.6523-.4028-.8486-.7583-.1973-.356-.2949-.8379-.2949-1.4458v-1.2358h1.2627v1.4463c0,.3086.0918.5522.2744.73s.4229.2666.7227.2666h1.7412v1.2217h-1.502c-.5342,0-.9854-.0752-1.3555-.2246Z"/><path d="m109.5186,85.5327h1.376v10.3047h-1.376v-10.3047Zm.8564,5.377h2.751c.627,0,1.1309-.1938,1.5098-.5825.3789-.3882.5684-.8867.5684-1.4951,0-.6177-.1895-1.1206-.5684-1.5093-.3789-.3882-.8828-.5825-1.5098-.5825h-2.751v-1.2075h2.499c1.1699,0,2.085.2622,2.7441.7861.6602.5244.9902,1.3247.9902,2.4009v.2246c0,1.0762-.333,1.8765-.9971,2.4004-.665.5244-1.5771.7866-2.7373.7866h-2.499v-1.2217Zm2.0771.3652h1.6152l3.4531,4.5625h-1.6709l-3.3975-4.5625Z"/><path d="m119.0225,85.5327h1.376v10.3047h-1.376v-10.3047Zm.6172-3.0605h1.25l1.2773,1.6284h.2246l1.1377-1.6284h1.2207l-1.6982,2.3027h-1.5723l-1.8398-2.3027Zm.2393,8.4375h2.751c.627,0,1.1309-.1938,1.5098-.5825.3789-.3882.5684-.8867.5684-1.4951,0-.6177-.1895-1.1206-.5684-1.5093-.3789-.3882-.8828-.5825-1.5098-.5825h-2.751v-1.2075h2.499c1.1699,0,2.085.2622,2.7441.7861.6602.5244.9902,1.3247.9902,2.4009v.2246c0,1.0762-.333,1.8765-.9971,2.4004-.665.5244-1.5771.7866-2.7373.7866h-2.499v-1.2217Zm2.0771.3652h1.6152l3.4531,4.5625h-1.6709l-3.3975-4.5625Z"/><path d="m129.5801,95.6689c-.6084-.2808-1.0713-.667-1.3896-1.1582s-.4775-1.0552-.4775-1.6919h1.376c0,.543.2129,1.0132.6387,1.4111s1.0977.5967,2.0146.5967c.8799,0,1.5439-.1846,1.9932-.5547.4492-.3696.6738-.8354.6738-1.397,0-.4302-.1846-.7812-.5537-1.0527-.3701-.2715-.9014-.4399-1.5938-.5054l-1.1377-.0981c-.917-.0752-1.6445-.3584-2.1826-.8496s-.8076-1.1299-.8076-1.916c0-.6182.1523-1.1655.457-1.6426.3037-.4775.7295-.8472,1.2773-1.1094.5469-.2617,1.1768-.3931,1.8877-.3931.7119,0,1.3389.1313,1.8818.3931.542.2622.9658.6343,1.2705,1.1162.3037.4819.4561,1.0415.4561,1.6777h-1.376c0-.5337-.1895-.9873-.5684-1.3618s-.9336-.5615-1.6641-.5615c-.7207,0-1.2754.1826-1.6631.5474-.3887.3652-.583.8096-.583,1.334,0,.3931.1494.73.4492,1.0107s.7256.4443,1.2773.4912l1.1377.0981c1.0576.0938,1.8906.3838,2.499.8706s.9121,1.1372.9121,1.9512c0,.6274-.168,1.1841-.5049,1.6709s-.8125.8657-1.4248,1.1372c-.6133.271-1.3184.4072-2.1133.4072-.833,0-1.5537-.1406-2.1621-.4214Z"/><path d="m138.9298,95.6689c-.6084-.2808-1.0713-.667-1.3896-1.1582s-.4775-1.0552-.4775-1.6919h1.376c0,.543.2129,1.0132.6387,1.4111s1.0977.5967,2.0146.5967c.8799,0,1.5439-.1846,1.9932-.5547.4492-.3696.6738-.8354.6738-1.397,0-.4302-.1846-.7812-.5537-1.0527-.3701-.2715-.9014-.4399-1.5938-.5054l-1.1377-.0981c-.917-.0752-1.6445-.3584-2.1826-.8496s-.8076-1.1299-.8076-1.916c0-.6182.1523-1.1655.457-1.6426.3037-.4775.7295-.8472,1.2773-1.1094.5469-.2617,1.1768-.3931,1.8877-.3931.7119,0,1.3389.1313,1.8818.3931.542.2622.9658.6343,1.2705,1.1162.3037.4819.4561,1.0415.4561,1.6777h-1.376c0-.5337-.1895-.9873-.5684-1.3618s-.9336-.5615-1.6641-.5615c-.7207,0-1.2754.1826-1.6631.5474-.3887.3652-.583.8096-.583,1.334,0,.3931.1494.73.4492,1.0107s.7256.4443,1.2773.4912l1.1377.0981c1.0576.0938,1.8906.3838,2.499.8706s.9121,1.1372.9121,1.9512c0,.6274-.168,1.1841-.5049,1.6709s-.8125.8657-1.4248,1.1372c-.6133.271-1.3184.4072-2.1133.4072-.833,0-1.5537-.1406-2.1621-.4214Zm-.4629-13.1968h1.249l1.2773,1.6284h.2246l1.1377-1.6284h1.2207l-1.6982,2.3027h-1.5723l-1.8389-2.3027Z"/><path d="m145.7393,85.5888h7.6094v1.2354h-7.6094v-1.2354Zm3.1162.9546h1.376v9.2939h-1.376v-9.2939Z"/><path d="m155.7559,94.9179c-.7344-.7812-1.1016-1.832-1.1016-3.1519v-6.1772h1.375v6.3457c0,.8799.2529,1.582.7588,2.106.5049.5239,1.2119.7861,2.1191.7861.9082,0,1.6123-.2598,2.1133-.7793s.751-1.2236.751-2.1128v-6.3457h1.376v6.1772c0,1.3291-.3652,2.3818-1.0947,3.1587-.7305.7769-1.7783,1.1655-3.1455,1.1655-1.3662,0-2.417-.3911-3.1514-1.1724Z"/><path d="m166.5089,94.9179c-.7344-.7812-1.1016-1.832-1.1016-3.1519v-6.1772h1.375v6.3457c0,.8799.2529,1.582.7588,2.106.5049.5239,1.2119.7861,2.1191.7861.9082,0,1.6123-.2598,2.1133-.7793s.751-1.2236.751-2.1128v-6.3457h1.376v6.1772c0,1.3291-.3652,2.3818-1.0947,3.1587-.7305.7769-1.7783,1.1655-3.1455,1.1655-1.3662,0-2.417-.3911-3.1514-1.1724Zm4.1201-12.4458h1.5732l-2.1201,2.3027h-1.2354l1.7822-2.3027Z"/><path d="m177.2628,94.9179c-.7344-.7812-1.1016-1.832-1.1016-3.1519v-6.1772h1.375v6.3457c0,.8799.2529,1.582.7588,2.106.5049.5239,1.2119.7861,2.1191.7861.9082,0,1.6123-.2598,2.1133-.7793s.751-1.2236.751-2.1128v-6.3457h1.376v6.1772c0,1.3291-.3652,2.3818-1.0947,3.1587-.7305.7769-1.7783,1.1655-3.1455,1.1655-1.3662,0-2.417-.3911-3.1514-1.1724Zm1.9443-10.2979c-.3086-.29-.4629-.6504-.4629-1.0811,0-.4302.1543-.7905.4629-1.0811.3086-.2896.7109-.4351,1.207-.4351s.8994.1455,1.208.4351c.3086.2905.4629.6509.4629,1.0811,0,.4307-.1543.791-.4629,1.0811-.3086.2905-.7119.4355-1.208.4355s-.8984-.145-1.207-.4355Zm1.8535-.5122c.1592-.145.2383-.3345.2383-.5688,0-.2339-.0791-.4233-.2383-.5684s-.375-.2178-.6465-.2178-.4863.0728-.6455.2178-.2383.3345-.2383.5684c0,.2344.0791.4238.2383.5688s.374.2173.6455.2173.4873-.0723.6465-.2173Z"/><path d="m185.9317,85.5888h1.418l3.1875,9.3501-.6738-.3369h1.6846l-.7168.3369,2.9346-9.3501h1.376l-3.2988,10.2485h-2.3594l-3.5518-10.2485Z"/><path d="m195.6602,85.5888h1.418l2.4014,9.3501-.6602-.3369h1.6709l-.7305.3369,1.9512-8.9287h1.292l-2.2324,9.8271h-2.3447l-2.7656-10.2485Zm6.4727.4214h1.333l2.2041,8.9287-.7012-.3369h1.6846l-.7168.3369,2.1484-9.3501h1.376l-2.5127,10.2485h-2.3594l-2.4561-9.8271Z"/><path d="m213.63,90.3623v.2524l-3.4814-5.0259h1.5586l2.6816,3.9312h.2246l2.7236-3.9312h1.4873l-3.5791,5.082-.0146-.2524,3.875,5.4189h-1.5586l-3.0605-4.3101h-.2246l-2.9619,4.3101h-1.4883l3.8184-5.4751Z"/><path d="m219.3165,85.5888h1.4316l2.752,5.3628-.5332-.1543h1.6562l-.5615.1543,2.583-5.3628h1.3477l-3.0605,6.2612h-2.3584l-3.2568-6.2612Zm3.7627,5.9805h1.3477v4.2681h-1.3477v-4.2681Z"/><path d="m228.1466,85.5888h1.4316l2.752,5.3628-.5332-.1543h1.6562l-.5615.1543,2.583-5.3628h1.3477l-3.0605,6.2612h-2.3584l-3.2568-6.2612Zm5.2783-3.1167h1.5723l-2.1191,2.3027h-1.2354l1.7822-2.3027Zm-1.5156,9.0972h1.3477v4.2681h-1.3477v-4.2681Z"/><path d="m237.4259,94.1528l6.3174-7.3984-.0137.3369-.3652-.5054.2393.1543h-6.0508v-1.1514h7.3564v1.6846l-6.332,7.3989-.0137-.3931.4492.6313-.3516-.2246h6.4307v1.1514h-7.666v-1.6846Z"/><path d="m246.2852,94.1528l6.3174-7.3984-.0137.3369-.3652-.5054.2393.1543h-6.0508v-1.1514h7.3564v1.6846l-6.332,7.3989-.0137-.3931.4492.6313-.3516-.2246h6.4307v1.1514h-7.666v-1.6846Zm1.0537-11.6807h1.249l1.2773,1.6284h.2246l1.1377-1.6284h1.2207l-1.6982,2.3027h-1.5723l-1.8389-2.3027Z"/><path d="m77.0958,112.2421c-.4824-.4258-.7236-1.0269-.7236-1.8037,0-.7861.2646-1.3853.7939-1.7974.5283-.4116,1.2842-.6177,2.2666-.6177h2.0361v1.0112h-2.0918c-.5342,0-.9482.1284-1.2432.3857-.2939.2578-.4414.5967-.4414,1.0181,0,.4209.1475.7559.4414,1.0034.2949.2485.709.3721,1.2432.3721.5332,0,.9844-.1494,1.3545-.4492.3701-.2993.5684-.7861.5967-1.46l.3652.5337c-.0752.8047-.3301,1.4131-.7656,1.8247-.4346.4121-1.0459.6182-1.832.6182-.8516,0-1.5186-.2129-2-.6392Zm4.457-1.8037h-.2246v-2.5972c0-.5146-.1338-.9033-.4004-1.1655-.2666-.2617-.6572-.3931-1.1719-.3931-.8516,0-1.6895.0283-2.5127.0845v-1.1792c.6074-.0566,1.2959-.0845,2.0635-.0845,1.1699,0,2.0146.2153,2.5342.646.5195.4302.7793,1.1606.7793,2.1899v4.7451h-1.0674v-2.2461Z"/><path d="m84.8448,112.2421c-.4824-.4258-.7236-1.0269-.7236-1.8037,0-.7861.2646-1.3853.7939-1.7974.5283-.4116,1.2842-.6177,2.2666-.6177h2.0361v1.0112h-2.0918c-.5342,0-.9482.1284-1.2432.3857-.2939.2578-.4414.5967-.4414,1.0181,0,.4209.1475.7559.4414,1.0034.2949.2485.709.3721,1.2432.3721.5332,0,.9844-.1494,1.3545-.4492.3701-.2993.5684-.7861.5967-1.46l.3652.5337c-.0752.8047-.3301,1.4131-.7656,1.8247-.4346.4121-1.0459.6182-1.832.6182-.8516,0-1.5186-.2129-2-.6392Zm4.457-1.8037h-.2246v-2.5972c0-.5146-.1338-.9033-.4004-1.1655-.2666-.2617-.6572-.3931-1.1719-.3931-.8516,0-1.6895.0283-2.5127.0845v-1.1792c.6074-.0566,1.2959-.0845,2.0635-.0845,1.1699,0,2.0146.2153,2.5342.646.5195.4302.7793,1.1606.7793,2.1899v4.7451h-1.0674v-2.2461Zm-1.3613-9.1255h1.418l-1.5586,2.7798h-1.0957l1.2363-2.7798Z"/><path d="m94.8194,112.5302c-.4775-.2715-.8564-.6689-1.1367-1.1934-.2812-.5239-.4355-1.1465-.4639-1.8672h.3652v3.2148h-1.0664v-10.2485h1.3477v4.9839l-.4775,1.0249c.0283-.7861.1865-1.4414.4775-1.9653.29-.5244.6689-.9126,1.1367-1.1655.4678-.2524.9971-.3789,1.5869-.3789.7012,0,1.3242.1709,1.8672.5122.542.3418.9639.8076,1.2627,1.397.2998.5898.4492,1.2354.4492,1.9375v.2529c0,.7109-.1543,1.3638-.4629,1.958-.3086.5947-.7441,1.0674-1.3057,1.418-.5615.3511-1.2031.5269-1.9229.5269-.6279,0-1.1797-.1362-1.6572-.4072Zm2.8154-1.1304c.3789-.2388.6709-.5732.877-1.0039.2061-.4302.3086-.9263.3086-1.4878,0-.5522-.1045-1.041-.3154-1.4673-.2109-.4258-.5029-.7534-.8779-.9824-.374-.2295-.8096-.3442-1.3057-.3442-.458,0-.8799.103-1.2627.3091-.3838.2061-.6885.5005-.9131.8843s-.3369.833-.3369,1.3477v.646c0,.4961.1143.9312.3438,1.3057s.5361.6597.9199.8564c.3838.1963.7998.2944,1.249.2944.4961,0,.9336-.1191,1.3135-.3579Z"/><path d="m103.004,112.3754c-.5713-.374-.9971-.8584-1.2773-1.4526-.2812-.5942-.4209-1.2144-.4209-1.8604v-.2529c0-.6548.1426-1.2793.4277-1.874.2852-.5942.7109-1.0762,1.2773-1.4458s1.2471-.5547,2.043-.5547c.627,0,1.1904.1172,1.6914.3511s.9033.5664,1.208.9966c.3037.4307.4746.9316.5117,1.5024h-1.291c-.0752-.4868-.2979-.8823-.667-1.1865-.3701-.3042-.8545-.4561-1.4531-.4561-.5244,0-.9668.1191-1.3271.3579s-.6289.5684-.8066.9897c-.1777.4209-.2666.9033-.2666,1.4458,0,.5337.0908,1.0107.2734,1.4321.1826.4209.4541.7534.8145.9966.3604.2437.8066.3652,1.3408.3652.4023,0,.7627-.0723,1.0811-.2178.3174-.145.5703-.3462.7578-.6035s.2998-.5449.3369-.8633h1.292c-.0283.5801-.1992,1.0879-.5127,1.5229-.3135.4355-.7275.7725-1.2422,1.0107-.5156.2388-1.0859.3584-1.7129.3584-.8145,0-1.5068-.1875-2.0781-.562Z"/><path d="m111.1885,112.3754c-.5713-.374-.9971-.8584-1.2773-1.4526-.2812-.5942-.4209-1.2144-.4209-1.8604v-.2529c0-.6548.1426-1.2793.4277-1.874.2852-.5942.7109-1.0762,1.2773-1.4458s1.2471-.5547,2.043-.5547c.627,0,1.1904.1172,1.6914.3511s.9033.5664,1.208.9966c.3037.4307.4746.9316.5117,1.5024h-1.291c-.0752-.4868-.2979-.8823-.667-1.1865-.3701-.3042-.8545-.4561-1.4531-.4561-.5244,0-.9668.1191-1.3271.3579s-.6289.5684-.8066.9897c-.1777.4209-.2666.9033-.2666,1.4458,0,.5337.0908,1.0107.2734,1.4321.1826.4209.4541.7534.8145.9966.3604.2437.8066.3652,1.3408.3652.4023,0,.7627-.0723,1.0811-.2178.3174-.145.5703-.3462.7578-.6035s.2998-.5449.3369-.8633h1.292c-.0283.5801-.1992,1.0879-.5127,1.5229-.3135.4355-.7275.7725-1.2422,1.0107-.5156.2388-1.0859.3584-1.7129.3584-.8145,0-1.5068-.1875-2.0781-.562Zm-.2383-11.0625h1.1084l1.1514,2.106h.1123l.9688-2.106h1.0527l-1.3613,2.7798h-1.4883l-1.5439-2.7798Z"/><path d="m119.4718,112.4248c-.5615-.3413-1.002-.8096-1.3203-1.4038s-.4766-1.2471-.4766-1.9585v-.2529c0-.7109.1543-1.3613.4629-1.9512s.7412-1.0576,1.2988-1.4038c.5566-.3462,1.1855-.5195,1.8877-.5195.5898,0,1.1182.124,1.5869.3721.4678.248.8467.627,1.1367,1.1372s.4541,1.1533.4912,1.9302l-.5615-.8984v-5.04h1.3477v10.2485h-1.0664v-3.3271h.3926c-.0371.8237-.21,1.502-.5195,2.0356-.3086.5332-.7012.9243-1.1787,1.1724-.4775.2476-1.0059.3721-1.5869.3721-.7012,0-1.333-.1709-1.8945-.5127Zm3.334-.9829c.3789-.2104.6787-.5098.8984-.8984.2197-.3882.3301-.8398.3301-1.3545v-.646c0-.4961-.1123-.9287-.3369-1.2983s-.5293-.6504-.9131-.8423-.7998-.2881-1.249-.2881c-.4961,0-.9336.1172-1.3125.3511s-.6738.564-.8848.9897-.3154.9194-.3154,1.481.1074,1.0581.3223,1.4883c.2158.4307.5146.7603.8984.9897s.8193.3438,1.3057.3438c.459,0,.8779-.105,1.2568-.3159Z"/><path d="m128.6739,112.3828c-.5664-.3696-.9834-.8496-1.25-1.439-.2666-.5898-.3994-1.2168-.3994-1.8813v-.2529c0-.6738.1348-1.3052.4062-1.895s.6836-1.0669,1.2363-1.4321c.5518-.3647,1.2256-.5474,2.0215-.5474.7764,0,1.4336.1685,1.9717.5054s.9414.7842,1.208,1.3408.4004,1.1582.4004,1.8037v.604h-6.6553v-1.0107h5.6719l-.3086.5474c0-.5337-.084-.9966-.2529-1.3896-.168-.3936-.4258-.6953-.7715-.9058-.3467-.2104-.7676-.3159-1.2637-.3159-.5244,0-.9648.1196-1.3203.3579-.3555.2388-.6201.5688-.793.9897-.1729.4214-.2598.9126-.2598,1.4741,0,.5522.0889,1.0391.2666,1.46.1777.4214.4492.7539.8145.9971s.8232.3647,1.376.3647c.5703,0,1.043-.126,1.418-.3789.374-.2524.6035-.5615.6875-.9268h1.2637c-.1592.7773-.5381,1.3853-1.1367,1.8252-.5996.4399-1.3438.6602-2.2324.6602-.833,0-1.5332-.1851-2.0986-.5547Z"/><path d="m136.9434,112.3828c-.5664-.3696-.9834-.8496-1.25-1.439-.2666-.5898-.3994-1.2168-.3994-1.8813v-.2529c0-.6738.1348-1.3052.4062-1.895s.6836-1.0669,1.2363-1.4321c.5518-.3647,1.2256-.5474,2.0215-.5474.7764,0,1.4336.1685,1.9717.5054s.9414.7842,1.208,1.3408.4004,1.1582.4004,1.8037v.604h-6.6553v-1.0107h5.6719l-.3086.5474c0-.5337-.084-.9966-.2529-1.3896-.168-.3936-.4258-.6953-.7715-.9058-.3467-.2104-.7676-.3159-1.2637-.3159-.5244,0-.9648.1196-1.3203.3579-.3555.2388-.6201.5688-.793.9897-.1729.4214-.2598.9126-.2598,1.4741,0,.5522.0889,1.0391.2666,1.46.1777.4214.4492.7539.8145.9971s.8232.3647,1.376.3647c.5703,0,1.043-.126,1.418-.3789.374-.2524.6035-.5615.6875-.9268h1.2637c-.1592.7773-.5381,1.3853-1.1367,1.8252-.5996.4399-1.3438.6602-2.2324.6602-.833,0-1.5332-.1851-2.0986-.5547Zm2.5615-11.0698h1.418l-1.5576,2.7798h-1.0957l1.2354-2.7798Z"/><path d="m145.212,112.3828c-.5664-.3696-.9834-.8496-1.25-1.439-.2666-.5898-.3994-1.2168-.3994-1.8813v-.2529c0-.6738.1348-1.3052.4062-1.895s.6836-1.0669,1.2363-1.4321c.5518-.3647,1.2256-.5474,2.0215-.5474.7764,0,1.4336.1685,1.9717.5054s.9414.7842,1.208,1.3408.4004,1.1582.4004,1.8037v.604h-6.6553v-1.0107h5.6719l-.3086.5474c0-.5337-.084-.9966-.2529-1.3896-.168-.3936-.4258-.6953-.7715-.9058-.3467-.2104-.7676-.3159-1.2637-.3159-.5244,0-.9648.1196-1.3203.3579-.3555.2388-.6201.5688-.793.9897-.1729.4214-.2598.9126-.2598,1.4741,0,.5522.0889,1.0391.2666,1.46.1777.4214.4492.7539.8145.9971s.8232.3647,1.376.3647c.5703,0,1.043-.126,1.418-.3789.374-.2524.6035-.5615.6875-.9268h1.2637c-.1592.7773-.5381,1.3853-1.1367,1.8252-.5996.4399-1.3438.6602-2.2324.6602-.833,0-1.5332-.1851-2.0986-.5547Zm-.2744-11.0698h1.1094l1.1514,2.106h.1123l.9688-2.106h1.0527l-1.3613,2.7798h-1.4883l-1.5449-2.7798Z"/><path d="m151.5509,105.2719h4.7031v1.0107h-4.7031v-1.0107Zm1.6914-2.2954c.4355-.3975,1.084-.5967,1.9443-.5967h.9268v1.123h-1.1514c-.3457,0-.6123.0962-.7998.2881s-.2812.4561-.2812.793v8.1006h-1.291v-7.876c0-.8232.2178-1.4341.6523-1.832Z"/><path d="m158.1212,115.4501v-1.1372c.7666.1123,1.4688.1685,2.1055.1685.6836,0,1.2285-.0913,1.6357-.2734.4072-.1826.7021-.4634.8848-.8428.1816-.3789.2734-.8818.2734-1.5088v-1.4321l.4492-1.0669c-.0283.7393-.1846,1.3618-.4707,1.8672-.2852.5054-.6592.8843-1.123,1.1372-.4629.2524-.9805.3789-1.5508.3789-.6836,0-1.2969-.1729-1.8398-.5195-.543-.3462-.9639-.8115-1.2627-1.397-.2998-.5845-.4492-1.2236-.4492-1.916v-.2529c0-.6924.1543-1.3218.4629-1.8882.3086-.5659.7373-1.0132,1.2842-1.3408.5479-.3271,1.1729-.4912,1.875-.4912.627,0,1.1787.1333,1.6562.3999.4775.2671.8535.6602,1.1299,1.1797.2764.519.4287,1.1392.4561,1.8599l-.3926.0142v-3.2007h1.0664v6.6123c0,.9077-.1377,1.6401-.4141,2.1968-.2754.5566-.7158.9639-1.3193,1.2217-.6035.2573-1.4062.3857-2.4072.3857-.7021,0-1.3857-.0513-2.0498-.1543Zm3.6846-4.2466c.3701-.2012.665-.4893.8848-.8638.2197-.374.3301-.8091.3301-1.3052v-.646c0-.4868-.1104-.9058-.3301-1.2563-.2197-.3511-.5176-.6177-.8916-.8003s-.7764-.2739-1.207-.2739c-.4873,0-.918.1123-1.292.3369s-.6641.543-.8701.9546c-.2061.4121-.3086.8896-.3086,1.4321,0,.543.1045,1.02.3154,1.4321.2109.4116.501.73.8701.9546.3701.2246.7939.3369,1.2705.3369.4492,0,.8594-.1006,1.2285-.3018Z"/><path d="m166.4884,102.436h1.3477v6.1211h-.3369c0-1.1416.2246-2.0264.6738-2.6533s1.1318-.9409,2.0498-.9409h.0557c.8887,0,1.5654.2949,2.0283.8848.4639.5894.6953,1.4414.6953,2.5552v4.2817h-1.3477v-4.5625c0-.5991-.1689-1.0693-.5059-1.4111-.3369-.3413-.7812-.5122-1.333-.5122-.5996,0-1.0791.1987-1.4395.5967s-.54.9194-.54,1.5649v4.3242h-1.3477v-10.2485Z"/><path d="m174.3643,105.1879h2.498v1.0669h-2.498v-1.0669Zm.8701-1.4395c-.1504-.1543-.2246-.3579-.2246-.6104,0-.2529.0742-.4565.2246-.6108.1494-.1543.3691-.2314.6602-.2314.2891,0,.5098.0771.6592.2314s.2246.3579.2246.6108c0,.2524-.0752.4561-.2246.6104-.1494.1548-.3701.2319-.6592.2319-.291,0-.5107-.0771-.6602-.2319Zm.2803,1.4395h1.3477v7.4966h-1.3477v-7.4966Z"/><path d="m178.3653,105.1879h2.498v1.0669h-2.498v-1.0669Zm1.9229-3.875h1.418l-1.5586,2.7798h-1.0947l1.2354-2.7798Zm-.7725,3.875h1.3477v7.4966h-1.3477v-7.4966Z"/><path d="m181.8321,114.3413h.7861c.3555,0,.6299-.0962.8213-.2881.1924-.1919.2881-.4653.2881-.8213v-8.0439h1.292v7.8477c0,.627-.0869,1.123-.2598,1.4878-.1738.3652-.4473.627-.8213.7866-.375.1587-.8799.2383-1.5166.2383h-.5898v-1.207Zm.7158-9.1533h2.4717v1.0669h-2.4717v-1.0669Zm.8428-1.5518c-.1494-.1543-.2246-.3579-.2246-.6104,0-.2529.0752-.4565.2246-.6108s.3691-.2314.6602-.2314c.29,0,.5098.0771.6592.2314.1504.1543.2246.3579.2246.6108,0,.2524-.0742.4561-.2246.6104-.1494.1548-.3691.2319-.6592.2319-.291,0-.5107-.0771-.6602-.2319Z"/><path d="m187.2794,102.436h1.3477v10.2485h-1.3477v-10.2485Zm2.3438,6.7529h-1.2354l3.4395-4.001h1.418l-3.1162,3.6079.0986-.7163,3.7764,4.605h-1.5586l-2.8223-3.4956Z"/><path d="m194.004,102.436h2.3867v1.0669h-2.3867v-1.0669Zm1.0391,0h1.3477v10.2485h-1.3477v-10.2485Z"/><path d="m198.6514,105.1879h1.0664v3.2148h-.168c0-1.1045.2168-1.9536.6523-2.5483.4355-.5942,1.0879-.8916,1.959-.8916h.0557c.8701,0,1.5234.2974,1.959.8916.4346.5947.6523,1.4438.6523,2.5483h-.3936c0-1.1045.2227-1.9536.667-2.5483.4443-.5942,1.1025-.8916,1.9727-.8916h.0566c.8701,0,1.5273.2974,1.9717.8916.4453.5947.667,1.4438.667,2.5483v4.2817h-1.3477v-4.5767c0-.5991-.1494-1.0669-.4492-1.4038s-.7158-.5054-1.249-.5054c-.5615,0-1.0088.1777-1.3408.5332-.332.356-.498.8423-.498,1.46v4.4927h-1.3486v-4.5767c0-.5991-.1494-1.0669-.4492-1.4038-.2988-.3369-.7158-.5054-1.249-.5054-.5615,0-1.0088.1777-1.3408.5332-.332.356-.498.8423-.498,1.46v4.4927h-1.3477v-7.4966Z"/><path d="m211.918,105.1879h1.0664v3.2148h-.168c0-1.123.2314-1.9771.6943-2.5625.4639-.5845,1.1582-.8774,2.085-.8774h.0566c.9258,0,1.6211.293,2.084.8774.4639.5854.6953,1.4395.6953,2.5625v4.2817h-1.3477v-4.5625c0-.5898-.166-1.0576-.498-1.4043-.333-.3457-.7793-.519-1.3408-.519-.5898,0-1.0674.1846-1.4326.5542-.3643.3701-.5469.8545-.5469,1.4531v4.4785h-1.3477v-7.4966Z"/><path d="m78.3096,129.2294c-.6084-.3696-1.0693-.8516-1.3828-1.4463-.3135-.5942-.4697-1.2188-.4697-1.874v-.2529c0-.6548.1611-1.2793.4844-1.874.3223-.5942.7881-1.0762,1.3965-1.4458s1.3193-.5547,2.1338-.5547,1.5254.1851,2.1338.5547,1.0742.8516,1.3975,1.4458c.3223.5947.4844,1.2192.4844,1.874v.2529c0,.6553-.1572,1.2798-.4707,1.874-.3135.5947-.7744,1.0767-1.3828,1.4463s-1.3291.5547-2.1621.5547-1.5537-.1851-2.1621-.5547Zm3.5869-1.0181c.4072-.2432.7158-.5776.9268-1.0034s.3154-.9009.3154-1.4253c0-.5332-.1094-1.0127-.3291-1.439-.2207-.4258-.5312-.7578-.9336-.9966-.4033-.2388-.8711-.3579-1.4043-.3579s-1.002.1191-1.4043.3579-.7129.5708-.9336.9966c-.2197.4263-.3291.9058-.3291,1.439,0,.5244.1045.9995.3154,1.4253s.5195.7603.9268,1.0034c.4072.2437.8818.3652,1.4248.3652s1.0176-.1216,1.4248-.3652Z"/><path d="m86.1856,122.0346h1.0664v3.2427l-.2529-.0278c.0381-.7769.2041-1.4229.499-1.9375s.6777-.8984,1.1514-1.1514c.4717-.2524.998-.3789,1.5791-.3789.7021,0,1.3291.1753,1.8809.5264.5527.3511.9785.8213,1.2773,1.4111.2998.5894.4492,1.2354.4492,1.937v.2529c0,.7021-.1562,1.3477-.4697,1.9375-.3135.5894-.7471,1.0601-1.2988,1.4106-.5527.3511-1.1748.5269-1.8672.5269-.5615,0-1.083-.1221-1.5654-.3652s-.8799-.6318-1.1934-1.165c-.3135-.5337-.4893-1.2075-.5264-2.022l.6182,1.123v4.9839h-1.3477v-10.3042Zm5.1172,6.2119c.3789-.2388.6709-.5708.877-.9966s.3086-.915.3086-1.4673-.1025-1.041-.3086-1.4668-.498-.7583-.877-.9971c-.3799-.2383-.8174-.3579-1.3135-.3579-.458,0-.8799.103-1.2627.3091-.3838.2061-.6885.5005-.9131.8843s-.3369.833-.3369,1.3477v.646c0,.4961.1143.9312.3438,1.3057s.5361.6597.9199.8564c.3838.1963.7998.2944,1.249.2944.4961,0,.9336-.1191,1.3135-.3579Z"/><path d="m101.2774,127.2988l.5342-1.0669c-.0283.7861-.1875,1.4463-.4775,1.9795-.29.5337-.6719.9292-1.1445,1.1865s-.999.3862-1.5791.3862c-.7021,0-1.3291-.1782-1.8809-.5337-.5527-.3555-.9834-.833-1.292-1.4321-.3086-.5986-.4629-1.2539-.4629-1.9653v-.2529c0-.7017.1543-1.3452.4629-1.9302s.7441-1.0459,1.3057-1.3828,1.2021-.5054,1.9229-.5054c.6367,0,1.1963.1357,1.6777.4072.4824.2715.8633.6665,1.1445,1.186s.4355,1.1445.4629,1.8745h-.3926v-3.2148h1.0664v10.3042h-1.3477v-5.04Zm-1.1719.9336c.3789-.2104.6787-.5098.8984-.8984.2197-.3882.3301-.8398.3301-1.3545v-.646c0-.4961-.1123-.9287-.3369-1.2983s-.5264-.6504-.9053-.8423c-.3799-.1919-.7939-.2881-1.2432-.2881-.4961,0-.9355.1172-1.3193.3511s-.6807.5664-.8916.9966c-.2109.4307-.3154.9219-.3154,1.4741,0,.5615.1074,1.0557.3223,1.4814.2158.4258.5146.7559.8984.9897s.8193.3506,1.3057.3506c.459,0,.8779-.105,1.2568-.3159Z"/><path d="m104.8858,122.0346h1.0664v3.0884h-.0557c0-1.0854.2383-1.8857.7158-2.4009.4775-.5146,1.2021-.772,2.1758-.772h.2529v1.2075h-.4775c-.749,0-1.3242.1987-1.7266.5967s-.6035.9707-.6035,1.7197v4.0571h-1.3477v-7.4966Z"/><path d="m109.9532,118.1596h1.1094l1.1504,2.106h.1123l.9688-2.106h1.0527l-1.3613,2.7798h-1.4883l-1.5439-2.7798Zm.3652,3.875h1.0664v3.0884h-.0557c0-1.0854.2383-1.8857.7158-2.4009.4775-.5146,1.2021-.772,2.1758-.772h.2529v1.2075h-.4775c-.749,0-1.3242.1987-1.7266.5967s-.6035.9707-.6035,1.7197v4.0571h-1.3477v-7.4966Z"/><path d="m115.9337,129.1313c-.542-.4165-.8232-.9946-.8418-1.7339h1.2637c.0186.3369.1777.6226.4775.8564.2988.2339.7578.3506,1.375.3506.5811,0,1.0342-.1143,1.3623-.3438.3271-.2295.4912-.5264.4912-.8916,0-.3086-.1172-.5498-.3506-.7231-.2344-.1729-.6133-.2876-1.1377-.3438l-.8145-.084c-.749-.0845-1.3379-.3042-1.7686-.6602-.4307-.3555-.6455-.8423-.6455-1.46,0-.4678.1211-.875.3643-1.2212.2441-.3462.5811-.6108,1.0117-.7935.4297-.1826.9258-.2739,1.4873-.2739.8613,0,1.5488.1924,2.0645.5757.5146.3838.7812.936.7998,1.6567h-1.2637c-.0186-.3179-.1641-.5776-.4346-.7793-.2725-.2012-.6602-.3018-1.166-.3018-.5049,0-.8984.1055-1.1787.3159-.2812.2104-.4209.4844-.4209.8213,0,.29.0977.5171.2939.6807.1973.1641.5107.2695.9414.3159l.8135.0845c.833.084,1.4863.311,1.959.6807.4727.3701.709.873.709,1.5093,0,.459-.1338.8706-.4004,1.2354-.2666.3652-.6367.6484-1.1094.8496s-1.0078.3018-1.6074.3018c-.9736,0-1.7314-.2085-2.2744-.6245Z"/><path d="m123.1348,129.1313c-.542-.4165-.8232-.9946-.8418-1.7339h1.2637c.0186.3369.1777.6226.4775.8564.2988.2339.7578.3506,1.375.3506.5811,0,1.0342-.1143,1.3623-.3438.3271-.2295.4912-.5264.4912-.8916,0-.3086-.1172-.5498-.3506-.7231-.2344-.1729-.6133-.2876-1.1377-.3438l-.8145-.084c-.749-.0845-1.3379-.3042-1.7686-.6602-.4307-.3555-.6455-.8423-.6455-1.46,0-.4678.1211-.875.3643-1.2212.2441-.3462.5811-.6108,1.0117-.7935.4297-.1826.9258-.2739,1.4873-.2739.8613,0,1.5488.1924,2.0645.5757.5146.3838.7812.936.7998,1.6567h-1.2637c-.0186-.3179-.1641-.5776-.4346-.7793-.2725-.2012-.6602-.3018-1.166-.3018-.5049,0-.8984.1055-1.1787.3159-.2812.2104-.4209.4844-.4209.8213,0,.29.0977.5171.2939.6807.1973.1641.5107.2695.9414.3159l.8135.0845c.833.084,1.4863.311,1.959.6807.4727.3701.709.873.709,1.5093,0,.459-.1338.8706-.4004,1.2354-.2666.3652-.6367.6484-1.1094.8496s-1.0078.3018-1.6074.3018c-.9736,0-1.7314-.2085-2.2744-.6245Zm-.0273-10.9717h1.1084l1.1514,2.106h.1123l.9688-2.106h1.0527l-1.3613,2.7798h-1.4883l-1.5439-2.7798Z"/><path d="m129.0596,122.0346h5.167v1.0107h-5.167v-1.0107Zm2.541,7.3281c-.4023-.1685-.7109-.4468-.9268-.8354-.2148-.3882-.3223-.9053-.3223-1.5513v-7.2158h1.291v7.3843c0,.4028.1104.7139.3301.9336.2197.2202.5312.3301.9336.3301h1.3203v1.2075h-1.1514c-.5811,0-1.0723-.0845-1.4746-.2529Z"/><path d="m136.3604,128.8852c-.4775-.5801-.7158-1.418-.7158-2.5127v-4.3521h1.3477v4.6187c0,.5898.1592,1.0508.4775,1.3828.3184.3325.749.4985,1.292.4985.5703,0,1.0312-.1826,1.3828-.5474.3506-.3652.5264-.8564.5264-1.4741v-4.4785h1.3477v7.5107h-1.0674v-3.2148h.1689c0,1.123-.2227,1.9771-.667,2.562s-1.1074.8774-1.9863.8774h-.0566c-.8887,0-1.5723-.29-2.0498-.8706Z"/><path d="m144.8536,128.8852c-.4775-.5801-.7158-1.418-.7158-2.5127v-4.3521h1.3477v4.6187c0,.5898.1592,1.0508.4775,1.3828.3184.3325.749.4985,1.292.4985.5703,0,1.0312-.1826,1.3828-.5474.3506-.3652.5264-.8564.5264-1.4741v-4.4785h1.3477v7.5107h-1.0674v-3.2148h.1689c0,1.123-.2227,1.9771-.667,2.562s-1.1074.8774-1.9863.8774h-.0566c-.8887,0-1.5723-.29-2.0498-.8706Zm3.0186-10.7256h1.418l-1.5586,2.7798h-1.0947l1.2354-2.7798Z"/><path d="m153.3468,128.8852c-.4775-.5801-.7158-1.418-.7158-2.5127v-4.3521h1.3477v4.6187c0,.5898.1592,1.0508.4775,1.3828.3184.3325.749.4985,1.292.4985.5703,0,1.0312-.1826,1.3828-.5474.3506-.3652.5264-.8564.5264-1.4741v-4.4785h1.3477v7.5107h-1.0674v-3.2148h.1689c0,1.123-.2227,1.9771-.667,2.562s-1.1074.8774-1.9863.8774h-.0566c-.8887,0-1.5723-.29-2.0498-.8706Zm1.334-8.2476c-.29-.2949-.4355-.6714-.4355-1.1304,0-.4585.1455-.8354.4355-1.1299.29-.2949.6689-.4424,1.1367-.4424.4688,0,.8477.1475,1.1377.4424.29.2944.4355.6714.4355,1.1299,0,.459-.1455.8354-.4355,1.1304-.29.2944-.6689.4419-1.1377.4419-.4678,0-.8467-.1475-1.1367-.4419Zm1.7266-.5269c.1494-.1587.2246-.3599.2246-.6035,0-.2432-.0752-.4443-.2246-.6035s-.3457-.2388-.5898-.2388c-.2432,0-.4395.0796-.5889.2388-.1504.1592-.2246.3604-.2246.6035,0,.2437.0742.4448.2246.6035.1494.1597.3457.2388.5889.2388.2441,0,.4404-.0791.5898-.2388Z"/><path d="m160.3389,122.0346h1.4043l2.499,7.4966h-1.3486l-2.5547-7.4966Zm2.8916,6.4297h1.6289v1.0669h-1.6289v-1.0669Zm2.8223-6.4297h1.3193l-2.2178,7.4966h-1.2773l2.1758-7.4966Z"/><path d="m167.8917,122.0346h1.291l2.0645,7.4966h-1.2354l-2.1201-7.4966Zm2.4287,6.4297h1.5586v1.0669h-1.5586v-1.0669Zm2.2041-6.1772h1.8252l1.7686,7.2441h-1.1514l-1.7686-7.2158h.4492l-1.5303,7.2158h-1.1094l1.5166-7.2441Zm2.7236,6.1772h1.5576v1.0669h-1.5576v-1.0669Zm2.4287-6.4297h1.2217l-1.8398,7.4966h-1.1787l1.7969-7.4966Z"/><path d="m182.1827,125.5864l-.042.2808-2.5127-3.8325h1.4883l1.8105,2.8218h.1973l1.7119-2.8218h1.3906l-2.373,3.7339.042-.2524,2.8076,4.0151h-1.4873l-2.1064-3.0464h-.1963l-2.0215,3.0464h-1.3896l2.6807-3.9448Z"/><path d="m186.9005,122.0346h1.376l2.5684,7.3281h-1.2627l-2.6816-7.3281Zm.5332,9.2095h1.0811c.4775,0,.8467-.0938,1.1094-.2808.2617-.1875.4629-.5151.6035-.9829l2.3584-7.9458h1.3193l-2.499,8.2969c-.1494.4961-.3604.8984-.6309,1.2075-.2725.3086-.6016.5381-.9902.6875-.3887.1499-.8398.2246-1.3545.2246h-.9971v-1.207Zm2.2881-3.0044h1.6289v1.123h-1.6289v-1.123Z"/><path d="m194.2569,122.0346h1.376l2.5684,7.3281h-1.2627l-2.6816-7.3281Zm.5332,9.2095h1.0811c.4775,0,.8467-.0938,1.1094-.2808.2617-.1875.4629-.5151.6035-.9829l2.3584-7.9458h1.3193l-2.499,8.2969c-.1494.4961-.3604.8984-.6309,1.2075-.2725.3086-.6016.5381-.9902.6875-.3887.1499-.8398.2246-1.3545.2246h-.9971v-1.207Zm2.2881-3.0044h1.6289v1.123h-1.6289v-1.123Zm1.292-10.0801h1.418l-1.5586,2.7798h-1.0947l1.2354-2.7798Z"/><path d="m202.0899,128.0292l4.085-4.8999v.2246l-.2246-.3369.1826.0845h-4.0996v-1.0669h5.335v1.502l-4.085,4.8994v-.1963l.2529.3511-.1973-.1265h4.2539v1.0669h-5.5029v-1.502Z"/><path d="m208.6182,128.0292l4.085-4.8999v.2246l-.2246-.3369.1826.0845h-4.0996v-1.0669h5.335v1.502l-4.085,4.8994v-.1963l.2529.3511-.1973-.1265h4.2539v1.0669h-5.5029v-1.502Zm.2666-9.8696h1.1094l1.1504,2.106h.1123l.9688-2.106h1.0537l-1.3623,2.7798h-1.4883l-1.5439-2.7798Z"/><path d="m78.5909,136.8032l.6172.4775h-2.8916v-1.1514h3.6221v10.2485h-1.3477v-9.5747Z"/><path d="m82.7882,143.2119c.2803-.3696.7949-.7227,1.5439-1.0596l1.9238-.8848c.4863-.2246.8604-.5122,1.123-.8633.2617-.3511.3926-.7837.3926-1.2983,0-.6553-.1846-1.1655-.5547-1.5303-.3691-.3652-.8818-.5479-1.5371-.5479s-1.1699.1826-1.5439.5479c-.374.3647-.5615.875-.5615,1.5303h-1.3193c0-.6084.126-1.1582.3789-1.6499.252-.4912.6357-.8818,1.1514-1.1724.5146-.2896,1.1455-.4351,1.8945-.4351.7393,0,1.3662.1431,1.8818.4282.5146.2856.8984.667,1.1504,1.144.2529.4775.3799,1.0063.3799,1.5864v.1968c0,.7114-.2041,1.3218-.6113,1.832s-.9893.9385-1.748,1.2847l-1.9229.8843c-.4307.1968-.7207.3911-.8701.5825-.1504.1919-.2246.4565-.2246.7935v1.2915l-.3652-.646h5.8682v1.1514h-6.8506v-1.6846c0-.6177.1396-1.1113.4209-1.4814Z"/><path d="m91.9278,146.1884c-.543-.2949-.9551-.6899-1.2354-1.1865-.2812-.4956-.4209-1.0386-.4209-1.6284h1.3193c0,.6367.2031,1.1421.6104,1.5161.4072.3745.957.5615,1.6494.5615.459,0,.8564-.084,1.1934-.2524s.5996-.4092.7861-.7231c.1875-.3135.2812-.6807.2812-1.1021,0-.6362-.2061-1.1514-.6182-1.5444-.4111-.3931-.9541-.5894-1.6279-.5894-.5146,0-.9502.1216-1.3057.3647l-.6738-1.207,3.917-2.8643-.1406-.2524h-4.9844v-1.1514h6.248v1.8672l-3.2432,2.3584-.9824.0425c.3643-.1309.7666-.1968,1.207-.1968.7207,0,1.3477.1382,1.8809.4141.5342.2764.9404.6484,1.2217,1.1162.2812.4683.4209.9829.4209,1.5444v.1963c0,.5527-.1396,1.0693-.4209,1.5513-.2812.4824-.6924.8706-1.2354,1.1655s-1.1846.4424-1.9238.4424-1.3799-.1475-1.9229-.4424Z"/><path d="m98.6241,142.2924l4.2539-6.4155.9404.7437-3.9727,6.0088.126.2529h6.627v1.0669h-7.9746v-1.6567Zm5.3486-3.1729h1.2637v7.2583h-1.2637v-7.2583Z"/><path d="m109.1114,146.1533c-.5518-.3179-.9707-.7393-1.2559-1.2637-.2861-.5239-.4287-1.0854-.4287-1.6846h1.3193c0,.6553.2129,1.1934.6387,1.6147.4258.4209.9902.6313,1.6924.6313.6924,0,1.2559-.2104,1.6914-.6313.4355-.4214.6533-.9595.6533-1.6147,0-.4302-.0986-.8213-.2949-1.1724-.1973-.3511-.4727-.627-.8281-.8281-.3564-.2012-.7637-.3018-1.2217-.3018-.3564,0-.709.061-1.0605.1826-.3506.1216-.6338.2852-.8486.4912h-1.2354l.5186-5.4473h5.377v1.1514h-4.5898l.3369-.4634-.3936,3.9731-.3652-.1265c.2715-.2808.6035-.4985.9971-.6528.3926-.1543.833-.2314,1.3193-.2314.749,0,1.3945.1567,1.9375.4702s.957.7251,1.2422,1.2354c.2861.5103.4287,1.0508.4287,1.6216v.1963c0,.5713-.1455,1.1118-.4355,1.6216-.29.5103-.7139.9219-1.2705,1.2354s-1.21.4707-1.958.4707c-.7588,0-1.4131-.1597-1.9658-.4775Z"/><path d="m117.668,146.0058c-.5762-.4351-.9854-1.0151-1.2285-1.7407-.2432-.7251-.3652-1.5562-.3652-2.4922v-.6738c0-1.6191.4043-2.8662,1.2148-3.7412.8086-.875,1.9717-1.3125,3.4883-1.3125.5244,0,1.1094.0371,1.7549.1123v1.1509c-.6553-.0747-1.2588-.1123-1.8105-.1123-.834,0-1.5.1567-2.001.4702-.501.314-.8613.7632-1.0811,1.3481s-.3301,1.3125-.3301,2.1831v.6313l-.3369,1.2495c.0098-.7202.1494-1.3267.4209-1.8179s.6484-.8608,1.1309-1.1089c.4814-.248,1.041-.3721,1.6777-.3721.7109,0,1.3213.145,1.832.4351.5098.29.8955.6929,1.1582,1.2075.2617.5146.3926,1.1045.3926,1.7686,0,.6738-.1377,1.2729-.4141,1.7974-.2764.5239-.6855.9336-1.2285,1.228-.543.2949-1.2021.4424-1.9795.4424-.9541,0-1.7197-.2178-2.2949-.6528Zm3.5723-.8145c.3467-.1914.6084-.458.7861-.7998s.2676-.7417.2676-1.2007c0-.6924-.1943-1.2471-.583-1.6636-.3887-.416-.9385-.6245-1.6494-.6245-.4873,0-.918.0889-1.292.2666s-.6689.4399-.8838.7861c-.2158.3467-.3232.7632-.3232,1.2495,0,.4307.0859.8169.2598,1.1582.1729.3418.4395.6133.7998.8145s.8076.3018,1.3408.3018c.5059,0,.9316-.0957,1.2773-.2881Z"/><path d="m130.3516,137.4072l-.084-.1265h-5.6016v-1.1514h6.8789v1.6284l-4.127,8.6201h-1.4043l4.3379-8.9707Zm-5.6855-1.2778h1.123v2.7798h-1.123v-2.7798Z"/><path d="m134.2403,146.2373c-.5703-.2617-1.0156-.6289-1.333-1.1021-.3184-.4722-.4775-1.0127-.4775-1.6211,0-.3931.0771-.7583.2314-1.0952s.3721-.627.6523-.8706c.2812-.2432.6045-.4351.9688-.5752v-.1406c-.4492-.1968-.8135-.4819-1.0947-.8564-.2803-.374-.4209-.814-.4209-1.3198,0-.5703.1514-1.0645.4561-1.481.3037-.4165.7178-.7368,1.2422-.9614s1.0996-.3369,1.7275-.3369c.6357,0,1.2139.1123,1.7334.3369s.9316.5449,1.2354.9614.4561.9106.4561,1.481c0,.5151-.1377.9575-.4141,1.3271s-.6436.6523-1.1016.8491v.1406c.3643.1401.6875.332.9688.5752.2803.2437.5.5337.6592.8706s.2393.7021.2393,1.0952c0,.6177-.1621,1.1606-.4844,1.6284-.3232.4683-.7705.833-1.3408,1.0947-.5713.2622-1.2217.3936-1.9512.3936-.7305,0-1.3809-.1313-1.9521-.3936Zm3.2646-1.0034c.3691-.1636.6523-.3979.8486-.7021.1973-.3042.2949-.6621.2949-1.0737,0-.4121-.0957-.7676-.2871-1.0674-.1924-.2993-.4727-.5308-.8428-.6948-.3701-.1636-.8115-.2456-1.3262-.2456-.5059,0-.9434.082-1.3135.2456-.3691.1641-.6504.3955-.8418.6948-.1924.2998-.2881.6553-.2881,1.0674,0,.4116.0957.7695.2881,1.0737.1914.3042.4727.5386.8418.7021.3701.1636.8076.2456,1.3135.2456.5049,0,.9424-.082,1.3125-.2456Zm.2314-5.272c.374-.2808.5615-.7017.5615-1.2632,0-.5522-.1895-.9688-.5684-1.2495s-.8916-.4214-1.5371-.4214c-.6553,0-1.1709.1406-1.5449.4214s-.5615.6973-.5615,1.2495c0,.5615.1895.9824.5684,1.2632.3799.2808.8916.4214,1.5381.4214.6543,0,1.1689-.1406,1.5439-.4214Z"/><path d="m146.9952,136.5014c.5752.4351.9854,1.0156,1.2285,1.7407.2432.7256.3652,1.5562.3652,2.4922v.6738c0,1.6191-.4053,2.8662-1.2148,3.7412-.8096.8755-1.9727,1.313-3.4883,1.313-.5244,0-1.1094-.0376-1.7549-.1128v-1.1509c.6543.0747,1.2588.1123,1.8105.1123.833,0,1.5-.1567,2.001-.4702.5-.3135.8604-.7627,1.0811-1.3481.2197-.5845.3301-1.3125.3301-2.1826v-.6318l.3369-1.2495c-.0098.7207-.1504,1.3267-.4219,1.8179-.2715.4917-.6475.8613-1.1299,1.1094s-1.041.3721-1.6777.3721c-.7109,0-1.3223-.145-1.832-.4355-.5098-.29-.8965-.6924-1.1582-1.207s-.3926-1.1045-.3926-1.769c0-.6738.1377-1.2729.4141-1.7969.2754-.5244.6855-.9336,1.2285-1.2285.542-.2949,1.2021-.4424,1.9795-.4424.9541,0,1.7197.2178,2.2949.6528Zm-3.5732.8145c-.3457.1919-.6084.4585-.7861.8003-.1777.3413-.2666.7417-.2666,1.2002,0,.6929.1943,1.2471.583,1.6636.3877.4165.9375.6245,1.6494.6245.4863,0,.917-.0889,1.291-.2666.375-.1777.6699-.4399.8848-.7861.2158-.3462.3232-.7627.3232-1.2495,0-.4302-.0869-.8164-.2598-1.1582-.1738-.3413-.4404-.6128-.8008-.8145-.3604-.2012-.8066-.3018-1.3398-.3018-.5059,0-.9316.0962-1.2783.2881Z"/><path d="m152.0841,145.9638c-.627-.4443-1.083-1.041-1.3682-1.79-.2861-.7485-.4287-1.5957-.4287-2.541v-.7583c0-.9731.1523-1.8364.4561-2.5898.3047-.7534.7695-1.3481,1.3975-1.7832.627-.4351,1.4131-.6528,2.3584-.6528.9355,0,1.7197.2178,2.3516.6528s1.0967,1.0298,1.3965,1.7832.4492,1.6167.4492,2.5898v.7583c0,.9453-.1426,1.7925-.4277,2.541-.2861.749-.7422,1.3457-1.3691,1.79s-1.4268.667-2.4004.667c-.9824,0-1.7881-.2227-2.415-.667Zm4.5557-1.5586c.4541-.6597.6807-1.7056.6807-3.1377,0-1.4785-.2295-2.5454-.6875-3.2007-.459-.6553-1.1699-.9829-2.1338-.9829-.9736,0-1.6895.3276-2.1484.9829-.458.6553-.6875,1.7129-.6875,3.1729,0,1.4414.2266,2.4941.6807,3.1587s1.1729.9966,2.1553.9966c.9736,0,1.6865-.3296,2.1406-.9897Z"/><path d="m160.2471,146.1323c-.1543-.1636-.2314-.3672-.2314-.6108,0-.2432.0771-.4468.2314-.6108.1543-.1636.3486-.2456.583-.2456.2334,0,.4277.082.582.2456.1543.1641.2324.3677.2324.6108,0,.2437-.0781.4473-.2324.6108s-.3486.2456-.582.2456c-.2344,0-.4287-.082-.583-.2456Z"/><path d="m164.8028,140.706h.9688c.6367,0,1.123-.1704,1.46-.5122s.5059-.7837.5059-1.3267c0-.5615-.1738-1.0083-.5195-1.3408-.3467-.332-.7998-.4985-1.3613-.4985-.4121,0-.7725.0845-1.0811.2529-.3096.1685-.5479.4048-.7168.709-.168.3042-.252.6436-.252,1.0176h-1.292c0-.5615.1289-1.083.3857-1.5654.2578-.4819.6367-.8677,1.1377-1.1582.5-.2896,1.1064-.4351,1.8184-.4351.6357,0,1.1953.1313,1.6768.3931.4824.2622.8516.6177,1.1094,1.0669s.3857.9409.3857,1.4741v.1685c0,.543-.1279,1.0322-.3857,1.4673s-.6387.7793-1.1445,1.0317c-.5049.2529-1.1133.3789-1.8242.3789l.5049-.6455-.0283,2.1338h-1.3477v-2.6113Zm.0918,5.4263c-.1543-.1636-.2314-.3672-.2314-.6108,0-.2432.0771-.4468.2314-.6108.1543-.1636.3486-.2456.582-.2456.2344,0,.4287.082.583.2456.1543.1641.2314.3677.2314.6108,0,.2437-.0771.4473-.2314.6108s-.3486.2456-.583.2456c-.2334,0-.4277-.082-.582-.2456Z"/><path d="m170.8751,146.1323c-.1543-.1636-.2314-.3672-.2314-.6108,0-.2432.0771-.4468.2314-.6108.1543-.1636.3486-.2456.583-.2456.2334,0,.4277.082.582.2456.1543.1641.2314.3677.2314.6108,0,.2437-.0771.4473-.2314.6108s-.3486.2456-.582.2456c-.2344,0-.4287-.082-.583-.2456Zm-.1055-10.0029h1.376v7.188h-1.376v-7.188Z"/><path d="m175.3946,146.2236c-.5469-.2715-.9727-.6411-1.2773-1.1094-.3037-.4678-.4561-.9873-.4561-1.5581v-.2104c0-.646.1797-1.231.541-1.7549.3594-.5244.8398-.9551,1.4385-1.292l.7021.9409c-.4209.2153-.7578.522-1.0107.9194-.2529.3979-.3789.8306-.3789,1.2988,0,.4302.1025.7979.3086,1.1021s.4844.5332.835.6875c.3516.1548.7422.2319,1.1729.2319.6543,0,1.2207-.1846,1.6982-.5547.4775-.3696.8447-.9219,1.1025-1.6567.2568-.7344.3857-1.6304.3857-2.6885h1.207c0,1.2451-.1709,2.3213-.5117,3.229-.3418.9082-.8428,1.6055-1.5029,2.0918-.6592.4868-1.4531.7305-2.3789.7305-.7021,0-1.3271-.1362-1.875-.4072Zm-.1816-6.0508c-.2295-.4399-.3447-.9175-.3447-1.4321,0-.9268.2676-1.6123.8008-2.0566s1.3848-.667,2.5547-.667c.5713,0,1.2588.0469,2.0635.1406v1.1792c-.3555-.0376-.7695-.0703-1.2422-.0981-.4727-.0283-.835-.0425-1.0879-.0425-.6455,0-1.1064.1289-1.3828.3862s-.4141.6528-.4141,1.186c0,.4028.0908.7749.2734,1.1162.1826.3418.4893.7422.9199,1.2007l4.9834,5.2925h-1.5859l-4.2256-4.5063c-.6465-.6929-1.084-1.2588-1.3125-1.6987Zm3.6143-.4775h3.6787v1.0669h-3.6787v-1.0669Z"/><path d="m186.7882,138.0668l-1.1797.6738-2.3867-1.1089.6318-1.0811,1.6143,1.1792.5195-.2949-.2246-1.9795,1.2637-.0142-.2383,2.6255Zm-1.1797,1.0391l1.1797.6738.2383,2.625-1.2637-.0142.2246-1.9795-.5195-.2944-1.6143,1.1792-.6318-1.0811,2.3867-1.1089Zm1.4463.4912v-1.3477l2.1475-1.5166.6318,1.0952-1.8389.8003v.5898l1.8389.7998-.6318,1.0952-2.1475-1.5161Z"/><path d="m194.5089,148.9189c-1.0674-.5806-1.9004-1.3945-2.499-2.4429-.5996-1.0479-.8984-2.2505-.8984-3.6079,0-1.3198.2969-2.5132.8916-3.5801.5938-1.0669,1.4268-1.9067,2.499-2.52,1.0713-.6128,2.2998-.9194,3.6846-.9194,1.2539,0,2.4033.2412,3.4473.7231,1.043.4819,1.8711,1.186,2.4844,2.1128s.9199,2.0312.9199,3.313c0,.8145-.127,1.5493-.3789,2.2041-.2529.6553-.6045,1.168-1.0537,1.5376s-.9639.5542-1.5439.5542c-.6553,0-1.1748-.2031-1.5586-.6104s-.5752-.9385-.5752-1.5938v-.8701h.4072c-.0283.6455-.1689,1.1909-.4209,1.6353-.2529.4448-.583.7773-.9902.9971s-.8545.3296-1.3408.3296c-.5713,0-1.083-.1401-1.5371-.4209s-.8125-.6689-1.0742-1.165-.3926-1.0483-.3926-1.6567v-.2246c0-.6084.1328-1.1533.3994-1.6357.2676-.4819.6348-.8584,1.1025-1.1299s.9873-.4072,1.5586-.4072c.5146,0,.9795.1123,1.3965.3369.416.2246.751.5522,1.0039.9829.2529.4302.3926.9404.4209,1.5298h-.5049v-2.6533h1.0947v4.3242c0,.3745.0908.6577.2734.8491.1826.1924.4189.2881.709.2881.3184,0,.6152-.1309.8916-.3931s.4961-.6318.6602-1.1094c.1631-.4771.2451-1.0244.2451-1.6426,0-1.0947-.25-2.0234-.751-2.7866-.501-.7627-1.1787-1.3359-2.0352-1.7197s-1.8047-.5757-2.8428-.5757c-1.1797,0-2.2139.2578-3.1025.7725-.8896.5146-1.5752,1.2212-2.0566,2.1196-.4824.8984-.7236,1.9048-.7236,3.0186,0,1.1323.2432,2.1338.7305,3.0044.4863.8701,1.1699,1.5464,2.0498,2.0283.8789.4819,1.8857.7231,3.0176.7231.5811,0,1.1426-.0654,1.6855-.1963v1.165c-.5811.1216-1.1426.1826-1.6855.1826-1.3379,0-2.541-.2905-3.6074-.8706Zm4.3379-4.0645c.3086-.1729.5566-.4258.7441-.7578.1865-.332.2803-.7231.2803-1.1724v-.3652c0-.4209-.0957-.7764-.2871-1.0669-.1924-.29-.4424-.5098-.751-.6597-.3096-.1494-.6465-.2246-1.0107-.2246-.4033,0-.7568.0913-1.0605.2739-.3037.1821-.5381.4399-.7021.772-.1631.3325-.2451.7231-.2451,1.1724s.084.8472.2529,1.1934c.168.3462.4043.6152.709.8071.3037.1919.6523.2876,1.0459.2876.374,0,.7158-.0864,1.0244-.2598Z"/><path d="m208.1964,146.0761c-.6084-.3696-1.0693-.8516-1.3828-1.4463-.3135-.5942-.4697-1.2188-.4697-1.874v-.2529c0-.6548.1611-1.2793.4844-1.874.3223-.5942.7881-1.0762,1.3965-1.4458s1.3193-.5547,2.1338-.5547h6.6826c.8145,0,1.5254.1851,2.1338.5547s1.0742.8516,1.3975,1.4458c.3223.5947.4844,1.2192.4844,1.874v.2529c0,.6553-.1572,1.2798-.4707,1.874-.3135.5947-.7744,1.0767-1.3828,1.4463s-1.3291.5547-2.1621.5547h-6.6826c-.833,0-1.5537-.1851-2.1621-.5547Zm10.2695-1.0181c.4072-.2432.7158-.5776.9268-1.0034s.3154-.9009.3154-1.4253c0-.5332-.1094-1.0127-.3291-1.439-.2207-.4258-.5312-.7578-.9336-.9966-.4033-.2388-.8711-.3579-1.4043-.3579s-1.002.1191-1.4043.3579-.7139.5708-.9336.9966c-.2197.4263-.3291.9058-.3291,1.439,0,.5244.1045.9995.3154,1.4253s.5195.7603.9268,1.0034c.4072.2437.8818.3652,1.4248.3652s1.0176-.1216,1.4248-.3652Z"/></g></svg>