<?xml version="1.0" encoding="UTF-8"?><svg id="Vrstva_1" xmlns="http://www.w3.org/2000/svg" viewBox="0 0 330 250"><defs><style>.cls-1{fill:#b700ff;}</style></defs><path d="m52.7912,73.7255c.5162-.6793,1.4621-1.329,2.8388-1.9482l3.5353-1.6256c.8944-.413,1.5829-.9419,2.0646-1.587.4814-.6452.7227-1.4409.7227-2.3872,0-1.2044-.34-2.1418-1.0193-2.8129-.68-.6711-1.6218-1.0064-2.8259-1.0064s-2.151.3352-2.8388,1.0064c-.6882.6711-1.032,1.6086-1.032,2.8129h-2.4258c0-1.1183.2321-2.1291.6967-3.0324.4643-.9033,1.1696-1.6212,2.1162-2.1551.946-.5326,2.107-.7995,3.4837-.7995,1.359,0,2.5118.2625,3.4581.7869.946.525,1.6516,1.2259,2.1162,2.1032s.6967,1.8496.6967,2.916v.3612c0,1.3081-.3741,2.4302-1.1228,3.3683-.7483.9374-1.8192,1.7249-3.2127,2.3613l-3.5356,1.6256c-.7916.3612-1.3249.7186-1.6,1.0709-.2755.353-.4127.8388-.4127,1.458v2.3746l-.6711-1.1873h10.787v2.1159h-12.5936v-3.0969c0-1.1354.2581-2.0425.7742-2.7225Z"/><path d="m68.3138,79.0933c-.284-.3005-.4257-.6749-.4257-1.1221s.1417-.8217.4257-1.1228c.2837-.3011.6408-.4516,1.0709-.4516.4298,0,.7872.1505,1.0709.4516.284.3011.426.6756.426,1.1228s-.142.8217-.426,1.1221c-.2837.3011-.6411.4516-1.0709.4516-.4301,0-.7872-.1505-1.0709-.4516Z"/><path d="m74.0041,72.0354l7.8192-11.7937,1.7291,1.3682-7.3033,11.0448.2325.4649h12.1805v1.9609h-14.6579v-3.0451Zm9.8322-5.832h2.3224v13.3416h-2.3224v-13.3416Z"/><path d="m90.5717,72.0354l7.8192-11.7937,1.7291,1.3682-7.3033,11.0448.2325.4649h12.1805v1.9609h-14.6579v-3.0451Zm9.8322-5.832h2.3224v13.3416h-2.3224v-13.3416Z"/><path d="m111.1653,61.9451l1.1354.8773h-5.3162v-2.1159h6.6581v18.8384h-2.4773v-17.5998Z"/><path d="m121.1136,78.9902c-1.0412-.6793-1.8065-1.5611-2.2971-2.6453-.4902-1.0835-.7353-2.236-.7353-3.4581v-.4643c0-1.2385.2492-2.3999.7483-3.484.4988-1.0835,1.2556-1.9609,2.2711-2.632,1.0149-.6711,2.2534-1.0064,3.7162-1.0064,1.4276,0,2.6361.3093,3.6257.9286.989.6199,1.7291,1.4416,2.2193,2.465s.7356,2.1285.7356,3.3158v1.1101h-12.2324v-1.8584h10.4259l-.5677,1.0064c0-.9804-.155-1.8318-.4646-2.5548-.3096-.7224-.7831-1.2771-1.4194-1.6642-.6367-.3871-1.4109-.5807-2.3224-.5807-.964,0-1.7724.2195-2.4258.6578-.654.439-1.1402,1.045-1.4583,1.8192-.3185.7742-.4773,1.6775-.4773,2.7098,0,1.0152.1632,1.9096.4902,2.6839.3267.7742.8258,1.3853,1.4969,1.8325.6708.4472,1.5137.6711,2.5289.6711,1.0494,0,1.9182-.2328,2.6064-.6971.6879-.4643,1.1098-1.0323,1.2648-1.7034h2.3224c-.2926,1.4283-.9893,2.5466-2.0902,3.355-1.1013.8084-2.4688,1.2132-4.1033,1.2132-1.5314,0-2.8173-.3403-3.8579-1.0197Z"/><path d="m134.9071,65.7644h1.9612v5.9098h-.3096c0-2.0298.4001-3.5909,1.1999-4.684.8002-1.0924,2.0001-1.6389,3.6001-1.6389h.1031c1.6,0,2.7999.5465,3.6001,1.6389.7998,1.093,1.1999,2.6541,1.1999,4.684h-.7227c0-2.0298.4086-3.5909,1.2259-4.684.8169-1.0924,2.026-1.6389,3.626-1.6389h.1031c1.6,0,2.8085.5465,3.6257,1.6389.8169,1.093,1.2259,2.6541,1.2259,4.684v7.8707h-2.4773v-8.4128c0-1.1006-.2755-1.9615-.8258-2.5808-.5509-.6193-1.3163-.9286-2.2968-.9286-1.0323,0-1.8543.327-2.4647.9804-.6107.654-.9159,1.5485-.9159,2.6839v8.2578h-2.4777v-8.4128c0-1.1006-.2752-1.9615-.8258-2.5808s-1.316-.9286-2.2968-.9286c-1.0323,0-1.854.327-2.4644.9804-.611.654-.9162,1.5485-.9162,2.6839v8.2578h-2.4773v-13.7806Z"/><path d="m163.4231,59.4162h2.3224l-5.2643,21.6772h-2.3227l5.2646-21.6772Z"/><path d="m170.5714,79.1964c-.9982-.5415-1.755-1.2682-2.2711-2.1804-.5162-.9115-.7742-1.9096-.7742-2.9938h2.4258c0,1.1702.3741,2.0994,1.1228,2.7876.7483.6882,1.7588,1.0323,3.0321,1.0323.8429,0,1.5744-.155,2.1937-.4649.6193-.3093,1.1009-.7521,1.445-1.329.3441-.5762.5162-1.2518.5162-2.026,0-1.1696-.3786-2.1159-1.1354-2.8382-.7572-.723-1.755-1.0842-2.9935-1.0842-.9463,0-1.7464.2239-2.4002.6711l-1.2385-2.2196,7.1999-5.2646-.2581-.4643h-9.1611v-2.1159h11.4838v3.4322l-5.9614,4.3354-1.8065.0772c.6711-.2404,1.4106-.3612,2.2196-.3612,1.3245,0,2.4773.2543,3.4581.7616.9804.5073,1.7287,1.1911,2.2449,2.0513s.7742,1.8065.7742,2.8388v.3612c0,1.0152-.2581,1.9659-.7742,2.8515-.5162.8862-1.2733,1.6003-2.2708,2.1418-.9982.5421-2.1766.8134-3.5356.8134s-2.5378-.2714-3.5353-.8134Z"/><path d="m194.4552,61.3904c1.0579.8002,1.8103,1.8666,2.2579,3.2.4472,1.3334.6711,2.8604.6711,4.5802v1.2391c0,2.9767-.7445,5.2691-2.2322,6.877-1.4884,1.6092-3.6257,2.4131-6.413,2.4131-.9637,0-2.0387-.0689-3.2256-.2062v-2.1165c1.204.1379,2.3135.2068,3.3291.2068,1.5311,0,2.7566-.2884,3.6773-.8647.92-.5762,1.5826-1.4023,1.9871-2.4777.4039-1.0747.6063-2.4125.6063-4.0128v-1.1613l.6196-2.2968c-.0174,1.3252-.2755,2.4391-.7742,3.3423-.4991.9026-1.1917,1.5826-2.0776,2.0387-.8862.4561-1.9141.6838-3.0836.6838-1.3078,0-2.4302-.2669-3.368-.8002s-1.6475-1.2727-2.1288-2.2196c-.482-.9456-.7227-2.0298-.7227-3.2513,0-1.2385.2536-2.3398.7613-3.3031.5073-.9634,1.26-1.7161,2.2582-2.2582.9975-.5421,2.2104-.8128,3.6387-.8128,1.7547,0,3.1611.3998,4.2194,1.1999Zm-6.5677,1.4966c-.637.353-1.1186.8432-1.4454,1.4713-.327.6281-.4902,1.3638-.4902,2.2063,0,1.2733.3568,2.2923,1.0709,3.0577.7138.766,1.7246,1.1487,3.0324,1.1487.8941,0,1.6857-.1632,2.3739-.4902s1.23-.8084,1.6259-1.4454c.3957-.6363.5936-1.4017.5936-2.2968,0-.7913-.1594-1.501-.4776-2.1291-.3185-.6275-.8087-1.1266-1.471-1.4966s-1.4839-.5547-2.4644-.5547c-.9292,0-1.7123.1765-2.3483.5288Z"/><path d="m201.5517,79.0933c-.284-.3005-.4257-.6749-.4257-1.1221s.1417-.8217.4257-1.1228c.2837-.3011.6408-.4516,1.0709-.4516.4298,0,.7872.1505,1.0709.4516.284.3011.426.6756.426,1.1228s-.142.8217-.426,1.1221c-.2837.3011-.6411.4516-1.0709.4516-.4301,0-.7872-.1505-1.0709-.4516Z"/><path d="m211.1645,78.784c-1.1528-.8172-1.9916-1.9141-2.5159-3.2905-.525-1.3764-.7872-2.9331-.7872-4.6713v-1.3935c0-1.7888.2793-3.3759.8388-4.7611.5589-1.3846,1.415-2.477,2.5678-3.2772,1.1522-.8002,2.5975-1.1999,4.3354-1.1999,1.7199,0,3.1614.3998,4.3228,1.1999,1.1607.8002,2.0165,1.8926,2.5675,3.2772.5503,1.3853.8261,2.9723.8261,4.7611v1.3935c0,1.7382-.2625,3.2949-.7875,4.6713s-1.3638,2.4732-2.5163,3.2905c-1.1525.8166-2.6238,1.2259-4.4126,1.2259-1.8065,0-3.2864-.4093-4.4389-1.2259Zm8.3745-2.8648c.8343-1.2126,1.2512-3.1355,1.2512-5.7675,0-2.718-.4213-4.6795-1.2645-5.8839s-2.1506-1.8065-3.9224-1.8065c-1.7895,0-3.1058.6022-3.9483,1.8065-.8432,1.2044-1.2648,3.1482-1.2648,5.832,0,2.6497.4172,4.5853,1.2518,5.8067.8343,1.2214,2.1548,1.8318,3.9613,1.8318,1.7888,0,3.1007-.606,3.9357-1.8192Z"/><path d="m229.9646,78.8611c-1.0582-.8002-1.811-1.8666-2.2582-3.2-.4472-1.3328-.6711-2.8597-.6711-4.5809v-1.2385c0-2.9761.7445-5.2684,2.2322-6.8776,1.4884-1.6079,3.6264-2.4125,6.4133-2.4125.9634,0,2.0387.0689,3.226.2062v2.1165c-1.205-.1379-2.3145-.2068-3.3291-.2068-1.5314,0-2.7572.2884-3.6776.8647-.9203.5769-1.5833,1.4023-1.9874,2.4777s-.606,2.4125-.606,4.0128v1.1613l-.6193,2.2968c.0164-1.3245.2745-2.4391.7736-3.3423s1.1917-1.5826,2.0779-2.0387c.8856-.4554,1.9134-.6838,3.0836-.6838,1.3075,0,2.4296.2669,3.3677.8002.9374.5332,1.6471,1.2733,2.1291,2.2196.4814.9463.7224,2.0298.7224,3.2513,0,1.2385-.2536,2.3398-.7609,3.3031-.5079.964-1.2607,1.7161-2.2582,2.2582-.9982.5421-2.2107.8128-3.6384.8128-1.7553,0-3.1614-.3998-4.2197-1.1999Zm6.5677-1.4966c.6363-.3523,1.1183-.8432,1.4454-1.4713.3264-.6275.4902-1.3631.4902-2.2063,0-1.2727-.3574-2.2923-1.0709-3.0577-.7141-.7654-1.7249-1.1487-3.0324-1.1487-.8944,0-1.6864.1638-2.3739.4902-.6882.327-1.2303.809-1.6263,1.4454s-.5933,1.4023-.5933,2.2968c0,.7913.1588,1.501.4776,2.1291.3182.6281.8084,1.1266,1.4707,1.4966s1.4839.5547,2.465.5547c.9286,0,1.7117-.1758,2.348-.5288Z"/><path d="m250.4412,65.7644h1.9615v5.9611l-.4643-.0512c.0683-1.4276.3738-2.6149.9159-3.5612s1.2474-1.6516,2.1159-2.1165c.8691-.4643,1.8369-.6964,2.9034-.6964,1.2904,0,2.4429.3226,3.4581.9678s1.7977,1.5092,2.3486,2.5934c.5503,1.0835.8255,2.2708.8255,3.5612v.4643c0,1.2904-.2878,2.4777-.8641,3.5612-.5769,1.0842-1.3726,1.9489-2.3872,2.5941-1.0152.6452-2.1595.9678-3.4322.9678-1.0323,0-1.9919-.2239-2.8774-.6711-.8862-.4472-1.6174-1.1613-2.1937-2.1418-.5769-.9811-.8995-2.2196-.9678-3.7162l1.1354,2.0646v9.1611h-2.4777v-18.9421Zm9.4065,11.4193c.6971-.4384,1.2347-1.0488,1.613-1.8318s.568-1.6819.568-2.6972c0-1.0146-.1898-1.9134-.568-2.6965s-.9159-1.3935-1.613-1.8325c-.6964-.4384-1.501-.6578-2.4125-.6578-.8432,0-1.6174.1891-2.3227.5674-.7059.3789-1.2645.921-1.6775,1.6263s-.6193,1.5314-.6193,2.477v1.1873c0,.9121.2106,1.7123.6319,2.3999.4219.6882.9849,1.2132,1.6908,1.5744.7053.3612,1.4707.5421,2.2968.5421.9115,0,1.7161-.2195,2.4125-.6585Z"/><path d="m271.1905,72.2935l-.0778.5162-4.6188-7.0452h2.7351l3.3291,5.1868h.3612l3.1488-5.1868h2.5548l-4.3614,6.8643.0772-.4643,5.1615,7.3805h-2.7357l-3.8712-5.5999h-.3612l-3.7162,5.5999h-2.5548l4.9294-7.2515Z"/><path d="m54.2676,95.1953l.9086.7021h-4.2532v-1.6933h5.3266v15.0722h-1.9821v-14.081Z"/><path d="m60.5753,108.9151c-.2271-.241-.3406-.5402-.3406-.8982s.1135-.6572.3406-.8982.5124-.3612.8568-.3612c.3438,0,.6297.1202.8568.3612s.3406.5402.3406.8982-.1135.6572-.3406.8982-.513.3612-.8568.3612c-.3444,0-.6297-.1202-.8568-.3612Z"/><path d="m73.9127,94.7512c.8463.6401,1.4482,1.4934,1.8065,2.5605.3577,1.0665.5367,2.2885.5367,3.6643v.9912c0,2.3815-.5955,4.2153-1.786,5.5025-1.1908,1.2872-2.9008,1.9305-5.1305,1.9305-.7711,0-1.631-.0557-2.5808-.1657v-1.6927c.963.1101,1.8511.1651,2.6633.1651,1.2249,0,2.2057-.2302,2.9423-.6914.736-.4611,1.266-1.1221,1.5896-1.9824.3232-.8603.4852-1.9305.4852-3.2101v-.9292l.4956-1.8375c-.0139,1.0601-.2204,1.9508-.6193,2.6738-.3995.7224-.9536,1.2663-1.6623,1.6307-.7091.365-1.5314.5471-2.4672.5471-1.0462,0-1.9441-.2132-2.6943-.6401-.7502-.4263-1.3182-1.0184-1.7034-1.7755-.3852-.7565-.5778-1.6237-.5778-2.601,0-.9912.2027-1.8723.6088-2.6428.4061-.7711,1.0083-1.3732,1.8069-1.8065.798-.4339,1.7683-.6509,2.911-.6509,1.4039,0,2.5292.3201,3.3759.9602Zm-5.2545,1.1974c-.5095.2827-.895.6749-1.1563,1.1772-.2616.5022-.3925,1.0911-.3925,1.7654,0,1.0184.2856,1.8337.8571,2.446.5709.6129,1.3796.9191,2.4258.9191.7157,0,1.3489-.1309,1.8995-.3922.5503-.2612.9839-.6471,1.3008-1.1563.3163-.5092.4747-1.1215.4747-1.8375,0-.6332-.1275-1.2006-.3817-1.7034-.2549-.5022-.6474-.9014-1.1772-1.1974s-1.187-.444-1.9716-.444c-.7432,0-1.3698.1417-1.8786.4232Z"/><path d="m81.3761,108.9461c-.8122-.4681-1.428-1.0873-1.8477-1.8584-.42-.7711-.6297-1.5965-.6297-2.4777h1.9406c0,.9634.3131,1.7547.9393,2.3746.6262.6193,1.4558.9286,2.4881.9286,1.0184,0,1.8477-.3093,2.4878-.9286.6401-.6199.9602-1.4112.9602-2.3746,0-.6332-.1445-1.2075-.4336-1.7243-.2891-.5162-.6952-.9216-1.2183-1.2176s-1.1218-.444-1.7961-.444c-.5234,0-1.0427.0898-1.5589.2682-.5162.179-.9327.42-1.249.723h-1.817l.7638-8.0111h7.9077v1.6933h-6.7514l.4956-.6812-.5781,5.8428-.5367-.186c.3988-.413.8878-.7331,1.4659-.9602.5778-.2271,1.2249-.3403,1.9406-.3403,1.1009,0,2.0507.2302,2.8493.6914.798.4611,1.4071,1.0671,1.8271,1.8173.4197.7502.6297,1.5447.6297,2.3847v.2884c0,.84-.2135,1.6351-.6401,2.3847-.4266.7508-1.0497,1.3562-1.8682,1.8173-.8191.4611-1.7793.6914-2.8803.6914-1.1149,0-2.0785-.234-2.8907-.7015Z"/><path d="m93.9498,108.9973c-.7986-.4333-1.4042-1.0146-1.817-1.7445-.413-.7293-.6196-1.5276-.6196-2.3948h1.941c0,.9362.2992,1.6794.8982,2.2297.5987.5503,1.4071.8255,2.4258.8255.6743,0,1.2594-.1233,1.755-.3713s.8808-.6022,1.1563-1.0633c.2752-.4611.4127-1.0013.4127-1.6206,0-.9362-.3027-1.6933-.9083-2.2715-.606-.5781-1.4039-.8672-2.3951-.8672-.7572,0-1.397.179-1.9201.537l-.9909-1.7755,5.7602-4.2121-.2065-.3713h-7.3293v-1.6933h9.1877v2.7459l-4.7694,3.4689-1.4454.062c.5367-.1929,1.1285-.2891,1.7755-.2891,1.0598,0,1.9821.203,2.7667.6091s1.3834.9532,1.7961,1.6414c.413.6882.6196,1.4454.6196,2.2708v.2891c0,.8122-.2065,1.5725-.6196,2.2816-.4127.7091-1.0187,1.2803-1.8167,1.7136-.7986.4339-1.7414.6503-2.8287.6503s-2.0305-.2163-2.8284-.6503Z"/><path d="m106.7815,108.8322c-.8331-.5434-1.4454-1.2493-1.8375-2.1165s-.5883-1.7888-.5883-2.7667v-.3713c0-.9912.1993-1.9204.5987-2.7876.3991-.8666,1.0045-1.5687,1.817-2.1057.8119-.537,1.8027-.8052,2.9729-.8052,1.1424,0,2.1092.248,2.9008.7432.7913.4959,1.3834,1.1531,1.7755,1.9716.3925.8191.5886,1.7034.5886,2.6535v.8875h-9.7867v-1.4865h8.3413l-.4542.8052c0-.7844-.124-1.4656-.3716-2.0437-.248-.5781-.6265-1.0222-1.1357-1.3321-.5092-.3093-1.1288-.4643-1.8581-.4643-.7711,0-1.4178.1752-1.9406.5263-.5234.3511-.9121.8362-1.1667,1.4555-.2549.6199-.3821,1.3423-.3821,2.1684,0,.8122.1309,1.5276.3925,2.1468.2612.6199.6607,1.1082,1.1974,1.4662s1.211.5364,2.0235.5364c.8394,0,1.5345-.1853,2.0852-.5573.5503-.3713.8878-.8255,1.0118-1.3625h1.8581c-.234,1.1424-.7916,2.0374-1.6724,2.6839-.8808.6471-1.9751.9703-3.2826.9703-1.2252,0-2.2541-.272-3.0868-.8153Z"/><path d="m117.8171,98.2511h1.569v4.7276h-.2476c0-1.6237.3201-2.873.9599-3.7472.6401-.8735,1.6003-1.3113,2.8803-1.3113h.0825c1.2803,0,2.2401.4377,2.8803,1.3113.6401.8742.9602,2.1234.9602,3.7472h-.5781c0-1.6237.3267-2.873.9808-3.7472.6534-.8735,1.6206-1.3113,2.9008-1.3113h.0825c1.2799,0,2.2468.4377,2.9008,1.3113.6534.8742.9808,2.1234.9808,3.7472v6.2976h-1.9821v-6.7309c0-.8805-.2204-1.5693-.6607-2.0646-.4409-.4953-1.0532-.7432-1.8375-.7432-.8261,0-1.4836.2612-1.9719.7844-.4886.5231-.7328,1.2391-.7328,2.1475v6.6069h-1.9821v-6.7309c0-.8805-.2204-1.5693-.6607-2.0646-.4409-.4953-1.0532-.7432-1.8375-.7432-.8261,0-1.4833.2612-1.9719.7844s-.7328,1.2391-.7328,2.1475v6.6069h-1.9821v-11.0252Z"/><path d="m140.631,93.1718h1.8584l-4.2121,17.343h-1.8581l4.2118-17.343Z"/><path d="m146.3501,108.9973c-.7986-.4333-1.4042-1.0146-1.817-1.7445-.413-.7293-.6196-1.5276-.6196-2.3948h1.941c0,.9362.2992,1.6794.8982,2.2297.5987.5503,1.4071.8255,2.4258.8255.6743,0,1.2594-.1233,1.755-.3713s.8808-.6022,1.1563-1.0633c.2752-.4611.4127-1.0013.4127-1.6206,0-.9362-.3027-1.6933-.9083-2.2715-.606-.5781-1.4039-.8672-2.3951-.8672-.7572,0-1.397.179-1.9201.537l-.9909-1.7755,5.7602-4.2121-.2065-.3713h-7.3293v-1.6933h9.1877v2.7459l-4.7694,3.4689-1.4454.062c.5367-.1929,1.1285-.2891,1.7755-.2891,1.0598,0,1.9821.203,2.7667.6091s1.3834.9532,1.7961,1.6414c.413.6882.6196,1.4454.6196,2.2708v.2891c0,.8122-.2065,1.5725-.6196,2.2816-.4127.7091-1.0187,1.2803-1.8167,1.7136-.7986.4339-1.7414.6503-2.8287.6503s-2.0305-.2163-2.8284-.6503Z"/><path d="m159.8941,95.1953l.9086.7021h-4.2532v-1.6933h5.3266v15.0722h-1.9821v-14.081Z"/><path d="m166.2018,108.9151c-.2271-.241-.3406-.5402-.3406-.8982s.1135-.6572.3406-.8982.5124-.3612.8568-.3612c.3438,0,.6297.1202.8568.3612s.3406.5402.3406.8982-.1135.6572-.3406.8982-.513.3612-.8568.3612c-.3444,0-.6297-.1202-.8568-.3612Z"/><path d="m171.9516,104.6201c.4127-.5434,1.1696-1.0633,2.2711-1.5586l2.8284-1.3005c.7157-.3308,1.2663-.754,1.6519-1.2701.3852-.5162.5781-1.1525.5781-1.9096,0-.9634-.272-1.7136-.8157-2.2506-.544-.537-1.2977-.8052-2.2607-.8052-.9637,0-1.7208.2682-2.2711.8052-.5506.537-.8258,1.2872-.8258,2.2506h-1.941c0-.8944.186-1.7034.5576-2.4258.3716-.723.9358-1.2973,1.693-1.7243.7568-.4263,1.6857-.6401,2.7873-.6401,1.087,0,2.0093.21,2.7664.63.7568.42,1.3214.9804,1.693,1.6826s.5576,1.4795.5576,2.3328v.2891c0,1.0462-.2995,1.9444-.8982,2.6946s-1.4555,1.3802-2.5703,1.8894l-2.8287,1.3005c-.6332.2891-1.0598.575-1.2799.8571-.2204.2821-.3305.6705-.3305,1.1664v1.8995l-.5367-.9501h8.6304v1.6933h-10.0758v-2.4777c0-.9083.2065-1.6345.6196-2.1785Z"/><path d="m186.1563,108.9461c-.8122-.4681-1.428-1.0873-1.8477-1.8584-.42-.7711-.6297-1.5965-.6297-2.4777h1.9406c0,.9634.3131,1.7547.9393,2.3746.6262.6193,1.4558.9286,2.4881.9286,1.0184,0,1.8477-.3093,2.4878-.9286.6401-.6199.9602-1.4112.9602-2.3746,0-.6332-.1445-1.2075-.4336-1.7243-.2891-.5162-.6952-.9216-1.2183-1.2176s-1.1218-.444-1.7961-.444c-.5234,0-1.0427.0898-1.5589.2682-.5162.179-.9327.42-1.249.723h-1.817l.7638-8.0111h7.9077v1.6933h-6.7514l.4956-.6812-.5781,5.8428-.5367-.186c.3988-.413.8878-.7331,1.4659-.9602.5778-.2271,1.2249-.3403,1.9406-.3403,1.1009,0,2.0507.2302,2.8493.6914.798.4611,1.4071,1.0671,1.8271,1.8173.4197.7502.6297,1.5447.6297,2.3847v.2884c0,.84-.2135,1.6351-.6401,2.3847-.4266.7508-1.0497,1.3562-1.8682,1.8173-.8191.4611-1.7793.6914-2.8803.6914-1.1149,0-2.0785-.234-2.8907-.7015Z"/><path d="m201.992,98.2511h1.569v4.7694l-.3716-.0417c.055-1.1424.2995-2.0918.7331-2.849.4336-.7565.9978-1.3214,1.693-1.6933.6948-.3713,1.4691-.5573,2.3227-.5573,1.0323,0,1.9542.2581,2.7664.7742s1.4384,1.2082,1.879,2.0754c.4402.8666.6607,1.8167.6607,2.849v.3713c0,1.0329-.2306,1.9824-.6917,2.8496s-1.0978,1.5586-1.9096,2.0747c-.8125.5162-1.7278.7742-2.7462.7742-.8258,0-1.5934-.179-2.3021-.5364-.7091-.358-1.2939-.9292-1.7547-1.7142-.4614-.7844-.7195-1.7755-.7745-2.9729l.9086,1.6516v7.3299h-1.9821v-15.1544Zm7.5257,9.1358c.5573-.3511.9874-.8394,1.2904-1.4656.3027-.6262.4542-1.3454.4542-2.1576s-.1515-1.5314-.4542-2.1576c-.303-.6262-.7331-1.1152-1.2904-1.4662-.5576-.3511-1.2012-.5263-1.9305-.5263-.6746,0-1.2939.1518-1.8581.4542-.5645.303-1.0118.7363-1.3423,1.3005-.3302.5649-.4953,1.2252-.4953,1.9824v.9494c0,.73.1683,1.3701.5057,1.9204.3371.5509.7878.9703,1.3524,1.2594.5642.2891,1.1768.4333,1.8375.4333.7293,0,1.3729-.1752,1.9305-.5263Z"/><path d="m218.5915,103.4746l-.062.413-3.6956-5.6366h2.1889l2.663,4.1495h.2891l2.5188-4.1495h2.0444l-3.4891,5.4917.0614-.3713,4.1299,5.9048h-2.1886l-3.0969-4.4803h-.2891l-2.9736,4.4803h-2.0437l3.9433-5.8017Z"/><path d="m53.4254,121.7962l.7268.5617h-3.4028v-1.3543h4.2614v12.0575h-1.5855v-11.2649Z"/><path d="m58.4711,132.772c-.1815-.1929-.2726-.432-.2726-.7186s.0911-.5256.2726-.7186c.1819-.1923.4102-.2891.6854-.2891s.5038.0968.6857.2891c.1815.1929.2726.432.2726.7186s-.0911.5256-.2726.7186c-.1819.1929-.4105.2891-.6857.2891s-.5035-.0961-.6854-.2891Z"/><path d="m64.2276,132.7967c-.6499-.3745-1.1427-.8697-1.4786-1.4865s-.5035-1.2771-.5035-1.9824h1.5526c0,.7711.2502,1.4042.7515,1.8995.501.4959,1.1645.7432,1.9903.7432.8147,0,1.4782-.2473,1.9903-.7432.512-.4953.7682-1.1285.7682-1.8995,0-.506-.1158-.9659-.3469-1.3789s-.5563-.7375-.9744-.9747c-.4187-.2366-.8976-.3549-1.4371-.3549-.4187,0-.834.0715-1.2471.2144-.413.1436-.7461.3365-.9994.5781h-1.4533l.611-6.4083h6.326v1.3543h-5.401l.3963-.5453-.4624,4.6745-.4295-.1486c.3191-.3302.7103-.5864,1.1727-.7679s.9798-.2726,1.5526-.2726c.8808,0,1.6405.1847,2.2794.5535.6386.3688,1.1256.8533,1.4618,1.4536.3359.6003.5038,1.236.5038,1.9077v.2309c0,.6718-.1708,1.3075-.512,1.9077-.3416.6003-.84,1.0848-1.495,1.4536s-1.4232.5535-2.304.5535c-.8919,0-1.663-.1872-2.3123-.5617Z"/><path d="m74.6743,132.6234c-.6775-.5124-1.1591-1.1949-1.4454-2.0482-.2865-.8533-.4295-1.8306-.4295-2.9318v-.7932c0-1.9046.4763-3.3721,1.4289-4.4012.9523-1.0298,2.3205-1.5447,4.1046-1.5447.6164,0,1.3046.0443,2.0646.1322v1.3543c-.7711-.0879-1.4811-.1322-2.1307-.1322-.9804,0-1.7648.1847-2.3537.5535-.5892.3688-1.0133.8976-1.272,1.5858s-.3881,1.544-.3881,2.5681v.7432l-.3963,1.47c.0108-.8476.1758-1.5605.4953-2.1386s.7625-1.0133,1.3296-1.3049,1.2249-.4377,1.9738-.4377c.8369,0,1.5554.1708,2.1557.5117.6.3416,1.0541.8153,1.3625,1.4207.3084.606.4627,1.2992.4627,2.0811,0,.7932-.1629,1.4979-.4874,2.1146-.3248.6167-.8068,1.0981-1.4454,1.4447-.6386.3473-1.415.5206-2.329.5206-1.1231,0-2.0232-.2562-2.7003-.7679Zm4.2036-.9583c.4074-.2252.7157-.5389.9251-.9412.2091-.4017.3137-.8729.3137-1.4125,0-.8147-.2287-1.4669-.6857-1.9571-.457-.4896-1.1038-.735-1.9406-.735-.5728,0-1.0794.105-1.5197.3137-.4406.2094-.7872.5174-1.0405.9248-.2533.408-.3798.8976-.3798,1.47,0,.5067.1018.9608.3055,1.3631.2037.4017.5174.7211.9415.9577.4238.2372.9498.3555,1.5772.3555.5949,0,1.0956-.1132,1.5032-.339Z"/><path d="m85.1707,132.8378c-.6386-.3466-1.1231-.8116-1.4533-1.3954-.3305-.5838-.4956-1.2227-.4956-1.916h1.5526c0,.7489.2394,1.3435.7186,1.7838.4788.4402,1.1256.6604,1.9406.6604.5396,0,1.0076-.0987,1.4039-.2973.3966-.198.7047-.4814.9251-.8501.2201-.3694.3302-.8014.3302-1.2967,0-.7489-.2423-1.3549-.7265-1.8173-.4848-.4624-1.1234-.6933-1.9163-.6933-.6057,0-1.1177.143-1.5358.4295l-.7929-1.4207,4.6084-3.3695-.1654-.2973h-5.8637v-1.3543h7.3501v2.1968l-3.8152,2.775-1.1563.0493c.4295-.1543.9026-.2315,1.4204-.2315.8479,0,1.5858.1626,2.2133.4877.6278.3245,1.1066.7622,1.4371,1.3132.3302.5503.4956,1.1557.4956,1.8167v.2309c0,.6503-.1654,1.2588-.4956,1.8255-.3305.5674-.815,1.0241-1.4536,1.3707-.6389.3473-1.3932.5206-2.2629.5206s-1.6244-.1733-2.2629-.5206Z"/><path d="m95.4362,132.7056c-.6664-.4346-1.1563-.9988-1.47-1.6927s-.4706-1.4314-.4706-2.2133v-.2973c0-.7932.1594-1.5364.4788-2.2297.3194-.6939.8036-1.2556,1.4536-1.6851.6496-.4295,1.4425-.6439,2.3784-.6439.914,0,1.6873.198,2.3208.5946.6332.396,1.1066.9222,1.4204,1.5769.3141.6553.4709,1.3631.4709,2.1228v.7103h-7.8293v-1.1892h6.673l-.3634.6439c0-.6275-.099-1.1727-.2973-1.6351s-.5013-.8179-.9083-1.0652c-.4077-.248-.9033-.3719-1.4868-.3719-.6167,0-1.1341.1404-1.5526.4213s-.7296.6692-.933,1.1645c-.204.4953-.3058,1.0734-.3058,1.7344,0,.6496.1047,1.2221.3141,1.7174.2091.4959.5285.8868.958,1.1727.4295.2865.9687.4295,1.6187.4295.6714,0,1.2278-.1486,1.668-.4459.4406-.2973.7103-.6604.8093-1.0899h1.4868c-.1875.914-.6335,1.6294-1.3381,2.1468-.7047.5181-1.5801.7768-2.626.7768-.9801,0-1.8034-.2176-2.4694-.6528Z"/><path d="m104.2649,124.241h1.2553v3.782h-.1983c0-1.2986.2562-2.298.7682-2.9976.512-.699,1.2799-1.0488,2.304-1.0488h.0661c1.0241,0,1.792.3498,2.304,1.0488.512.6996.7682,1.699.7682,2.9976h-.4627c0-1.2986.2616-2.298.7847-2.9976.5228-.699,1.2967-1.0488,2.3208-1.0488h.0661c1.0238,0,1.7974.3498,2.3205,1.0488.5228.6996.7847,1.699.7847,2.9976v5.0382h-1.5858v-5.3848c0-.7047-.1762-1.255-.5285-1.6516-.3526-.3966-.8422-.5946-1.47-.5946-.6607,0-1.1866.2094-1.5772.6275-.3912.4187-.5864.9912-.5864,1.718v5.2855h-1.5858v-5.3848c0-.7047-.1762-1.255-.5285-1.6516-.3526-.3966-.8425-.5946-1.47-.5946-.6607,0-1.1866.2094-1.5776.6275-.3909.4187-.5864.9912-.5864,1.718v5.2855h-1.5855v-8.8202Z"/><path d="m122.5163,120.1775h1.4865l-3.3695,13.8742h-1.4865l3.3695-13.8742Z"/><path d="m126.1664,129.3361c.3302-.4346.9358-.8501,1.817-1.2467l2.2626-1.0405c.5725-.2644,1.013-.6028,1.3214-1.0159s.4627-.9222.4627-1.5276c0-.7711-.2176-1.3714-.6525-1.8008-.4352-.4295-1.038-.6439-1.8088-.6439s-1.3764.2144-1.817.6439-.6607,1.0298-.6607,1.8008h-1.5526c0-.716.1486-1.3631.4459-1.9413s.7489-1.0374,1.3546-1.3789c.6053-.3409,1.3486-.5124,2.2297-.5124.8697,0,1.6076.1683,2.2133.5041s1.0573.7844,1.3546,1.346.4459,1.1841.4459,1.8666v.2309c0,.8369-.2394,1.5554-.7186,2.1557-.4788.6003-1.1645,1.1038-2.0564,1.5111l-2.2629,1.0405c-.5067.2315-.8479.4599-1.0241.6857s-.2641.537-.2641.933v1.52l-.4295-.7597h6.9042v1.3543h-8.0605v-1.9824c0-.7268.1651-1.3075.4956-1.7427Z"/><path d="m137.5303,132.7967c-.6499-.3745-1.1427-.8697-1.4786-1.4865s-.5035-1.2771-.5035-1.9824h1.5526c0,.7711.2502,1.4042.7515,1.8995.501.4959,1.1645.7432,1.9903.7432.8147,0,1.4782-.2473,1.9903-.7432.512-.4953.7682-1.1285.7682-1.8995,0-.506-.1158-.9659-.3469-1.3789s-.5563-.7375-.9744-.9747c-.4187-.2366-.8976-.3549-1.4371-.3549-.4187,0-.834.0715-1.2471.2144-.413.1436-.7461.3365-.9994.5781h-1.4533l.611-6.4083h6.326v1.3543h-5.401l.3963-.5453-.4624,4.6745-.4295-.1486c.3191-.3302.7103-.5864,1.1727-.7679s.9798-.2726,1.5526-.2726c.8808,0,1.6405.1847,2.2794.5535.6386.3688,1.1256.8533,1.4618,1.4536.3359.6003.5038,1.236.5038,1.9077v.2309c0,.6718-.1708,1.3075-.512,1.9077-.3416.6003-.84,1.0848-1.495,1.4536s-1.4232.5535-2.304.5535c-.8919,0-1.663-.1872-2.3123-.5617Z"/><path d="m146.3913,132.772c-.1815-.1929-.2726-.432-.2726-.7186s.0911-.5256.2726-.7186c.1819-.1923.4102-.2891.6854-.2891s.5038.0968.6857.2891c.1815.1929.2726.432.2726.7186s-.0911.5256-.2726.7186c-.1819.1929-.4105.2891-.6857.2891s-.5035-.0961-.6854-.2891Z"/><path d="m152.544,132.5734c-.7379-.5225-1.2746-1.2246-1.6105-2.1057-.3359-.8805-.5038-1.8774-.5038-2.9894v-.8919c0-1.1455.179-2.1614.537-3.0476.3574-.8862.9055-1.5858,1.6433-2.0975.7375-.5124,1.6626-.7685,2.775-.7685,1.1009,0,2.0232.2562,2.7664.7685.7432.5117,1.291,1.2113,1.6437,2.0975.3523.8862.5285,1.9021.5285,3.0476v.8919c0,1.112-.1679,2.1089-.5038,2.9894-.3359.8811-.8729,1.5833-1.6105,2.1057-.7379.5231-1.6794.785-2.8243.785-1.1563,0-2.1035-.2619-2.8411-.785Zm5.3598-1.8331c.5339-.7761.8011-2.0071.8011-3.6915,0-1.7401-.2701-2.9951-.8093-3.7662-.5396-.7704-1.3767-1.1563-2.5106-1.1563-1.1455,0-1.9878.3859-2.5273,1.1563-.5396.7711-.8093,2.0153-.8093,3.7333,0,1.6958.2669,2.9344.8011,3.7162.5339.7818,1.3793,1.1727,2.5355,1.1727,1.1449,0,1.9846-.3884,2.5188-1.1645Z"/><path d="m164.8162,132.5734c-.7379-.5225-1.2746-1.2246-1.6105-2.1057-.3359-.8805-.5038-1.8774-.5038-2.9894v-.8919c0-1.1455.179-2.1614.537-3.0476.3574-.8862.9055-1.5858,1.6433-2.0975.7375-.5124,1.6626-.7685,2.775-.7685,1.1009,0,2.0232.2562,2.7664.7685.7432.5117,1.291,1.2113,1.6437,2.0975.3523.8862.5285,1.9021.5285,3.0476v.8919c0,1.112-.1679,2.1089-.5038,2.9894-.3359.8811-.8729,1.5833-1.6105,2.1057-.7379.5231-1.6794.785-2.8243.785-1.1563,0-2.1035-.2619-2.8411-.785Zm5.3598-1.8331c.5339-.7761.8011-2.0071.8011-3.6915,0-1.7401-.2701-2.9951-.8093-3.7662-.5396-.7704-1.3767-1.1563-2.5106-1.1563-1.1455,0-1.9878.3859-2.5273,1.1563-.5396.7711-.8093,2.0153-.8093,3.7333,0,1.6958.2669,2.9344.8011,3.7162.5339.7818,1.3793,1.1727,2.5355,1.1727,1.1449,0,1.9846-.3884,2.5188-1.1645Z"/><path d="m179.0706,124.241h1.2553v3.8155l-.2973-.0335c.0436-.9134.2394-1.6731.5864-2.279.3466-.6053.7983-1.057,1.3543-1.3543s1.1753-.4459,1.8581-.4459c.8261,0,1.5636.2062,2.2136.6193.6496.413,1.1503.9659,1.5029,1.6598.3523.6939.5285,1.4536.5285,2.2797v.2973c0,.8255-.1844,1.5858-.5532,2.279-.3691.6939-.8783,1.2474-1.5279,1.6604-.6499.4124-1.3821.6193-2.1968.6193-.6607,0-1.2746-.1436-1.8416-.4295-.5674-.2865-1.0352-.7432-1.4039-1.3707-.3691-.6281-.5756-1.4207-.6196-2.379l.7268,1.3214v5.8637h-1.5855v-12.1233Zm6.0205,7.3084c.4459-.2802.7897-.6711,1.0323-1.1727.2419-.5003.3634-1.076.3634-1.7256s-.1214-1.2252-.3634-1.7262c-.2426-.501-.5864-.8919-1.0323-1.1727s-.9608-.4213-1.5444-.4213c-.5399,0-1.0352.1214-1.4868.3637s-.8093.5889-1.0734,1.0405c-.2644.4516-.3966.9798-.3966,1.5851v.7603c0,.5838.1347,1.0956.4048,1.5358.2698.4409.6303.7761,1.082,1.0076.4513.2315.9412.3466,1.47.3466.5835,0,1.0984-.1404,1.5444-.4213Z"/><path d="m192.3502,128.4195l-.0493.3302-2.9568-4.5088h1.7509l2.1307,3.3196h.2312l2.0153-3.3196h1.6351l-2.7914,4.3936.0497-.2973,3.3034,4.7238h-1.7509l-2.4777-3.5846h-.2312l-2.3784,3.5846h-1.6354l3.1548-4.6416Z"/><path d="m52.7514,143.0768l.5813.4497h-2.7218v-1.0835h3.4091v9.6456h-1.2686v-9.0118Z"/><path d="m56.7879,151.8577c-.1452-.1543-.2179-.346-.2179-.575s.0727-.4206.2179-.575c.1455-.1537.3283-.2309.5484-.2309s.4029.0772.5484.2309c.1455.1543.2179.346.2179.575s-.0724.4206-.2179.575-.3283.2309-.5484.2309-.4029-.0765-.5484-.2309Z"/><path d="m60.4684,149.1093c.2641-.3479.7486-.6806,1.4533-.9982l1.8103-.8324c.458-.2113.8106-.482,1.0573-.8122.2464-.3308.37-.7382.37-1.2227,0-.6161-.1743-1.0968-.5222-1.4403s-.8302-.5149-1.4469-.5149-1.1013.1714-1.4533.5149c-.3526.3435-.5288.8242-.5288,1.4403h-1.242c0-.5725.1189-1.0899.3568-1.5523s.599-.8305,1.0835-1.1038c.4845-.2726,1.0791-.4093,1.7838-.4093.6958,0,1.2863.1341,1.7708.4029.4842.2688.8457.6275,1.0835,1.0766.2378.4497.3568.9475.3568,1.4934v.1847c0,.6699-.1917,1.2448-.575,1.7249-.383.4801-.9314.883-1.6449,1.2088l-1.8103.8324c-.4051.1853-.6784.3681-.8191.5484-.1411.1809-.2116.4295-.2116.7464v1.2157l-.3435-.6079h5.5234v1.0835h-6.4484v-1.5858c0-.5813.1322-1.0456.3966-1.3935Z"/><path d="m69.559,151.8773c-.5199-.2992-.914-.6958-1.1825-1.1892-.2688-.4934-.4029-1.0216-.4029-1.5858h1.242c0,.6167.2002,1.1234.6012,1.5194.4007.3966.9314.5952,1.5921.5952.6518,0,1.1829-.1986,1.5924-.5952.4096-.396.6145-.9026.6145-1.5194,0-.4048-.0927-.773-.2777-1.1032s-.4447-.5902-.7796-.7799c-.3349-.1891-.7179-.284-1.1496-.284-.3346,0-.667.0576-.9975.1721-.3302.1145-.5968.2688-.7995.4624h-1.1626l.489-5.1267h5.0606v1.0835h-4.3209l.3172-.4365-.37,3.7396-.3435-.1189c.2552-.2644.568-.4693.9381-.6142.37-.1455.784-.2182,1.2423-.2182.7047,0,1.3122.1474,1.8233.4428.5108.2954.9007.6825,1.1696,1.1626.2685.4801.4029.9893.4029,1.5263v.1847c0,.5377-.1366,1.0462-.4096,1.5263-.2733.4801-.6718.8678-1.1958,1.1626-.5244.2954-1.1389.4428-1.8435.4428-.7135,0-1.3302-.1499-1.8499-.4491Z"/><path d="m77.7055,151.8046c-.5332-.3479-.9251-.7995-1.1762-1.3543s-.3764-1.1449-.3764-1.7705v-.2378c0-.6344.1275-1.229.383-1.7844.2555-.5547.643-1.0038,1.1629-1.3473.5196-.3435,1.1538-.5155,1.9027-.5155.7312,0,1.3498.1588,1.8565.4757s.8852.7382,1.1364,1.2619c.2511.5244.3767,1.0899.3767,1.6977v.5687h-6.2634v-.9513h5.3383l-.2907.5149c0-.5022-.0791-.9381-.2378-1.3081-.1585-.37-.401-.654-.7268-.852-.3258-.1986-.7224-.2973-1.1892-.2973-.4934,0-.9074.112-1.242.3365-.3349.2252-.5838.5351-.7467.9317s-.2445.859-.2445,1.3878c0,.5199.0838.9773.2511,1.3739s.4229.7091.7663.9381c.3438.2296.7752.3441,1.2951.3441.537,0,.982-.1189,1.3347-.3574.352-.2378.568-.5282.6474-.8716h1.1892c-.1499.7312-.5067,1.3037-1.0703,1.7174-.5639.4143-1.2641.6212-2.101.6212-.7844,0-1.4425-.1739-1.9754-.5218Z"/><path d="m84.7681,145.0326h1.0042v3.0261h-.1585c0-1.0393.2046-1.8388.6142-2.3986.4099-.5592,1.0241-.8388,1.8435-.8388h.0528c.8191,0,1.4337.2796,1.8432.8388.4096.5598.6145,1.3593.6145,2.3986h-.37c0-1.0393.2091-1.8388.6278-2.3986.4181-.5592,1.0371-.8388,1.8565-.8388h.0528c.8191,0,1.4381.2796,1.8565.8388.4181.5598.6275,1.3593.6275,2.3986v4.0299h-1.2682v-4.3076c0-.5636-.1411-1.0045-.4229-1.3214-.2821-.3169-.674-.4757-1.1762-.4757-.5285,0-.9491.1676-1.2619.5022s-.469.7926-.469,1.3739v4.2285h-1.2686v-4.3076c0-.5636-.1411-1.0045-.4229-1.3214-.2821-.3169-.674-.4757-1.1759-.4757-.5285,0-.9494.1676-1.2619.5022-.3128.3346-.469.7926-.469,1.3739v4.2285h-1.2686v-7.056Z"/><path d="m99.3691,141.782h1.1892l-2.6956,11.0998h-1.1895l2.6959-11.0998Z"/><path d="m102.2892,149.1093c.2641-.3479.7486-.6806,1.4533-.9982l1.8103-.8324c.458-.2113.8106-.482,1.0573-.8122.2464-.3308.37-.7382.37-1.2227,0-.6161-.1743-1.0968-.5222-1.4403s-.8302-.5149-1.4469-.5149-1.1013.1714-1.4533.5149c-.3526.3435-.5288.8242-.5288,1.4403h-1.242c0-.5725.1189-1.0899.3568-1.5523s.599-.8305,1.0835-1.1038c.4845-.2726,1.0791-.4093,1.7838-.4093.6958,0,1.2863.1341,1.7708.4029.4842.2688.8457.6275,1.0835,1.0766.2378.4497.3568.9475.3568,1.4934v.1847c0,.6699-.1917,1.2448-.575,1.7249-.383.4801-.9314.883-1.6449,1.2088l-1.8103.8324c-.4051.1853-.6784.3681-.8191.5484-.1411.1809-.2116.4295-.2116.7464v1.2157l-.3435-.6079h5.5234v1.0835h-6.4484v-1.5858c0-.5813.1322-1.0456.3966-1.3935Z"/><path d="m111.6973,151.6989c-.5902-.4181-1.0197-.9798-1.2885-1.6845s-.4029-1.5023-.4029-2.3923v-.7135c0-.9159.1433-1.7287.4295-2.4378s.7246-1.2682,1.3147-1.6781c.5902-.4093,1.3302-.6142,2.2199-.6142.8808,0,1.6187.2049,2.2133.6142.5946.4099,1.0329.9691,1.3147,1.6781s.4229,1.5219.4229,2.4378v.7135c0,.89-.1344,1.6876-.4029,2.3923-.2688.7047-.6983,1.2663-1.2885,1.6845s-1.3432.6275-2.2594.6275c-.9248,0-1.6826-.2094-2.2727-.6275Zm4.288-1.4669c.427-.6212.6408-1.6054.6408-2.9533,0-1.3916-.216-2.3961-.6474-3.0128-.4317-.6161-1.1013-.9248-2.0086-.9248-.9162,0-1.5902.3087-2.0216.9248-.4317.6167-.6474,1.6123-.6474,2.9869,0,1.3562.2135,2.3474.6408,2.9729s1.1035.9381,2.0282.9381c.9162,0,1.5877-.3106,2.0153-.9317Z"/><path d="m120.0548,151.8577c-.1452-.1543-.2179-.346-.2179-.575s.0727-.4206.2179-.575c.1455-.1537.3283-.2309.5484-.2309s.4029.0772.5484.2309c.1455.1543.2179.346.2179.575s-.0724.4206-.2179.575-.3283.2309-.5484.2309-.4029-.0765-.5484-.2309Z"/><path d="m124.9769,151.6989c-.5902-.4181-1.0197-.9798-1.2885-1.6845s-.4029-1.5023-.4029-2.3923v-.7135c0-.9159.1433-1.7287.4295-2.4378s.7246-1.2682,1.3147-1.6781c.5902-.4093,1.3302-.6142,2.2199-.6142.8808,0,1.6187.2049,2.2133.6142.5946.4099,1.0329.9691,1.3147,1.6781s.4229,1.5219.4229,2.4378v.7135c0,.89-.1344,1.6876-.4029,2.3923-.2688.7047-.6983,1.2663-1.2885,1.6845s-1.3432.6275-2.2594.6275c-.9248,0-1.6826-.2094-2.2727-.6275Zm4.288-1.4669c.427-.6212.6408-1.6054.6408-2.9533,0-1.3916-.216-2.3961-.6474-3.0128-.4317-.6161-1.1013-.9248-2.0086-.9248-.9162,0-1.5902.3087-2.0216.9248-.4317.6167-.6474,1.6123-.6474,2.9869,0,1.3562.2135,2.3474.6408,2.9729s1.1035.9381,2.0282.9381c.9162,0,1.5877-.3106,2.0153-.9317Z"/><path d="m134.7949,151.6989c-.5902-.4181-1.0197-.9798-1.2885-1.6845s-.4029-1.5023-.4029-2.3923v-.7135c0-.9159.1433-1.7287.4295-2.4378s.7246-1.2682,1.3147-1.6781c.5902-.4093,1.3302-.6142,2.2199-.6142.8808,0,1.6187.2049,2.2133.6142.5946.4099,1.0329.9691,1.3147,1.6781s.4229,1.5219.4229,2.4378v.7135c0,.89-.1344,1.6876-.4029,2.3923-.2688.7047-.6983,1.2663-1.2885,1.6845s-1.3432.6275-2.2594.6275c-.9248,0-1.6826-.2094-2.2727-.6275Zm4.288-1.4669c.427-.6212.6408-1.6054.6408-2.9533,0-1.3916-.216-2.3961-.6474-3.0128-.4317-.6161-1.1013-.9248-2.0086-.9248-.9162,0-1.5902.3087-2.0216.9248-.4317.6167-.6474,1.6123-.6474,2.9869,0,1.3562.2135,2.3474.6408,2.9729s1.1035.9381,2.0282.9381c.9162,0,1.5877-.3106,2.0153-.9317Z"/><path d="m146.1983,145.0326h1.0042v3.0526l-.2378-.0266c.0351-.7312.1917-1.3391.469-1.8236.2777-.4845.6386-.8457,1.0835-1.0835.4447-.2378.9403-.3568,1.4865-.3568.6607,0,1.2509.1651,1.7708.4953.5196.3308.9203.773,1.2025,1.3283.2818.5547.4229,1.1626.4229,1.8236v.2378c0,.6604-.1477,1.2682-.4428,1.823-.2951.5554-.7024.9982-1.2221,1.3283-.5199.3302-1.1057.4953-1.7575.4953-.5285,0-1.0197-.1145-1.4735-.3435s-.828-.5946-1.1231-1.0968-.4605-1.136-.4956-1.9027l.5816,1.057v4.6909h-1.2686v-9.6988Zm4.8165,5.8472c.3568-.2246.6319-.537.8258-.9381.1936-.401.2907-.8609.2907-1.3808s-.0971-.9798-.2907-1.3808c-.1939-.401-.469-.7135-.8258-.9387-.3571-.2246-.7689-.3365-1.2357-.3365-.4317,0-.828.0968-1.1892.2903-.3615.1942-.6474.4719-.859.8324-.2113.3618-.3169.7844-.3169,1.2689v.6079c0,.4668.1075.8767.3235,1.229.2157.3523.5041.6205.8656.8059.3609.1847.753.2777,1.1759.2777.4668,0,.8786-.1126,1.2357-.3371Z"/><path d="m156.8222,148.3756l-.0399.2644-2.3651-3.6074h1.4008l1.7044,2.656h.185l1.612-2.656h1.3081l-2.2329,3.515.0395-.2378,2.6428,3.7788h-1.4008l-1.9821-2.8673h-.185l-1.9027,2.8673h-1.3081l2.5238-3.713Z"/><path class="cls-1" d="m52.2121,160.1016l.4652.3593h-2.1775v-.8666h2.7272v7.7164h-1.0149v-7.2091Z"/><path class="cls-1" d="m56.2873,167.0836c-.4263-.2783-.7398-.6395-.9406-1.0835s-.3014-.9159-.3014-1.4163v-.1904c0-.5073.1022-.983.3065-1.427s.5146-.8033.9305-1.0785c.4156-.2745.9229-.4124,1.5222-.4124.5848,0,1.0797.1271,1.4852.3808.4051.2536.7081.5902.909,1.0095s.3014.8723.3014,1.3581v.4548h-5.0107v-.7609h4.2706l-.2325.4118c0-.4017-.0636-.7502-.1904-1.0462s-.3207-.5231-.5813-.6819c-.2609-.1588-.5781-.2378-.9513-.2378-.3947,0-.7262.0898-.9937.2695-.2679.1796-.4671.4282-.5974.7451-.1303.3175-.1955.6876-.1955,1.1101,0,.4162.067.7825.2008,1.0994.1338.3175.3384.5674.6132.7508s.6199.2745,1.0358.2745c.4298,0,.7859-.0949,1.0677-.2853s.4545-.4225.5181-.6977h.9513c-.1199.5851-.4055,1.0431-.8561,1.3745-.4513.3308-1.0114.4965-1.681.4965-.6272,0-1.1541-.1392-1.5804-.4175Z"/><path class="cls-1" d="m61.9375,161.6659h.8033v2.4207h-.1268c0-.8312.1638-1.4707.4915-1.9185s.8195-.6711,1.4748-.6711h.0424c.6553,0,1.1468.2233,1.4745.6711s.4918,1.0873.4918,1.9185h-.296c0-.8312.1673-1.4707.5019-1.9185s.8299-.6711,1.4852-.6711h.0424c.6553,0,1.1506.2233,1.4852.6711s.5022,1.0873.5022,1.9185v3.2241h-1.0149v-3.4461c0-.451-.1129-.8033-.3384-1.057s-.5389-.3808-.9406-.3808c-.4229,0-.7597.1341-1.0095.4017-.2502.2682-.3754.6344-.3754,1.0994v3.3828h-1.0146v-3.4461c0-.451-.1129-.8033-.3384-1.057s-.5392-.3808-.9409-.3808c-.4229,0-.7594.1341-1.0095.4017-.2502.2682-.3751.6344-.3751,1.0994v3.3828h-1.0149v-5.6448Z"/><path class="cls-1" d="m73.6183,159.0655h.9513l-2.1563,8.8796h-.9513l2.1563-8.8796Z"/><path class="cls-1" d="m76.9904,160.1016l.4652.3593h-2.1775v-.8666h2.7272v7.7164h-1.0149v-7.2091Z"/><path class="cls-1" d="m81.2347,167.0305c-.4333-.3277-.7417-.7641-.9248-1.3106-.1834-.5459-.2748-1.1715-.2748-1.8761v-.5073c0-1.2195.3046-2.1582.9143-2.8173.6095-.6591,1.4852-.9887,2.6269-.9887.3944,0,.835.0285,1.3214.0848v.8666c-.4934-.0563-.9482-.0841-1.3638-.0841-.6275,0-1.1294.1177-1.5064.3536-.377.2366-.6484.575-.8141,1.0152s-.2483.988-.2483,1.644v.4757l-.2536.9406c.007-.5427.1126-.9988.3169-1.3688s.488-.6484.8511-.8356c.3628-.1866.784-.2796,1.2632-.2796.5354,0,.9953.1088,1.3796.3277.384.2182.6746.5212.872.909s.296.8318.296,1.3321c0,.5073-.1041.9583-.3118,1.353s-.5162.7028-.9248.9248c-.4089.222-.9058.3327-1.4906.3327-.7189,0-1.2948-.1638-1.7284-.4915Zm2.6905-.6129c.2606-.1442.458-.3454.5917-.6022.1338-.2574.2008-.5585.2008-.9039,0-.5218-.1461-.9393-.4387-1.2531-.2926-.3131-.7065-.47-1.242-.47-.3666,0-.6907.067-.9725.2005-.2821.1341-.5038.3315-.6661.5921s-.2432.5743-.2432.9406c0,.3245.0652.6155.1958.8723.1303.2574.3311.4618.6025.6129.271.1518.6079.2277,1.0095.2277.3805,0,.7012-.0721.9621-.217Z"/><path class="cls-1" d="m87.186,167.126c-.1161-.1233-.1743-.2764-.1743-.4599s.0582-.3365.1743-.4599c.1164-.1233.2625-.1853.439-.1853.1758,0,.3223.062.4387.1853.1161.1233.1743.2764.1743.4599s-.0582.3365-.1743.4599c-.1164.1233-.2628.1847-.4387.1847-.1765,0-.3226-.0614-.439-.1847Z"/><path class="cls-1" d="m91.1239,166.9989c-.4722-.3346-.816-.7837-1.0307-1.3479-.2151-.5636-.3223-1.2012-.3223-1.9128v-.5712c0-.7325.1142-1.3827.3435-1.9501.229-.5674.5794-1.0152,1.0516-1.3429s1.0643-.4915,1.7762-.4915c.7047,0,1.2948.1638,1.7705.4915s.8261.7755,1.0519,1.3429c.2255.5674.3381,1.2176.3381,1.9501v.5712c0,.7116-.1075,1.3492-.3223,1.9128-.2151.5642-.5585,1.0133-1.0307,1.3479s-1.0747.5022-1.8075.5022c-.7401,0-1.3464-.1676-1.8182-.5022Zm3.4303-1.1734c.3416-.4965.5127-1.2841.5127-2.3625,0-1.1133-.1727-1.9166-.5181-2.41s-.8811-.7401-1.6067-.7401c-.7331,0-1.2724.2467-1.6174.7401-.3454.4934-.5181,1.2898-.5181,2.3891,0,1.0854.1708,1.878.5127,2.3784s.8827.7502,1.6228.7502c.7328,0,1.2701-.248,1.612-.7451Z"/><path class="cls-1" d="m98.9782,166.9989c-.4722-.3346-.816-.7837-1.0307-1.3479-.2151-.5636-.3223-1.2012-.3223-1.9128v-.5712c0-.7325.1142-1.3827.3435-1.9501.229-.5674.5794-1.0152,1.0516-1.3429s1.0643-.4915,1.7762-.4915c.7047,0,1.2948.1638,1.7705.4915s.8261.7755,1.0519,1.3429c.2255.5674.3381,1.2176.3381,1.9501v.5712c0,.7116-.1075,1.3492-.3223,1.9128-.2151.5642-.5585,1.0133-1.0307,1.3479s-1.0747.5022-1.8075.5022c-.7401,0-1.3464-.1676-1.8182-.5022Zm3.4303-1.1734c.3416-.4965.5127-1.2841.5127-2.3625,0-1.1133-.1727-1.9166-.5181-2.41s-.8811-.7401-1.6067-.7401c-.7331,0-1.2724.2467-1.6174.7401-.3454.4934-.5181,1.2898-.5181,2.3891,0,1.0854.1708,1.878.5127,2.3784s.8827.7502,1.6228.7502c.7328,0,1.2701-.248,1.612-.7451Z"/><path class="cls-1" d="m108.1007,161.6659h.8033v2.4422l-.1901-.0215c.0278-.5851.1531-1.0709.3751-1.4586s.5108-.6768.8669-.8672c.3558-.1898.7521-.2853,1.1892-.2853.5285,0,1.0007.1322,1.4166.3966.4156.2644.7363.6186.9618,1.062.2255.444.3384.9305.3384,1.4593v.1904c0,.5282-.118,1.0146-.3542,1.4586-.2359.444-.562.7983-.9776,1.062-.4159.2644-.8846.3966-1.4061.3966-.4229,0-.8157-.0917-1.1787-.2745-.3628-.1834-.6623-.4757-.8985-.878-.2359-.4017-.3681-.909-.3963-1.5219l.4652.8457v3.7529h-1.0149v-7.7594Zm3.8531,4.6776c.2853-.1796.5057-.4295.6607-.7502s.2325-.6888.2325-1.1051c0-.4156-.0775-.7837-.2325-1.1044s-.3754-.5712-.6607-.7508-.6148-.2695-.9883-.2695c-.3454,0-.6626.0778-.9513.2328-.2891.155-.5181.377-.6873.6661s-.2536.6268-.2536,1.0146v.4864c0,.3732.0863.7009.259.983s.4032.4965.6923.6446.6025.222.9409.222c.3735,0,.7031-.0898.9883-.2695Z"/><path class="cls-1" d="m116.5998,164.3403l-.0316.2113-1.8922-2.8857h1.1205l1.3634,2.1247h.148l1.2898-2.1247h1.0465l-1.7866,2.8116.0319-.1898,2.114,3.0229h-1.1205l-1.5855-2.2936h-.148l-1.5222,2.2936h-1.0465l2.0191-2.9704Z"/><path d="m51.9164,179.2392c-.3779-.2676-.6528-.6268-.8245-1.0779-.1721-.451-.2581-.9615-.2581-1.5308v-.4567c0-.5864.0917-1.1063.2748-1.5605.1831-.4535.4637-.8116.8416-1.0741.3776-.2619.8511-.3928,1.4207-.3928.5636,0,1.0361.1309,1.4166.3928.3805.2625.661.6205.8413,1.0741.1806.4542.2707.9741.2707,1.5605v.4567c0,.5693-.086,1.0797-.2581,1.5308s-.4469.8103-.8245,1.0779c-.3776.2682-.8596.4017-1.446.4017-.5921,0-1.0769-.1335-1.4545-.4017Zm2.7443-.9387c.2733-.3972.4102-1.0272.4102-1.89,0-.8906-.1382-1.5333-.4146-1.928-.2761-.3947-.7047-.5921-1.2853-.5921-.5864,0-1.0178.1974-1.2939.5921-.2764.3947-.4143,1.0317-.4143,1.9109,0,.8685.1366,1.5029.4102,1.9033.2733.4004.7059.6003,1.298.6003.5864,0,1.0162-.1986,1.2898-.5965Z"/><path d="m57.2652,179.341c-.093-.0987-.1395-.2214-.1395-.3681,0-.1461.0465-.2688.1395-.3675s.21-.148.3511-.148c.1407,0,.2578.0493.3511.148.093.0987.1395.2214.1395.3675,0,.1467-.0465.2695-.1395.3681-.0933.0987-.2103.148-.3511.148-.1411,0-.2581-.0493-.3511-.148Z"/><path d="m60.2378,179.4043c-.3438-.1575-.6117-.3789-.8033-.6635s-.2875-.6104-.2875-.9773c0-.2366.0465-.4567.1395-.6591.093-.203.2242-.3783.3934-.5244.1689-.1467.3634-.2625.5835-.3473v-.0841c-.2707-.1183-.4905-.2903-.6597-.5162-.1692-.2252-.2536-.4902-.2536-.7951,0-.3435.0914-.6408.2748-.8919.1831-.2505.4327-.444.7483-.5794s.6626-.203,1.0402-.203c.3833,0,.7315.0677,1.0443.203.3131.1354.5611.3289.7442.5794.1831.2511.2748.5484.2748.8919,0,.3106-.0832.5769-.2492.7995-.1664.2227-.3877.3934-.6639.5117v.0841c.2198.0848.4143.2005.5835.3473.1689.1461.3014.3213.3972.5244.0958.2024.1439.4225.1439.6591,0,.3726-.0974.6996-.2919.9811-.1945.2821-.4637.5022-.8074.6597-.3441.1575-.736.2366-1.1756.2366s-.8318-.0791-1.1756-.2366Zm1.9663-.6047c.2227-.0987.3934-.2397.5117-.4225.1183-.1834.1774-.3991.1774-.6471s-.0579-.4624-.1733-.6427-.2846-.3201-.5073-.4187c-.223-.0987-.4893-.148-.7992-.148-.3046,0-.568.0493-.7907.148s-.3919.2385-.5073.4187c-.1158.1803-.1736.3947-.1736.6427s.0579.4637.1736.6471c.1154.1828.2846.3239.5073.4225s.4861.148.7907.148.568-.0493.7907-.148Zm.1395-3.1754c.2255-.1695.3384-.4232.3384-.7609,0-.3327-.1142-.5838-.3425-.7527-.2283-.1695-.537-.2536-.926-.2536-.3947,0-.7047.0841-.9302.2536-.2255.1689-.3384.42-.3384.7527,0,.3378.1142.5914.3425.7609.2283.1689.537.2536.926.2536.3947,0,.7047-.0848.9302-.2536Z"/><path d="m65.5442,179.3069c-.3409-.2227-.5917-.5117-.7524-.8666-.161-.3555-.2413-.7331-.2413-1.1335v-.1518c0-.4061.0819-.7869.2454-1.1417.1635-.3555.4115-.6427.7442-.8628.3327-.2195.7385-.3296,1.2176-.3296.4681,0,.8641.1012,1.1882.3043s.5668.4725.7274.8078.241.6977.241,1.0867v.3637h-4.0087v-.6091h3.4167l-.186.3302c0-.322-.0509-.6009-.1521-.8375-.1015-.2366-.2568-.4187-.4652-.5453-.2087-.1271-.4624-.1904-.7613-.1904-.3156,0-.5807.0715-.7948.2157-.2144.1436-.3735.3422-.4779.5959s-.1566.5497-.1566.8881c0,.3327.0538.6256.1607.8799.1072.2536.2707.4535.4905.6003.2201.1467.4962.2195.8289.2195.3438,0,.6284-.0759.8539-.2283.2255-.1518.3637-.3378.4146-.5579h.7609c-.0958.4681-.3242.8343-.685,1.0994s-.809.3972-1.3445.3972c-.5019,0-.9232-.1113-1.2645-.334Z"/><path d="m70.0647,174.9727h.6427v1.9368h-.1015c0-.6654.1313-1.1765.3934-1.5352.2622-.3574.6553-.537,1.1797-.537h.0338c.5244,0,.9175.1796,1.1797.537.2622.3587.3931.8697.3931,1.5352h-.2366c0-.6654.1338-1.1765.4017-1.5352.2676-.3574.6639-.537,1.1879-.537h.0338c.5244,0,.9203.1796,1.1882.537.2679.3587.4017.8697.4017,1.5352v2.5795h-.8119v-2.7572c0-.3605-.0901-.6427-.2704-.8457-.1806-.203-.4314-.3043-.7527-.3043-.3384,0-.6076.1069-.8078.3213s-.3001.5073-.3001.8792v2.7066h-.8119v-2.7572c0-.3605-.0901-.6427-.2704-.8457-.1806-.203-.4314-.3043-.7527-.3043-.3384,0-.6076.1069-.8078.3213s-.3001.5073-.3001.8792v2.7066h-.8119v-4.5163Z"/><path d="m79.4092,172.8923h.7613l-1.7253,7.1041h-.7613l1.7253-7.1041Z"/><path d="m82.107,173.7215l.3719.2872h-1.742v-.6933h2.182v6.1736h-.8119v-5.7675Z"/><path d="m84.8298,177.5819c.1692-.2227.4792-.4358.9305-.6382l1.1585-.5332c.2932-.1354.5187-.3087.6765-.5199s.2369-.4719.2369-.7825c0-.3941-.1113-.7015-.334-.9216-.223-.2201-.5317-.3296-.926-.3296-.3947,0-.705.1094-.9305.3296s-.3381.5275-.3381.9216h-.7951c0-.3662.0762-.6977.2283-.9937.1524-.296.3833-.5313.6936-.7059.3099-.1746.6904-.2619,1.1417-.2619.4453,0,.8229.086,1.1332.2574.3099.1721.5411.4017.6933.6895.1524.2878.2283.606.2283.9558v.1183c0,.4282-.1224.7964-.3678,1.1038-.2451.3074-.5962.5649-1.0529.7736l-1.1585.5326c-.2593.1183-.4342.2353-.5244.3511s-.1354.2752-.1354.4776v.778l-.2198-.389h3.535v.6939h-4.127v-1.0152c0-.3719.0848-.6692.2536-.8919Z"/><path d="m89.9167,179.341c-.093-.0987-.1395-.2214-.1395-.3681,0-.1461.0465-.2688.1395-.3675s.21-.148.3511-.148c.1407,0,.2578.0493.3511.148.093.0987.1395.2214.1395.3675,0,.1467-.0465.2695-.1395.3681-.0933.0987-.2103.148-.3511.148-.1411,0-.2581-.0493-.3511-.148Z"/><path d="m92.889,179.4043c-.3438-.1575-.6117-.3789-.8033-.6635s-.2875-.6104-.2875-.9773c0-.2366.0465-.4567.1395-.6591.093-.203.2242-.3783.3934-.5244.1689-.1467.3634-.2625.5835-.3473v-.0841c-.2707-.1183-.4905-.2903-.6597-.5162-.1692-.2252-.2536-.4902-.2536-.7951,0-.3435.0914-.6408.2748-.8919.1831-.2505.4327-.444.7483-.5794s.6626-.203,1.0402-.203c.3833,0,.7315.0677,1.0443.203.3131.1354.5611.3289.7442.5794.1831.2511.2748.5484.2748.8919,0,.3106-.0832.5769-.2492.7995-.1664.2227-.3877.3934-.6639.5117v.0841c.2198.0848.4143.2005.5835.3473.1689.1461.3014.3213.3972.5244.0958.2024.1439.4225.1439.6591,0,.3726-.0974.6996-.2919.9811-.1945.2821-.4637.5022-.8074.6597-.3441.1575-.736.2366-1.1756.2366s-.8318-.0791-1.1756-.2366Zm1.9663-.6047c.2227-.0987.3934-.2397.5117-.4225.1183-.1834.1774-.3991.1774-.6471s-.0579-.4624-.1733-.6427-.2846-.3201-.5073-.4187c-.223-.0987-.4893-.148-.7992-.148-.3046,0-.568.0493-.7907.148s-.3919.2385-.5073.4187c-.1158.1803-.1736.3947-.1736.6427s.0579.4637.1736.6471c.1154.1828.2846.3239.5073.4225s.4861.148.7907.148.568-.0493.7907-.148Zm.1395-3.1754c.2255-.1695.3384-.4232.3384-.7609,0-.3327-.1142-.5838-.3425-.7527-.2283-.1695-.537-.2536-.926-.2536-.3947,0-.7047.0841-.9302.2536-.2255.1689-.3384.42-.3384.7527,0,.3378.1142.5914.3425.7609.2283.1689.537.2536.926.2536.3947,0,.7047-.0848.9302-.2536Z"/><path d="m98.4538,179.2392c-.3779-.2676-.6528-.6268-.8245-1.0779-.1721-.451-.2581-.9615-.2581-1.5308v-.4567c0-.5864.0917-1.1063.2748-1.5605.1831-.4535.4637-.8116.8416-1.0741.3776-.2619.8511-.3928,1.4207-.3928.5636,0,1.0361.1309,1.4166.3928.3805.2625.661.6205.8413,1.0741.1806.4542.2707.9741.2707,1.5605v.4567c0,.5693-.086,1.0797-.2581,1.5308s-.4469.8103-.8245,1.0779c-.3776.2682-.8596.4017-1.446.4017-.5921,0-1.0769-.1335-1.4545-.4017Zm2.7443-.9387c.2733-.3972.4102-1.0272.4102-1.89,0-.8906-.1382-1.5333-.4146-1.928-.2761-.3947-.7047-.5921-1.2853-.5921-.5864,0-1.0178.1974-1.2939.5921-.2764.3947-.4143,1.0317-.4143,1.9109,0,.8685.1366,1.5029.4102,1.9033.2733.4004.7059.6003,1.298.6003.5864,0,1.0162-.1986,1.2898-.5965Z"/><path d="m105.7517,174.9727h.6427v1.9539l-.1521-.0171c.0225-.4681.1227-.8571.3001-1.167.1777-.3099.4086-.5415.6936-.6933.2846-.1524.6015-.2283.9513-.2283.4229,0,.8005.1056,1.1332.3169s.5889.4946.7695.8501c.1803.3549.2707.7439.2707,1.167v.1518c0,.4232-.0946.8122-.2834,1.167-.1888.3555-.4497.6389-.7821.8501-.3327.2113-.7078.3169-1.125.3169-.3381,0-.6525-.0734-.9428-.2195-.2903-.1467-.5301-.3808-.7189-.7021s-.2948-.7274-.3172-1.2176l.3723.6762v3.0027h-.8119v-6.2078Zm3.0824,3.7421c.2283-.1436.4045-.3435.5288-.6003.124-.2562.186-.5509.186-.8837s-.062-.6268-.186-.8837c-.1243-.2568-.3005-.4567-.5288-.6003-.2283-.1442-.4918-.2157-.7907-.2157-.2761,0-.5298.062-.7609.186s-.4143.3017-.5497.5326c-.1354.2315-.203.5022-.203.8122v.389c0,.2986.0689.5611.2072.7862.1382.2258.3226.3972.5541.5162.2309.1183.482.1771.7524.1771.2989,0,.5623-.0715.7907-.2157Z"/><path d="m112.5512,177.1126l-.0253.1689-1.514-2.3088h.8966l1.0908,1.7003h.1183l1.032-1.7003h.8372l-1.4292,2.25.0253-.1524,1.6914,2.4188h-.8963l-1.2686-1.835h-.1186l-1.2176,1.835h-.8372l1.6152-2.3765Z"/><path d="m51.5442,189.0316c-.302-.2144-.5222-.5016-.6594-.8628-.1379-.3605-.2065-.7692-.2065-1.2246v-.365c0-.4693.0734-.8856.2198-1.2486.1467-.3631.371-.6496.6733-.859.302-.21.6809-.3144,1.1367-.3144.4507,0,.8286.1044,1.1332.3144.3043.2094.5285.4959.673.859.1442.3631.2166.7793.2166,1.2486v.365c0,.4554-.0689.8641-.2065,1.2246-.1376.3612-.3574.6484-.6597.8628-.302.2138-.6876.3213-1.1566.3213-.4738,0-.8615-.1075-1.1639-.3213Zm2.1956-.7508c.2185-.3182.328-.8223.328-1.5124,0-.7129-.1104-1.2265-.3315-1.5428-.2211-.3156-.5639-.4731-1.0282-.4731-.4693,0-.8144.1575-1.0352.4731-.2211.3163-.3315.8255-.3315,1.5295,0,.6945.1091,1.2018.328,1.5219.2189.3207.5649.4807,1.0386.4807.469,0,.8128-.1594,1.0317-.4769Z"/><path d="m55.8236,189.1125c-.0746-.0791-.1116-.1771-.1116-.2941,0-.1177.037-.2157.1116-.2941.0743-.0791.1679-.1189.2805-.1189.1129,0,.2065.0399.2808.1189.0743.0784.1116.1765.1116.2941,0,.117-.0373.2151-.1116.2941s-.1679.1183-.2808.1183c-.1126,0-.2062-.0392-.2805-.1183Z"/><path d="m58.2453,189.0518c-.2774-.21-.4747-.4896-.5921-.8388-.1173-.3498-.1758-.7502-.1758-1.2012v-.3245c0-.7806.1951-1.3815.5854-1.8034.39-.4213.9504-.6325,1.681-.6325.2527,0,.5345.0183.8457.0544v.5547c-.3156-.0361-.6066-.0544-.8726-.0544-.4017,0-.723.0759-.9643.2271s-.4149.3675-.5209.649c-.106.2821-.1588.6325-.1588,1.0525v.3043l-.1626.6022c.0044-.3473.0721-.6395.203-.8761.1306-.2372.3122-.4149.5446-.5345.2321-.1196.5016-.1796.8084-.1796.3428,0,.637.0702.883.21.2457.1398.4317.334.5582.5819.1262.248.1894.532.1894.852,0,.3251-.0667.6136-.1999.8659-.1328.253-.3302.4504-.5917.5921-.2616.1423-.5797.2132-.9539.2132-.4602,0-.8289-.105-1.1063-.3144Zm1.7218-.3928c.167-.0924.2932-.2208.3789-.3852s.1287-.3574.1287-.5788c0-.3333-.0939-.6009-.2808-.8014-.1872-.2005-.4523-.3011-.7951-.3011-.2344,0-.4418.043-.6224.1284-.1803.086-.3223.2119-.426.3789-.1041.167-.1556.3675-.1556.6022,0,.2075.0414.3934.1249.5579.0835.1651.2122.296.3859.3928s.389.1455.6461.1455c.2435,0,.4485-.0462.6155-.1392Z"/><path d="m61.7736,187.2623l2.0498-3.0919.4535.3587-1.9147,2.8958.0607.1214h3.1934v.5143h-3.8427v-.7983Zm2.5776-1.5289h.6088v3.4973h-.6088v-3.4973Z"/><path d="m66.939,189.0853c-.2729-.1777-.4738-.4093-.6022-.6933s-.1929-.5864-.1929-.9064v-.1221c0-.3245.0655-.6287.1964-.9134.1306-.284.3292-.5143.5952-.6901s.5908-.2638.9741-.2638c.3745,0,.6914.0816.9507.2435.2593.1626.4532.3783.5819.6465.1284.2682.1926.5579.1926.8691v.291h-3.2067v-.4871h2.7332l-.149.2638c0-.2568-.0405-.4801-.1218-.6699-.081-.1891-.2053-.3346-.3719-.4365-.167-.1012-.37-.1518-.6091-.1518-.2524,0-.4646.0576-.6357.1721-.1714.1151-.2989.2745-.3824.4769-.0835.203-.1252.4402-.1252.711,0,.2657.043.5003.1287.7034s.2163.3631.3922.4801c.1762.1177.3969.1758.6632.1758.2752,0,.5029-.0607.6831-.1822.1806-.1221.291-.2707.3318-.4466h.6088c-.0769.3745-.2593.6673-.5481.8792s-.6471.3182-1.0756.3182c-.4017,0-.7388-.0892-1.0114-.2676Z"/><path d="m70.5549,185.6184h.5143v1.5491h-.0813c0-.532.105-.9412.3147-1.2278s.5244-.4295.9438-.4295h.0269c.4197,0,.7341.143.9438.4295.21.2865.3147.6958.3147,1.2278h-.1894c0-.532.1072-.9412.3213-1.2278s.5313-.4295.9507-.4295h.0269c.4197,0,.7363.143.9507.4295.2141.2865.3213.6958.3213,1.2278v2.0634h-.6496v-2.2057c0-.2884-.0721-.5136-.2163-.6762-.1445-.1626-.3451-.2435-.6022-.2435-.2707,0-.4861.0854-.6461.2568s-.24.4061-.24.704v2.1646h-.6496v-2.2057c0-.2884-.0721-.5136-.2163-.6762-.1445-.1626-.3451-.2435-.6022-.2435-.2707,0-.4861.0854-.6461.2568s-.24.4061-.24.704v2.1646h-.6496v-3.6124Z"/><path d="m78.0309,183.9541h.6088l-1.3802,5.6828h-.6088l1.3802-5.6828Z"/><path d="m80.1888,184.617l.2976.2296h-1.3938v-.5547h1.7455v4.9389h-.6493v-4.6138Z"/><path d="m83.0033,189.0316c-.302-.2144-.5222-.5016-.6594-.8628-.1379-.3605-.2065-.7692-.2065-1.2246v-.365c0-.4693.0734-.8856.2198-1.2486.1467-.3631.371-.6496.6733-.859.302-.21.6809-.3144,1.1367-.3144.4507,0,.8286.1044,1.1332.3144.3043.2094.5285.4959.673.859.1442.3631.2166.7793.2166,1.2486v.365c0,.4554-.0689.8641-.2065,1.2246-.1376.3612-.3574.6484-.6597.8628-.302.2138-.6876.3213-1.1566.3213-.4738,0-.8615-.1075-1.1639-.3213Zm2.1956-.7508c.2185-.3182.328-.8223.328-1.5124,0-.7129-.1104-1.2265-.3315-1.5428-.2211-.3156-.5639-.4731-1.0282-.4731-.4693,0-.8144.1575-1.0352.4731-.2211.3163-.3315.8255-.3315,1.5295,0,.6945.1091,1.2018.328,1.5219.2189.3207.5649.4807,1.0386.4807.469,0,.8128-.1594,1.0317-.4769Z"/><path d="m87.2825,189.1125c-.0746-.0791-.1116-.1771-.1116-.2941,0-.1177.037-.2157.1116-.2941.0743-.0791.1679-.1189.2805-.1189.1129,0,.2065.0399.2808.1189.0743.0784.1116.1765.1116.2941,0,.117-.0373.2151-.1116.2941s-.1679.1183-.2808.1183c-.1126,0-.2062-.0392-.2805-.1183Z"/><path d="m89.1665,187.7051c.1354-.1777.3833-.3479.7445-.5105l.9267-.4263c.2344-.1082.4149-.2467.5411-.4162.1265-.1689.1894-.3776.1894-.6256,0-.3156-.0889-.5617-.2672-.7375-.1781-.1758-.4251-.2638-.7407-.2638s-.5639.0879-.7442.2638c-.1806.1758-.2707.4219-.2707.7375h-.6357c0-.2935.0607-.5579.1825-.7951.1218-.2366.3068-.4251.5547-.5649s.5525-.2094.9134-.2094c.3561,0,.6585.0683.9067.2062.248.1373.433.3213.5547.5509.1218.2302.1825.4852.1825.7647v.0949c0,.3428-.098.637-.2941.883-.1964.2454-.4769.4516-.8425.6186l-.9267.4263c-.2075.0949-.3473.1885-.4194.2808-.0724.0924-.1085.2201-.1085.3821v.6224l-.1758-.3112h2.8281v.5547h-3.3016v-.8116c0-.2979.0677-.5358.2027-.7141Z"/><path d="m92.9551,187.2623l2.0498-3.0919.4535.3587-1.9147,2.8958.0607.1214h3.1934v.5143h-3.8427v-.7983Zm2.5776-1.5289h.6088v3.4973h-.6088v-3.4973Z"/><path d="m99.1388,185.6184h.5143v1.5624l-.1218-.0133c.018-.3745.098-.6857.24-.9336s.327-.4327.5547-.5547c.2277-.1214.4814-.1828.7613-.1828.3381,0,.6404.0848.9064.2536.266.1695.4712.396.6158.68.1442.284.2163.5952.2163.9336v.1221c0,.3384-.0756.6496-.2264.9336-.1512.284-.3599.5105-.6259.68-.2663.1689-.5661.2536-.8998.2536-.2707,0-.5222-.0588-.7543-.1758-.2325-.1177-.4241-.3049-.575-.5617-.1512-.2568-.2359-.5819-.254-.9741l.2979.5408v2.4018h-.6496v-4.9655Zm2.466,2.9938c.1828-.1151.3235-.2752.4229-.4807.0993-.2049.149-.4409.149-.7065,0-.2663-.0497-.5022-.149-.7072-.0993-.2056-.24-.3656-.4229-.4807-.1825-.1145-.3934-.1721-.6325-.1721-.2211,0-.4241.0493-.6088.1486-.185.0993-.3315.2416-.4399.4263-.1082.1847-.1622.4017-.1622.6496v.3112c0,.2391.055.4485.1657.6287.1104.1809.2581.3182.4431.413.185.0942.3859.1417.6022.1417.2391,0,.4501-.0576.6325-.1721Z"/><path d="m104.5784,187.33l-.0202.1354-1.2113-1.847h.7173l.8726,1.36h.0949l.8255-1.36h.6695l-1.1433,1.7996.0202-.1221,1.3533,1.9349h-.7173l-1.0146-1.4681h-.0949l-.9741,1.4681h-.6699l1.2923-1.9008Z"/></svg>