<?xml version="1.0" encoding="UTF-8"?><svg id="Vrstva_1" xmlns="http://www.w3.org/2000/svg" viewBox="0 0 330 200"><path d="m77.7762,90.5367c-1.918-1.2627-3.3325-2.9014-4.2437-4.9155-.9111-2.0137-1.3667-4.1553-1.3667-6.4253v-.8154c0-2.3018.4629-4.4595,1.3906-6.4736.9268-2.0137,2.3257-3.644,4.1958-4.8911,1.8701-1.2466,4.1636-1.8701,6.8813-1.8701,2.6206,0,4.8506.5757,6.689,1.7266,1.8379,1.1509,3.2129,2.6694,4.124,4.5552.9111,1.8867,1.3667,3.9321,1.3667,6.1382v2.0137h-22.7295v-3.3086h19.5166l-1.0068,1.7744c0-1.8223-.2959-3.4121-.8872-4.7715-.5918-1.3584-1.4946-2.4048-2.7095-3.1406-1.2153-.7354-2.6694-1.103-4.3633-1.103-1.8223,0-3.3491.416-4.5796,1.2466-1.231.832-2.1504,1.9746-2.7573,3.4287-.6074,1.4551-.9111,3.1411-.9111,5.0591s.3115,3.6045.9351,5.0591c.6235,1.4551,1.5659,2.606,2.8291,3.4526,1.2627.8472,2.8535,1.2705,4.7715,1.2705,1.9819,0,3.6201-.439,4.915-1.3188,1.2949-.8789,2.0859-1.9575,2.3735-3.2368h4.1719c-.5439,2.6221-1.8306,4.6836-3.8599,6.186-2.0308,1.5024-4.564,2.2539-7.6006,2.2539-2.8457,0-5.2271-.6318-7.145-1.894Z"/><path d="m107.6986,78.0929l-.144.959-8.6313-13.043h4.8911l6.2817,9.6865h.6714l5.9458-9.6865h4.5557l-8.1519,12.7075.144-.8633,9.6382,13.7144h-4.8911l-7.2886-10.4536h-.6714l-7.001,10.4536h-4.5557l9.207-13.4746Z"/><path d="m125.1049,66.0089h8.3438v3.5005h-8.3438v-3.5005Zm2.9487-4.9873c-.4956-.5107-.7432-1.1821-.7432-2.0137,0-.8633.2476-1.5503.7432-2.062.4956-.5112,1.2231-.7671,2.1821-.7671s1.6938.2559,2.2056.7671c.5112.5117.7676,1.1831.7676,2.0142,0,.8628-.2563,1.5508-.7676,2.0615-.5117.5122-1.2466.7676-2.2056.7676s-1.6865-.2554-2.1821-.7676Zm.9834,4.9873h4.4116v25.5586h-4.4116v-25.5586Z"/><path d="m141.8641,90.2008c-1.8389-1.4219-2.7896-3.3804-2.8535-5.874h4.1719c.0317,1.1831.5674,2.1816,1.6064,2.9971,1.0386.8149,2.6294,1.2227,4.7715,1.2227,2.0454,0,3.6279-.3994,4.7471-1.1987,1.1187-.7988,1.6787-1.8379,1.6787-3.1172,0-1.0864-.4077-1.9336-1.2231-2.5415-.8149-.6064-2.1182-1.0068-3.9082-1.1987l-2.8291-.2876c-2.5254-.2876-4.5156-1.0386-5.9697-2.2539-1.4551-1.2144-2.1821-2.8604-2.1821-4.939,0-1.5981.415-2.9805,1.2471-4.1479.8306-1.1665,1.9731-2.062,3.4282-2.6851,1.4546-.6235,3.1245-.9351,5.0112-.9351,2.9409,0,5.2822.6553,7.0249,1.9658,1.7422,1.311,2.645,3.1816,2.7095,5.6104h-4.1719c-.0645-1.1187-.5679-2.0298-1.5107-2.7329-.9434-.7031-2.2939-1.0552-4.0518-1.0552-1.7266,0-3.0771.3677-4.0522,1.103-.9751.7358-1.4624,1.6948-1.4624,2.877,0,.9912.3433,1.7827,1.0312,2.3735.687.5923,1.7656.9673,3.2368,1.127l2.7812.2876c2.8447.2881,5.0664,1.0552,6.665,2.3018,1.5981,1.2471,2.3979,2.9575,2.3979,5.1309,0,1.5347-.4482,2.9253-1.3428,4.1719-.8955,1.2471-2.1504,2.2144-3.7642,2.9014-1.6147.687-3.4453,1.0308-5.4907,1.0308-3.293,0-5.8584-.7114-7.6963-2.1338Z"/><path d="m162.9388,66.0089h17.5503v3.3086h-17.5503v-3.3086Zm8.6553,24.9834c-1.3589-.5757-2.3975-1.5107-3.1167-2.8057-.7192-1.2944-1.0791-3.0283-1.0791-5.2026v-24.7915h4.2197v25.3188c0,1.4072.3838,2.4863,1.1509,3.2368.7676.7515,1.8379,1.127,3.2129,1.127h4.5073v3.98h-3.9316c-1.9507,0-3.605-.2876-4.9634-.8628Z"/><path d="m187.7772,89.3619c-1.6304-1.9819-2.4453-4.8271-2.4453-8.5356v-14.8652h4.4116v15.7764c0,2.0459.5513,3.644,1.6543,4.7949s2.5967,1.7266,4.4834,1.7266c1.9819,0,3.5801-.6309,4.7954-1.894,1.2144-1.2627,1.8223-2.9648,1.8223-5.1069v-15.2969h4.4595v25.6064h-3.5005v-10.9331h.5752c0,3.8047-.7671,6.7056-2.3018,8.7031-1.5342,1.9985-3.8047,2.9971-6.8091,2.9971h-.1919c-3.0054,0-5.3228-.9902-6.9531-2.9727Z"/><path d="m209.6439,97.3697h2.7329c1.2148,0,2.1499-.3281,2.8052-.9829.6553-.6558.9834-1.6064.9834-2.8535v-27.5244h4.2197v26.8535c0,2.1099-.2876,3.7798-.8633,5.0107-.5752,1.2305-1.4946,2.1177-2.7573,2.6616-1.2632.543-2.9487.8149-5.0591.8149h-2.0615v-3.98Zm2.4453-31.3608h8.2959v3.5005h-8.2959v-3.5005Zm2.9014-5.3706c-.4961-.5112-.7437-1.1826-.7437-2.0142,0-.8633.2476-1.5503.7437-2.062.4951-.5107,1.2227-.7671,2.1816-.7671s1.686.248,2.1816.7432c.4956.4961.7437,1.1748.7437,2.0381,0,.8315-.248,1.5103-.7437,2.0381-.4956.5273-1.2227.791-2.1816.791s-1.6865-.2554-2.1816-.7671Z"/><path d="m231.8929,90.5367c-1.918-1.2627-3.3325-2.9014-4.2437-4.9155-.9111-2.0137-1.3667-4.1553-1.3667-6.4253v-.8154c0-2.3018.4629-4.4595,1.3906-6.4736.9268-2.0137,2.3257-3.644,4.1958-4.8911,1.8701-1.2466,4.1636-1.8701,6.8813-1.8701,2.6206,0,4.8506.5757,6.689,1.7266,1.8379,1.1509,3.2129,2.6694,4.124,4.5552.9111,1.8867,1.3667,3.9321,1.3667,6.1382v2.0137h-22.7295v-3.3086h19.5166l-1.0068,1.7744c0-1.8223-.2959-3.4121-.8872-4.7715-.5918-1.3584-1.4946-2.4048-2.7095-3.1406-1.2153-.7354-2.6694-1.103-4.3633-1.103-1.8223,0-3.3491.416-4.5796,1.2466-1.231.832-2.1504,1.9746-2.7573,3.4287-.6074,1.4551-.9111,3.1411-.9111,5.0591s.3115,3.6045.9351,5.0591c.6235,1.4551,1.5659,2.606,2.8291,3.4526,1.2627.8472,2.8535,1.2705,4.7715,1.2705,1.9819,0,3.6201-.439,4.915-1.3188,1.2949-.8789,2.0859-1.9575,2.3735-3.2368h4.1719c-.5439,2.6221-1.8306,4.6836-3.8599,6.186-2.0308,1.5024-4.564,2.2539-7.6006,2.2539-2.8457,0-5.2271-.6318-7.145-1.894Z"/><path d="m254.6698,90.7521c-.5117-.543-.7671-1.2144-.7671-2.0137,0-.7988.2554-1.4702.7671-2.0142.5112-.543,1.1509-.8149,1.918-.8149.7676,0,1.4062.272,1.9185.8149.5107.5439.7671,1.2153.7671,2.0142,0,.7993-.2563,1.4707-.7671,2.0137-.5122.5444-1.1509.8154-1.9185.8154-.7671,0-1.4067-.271-1.918-.8154Z"/><path d="m85.7845,137.1573c-2.2061,0-4.1562-.3838-5.8506-1.1509-1.6948-.7676-3.1167-1.7817-4.2676-3.0449-1.1509-1.2627-2.0225-2.6772-2.6133-4.2441-.5918-1.5659-.8872-3.1646-.8872-4.7949v-.8154c0-1.6304.3032-3.2368.9111-4.8193.6069-1.582,1.4941-3.0044,2.6611-4.2676,1.167-1.2622,2.5972-2.2695,4.292-3.021,1.6938-.7505,3.6123-1.127,5.7544-1.127,2.1733,0,4.0996.3765,5.7778,1.127,1.6787.7515,3.1089,1.7588,4.292,3.021,1.1821,1.2632,2.0776,2.6855,2.6851,4.2676.6069,1.5825.9111,3.189.9111,4.8193v.8154c0,1.6304-.2959,3.229-.8867,4.7949-.5923,1.5669-1.4712,2.9814-2.6377,4.2441-1.167,1.2632-2.5894,2.2773-4.2676,3.0449-1.6782.7671-3.6367,1.1509-5.874,1.1509Zm0-3.98c1.9492,0,3.6118-.4316,4.9868-1.2949,1.374-.8633,2.4292-2.0215,3.165-3.4766.7349-1.4541,1.1025-3.0928,1.1025-4.915s-.376-3.4683-1.1265-4.939c-.752-1.4702-1.8149-2.6294-3.189-3.4766-1.375-.8467-3.021-1.271-4.939-1.271-1.8867,0-3.5249.4243-4.9155,1.271-1.3906.8472-2.4536,2.0063-3.1885,3.4766-.7358,1.4707-1.103,3.1167-1.103,4.939s.3594,3.4609,1.0791,4.915c.7192,1.4551,1.7656,2.6133,3.1406,3.4766,1.374.8633,3.0366,1.2949,4.9873,1.2949Zm-7.7686-26.23l5.2749-9.4468h4.9868l5.1792,9.4468h-3.5967l-3.8843-7.2412h-.3833l-3.98,7.2412h-3.5967Z"/><path d="m105.348,110.7355h3.5005v10.9331h-.5752c0-3.8042.791-6.7051,2.3735-8.7031,1.5825-1.9976,3.9561-2.9971,7.1211-2.9971h.1919c3.1646,0,5.5381.9995,7.1206,2.9971,1.5825,1.998,2.3735,4.8989,2.3735,8.7031v14.6255h-4.4116v-15.5845c0-2.0454-.5752-3.6685-1.7261-4.8672s-2.7017-1.7983-4.6514-1.7983c-2.0786,0-3.7485.6401-5.0112,1.918-1.2632,1.2793-1.894,2.9575-1.894,5.0352v15.2969h-4.4116v-25.5586Z"/><path d="m131.2421,101.2887h8.0078v3.5005h-8.0078v-3.5005Zm3.5962,0h4.4116v35.0054h-4.4116v-35.0054Z"/><path d="m144.621,110.7355h8.3438v3.5005h-8.3438v-3.5005Zm2.9487-4.9873c-.4956-.5107-.7432-1.1821-.7432-2.0137,0-.8633.2476-1.5503.7432-2.062.4956-.5112,1.2231-.7671,2.1821-.7671s1.6938.2559,2.2056.7671c.5112.5117.7676,1.1831.7676,2.0142,0,.8628-.2563,1.5508-.7676,2.0615-.5117.5122-1.2466.7676-2.2056.7676s-1.6865-.2554-2.1821-.7676Zm.9834,4.9873h4.4116v25.5586h-4.4116v-25.5586Z"/><path d="m160.6849,110.7355h3.5005v10.9331h-.5752c0-3.8042.791-6.7051,2.3735-8.7031,1.5825-1.9976,3.9561-2.9971,7.1211-2.9971h.1919c3.1646,0,5.5381.9995,7.1206,2.9971,1.5825,1.998,2.3735,4.8989,2.3735,8.7031v14.6255h-4.4116v-15.5845c0-2.0454-.5752-3.6685-1.7261-4.8672s-2.7017-1.7983-4.6514-1.7983c-2.0786,0-3.7485.6401-5.0112,1.918-1.2632,1.2793-1.894,2.9575-1.894,5.0352v15.2969h-4.4116v-25.5586Z"/><path d="m193.9154,135.2633c-1.918-1.2627-3.3325-2.9014-4.2437-4.9155-.9111-2.0137-1.3667-4.1553-1.3667-6.4253v-.8154c0-2.3018.4629-4.4595,1.3906-6.4736.9268-2.0137,2.3257-3.644,4.1958-4.8911,1.8701-1.2466,4.1636-1.8701,6.8813-1.8701,2.6206,0,4.8506.5757,6.689,1.7266,1.8379,1.1509,3.2129,2.6694,4.124,4.5552.9111,1.8867,1.3667,3.9321,1.3667,6.1382v2.0137h-22.7295v-3.3086h19.5166l-1.0068,1.7744c0-1.8223-.2959-3.4121-.8872-4.7715-.5918-1.3584-1.4946-2.4048-2.7095-3.1406-1.2153-.7354-2.6694-1.103-4.3633-1.103-1.8223,0-3.3491.416-4.5796,1.2466-1.231.832-2.1504,1.9746-2.7573,3.4287-.6074,1.4551-.9111,3.1411-.9111,5.0591s.3115,3.6045.9351,5.0591c.6235,1.4551,1.5659,2.606,2.8291,3.4526,1.2627.8472,2.8535,1.2705,4.7715,1.2705,1.9819,0,3.6201-.439,4.915-1.3188,1.2949-.8789,2.0859-1.9575,2.3735-3.2368h4.1719c-.5439,2.6221-1.8306,4.6836-3.8599,6.186-2.0308,1.5024-4.564,2.2539-7.6006,2.2539-2.8457,0-5.2271-.6318-7.145-1.894Z"/></svg>