<?xml version="1.0" encoding="UTF-8"?><svg id="Vrstva_1" xmlns="http://www.w3.org/2000/svg" viewBox="0 0 330 284.1735"><defs><style>.cls-1{fill:#fff;}.cls-2{fill:#b700ff;}</style></defs><rect x="49.7951" y="180.8676" width="230.4099" height="64.9928"/><g><g><path d="m66.0779,63.6697h.8635c.3837,0,.6791-.1039.8862-.3107.207-.2071.3105-.5073.3105-.9015v-8.6957h1.3332v8.4837c0,.6668-.0909,1.1945-.2727,1.5834-.1818.3886-.4723.6687-.8711.8407-.3992.1716-.9318.2574-1.5983.2574h-.6513v-1.2572Zm.7726-9.9079h2.6208v1.106h-2.6208v-1.106Zm.9164-1.6968c-.1567-.1614-.2347-.3735-.2347-.6362,0-.2725.0781-.4899.2347-.6513.1565-.1614.3863-.2423.6893-.2423.3031,0,.5326.0782.6895.2347.1563.1565.2347.3712.2347.6437,0,.2627-.0784.4774-.2347.6437-.1569.1667-.3863.2502-.6895.2502-.303,0-.5328-.0809-.6893-.2427Z"/><path d="m72.0239,61.3594c-.5203-.4596-.7804-1.1034-.7804-1.9315,0-.8384.2827-1.4795.8484-1.924.5655-.4445,1.3734-.6668,2.4239-.6668h2.2271v1.0455h-2.2876c-.5859,0-1.0404.1414-1.3634.4241-.3234.2827-.4848.6566-.4848,1.1211s.1614.8331.4848,1.1056c.323.2729.7775.4094,1.3634.4094.5855,0,1.0805-.164,1.4846-.4925.4039-.3281.6212-.8611.6515-1.5982l.3939.5454c-.0809.8785-.3585,1.5399-.8333,1.9845s-1.1361.6664-1.9845.6664c-.9091,0-1.6237-.2294-2.1436-.6891Zm4.81-1.9467h-.2425v-2.8028c0-.5655-.1465-.9922-.4394-1.2803-.2929-.2877-.7222-.4317-1.2876-.4317-.9191,0-1.813.0302-2.6815.0911v-1.2273c.6564-.0605,1.3938-.0907,2.2118-.0907,1.2523,0,2.1563.2325,2.7117.6966.5555.4649.8333,1.2478.8333,2.3485v5.1203h-1.1058v-2.4237Z"/><path d="m80.2878,50.7775h1.3937v11.0589h-1.3937v-11.0589Zm2.4692,7.2869h-1.3179l3.7266-4.3027h1.4696l-3.3632,3.8782.0909-.742,4.0903,4.9385h-1.621l-3.0753-3.772Z"/><path d="m87.3472,53.7617h1.4241l2.7724,7.8929h-1.3029l-2.8935-7.8929Zm.5454,9.9684h1.1361c.525,0,.9318-.1009,1.2196-.3028.2878-.2022.5075-.5606.659-1.0758l2.5755-8.5899h1.3634l-2.7117,8.9535c-.1618.5352-.389.9669-.6817,1.2954-.2931.3281-.6466.573-1.0605.7344-.4143.1614-.894.2427-1.4392.2427h-1.0605v-1.2576Zm2.4997-3.242h1.6966v1.1665h-1.6966v-1.1665Zm1.3785-10.9073h1.4694l-1.6664,2.9842h-1.1362l1.3332-2.9842Z"/><path d="m96.3763,50.7775h1.3937v11.0589h-1.3937v-11.0589Zm2.4692,7.2869h-1.3179l3.7266-4.3027h1.4696l-3.3632,3.8782.0909-.742,4.0903,4.9385h-1.621l-3.0753-3.772Z"/><path d="m105.8446,61.511c-.6566-.3992-1.1514-.9189-1.4846-1.5607-.3334-.6411-.5001-1.3154-.5001-2.0223v-.2574c0-.7068.1716-1.3812.5152-2.0226.3432-.6411.8431-1.1612,1.4997-1.5604.6564-.3988,1.419-.5984,2.2876-.5984.8786,0,1.6437.1996,2.2952.5984.6515.3992,1.1514.9193,1.4999,1.5604.3483.6415.5226,1.3158.5226,2.0226v.2574c0,.7068-.1693,1.3812-.5075,2.0223-.3385.6418-.8333,1.1616-1.4848,1.5607-.6515.3988-1.4265.5984-2.3254.5984-.8888,0-1.6615-.1996-2.3178-.5984Zm3.8782-1.0606c.4443-.2676.7826-.6335,1.0151-1.0984.2323-.4642.3483-.9847.3483-1.5604s-.1211-1.0958-.3634-1.5604c-.2425-.4646-.5832-.8278-1.0227-1.0909-.4394-.2623-.952-.3939-1.5377-.3939-.5757,0-1.0858.1315-1.5301.3939-.4445.2631-.7853.6263-1.0225,1.0909-.2376.4646-.3561.9847-.3561,1.5604s.1136,1.0962.3408,1.5604c.2274.4649.563.8308,1.0075,1.0984.4443.2676.9643.4014,1.5604.4014s1.1158-.1338,1.5604-.4014Z"/><path d="m113.2979,50.7775h2.5299v1.106h-2.5299v-1.106Zm1.1362,0h1.3937v11.0589h-1.3937v-11.0589Z"/><path d="m117.4488,53.7617h2.6359v1.106h-2.6359v-1.106Zm.9318-1.5755c-.1569-.1614-.2349-.3735-.2349-.6362,0-.2729.0781-.4899.2349-.6517.1563-.1614.3863-.2423.6893-.2423s.535.0809.6968.2423c.1614.1618.2423.3738.2423.6365,0,.2725-.0809.4899-.2423.6513-.1618.1618-.3939.2423-.6968.2423s-.533-.0805-.6893-.2423Zm.3105,1.5755h1.3937v8.0747h-1.3937v-8.0747Z"/><path d="m121.5543,53.7617h1.4543l2.7117,8.0747h-1.3937l-2.7724-8.0747Zm3.1207,6.969h1.6968v1.1056h-1.6968v-1.1056Zm3.0451-6.969h1.3634l-2.4088,8.0747h-1.3181l2.3634-8.0747Z"/><path d="m66.3202,71.9413h5.5448v1.0451h-5.5448v-1.0451Zm2.7346,7.8929c-.4294-.1818-.7575-.4774-.9849-.8864-.2272-.409-.3408-.9567-.3408-1.6435v-7.8324h1.3332v7.9991c0,.4445.1211.7851.3634,1.0225.2425.2374.5808.3561,1.0151.3561h1.4241v1.2572h-1.2423c-.6161,0-1.1389-.0907-1.5679-.2725Z"/><path d="m74.713,79.6901c-.6061-.3988-1.0529-.9166-1.3407-1.5528s-.4319-1.3128-.4319-2.0302v-.2574c0-.7273.1463-1.4088.4394-2.0453.2928-.6362.7348-1.1514,1.3256-1.5452s1.3154-.5908,2.1738-.5908c.828,0,1.5326.1818,2.1134.5454s1.0151.8433,1.3029,1.4394.4317,1.2421.4317,1.9391v.6362h-7.1807v-1.0451h6.1658l-.3183.5606c0-.5757-.0934-1.078-.2801-1.5074-.1871-.4294-.4723-.7598-.856-.9922-.384-.2325-.8435-.3485-1.3787-.3485-.5757,0-1.058.1312-1.4468.3939-.389.2627-.6793.6237-.8711,1.0829-.192.46-.2878.9926-.2878,1.5985s.0985,1.1389.2954,1.5982c.1969.4596.4948.8233.894,1.0909.3988.2676.9013.4014,1.5072.4014.6261,0,1.1438-.1387,1.5528-.4165.4092-.2778.659-.6188.7499-1.0228h1.3181c-.1718.8282-.5783,1.4798-1.2196,1.9542-.6415.4748-1.4419.7121-2.4012.7121-.8991,0-1.6513-.1996-2.2572-.5984Z"/><path d="m84.3631,75.759l-.0455.3028-2.7268-4.1205h1.5452l1.9846,3.0602h.2121l1.8784-3.0602h1.4392l-2.5753,4.0147.0454-.2729,3.0451,4.3329h-1.5452l-2.3027-3.3025h-.2121l-2.2118,3.3025h-1.4392l2.9087-4.257Z"/><path d="m89.2713,71.9413h5.5448v1.0451h-5.5448v-1.0451Zm2.7346,7.8929c-.4294-.1818-.7575-.4774-.9849-.8864-.2272-.409-.3408-.9567-.3408-1.6435v-7.8324h1.3332v7.9991c0,.4445.1211.7851.3634,1.0225.2425.2374.5808.3561,1.0151.3561h1.4241v1.2572h-1.2423c-.6161,0-1.1389-.0907-1.5679-.2725Z"/><path d="m68.6836,97.8697c-.6061-.3992-1.0529-.9166-1.3407-1.5532-.2878-.6362-.4319-1.3128-.4319-2.0298v-.2574c0-.7273.1463-1.4092.4394-2.0453.2928-.6362.7348-1.1514,1.3256-1.5452s1.3154-.5908,2.1738-.5908c.828,0,1.5326.1818,2.1134.5454s1.0151.8433,1.3029,1.439c.2878.5961.4317,1.2425.4317,1.9391v.6365h-7.1807v-1.0455h6.1658l-.3183.5606c0-.5757-.0934-1.078-.2801-1.5074-.1871-.429-.4723-.7598-.856-.9922-.384-.2321-.8435-.3485-1.3787-.3485-.5757,0-1.058.1315-1.4468.3939-.389.2627-.6793.6237-.8711,1.0833-.192.4596-.2878.9922-.2878,1.5982s.0985,1.1389.2954,1.5985.4948.8233.894,1.0905c.3988.2676.9013.4014,1.5072.4014.6261,0,1.1438-.1387,1.5528-.4165.4092-.2774.659-.6184.7499-1.0225h1.3181c-.1718.8282-.5783,1.4795-1.2196,1.9542-.6415.4748-1.4419.7121-2.4012.7121-.8991,0-1.6513-.1996-2.2572-.5984Z"/><path d="m78.1368,93.9382l-.0455.3031-2.7268-4.1209h1.5452l1.9846,3.0602h.2121l1.8784-3.0602h1.4392l-2.5753,4.0147.0454-.2725,3.0451,4.3325h-1.5452l-2.3027-3.3025h-.2121l-2.2118,3.3025h-1.4392l2.9087-4.257Z"/><path d="m83.636,90.1205h2.6359v1.106h-2.6359v-1.106Zm.9318-1.5755c-.1569-.1614-.2349-.3735-.2349-.6362,0-.2729.0781-.4899.2349-.6517.1563-.1614.3863-.2423.6893-.2423s.535.0809.6968.2423c.1614.1618.2423.3738.2423.6365,0,.2725-.0809.4899-.2423.6513-.1618.1618-.3939.2423-.6968.2423s-.533-.0805-.6893-.2423Zm.3105,1.5755h1.3937v8.0747h-1.3937v-8.0747Z"/><path d="m88.9308,97.7635c-.581-.4494-.8813-1.0682-.9015-1.8559h1.3181c.01.3738.1792.6895.5075.9469.3281.2578.8306.3863,1.5074.3863.6462,0,1.1461-.1259,1.4997-.3787.3534-.2521.5303-.5806.5303-.9847,0-.3432-.1287-.6108-.3863-.8029-.2576-.1916-.6692-.3183-1.2347-.3787l-.8938-.0907c-.7979-.0911-1.4267-.3281-1.8862-.7121-.4596-.3837-.6893-.9038-.6893-1.5604,0-.505.1312-.9416.3939-1.3105.2625-.3685.6235-.6513,1.0831-.8482.4594-.1969.9871-.2956,1.5832-.2956.9291,0,1.6688.2071,2.2194.621.5504.4143.8356,1.0051.856,1.7724h-1.3181c-.0204-.3534-.1794-.6411-.4772-.8633-.298-.2219-.7248-.3334-1.2801-.3334-.5454,0-.9722.1164-1.2801.3485-.3083.2325-.4621.5356-.4621.9091,0,.313.1083.5632.3256.7499.2172.1867.5579.3054,1.0227.3561l.8786.0907c.8989.0907,1.6006.3334,2.1058.7273.5048.3939.7575.9344.7575,1.6208,0,.485-.1416.9242-.4243,1.3181s-.6793.6997-1.1892.9166c-.5101.217-1.0884.3258-1.7346.3258-1.0404,0-1.8508-.2249-2.4314-.6743Z"/><path d="m95.5887,90.1205h5.5448v1.0455h-5.5448v-1.0455Zm2.7346,7.8929c-.4294-.1818-.7575-.477-.9849-.886-.2272-.409-.3408-.9571-.3408-1.6439v-7.8324h1.3332v7.9991c0,.4445.1211.7855.3634,1.0225.2425.2374.5808.3561,1.0151.3561h1.4241v1.2576h-1.2423c-.6161,0-1.1389-.0911-1.5679-.2729Z"/><path d="m103.436,97.4985c-.5152-.6263-.7726-1.5252-.7726-2.6966v-4.6966h1.3937v4.9842c0,.6464.1743,1.1514.5228,1.515.3483.3636.8204.5454,1.4163.5454.6261,0,1.1311-.1992,1.515-.5984.3837-.3988.5757-.9367.5757-1.6136v-4.8326h1.409v8.0898h-1.106v-3.4541h.1818c0,1.202-.2423,2.1186-.7271,2.7499s-1.202.9469-2.1513.9469h-.0605c-.9495,0-1.6817-.313-2.1967-.9393Z"/><path d="m110.344,100.0284h.8635c.3837,0,.6791-.1039.8862-.3107.207-.2071.3105-.5073.3105-.9015v-8.6957h1.3332v8.4837c0,.6668-.0909,1.1945-.2727,1.5834-.1818.3886-.4723.6687-.8711.8407-.3992.1716-.9318.2574-1.5983.2574h-.6513v-1.2572Zm.7726-9.9079h2.6208v1.106h-2.6208v-1.106Zm.9164-1.6968c-.1567-.1614-.2347-.3735-.2347-.6362,0-.2725.0781-.4899.2347-.6513.1565-.1614.3863-.2423.6893-.2423.3031,0,.5326.0782.6895.2347.1563.1565.2347.3712.2347.6437,0,.2627-.0784.4774-.2347.6437-.1569.1667-.3863.2502-.6895.2502-.303,0-.5328-.0809-.6893-.2427Z"/><path d="m117.3732,97.8697c-.6061-.3992-1.0529-.9166-1.3407-1.5532-.2878-.6362-.4319-1.3128-.4319-2.0298v-.2574c0-.7273.1463-1.4092.4394-2.0453.2928-.6362.7348-1.1514,1.3256-1.5452s1.3154-.5908,2.1738-.5908c.828,0,1.5326.1818,2.1134.5454s1.0151.8433,1.3029,1.439c.2878.5961.4317,1.2425.4317,1.9391v.6365h-7.1807v-1.0455h6.1658l-.3183.5606c0-.5757-.0934-1.078-.2801-1.5074-.1871-.429-.4723-.7598-.856-.9922-.384-.2321-.8435-.3485-1.3787-.3485-.5757,0-1.058.1315-1.4468.3939-.389.2627-.6793.6237-.8711,1.0833-.192.4596-.2878.9922-.2878,1.5982s.0985,1.1389.2954,1.5985.4948.8233.894,1.0905c.3988.2676.9013.4014,1.5072.4014.6261,0,1.1438-.1387,1.5528-.4165.4092-.2774.659-.6184.7499-1.0225h1.3181c-.1718.8282-.5783,1.4795-1.2196,1.9542-.6415.4748-1.4419.7121-2.4012.7121-.8991,0-1.6513-.1996-2.2572-.5984Z"/><path d="m124.569,97.9377c-.1618-.1716-.2425-.3837-.2425-.6362s.0807-.4646.2425-.6365c.1614-.1716.3636-.2574.6059-.2574.2425,0,.4443.0858.6061.2574.1614.172.2423.384.2423.6365s-.0809.4646-.2423.6362c-.1618.172-.3636.2574-.6061.2574-.2423,0-.4445-.0854-.6059-.2574Z"/><path d="m128.932,97.8697c-.6566-.3992-1.1514-.9189-1.4846-1.5607-.3334-.6411-.5001-1.3154-.5001-2.0223v-.2574c0-.7068.1716-1.3812.5152-2.0226.3432-.6411.8431-1.1612,1.4997-1.5604.6564-.3988,1.419-.5984,2.2876-.5984h7.2414c.8686,0,1.631.1996,2.2876.5984.6564.3992,1.1563.9193,1.4999,1.5604.3432.6415.515,1.3158.515,2.0226v.2574c0,.7068-.1667,1.3812-.4999,2.0223-.3334.6418-.8282,1.1616-1.4848,1.5607-.6566.3988-1.4292.5984-2.3178.5984h-7.2414c-.8888,0-1.6615-.1996-2.3178-.5984Zm11.1198-1.0606c.4441-.2676.7802-.6335,1.0073-1.0984.2272-.4642.3409-.9847.3409-1.5604s-.1189-1.0958-.3561-1.5604c-.2374-.4646-.5783-.8278-1.0227-1.0909-.4445-.2623-.9544-.3939-1.5301-.3939-.5857,0-1.0983.1315-1.5377.3939-.4392.2631-.7802.6263-1.0225,1.0909-.2425.4646-.3636.9847-.3636,1.5604s.116,1.0962.3485,1.5604c.2321.4649.5704.8308,1.0149,1.0984.4443.2676.9644.4014,1.5604.4014s1.1158-.1338,1.5605-.4014Z"/><path d="m144.5964,90.1205h1.1058v3.4541h-.1818c0-1.2016.25-2.1183.7499-2.7495s1.2498-.9469,2.2496-.9469h.0607c.9998,0,1.7497.3156,2.2496.9469.5001.6312.7499,1.5479.7499,2.7495v4.6206h-1.3937v-4.9234c0-.6464-.1818-1.1589-.5454-1.5377s-.8535-.5681-1.4694-.5681c-.6568,0-1.1843.2022-1.5832.6059-.399.4041-.5984.9344-.5984,1.5906v4.8326h-1.3937v-8.0747Z"/><path d="m152.7771,87.1362h2.5299v1.106h-2.5299v-1.106Zm1.1362,0h1.3937v11.0589h-1.3937v-11.0589Z"/><path d="m157.0036,90.1205h2.6359v1.106h-2.6359v-1.106Zm.9318-1.5755c-.1569-.1614-.2349-.3735-.2349-.6362,0-.2729.0781-.4899.2349-.6517.1563-.1614.3863-.2423.6893-.2423s.535.0809.6968.2423c.1614.1618.2423.3738.2423.6365,0,.2725-.0809.4899-.2423.6513-.1618.1618-.3939.2423-.6968.2423s-.533-.0805-.6893-.2423Zm.3105,1.5755h1.3937v8.0747h-1.3937v-8.0747Z"/><path d="m162.0787,90.1205h1.1058v3.4541h-.1818c0-1.2016.25-2.1183.7499-2.7495s1.2498-.9469,2.2496-.9469h.0607c.9998,0,1.7497.3156,2.2496.9469.5001.6312.7499,1.5479.7499,2.7495v4.6206h-1.3937v-4.9234c0-.6464-.1818-1.1589-.5454-1.5377s-.8535-.5681-1.4694-.5681c-.6568,0-1.1843.2022-1.5832.6059-.399.4041-.5984.9344-.5984,1.5906v4.8326h-1.3937v-8.0747Z"/><path d="m172.5771,97.8697c-.6061-.3992-1.0529-.9166-1.3407-1.5532-.2878-.6362-.4319-1.3128-.4319-2.0298v-.2574c0-.7273.1463-1.4092.4394-2.0453.2928-.6362.7348-1.1514,1.3256-1.5452s1.3154-.5908,2.1738-.5908c.828,0,1.5326.1818,2.1134.5454s1.0151.8433,1.3029,1.439c.2878.5961.4317,1.2425.4317,1.9391v.6365h-7.1807v-1.0455h6.1658l-.3183.5606c0-.5757-.0934-1.078-.2801-1.5074-.1871-.429-.4723-.7598-.856-.9922-.384-.2321-.8435-.3485-1.3787-.3485-.5757,0-1.058.1315-1.4468.3939-.389.2627-.6793.6237-.8711,1.0833-.192.4596-.2878.9922-.2878,1.5982s.0985,1.1389.2954,1.5985.4948.8233.894,1.0905c.3988.2676.9013.4014,1.5072.4014.6261,0,1.1438-.1387,1.5528-.4165.4092-.2774.659-.6184.7499-1.0225h1.3181c-.1718.8282-.5783,1.4795-1.2196,1.9542-.6415.4748-1.4419.7121-2.4012.7121-.8991,0-1.6513-.1996-2.2572-.5984Z"/></g><path class="cls-2" d="m140.0513,96.8099c.4445-.2676.7804-.6338,1.0076-1.0985.2272-.4642.3408-.9847.3408-1.5603s-.1188-1.0958-.3561-1.5603-.5783-.8282-1.0224-1.0909c-.4448-.2624-.9546-.3938-1.5302-.3938-.586,0-1.0983.1313-1.5376.3938-.4394.2627-.7801.6264-1.0226,1.0909s-.3637.9847-.3637,1.5603.1161,1.0961.3484,1.5603c.2324.4647.5707.8309,1.0152,1.0985.4443.2676.9642.4014,1.5603.4014s1.1158-.1338,1.5603-.4014Z"/></g><g><g><path d="m199.9885,63.6651h.8614c.3827,0,.6774-.1032.8841-.3096.2064-.2068.3098-.5065.3098-.8992v-8.6745h1.3298v8.4629c0,.6649-.0905,1.1914-.272,1.5793-.1812.3878-.471.6675-.869.8388s-.9293.257-1.5944.257h-.6498v-1.2546Zm.7707-9.8834h2.6144v1.1034h-2.6144v-1.1034Zm.9144-1.6926c-.1563-.161-.2344-.3727-.2344-.6346,0-.2722.0781-.4887.2344-.6498.1561-.161.3854-.2419.6876-.2419s.5313.0782.6876.2344c.1561.1561.2344.3701.2344.6422,0,.2619-.0782.4759-.2344.6422-.1563.1663-.3854.2495-.6876.2495s-.5315-.0805-.6876-.2419Z"/><path d="m205.92,61.3605c-.519-.4581-.7783-1.1003-.7783-1.9266,0-.8361.282-1.4761.8463-1.9194.5642-.443,1.37-.6649,2.418-.6649h2.2215v1.0429h-2.2819c-.5844,0-1.0378.141-1.36.423-.3226.2824-.4836.6551-.4836,1.1185s.161.8312.4836,1.103c.3222.2722.7756.4082,1.36.4082s1.078-.1637,1.481-.491.6197-.8592.65-1.5944l.3929.5439c-.0809.8766-.3578,1.5365-.8312,1.9795-.4738.4438-1.1334.6649-1.9797.6649-.9068,0-1.6197-.2287-2.1385-.6876Zm4.7982-1.9417h-.2417v-2.796c0-.564-.1463-.9896-.4383-1.2769-.2924-.2873-.7205-.4305-1.2846-.4305-.9168,0-1.8085.0302-2.6749.0903v-1.2239c.6547-.0605,1.3903-.0907,2.2063-.0907,1.2493,0,2.151.2321,2.7051.6951.5539.4638.8312,1.2444.8312,2.3424v5.1082h-1.1032v-2.418Z"/><path d="m214.1636,50.8047h1.3904v11.0321h-1.3904v-11.0321Zm2.4634,7.2692h-1.3147l3.7176-4.2921h1.4659l-3.3549,3.8688.0907-.7405,4.0802,4.9268h-1.6171l-3.0678-3.7629Z"/><path d="m221.2058,53.7818h1.4207l2.7656,7.8736h-1.2997l-2.8865-7.8736Zm.5441,9.9438h1.1334c.5237,0,.9295-.1005,1.2166-.302.2871-.2018.5063-.5594.6573-1.0731l2.5692-8.5687h1.36l-2.7051,8.9316c-.1612.5337-.388.9646-.68,1.292-.2924.3273-.6449.5715-1.0578.7329-.4133.161-.8917.2419-1.4358.2419h-1.0578v-1.2546Zm2.4936-3.2341h1.6925v1.1638h-1.6925v-1.1638Zm1.3751-10.8809h1.4659l-1.6622,2.9774h-1.1336l1.33-2.9774Z"/><path d="m230.2128,50.8047h1.3904v11.0321h-1.3904v-11.0321Zm2.4634,7.2692h-1.3147l3.7176-4.2921h1.4659l-3.3549,3.8688.0907-.7405,4.0802,4.9268h-1.6171l-3.0678-3.7629Z"/><path d="m239.6581,61.5117c-.6551-.3976-1.1485-.9166-1.481-1.5566-.3324-.6396-.4988-1.312-.4988-2.0173v-.257c0-.705.1712-1.3774.5139-2.0173.3423-.6399.841-1.1585,1.4961-1.5566.6547-.398,1.4154-.5972,2.2819-.5972.8766,0,1.6397.1992,2.2895.5972.65.398,1.1485.9166,1.4961,1.5566.3478.6399.5214,1.3124.5214,2.0173v.257c0,.7053-.1688,1.3778-.5063,2.0173-.3375.6399-.831,1.1589-1.481,1.5566-.6498.398-1.4231.5968-2.3197.5968-.8866,0-1.6573-.1988-2.3122-.5968Zm3.8688-1.0576c.4432-.2669.7807-.6324,1.0126-1.0958.2315-.4634.3476-.9824.3476-1.5566s-.121-1.0932-.3627-1.5566c-.2419-.4634-.5819-.8259-1.0202-1.0882-.4383-.2619-.9497-.3927-1.5339-.3927-.5742,0-1.0831.1308-1.5263.3927-.4434.2623-.7836.6248-1.02,1.0882-.237.4634-.3553.9824-.3553,1.5566s.1134,1.0932.3402,1.5566c.2266.4634.5615.8289,1.0049,1.0958.4432.2669.962.4003,1.5566.4003s1.1132-.1334,1.5566-.4003Z"/><path d="m247.0932,50.8047h2.5239v1.103h-2.5239v-1.103Zm1.1334,0h1.3904v11.0321h-1.3904v-11.0321Z"/><path d="m251.2339,53.7818h2.6295v1.1034h-2.6295v-1.1034Zm.9293-1.5717c-.1563-.161-.2342-.3727-.2342-.6346,0-.2722.0779-.4887.2342-.6498.1561-.161.3854-.2419.6876-.2419.3024,0,.5339.0809.6953.2419.161.161.2417.3727.2417.6346,0,.2718-.0807.4887-.2417.6498-.1614.1614-.3929.2419-.6953.2419-.3022,0-.5315-.0805-.6876-.2419Zm.3098,1.5717h1.3904v8.055h-1.3904v-8.055Z"/><path d="m255.3292,53.7818h1.4507l2.7051,8.055h-1.3903l-2.7656-8.055Zm3.1131,6.9517h1.6926v1.1034h-1.6926v-1.1034Zm3.0375-6.9517h1.3602l-2.4029,8.055h-1.3148l2.3575-8.055Z"/><path d="m200.2302,71.9167h5.5312v1.0429h-5.5312v-1.0429Zm2.728,7.8736c-.4285-.1814-.7558-.4759-.9824-.8841-.2266-.4079-.34-.9544-.34-1.6397v-7.8131h1.33v7.9794c0,.4434.1208.7836.3627,1.0202.2417.2366.5791.3549,1.0125.3549h1.4205v1.2546h-1.2391c-.6148,0-1.1361-.0907-1.5641-.2722Z"/><path d="m208.6024,79.6467c-.6044-.3976-1.0503-.9144-1.3373-1.549s-.4307-1.3094-.4307-2.0249v-.257c0-.7254.1459-1.4054.4383-2.04.292-.635.7329-1.1487,1.3222-1.5415.5895-.3931,1.3122-.5897,2.1687-.5897.8259,0,1.5288.1814,2.1083.5443.5791.3625,1.0125.841,1.2995,1.4356.2873.5946.4307,1.2391.4307,1.9342v.635h-7.1633v-1.0429h6.1509l-.3173.5591c0-.5742-.0934-1.0754-.2797-1.5037-.1865-.4283-.471-.7579-.8539-.99-.3829-.2313-.8412-.3474-1.3751-.3474-.5744,0-1.0555.1308-1.4432.3927-.388.2623-.6777.6222-.869,1.0807-.1915.4585-.2871.99-.2871,1.5944s.0981,1.1359.2946,1.5944c.1964.4585.4935.8214.8917,1.0879.3978.2672.8991.4007,1.5037.4007.6244,0,1.141-.1383,1.549-.4158.408-.2767.6573-.6169.748-1.0198h1.3148c-.1716.8263-.577,1.4761-1.2166,1.9493-.6399.4736-1.4383.7102-2.3953.7102-.8968,0-1.6473-.1988-2.2519-.5968Z"/><path d="m218.2291,75.725l-.0454.3024-2.7202-4.1107h1.5415l1.9797,3.0527h.2115l1.8739-3.0527h1.4358l-2.5692,4.0048.0454-.2722,3.0375,4.3223h-1.5415l-2.2971-3.2946h-.2115l-2.2065,3.2946h-1.4356l2.9017-4.2467Z"/><path d="m223.1254,71.9167h5.5312v1.0429h-5.5312v-1.0429Zm2.728,7.8736c-.4285-.1814-.7558-.4759-.9824-.8841-.2266-.4079-.34-.9544-.34-1.6397v-7.8131h1.33v7.9794c0,.4434.1208.7836.3627,1.0202.2417.2366.5791.3549,1.0125.3549h1.4205v1.2546h-1.2391c-.6148,0-1.1361-.0907-1.5641-.2722Z"/><path d="m202.5878,97.7816c-.6044-.3976-1.0503-.9144-1.3373-1.549s-.4307-1.3094-.4307-2.0249v-.257c0-.7254.1459-1.4054.4383-2.04.292-.635.7329-1.1487,1.3222-1.5415.5895-.3931,1.3122-.5897,2.1687-.5897.8259,0,1.5288.1814,2.1083.5443.5791.3625,1.0125.841,1.2995,1.4356.2873.5946.4307,1.2391.4307,1.9342v.635h-7.1633v-1.0429h6.1509l-.3173.5591c0-.5742-.0934-1.0754-.2797-1.5037-.1865-.4283-.471-.7579-.8539-.99-.3829-.2313-.8412-.3474-1.3751-.3474-.5744,0-1.0555.1308-1.4432.3927-.388.2623-.6777.6222-.869,1.0807-.1915.4585-.2871.99-.2871,1.5944s.0981,1.1359.2946,1.5944c.1964.4585.4935.8214.8917,1.0879.3978.2672.8991.4007,1.5037.4007.6244,0,1.141-.1383,1.549-.4158.408-.2767.6573-.6169.748-1.0198h1.3148c-.1716.8263-.577,1.4761-1.2166,1.9493-.6399.4736-1.4383.7102-2.3953.7102-.8968,0-1.6473-.1988-2.2519-.5968Z"/><path d="m212.0179,93.8599l-.0454.3024-2.7202-4.1107h1.5415l1.9797,3.0527h.2115l1.8739-3.0527h1.4358l-2.5692,4.0048.0454-.2722,3.0375,4.3223h-1.5415l-2.2971-3.2946h-.2115l-2.2065,3.2946h-1.4356l2.9017-4.2467Z"/><path d="m217.5037,90.0517h2.6295v1.1034h-2.6295v-1.1034Zm.9293-1.5717c-.1563-.161-.2342-.3727-.2342-.6346,0-.2722.0779-.4887.2342-.6498.1561-.161.3854-.2419.6876-.2419.3024,0,.5339.0809.6953.2419.161.161.2417.3727.2417.6346,0,.2718-.0807.4887-.2417.6498-.1614.1614-.3929.2419-.6953.2419-.3022,0-.5315-.0805-.6876-.2419Zm.3098,1.5717h1.3904v8.055h-1.3904v-8.055Z"/><path d="m222.7854,97.6758c-.5795-.4479-.8792-1.0652-.8992-1.851h1.3148c.0098.3727.1788.6876.5063.9442.3272.257.8286.3856,1.5037.3856.6447,0,1.1432-.1259,1.4961-.378.3525-.2514.529-.5791.529-.982,0-.3425-.1285-.6097-.3854-.801-.257-.1913-.6675-.3175-1.2317-.378l-.8917-.0907c-.7961-.0907-1.4231-.3273-1.8815-.7102-.4587-.3825-.6876-.9015-.6876-1.5566,0-.5035.1308-.9393.3929-1.3071.2618-.3678.6218-.6498,1.0805-.8463.4583-.1966.9847-.2948,1.5793-.2948.9268,0,1.6647.2068,2.2139.6199.549.4131.8337,1.0024.8539,1.7679h-1.3148c-.0202-.3523-.179-.6396-.4759-.8614-.2973-.2215-.7231-.3323-1.277-.3323-.5441,0-.9699.116-1.277.3474-.3075.2321-.461.5341-.461.9068,0,.3126.1081.5617.3249.748.2166.1867.5566.305,1.0202.3553l.8766.0907c.8966.0907,1.5966.3323,2.1005.7254.5037.3927.7556.9318.7556,1.6171,0,.4835-.1412.9219-.4232,1.3147-.2822.3931-.6776.6978-1.1863.9144s-1.0856.3247-1.7303.3247c-1.0378,0-1.8463-.2241-2.4256-.6724Z"/><path d="m229.4271,90.0517h5.5312v1.0429h-5.5312v-1.0429Zm2.728,7.8736c-.4285-.1814-.7558-.4759-.9824-.8841-.2266-.4079-.34-.9544-.34-1.6397v-7.8131h1.33v7.9794c0,.4434.1208.7836.3627,1.0202.2417.2366.5791.3549,1.0125.3549h1.4205v1.2546h-1.2391c-.6148,0-1.1361-.0907-1.5641-.2722Z"/><path d="m237.2554,97.4116c-.5139-.6248-.7707-1.5214-.7707-2.6902v-4.6848h1.3903v4.9721c0,.6449.1739,1.1483.5214,1.5112.3476.3625.8184.5439,1.4129.5439.6246,0,1.1283-.1988,1.5114-.5968.3827-.398.5742-.9344.5742-1.6095v-4.8209h1.4056v8.0701h-1.1034v-3.4458h.1814c0,1.199-.2417,2.1134-.7254,2.7431s-1.1992.9442-2.1461.9442h-.0605c-.9471,0-1.6773-.3118-2.1912-.9367Z"/><path d="m244.1465,99.935h.8614c.3827,0,.6774-.1032.8841-.3096.2064-.2068.3098-.5065.3098-.8992v-8.6745h1.3298v8.4629c0,.6649-.0905,1.1914-.272,1.5793-.1812.3878-.471.6675-.869.8388s-.9293.257-1.5944.257h-.6498v-1.2546Zm.7707-9.8834h2.6144v1.1034h-2.6144v-1.1034Zm.9144-1.6926c-.1563-.161-.2344-.3727-.2344-.6346,0-.2722.0781-.4887.2344-.6498.1561-.161.3854-.2419.6876-.2419s.5313.0782.6876.2344c.1561.1561.2344.3701.2344.6422,0,.2619-.0782.4759-.2344.6422-.1563.1663-.3854.2495-.6876.2495s-.5315-.0805-.6876-.2419Z"/><path d="m251.1585,97.7816c-.6044-.3976-1.0503-.9144-1.3373-1.549s-.4307-1.3094-.4307-2.0249v-.257c0-.7254.1459-1.4054.4383-2.04.292-.635.7329-1.1487,1.3222-1.5415.5895-.3931,1.3122-.5897,2.1687-.5897.8259,0,1.5288.1814,2.1083.5443.5791.3625,1.0125.841,1.2995,1.4356.2873.5946.4307,1.2391.4307,1.9342v.635h-7.1633v-1.0429h6.1509l-.3173.5591c0-.5742-.0934-1.0754-.2797-1.5037-.1865-.4283-.471-.7579-.8539-.99-.3829-.2313-.8412-.3474-1.3751-.3474-.5744,0-1.0555.1308-1.4432.3927-.388.2623-.6777.6222-.869,1.0807-.1915.4585-.2871.99-.2871,1.5944s.0981,1.1359.2946,1.5944c.1964.4585.4935.8214.8917,1.0879.3978.2672.8991.4007,1.5037.4007.6244,0,1.141-.1383,1.549-.4158.408-.2767.6573-.6169.748-1.0198h1.3148c-.1716.8263-.577,1.4761-1.2166,1.9493-.6399.4736-1.4383.7102-2.3953.7102-.8968,0-1.6473-.1988-2.2519-.5968Z"/><path d="m258.3369,97.8496c-.1614-.1712-.2419-.3829-.2419-.6346s.0805-.4634.2419-.6346c.161-.1712.3627-.257.6044-.257s.4432.0858.6046.257c.161.1712.2417.3829.2417.6346s-.0807.4634-.2417.6346c-.1614.1716-.3629.257-.6046.257s-.4434-.0854-.6044-.257Z"/><path d="m202.7995,111.8773c-.6551-.3976-1.1485-.9166-1.481-1.5566-.3324-.6396-.4988-1.312-.4988-2.0173v-.257c0-.705.1712-1.3774.5139-2.0173.3423-.6399.841-1.1585,1.4961-1.5566.6547-.398,1.4154-.5972,2.2819-.5972h7.2238c.8664,0,1.6269.1992,2.2819.5972.6547.398,1.1534.9166,1.4961,1.5566.3425.6399.5139,1.3124.5139,2.0173v.257c0,.7053-.1663,1.3778-.4988,2.0173-.3324.6399-.8263,1.1589-1.481,1.5566-.6551.398-1.4258.5968-2.3122.5968h-7.2238c-.8866,0-1.6573-.1988-2.3122-.5968Zm11.0926-1.0576c.4432-.2669.7783-.6324,1.0049-1.0958.2268-.4634.34-.9824.34-1.5566s-.1185-1.0932-.3551-1.5566c-.2368-.4634-.5768-.8259-1.02-1.0882-.4436-.2619-.9522-.3927-1.5263-.3927-.5846,0-1.0958.1308-1.5339.3927-.4383.2623-.7783.6248-1.0202,1.0882-.2417.4634-.3627.9824-.3627,1.5566s.1157,1.0932.3476,1.5566c.2317.4634.5691.8289,1.0126,1.0958.4432.2669.962.4003,1.5566.4003.5942,0,1.113-.1334,1.5566-.4003Z"/><path d="m218.4255,104.1474h1.1034v3.4458h-.1814c0-1.199.2493-2.1134.748-2.7431.4988-.6294,1.2468-.9446,2.2441-.9446h.0605c.9975,0,1.7456.3152,2.2443.9446.4986.6297.748,1.5441.748,2.7431v4.6092h-1.3904v-4.9116c0-.6445-.1812-1.1563-.5439-1.5339-.3627-.378-.8516-.5666-1.466-.5666-.6549,0-1.1812.2015-1.5793.6044s-.5968.9321-.5968,1.5868v4.8209h-1.3904v-8.055Z"/><path d="m226.5861,101.1703h2.5239v1.103h-2.5239v-1.103Zm1.1334,0h1.3904v11.0321h-1.3904v-11.0321Z"/><path d="m230.8026,104.1474h2.6295v1.1034h-2.6295v-1.1034Zm.9293-1.5717c-.1563-.161-.2342-.3727-.2342-.6346,0-.2722.0779-.4887.2342-.6498.1561-.161.3854-.2419.6876-.2419.3024,0,.5339.0809.6953.2419.161.161.2417.3727.2417.6346,0,.2718-.0807.4887-.2417.6498-.1614.1614-.3929.2419-.6953.2419-.3022,0-.5315-.0805-.6876-.2419Zm.3098,1.5717h1.3904v8.055h-1.3904v-8.055Z"/><path d="m235.8651,104.1474h1.1034v3.4458h-.1814c0-1.199.2493-2.1134.748-2.7431.4988-.6294,1.2468-.9446,2.2441-.9446h.0605c.9975,0,1.7456.3152,2.2443.9446.4986.6297.748,1.5441.748,2.7431v4.6092h-1.3904v-4.9116c0-.6445-.1812-1.1563-.5439-1.5339-.3627-.378-.8516-.5666-1.466-.5666-.6549,0-1.1812.2015-1.5793.6044s-.5968.9321-.5968,1.5868v4.8209h-1.3904v-8.055Z"/><path d="m246.3379,111.8773c-.6044-.3976-1.0503-.9144-1.3373-1.549s-.4307-1.3094-.4307-2.0249v-.257c0-.7254.1459-1.4054.4383-2.04.292-.635.7329-1.1487,1.3222-1.5415.5895-.3931,1.3122-.5897,2.1687-.5897.8259,0,1.5288.1814,2.1083.5443.5791.3625,1.0125.841,1.2995,1.4356.2873.5946.4307,1.2391.4307,1.9342v.635h-7.1633v-1.0429h6.1509l-.3173.5591c0-.5742-.0934-1.0754-.2797-1.5037-.1865-.4283-.471-.7579-.8539-.99-.3829-.2313-.8412-.3474-1.3751-.3474-.5744,0-1.0555.1308-1.4432.3927-.388.2623-.6777.6222-.869,1.0807-.1915.4585-.2871.99-.2871,1.5944s.0981,1.1359.2946,1.5944c.1964.4585.4935.8214.8917,1.0879.3978.2672.8991.4007,1.5037.4007.6244,0,1.141-.1383,1.549-.4158.408-.2767.6573-.6169.748-1.0198h1.3148c-.1716.8263-.577,1.4761-1.2166,1.9493-.6399.4736-1.4383.7102-2.3953.7102-.8968,0-1.6473-.1988-2.2519-.5968Z"/></g><path class="cls-2" d="m213.8976,110.8264c.4434-.267.7785-.6322,1.0051-1.0958.2266-.4631.34-.9823.34-1.5565s-.1185-1.0931-.3552-1.5565-.5769-.8262-1.0199-1.0882c-.4437-.2618-.9523-.3928-1.5265-.3928-.5845,0-1.0956.131-1.5339.3928-.4383.262-.7782.6249-1.0201,1.0882s-.3628.9823-.3628,1.5565.1158,1.0934.3476,1.5565c.2318.4636.5693.8289,1.0127,1.0958.4432.267.9619.4004,1.5565.4004s1.113-.1335,1.5565-.4004Z"/></g><g><g><path d="m69.1406,139.7905c0-.6968.2116-1.2597.6353-1.6884.4232-.4287.9835-.6434,1.6803-.6434.6539,0,1.1739.2011,1.5599.6032.3858.402.5788.9463.5788,1.6321v5.2262h1.4794v-4.9045c0-1.2756-.2652-2.2486-.7959-2.9188-.5307-.6699-1.3266-1.0049-2.388-1.0049h-.0643c-1.0612,0-1.8573.3351-2.3878,1.0049-.2699.3409-.4705.761-.6032,1.2586v-2.0064h-1.1739v8.5711h1.4794v-5.1297Z"/><polygon points="82.7608 131.911 81.2009 131.911 79.7858 135.0787 80.9919 135.0787 82.7608 131.911"/><path d="m77.6552,144.4136c.5522.4881,1.3107.7318,2.2756.7318.9003,0,1.6023-.2357,2.1066-.7075.3334-.3121.5731-.7275.7235-1.2418v1.7241h1.1739v-5.4352c0-1.1684-.295-1.9994-.8843-2.4924-.5898-.493-1.5492-.74-2.8785-.74-.8684,0-1.651.0322-2.3478.0965v1.3026c.9217-.0643,1.8707-.0965,2.8463-.0965.6003,0,1.0557.1528,1.3669.4583.3107.3058.4661.7588.4661,1.3591v.2412h-2.2029c-1.1153,0-1.9727.2359-2.573.7075-.6005.4719-.9006,1.1524-.9006,2.0423,0,.8791.2759,1.5626.8281,2.0501Zm1.1336-3.2402c.3432-.3.8255-.4501,1.4475-.4501h2.2672v1.0292c-.0322.7826-.2626,1.3481-.6913,1.6965-.429.3484-.9544.5226-1.5759.5226-.622,0-1.1043-.1449-1.4475-.4342-.3432-.2895-.5145-.6808-.5145-1.1739s.1713-.8898.5145-1.1901Z"/><polygon points="90.0291 135.0787 91.589 131.911 90.4311 131.911 89.3056 134.339 89.1769 134.339 87.8422 131.911 86.6199 131.911 88.3888 135.0787 90.0291 135.0787"/><path d="m90.8009,143.5052c-.3753.2681-.906.402-1.5919.402-.7185,0-1.2518-.1368-1.6-.4101-.3487-.2733-.5284-.6084-.5388-1.0049h-1.3991c.0214.8362.3403,1.493.9568,1.9698s1.4768.7156,2.5811.7156c.6858,0,1.2997-.1153,1.8411-.3458.5412-.2304.962-.5548,1.2623-.973.3-.418.4504-.8843.4504-1.3988,0-.729-.2681-1.3026-.804-1.7208-.5362-.418-1.2811-.6753-2.2353-.7719l-.9327-.0965c-.4933-.0534-.855-.1792-1.0855-.3777-.2307-.1983-.3458-.4637-.3458-.7962,0-.3963.1635-.718.4907-.9646.327-.2467.78-.3698,1.3588-.3698.5893,0,1.0423.118,1.3588.3536.316.2359.4849.5414.5064.9165h1.3991c-.0217-.8145-.3243-1.4417-.9084-1.8814-.5846-.4394-1.3698-.6591-2.3559-.6591-.6327,0-1.1927.1044-1.6805.3136-.4878.209-.871.5093-1.1498.9003-.2788.3916-.418.855-.418,1.391,0,.6971.2438,1.2492.7316,1.6565.4878.4075,1.1551.6591,2.002.7556l.9489.0965c.6003.0643,1.0371.1985,1.3104.402.2733.2038.4101.4881.4101.8524,0,.4287-.1878.7774-.5629,1.0452Z"/><path d="m98.8329,147.9274c.4235-.1826.7316-.48.9246-.8924.193-.413.2895-.973.2895-1.6805v-9.0053h-2.782v1.1739h1.3667v8.0566c0,.418-.1099.7368-.3296.9568-.2197.2194-.5333.3296-.9406.3296h-.9168v1.3347h.6916c.7075,0,1.2728-.0913,1.6965-.2733Z"/><path d="m98.9697,134.8054c.3215,0,.5652-.0884.7316-.2652.1661-.1768.2493-.4046.2493-.6835,0-.2895-.0832-.5171-.2493-.6835-.1664-.1661-.4101-.2493-.7316-.2493-.3217,0-.5658.0861-.7318.2574-.1664.1716-.2493.402-.2493.6913,0,.2791.0829.504.2493.6756.1661.1716.4101.2571.7318.2571Z"/><path d="m108.7464,142.3794c-.0965.429-.3617.7907-.7959,1.0855-.4342.295-.9837.4423-1.6484.4423-.6432,0-1.1765-.142-1.6-.4261-.4237-.2841-.7397-.6699-.9487-1.1579-.1785-.4165-.2761-.8933-.3021-1.4232h6.8388v-.6753c0-.7397-.1528-1.4258-.4583-2.0582s-.7666-1.142-1.3829-1.5278c-.6165-.3861-1.3643-.5788-2.2434-.5788-.9113,0-1.6803.209-2.3075.627-.6272.4182-1.0962.9649-1.4069,1.6402-.311.6753-.4664,1.3991-.4664,2.171v.2733c0,.7614.1528,1.4794.4583,2.155.3055.6753.78,1.2249,1.4232,1.6481.6432.4235,1.4417.6353,2.3959.6353,1.0185,0,1.8681-.2521,2.5489-.7559.6806-.5038,1.1122-1.1953,1.2945-2.0744h-1.3991Zm-4.0764-4.599c.4125-.2786.9246-.418,1.5356-.418.5681,0,1.0559.1232,1.4634.3698.4073.2467.7101.5977.9087,1.0533.1306.3001.2138.6374.2584,1.0049h-5.329c.0505-.3088.1283-.5968.2383-.8603.2035-.4878.5119-.871.9246-1.1498Z"/><path d="m117.5264,144.7756c.5467-.2895.9968-.7397,1.3507-1.351.0544-.094.0978-.1989.1446-.3005v1.7961h1.1739v-11.7388h-1.4794v4.5247c-.3239-.5325-.7345-.94-1.2382-1.212-.5362-.2895-1.1472-.4342-1.8333-.4342-.804,0-1.5249.1985-2.1626.5948-.6382.3968-1.1313.9327-1.4796,1.6081-.3484.6756-.5226,1.4208-.5226,2.2353v.2733c0,.815.1794,1.5626.5388,2.2434.3591.6808.8603,1.2168,1.5035,1.6081.6432.391,1.3669.5869,2.171.5869.6753,0,1.2864-.1449,1.8333-.4342Zm-4.197-2.4202c-.2469-.4985-.3701-1.0748-.3701-1.7287,0-.6432.1206-1.2113.362-1.7046.2412-.493.5814-.8765,1.0211-1.1498.4394-.2733.9487-.4099,1.5275-.4099.5252,0,1.0104.1125,1.4553.3377.4449.2249.7985.5522,1.0614.9809.2626.429.3939.9275.3939,1.4956v.7556c0,.5898-.1287,1.1095-.3858,1.5599-.2574.4501-.6058.7985-1.0455,1.0452s-.9272.3698-1.4632.3698c-.5684,0-1.075-.1339-1.5197-.402-.4449-.2678-.7907-.6513-1.0371-1.1498Z"/><path d="m124.2961,139.7905c0-.6968.2116-1.2597.6351-1.6884s.9835-.6434,1.6805-.6434c.6536,0,1.1739.2011,1.5597.6032.3861.402.5791.9463.5791,1.6321v5.2262h1.4794v-4.9045c0-1.2756-.2655-2.2486-.7959-2.9188-.5307-.6699-1.3269-1.0049-2.388-1.0049h-.0643c-1.0614,0-1.8573.3351-2.388,1.0049-.2699.3407-.4703.7607-.6029,1.2581v-2.0059h-1.1739v8.5711h1.4794v-5.1297Z"/><path d="m139.0822,136.6949c-.6916-.4232-1.5035-.6351-2.4362-.6351-.9223,0-1.7315.2119-2.4283.6351-.6968.4237-1.2275.9756-1.5919,1.6565-.3646.6808-.5467,1.3965-.5467,2.1466v.2733c0,.7507.1768,1.466.5304,2.1469.3539.6808.8791,1.233,1.5759,1.6562.6968.4235,1.5171.6353,2.4605.6353.9539,0,1.7768-.2119,2.4683-.6353.6913-.4232,1.2165-.9754,1.5759-1.6562.3591-.6808.5388-1.3962.5388-2.1469v-.2733c0-.7502-.1852-1.4658-.555-2.1466s-.9003-1.2327-1.5919-1.6565Zm.2974,5.588c-.2467.4933-.6058.882-1.0774,1.166-.4719.2841-1.0237.4261-1.6562.4261s-1.1849-.142-1.6565-.4261c-.4719-.2841-.8281-.6727-1.0693-1.166-.2412-.4928-.3617-1.0452-.3617-1.6562s.1258-1.1632.3777-1.6562.6136-.8791,1.0855-1.1579c.4716-.2786,1.0133-.418,1.6243-.418.6215,0,1.1658.1394,1.6321.418.4664.2788.8281.6649,1.0855,1.1579s.3858,1.0452.3858,1.6562-.1232,1.1634-.3698,1.6562Z"/><path d="m144.847,133.728h-1.415v2.6211h-1.4956v1.1095h1.4956v4.5831c0,.7292.1203,1.3107.3617,1.7449.2412.4342.5893.7475,1.0452.9406.4554.193,1.0104.2895,1.6643.2895h1.3185v-1.3347h-1.5116c-.4609,0-.82-.1258-1.0774-.378-.2571-.2516-.3858-.6136-.3858-1.0855v-4.7599h2.9747v-1.1095h-2.9747v-2.6211Z"/><path d="m153.9001,136.092h-.0643c-1.0614,0-1.8573.3351-2.388,1.0049-.2699.3407-.4703.7607-.6029,1.2581v-2.0059h-1.1739v8.5711h1.4794v-5.1297c0-.6968.2116-1.2597.6351-1.6884s.9835-.6434,1.6805-.6434c.6539,0,1.1739.2011,1.5599.6032.3858.402.5788.9463.5788,1.6321v5.2262h1.4794v-4.9045c0-1.2756-.2655-2.2486-.7959-2.9188-.5307-.6699-1.3266-1.0049-2.388-1.0049Z"/><path d="m162.6942,143.489h-.3526l-2.5077-7.1398h-1.5118l3.0715,8.3781h.9293l-.2218.7397c-.1609.5469-.3939.9272-.6994,1.1417s-.7373.3217-1.2945.3217h-1.2061v1.3347h1.1255c.5791,0,1.0881-.0861,1.5278-.2574.4394-.1716.8145-.4316,1.1258-.78.3107-.3484.5519-.8067.7235-1.3748l2.8785-9.5038h-1.4472l-2.1407,7.1398Z"/><polygon points="164.5775 131.911 163.0176 131.911 161.6025 135.0787 162.8086 135.0787 164.5775 131.911"/><path d="m176.7503,140.7392c-.5362-.418-1.2811-.6753-2.235-.7719l-.9327-.0965c-.4933-.0534-.855-.1792-1.0855-.3777-.2307-.1983-.3458-.4637-.3458-.7962,0-.3963.1635-.718.4904-.9646s.78-.3698,1.3588-.3698c.5896,0,1.0426.118,1.3588.3536.3162.2359.4849.5414.5066.9165h1.3991c-.0217-.8145-.3246-1.4417-.9087-1.8814-.5843-.4394-1.3695-.6591-2.3559-.6591-.6325,0-1.1927.1044-1.6803.3136-.4881.209-.8713.5093-1.1498.9003-.2788.3916-.418.855-.418,1.391,0,.6971.2435,1.2492.7316,1.6565.4875.4075,1.1551.6591,2.002.7556l.9487.0965c.6003.0643,1.0373.1985,1.3107.402.2733.2038.4101.4881.4101.8524,0,.4287-.1878.7774-.5629,1.0452-.3753.2681-.906.402-1.5921.402-.7182,0-1.2518-.1368-1.6-.4101-.3484-.2733-.5281-.6084-.5386-1.0049h-1.3991c.0212.8362.3403,1.493.9568,1.9698.6162.4768,1.4765.7156,2.5808.7156.6861,0,1.3-.1153,1.8414-.3458.5412-.2304.962-.5548,1.2623-.973.3-.418.4501-.8843.4501-1.3988,0-.729-.2681-1.3026-.804-1.7208Z"/><path d="m181.092,133.728h-1.415v2.6211h-1.4956v1.1095h1.4956v4.5831c0,.7292.1206,1.3107.3617,1.7449s.5896.7475,1.0452.9406,1.0104.2895,1.6643.2895h1.3188v-1.3347h-1.5116c-.4611,0-.8203-.1258-1.0774-.378-.2574-.2516-.3861-.6136-.3861-1.0855v-4.7599h2.975v-1.1095h-2.975v-2.6211Z"/><path d="m189.0981,143.489h-.3526l-2.5078-7.1398h-1.5116l3.0712,8.3781h.9296l-.2218.7397c-.1609.5469-.3942.9272-.6997,1.1417s-.7371.3217-1.2945.3217h-1.2061v1.3347h1.1258c.5788,0,1.0878-.0861,1.5275-.2574.4394-.1716.8148-.4316,1.1258-.78.3107-.3484.5519-.8067.7235-1.3748l2.8785-9.5038h-1.4472l-2.1406,7.1398Z"/><polygon points="193.2004 133.1814 193.2004 134.3553 194.4064 134.3553 194.4064 144.9202 195.8858 144.9202 195.8858 134.3553 195.8858 133.1814 194.4064 133.1814 193.2004 133.1814"/><path d="m207.6006,136.6387c-.6168-.3861-1.3646-.5788-2.2434-.5788-.9113,0-1.6805.209-2.3075.627-.6272.4182-1.0962.9649-1.4072,1.6402s-.4664,1.3991-.4664,2.171v.2733c0,.7614.1528,1.4794.4585,2.155.3055.6753.7797,1.2249,1.4232,1.6481.6432.4235,1.4417.6353,2.3959.6353,1.0183,0,1.8678-.2521,2.5486-.7559s1.1122-1.1953,1.2947-2.0744h-1.3991c-.0965.429-.3617.7907-.7959,1.0855-.4342.295-.9837.4423-1.6484.4423-.6432,0-1.1768-.142-1.6-.4261-.4237-.2841-.7397-.6699-.9487-1.1579-.1786-.4165-.2761-.8933-.3021-1.4232h6.8388v-.6753c0-.7397-.1528-1.4258-.4583-2.0582s-.7666-1.142-1.3829-1.5278Zm-3.779,1.1417c.4125-.2786.9246-.418,1.5356-.418.5681,0,1.0559.1232,1.4634.3698.4073.2467.7099.5977.9084,1.0533.1306.3001.214.6374.2587,1.0049h-5.329c.0505-.3088.1283-.5968.2383-.8603.2035-.4878.5119-.871.9246-1.1498Z"/><polygon points="217.6427 136.3491 216.1149 136.3491 214.1211 139.5975 213.8959 139.5975 211.7892 136.3491 210.1493 136.3491 212.9592 140.5956 210.0044 144.9202 211.5321 144.9202 213.8799 141.4145 214.1051 141.4145 216.5491 144.9202 218.1894 144.9202 215.0292 140.4235 217.6427 136.3491"/><path d="m220.6499,134.9341c.3215,0,.5681-.0855.7397-.2574.1713-.1713.2571-.402.2571-.6913,0-.2786-.0858-.5038-.2571-.6753-.1716-.1713-.4182-.2574-.7397-.2574-.3217,0-.5658.0861-.7318.2574-.1664.1716-.2493.402-.2493.6913,0,.2791.0829.504.2493.6753.1661.1718.4101.2574.7318.2574Z"/><polygon points="218.9291 136.3491 218.9291 137.523 220.2479 137.523 220.2479 144.9202 221.7272 144.9202 221.7272 137.523 221.7272 136.3491 220.2479 136.3491 218.9291 136.3491"/><path d="m229.8801,140.7392c-.5362-.418-1.2811-.6753-2.2353-.7719l-.9327-.0965c-.493-.0534-.855-.1792-1.0852-.3777-.2307-.1983-.3458-.4637-.3458-.7962,0-.3963.1632-.718.4904-.9646.327-.2467.78-.3698,1.3588-.3698.5896,0,1.0426.118,1.3588.3536.316.2359.4849.5414.5066.9165h1.3988c-.0214-.8145-.3243-1.4417-.9084-1.8814-.5846-.4394-1.3698-.6591-2.3559-.6591-.6327,0-1.1927.1044-1.6805.3136-.4878.209-.871.5093-1.1498.9003-.2788.3916-.418.855-.418,1.391,0,.6971.2438,1.2492.7316,1.6565.4878.4075,1.1551.6591,2.002.7556l.9489.0965c.6003.0643,1.0371.1985,1.3104.402.2736.2038.4101.4881.4101.8524,0,.4287-.1878.7774-.5629,1.0452-.3753.2681-.906.402-1.5919.402-.7185,0-1.2518-.1368-1.6-.4101-.3487-.2733-.5284-.6084-.5388-1.0049h-1.3991c.0214.8362.3403,1.493.9568,1.9698s1.4768.7156,2.5811.7156c.6858,0,1.2997-.1153,1.8411-.3458.5412-.2304.9623-.5548,1.2623-.973.3-.418.4504-.8843.4504-1.3988,0-.729-.2681-1.3026-.804-1.7208Z"/><path d="m234.5272,133.728h-1.415v2.6211h-1.4956v1.1095h1.4956v4.5831c0,.7292.1206,1.3107.3617,1.7449s.5893.7475,1.0452.9406c.4556.193,1.0104.2895,1.6643.2895h1.3188v-1.3347h-1.5118c-.4609,0-.82-.1258-1.0774-.378-.2571-.2516-.3858-.6136-.3858-1.0855v-4.7599h2.975v-1.1095h-2.975v-2.6211Z"/><path d="m244.8829,141.4629c0,.7182-.2038,1.2892-.611,1.7124-.4075.4237-.9434.6353-1.6081.6353-.6327,0-1.1336-.193-1.5035-.5788-.3698-.3861-.555-.922-.555-1.6081v-5.2906h-1.4794v4.9851c0,1.2437.2736,2.1976.8203,2.8623.5467.6649,1.3238.9971,2.3316.9971h.0643c1.0075,0,1.7689-.3351,2.2834-1.0052.2575-.3351.4504-.7459.5791-1.2326v1.9804h1.1739v-8.587h-1.4956v5.1297Z"/><path d="m248.0991,136.3491v1.1739h1.3669v8.0566c0,.418-.1101.7368-.3298.9568-.2197.2194-.5333.3296-.9406.3296h-.9168v1.3347h.6916c.7075,0,1.2728-.0913,1.6965-.2733.4235-.1826.7316-.48.9246-.8924.193-.413.2895-.973.2895-1.6805v-9.0053h-2.782Z"/><path d="m249.8037,134.8054c.3215,0,.5652-.0884.7316-.2652.1661-.1768.2493-.4046.2493-.6835,0-.2895-.0832-.5171-.2493-.6835-.1664-.1661-.4101-.2493-.7316-.2493-.3217,0-.5658.0861-.7318.2574-.1664.1716-.2493.402-.2493.6913,0,.2791.0829.504.2493.6756.1661.1716.4101.2571.7318.2571Z"/><path d="m259.2829,136.6387c-.6165-.3861-1.3643-.5788-2.2431-.5788-.9113,0-1.6805.209-2.3078.627-.627.4182-1.0962.9649-1.4069,1.6402-.311.6753-.4664,1.3991-.4664,2.171v.2733c0,.7614.1528,1.4794.4583,2.155.3055.6753.78,1.2249,1.4232,1.6481.6432.4235,1.4417.6353,2.3959.6353,1.0185,0,1.8681-.2521,2.5489-.7559.6806-.5038,1.1122-1.1953,1.2945-2.0744h-1.3991c-.0965.429-.3617.7907-.7959,1.0855-.4342.295-.9837.4423-1.6484.4423-.6432,0-1.1765-.142-1.6-.4261s-.7397-.6699-.9487-1.1579c-.1785-.4165-.2761-.8933-.3021-1.4232h6.839v-.6753c0-.7397-.153-1.4258-.4585-2.0582s-.7666-1.142-1.3829-1.5278Zm-3.779,1.1417c.4127-.2786.9246-.418,1.5359-.418.5681,0,1.0557.1232,1.4632.3698s.7101.5977.9087,1.0533c.1306.3001.2138.6374.2584,1.0049h-5.329c.0505-.3088.1283-.5968.2383-.8603.2035-.4878.5119-.871.9246-1.1498Z"/><path d="m263.6648,143.2962c-.1716-.1823-.3861-.2736-.6432-.2736-.2574,0-.4719.0913-.6434.2736s-.2571.4075-.2571.6753c0,.2681.0855.493.2571.6753s.3861.2733.6434.2733c.2571,0,.4716-.091.6432-.2733.1713-.1823.2571-.4073.2571-.6753,0-.2678-.0858-.493-.2571-.6753Z"/></g><g><g><path d="m129.9493,151.6939c-.6971-.4232-1.5063-.6351-2.4283-.6351h-55.9361c-.922,0-1.7315.2119-2.4281.6351-.6971.4237-1.2278.9756-1.5921,1.6565-.3646.6808-.5467,1.3965-.5467,2.1466v.2733c0,.7507.1768,1.466.5307,2.1469.3536.6808.8788,1.233,1.5759,1.6562.6968.4235,1.5168.6353,2.4602.6353h55.9361c.9434,0,1.7634-.2119,2.4605-.6353.6968-.4232,1.222-.9754,1.5759-1.6562.3536-.6808.5307-1.3962.5307-2.1469v-.2733c0-.7502-.1826-1.4658-.5469-2.1466s-.8951-1.2327-1.5919-1.6565Zm.2974,5.588c-.2412.4933-.5977.882-1.0693,1.166-.4719.2841-1.024.4261-1.6565.4261s-1.1846-.142-1.6562-.4261c-.4719-.2841-.831-.6727-1.0774-1.166-.2469-.4928-.3698-1.0452-.3698-1.6562s.1287-1.1632.3858-1.6562c.2574-.493.6191-.8791,1.0855-1.1579.4664-.2786,1.0104-.418,1.6321-.418.6113,0,1.1524.1394,1.6243.418.4716.2788.8333.6649,1.0855,1.1579.2516.493.378,1.0452.378,1.6562s-.1208,1.1634-.362,1.6562Z"/><path class="cls-2" d="m130.2466,157.2818c-.2412.4933-.5977.882-1.0693,1.166-.4719.2841-1.024.4261-1.6565.4261s-1.1846-.142-1.6562-.4261c-.4719-.2841-.831-.6727-1.0774-1.166-.2469-.4928-.3698-1.0452-.3698-1.6562s.1287-1.1632.3858-1.6562c.2574-.493.6191-.8791,1.0855-1.1579.4664-.2786,1.0104-.418,1.6321-.418.6113,0,1.1524.1394,1.6243.418.4716.2788.8333.6649,1.0855,1.1579.2516.493.378,1.0452.378,1.6562s-.1208,1.1634-.362,1.6562Z"/><path d="m138.2305,151.091h-.0641c-1.0614,0-1.8573.3351-2.388,1.0049-.2701.341-.4705.7614-.6032,1.2592v-2.007h-1.1739v8.5711h1.4796v-5.1297c0-.6968.2113-1.2597.6351-1.6884.4235-.4287.9835-.6434,1.6803-.6434.6539,0,1.1741.2011,1.5599.6032.3861.402.5788.9463.5788,1.6321v5.2262h1.4796v-4.9045c0-1.2756-.2655-2.2486-.7962-2.9188-.5307-.6699-1.3266-1.0049-2.388-1.0049Z"/><polygon points="142.6849 148.1803 142.6849 149.3542 143.891 149.3542 143.891 159.9192 145.3703 159.9192 145.3703 149.3542 145.3703 148.1803 143.891 148.1803 142.6849 148.1803"/><polygon points="147.1712 151.3481 147.1712 152.522 148.49 152.522 148.49 159.9192 149.9694 159.9192 149.9694 152.522 149.9694 151.3481 148.49 151.3481 147.1712 151.3481"/><path d="m148.1604,149.6757c.1658.1718.4099.2574.7316.2574.3215,0,.5681-.0855.7397-.2574.1713-.1713.2571-.402.2571-.6913,0-.2786-.0858-.5038-.2571-.6753-.1716-.1713-.4182-.2574-.7397-.2574-.3217,0-.5658.0861-.7316.2574-.1664.1716-.2495.402-.2495.6913,0,.2791.0832.504.2495.6753Z"/><path d="m156.7875,151.091h-.0643c-1.0612,0-1.8573.3351-2.3878,1.0049-.2699.3409-.4705.761-.6032,1.2586v-2.0064h-1.1739v8.5711h1.4794v-5.1297c0-.6968.2116-1.2597.6353-1.6884.4232-.4287.9832-.6434,1.6803-.6434.6539,0,1.1739.2011,1.5599.6032.3858.402.5788.9463.5788,1.6321v5.2262h1.4794v-4.9045c0-1.2756-.2652-2.2486-.7959-2.9188-.5307-.6699-1.3266-1.0049-2.388-1.0049Z"/><path d="m168.2449,151.6376c-.6165-.3861-1.3643-.5788-2.2431-.5788-.9115,0-1.6805.209-2.3078.627-.627.4182-1.0962.9649-1.4069,1.6402-.311.6753-.4664,1.3991-.4664,2.171v.2733c0,.7614.1528,1.4794.4583,2.155.3055.6753.78,1.2249,1.4232,1.6481.6432.4235,1.4417.6353,2.3962.6353,1.0183,0,1.8678-.2521,2.5486-.7559.6806-.5038,1.1122-1.1953,1.2945-2.0744h-1.3991c-.0963.429-.3617.7907-.7959,1.0855-.4342.295-.9837.4423-1.6481.4423-.6434,0-1.1768-.142-1.6002-.4261s-.7397-.6699-.9487-1.1579c-.1785-.4165-.2761-.8933-.3021-1.4232h6.8388v-.6753c0-.7397-.1528-1.4258-.4583-2.0582s-.7664-1.142-1.3829-1.5278Zm-3.779,1.1417c.4127-.2786.9246-.418,1.5359-.418.5681,0,1.0557.1232,1.4632.3698.4073.2467.7101.5977.9087,1.0533.1306.3001.2138.6374.2584,1.0049h-5.329c.0505-.3088.1283-.5968.2383-.8603.2035-.4878.5119-.871.9246-1.1498Z"/></g><g><path class="cls-1" d="m74.7666,154.9367h.3667l.5857,2.1281h-.3506l-.6018-2.1281Zm.6895,1.8253h.4423v.3028h-.4423v-.3028Zm.6256-1.7535h.518l.5022,2.0563h-.3268l-.5022-2.0483h.1276l-.4343,2.0483h-.3149l.4303-2.0563Zm.7732,1.7535h.4423v.3028h-.4423v-.3028Zm.6893-1.8253h.3468l-.522,2.1281h-.3347l.5099-2.1281Z"/><path class="cls-1" d="m78.1459,154.9367h.3667l.5857,2.1281h-.3506l-.6018-2.1281Zm.6895,1.8253h.4423v.3028h-.4423v-.3028Zm.6256-1.7535h.518l.5022,2.0563h-.3268l-.5022-2.0483h.1276l-.4343,2.0483h-.3149l.4303-2.0563Zm.7732,1.7535h.4423v.3028h-.4423v-.3028Zm.6893-1.8253h.3468l-.522,2.1281h-.3347l.5099-2.1281Z"/><path class="cls-1" d="m81.5251,154.9367h.3667l.5857,2.1281h-.3506l-.6018-2.1281Zm.6895,1.8253h.4423v.3028h-.4423v-.3028Zm.6256-1.7535h.518l.5022,2.0563h-.3268l-.5022-2.0483h.1276l-.4343,2.0483h-.3149l.4303-2.0563Zm.7732,1.7535h.4423v.3028h-.4423v-.3028Zm.6893-1.8253h.3468l-.522,2.1281h-.3347l.5099-2.1281Z"/><path class="cls-1" d="m85.0059,156.9949c-.0438-.0465-.0658-.1039-.0658-.1731s.0219-.127.0658-.1735.099-.0696.1654-.0696.1215.0231.1654.0696.0658.1043.0658.1735-.0219.1266-.0658.1731-.099.0699-.1654.0699-.1215-.0234-.1654-.0699Z"/><path class="cls-1" d="m86.0599,154.9367h.3028v.9125h-.0478c0-.3134.0618-.5545.1854-.7231.1234-.1686.3088-.2533.5558-.2533h.0159c.2472,0,.4324.0847.556.2533.1234.1686.1852.4097.1852.7231h-.1115c0-.3134.0631-.5545.1892-.7231.1262-.1686.3128-.2533.56-.2533h.0159c.247,0,.4337.0847.56.2533.1261.1686.1892.4097.1892.7231v1.2156h-.3825v-1.2992c0-.1701-.0425-.3028-.1276-.3984s-.2032-.1436-.3546-.1436c-.1595,0-.2863.0507-.3806.1516s-.1414.2389-.1414.4143v1.2753h-.3827v-1.2992c0-.1701-.0425-.3028-.1274-.3984-.085-.0956-.2034-.1436-.3547-.1436-.1593,0-.2863.0507-.3806.1516s-.1414.2389-.1414.4143v1.2753h-.3825v-2.1281Z"/><path class="cls-1" d="m89.9393,156.9393c-.1368-.121-.2052-.2918-.2052-.5122,0-.223.075-.3931.2251-.5099.1501-.1172.3646-.1754.6435-.1754h.578v.2869h-.5938c-.1514,0-.2689.0363-.3527.1096-.0837.073-.1255.1693-.1255.2888s.0418.2147.1255.285.2013.1055.3527.1055.2795-.0423.3846-.1274c.1049-.085.1614-.2234.1693-.4147l.1036.1516c-.0214.2287-.0936.401-.2172.5178-.1236.1172-.2969.1754-.5201.1754-.2417,0-.4309-.0601-.5677-.1811Zm1.2651-.5122h-.0637v-.7371c0-.1463-.0378-.2567-.1136-.3307-.0758-.0745-.1867-.1119-.3328-.1119-.2417,0-.4795.0079-.7133.0242v-.3349c.1727-.0159.368-.0238.5859-.0238.3321,0,.5717.0612.7191.1833.1476.1221.2213.3292.2213.6214v1.3472h-.303v-.6377Z"/><path class="cls-1" d="m92.2087,154.9367h.3028v.9125h-.0478c0-.3186.0658-.5609.1973-.7273.1315-.1659.3287-.2491.5917-.2491h.0159c.2631,0,.4604.0832.5919.2491.1314.1663.1971.4086.1971.7273v1.2156h-.3825v-1.2954c0-.1671-.0472-.3001-.1414-.3984-.0945-.0983-.2213-.1474-.3806-.1474-.1675,0-.303.0525-.4065.1576-.1036.1047-.1554.2423-.1554.4124v1.2712h-.3825v-2.1281Z"/><path class="cls-1" d="m94.9144,156.8815c-.1355-.1648-.2032-.4026-.2032-.7133v-1.2353h.3825v1.3109c0,.1675.0452.2982.1355.3924.0903.0945.2124.1417.3667.1417.162,0,.2928-.0518.3925-.1554.0996-.1039.1493-.2434.1493-.4184v-1.2712h.3825v2.1319h-.3028v-.9125h.0478c0,.3186-.0631.5609-.1894.7273-.1261.1659-.3141.2487-.5638.2487h-.0159c-.2525,0-.4464-.082-.5819-.2468Z"/><path class="cls-1" d="m97.2836,156.9393c-.1368-.121-.2052-.2918-.2052-.5122,0-.223.075-.3931.2251-.5099.1501-.1172.3646-.1754.6435-.1754h.578v.2869h-.5938c-.1514,0-.2689.0363-.3527.1096-.0837.073-.1255.1693-.1255.2888s.0418.2147.1255.285.2013.1055.3527.1055.2795-.0423.3846-.1274c.1049-.085.1614-.2234.1693-.4147l.1036.1516c-.0214.2287-.0936.401-.2172.5178-.1236.1172-.2969.1754-.5201.1754-.2417,0-.4309-.0601-.5677-.1811Zm1.2651-.5122h-.0637v-.7371c0-.1463-.0378-.2567-.1136-.3307-.0758-.0745-.1867-.1119-.3328-.1119-.2417,0-.4795.0079-.7133.0242v-.3349c.1727-.0159.368-.0238.5859-.0238.3321,0,.5717.0612.7191.1833.1476.1221.2213.3292.2213.6214v1.3472h-.303v-.6377Z"/><path class="cls-1" d="m99.2819,154.1558h.6774v.3028h-.6774v-.3028Zm.2948,0h.3825v2.909h-.3825v-2.909Z"/><path class="cls-1" d="m100.6826,156.9949c-.0438-.0465-.0658-.1039-.0658-.1731s.0219-.127.0658-.1735.099-.0696.1654-.0696.1215.0231.1654.0696.0658.1043.0658.1735-.0219.1266-.0658.1731-.099.0699-.1654.0699-.1215-.0234-.1654-.0699Z"/><path class="cls-1" d="m101.4977,154.9367h1.2313v.2869h-1.2313v-.2869Zm.4801-.6517c.1236-.1126.3075-.1693.5521-.1693h.2391v.319h-.303c-.0983,0-.1739.0272-.227.0816-.0533.0544-.0798.1293-.0798.2253v2.3231h-.3667v-2.2596c0-.2336.0618-.4071.1852-.5201Zm.9665.6517h.6932v.3028h-.6932v-.3028Zm.231-.4086c-.0425-.0435-.0637-.1013-.0637-.1731s.0212-.1297.0637-.1735.1051-.0658.1873-.0658c.0824,0,.1448.0219.1873.0658s.0639.1017.0639.1735-.0214.1297-.0639.1731c-.0425.0438-.1049.0658-.1873.0658-.0822,0-.1448-.0219-.1873-.0658Zm.0798.4086h.3825v2.1281h-.3825v-2.1281Z"/><path class="cls-1" d="m104.3788,154.9367h.3028v.8766h-.0159c0-.3081.0677-.5352.2032-.6811.1355-.1463.3413-.2192.6176-.2192h.0718v.3425h-.1355c-.2126,0-.3759.0567-.4901.1697-.1143.1126-.1714.2756-.1714.488v1.1517h-.3825v-2.1281Z"/><path class="cls-1" d="m106.0124,154.9367h.3028v.9125h-.0478c0-.3134.0618-.5545.1854-.7231.1234-.1686.3088-.2533.5558-.2533h.0159c.2472,0,.4324.0847.556.2533.1234.1686.1852.4097.1852.7231h-.1115c0-.3134.0631-.5545.1892-.7231.1262-.1686.3128-.2533.56-.2533h.0159c.247,0,.4337.0847.56.2533.1261.1686.1892.4097.1892.7231v1.2156h-.3825v-1.2992c0-.1701-.0425-.3028-.1276-.3984s-.2032-.1436-.3546-.1436c-.1595,0-.2863.0507-.3806.1516s-.1414.2389-.1414.4143v1.2753h-.3827v-1.2992c0-.1701-.0425-.3028-.1274-.3984-.085-.0956-.2034-.1436-.3547-.1436-.1593,0-.2863.0507-.3806.1516s-.1414.2389-.1414.4143v1.2753h-.3825v-2.1281Z"/><path class="cls-1" d="m109.8918,156.9393c-.1368-.121-.2052-.2918-.2052-.5122,0-.223.075-.3931.2251-.5099.1501-.1172.3646-.1754.6435-.1754h.578v.2869h-.5938c-.1514,0-.2689.0363-.3527.1096-.0837.073-.1255.1693-.1255.2888s.0418.2147.1255.285.2013.1055.3527.1055.2795-.0423.3846-.1274c.1049-.085.1614-.2234.1693-.4147l.1036.1516c-.0214.2287-.0936.401-.2172.5178-.1236.1172-.2969.1754-.5201.1754-.2417,0-.4309-.0601-.5677-.1811Zm1.2651-.5122h-.0637v-.7371c0-.1463-.0378-.2567-.1136-.3307-.0758-.0745-.1867-.1119-.3328-.1119-.2417,0-.4795.0079-.7133.0242v-.3349c.1727-.0159.368-.0238.5859-.0238.3321,0,.5717.0612.7191.1833.1476.1221.2213.3292.2213.6214v1.3472h-.303v-.6377Z"/><path class="cls-1" d="m112.1512,156.9949c-.0438-.0465-.0658-.1039-.0658-.1731s.0219-.127.0658-.1735.099-.0696.1654-.0696.1215.0231.1654.0696.0658.1043.0658.1735-.0219.1266-.0658.1731-.099.0699-.1654.0699-.1215-.0234-.1654-.0699Z"/><path class="cls-1" d="m113.4723,156.9771c-.1622-.1062-.2829-.2438-.3627-.4124-.0798-.169-.1196-.3447-.1196-.5281v-.0718c0-.186.0406-.3633.1217-.5318.0809-.169.2018-.3058.3625-.4105.1608-.1051.354-.1576.5798-.1576.178,0,.3381.0333.4802.0998s.2563.1606.3427.2827c.0864.1225.1348.2646.1455.4264h-.3667c-.0214-.138-.0845-.2502-.1894-.3364-.1049-.0866-.2425-.1297-.4124-.1297-.1487,0-.2742.034-.3765.1017-.1024.0677-.1788.1614-.2293.2808s-.0756.2563-.0756.4105c0,.1516.0259.2869.0777.4063.0518.1198.1287.2139.2311.2831.1022.0692.2291.1036.3804.1036.1142,0,.2166-.0204.3069-.062.0902-.0408.162-.0979.2151-.1712.0531-.073.085-.1546.0956-.2449h.3667c-.0079.1648-.0565.3088-.1453.4324-.089.1232-.2066.2189-.3527.2869-.1463.0677-.3083.1017-.4863.1017-.2311,0-.4277-.0533-.5897-.1595Z"/><path class="cls-1" d="m115.4288,156.6384l1.1597-1.391v.0639l-.0639-.0956.0518.0238h-1.1635v-.3028h1.5142v.4264l-1.1597,1.3906v-.0556l.0718.0994-.0559-.0355h1.2075v.3028h-1.5621v-.4264Z"/></g></g></g><g><g><path class="cls-1" d="m69.1406,207.0355c0-.6968.2116-1.2597.6353-1.6884.4232-.4287.9835-.6434,1.6803-.6434.6539,0,1.1739.2011,1.5599.6032.3858.402.5788.9463.5788,1.6321v5.2262h1.4794v-4.9045c0-1.2756-.2652-2.2486-.7959-2.9188-.5307-.6699-1.3266-1.0049-2.388-1.0049h-.0643c-1.0612,0-1.8573.3351-2.3878,1.0049-.2699.3409-.4705.761-.6032,1.2586v-2.0064h-1.1739v8.5711h1.4794v-5.1297Z"/><polygon class="cls-1" points="82.7608 199.156 81.2009 199.156 79.7858 202.3238 80.9919 202.3238 82.7608 199.156"/><path class="cls-1" d="m77.6552,211.6586c.5522.4881,1.3107.7318,2.2756.7318.9003,0,1.6023-.2357,2.1066-.7075.3334-.3121.5731-.7275.7235-1.2418v1.7241h1.1739v-5.4352c0-1.1684-.295-1.9994-.8843-2.4924-.5898-.493-1.5492-.74-2.8785-.74-.8684,0-1.651.0322-2.3478.0965v1.3026c.9217-.0643,1.8707-.0965,2.8463-.0965.6003,0,1.0557.1528,1.3669.4583.3107.3058.4661.7588.4661,1.3591v.2412h-2.2029c-1.1153,0-1.9727.2359-2.573.7075-.6005.4719-.9006,1.1524-.9006,2.0423,0,.8791.2759,1.5626.8281,2.0501Zm1.1336-3.2402c.3432-.3.8255-.4501,1.4475-.4501h2.2672v1.0292c-.0322.7826-.2626,1.3481-.6913,1.6965-.429.3484-.9544.5226-1.5759.5226-.622,0-1.1043-.1449-1.4475-.4342-.3432-.2895-.5145-.6808-.5145-1.1739s.1713-.8898.5145-1.1901Z"/><polygon class="cls-1" points="90.0291 202.3238 91.589 199.156 90.4311 199.156 89.3056 201.5841 89.1769 201.5841 87.8422 199.156 86.6199 199.156 88.3888 202.3238 90.0291 202.3238"/><path class="cls-1" d="m90.8009,210.7502c-.3753.2681-.906.402-1.5919.402-.7185,0-1.2518-.1368-1.6-.4101-.3487-.2733-.5284-.6084-.5388-1.0049h-1.3991c.0214.8362.3403,1.493.9568,1.9698s1.4768.7156,2.5811.7156c.6858,0,1.2997-.1153,1.8411-.3458.5412-.2304.962-.5548,1.2623-.973.3-.418.4504-.8843.4504-1.3988,0-.729-.2681-1.3026-.804-1.7208-.5362-.418-1.2811-.6753-2.2353-.7719l-.9327-.0965c-.4933-.0534-.855-.1792-1.0855-.3777-.2307-.1983-.3458-.4637-.3458-.7962,0-.3963.1635-.718.4907-.9646.327-.2467.78-.3698,1.3588-.3698.5893,0,1.0423.118,1.3588.3536.316.2359.4849.5414.5064.9165h1.3991c-.0217-.8145-.3243-1.4417-.9084-1.8814-.5846-.4394-1.3698-.6591-2.3559-.6591-.6327,0-1.1927.1044-1.6805.3136-.4878.209-.871.5093-1.1498.9003-.2788.3916-.418.855-.418,1.391,0,.6971.2438,1.2492.7316,1.6565.4878.4075,1.1551.6591,2.002.7556l.9489.0965c.6003.0643,1.0371.1985,1.3104.402.2733.2038.4101.4881.4101.8524,0,.4287-.1878.7774-.5629,1.0452Z"/><path class="cls-1" d="m98.8329,215.1724c.4235-.1826.7316-.48.9246-.8924.193-.413.2895-.973.2895-1.6805v-9.0053h-2.782v1.1739h1.3667v8.0566c0,.418-.1099.7368-.3296.9568-.2197.2194-.5333.3296-.9406.3296h-.9168v1.3347h.6916c.7075,0,1.2728-.0913,1.6965-.2733Z"/><path class="cls-1" d="m98.9697,202.0504c.3215,0,.5652-.0884.7316-.2652.1661-.1768.2493-.4046.2493-.6835,0-.2895-.0832-.5171-.2493-.6835-.1664-.1661-.4101-.2493-.7316-.2493-.3217,0-.5658.0861-.7318.2574-.1664.1716-.2493.402-.2493.6913,0,.2791.0829.504.2493.6756.1661.1716.4101.2571.7318.2571Z"/><path class="cls-1" d="m108.7464,209.6244c-.0965.429-.3617.7907-.7959,1.0855-.4342.295-.9837.4423-1.6484.4423-.6432,0-1.1765-.142-1.6-.4261-.4237-.2841-.7397-.6699-.9487-1.1579-.1785-.4165-.2761-.8933-.3021-1.4232h6.8388v-.6753c0-.7397-.1528-1.4258-.4583-2.0582s-.7666-1.142-1.3829-1.5278c-.6165-.3861-1.3643-.5788-2.2434-.5788-.9113,0-1.6803.209-2.3075.627-.6272.4182-1.0962.9649-1.4069,1.6402-.311.6753-.4664,1.3991-.4664,2.171v.2733c0,.7614.1528,1.4794.4583,2.155.3055.6753.78,1.2249,1.4232,1.6481.6432.4235,1.4417.6353,2.3959.6353,1.0185,0,1.8681-.2521,2.5489-.7559.6806-.5038,1.1122-1.1953,1.2945-2.0744h-1.3991Zm-4.0764-4.599c.4125-.2786.9246-.418,1.5356-.418.5681,0,1.0559.1232,1.4634.3698.4073.2467.7101.5977.9087,1.0533.1306.3001.2138.6374.2584,1.0049h-5.329c.0505-.3088.1283-.5968.2383-.8603.2035-.4878.5119-.871.9246-1.1498Z"/><path class="cls-1" d="m117.5264,212.0206c.5467-.2895.9968-.7397,1.3507-1.351.0544-.094.0978-.1989.1446-.3005v1.7961h1.1739v-11.7388h-1.4794v4.5247c-.3239-.5325-.7345-.94-1.2382-1.212-.5362-.2895-1.1472-.4342-1.8333-.4342-.804,0-1.5249.1985-2.1626.5948-.6382.3968-1.1313.9327-1.4796,1.6081-.3484.6756-.5226,1.4208-.5226,2.2353v.2733c0,.815.1794,1.5626.5388,2.2434.3591.6808.8603,1.2168,1.5035,1.6081.6432.391,1.3669.5869,2.171.5869.6753,0,1.2864-.1449,1.8333-.4342Zm-4.197-2.4202c-.2469-.4985-.3701-1.0748-.3701-1.7287,0-.6432.1206-1.2113.362-1.7046.2412-.493.5814-.8765,1.0211-1.1498.4394-.2733.9487-.4099,1.5275-.4099.5252,0,1.0104.1125,1.4553.3377.4449.2249.7985.5522,1.0614.9809.2626.429.3939.9275.3939,1.4956v.7556c0,.5898-.1287,1.1095-.3858,1.5599-.2574.4501-.6058.7985-1.0455,1.0452s-.9272.3698-1.4632.3698c-.5684,0-1.075-.1339-1.5197-.402-.4449-.2678-.7907-.6513-1.0371-1.1498Z"/><path class="cls-1" d="m124.2961,207.0355c0-.6968.2116-1.2597.6351-1.6884s.9835-.6434,1.6805-.6434c.6536,0,1.1739.2011,1.5597.6032.3861.402.5791.9463.5791,1.6321v5.2262h1.4794v-4.9045c0-1.2756-.2655-2.2486-.7959-2.9188-.5307-.6699-1.3269-1.0049-2.388-1.0049h-.0643c-1.0614,0-1.8573.3351-2.388,1.0049-.2699.3407-.4703.7607-.6029,1.2581v-2.0059h-1.1739v8.5711h1.4794v-5.1297Z"/><path class="cls-1" d="m139.0822,203.9399c-.6916-.4232-1.5035-.6351-2.4362-.6351-.9223,0-1.7315.2119-2.4283.6351-.6968.4237-1.2275.9756-1.5919,1.6565-.3646.6808-.5467,1.3965-.5467,2.1466v.2733c0,.7507.1768,1.466.5304,2.1469.3539.6808.8791,1.233,1.5759,1.6562.6968.4235,1.5171.6353,2.4605.6353.9539,0,1.7768-.2119,2.4683-.6353.6913-.4232,1.2165-.9754,1.5759-1.6562.3591-.6808.5388-1.3962.5388-2.1469v-.2733c0-.7502-.1852-1.4658-.555-2.1466s-.9003-1.2327-1.5919-1.6565Zm.2974,5.588c-.2467.4933-.6058.882-1.0774,1.166-.4719.2841-1.0237.4261-1.6562.4261s-1.1849-.142-1.6565-.4261c-.4719-.2841-.8281-.6727-1.0693-1.166-.2412-.4928-.3617-1.0452-.3617-1.6562s.1258-1.1632.3777-1.6562.6136-.8791,1.0855-1.1579c.4716-.2786,1.0133-.418,1.6243-.418.6215,0,1.1658.1394,1.6321.418.4664.2788.8281.6649,1.0855,1.1579s.3858,1.0452.3858,1.6562-.1232,1.1634-.3698,1.6562Z"/><path class="cls-1" d="m144.847,200.9731h-1.415v2.6211h-1.4956v1.1095h1.4956v4.5831c0,.7292.1203,1.3107.3617,1.7449.2412.4342.5893.7475,1.0452.9406.4554.193,1.0104.2895,1.6643.2895h1.3185v-1.3347h-1.5116c-.4609,0-.82-.1258-1.0774-.378-.2571-.2516-.3858-.6136-.3858-1.0855v-4.7599h2.9747v-1.1095h-2.9747v-2.6211Z"/><path class="cls-1" d="m153.9001,203.337h-.0643c-1.0614,0-1.8573.3351-2.388,1.0049-.2699.3407-.4703.7607-.6029,1.2581v-2.0059h-1.1739v8.5711h1.4794v-5.1297c0-.6968.2116-1.2597.6351-1.6884s.9835-.6434,1.6805-.6434c.6539,0,1.1739.2011,1.5599.6032.3858.402.5788.9463.5788,1.6321v5.2262h1.4794v-4.9045c0-1.2756-.2655-2.2486-.7959-2.9188-.5307-.6699-1.3266-1.0049-2.388-1.0049Z"/><path class="cls-1" d="m162.6942,210.734h-.3526l-2.5077-7.1398h-1.5118l3.0715,8.3781h.9293l-.2218.7397c-.1609.5469-.3939.9272-.6994,1.1417s-.7373.3217-1.2945.3217h-1.2061v1.3347h1.1255c.5791,0,1.0881-.0861,1.5278-.2574.4394-.1716.8145-.4316,1.1258-.78.3107-.3484.5519-.8067.7235-1.3748l2.8785-9.5038h-1.4472l-2.1407,7.1398Z"/><polygon class="cls-1" points="164.5775 199.156 163.0176 199.156 161.6025 202.3238 162.8086 202.3238 164.5775 199.156"/><path class="cls-1" d="m176.7503,207.9842c-.5362-.418-1.2811-.6753-2.235-.7719l-.9327-.0965c-.4933-.0534-.855-.1792-1.0855-.3777-.2307-.1983-.3458-.4637-.3458-.7962,0-.3963.1635-.718.4904-.9646s.78-.3698,1.3588-.3698c.5896,0,1.0426.118,1.3588.3536.3162.2359.4849.5414.5066.9165h1.3991c-.0217-.8145-.3246-1.4417-.9087-1.8814-.5843-.4394-1.3695-.6591-2.3559-.6591-.6325,0-1.1927.1044-1.6803.3136-.4881.209-.8713.5093-1.1498.9003-.2788.3916-.418.855-.418,1.391,0,.6971.2435,1.2492.7316,1.6565.4875.4075,1.1551.6591,2.002.7556l.9487.0965c.6003.0643,1.0373.1985,1.3107.402.2733.2038.4101.4881.4101.8524,0,.4287-.1878.7774-.5629,1.0452-.3753.2681-.906.402-1.5921.402-.7182,0-1.2518-.1368-1.6-.4101-.3484-.2733-.5281-.6084-.5386-1.0049h-1.3991c.0212.8362.3403,1.493.9568,1.9698.6162.4768,1.4765.7156,2.5808.7156.6861,0,1.3-.1153,1.8414-.3458.5412-.2304.962-.5548,1.2623-.973.3-.418.4501-.8843.4501-1.3988,0-.729-.2681-1.3026-.804-1.7208Z"/><path class="cls-1" d="m181.092,200.9731h-1.415v2.6211h-1.4956v1.1095h1.4956v4.5831c0,.7292.1206,1.3107.3617,1.7449s.5896.7475,1.0452.9406,1.0104.2895,1.6643.2895h1.3188v-1.3347h-1.5116c-.4611,0-.8203-.1258-1.0774-.378-.2574-.2516-.3861-.6136-.3861-1.0855v-4.7599h2.975v-1.1095h-2.975v-2.6211Z"/><path class="cls-1" d="m189.0981,210.734h-.3526l-2.5078-7.1398h-1.5116l3.0712,8.3781h.9296l-.2218.7397c-.1609.5469-.3942.9272-.6997,1.1417s-.7371.3217-1.2945.3217h-1.2061v1.3347h1.1258c.5788,0,1.0878-.0861,1.5275-.2574.4394-.1716.8148-.4316,1.1258-.78.3107-.3484.5519-.8067.7235-1.3748l2.8785-9.5038h-1.4472l-2.1406,7.1398Z"/><polygon class="cls-1" points="193.2004 200.4264 193.2004 201.6003 194.4064 201.6003 194.4064 212.1652 195.8858 212.1652 195.8858 201.6003 195.8858 200.4264 194.4064 200.4264 193.2004 200.4264"/><path class="cls-1" d="m207.6006,203.8837c-.6168-.3861-1.3646-.5788-2.2434-.5788-.9113,0-1.6805.209-2.3075.627-.6272.4182-1.0962.9649-1.4072,1.6402s-.4664,1.3991-.4664,2.171v.2733c0,.7614.1528,1.4794.4585,2.155.3055.6753.7797,1.2249,1.4232,1.6481.6432.4235,1.4417.6353,2.3959.6353,1.0183,0,1.8678-.2521,2.5486-.7559s1.1122-1.1953,1.2947-2.0744h-1.3991c-.0965.429-.3617.7907-.7959,1.0855-.4342.295-.9837.4423-1.6484.4423-.6432,0-1.1768-.142-1.6-.4261-.4237-.2841-.7397-.6699-.9487-1.1579-.1786-.4165-.2761-.8933-.3021-1.4232h6.8388v-.6753c0-.7397-.1528-1.4258-.4583-2.0582s-.7666-1.142-1.3829-1.5278Zm-3.779,1.1417c.4125-.2786.9246-.418,1.5356-.418.5681,0,1.0559.1232,1.4634.3698.4073.2467.7099.5977.9084,1.0533.1306.3001.214.6374.2587,1.0049h-5.329c.0505-.3088.1283-.5968.2383-.8603.2035-.4878.5119-.871.9246-1.1498Z"/><polygon class="cls-1" points="217.6427 203.5942 216.1149 203.5942 214.1211 206.8425 213.8959 206.8425 211.7892 203.5942 210.1493 203.5942 212.9592 207.8406 210.0044 212.1652 211.5321 212.1652 213.8799 208.6595 214.1051 208.6595 216.5491 212.1652 218.1894 212.1652 215.0292 207.6685 217.6427 203.5942"/><path class="cls-1" d="m220.6499,202.1791c.3215,0,.5681-.0855.7397-.2574.1713-.1713.2571-.402.2571-.6913,0-.2786-.0858-.5038-.2571-.6753-.1716-.1713-.4182-.2574-.7397-.2574-.3217,0-.5658.0861-.7318.2574-.1664.1716-.2493.402-.2493.6913,0,.2791.0829.504.2493.6753.1661.1718.4101.2574.7318.2574Z"/><polygon class="cls-1" points="218.9291 203.5942 218.9291 204.768 220.2479 204.768 220.2479 212.1652 221.7272 212.1652 221.7272 204.768 221.7272 203.5942 220.2479 203.5942 218.9291 203.5942"/><path class="cls-1" d="m229.8801,207.9842c-.5362-.418-1.2811-.6753-2.2353-.7719l-.9327-.0965c-.493-.0534-.855-.1792-1.0852-.3777-.2307-.1983-.3458-.4637-.3458-.7962,0-.3963.1632-.718.4904-.9646.327-.2467.78-.3698,1.3588-.3698.5896,0,1.0426.118,1.3588.3536.316.2359.4849.5414.5066.9165h1.3988c-.0214-.8145-.3243-1.4417-.9084-1.8814-.5846-.4394-1.3698-.6591-2.3559-.6591-.6327,0-1.1927.1044-1.6805.3136-.4878.209-.871.5093-1.1498.9003-.2788.3916-.418.855-.418,1.391,0,.6971.2438,1.2492.7316,1.6565.4878.4075,1.1551.6591,2.002.7556l.9489.0965c.6003.0643,1.0371.1985,1.3104.402.2736.2038.4101.4881.4101.8524,0,.4287-.1878.7774-.5629,1.0452-.3753.2681-.906.402-1.5919.402-.7185,0-1.2518-.1368-1.6-.4101-.3487-.2733-.5284-.6084-.5388-1.0049h-1.3991c.0214.8362.3403,1.493.9568,1.9698s1.4768.7156,2.5811.7156c.6858,0,1.2997-.1153,1.8411-.3458.5412-.2304.9623-.5548,1.2623-.973.3-.418.4504-.8843.4504-1.3988,0-.729-.2681-1.3026-.804-1.7208Z"/><path class="cls-1" d="m234.5272,200.9731h-1.415v2.6211h-1.4956v1.1095h1.4956v4.5831c0,.7292.1206,1.3107.3617,1.7449s.5893.7475,1.0452.9406c.4556.193,1.0104.2895,1.6643.2895h1.3188v-1.3347h-1.5118c-.4609,0-.82-.1258-1.0774-.378-.2571-.2516-.3858-.6136-.3858-1.0855v-4.7599h2.975v-1.1095h-2.975v-2.6211Z"/><path class="cls-1" d="m244.8829,208.7079c0,.7182-.2038,1.2892-.611,1.7124-.4075.4237-.9434.6353-1.6081.6353-.6327,0-1.1336-.193-1.5035-.5788-.3698-.3861-.555-.922-.555-1.6081v-5.2906h-1.4794v4.9851c0,1.2437.2736,2.1976.8203,2.8623.5467.6649,1.3238.9971,2.3316.9971h.0643c1.0075,0,1.7689-.3351,2.2834-1.0052.2575-.3351.4504-.7459.5791-1.2326v1.9804h1.1739v-8.587h-1.4956v5.1297Z"/><path class="cls-1" d="m248.0991,203.5942v1.1739h1.3669v8.0566c0,.418-.1101.7368-.3298.9568-.2197.2194-.5333.3296-.9406.3296h-.9168v1.3347h.6916c.7075,0,1.2728-.0913,1.6965-.2733.4235-.1826.7316-.48.9246-.8924.193-.413.2895-.973.2895-1.6805v-9.0053h-2.782Z"/><path class="cls-1" d="m249.8037,202.0504c.3215,0,.5652-.0884.7316-.2652.1661-.1768.2493-.4046.2493-.6835,0-.2895-.0832-.5171-.2493-.6835-.1664-.1661-.4101-.2493-.7316-.2493-.3217,0-.5658.0861-.7318.2574-.1664.1716-.2493.402-.2493.6913,0,.2791.0829.504.2493.6756.1661.1716.4101.2571.7318.2571Z"/><path class="cls-1" d="m259.2829,203.8837c-.6165-.3861-1.3643-.5788-2.2431-.5788-.9113,0-1.6805.209-2.3078.627-.627.4182-1.0962.9649-1.4069,1.6402-.311.6753-.4664,1.3991-.4664,2.171v.2733c0,.7614.1528,1.4794.4583,2.155.3055.6753.78,1.2249,1.4232,1.6481.6432.4235,1.4417.6353,2.3959.6353,1.0185,0,1.8681-.2521,2.5489-.7559.6806-.5038,1.1122-1.1953,1.2945-2.0744h-1.3991c-.0965.429-.3617.7907-.7959,1.0855-.4342.295-.9837.4423-1.6484.4423-.6432,0-1.1765-.142-1.6-.4261s-.7397-.6699-.9487-1.1579c-.1785-.4165-.2761-.8933-.3021-1.4232h6.839v-.6753c0-.7397-.153-1.4258-.4585-2.0582s-.7666-1.142-1.3829-1.5278Zm-3.779,1.1417c.4127-.2786.9246-.418,1.5359-.418.5681,0,1.0557.1232,1.4632.3698s.7101.5977.9087,1.0533c.1306.3001.2138.6374.2584,1.0049h-5.329c.0505-.3088.1283-.5968.2383-.8603.2035-.4878.5119-.871.9246-1.1498Z"/><path class="cls-1" d="m263.6648,210.5412c-.1716-.1823-.3861-.2736-.6432-.2736-.2574,0-.4719.0913-.6434.2736s-.2571.4075-.2571.6753c0,.2681.0855.493.2571.6753s.3861.2733.6434.2733c.2571,0,.4716-.091.6432-.2733.1713-.1823.2571-.4073.2571-.6753,0-.2678-.0858-.493-.2571-.6753Z"/></g><g><g><path class="cls-1" d="m129.9493,218.9389c-.6971-.4232-1.5063-.6351-2.4283-.6351h-55.9361c-.922,0-1.7315.2119-2.4281.6351-.6971.4237-1.2278.9756-1.5921,1.6565-.3646.6808-.5467,1.3965-.5467,2.1466v.2733c0,.7507.1768,1.466.5307,2.1469.3536.6808.8788,1.233,1.5759,1.6562.6968.4235,1.5168.6353,2.4602.6353h55.9361c.9434,0,1.7634-.2119,2.4605-.6353.6968-.4232,1.222-.9754,1.5759-1.6562.3536-.6808.5307-1.3962.5307-2.1469v-.2733c0-.7502-.1826-1.4658-.5469-2.1466s-.8951-1.2327-1.5919-1.6565Zm.2974,5.588c-.2412.4933-.5977.882-1.0693,1.166-.4719.2841-1.024.4261-1.6565.4261s-1.1846-.142-1.6562-.4261c-.4719-.2841-.831-.6727-1.0774-1.166-.2469-.4928-.3698-1.0452-.3698-1.6562s.1287-1.1632.3858-1.6562c.2574-.493.6191-.8791,1.0855-1.1579.4664-.2786,1.0104-.418,1.6321-.418.6113,0,1.1524.1394,1.6243.418.4716.2788.8333.6649,1.0855,1.1579.2516.493.378,1.0452.378,1.6562s-.1208,1.1634-.362,1.6562Z"/><path class="cls-2" d="m130.2466,224.5269c-.2412.4933-.5977.882-1.0693,1.166-.4719.2841-1.024.4261-1.6565.4261s-1.1846-.142-1.6562-.4261c-.4719-.2841-.831-.6727-1.0774-1.166-.2469-.4928-.3698-1.0452-.3698-1.6562s.1287-1.1632.3858-1.6562c.2574-.493.6191-.8791,1.0855-1.1579.4664-.2786,1.0104-.418,1.6321-.418.6113,0,1.1524.1394,1.6243.418.4716.2788.8333.6649,1.0855,1.1579.2516.493.378,1.0452.378,1.6562s-.1208,1.1634-.362,1.6562Z"/><path class="cls-1" d="m138.2305,218.336h-.0641c-1.0614,0-1.8573.3351-2.388,1.0049-.2701.341-.4705.7614-.6032,1.2592v-2.007h-1.1739v8.5711h1.4796v-5.1297c0-.6968.2113-1.2597.6351-1.6884.4235-.4287.9835-.6434,1.6803-.6434.6539,0,1.1741.2011,1.5599.6032.3861.402.5788.9463.5788,1.6321v5.2262h1.4796v-4.9045c0-1.2756-.2655-2.2486-.7962-2.9188-.5307-.6699-1.3266-1.0049-2.388-1.0049Z"/><polygon class="cls-1" points="142.6849 215.4253 142.6849 216.5992 143.891 216.5992 143.891 227.1642 145.3703 227.1642 145.3703 216.5992 145.3703 215.4253 143.891 215.4253 142.6849 215.4253"/><polygon class="cls-1" points="147.1712 218.5931 147.1712 219.767 148.49 219.767 148.49 227.1642 149.9694 227.1642 149.9694 219.767 149.9694 218.5931 148.49 218.5931 147.1712 218.5931"/><path class="cls-1" d="m148.1604,216.9207c.1658.1718.4099.2574.7316.2574.3215,0,.5681-.0855.7397-.2574.1713-.1713.2571-.402.2571-.6913,0-.2786-.0858-.5038-.2571-.6753-.1716-.1713-.4182-.2574-.7397-.2574-.3217,0-.5658.0861-.7316.2574-.1664.1716-.2495.402-.2495.6913,0,.2791.0832.504.2495.6753Z"/><path class="cls-1" d="m156.7875,218.336h-.0643c-1.0612,0-1.8573.3351-2.3878,1.0049-.2699.3409-.4705.761-.6032,1.2586v-2.0064h-1.1739v8.5711h1.4794v-5.1297c0-.6968.2116-1.2597.6353-1.6884.4232-.4287.9832-.6434,1.6803-.6434.6539,0,1.1739.2011,1.5599.6032.3858.402.5788.9463.5788,1.6321v5.2262h1.4794v-4.9045c0-1.2756-.2652-2.2486-.7959-2.9188-.5307-.6699-1.3266-1.0049-2.388-1.0049Z"/><path class="cls-1" d="m168.2449,218.8826c-.6165-.3861-1.3643-.5788-2.2431-.5788-.9115,0-1.6805.209-2.3078.627-.627.4182-1.0962.9649-1.4069,1.6402-.311.6753-.4664,1.3991-.4664,2.171v.2733c0,.7614.1528,1.4794.4583,2.155.3055.6753.78,1.2249,1.4232,1.6481.6432.4235,1.4417.6353,2.3962.6353,1.0183,0,1.8678-.2521,2.5486-.7559.6806-.5038,1.1122-1.1953,1.2945-2.0744h-1.3991c-.0963.429-.3617.7907-.7959,1.0855-.4342.295-.9837.4423-1.6481.4423-.6434,0-1.1768-.142-1.6002-.4261s-.7397-.6699-.9487-1.1579c-.1785-.4165-.2761-.8933-.3021-1.4232h6.8388v-.6753c0-.7397-.1528-1.4258-.4583-2.0582s-.7664-1.142-1.3829-1.5278Zm-3.779,1.1417c.4127-.2786.9246-.418,1.5359-.418.5681,0,1.0557.1232,1.4632.3698.4073.2467.7101.5977.9087,1.0533.1306.3001.2138.6374.2584,1.0049h-5.329c.0505-.3088.1283-.5968.2383-.8603.2035-.4878.5119-.871.9246-1.1498Z"/></g><g><path d="m74.7666,222.1819h.3667l.5857,2.1277h-.3506l-.6018-2.1277Zm.6895,1.8249h.4423v.3028h-.4423v-.3028Zm.6256-1.7535h.518l.5022,2.0563h-.3268l-.5022-2.0483h.1276l-.4343,2.0483h-.3149l.4303-2.0563Zm.7732,1.7535h.4423v.3028h-.4423v-.3028Zm.6893-1.8249h.3468l-.522,2.1277h-.3347l.5099-2.1277Z"/><path d="m78.1459,222.1819h.3667l.5857,2.1277h-.3506l-.6018-2.1277Zm.6895,1.8249h.4423v.3028h-.4423v-.3028Zm.6256-1.7535h.518l.5022,2.0563h-.3268l-.5022-2.0483h.1276l-.4343,2.0483h-.3149l.4303-2.0563Zm.7732,1.7535h.4423v.3028h-.4423v-.3028Zm.6893-1.8249h.3468l-.522,2.1277h-.3347l.5099-2.1277Z"/><path d="m81.5251,222.1819h.3667l.5857,2.1277h-.3506l-.6018-2.1277Zm.6895,1.8249h.4423v.3028h-.4423v-.3028Zm.6256-1.7535h.518l.5022,2.0563h-.3268l-.5022-2.0483h.1276l-.4343,2.0483h-.3149l.4303-2.0563Zm.7732,1.7535h.4423v.3028h-.4423v-.3028Zm.6893-1.8249h.3468l-.522,2.1277h-.3347l.5099-2.1277Z"/><path d="m85.0059,224.2401c-.0438-.0465-.0658-.1043-.0658-.1735s.0219-.1266.0658-.1731.099-.0699.1654-.0699.1215.0234.1654.0699.0658.1039.0658.1731-.0219.127-.0658.1735-.099.0696-.1654.0696-.1215-.0231-.1654-.0696Z"/><path d="m86.0599,222.1819h.3028v.9125h-.0478c0-.3134.0618-.5545.1854-.7235.1234-.1686.3088-.2529.5558-.2529h.0159c.2472,0,.4324.0843.556.2529.1234.169.1852.4101.1852.7235h-.1115c0-.3134.0631-.5545.1892-.7235.1262-.1686.3128-.2529.56-.2529h.0159c.247,0,.4337.0843.56.2529.1261.169.1892.4101.1892.7235v1.2152h-.3825v-1.2992c0-.1697-.0425-.3028-.1276-.3984s-.2032-.1433-.3546-.1433c-.1595,0-.2863.0503-.3806.1512s-.1414.2393-.1414.4147v1.275h-.3827v-1.2992c0-.1697-.0425-.3028-.1274-.3984-.085-.0956-.2034-.1433-.3547-.1433-.1593,0-.2863.0503-.3806.1512s-.1414.2393-.1414.4147v1.275h-.3825v-2.1277Z"/><path d="m89.9393,224.1841c-.1368-.121-.2052-.2914-.2052-.5122,0-.223.075-.3931.2251-.5099s.3646-.1754.6435-.1754h.578v.2869h-.5938c-.1514,0-.2689.0367-.3527.1096-.0837.0733-.1255.1693-.1255.2888,0,.1198.0418.2147.1255.285.0837.0707.2013.1058.3527.1058s.2795-.0427.3846-.1278c.1049-.085.1614-.223.1693-.4143l.1036.1512c-.0214.2287-.0936.4014-.2172.5182s-.2969.1754-.5201.1754c-.2417,0-.4309-.0605-.5677-.1814Zm1.2651-.5122h-.0637v-.7371c0-.1459-.0378-.2563-.1136-.3307s-.1867-.1115-.3328-.1115c-.2417,0-.4795.0079-.7133.0238v-.3345c.1727-.0163.368-.0242.5859-.0242.3321,0,.5717.0612.7191.1833.1476.1225.2213.3296.2213.6218v1.3468h-.303v-.6377Z"/><path d="m92.2087,222.1819h.3028v.9125h-.0478c0-.319.0658-.5613.1973-.7273s.3287-.2491.5917-.2491h.0159c.2631,0,.4604.0832.5919.2491.1314.1659.1971.4082.1971.7273v1.2152h-.3825v-1.295c0-.1675-.0472-.3001-.1414-.3984-.0945-.0983-.2213-.1474-.3806-.1474-.1675,0-.303.0525-.4065.1572-.1036.1051-.1554.2427-.1554.4124v1.2712h-.3825v-2.1277Z"/><path d="m94.9144,224.1263c-.1355-.1644-.2032-.4022-.2032-.7133v-1.2353h.3825v1.3113c0,.1671.0452.2982.1355.3924s.2124.1414.3667.1414c.162,0,.2928-.0518.3925-.1554.0996-.1036.1493-.243.1493-.4184v-1.2712h.3825v2.1319h-.3028v-.9125h.0478c0,.3186-.0631.5613-.1894.7273-.1261.1659-.3141.2491-.5638.2491h-.0159c-.2525,0-.4464-.0824-.5819-.2472Z"/><path d="m97.2836,224.1841c-.1368-.121-.2052-.2914-.2052-.5122,0-.223.075-.3931.2251-.5099s.3646-.1754.6435-.1754h.578v.2869h-.5938c-.1514,0-.2689.0367-.3527.1096-.0837.0733-.1255.1693-.1255.2888,0,.1198.0418.2147.1255.285.0837.0707.2013.1058.3527.1058s.2795-.0427.3846-.1278c.1049-.085.1614-.223.1693-.4143l.1036.1512c-.0214.2287-.0936.4014-.2172.5182s-.2969.1754-.5201.1754c-.2417,0-.4309-.0605-.5677-.1814Zm1.2651-.5122h-.0637v-.7371c0-.1459-.0378-.2563-.1136-.3307s-.1867-.1115-.3328-.1115c-.2417,0-.4795.0079-.7133.0238v-.3345c.1727-.0163.368-.0242.5859-.0242.3321,0,.5717.0612.7191.1833.1476.1225.2213.3296.2213.6218v1.3468h-.303v-.6377Z"/><path d="m99.2819,221.4006h.6774v.3028h-.6774v-.3028Zm.2948,0h.3825v2.909h-.3825v-2.909Z"/><path d="m100.6826,224.2401c-.0438-.0465-.0658-.1043-.0658-.1735s.0219-.1266.0658-.1731.099-.0699.1654-.0699.1215.0234.1654.0699.0658.1039.0658.1731-.0219.127-.0658.1735-.099.0696-.1654.0696-.1215-.0231-.1654-.0696Z"/><path d="m101.4977,222.1819h1.2313v.2869h-1.2313v-.2869Zm.4801-.6517c.1236-.113.3075-.1693.5521-.1693h.2391v.3186h-.303c-.0983,0-.1739.0272-.227.0816-.0533.0544-.0798.1297-.0798.2253v2.3231h-.3667v-2.2593c0-.234.0618-.4071.1852-.5201Zm.9665.6517h.6932v.3028h-.6932v-.3028Zm.231-.4086c-.0425-.0438-.0637-.1017-.0637-.1735,0-.0714.0212-.1293.0637-.1731s.1051-.0658.1873-.0658c.0824,0,.1448.0219.1873.0658s.0639.1017.0639.1731c0,.0718-.0214.1297-.0639.1735s-.1049.0658-.1873.0658c-.0822,0-.1448-.0219-.1873-.0658Zm.0798.4086h.3825v2.1277h-.3825v-2.1277Z"/><path d="m104.3788,222.1819h.3028v.8766h-.0159c0-.3081.0677-.5352.2032-.6815.1355-.1459.3413-.2192.6176-.2192h.0718v.3428h-.1355c-.2126,0-.3759.0563-.4901.1693-.1143.113-.1714.2756-.1714.488v1.1517h-.3825v-2.1277Z"/><path d="m106.0124,222.1819h.3028v.9125h-.0478c0-.3134.0618-.5545.1854-.7235.1234-.1686.3088-.2529.5558-.2529h.0159c.2472,0,.4324.0843.556.2529.1234.169.1852.4101.1852.7235h-.1115c0-.3134.0631-.5545.1892-.7235.1262-.1686.3128-.2529.56-.2529h.0159c.247,0,.4337.0843.56.2529.1261.169.1892.4101.1892.7235v1.2152h-.3825v-1.2992c0-.1697-.0425-.3028-.1276-.3984s-.2032-.1433-.3546-.1433c-.1595,0-.2863.0503-.3806.1512s-.1414.2393-.1414.4147v1.275h-.3827v-1.2992c0-.1697-.0425-.3028-.1274-.3984-.085-.0956-.2034-.1433-.3547-.1433-.1593,0-.2863.0503-.3806.1512s-.1414.2393-.1414.4147v1.275h-.3825v-2.1277Z"/><path d="m109.8918,224.1841c-.1368-.121-.2052-.2914-.2052-.5122,0-.223.075-.3931.2251-.5099s.3646-.1754.6435-.1754h.578v.2869h-.5938c-.1514,0-.2689.0367-.3527.1096-.0837.0733-.1255.1693-.1255.2888,0,.1198.0418.2147.1255.285.0837.0707.2013.1058.3527.1058s.2795-.0427.3846-.1278c.1049-.085.1614-.223.1693-.4143l.1036.1512c-.0214.2287-.0936.4014-.2172.5182s-.2969.1754-.5201.1754c-.2417,0-.4309-.0605-.5677-.1814Zm1.2651-.5122h-.0637v-.7371c0-.1459-.0378-.2563-.1136-.3307s-.1867-.1115-.3328-.1115c-.2417,0-.4795.0079-.7133.0238v-.3345c.1727-.0163.368-.0242.5859-.0242.3321,0,.5717.0612.7191.1833.1476.1225.2213.3296.2213.6218v1.3468h-.303v-.6377Z"/><path d="m112.1512,224.2401c-.0438-.0465-.0658-.1043-.0658-.1735s.0219-.1266.0658-.1731.099-.0699.1654-.0699.1215.0234.1654.0699.0658.1039.0658.1731-.0219.127-.0658.1735-.099.0696-.1654.0696-.1215-.0231-.1654-.0696Z"/><path d="m113.4723,224.2219c-.1622-.1062-.2829-.2434-.3627-.4124-.0798-.1686-.1196-.3447-.1196-.5281v-.0714c0-.186.0406-.3633.1217-.5322.0809-.1686.2018-.3054.3625-.4105.1608-.1047.354-.1572.5798-.1572.178,0,.3381.0333.4802.0994.1421.0665.2563.161.3427.2831s.1348.2642.1455.4264h-.3667c-.0214-.138-.0845-.2502-.1894-.3368-.1049-.0862-.2425-.1297-.4124-.1297-.1487,0-.2742.034-.3765.1017-.1024.068-.1788.1614-.2293.2812-.0505.1194-.0756.2563-.0756.4101,0,.1516.0259.2869.0777.4067.0518.1194.1287.2139.2311.2827.1022.0692.2291.1036.3804.1036.1142,0,.2166-.0204.3069-.0616.0902-.0412.162-.0983.2151-.1712.0531-.0733.085-.155.0956-.2453h.3667c-.0079.1648-.0565.3088-.1453.4324-.089.1236-.2066.2192-.3527.2869-.1463.0677-.3083.1017-.4863.1017-.2311,0-.4277-.0533-.5897-.1595Z"/><path d="m115.4288,223.8833l1.1597-1.3906v.0639l-.0639-.0956.0518.0238h-1.1635v-.3028h1.5142v.4264l-1.1597,1.3906v-.0559l.0718.0998-.0559-.0359h1.2075v.3028h-1.5621v-.4264Z"/></g></g></g></svg>