<?xml version="1.0" encoding="UTF-8"?>
<svg id="Vrstva_1" data-name="Vrstva 1" xmlns="http://www.w3.org/2000/svg" viewBox="0 0 595.2756 841.8898">
  <defs>
    <style>

      .brand-text {
        font-family: 'ExistujeSoraBarevna';
      }

      .cls-7, .cls-8 {
        fill: #fff;
      }

      .cls-9 {
        fill: #b700ff;
      }

   
    </style>
  </defs>
  <rect width="595.2756" height="841.8898"/>

       <g class="brand-text" transform="translate(26.5371 259.5264)" fill="#fff" font-size="48.4349" font-variation-settings="&apos;wght&apos; 381">
    <text property="1 řádek" x="0" y="0">† pdf manuál</text>
    <text property="2 řádek" x="0" y="58.1221">je mrtvý…</text>
    <text x="0" y="116.2437">existuje.ônline</text>
 </g>
  <g>
    <path class="cls-7" d="m43.8799,787.6269c-1.2429-.7782-2.7501-1.1662-4.5219-1.1662-1.8369,0-3.3873.4207-4.6513,1.2632-1.2643.8436-2.2099,1.9455-2.8362,3.3068-.6272,1.3613-.9401,2.8197-.9401,4.376v.5505c0,1.5353.3079,2.982.9237,4.3443.6161,1.3613,1.5722,2.4685,2.8687,3.3215,1.2968.8541,2.9062,1.2812,4.8298,1.2812,2.0528,0,3.765-.5083,5.1377-1.5237,1.3722-1.0154,2.2416-2.4094,2.6093-4.182h-2.8199c-.1946.8647-.7295,1.5944-1.6047,2.188-.8749.5947-1.9827.8921-3.3224.8921-1.2965,0-2.3718-.2868-3.2251-.8594-.8541-.5726-1.491-1.3497-1.9126-2.3335-.3607-.8419-.5657-1.7989-.6177-2.8692h13.7943v-1.3613c0-1.491-.3079-2.8734-.9237-4.1482-.6161-1.2749-1.5454-2.3019-2.7878-3.0801Zm-7.6173,2.3019c.8315-.562,1.8638-.8425,3.0954-.8425,1.1451,0,2.1282.2478,2.9499.7455.821.4966,1.4313,1.2042,1.8314,2.1226.2637.6063.4387,1.2826.5285,2.0256h-10.753c.1019-.6232.2618-1.2022.4841-1.7336.4102-.9838,1.0315-1.7557,1.8638-2.3177Z"/>
    <polygon class="cls-7" points="64.1225 787.0438 61.0432 787.0438 57.0238 793.591 56.5701 793.591 52.3237 787.0438 49.0174 787.0438 54.6819 795.603 48.7255 804.3201 51.8052 804.3201 56.5376 797.2542 56.9913 797.2542 61.9184 804.3201 65.2247 804.3201 58.8541 795.2562 64.1225 787.0438"/>
    <polygon class="cls-7" points="66.7158 787.0438 66.7158 789.41 69.3738 789.41 69.3738 804.3201 72.3559 804.3201 72.3559 789.41 72.3559 787.0438 69.3738 787.0438 66.7158 787.0438"/>
    <path class="cls-7" d="m70.1842,784.1915c.648,0,1.1449-.1729,1.491-.5188.3453-.3458.5185-.8109.5185-1.394,0-.561-.1732-1.0154-.5185-1.3613-.3461-.3448-.8431-.5188-1.491-.5188-.6485,0-1.1402.174-1.475.5188-.3353.3459-.5024.8109-.5024,1.394,0,.562.1671,1.0154.5024,1.3613.3348.3459.8265.5188,1.475.5188Z"/>
    <path class="cls-7" d="m88.79,795.8929c-1.0809-.8425-2.5824-1.3613-4.5058-1.5564l-1.8799-.194c-.9941-.1076-1.7236-.3617-2.188-.7613-.4648-.3996-.6968-.9353-.6968-1.6049,0-.7993.329-1.4478.9886-1.9444.659-.4977,1.5721-.7455,2.7389-.7455,1.1881,0,2.1013.2372,2.7391.7128.6371.4756.9775,1.0914,1.0209,1.8474h2.8203c-.0435-1.6418-.6541-2.9061-1.8314-3.7929-1.1781-.8858-2.7609-1.3286-4.7489-1.3286-1.2753,0-2.4042.2109-3.3872.6327-.9836.4207-1.756,1.026-2.3178,1.8148-.5623.7887-.8428,1.723-.8428,2.8038,0,1.4045.4914,2.5181,1.4749,3.3384.983.8214,2.3283,1.3286,4.0355,1.5237l1.9126.194c1.21.1297,2.0908.4007,2.6418.8109.5509.4102.8264.9838.8264,1.7177,0,.8647-.3783,1.5669-1.1343,2.1068-.7569.541-1.8264.8109-3.2091.8109-1.448,0-2.5233-.2762-3.2251-.8267-.7025-.5515-1.0648-1.2263-1.0861-2.0256h-2.8199c.0429,1.685.6856,3.0094,1.9286,3.9701,1.2425.9617,2.9766,1.4425,5.2026,1.4425,1.3827,0,2.6199-.232,3.7115-.697,1.0909-.4639,1.9392-1.1177,2.5444-1.9613.6047-.8425.9077-1.782.9077-2.8196,0-1.4689-.5405-2.6256-1.6208-3.4681Z"/>
    <path class="cls-7" d="m98.1574,781.7599h-2.8524v5.2839h-3.0148v2.2365h3.0148v9.2382c0,1.4699.2431,2.6414.7292,3.5166.4861.8752,1.1881,1.5068,2.1068,1.8959.9185.3891,2.0368.5841,3.3548.5841h2.6581v-2.691h-3.0469c-.9292,0-1.6532-.2531-2.1717-.7613-.5185-.5072-.778-1.2368-.778-2.188v-9.5946h5.9966v-2.2365h-5.9966v-5.2839Z"/>
    <path class="cls-7" d="m119.0319,797.3512c0,1.4478-.4107,2.5992-1.2316,3.4523-.8215.8541-1.9017,1.2801-3.2415,1.2801-1.2754,0-2.2853-.3891-3.0308-1.1662-.7455-.7782-1.1182-1.859-1.1182-3.2414v-10.6648h-2.9821v10.049c0,2.5064.551,4.4298,1.6532,5.769,1.1019,1.3402,2.6686,2.0098,4.7001,2.0098h.1295c2.0312,0,3.5657-.6748,4.6031-2.0256.5186-.6753.9075-1.5029,1.1668-2.483v3.9898h2.3663v-17.309h-3.0145v10.34Z"/>
    <path class="cls-7" d="m128.9509,783.9321c.6482,0,1.1393-.1782,1.4747-.5346.3348-.3564.5024-.8161.5024-1.3782,0-.5831-.1676-1.0418-.5024-1.3771-.3354-.3353-.8265-.503-1.4747-.503s-1.1402.174-1.4749.5188c-.3354.3459-.5025.8109-.5025,1.394,0,.562.1671,1.0154.5025,1.3613.3348.3459.8264.5188,1.4749.5188Z"/>
    <path class="cls-7" d="m125.5149,787.0438v2.3662h2.755v16.2397c0,.8425-.2216,1.4847-.6643,1.9286-.4431.4418-1.0753.6643-1.8962.6643h-1.8478v2.6899h1.3937c1.4262,0,2.5658-.1834,3.4197-.5504.8536-.368,1.4749-.968,1.8638-1.7989.3891-.833.5836-1.9613.5836-3.388v-18.1515h-5.6077Z"/>
    <path class="cls-7" d="m148.0586,787.6269c-1.2427-.7782-2.7501-1.1662-4.5216-1.1662-1.8372,0-3.3876.4207-4.6516,1.2632-1.2641.8436-2.2099,1.9455-2.8362,3.3068-.6269,1.3613-.9401,2.8197-.9401,4.376v.5505c0,1.5353.3079,2.982.9237,4.3443.6161,1.3613,1.5722,2.4685,2.8687,3.3215,1.2968.8541,2.9062,1.2812,4.8298,1.2812,2.0528,0,3.7653-.5083,5.1377-1.5237,1.3722-1.0154,2.2418-2.4094,2.6093-4.182h-2.8199c-.1946.8647-.7295,1.5944-1.6047,2.188-.8749.5947-1.9827.8921-3.3224.8921-1.2965,0-2.3718-.2868-3.2251-.8594-.8539-.5726-1.491-1.3497-1.9126-2.3335-.3605-.8419-.5656-1.7989-.6177-2.8692h13.7943v-1.3613c0-1.491-.3079-2.8734-.9237-4.1482-.6161-1.2749-1.5454-2.3019-2.7878-3.0801Zm-7.6173,2.3019c.8318-.562,1.8638-.8425,3.0957-.8425,1.1451,0,2.1279.2478,2.9496.7455.821.4966,1.4313,1.2042,1.8314,2.1226.2639.6063.4388,1.2826.5286,2.0256h-10.7531c.1019-.6232.2618-1.2022.4841-1.7336.4102-.9838,1.0315-1.7557,1.8638-2.3177Z"/>
    <path class="cls-7" d="m155.595,800.4955c-.5189,0-.9512.1835-1.2968.5515-.3459.3669-.5185.8214-.5185,1.3613s.1726.9933.5185,1.3613c.3456.3669.7779.5504,1.2968.5504.5185,0,.9506-.1835,1.2965-.5504.3453-.368.5185-.8214.5185-1.3613s-.1732-.9944-.5185-1.3613c-.3459-.368-.778-.5515-1.2965-.5515Z"/>
    <path class="cls-7" d="m483.1639,787.7408c-1.4051-.8531-3.0364-1.2801-4.8947-1.2801H168.5925c-1.8585,0-3.49.4271-4.8944,1.2801-1.4051.8541-2.4749,1.9666-3.209,3.3384-.735,1.3729-1.1022,2.8154-1.1022,4.3275v.5505c0,1.5131.3567,2.9556,1.0698,4.3275.7131,1.3729,1.7715,2.4853,3.1766,3.3384,1.4043.8541,3.0574,1.2812,4.9592,1.2812h309.6767c1.9015,0,3.5544-.4271,4.9595-1.2812,1.4046-.8531,2.4635-1.9655,3.1766-3.3384.7131-1.3718,1.0698-2.8143,1.0698-4.3275v-.5505c0-1.5121-.3678-2.9546-1.1022-4.3275-.735-1.3718-1.8045-2.4843-3.209-3.3384Zm.5997,11.2638c-.4864.9943-1.205,1.7778-2.1556,2.3504-.9511.5726-2.0639.8584-3.3387.8584s-2.3881-.2858-3.3387-.8584c-.9512-.5726-1.6748-1.356-2.1717-2.3504-.4975-.9933-.7456-2.1068-.7456-3.3384s.2594-2.3451.778-3.3384c.5186-.9943,1.248-1.7725,2.1881-2.3345.9398-.561,2.0365-.8425,3.29-.8425,1.2319,0,2.3228.2815,3.2739.8425.9506.562,1.6801,1.3402,2.1881,2.3345.5075.9933.7616,2.1068.7616,3.3384s-.2431,2.3451-.7292,3.3384Z"/>
    <path class="cls-9" d="m483.7636,799.0046c-.4864.9943-1.205,1.7778-2.1556,2.3504-.9511.5726-2.0639.8584-3.3387.8584s-2.3881-.2858-3.3387-.8584c-.9512-.5726-1.6748-1.356-2.1717-2.3504-.4975-.9933-.7456-2.1068-.7456-3.3384s.2594-2.3451.778-3.3384c.5186-.9943,1.248-1.7725,2.1881-2.3345.9398-.561,2.0365-.8425,3.29-.8425,1.2319,0,2.3228.2815,3.2739.8425.9506.562,1.6801,1.3402,2.1881,2.3345.5075.9933.7616,2.1068.7616,3.3384s-.2431,2.3451-.7292,3.3384Z"/>
    <path class="cls-7" d="m499.857,786.525h-.1294c-2.1395,0-3.7439.6759-4.8137,2.0256-.5441.6871-.9482,1.534-1.2156,2.5371v-4.0439h-2.3663v17.2763h2.9821v-10.34c0-1.4045.4265-2.5391,1.2804-3.4028.8536-.8646,1.9824-1.297,3.3872-1.297,1.3179,0,2.3665.4049,3.1442,1.2158.7782.8098,1.1671,1.9075,1.1671,3.2899v10.5341h2.9821v-9.8856c0-2.5718-.5349-4.5331-1.6044-5.8839-1.0698-1.3497-2.6744-2.0256-4.8137-2.0256Z"/>
    <polygon class="cls-7" points="508.8357 780.658 508.8357 783.0242 511.2668 783.0242 511.2668 804.3201 514.2489 804.3201 514.2489 783.0242 514.2489 780.658 511.2668 780.658 508.8357 780.658"/>
    <path class="cls-7" d="m521.3476,784.1915c.6483,0,1.1452-.1729,1.491-.5188.3454-.3458.5186-.8109.5186-1.394,0-.561-.1732-1.0154-.5186-1.3613-.3458-.3448-.8428-.5188-1.491-.5188s-1.1402.174-1.4749.5188c-.3351.3459-.5025.8109-.5025,1.394,0,.562.1674,1.0154.5025,1.3613.3348.3459.8267.5188,1.4749.5188Z"/>
    <polygon class="cls-7" points="517.8792 787.0438 517.8792 789.41 520.5372 789.41 520.5372 804.3201 523.5193 804.3201 523.5193 789.41 523.5193 787.0438 520.5372 787.0438 517.8792 787.0438"/>
    <path class="cls-7" d="m537.2631,786.525h-.1297c-2.1393,0-3.7439.6759-4.8134,2.0256-.5441.687-.9482,1.5338-1.2156,2.5366v-4.0434h-2.3662v17.2763h2.9821v-10.34c0-1.4045.4265-2.5391,1.2804-3.4028.8534-.8646,1.9824-1.297,3.3873-1.297,1.3178,0,2.3662.4049,3.1442,1.2158.7779.8098,1.167,1.9075,1.167,3.2899v10.5341h2.9821v-9.8856c0-2.5718-.5349-4.5331-1.6046-5.8839-1.0695-1.3497-2.6742-2.0256-4.8135-2.0256Z"/>
    <path class="cls-7" d="m564.0696,794.8553c0-1.491-.3079-2.8734-.9237-4.1482-.6161-1.2749-1.5453-2.3019-2.7878-3.0801-1.2427-.7782-2.7501-1.1662-4.5216-1.1662-1.8372,0-3.3875.4207-4.6516,1.2632-1.2641.8436-2.21,1.9455-2.8363,3.3068-.6269,1.3613-.9401,2.8197-.9401,4.376v.5505c0,1.5353.3079,2.982.9237,4.3443.6161,1.3613,1.5722,2.4685,2.8687,3.3215,1.2967.8541,2.9062,1.2812,4.8298,1.2812,2.0528,0,3.7653-.5083,5.1377-1.5237,1.3721-1.0154,2.2418-2.4094,2.6093-4.182h-2.8199c-.1946.8647-.7295,1.5944-1.6047,2.188-.8749.5947-1.9827.8921-3.3224.8921-1.2965,0-2.3718-.2868-3.2251-.8594-.8539-.5726-1.491-1.3497-1.9126-2.3335-.3605-.8419-.5656-1.7989-.6177-2.8692h13.7942v-1.3613Zm-11.3288-4.9265c.8317-.562,1.8638-.8425,3.0957-.8425,1.1451,0,2.1279.2478,2.9497.7455.8209.4966,1.4312,1.2042,1.8314,2.1226.2638.6063.4388,1.2826.5285,2.0256h-10.7531c.1019-.6232.2618-1.2022.4841-1.7336.4102-.9838,1.0315-1.7557,1.8638-2.3177Z"/>
  </g>
</svg>