<?xml version="1.0" encoding="UTF-8"?>
<svg id="Vrstva_1" data-name="Vrstva 1" xmlns="http://www.w3.org/2000/svg" viewBox="0 0 420.945 297.6379">
  <defs>
    <style>


      .cls-6, .cls-7 {
        fill: #fff;
      }

      .cls-8 {
        fill: #b700ff;
      }
 .brand-text {
        font-family: 'ExistujeSoraBarevna';
      }
  
    </style>
  </defs>
  <rect x=".0001" y="0" width="420.9449" height="297.6378"/>
  <g>
    <path class="cls-6" d="m21.9411,270.484c-.6215-.3891-1.375-.5831-2.2609-.5831-.9185,0-1.6936.2104-2.3257.6316-.6321.4218-1.1049.9727-1.4181,1.6534-.3136.6807-.4701,1.4098-.4701,2.188v.2752c0,.7676.154,1.491.4619,2.1722.308.6807.7861,1.2342,1.4343,1.6608.6484.4271,1.4531.6406,2.4149.6406,1.0264,0,1.8825-.2541,2.5688-.7619.6861-.5077,1.1208-1.2047,1.3047-2.091h-1.4099c-.0973.4323-.3647.7972-.8024,1.094-.4375.2974-.9914.446-1.6612.446-.6482,0-1.1859-.1434-1.6126-.4297-.4271-.2863-.7455-.6748-.9563-1.1667-.1804-.4209-.2829-.8994-.3089-1.4346h6.8971v-.6807c0-.7455-.154-1.4367-.4619-2.0741-.308-.6374-.7727-1.1509-1.3939-1.54Zm-3.8087,1.1509c.4157-.281.9319-.4212,1.5477-.4212.5726,0,1.0641.1239,1.4749.3728.4105.2483.7156.6021.9157,1.0613.1319.3032.2194.6413.2643,1.0128h-5.3765c.051-.3116.1309-.6011.242-.8668.2051-.4919.5158-.8778.9319-1.1588Z"/>
    <polygon class="cls-6" points="32.0624 270.1925 30.5228 270.1925 28.5131 273.466 28.2862 273.466 26.163 270.1925 24.5099 270.1925 27.3421 274.4721 24.3639 278.8306 25.9038 278.8306 28.27 275.2976 28.4968 275.2976 30.9604 278.8306 32.6135 278.8306 29.4282 274.2987 32.0624 270.1925"/>
    <polygon class="cls-6" points="33.3591 270.1925 33.3591 271.3756 34.6881 271.3756 34.6881 278.8306 36.1791 278.8306 36.1791 271.3756 36.1791 270.1925 34.6881 270.1925 33.3591 270.1925"/>
    <path class="cls-6" d="m35.0933,268.7663c.324,0,.5725-.0865.7455-.2594.1726-.1729.2593-.4054.2593-.697,0-.2805-.0866-.5077-.2593-.6807-.1731-.1724-.4215-.2594-.7455-.2594-.3242,0-.5701.087-.7375.2594-.1676.1729-.2512.4054-.2512.697,0,.281.0836.5077.2512.6806.1674.1729.4133.2594.7375.2594Z"/>
    <path class="cls-6" d="m44.3962,274.617c-.5404-.4213-1.2912-.6807-2.2529-.7782l-.9399-.097c-.497-.0538-.8618-.1808-1.094-.3807-.2324-.1998-.3484-.4677-.3484-.8024,0-.3997.1645-.7239.4943-.9722.3295-.2489.7861-.3728,1.3695-.3728.5941,0,1.0507.1186,1.3695.3564.3186.2378.4887.5457.5105.9237h1.4101c-.0218-.8209-.327-1.453-.9157-1.8965-.5891-.4429-1.3804-.6643-2.3745-.6643-.6377,0-1.2021.1055-1.6936.3163-.4918.2104-.878.513-1.1589.9074-.2811.3944-.4214.8615-.4214,1.4019,0,.7022.2457,1.259.7375,1.6692.4915.4107,1.1641.6643,2.0177.7618l.9563.097c.605.0649,1.0454.2004,1.3209.4054.2755.2051.4132.4919.4132.8589,0,.4323-.1892.7835-.5672,1.0534-.3785.2705-.9132.4054-1.6045.4054-.724,0-1.2617-.1381-1.6126-.4133-.3513-.2758-.5324-.6132-.5431-1.0128h-1.4099c.0215.8425.3428,1.5047.9643,1.985.6212.4808,1.4883.7212,2.6013.7212.6913,0,1.31-.116,1.8558-.3485.5455-.232.9696-.5589,1.2722-.9806.3024-.4213.4539-.891.4539-1.4098,0-.7344-.2702-1.3128-.8104-1.7341Z"/>
    <path class="cls-6" d="m49.0799,267.5505h-1.4262v2.6419h-1.5074v1.1183h1.5074v4.6191c0,.735.1215,1.3207.3646,1.7583.2431.4376.5941.7534,1.0534.948.4592.1945,1.0184.2921,1.6774.2921h1.3291v-1.3455h-1.5235c-.4646,0-.8266-.1265-1.0859-.3807-.2593-.2536-.389-.6184-.389-1.094v-4.7973h2.9983v-1.1183h-2.9983v-2.6419Z"/>
    <path class="cls-6" d="m59.5171,275.3461c0,.7239-.2054,1.2996-.6158,1.7262-.4107.4271-.9509.6401-1.6208.6401-.6377,0-1.1426-.1945-1.5154-.5831-.3727-.3891-.5591-.9295-.5591-1.6207v-5.3324h-1.4911v5.0245c0,1.2532.2755,2.2149.8266,2.8845.551.6701,1.3343,1.0049,2.35,1.0049h.0647c1.0156,0,1.7829-.3374,2.3015-1.0128.2593-.3376.4537-.7514.5834-1.2415v1.9949h1.1831v-8.6545h-1.5073v5.17Z"/>
    <path class="cls-6" d="m64.4766,268.6366c.3241,0,.5697-.0891.7374-.2673.1674-.1782.2512-.4081.2512-.6891,0-.2916-.0838-.5209-.2512-.6885-.1677-.1677-.4133-.2515-.7374-.2515s-.5701.087-.7375.2594c-.1677.1729-.2512.4054-.2512.697,0,.281.0836.5077.2512.6807.1674.1729.4132.2594.7375.2594Z"/>
    <path class="cls-6" d="m62.7586,270.1925v1.1831h1.3775v8.1199c0,.4213-.1108.7424-.3321.9643-.2216.2209-.5376.3321-.9481.3321h-.9239v1.345h.6969c.7131,0,1.2829-.0917,1.7098-.2752.4268-.184.7375-.484.9319-.8995.1945-.4165.2918-.9807.2918-1.694v-9.0757h-2.8038Z"/>
    <path class="cls-6" d="m74.0305,270.484c-.6214-.3891-1.375-.5831-2.2608-.5831-.9186,0-1.6938.2104-2.3258.6316-.632.4218-1.1049.9727-1.4181,1.6534-.3135.6807-.4701,1.4098-.4701,2.188v.2752c0,.7676.154,1.491.4619,2.1722.308.6807.7861,1.2342,1.4343,1.6608.6484.4271,1.4531.6406,2.4149.6406,1.0264,0,1.8826-.2541,2.5688-.7619.6861-.5077,1.1209-1.2047,1.3047-2.091h-1.4099c-.0973.4323-.3647.7972-.8024,1.094-.4375.2974-.9914.446-1.6612.446-.6482,0-1.1859-.1434-1.6126-.4297-.4269-.2863-.7455-.6748-.9563-1.1667-.1802-.4209-.2828-.8994-.3089-1.4346h6.8971v-.6807c0-.7455-.154-1.4367-.4619-2.0741-.308-.6374-.7727-1.1509-1.3939-1.54Zm-3.8087,1.1509c.4159-.281.9319-.4212,1.5479-.4212.5726,0,1.0639.1239,1.4748.3728.4105.2483.7156.6021.9157,1.0613.1319.3032.2194.6413.2643,1.0128h-5.3766c.051-.3116.1309-.6011.242-.8668.2051-.4919.5158-.8778.9319-1.1588Z"/>
    <path class="cls-6" d="m77.7987,276.9183c-.2594,0-.4756.0918-.6484.2758-.1729.1835-.2593.4107-.2593.6807s.0863.4967.2593.6807c.1728.1835.3889.2752.6484.2752.2593,0,.4753-.0917.6482-.2752.1726-.184.2593-.4107.2593-.6807s-.0866-.4972-.2593-.6807c-.1729-.184-.389-.2758-.6482-.2758Z"/>
    <path class="cls-6" d="m365.0259,270.541c-.7025-.4265-1.5182-.6401-2.4473-.6401H84.2974c-.9293,0-1.745.2135-2.4472.6401-.7025.4271-1.2374.9833-1.6045,1.6692-.3675.6864-.5511,1.4077-.5511,2.1638v.2752c0,.7566.1783,1.4778.5349,2.1637.3565.6865.8858,1.2427,1.5883,1.6692.7021.4271,1.5287.6406,2.4796.6406h278.2811c.9507,0,1.7772-.2135,2.4797-.6406.7023-.4265,1.2318-.9827,1.5883-1.6692.3566-.6859.5349-1.4072.5349-2.1637v-.2752c0-.756-.1839-1.4773-.5511-2.1638-.3675-.6859-.9022-1.2421-1.6045-1.6692Zm.2999,5.6319c-.2432.4972-.6025.8889-1.0778,1.1752-.4756.2863-1.0319.4292-1.6694.4292s-1.1941-.1429-1.6694-.4292c-.4756-.2863-.8374-.678-1.0859-1.1752-.2487-.4967-.3728-1.0534-.3728-1.6692s.1297-1.1726.389-1.6692c.2593-.4972.624-.8862,1.094-1.1673.4699-.2805,1.0182-.4213,1.645-.4213.616,0,1.1614.1408,1.637.4213.4753.281.84.6701,1.094,1.1673.2537.4967.3808,1.0534.3808,1.6692s-.1215,1.1726-.3646,1.6692Z"/>
    <path class="cls-8" d="m365.3257,276.1729c-.2432.4972-.6025.8889-1.0778,1.1752-.4756.2863-1.0319.4292-1.6694.4292s-1.1941-.1429-1.6694-.4292c-.4756-.2863-.8374-.678-1.0859-1.1752-.2487-.4967-.3728-1.0534-.3728-1.6692s.1297-1.1726.389-1.6692c.2593-.4972.624-.8862,1.094-1.1673.4699-.2805,1.0182-.4213,1.645-.4213.616,0,1.1614.1408,1.637.4213.4753.281.84.6701,1.094,1.1673.2537.4967.3808,1.0534.3808,1.6692s-.1215,1.1726-.3646,1.6692Z"/>
    <path class="cls-6" d="m373.3725,269.9331h-.0647c-1.0698,0-1.872.3379-2.4068,1.0128-.2721.3436-.4741.767-.6078,1.2686v-2.022h-1.1831v8.6381h1.491v-5.17c0-.7023.2133-1.2696.6402-1.7014.4268-.4323.9912-.6485,1.6936-.6485.6589,0,1.1833.2025,1.5721.6079.3891.4049.5835.9538.5835,1.645v5.267h1.491v-4.9428c0-1.2859-.2675-2.2666-.8022-2.942-.5349-.6748-1.3372-1.0128-2.4069-1.0128Z"/>
    <polygon class="cls-6" points="377.8618 266.9996 377.8618 268.1827 379.0773 268.1827 379.0773 278.8306 380.5684 278.8306 380.5684 268.1827 380.5684 266.9996 379.0773 266.9996 377.8618 266.9996"/>
    <path class="cls-6" d="m384.1177,268.7663c.3241,0,.5726-.0865.7455-.2594.1727-.1729.2593-.4054.2593-.697,0-.2805-.0866-.5077-.2593-.6807-.1729-.1724-.4214-.2594-.7455-.2594s-.5701.087-.7375.2594c-.1675.1729-.2512.4054-.2512.697,0,.281.0837.5077.2512.6806.1674.1729.4134.2594.7375.2594Z"/>
    <polygon class="cls-6" points="382.3835 270.1925 382.3835 271.3756 383.7126 271.3756 383.7126 278.8306 385.2036 278.8306 385.2036 271.3756 385.2036 270.1925 383.7126 270.1925 382.3835 270.1925"/>
    <path class="cls-6" d="m392.0755,269.9331h-.0649c-1.0696,0-1.872.3379-2.4067,1.0128-.272.3435-.4741.7669-.6078,1.2683v-2.0217h-1.1831v8.6381h1.491v-5.17c0-.7023.2132-1.2696.6402-1.7014.4267-.4323.9912-.6485,1.6936-.6485.6589,0,1.1831.2025,1.5721.6079.389.4049.5835.9538.5835,1.645v5.267h1.491v-4.9428c0-1.2859-.2675-2.2666-.8023-2.942-.5348-.6748-1.3371-1.0128-2.4067-1.0128Z"/>
    <path class="cls-6" d="m405.4788,274.0982c0-.7455-.1539-1.4367-.4619-2.0741-.308-.6374-.7727-1.1509-1.3939-1.54-.6214-.3891-1.375-.5831-2.2608-.5831-.9186,0-1.6938.2104-2.3258.6316-.632.4218-1.105.9727-1.4181,1.6534-.3135.6807-.4701,1.4098-.4701,2.188v.2752c0,.7676.154,1.491.4619,2.1722.308.6807.7861,1.2342,1.4344,1.6608.6484.4271,1.4531.6406,2.4149.6406,1.0264,0,1.8826-.2541,2.5689-.7619.6861-.5077,1.1209-1.2047,1.3046-2.091h-1.4099c-.0973.4323-.3647.7972-.8024,1.094-.4375.2974-.9913.446-1.6612.446-.6482,0-1.1859-.1434-1.6126-.4297-.4269-.2863-.7455-.6748-.9563-1.1667-.1802-.4209-.2828-.8994-.3088-1.4346h6.8971v-.6807Zm-5.6644-2.4632c.4159-.281.9319-.4212,1.5479-.4212.5726,0,1.064.1239,1.4748.3728.4104.2483.7156.6021.9157,1.0613.1319.3032.2194.6413.2643,1.0128h-5.3766c.051-.3116.1309-.6011.242-.8668.2051-.4919.5158-.8778.9319-1.1588Z"/>
  </g>
        <g class="brand-text" transform="translate(15.5366 81.124)" fill="#fff" font-size="34.9103" font-variation-settings="&apos;wght&apos; 381">
    <text property="1 řádek" x="0" y="0">† pdf manuál</text>
    <text property="2 řádek" x="0" y="41.8926">je mrtvý…</text>
    <text x="0" y="83.7847">existuje.ônline</text>
 </g>
</svg>