<?xml version="1.0" encoding="UTF-8"?>
<svg  id="svg-template" data-name="Vrstva 1" xmlns="http://www.w3.org/2000/svg" viewBox="0 0 1080 1080">
  <defs>
    <style>
      .cls-5, .cls-6 {
        fill: #fff;
      }

      .cls-7 {
        fill: #b700ff;
      }

      .brand-text {
        font-family: 'ExistujeSoraBarevna';
      }
    </style>
  </defs>
  <rect width="1080" height="1080"/>
    <g class="brand-text" transform="translate(45.9004 316.2874)" fill="#fff" font-size="89.8785" font-variation-settings="&apos;wght&apos; 381">
    <text property="1 řádek" x="0" y="0">† pdf manuál</text>
    <text property="2 řádek" x="0" y="106.1777">je mrtvý…</text>
    <text x="0" y="212.3555">existuje.ônline</text>
 </g>
  <g>
    <path class="cls-5" d="m65.1452,999.5134c-1.8548-1.1613-4.1039-1.7404-6.748-1.7404-2.7413,0-5.0549.6278-6.9412,1.8851-1.8867,1.2589-3.2978,2.9033-4.2325,4.9347-.936,2.0316-1.4029,4.2078-1.4029,6.5304v.8215c0,2.2911.4595,4.45,1.3785,6.4831.9194,2.0315,2.3462,3.6837,4.281,4.9568,1.9352,1.2746,4.337,1.912,7.2076,1.912,3.0635,0,5.6185-.7585,7.667-2.2739,2.0477-1.5153,3.3452-3.5956,3.8939-6.2408h-4.2082c-.2903,1.2904-1.0886,2.3793-2.3947,3.2651-1.3057.8875-2.9588,1.3313-4.958,1.3313-1.9347,0-3.5394-.428-4.8129-1.2825-1.2746-.8544-2.2251-2.0142-2.8541-3.4823-.5383-1.2563-.8442-2.6845-.9219-4.2818h20.5853v-2.0315c0-2.225-.4595-4.288-1.3785-6.1905-.9194-1.9025-2.3062-3.4351-4.1603-4.5965Zm-11.3674,3.4351c1.2408-.8387,2.7814-1.2573,4.6193-1.2573,1.7089,0,3.1759.3698,4.4021,1.1125,1.2251.7411,2.1359,1.797,2.733,3.1676.3936.9048.6547,1.9141.7887,3.0229h-16.0469c.1521-.9301.3908-1.794.7224-2.587.6121-1.4681,1.5394-2.62,2.7813-3.4587Z"/>
    <polygon class="cls-5" points="95.3535 998.6432 90.7582 998.6432 84.76 1008.4136 84.0829 1008.4136 77.7459 998.6432 72.8119 998.6432 81.2651 1011.4162 72.3764 1024.4248 76.9722 1024.4248 84.0345 1013.8802 84.7115 1013.8802 92.0643 1024.4248 96.9983 1024.4248 87.4913 1010.8987 95.3535 998.6432"/>
    <polygon class="cls-5" points="99.2234 998.6432 99.2234 1002.1743 103.19 1002.1743 103.19 1024.4248 107.6403 1024.4248 107.6403 1002.1743 107.6403 998.6432 103.19 998.6432 99.2234 998.6432"/>
    <path class="cls-5" d="m104.3994,994.3866c.967,0,1.7086-.258,2.2251-.7742.5153-.5161.7738-1.2101.7738-2.0802,0-.8372-.2585-1.5154-.7738-2.0315-.5165-.5146-1.2581-.7742-2.2251-.7742-.9678,0-1.7015.2596-2.2012.7742-.5004.5161-.7498,1.2101-.7498,2.0803,0,.8387.2494,1.5154.7498,2.0314.4997.5162,1.2334.7742,2.2012.7742Z"/>
    <path class="cls-5" d="m132.165,1011.8487c-1.613-1.2573-3.8538-2.0315-6.724-2.3226l-2.8053-.2896c-1.4835-.1605-2.5721-.5397-3.2652-1.1362-.6936-.5963-1.0398-1.3958-1.0398-2.3949,0-1.1928.4909-2.1606,1.4753-2.9017.9835-.7428,2.3461-1.1125,4.0873-1.1125,1.7731,0,3.1358.354,4.0876,1.0637.9508.7097,1.4587,1.6287,1.5236,2.7569h4.2087c-.065-2.4501-.9761-4.3368-2.733-5.6602-1.7581-1.3218-4.1201-1.9827-7.0869-1.9827-1.9032,0-3.5877.3148-5.0548.9441-1.4678.6279-2.6204,1.5311-3.4588,2.7082-.8391,1.177-1.2577,2.5712-1.2577,4.1842,0,2.0959.7333,3.7577,2.2011,4.9819,1.467,1.2258,3.4745,1.9827,6.0222,2.2738l2.8541.2895c1.8057.1936,3.1201.598,3.9424,1.2101.8221.6121,1.2332,1.4681,1.2332,2.5634,0,1.2904-.5645,2.3383-1.6927,3.144-1.1295.8073-2.7256,1.2101-4.789,1.2101-2.1609,0-3.7656-.4122-4.8129-1.2336-1.0484-.823-1.589-1.8301-1.6208-3.0229h-4.2082c.0641,2.5146,1.0232,4.491,2.878,5.9246,1.8542,1.4351,4.442,2.1526,7.7638,2.1526,2.0634,0,3.9097-.3462,5.5387-1.0401,1.628-.6923,2.894-1.668,3.7971-2.9268.9025-1.2573,1.3546-2.6594,1.3546-4.2078,0-2.192-.8065-3.9182-2.4187-5.1755Z"/>
    <path class="cls-5" d="m146.1442,990.7579h-4.2566v7.8852h-4.499v3.3376h4.499v13.7862c0,2.1936.3627,3.9418,1.0883,5.2478.7254,1.3061,1.7731,2.2486,3.144,2.8293,1.3706.5806,3.0395.8717,5.0064.8717h3.9667v-4.0158h-4.547c-1.3867,0-2.4671-.3776-3.2409-1.1362-.7738-.7568-1.1609-1.8458-1.1609-3.2651v-14.3181h8.9488v-3.3376h-8.9488v-7.8852Z"/>
    <path class="cls-5" d="m177.2954,1014.025c0,2.1605-.6129,3.8789-1.8379,5.1519-1.2259,1.2746-2.838,1.9103-4.8373,1.9103-1.9033,0-3.4104-.5806-4.523-1.7404-1.1125-1.1613-1.6687-2.7743-1.6687-4.8372v-15.9152h-4.4503v14.9963c0,3.7404.8222,6.6106,2.4671,8.6091,1.6444,2,3.9824,2.9992,7.0139,2.9992h.1932c3.0312,0,5.3212-1.007,6.8692-3.0228.7739-1.0077,1.3543-2.2427,1.7412-3.7054v5.954h3.5312v-25.8303h-4.4986v15.4305Z"/>
    <path class="cls-5" d="m192.0976,993.9996c.9673,0,1.7003-.266,2.2007-.7978.4996-.5318.7498-1.2179.7498-2.0567,0-.8702-.2502-1.5547-.7498-2.0551-.5005-.5004-1.2334-.7507-2.2007-.7507s-1.7015.2597-2.2011.7742c-.5005.5161-.7499,1.2101-.7499,2.0802,0,.8387.2494,1.5154.7499,2.0316.4996.5161,1.2333.7742,2.2011.7742Z"/>
    <path class="cls-5" d="m186.97,998.6432v3.5311h4.1113v24.2347c0,1.2573-.3307,2.2157-.9913,2.8781-.6613.6593-1.6047.9913-2.8297.9913h-2.7574v4.0142h2.0799c2.1284,0,3.829-.2737,5.1032-.8213,1.2738-.5492,2.2011-1.4446,2.7814-2.6846.5806-1.2431.8709-2.9269.8709-5.0559v-27.0877h-8.3684Z"/>
    <path class="cls-5" d="m220.6122,999.5134c-1.8545-1.1613-4.1039-1.7404-6.7476-1.7404-2.7417,0-5.0553.6278-6.9417,1.8851-1.8864,1.2589-3.2978,2.9033-4.2325,4.9347-.9356,2.0316-1.4029,4.2078-1.4029,6.5304v.8215c0,2.2911.4595,4.45,1.3785,6.4831.9194,2.0315,2.3462,3.6837,4.281,4.9568,1.9352,1.2746,4.337,1.912,7.2076,1.912,3.0635,0,5.619-.7585,7.667-2.2739,2.0477-1.5153,3.3455-3.5956,3.8939-6.2408h-4.2082c-.2903,1.2904-1.0886,2.3793-2.3947,3.2651-1.3057.8875-2.9588,1.3313-4.958,1.3313-1.9347,0-3.5394-.428-4.8129-1.2825-1.2743-.8544-2.2251-2.0142-2.8541-3.4823-.538-1.2563-.844-2.6845-.9219-4.2818h20.5853v-2.0315c0-2.225-.4595-4.288-1.3785-6.1905-.9194-1.9025-2.3062-3.4351-4.1603-4.5965Zm-11.3674,3.4351c1.2413-.8387,2.7814-1.2573,4.6198-1.2573,1.7089,0,3.1754.3698,4.4017,1.1125,1.2251.7411,2.1359,1.797,2.733,3.1676.3938.9048.6549,1.9141.7888,3.0229h-16.047c.1521-.9301.3908-1.794.7224-2.587.6121-1.4681,1.5394-2.62,2.7813-3.4587Z"/>
    <path class="cls-5" d="m231.8589,1018.7173c-.7743,0-1.4194.2739-1.9352.823-.5162.5476-.7738,1.2258-.7738,2.0315s.2576,1.4823.7738,2.0315c.5157.5476,1.1608.8214,1.9352.8214.7738,0,1.4185-.2738,1.9347-.8214.5153-.5492.7738-1.2258.7738-2.0315s-.2585-1.4839-.7738-2.0315c-.5162-.5492-1.1609-.823-1.9347-.823Z"/>
    <path class="cls-5" d="m913.443,999.6833c-2.0968-1.273-4.5313-1.9103-7.3043-1.9103H251.2552c-2.7735,0-5.2082.6373-7.304,1.9103-2.0968,1.2746-3.6933,2.9347-4.7889,4.9819-1.0969,2.0488-1.6448,4.2015-1.6448,6.458v.8215c0,2.2581.5322,4.4107,1.5965,6.4579,1.0641,2.0488,2.6437,3.7089,4.7405,4.9819,2.0956,1.2746,4.5626,1.912,7.4007,1.912h654.8834c2.8376,0,5.3043-.6374,7.4011-1.912,2.0961-1.273,3.6764-2.9331,4.7405-4.9819,1.0642-2.0472,1.5965-4.1999,1.5965-6.4579v-.8215c0-2.2565-.5488-4.4092-1.6448-6.458-1.0968-2.0472-2.6928-3.7073-4.7889-4.9819Zm.8949,16.809c-.7258,1.4838-1.7982,2.653-3.2168,3.5075-1.4194.8544-3.08,1.2809-4.9824,1.2809s-3.5638-.4265-4.9824-1.2809c-1.4194-.8544-2.4993-2.0236-3.2409-3.5075-.7424-1.4824-1.1126-3.144-1.1126-4.982s.3872-3.4996,1.1609-4.982c.7739-1.4838,1.8624-2.6451,3.2653-3.4839,1.4025-.8372,3.039-1.2573,4.9096-1.2573,1.8384,0,3.4663.4202,4.8857,1.2573,1.4186.8387,2.5072,2,3.2653,3.4839.7573,1.4824,1.1365,3.144,1.1365,4.982s-.3627,3.4996-1.0881,4.982Z"/>
    <path class="cls-7" d="m914.3379,1016.4924c-.7258,1.4838-1.7982,2.653-3.2168,3.5075-1.4194.8544-3.08,1.2809-4.9824,1.2809s-3.5638-.4265-4.9824-1.2809c-1.4194-.8544-2.4993-2.0236-3.2409-3.5075-.7424-1.4824-1.1126-3.144-1.1126-4.982s.3872-3.4996,1.1609-4.982c.7739-1.4838,1.8624-2.6451,3.2653-3.4839,1.4025-.8372,3.039-1.2573,4.9096-1.2573,1.8384,0,3.4663.4202,4.8857,1.2573,1.4186.8387,2.5072,2,3.2653,3.4839.7573,1.4824,1.1365,3.144,1.1365,4.982s-.3627,3.4996-1.0881,4.982Z"/>
    <path class="cls-5" d="m938.3544,997.869h-.1931c-3.1928,0-5.5871,1.0087-7.1835,3.0228-.812,1.0254-1.4151,2.2893-1.814,3.7862v-6.0348h-3.5312v25.7816h4.4502v-15.4305c0-2.096.6365-3.7892,1.9108-5.078,1.2738-1.2903,2.9584-1.9355,5.0548-1.9355,1.9666,0,3.5316.6043,4.6921,1.8143,1.1613,1.2085,1.7416,2.8466,1.7416,4.9096v15.7201h4.4502v-14.7524c0-3.8379-.7982-6.7648-2.3943-8.7806-1.5964-2.0142-3.9911-3.0228-7.1836-3.0228Z"/>
    <polygon class="cls-5" points="951.7533 989.1136 951.7533 992.6447 955.3813 992.6447 955.3813 1024.4248 959.8315 1024.4248 959.8315 992.6447 959.8315 989.1136 955.3813 989.1136 951.7533 989.1136"/>
    <path class="cls-5" d="m970.425,994.3866c.9674,0,1.709-.258,2.2251-.7742.5154-.5161.7739-1.2101.7739-2.0802,0-.8372-.2585-1.5154-.7739-2.0315-.5161-.5146-1.2577-.7742-2.2251-.7742s-1.7015.2596-2.2011.7742c-.5.5161-.7498,1.2101-.7498,2.0803,0,.8387.2498,1.5154.7498,2.0314.4996.5162,1.2337.7742,2.2011.7742Z"/>
    <polygon class="cls-5" points="965.249 998.6432 965.249 1002.1743 969.2157 1002.1743 969.2157 1024.4248 973.6658 1024.4248 973.6658 1002.1743 973.6658 998.6432 969.2157 998.6432 965.249 998.6432"/>
    <path class="cls-5" d="m994.1759,997.869h-.1936c-3.1924,0-5.5871,1.0087-7.1831,3.0228-.8119,1.0252-1.415,2.2889-1.814,3.7854v-6.0341h-3.5311v25.7816h4.4502v-15.4305c0-2.096.6365-3.7892,1.9107-5.078,1.2735-1.2903,2.9584-1.9355,5.0549-1.9355,1.9666,0,3.5311.6043,4.6921,1.8143,1.1609,1.2085,1.7416,2.8466,1.7416,4.9096v15.7201h4.4502v-14.7524c0-3.8379-.7982-6.7648-2.3946-8.7806-1.5961-2.0142-3.9907-3.0228-7.1832-3.0228Z"/>
    <path class="cls-5" d="m1034.1795,1010.3003c0-2.225-.4595-4.288-1.3785-6.1905-.9194-1.9025-2.3061-3.4351-4.1603-4.5965-1.8545-1.1613-4.1039-1.7404-6.7476-1.7404-2.7416,0-5.0553.6278-6.9416,1.8851-1.8864,1.2589-3.298,2.9033-4.2326,4.9347-.9356,2.0316-1.4029,4.2078-1.4029,6.5304v.8215c0,2.2911.4595,4.45,1.3785,6.4831.9194,2.0315,2.3462,3.6837,4.281,4.9568,1.9351,1.2746,4.3369,1.912,7.2075,1.912,3.0635,0,5.619-.7585,7.6671-2.2739,2.0476-1.5153,3.3455-3.5956,3.8939-6.2408h-4.2082c-.2903,1.2904-1.0886,2.3793-2.3947,3.2651-1.3057.8875-2.9588,1.3313-4.958,1.3313-1.9347,0-3.5394-.428-4.8129-1.2825-1.2743-.8544-2.2251-2.0142-2.8541-3.4823-.538-1.2563-.844-2.6845-.9218-4.2818h20.5852v-2.0315Zm-16.9061-7.3518c1.2412-.8387,2.7814-1.2573,4.6198-1.2573,1.7089,0,3.1756.3698,4.4018,1.1125,1.225.7411,2.1358,1.797,2.733,3.1676.3937.9048.6548,1.9141.7887,3.0229h-16.047c.1521-.9301.3908-1.794.7224-2.587.6121-1.4681,1.5394-2.62,2.7813-3.4587Z"/>
  </g>
</svg>