<?xml version="1.0" encoding="UTF-8"?>
<svg id="svg-template" data-name="Vrstva 1" xmlns="http://www.w3.org/2000/svg" viewBox="0 0 1080 1920">
  <defs>
    <style>

      .cls-6, .cls-7 {
        fill: #fff;
      }

      .cls-8 {
        fill: #b700ff;
      }

      .brand-text {
        font-family: 'ExistujeSoraBarevna';
      }
    </style>
  </defs>
  <rect width="1080" height="1920"/>
      <g class="brand-text" transform="translate(66.0801 605.4246)" fill="#fff" font-size="89.8785" font-variation-settings="&apos;wght&apos; 381">
    <text property="1 řádek" x="0" y="0">† pdf manuál</text>
    <text property="2 řádek" x="0" y="101.8369">je mrtvý…</text>
    <text x="0" y="203.6748">existuje.ônline</text>
 </g>
  <g>
    <path class="cls-6" d="m93.9952,1803.7935c-2.6787-1.6771-5.9267-2.5134-9.7453-2.5134-3.9588,0-7.3.9067-10.0243,2.7224-2.7247,1.818-4.7626,4.1928-6.1124,7.1265-1.3517,2.9339-2.0261,6.0768-2.0261,9.4309v1.1863c0,3.3087.6636,6.4266,1.9908,9.3627,1.3278,2.9338,3.3884,5.3199,6.1824,7.1583,2.7947,1.8407,6.2633,2.7612,10.4089,2.7612,4.4242,0,8.114-1.0954,11.0724-3.2838,2.9572-2.1883,4.831-5.1926,5.6234-9.0127h-6.0773c-.4193,1.8635-1.5721,3.4361-3.4583,4.7154-1.8856,1.2818-4.273,1.9225-7.1602,1.9225-2.7941,0-5.1115-.6181-6.9506-1.8521-1.8407-1.234-3.2134-2.9088-4.1218-5.029-.7774-1.8143-1.2192-3.8768-1.3313-6.1835h29.7285v-2.9338c0-3.2133-.6636-6.1925-1.9908-8.94-1.3278-2.7475-3.3305-4.9609-6.0081-6.638Zm-16.4163,4.9609c1.792-1.2112,4.0168-1.8157,6.6711-1.8157,2.4679,0,4.5865.534,6.3574,1.6067,1.7693,1.0703,3.0846,2.5952,3.9468,4.5745.5684,1.3067.9456,2.7642,1.139,4.3655h-23.1742c.2197-1.3432.5643-2.5909,1.0433-3.7361.884-2.1202,2.2231-3.7837,4.0167-4.995Z"/>
    <polygon class="cls-6" points="137.6208 1802.5368 130.9844 1802.5368 122.3221 1816.6468 121.3443 1816.6468 112.1927 1802.5368 105.0671 1802.5368 117.2749 1820.9831 104.4382 1839.7695 111.0752 1839.7695 121.2743 1824.5415 122.2521 1824.5415 132.8706 1839.7695 139.9962 1839.7695 126.2665 1820.2357 137.6208 1802.5368"/>
    <polygon class="cls-6" points="143.2096 1802.5368 143.2096 1807.6363 148.938 1807.6363 148.938 1839.7695 155.3649 1839.7695 155.3649 1807.6363 155.3649 1802.5368 148.938 1802.5368 143.2096 1802.5368"/>
    <path class="cls-6" d="m150.6846,1796.3897c1.3965,0,2.4674-.3726,3.2134-1.1181.7442-.7453,1.1175-1.7476,1.1175-3.0042,0-1.209-.3733-2.1884-1.1175-2.9338-.7459-.7431-1.8169-1.118-3.2134-1.118-1.3976,0-2.4572.3749-3.1789,1.118-.7226.7454-1.0828,1.7476-1.0828,3.0043,0,1.2112.3602,2.1884,1.0828,2.9337.7216.7455,1.7813,1.1181,3.1789,1.1181Z"/>
    <path class="cls-6" d="m190.7824,1821.6077c-2.3294-1.8158-5.5654-2.9338-9.7106-3.3542l-4.0513-.4182c-2.1424-.2319-3.7145-.7795-4.7155-1.6408-1.0016-.8612-1.5016-2.0157-1.5016-3.4587,0-1.7226.709-3.1202,2.1306-4.1905,1.4203-1.0727,3.3882-1.6067,5.9028-1.6067,2.5606,0,4.5287.5113,5.9031,1.5362,1.3731,1.0249,2.1066,2.3521,2.2003,3.9814h6.0781c-.0938-3.5383-1.4096-6.263-3.9468-8.1742-2.539-1.9089-5.9501-2.8633-10.2346-2.8633-2.7485,0-5.1813.4546-7.2999,1.3635-2.1197.9068-3.7843,2.2111-4.9951,3.911-1.2118,1.6998-1.8163,3.7132-1.8163,6.0426,0,3.0269,1.059,5.4267,3.1787,7.1947,2.1186,1.7702,5.0178,2.8633,8.697,3.2838l4.1218.4181c2.6077.2796,4.506.8636,5.6934,1.7476,1.1873.884,1.7809,2.1202,1.7809,3.7019,0,1.8635-.8153,3.3769-2.4446,4.5404-1.6312,1.1658-3.9361,1.7476-6.916,1.7476-3.1207,0-5.4381-.5953-6.9506-1.7816-1.5141-1.1886-2.2947-2.6429-2.3407-4.3655h-6.0773c.0925,3.6315,1.4776,6.4857,4.1563,8.556,2.6777,2.0725,6.4149,3.1087,11.2122,3.1087,2.9799,0,5.6463-.4999,7.9988-1.5021,2.3511-.9998,4.1793-2.4089,5.4836-4.2268,1.3033-1.8158,1.9562-3.8406,1.9562-6.0767,0-3.1657-1.1648-5.6585-3.493-7.4743Z"/>
    <path class="cls-6" d="m210.9706,1791.1492h-6.1473v11.3875h-6.4972v4.82h6.4972v19.9095c0,3.1678.5238,5.6926,1.5716,7.5787,1.0476,1.8863,2.5606,3.2474,4.5405,4.086,1.9794.8385,4.3895,1.2589,7.23,1.2589h5.7286v-5.7994h-6.5666c-2.0026,0-3.5629-.5454-4.6803-1.6408-1.1175-1.093-1.6766-2.6656-1.6766-4.7154v-20.6776h12.9235v-4.82h-12.9235v-11.3875Z"/>
    <path class="cls-6" d="m255.958,1824.7505c0,3.1201-.8851,5.6017-2.6542,7.4402-1.7704,1.8407-4.0985,2.7588-6.9859,2.7588-2.7487,0-4.9251-.8385-6.5319-2.5134-1.6066-1.6772-2.4099-4.0065-2.4099-6.9857v-22.9841h-6.4269v21.657c0,5.4017,1.1875,9.5468,3.5629,12.4329,2.3747,2.8884,5.7513,4.3313,10.1293,4.3313h.279c4.3775,0,7.6847-1.4543,9.9202-4.3654,1.1176-1.4553,1.9558-3.2389,2.5146-5.3512v8.5986h5.0996v-37.3032h-6.4967v22.2842Z"/>
    <path class="cls-6" d="m277.3348,1795.8307c1.3969,0,2.4554-.3842,3.1782-1.1522.7215-.7681,1.0828-1.7589,1.0828-2.9702,0-1.2567-.3613-2.2452-1.0828-2.9678-.7228-.7227-1.7813-1.0841-3.1782-1.0841s-2.4572.375-3.1787,1.1181c-.7228.7454-1.083,1.7476-1.083,3.0042,0,1.2113.3602,2.1884,1.083,2.9339.7215.7454,1.7811,1.1181,3.1787,1.1181Z"/>
    <path class="cls-6" d="m269.9297,1802.5368v5.0995h5.9374v34.9988c0,1.8158-.4776,3.1998-1.4316,4.1565-.955.9521-2.3174,1.4316-4.0865,1.4316h-3.9822v5.7971h3.0037c3.0737,0,5.5296-.3953,7.3699-1.1862,1.8396-.7931,3.1787-2.0862,4.0168-3.8769.8385-1.7953,1.2578-4.2269,1.2578-7.3016v-39.1189h-12.0853Z"/>
    <path class="cls-6" d="m318.5145,1803.7935c-2.6782-1.6771-5.9267-2.5134-9.7446-2.5134-3.9595,0-7.3007.9067-10.0249,2.7224-2.7242,1.818-4.7626,4.1928-6.1124,7.1265-1.3511,2.9339-2.0261,6.0768-2.0261,9.4309v1.1863c0,3.3087.6636,6.4266,1.9908,9.3627,1.3278,2.9338,3.3884,5.3199,6.1824,7.1583,2.7947,1.8407,6.2633,2.7612,10.4089,2.7612,4.4242,0,8.1147-1.0954,11.0724-3.2838,2.9572-2.1883,4.8315-5.1926,5.6234-9.0127h-6.0773c-.4193,1.8635-1.5721,3.4361-3.4583,4.7154-1.8856,1.2818-4.273,1.9225-7.1602,1.9225-2.7941,0-5.1115-.6181-6.9506-1.8521-1.8402-1.234-3.2134-2.9088-4.1218-5.029-.7769-1.8143-1.2189-3.8768-1.3313-6.1835h29.7285v-2.9338c0-3.2133-.6636-6.1925-1.9908-8.94-1.3278-2.7475-3.3305-4.9609-6.0081-6.638Zm-16.4163,4.9609c1.7926-1.2112,4.0168-1.8157,6.6717-1.8157,2.4679,0,4.5859.534,6.3567,1.6067,1.7693,1.0703,3.0846,2.5952,3.9468,4.5745.5687,1.3067.9457,2.7642,1.1392,4.3655h-23.1744c.2197-1.3432.5643-2.5909,1.0433-3.7361.884-2.1202,2.2231-3.7837,4.0167-4.995Z"/>
    <path class="cls-6" d="m334.7565,1831.5271c-1.1183,0-2.0499.3955-2.7947,1.1886-.7455.7908-1.1175,1.7702-1.1175,2.9338s.372,2.1407,1.1175,2.9338c.7448.7908,1.6764,1.1862,2.7947,1.1862,1.1175,0,2.0486-.3954,2.7941-1.1862.7442-.7931,1.1175-1.7702,1.1175-2.9338s-.3733-2.143-1.1175-2.9338c-.7455-.7931-1.6766-1.1886-2.7941-1.1886Z"/>
    <path class="cls-6" d="m839.5499,1804.0389c-3.0282-1.8385-6.5439-2.7588-10.5486-2.7588h-466.2334c-4.0053,0-7.5215.9204-10.5481,2.7588-3.0282,1.8407-5.3337,4.2382-6.9159,7.1947-1.5841,2.9588-2.3754,6.0676-2.3754,9.3264v1.1863c0,3.261.7686,6.3698,2.3056,9.3263,1.5368,2.9588,3.8179,5.3563,6.8461,7.1947,3.0264,1.8407,6.5891,2.7612,10.6877,2.7612h466.2334c4.0979,0,7.6602-.9204,10.6883-2.7612,3.027-1.8385,5.3093-4.2359,6.8461-7.1947,1.5369-2.9565,2.3056-6.0653,2.3056-9.3263v-1.1863c0-3.2587-.7926-6.3676-2.3754-9.3264-1.5839-2.9565-3.8888-5.354-6.9159-7.1947Zm1.2924,24.2749c-1.0482,2.1429-2.5969,3.8314-4.6456,5.0654-2.0498,1.234-4.448,1.8499-7.1955,1.8499s-5.1467-.6159-7.1955-1.8499c-2.0499-1.234-3.6094-2.9225-4.6803-5.0654-1.0721-2.1408-1.6068-4.5405-1.6068-7.1948s.5591-5.054,1.6766-7.1948c1.1176-2.1429,2.6896-3.82,4.7156-5.0313,2.0254-1.209,4.3888-1.8158,7.0903-1.8158,2.655,0,5.0059.6068,7.0557,1.8158,2.0487,1.2113,3.6208,2.8884,4.7156,5.0313,1.0936,2.1408,1.6413,4.5405,1.6413,7.1948s-.5238,5.054-1.5714,7.1948Z"/>
    <path class="cls-8" d="m840.8423,1828.3139c-1.0482,2.1429-2.5969,3.8314-4.6456,5.0654-2.0498,1.234-4.448,1.8499-7.1955,1.8499s-5.1467-.6159-7.1955-1.8499c-2.0499-1.234-3.6094-2.9225-4.6803-5.0654-1.0721-2.1408-1.6068-4.5405-1.6068-7.1948s.5591-5.054,1.6766-7.1948c1.1176-2.1429,2.6896-3.82,4.7156-5.0313,2.0254-1.209,4.3888-1.8158,7.0903-1.8158,2.655,0,5.0059.6068,7.0557,1.8158,2.0487,1.2113,3.6208,2.8884,4.7156,5.0313,1.0936,2.1408,1.6413,4.5405,1.6413,7.1948s-.5238,5.054-1.5714,7.1948Z"/>
    <path class="cls-6" d="m875.5259,1801.4187h-.2789c-4.611,0-8.0687,1.4567-10.3741,4.3654-1.1727,1.4809-2.0436,3.306-2.6197,5.4678v-8.7152h-5.0996v37.2328h6.4268v-22.2842c0-3.027.9192-5.4722,2.7595-7.3334,1.8396-1.8634,4.2723-2.7952,7.3-2.7952,2.8402,0,5.1002.8726,6.7761,2.6202,1.6772,1.7453,2.5152,4.111,2.5152,7.0902v22.7024h6.4267v-21.3048c0-5.5426-1.1528-9.7695-3.4577-12.6806-2.3055-2.9088-5.7637-4.3654-10.3742-4.3654Z"/>
    <polygon class="cls-6" points="894.8762 1788.7745 894.8762 1793.874 900.1155 1793.874 900.1155 1839.7695 906.5423 1839.7695 906.5423 1793.874 906.5423 1788.7745 900.1155 1788.7745 894.8762 1788.7745"/>
    <path class="cls-6" d="m921.8411,1796.3897c1.3971,0,2.4681-.3726,3.2134-1.1181.7443-.7453,1.1176-1.7476,1.1176-3.0042,0-1.209-.3733-2.1884-1.1176-2.9338-.7453-.7431-1.8163-1.118-3.2134-1.118s-2.4572.3749-3.1787,1.118c-.7221.7454-1.0829,1.7476-1.0829,3.0043,0,1.2112.3607,2.1884,1.0829,2.9337.7215.7455,1.7817,1.1181,3.1787,1.1181Z"/>
    <polygon class="cls-6" points="914.3661 1802.5368 914.3661 1807.6363 920.0946 1807.6363 920.0946 1839.7695 926.5214 1839.7695 926.5214 1807.6363 926.5214 1802.5368 920.0946 1802.5368 914.3661 1802.5368"/>
    <path class="cls-6" d="m956.1412,1801.4187h-.2796c-4.6104,0-8.0687,1.4567-10.3736,4.3654-1.1725,1.4806-2.0435,3.3055-2.6197,5.4668v-8.7142h-5.0995v37.2328h6.4268v-22.2842c0-3.027.9191-5.4722,2.7594-7.3334,1.8391-1.8634,4.2723-2.7952,7.3-2.7952,2.8401,0,5.0995.8726,6.7761,2.6202,1.6765,1.7453,2.5151,4.111,2.5151,7.0902v22.7024h6.4267v-21.3048c0-5.5426-1.1528-9.7695-3.4582-12.6806-2.305-2.9088-5.7633-4.3654-10.3737-4.3654Z"/>
    <path class="cls-6" d="m1013.9128,1819.3715c0-3.2133-.6636-6.1925-1.9908-8.94-1.3278-2.7475-3.3304-4.9609-6.0081-6.638-2.6782-1.6771-5.9267-2.5134-9.7446-2.5134-3.9593,0-7.3006.9067-10.0248,2.7224-2.7242,1.818-4.7628,4.1928-6.1126,7.1265-1.3511,2.9339-2.0261,6.0768-2.0261,9.4309v1.1863c0,3.3087.6636,6.4266,1.9908,9.3627,1.3278,2.9338,3.3884,5.3199,6.1825,7.1583,2.7946,1.8407,6.2632,2.7612,10.4088,2.7612,4.4242,0,8.1147-1.0954,11.0725-3.2838,2.9571-2.1883,4.8314-5.1926,5.6234-9.0127h-6.0773c-.4193,1.8635-1.5721,3.4361-3.4583,4.7154-1.8856,1.2818-4.2729,1.9225-7.1602,1.9225-2.7941,0-5.1115-.6181-6.9506-1.8521-1.8402-1.234-3.2134-2.9088-4.1218-5.029-.7769-1.8143-1.2189-3.8768-1.3312-6.1835h29.7283v-2.9338Zm-24.4152-10.6172c1.7925-1.2112,4.0168-1.8157,6.6717-1.8157,2.4679,0,4.586.534,6.3569,1.6067,1.7691,1.0703,3.0844,2.5952,3.9468,4.5745.5685,1.3067.9456,2.7642,1.139,4.3655h-23.1744c.2197-1.3432.5643-2.5909,1.0433-3.7361.884-2.1202,2.2231-3.7837,4.0167-4.995Z"/>
  </g>
</svg>